%FSLAX23Y23*%
%MOIN*%
G04 EasyPC Gerber Version 17.0 Build 3379 *
%ADD10C,0.00100*%
%ADD12C,0.00500*%
%ADD11C,0.00700*%
X0Y0D02*
D02*
D10*
X74Y1906D02*
Y1867D01*
X426*
Y1906*
X74*
X76Y1903D02*
X424D01*
Y1869*
X76*
Y1903*
X229Y1492D02*
X269D01*
Y1845*
X229*
Y1492*
X232Y1495D02*
Y1842D01*
X266*
Y1495*
X232*
X308Y1492D02*
X347D01*
Y1845*
X308*
Y1492*
X311Y1495D02*
Y1842D01*
X345*
Y1495*
X311*
X389Y1845D02*
Y1492D01*
X741*
Y1845*
X389*
X391Y1842D02*
X739D01*
Y1495*
X391*
Y1842*
X425Y1808D02*
Y1529D01*
X704*
Y1808*
X425*
X428Y1806D02*
X702D01*
Y1532*
X428*
Y1806*
X2728Y1697D02*
Y1760D01*
X2739Y1760*
X2747Y1760*
X2752Y1760*
X2755Y1759*
X2758Y1758*
X2764Y1753*
X2766Y1745*
X2766Y1739*
X2765Y1733*
X2761Y1730*
X2756Y1727*
X2754Y1727*
X2756Y1726*
X2758Y1724*
X2761Y1721*
X2764Y1715*
X2769Y1705*
X2774Y1697*
X2765*
X2760Y1706*
X2757Y1714*
X2754Y1718*
X2752Y1721*
X2749Y1723*
X2745Y1724*
X2740Y1724*
X2736Y1724*
Y1697*
X2728*
X2749Y1731D02*
X2754Y1732D01*
X2757Y1735*
X2758Y1738*
X2758Y1742*
X2758Y1745*
X2757Y1748*
X2754Y1751*
X2750Y1753*
X2747Y1753*
X2742Y1753*
X2736*
Y1730*
X2741*
X2746Y1730*
X2749Y1731*
X2793Y1696D02*
X2789Y1698D01*
X2786Y1701*
X2782Y1708*
X2780Y1718*
X2782Y1733*
X2788Y1742*
X2793Y1744*
X2799Y1745*
X2805Y1745*
X2811Y1743*
X2814Y1740*
X2818Y1735*
X2820Y1726*
X2820Y1716*
X2817Y1704*
X2808Y1697*
X2801Y1696*
X2793Y1696*
X2804Y1762D02*
X2798Y1772D01*
X2793Y1779*
X2788Y1784*
X2783Y1790*
X2779Y1793*
X2775Y1797*
X2770Y1802*
X2765Y1806*
X2757Y1814*
X2752Y1818*
X2750Y1821*
X2749Y1822*
X2750Y1824*
X2755Y1828*
X2761Y1833*
X2770Y1841*
X2776Y1845*
X2780Y1848*
X2783Y1850*
X2784Y1850*
X2786*
X2789Y1845*
X2793Y1835*
X2797Y1826*
X2800Y1819*
X2802Y1815*
X2804Y1812*
X2807Y1813*
X2808Y1815*
X2811Y1820*
X2814Y1827*
X2818Y1835*
X2823Y1845*
X2828Y1856*
X2834Y1867*
X2839Y1876*
X2845Y1886*
X2851Y1897*
X2857Y1905*
X2862Y1912*
X2865Y1916*
X2868Y1919*
X2872Y1923*
X2876Y1927*
X2880Y1930*
X2883Y1933*
X2885Y1934*
X2886Y1934*
X2885Y1934*
X2884Y1933*
X2883Y1933*
X2883Y1933*
X2886Y1935*
X2888Y1933*
X2888Y1929*
X2888Y1922*
X2887Y1913*
X2887Y1903*
Y1891*
X2888Y1879*
X2888Y1873*
X2888Y1869*
X2886Y1866*
X2883Y1864*
X2874Y1856*
X2867Y1849*
X2860Y1841*
X2853Y1832*
X2831Y1799*
X2814Y1768*
X2811Y1763*
X2809Y1759*
X2807Y1758*
X2804Y1762*
X2806Y1703D02*
X2809Y1706D01*
X2811Y1711*
X2812Y1715*
X2812Y1720*
X2812Y1726*
X2812Y1730*
X2807Y1737*
X2800Y1739*
X2795Y1738*
X2791Y1733*
X2789Y1728*
X2788Y1721*
X2789Y1714*
X2790Y1708*
X2793Y1704*
X2797Y1702*
X2802Y1702*
X2806Y1703*
X2813Y1641D02*
X2801Y1642D01*
X2791Y1644*
X2782Y1646*
X2772Y1649*
X2747Y1659*
X2723Y1674*
X2702Y1693*
X2685Y1714*
X2667Y1749*
X2657Y1787*
X2657Y1791*
X2656Y1795*
X2656Y1801*
X2656Y1808*
X2656Y1818*
X2656Y1824*
X2657Y1830*
X2658Y1837*
X2670Y1877*
X2692Y1913*
X2722Y1943*
X2758Y1964*
X2807Y1977*
X2857Y1974*
X2880Y1968*
X2902Y1958*
X2922Y1946*
X2940Y1931*
X2956Y1914*
X2969Y1895*
X2980Y1874*
X2987Y1851*
X2992Y1799*
X2981Y1747*
X2961Y1710*
X2932Y1680*
X2897Y1657*
X2857Y1644*
X2841Y1641*
X2824Y1641*
X2816Y1641*
X2813Y1641*
X2833Y1697D02*
Y1760D01*
X2841*
Y1734*
X2865*
Y1760*
X2873*
Y1697*
X2865*
X2865Y1712*
X2865Y1727*
X2841*
X2841Y1712*
X2841Y1697*
X2833*
X2840Y1653D02*
X2874Y1660D01*
X2905Y1674*
X2932Y1695*
X2955Y1722*
X2971Y1754*
X2979Y1789*
X2979Y1825*
X2971Y1860*
X2961Y1884*
X2946Y1905*
X2929Y1924*
X2908Y1939*
X2902Y1943*
X2894Y1947*
X2886Y1951*
X2879Y1954*
X2835Y1963*
X2791Y1960*
X2750Y1945*
X2714Y1918*
X2691Y1888*
X2676Y1854*
X2669Y1817*
X2671Y1779*
X2682Y1745*
X2700Y1714*
X2703Y1710*
X2706Y1706*
X2709Y1703*
X2713Y1699*
X2735Y1680*
X2759Y1666*
X2785Y1657*
X2813Y1652*
X2819Y1652*
X2827Y1652*
X2834Y1652*
X2840Y1653*
X2896Y1696D02*
X2890Y1698D01*
X2886Y1699*
Y1708*
X2891Y1706*
X2899Y1703*
X2907Y1702*
X2913Y1704*
X2917Y1708*
X2918Y1715*
X2916Y1720*
X2912Y1723*
X2904Y1725*
X2895Y1728*
X2890Y1731*
X2886Y1737*
X2885Y1743*
X2887Y1750*
X2891Y1756*
X2897Y1760*
X2906Y1761*
X2920Y1759*
X2922Y1758*
Y1754*
X2922Y1751*
X2922Y1750*
X2921Y1751*
X2919Y1752*
X2911Y1754*
X2903Y1754*
X2897Y1752*
X2894Y1747*
X2893Y1743*
X2895Y1739*
X2899Y1736*
X2906Y1733*
X2913Y1731*
X2918Y1729*
X2922Y1726*
X2924Y1722*
X2925Y1719*
X2926Y1714*
X2925Y1709*
X2924Y1705*
X2919Y1700*
X2912Y1696*
X2904Y1696*
X2896Y1696*
X3760Y1807D02*
X3758Y1805D01*
X3757Y1804*
X3757Y1803*
X3757Y1804*
X3758Y1806*
X3760Y1807*
X3763Y1732D02*
X3763Y1732D01*
X3763Y1731*
X3763Y1730*
X3763Y1728*
X3764Y1724*
X3766Y1721*
X3766Y1720*
X3764Y1722*
X3763Y1725*
X3762Y1728*
X3763Y1731*
X3763Y1732*
X3763Y1732*
Y1733D02*
X3762Y1733D01*
X3761Y1732*
X3761Y1728*
X3762Y1724*
X3763Y1721*
X3765Y1718*
X3766Y1718*
X3767Y1718*
X3767Y1719*
X3767Y1721*
X3766Y1725*
X3764Y1729*
X3764Y1730*
X3764Y1731*
X3764Y1732*
X3763Y1733*
X3764Y1764D02*
X3763Y1760D01*
X3763Y1756*
X3764Y1752*
X3767Y1748*
X3769Y1746*
X3769Y1745*
X3769*
X3768Y1746*
X3764Y1748*
X3760Y1751*
X3759Y1756*
X3761Y1760*
X3764Y1764*
X3767Y1733D02*
X3767D01*
X3767Y1733*
X3770Y1732*
X3773Y1729*
X3773Y1728*
X3772Y1725*
X3772Y1722*
X3770Y1720*
X3771Y1722*
X3771Y1727*
X3768Y1730*
X3767Y1732*
X3767Y1733*
X3767Y1733*
X3767Y1734D02*
X3766Y1734D01*
X3765Y1733*
X3766Y1732*
X3767Y1729*
X3769Y1726*
X3769Y1722*
X3769Y1719*
X3770Y1718*
X3770Y1718*
X3771Y1719*
X3773Y1721*
X3774Y1725*
X3774Y1728*
X3774Y1730*
X3771Y1733*
X3768Y1734*
X3767Y1734*
X3769Y1771D02*
X3768Y1771D01*
X3768Y1770*
X3765Y1767*
X3760Y1762*
X3758Y1756*
X3759Y1751*
X3763Y1747*
X3767Y1744*
X3769Y1744*
X3770Y1744*
X3770Y1745*
X3770Y1746*
X3768Y1749*
X3765Y1753*
X3764Y1758*
X3764Y1762*
X3767Y1766*
X3769Y1770*
X3769Y1770*
X3769Y1771*
X3771Y1813D02*
X3776Y1812D01*
X3782Y1809*
X3786Y1804*
X3786Y1798*
X3783Y1792*
X3782Y1792*
X3778Y1789*
X3772Y1787*
X3765Y1786*
X3758Y1787*
X3755Y1788*
X3753Y1790*
X3751Y1792*
X3750Y1795*
X3749Y1798*
X3750Y1801*
X3751Y1804*
X3753Y1807*
X3757Y1810*
X3764Y1812*
X3771Y1813*
Y1814D02*
X3764Y1813D01*
X3757Y1811*
X3752Y1808*
X3750Y1805*
X3748Y1802*
X3748Y1798*
X3748Y1795*
X3750Y1792*
X3752Y1789*
X3755Y1787*
X3758Y1786*
X3766Y1785*
X3772Y1786*
X3779Y1788*
X3783Y1791*
X3787Y1797*
X3787Y1804*
X3783Y1810*
X3777Y1814*
X3771Y1814*
X3772Y1942D02*
X3764Y1928D01*
X3756Y1912*
X3748Y1896*
X3743Y1882*
X3735Y1845*
X3733Y1807*
X3738Y1767*
X3750Y1725*
X3757Y1708*
X3766Y1689*
X3776Y1671*
X3786Y1654*
X3787Y1652*
X3786Y1652*
X3786Y1653*
X3784Y1654*
X3779Y1661*
X3773Y1671*
X3765Y1685*
X3748Y1723*
X3737Y1761*
X3731Y1797*
X3731Y1830*
X3734Y1851*
X3739Y1871*
X3745Y1891*
X3755Y1912*
X3761Y1924*
X3770Y1939*
X3772Y1942*
X3774Y1810D02*
X3774D01*
X3777Y1809*
X3779Y1807*
X3781Y1805*
X3783Y1803*
X3783Y1800*
X3782Y1796*
X3780Y1794*
X3778Y1792*
X3779Y1796*
X3779Y1798*
X3778Y1798*
X3778Y1798*
X3777Y1797*
X3776Y1795*
X3774Y1791*
X3771Y1789*
X3769Y1789*
X3769Y1789*
X3770Y1790*
X3770Y1790*
X3769Y1791*
X3769Y1791*
X3767Y1791*
X3766Y1791*
X3764Y1792*
X3760Y1796*
X3757Y1799*
X3756Y1799*
X3755Y1799*
X3755Y1799*
X3755Y1798*
X3755Y1796*
X3758Y1793*
X3760Y1790*
X3760Y1790*
X3758Y1790*
X3755Y1793*
X3753Y1794*
X3752Y1796*
X3752Y1797*
X3752Y1800*
X3754Y1804*
X3756Y1806*
X3758Y1807*
X3757Y1807*
X3755Y1804*
X3755Y1803*
X3755Y1802*
X3756Y1802*
X3757Y1802*
X3758Y1803*
X3760Y1805*
X3762Y1809*
X3763Y1809*
X3764*
X3767Y1808*
X3771Y1807*
X3774Y1805*
X3776Y1804*
X3777Y1801*
X3778Y1800*
X3778Y1800*
X3778Y1799*
X3779Y1799*
X3779Y1799*
X3779Y1800*
X3779Y1800*
X3779Y1802*
X3778Y1805*
X3776Y1808*
X3774Y1809*
X3774Y1810*
X3774Y1811D02*
X3773Y1811D01*
X3772Y1810*
X3773Y1809*
X3773Y1808*
X3775Y1807*
X3777Y1804*
X3778Y1802*
X3777Y1805*
X3775Y1806*
X3772Y1808*
X3768Y1810*
X3764Y1810*
X3763*
X3761Y1810*
X3760Y1808*
X3760Y1808*
Y1809*
X3760Y1809*
X3759Y1809*
X3758Y1809*
X3755Y1807*
X3753Y1804*
X3751Y1800*
X3751Y1797*
X3751Y1795*
X3754Y1792*
X3758Y1789*
X3760Y1788*
X3761Y1789*
X3761Y1791*
X3759Y1794*
X3757Y1797*
X3756Y1797*
X3759Y1795*
X3763Y1791*
X3767Y1790*
X3766Y1790*
X3764Y1789*
X3763Y1788*
X3764Y1788*
X3765Y1787*
X3767Y1787*
X3771Y1788*
X3775Y1790*
X3777Y1794*
X3778Y1795*
X3777Y1792*
X3776Y1792*
X3776Y1791*
X3776Y1791*
X3776Y1790*
X3777Y1790*
X3777Y1790*
X3778Y1791*
X3781Y1793*
X3783Y1796*
X3784Y1800*
X3784Y1803*
X3783Y1806*
X3780Y1808*
X3777Y1810*
X3774Y1811*
X3775Y1745D02*
X3773Y1745D01*
X3772Y1744*
X3772Y1744*
X3772Y1743*
X3773Y1743*
X3774Y1743*
X3776Y1743*
X3777Y1744*
X3776Y1744*
X3777*
Y1744*
X3776Y1745*
X3775Y1745*
X3776Y1773D02*
X3774Y1772D01*
X3774Y1772*
X3773Y1771*
X3774Y1771*
X3774Y1770*
X3775Y1770*
X3777Y1770*
X3778Y1771*
X3778Y1772*
X3778*
Y1772*
X3778Y1772*
X3776Y1773*
X3777Y1769D02*
X3783Y1768D01*
X3788Y1765*
X3791Y1761*
X3793Y1756*
X3792Y1754*
X3790Y1751*
X3787Y1747*
X3787Y1746*
X3787Y1746*
X3786Y1746*
X3785Y1746*
X3784Y1746*
X3784Y1746*
X3784Y1745*
X3784Y1745*
Y1745*
X3784Y1744*
X3784Y1744*
X3784Y1744*
X3781Y1745*
X3778Y1746*
X3772Y1749*
X3769Y1751*
X3767Y1753*
X3765Y1756*
X3765Y1759*
X3766Y1762*
X3769Y1765*
X3773Y1768*
X3777Y1769*
Y1770D02*
X3772Y1769D01*
X3768Y1766*
X3765Y1763*
X3764Y1759*
X3764Y1756*
X3766Y1752*
X3771Y1748*
X3778Y1744*
X3781Y1743*
X3783Y1743*
X3785Y1743*
X3786Y1744*
X3785Y1745*
X3786Y1745*
X3788Y1744*
X3788Y1744*
X3788Y1745*
X3788Y1746*
X3788Y1746*
X3788Y1746*
X3789Y1747*
X3791Y1750*
X3793Y1753*
X3794Y1756*
X3792Y1761*
X3788Y1766*
X3783Y1769*
X3777Y1770*
Y1774D02*
X3787Y1773D01*
X3794Y1771*
X3799Y1766*
X3801Y1759*
X3802Y1757*
X3801Y1755*
X3800Y1753*
X3799Y1750*
X3794Y1746*
X3789Y1744*
X3784Y1742*
X3778Y1741*
X3772Y1742*
X3768Y1742*
X3764Y1744*
X3761Y1747*
X3758Y1750*
X3756Y1753*
X3757Y1760*
X3761Y1767*
X3768Y1771*
X3777Y1774*
X3781Y1957D02*
X3780Y1956D01*
X3780Y1956*
X3779Y1955*
X3776Y1951*
X3773Y1946*
X3769Y1939*
X3760Y1925*
X3753Y1912*
X3744Y1892*
X3737Y1871*
X3732Y1851*
X3729Y1831*
X3729Y1797*
X3735Y1761*
X3747Y1723*
X3764Y1685*
X3772Y1671*
X3778Y1660*
X3783Y1653*
X3785Y1652*
X3786Y1651*
X3788Y1651*
X3788Y1651*
X3788Y1652*
X3788Y1653*
X3787Y1655*
X3777Y1671*
X3767Y1690*
X3758Y1709*
X3751Y1726*
X3739Y1767*
X3734Y1807*
X3736Y1845*
X3744Y1882*
X3750Y1896*
X3757Y1912*
X3766Y1929*
X3774Y1943*
X3777Y1948*
X3779Y1952*
X3781Y1955*
X3781Y1955*
X3781Y1956*
Y1956*
X3781Y1956*
X3781Y1957*
X3782Y1775D02*
X3777Y1775D01*
X3767Y1773*
X3760Y1768*
X3756Y1761*
X3755Y1753*
X3757Y1749*
X3760Y1746*
X3763Y1743*
X3768Y1741*
X3772Y1740*
X3778Y1740*
X3784Y1741*
X3790Y1742*
X3795Y1745*
X3800Y1750*
X3801Y1752*
X3803Y1754*
X3803Y1760*
X3800Y1767*
X3795Y1772*
X3789Y1774*
X3782Y1775*
X3784Y1712D02*
X3785Y1711D01*
X3788Y1708*
X3792Y1706*
X3792Y1706*
X3792*
X3789Y1707*
X3786Y1709*
X3786Y1709*
X3784Y1712*
X3784Y1712*
X3784Y1773D02*
X3782Y1772D01*
X3782Y1772*
X3781Y1771*
X3781Y1771*
X3782Y1770*
X3783Y1770*
X3785Y1770*
X3786Y1771*
X3786Y1772*
X3786*
Y1772*
X3785Y1772*
X3784Y1773*
X3786Y1723D02*
X3786Y1722D01*
X3785Y1720*
X3784Y1719*
X3784Y1719*
X3785Y1721*
X3786Y1723*
X3788Y1771D02*
X3787Y1770D01*
X3788Y1769*
X3790Y1766*
X3793Y1763*
X3794Y1759*
X3794Y1756*
X3793Y1752*
X3792Y1749*
X3792Y1748*
X3792Y1747*
X3793Y1747*
X3793Y1747*
X3795Y1748*
X3797Y1751*
X3799Y1754*
X3799Y1758*
X3799Y1762*
X3797Y1766*
X3794Y1769*
X3791Y1771*
X3788Y1771*
X3789Y1967D02*
X3788Y1966D01*
X3786Y1965*
X3784Y1962*
X3782Y1959*
X3781Y1958*
X3781Y1957*
X3781Y1957*
X3782Y1957*
X3782Y1957*
X3783Y1957*
X3784Y1958*
X3787Y1962*
X3789Y1965*
X3789Y1966*
X3789Y1966*
X3789Y1967*
X3789Y1770D02*
X3790Y1770D01*
X3793Y1768*
X3796Y1765*
X3798Y1762*
X3798Y1758*
X3797Y1755*
X3796Y1751*
X3794Y1749*
X3794Y1749*
X3794Y1751*
X3795Y1760*
X3791Y1767*
X3789Y1770*
X3789Y1770*
X3789Y1726D02*
X3785Y1725D01*
X3782Y1722*
X3779Y1718*
X3778Y1713*
X3779Y1711*
X3780Y1709*
X3784Y1706*
X3788Y1704*
X3793Y1703*
X3796Y1703*
X3797Y1704*
X3797Y1705*
X3799Y1705*
X3802Y1705*
X3802Y1705*
X3803Y1706*
Y1707*
X3803Y1708*
X3804Y1710*
X3806Y1715*
X3805Y1718*
X3802Y1722*
X3798Y1724*
X3793Y1726*
X3789Y1726*
X3789Y1725D02*
X3793Y1725D01*
X3798Y1723*
X3802Y1721*
X3804Y1718*
X3804Y1715*
X3803Y1711*
X3802Y1708*
X3802Y1707*
X3802Y1706*
X3801Y1706*
X3799Y1706*
X3797Y1707*
X3796Y1706*
X3796Y1705*
X3796Y1705*
X3796Y1705*
X3795*
X3793Y1705*
X3792Y1705*
X3795Y1705*
X3795Y1706*
X3792Y1707*
X3789Y1709*
X3786Y1712*
X3784Y1714*
X3783Y1714*
X3782Y1714*
X3782Y1714*
X3783Y1711*
X3785Y1708*
X3785Y1708*
X3787Y1706*
X3790Y1705*
X3784Y1707*
X3781Y1709*
X3780Y1711*
X3780Y1713*
X3780Y1718*
X3783Y1721*
X3784Y1722*
X3784Y1722*
X3783Y1720*
X3782Y1718*
X3782Y1717*
X3783Y1717*
X3784Y1717*
X3786Y1719*
X3788Y1722*
X3788Y1723*
X3788Y1724*
X3787Y1724*
X3789Y1725*
X3796Y1975D02*
X3795Y1975D01*
X3795Y1975*
X3794Y1974*
X3791Y1971*
X3789Y1969*
X3789Y1968*
X3789Y1968*
X3789Y1967*
X3790Y1967*
X3790Y1967*
X3790Y1967*
X3791Y1968*
X3794Y1971*
X3796Y1973*
X3796Y1974*
X3796Y1974*
X3796Y1975*
X3796Y1975*
X3799Y1729D02*
X3804Y1728D01*
X3808Y1726*
X3812Y1721*
X3813Y1716*
X3811Y1710*
X3806Y1705*
X3801Y1704*
X3795Y1703*
X3788Y1702*
X3784Y1703*
X3780Y1705*
X3778Y1708*
X3777Y1712*
X3776Y1715*
X3777Y1719*
X3779Y1722*
X3782Y1725*
X3786Y1727*
X3793Y1728*
X3799Y1729*
X3799Y1730D02*
X3792Y1729D01*
X3786Y1728*
X3782Y1726*
X3778Y1723*
X3776Y1719*
X3775Y1715*
X3775Y1711*
X3777Y1708*
X3779Y1704*
X3783Y1702*
X3788Y1701*
X3795Y1701*
X3802Y1702*
X3807Y1704*
X3812Y1709*
X3814Y1715*
X3813Y1722*
X3809Y1727*
X3805Y1729*
X3799Y1730*
X3802Y1727D02*
X3801Y1726D01*
Y1725*
X3803Y1723*
X3805Y1720*
X3806Y1716*
X3806Y1713*
X3804Y1709*
X3804Y1708*
X3804Y1707*
X3804Y1706*
X3805Y1706*
X3805Y1707*
X3806Y1707*
X3808Y1709*
X3810Y1713*
X3811Y1716*
X3810Y1720*
X3808Y1724*
X3804Y1726*
X3802Y1727*
X3802Y1725D02*
X3804Y1725D01*
X3807Y1723*
X3809Y1720*
X3810Y1716*
X3809Y1713*
X3807Y1710*
X3806Y1709*
X3807Y1713*
X3807Y1717*
X3806Y1720*
X3804Y1723*
X3802Y1725*
X3807Y1745D02*
X3806Y1745D01*
X3806Y1744*
X3805Y1742*
X3805Y1740*
X3806Y1738*
X3809Y1735*
X3811Y1733*
X3811Y1733*
X3811Y1733*
X3808Y1735*
X3805Y1738*
X3805Y1741*
X3805Y1744*
X3806Y1745*
X3807Y1745*
X3807Y1746D02*
X3806Y1746D01*
X3804Y1744*
X3803Y1741*
X3804Y1737*
X3807Y1734*
X3810Y1731*
X3811Y1731*
X3813Y1731*
X3813Y1732*
X3813Y1732*
X3812Y1733*
X3810Y1736*
X3807Y1739*
X3806Y1740*
X3806Y1741*
X3807Y1743*
X3808Y1744*
X3808Y1746*
X3808Y1746*
X3807Y1746*
X3809Y1969D02*
X3809Y1969D01*
X3808Y1967*
X3806Y1964*
X3803Y1960*
X3799Y1954*
X3794Y1947*
X3787Y1938*
X3779Y1925*
X3770Y1908*
X3762Y1891*
X3756Y1876*
X3753Y1864*
X3750Y1852*
X3748Y1846*
X3747Y1840*
X3747Y1835*
X3747Y1832*
X3747Y1827*
X3748Y1823*
X3751Y1821*
X3753Y1821*
X3755Y1821*
X3759Y1822*
X3768Y1822*
X3777Y1823*
X3780Y1824*
X3781Y1824*
X3782Y1825*
X3782Y1825*
X3782Y1826*
X3782Y1828*
X3783Y1835*
X3783Y1845*
X3784Y1857*
X3785Y1877*
X3786Y1893*
X3789Y1907*
X3794Y1925*
X3798Y1938*
X3802Y1949*
X3806Y1957*
X3811Y1963*
X3812Y1965*
Y1965*
X3810Y1960*
X3807Y1951*
X3797Y1923*
X3790Y1897*
X3788Y1887*
X3787Y1878*
X3787Y1867*
X3787Y1851*
X3787Y1839*
X3786Y1830*
X3786Y1823*
X3786Y1821*
X3786Y1820*
X3786Y1820*
X3785Y1819*
X3783Y1819*
X3780Y1819*
X3776Y1819*
X3767Y1819*
X3759Y1818*
X3753Y1816*
X3749Y1816*
X3747Y1817*
X3745Y1819*
X3744Y1825*
X3744Y1833*
X3745Y1843*
X3747Y1853*
X3752Y1874*
X3761Y1897*
X3771Y1918*
X3783Y1939*
X3791Y1950*
X3799Y1960*
X3803Y1964*
X3806Y1967*
X3809Y1969*
X3809Y1969*
X3809Y1971D02*
X3808Y1970D01*
X3806Y1968*
X3802Y1965*
X3798Y1961*
X3790Y1950*
X3782Y1940*
X3770Y1919*
X3759Y1897*
X3751Y1875*
X3745Y1854*
X3744Y1843*
X3743Y1833*
X3743Y1825*
X3744Y1819*
X3746Y1816*
X3749Y1815*
X3754Y1815*
X3760Y1817*
X3767Y1818*
X3775Y1818*
X3780Y1818*
X3783Y1818*
X3787Y1819*
X3787Y1820*
X3787Y1820*
X3787Y1823*
X3788Y1829*
X3788Y1839*
X3788Y1851*
X3788Y1867*
X3789Y1878*
X3790Y1887*
X3792Y1897*
X3798Y1923*
X3808Y1950*
X3812Y1959*
X3813Y1964*
X3813Y1966*
X3813Y1966*
X3812Y1966*
X3811Y1966*
X3810Y1964*
X3805Y1958*
X3801Y1949*
X3797Y1939*
X3793Y1925*
X3788Y1908*
X3785Y1893*
X3783Y1877*
X3783Y1857*
X3782Y1845*
X3782Y1835*
X3781Y1828*
X3781Y1826*
X3781Y1826*
Y1826*
X3781Y1825*
X3780Y1825*
X3777Y1825*
X3768Y1824*
X3759Y1823*
X3753Y1822*
X3751Y1822*
X3750Y1824*
X3748Y1827*
X3748Y1832*
X3748Y1835*
X3749Y1840*
X3750Y1845*
X3751Y1851*
X3754Y1864*
X3758Y1876*
X3763Y1891*
X3771Y1908*
X3780Y1924*
X3788Y1937*
X3795Y1946*
X3800Y1953*
X3804Y1959*
X3807Y1963*
X3809Y1966*
X3810Y1968*
X3810Y1969*
X3810Y1971*
X3809Y1971*
X3810Y1745D02*
X3811Y1745D01*
X3811Y1744*
X3813Y1742*
X3814Y1739*
X3814Y1737*
X3812Y1740*
X3811Y1743*
X3810Y1745*
Y1745*
X3810Y1745*
Y1747D02*
X3809Y1746D01*
X3809Y1746*
X3809Y1745*
X3809Y1743*
X3811Y1740*
X3814Y1736*
X3815Y1736*
X3815*
X3816Y1736*
Y1736*
X3816Y1739*
X3814Y1742*
X3812Y1745*
X3811Y1746*
X3810Y1747*
X3812Y1992D02*
X3811Y1992D01*
X3811Y1992*
X3810Y1991*
X3809Y1990*
X3803Y1985*
X3798Y1979*
X3797Y1978*
X3797Y1977*
X3797Y1977*
X3797Y1976*
X3797Y1976*
X3798Y1976*
X3798Y1976*
X3799Y1977*
X3800Y1979*
X3806Y1984*
X3810Y1989*
X3812Y1990*
X3812Y1991*
X3812Y1991*
X3812Y1992*
X3812Y1992*
X3821Y2000D02*
X3820Y2000D01*
X3820Y1999*
X3819Y1999*
X3817Y1997*
X3817Y1996*
X3816Y1996*
X3816Y1996*
X3816Y1995*
X3817Y1995*
X3818Y1995*
X3820Y1997*
X3821Y1998*
X3821Y1999*
X3821Y1999*
Y1999*
X3821Y2000*
X3821Y2000*
X3821*
X3821Y1723D02*
X3821Y1721D01*
X3822Y1716*
Y1716*
X3821Y1718*
X3820Y1719*
X3819Y1719*
X3818Y1717*
X3816Y1714*
X3814Y1709*
X3812Y1705*
X3808Y1701*
X3804Y1698*
X3798Y1697*
X3791Y1697*
X3784*
X3780Y1696*
X3777Y1694*
X3777Y1692*
X3778Y1687*
X3780Y1681*
X3784Y1676*
X3787Y1672*
X3792Y1670*
X3798Y1670*
X3802Y1671*
X3806Y1673*
X3811Y1676*
X3817Y1679*
X3823Y1683*
X3828Y1686*
X3832Y1689*
X3834Y1691*
X3836Y1697*
X3835Y1705*
X3831Y1713*
X3825Y1719*
X3822Y1722*
X3821Y1723*
X3823Y1720D02*
X3824Y1718D01*
X3830Y1712*
X3834Y1704*
X3835Y1697*
X3833Y1692*
X3831Y1690*
X3827Y1687*
X3822Y1684*
X3816Y1680*
X3810Y1677*
X3806Y1674*
X3801Y1672*
X3798Y1671*
X3792Y1671*
X3788Y1673*
X3785Y1677*
X3782Y1682*
X3779Y1687*
X3778Y1692*
X3779Y1694*
X3780Y1695*
X3784Y1695*
X3791Y1695*
X3798Y1696*
X3804Y1697*
X3809Y1700*
X3813Y1704*
X3815Y1708*
X3817Y1713*
X3819Y1716*
X3820Y1717*
X3820Y1717*
X3820Y1717*
X3821Y1714*
X3822Y1713*
X3822Y1712*
X3823Y1712*
X3823Y1712*
X3824Y1712*
X3824Y1713*
X3824Y1714*
X3823Y1716*
X3823Y1720*
X3824Y1709D02*
X3825Y1708D01*
X3827Y1706*
X3829Y1703*
X3830Y1699*
X3828Y1695*
X3827Y1693*
X3824Y1691*
X3820Y1688*
X3815Y1685*
X3809Y1682*
X3805Y1679*
X3801Y1677*
X3799Y1676*
X3795Y1675*
X3792Y1676*
X3789Y1679*
X3787Y1682*
X3785Y1686*
X3785Y1688*
X3786Y1689*
X3787Y1690*
X3790Y1690*
X3794Y1690*
X3801Y1691*
X3808Y1693*
X3813Y1697*
X3819Y1703*
X3822Y1707*
X3823Y1708*
X3824Y1709*
X3824Y1710D02*
X3823Y1710D01*
X3821Y1707*
X3818Y1704*
X3813Y1698*
X3807Y1694*
X3801Y1692*
X3794Y1691*
X3789Y1691*
X3787Y1691*
X3784Y1689*
X3784Y1685*
X3786Y1682*
X3788Y1678*
X3792Y1675*
X3795Y1674*
X3799Y1675*
X3802Y1676*
X3806Y1678*
X3810Y1681*
X3816Y1684*
X3821Y1687*
X3825Y1690*
X3827Y1692*
X3830Y1694*
X3831Y1699*
X3830Y1703*
X3828Y1707*
X3826Y1709*
X3824Y1710*
X3829Y1916D02*
X3830D01*
X3830Y1915*
X3831Y1912*
X3832Y1908*
X3833Y1903*
X3834Y1899*
X3835Y1895*
X3836Y1892*
X3839Y1886*
X3845Y1880*
X3851Y1875*
X3859Y1870*
X3863Y1869*
X3856Y1872*
X3845Y1878*
X3837Y1887*
X3832Y1897*
X3829Y1910*
X3828Y1915*
X3829Y1916*
X3833Y1973D02*
X3823Y1956D01*
X3814Y1936*
X3807Y1915*
X3802Y1894*
X3800Y1878*
X3799Y1859*
X3799Y1840*
X3801Y1824*
X3807Y1797*
X3817Y1768*
X3830Y1739*
X3846Y1708*
X3850Y1702*
X3852Y1698*
X3854Y1694*
X3855Y1693*
X3855Y1693*
X3855Y1692*
X3854Y1693*
X3852Y1696*
X3849Y1700*
X3845Y1706*
X3837Y1721*
X3828Y1738*
X3817Y1763*
X3808Y1787*
X3801Y1810*
X3797Y1832*
X3796Y1854*
X3797Y1876*
X3801Y1899*
X3807Y1921*
X3812Y1935*
X3818Y1948*
X3825Y1962*
X3833Y1973*
X3835Y1901D02*
X3833Y1908D01*
X3832Y1913*
X3831Y1916*
X3830Y1917*
X3829Y1917*
X3827Y1915*
X3827Y1913*
X3827Y1910*
X3830Y1897*
X3836Y1886*
X3844Y1877*
X3855Y1870*
X3862Y1867*
X3865Y1866*
X3867Y1866*
X3867Y1866*
X3868Y1867*
X3867Y1867*
X3867Y1867*
X3866Y1868*
X3860Y1872*
X3852Y1876*
X3846Y1881*
X3841Y1887*
X3837Y1892*
X3836Y1896*
X3835Y1901*
X3838Y1920D02*
X3838Y1919D01*
X3839Y1918*
X3840Y1912*
X3843Y1905*
X3847Y1899*
X3852Y1894*
X3859Y1890*
X3876Y1885*
X3900Y1882*
X3906Y1882*
X3913Y1882*
X3921Y1882*
X3931Y1883*
X3943Y1884*
X3959Y1886*
X3980Y1888*
X4007Y1891*
X4039Y1894*
X4065Y1895*
X4087Y1894*
X4103Y1891*
X4108Y1890*
X4107Y1884*
X4106Y1879*
X4106Y1875*
X4105Y1873*
X4105Y1871*
X4104Y1870*
X4101Y1870*
X4098Y1871*
X4090Y1871*
X4081Y1872*
X4070Y1872*
X4056Y1872*
X4045Y1872*
X4034Y1872*
X4023Y1871*
X4009Y1869*
X3998Y1867*
X3990Y1866*
X3988Y1865*
X3987Y1865*
X3988Y1867*
X3991Y1871*
X3992Y1873*
X3992Y1874*
X3992Y1874*
X3992Y1874*
X3991Y1875*
X3990Y1875*
X3989Y1874*
X3986Y1872*
X3982Y1868*
X3979Y1861*
X3978Y1857*
X3978Y1851*
X3978Y1845*
X3978Y1837*
X3978Y1829*
X3978Y1823*
X3978Y1819*
X3977Y1816*
X3976Y1815*
X3974Y1814*
X3970Y1814*
X3966Y1813*
X3961Y1814*
X3958Y1814*
X3956Y1815*
X3954Y1816*
X3953Y1819*
X3953Y1823*
X3953Y1829*
X3953Y1837*
X3953Y1847*
X3953Y1854*
X3952Y1859*
X3951Y1862*
X3949Y1866*
X3946Y1868*
X3944Y1869*
X3943Y1869*
X3942Y1868*
X3944Y1864*
X3944Y1864*
X3944*
X3915Y1865*
X3900Y1865*
X3890Y1866*
X3882Y1867*
X3876Y1868*
X3859Y1875*
X3846Y1883*
X3841Y1889*
X3838Y1895*
X3836Y1901*
X3835Y1909*
X3835Y1914*
X3835Y1917*
X3835Y1918*
X3836Y1919*
X3838Y1919*
X3838Y1920*
X3838Y2006D02*
X3840Y2005D01*
X3843Y2003*
X3848Y2000*
X3842Y1992*
X3823Y1968*
X3809Y1938*
X3798Y1906*
X3792Y1870*
X3793Y1832*
X3801Y1792*
X3818Y1748*
X3843Y1701*
X3845Y1697*
X3847Y1693*
X3849Y1691*
X3849Y1691*
X3848Y1690*
X3847Y1689*
X3841Y1686*
X3832Y1680*
X3821Y1674*
X3819Y1673*
X3809Y1667*
X3800Y1662*
X3794Y1658*
X3792Y1657*
X3791Y1656*
X3791Y1657*
X3790Y1658*
X3786Y1662*
X3782Y1669*
X3777Y1677*
X3766Y1698*
X3757Y1720*
X3751Y1735*
X3746Y1751*
X3742Y1768*
X3739Y1783*
X3738Y1799*
X3737Y1817*
X3738Y1835*
X3739Y1850*
X3748Y1881*
X3762Y1915*
X3781Y1947*
X3803Y1976*
X3810Y1983*
X3819Y1992*
X3828Y1999*
X3835Y2004*
X3837Y2006*
X3838Y2006*
X3838Y2007D02*
X3836Y2007D01*
X3834Y2006*
X3827Y2000*
X3818Y1993*
X3809Y1984*
X3802Y1977*
X3779Y1948*
X3761Y1915*
X3746Y1882*
X3738Y1850*
X3736Y1835*
X3736Y1817*
X3736Y1799*
X3738Y1783*
X3741Y1767*
X3745Y1751*
X3750Y1735*
X3755Y1719*
X3765Y1698*
X3776Y1677*
X3781Y1668*
X3785Y1661*
X3789Y1657*
X3790Y1656*
X3792Y1655*
X3793Y1656*
X3795Y1657*
X3801Y1661*
X3810Y1666*
X3821Y1673*
X3823Y1674*
X3833Y1680*
X3841Y1685*
X3847Y1688*
X3849Y1689*
X3850Y1690*
X3850Y1690*
X3850Y1690*
X3850Y1690*
Y1690*
X3850Y1691*
X3850Y1691*
X3848Y1694*
X3847Y1698*
X3844Y1702*
X3819Y1749*
X3803Y1792*
X3794Y1833*
X3794Y1870*
X3800Y1905*
X3810Y1938*
X3824Y1967*
X3843Y1992*
X3850Y2000*
X3850Y2000*
X3850Y2001*
X3844Y2004*
X3841Y2006*
X3838Y2007*
X3840Y2012D02*
X3840Y2012D01*
X3839Y2011*
X3839Y2010*
X3841Y2009*
X3845Y2006*
X3850Y2002*
X3851Y2001*
X3852Y2000*
X3852Y2000*
X3852Y1999*
X3854Y1999*
X3855Y2001*
X3855Y2002*
X3854Y2003*
X3852Y2004*
X3848Y2008*
X3843Y2010*
X3841Y2011*
X3840Y2012*
X3841Y2013D02*
X3842Y2013D01*
X3845Y2012*
X3851Y2008*
X3856Y2004*
X3858Y2003*
X3858Y2002*
X3858Y2001*
X3857Y1999*
X3853Y1995*
X3840Y1978*
X3828Y1958*
X3817Y1936*
X3810Y1914*
X3806Y1899*
X3803Y1884*
X3802Y1869*
X3802Y1852*
X3803Y1835*
X3805Y1819*
X3809Y1804*
X3814Y1785*
X3821Y1767*
X3829Y1749*
X3839Y1730*
X3851Y1707*
X3855Y1701*
X3857Y1696*
X3859Y1693*
X3859Y1692*
X3859Y1691*
X3859Y1691*
X3857Y1690*
X3853Y1687*
X3849Y1684*
X3838Y1678*
X3825Y1670*
X3812Y1662*
X3800Y1655*
X3795Y1653*
X3791Y1651*
X3788Y1649*
X3787Y1649*
X3785Y1648*
X3783Y1649*
X3781Y1652*
X3777Y1658*
X3759Y1690*
X3744Y1724*
X3734Y1758*
X3728Y1791*
X3727Y1807*
X3728Y1823*
X3729Y1840*
X3731Y1854*
X3739Y1881*
X3750Y1910*
X3765Y1937*
X3782Y1963*
X3797Y1980*
X3814Y1997*
X3823Y2003*
X3830Y2008*
X3836Y2012*
X3841Y2013*
Y2014D02*
X3836Y2013D01*
X3829Y2010*
X3822Y2004*
X3813Y1998*
X3796Y1981*
X3781Y1963*
X3763Y1938*
X3749Y1910*
X3737Y1882*
X3730Y1854*
X3727Y1840*
X3726Y1823*
X3726Y1807*
X3727Y1791*
X3733Y1758*
X3743Y1724*
X3758Y1690*
X3776Y1657*
X3780Y1652*
X3782Y1648*
X3785Y1647*
X3787Y1647*
X3789Y1648*
X3792Y1649*
X3796Y1652*
X3801Y1654*
X3813Y1661*
X3826Y1669*
X3839Y1676*
X3850Y1683*
X3854Y1686*
X3858Y1688*
X3860Y1690*
X3860Y1691*
X3861Y1691*
X3861Y1691*
X3861Y1692*
X3861Y1692*
X3860Y1693*
X3858Y1697*
X3856Y1702*
X3852Y1707*
X3840Y1730*
X3830Y1750*
X3822Y1767*
X3816Y1786*
X3810Y1804*
X3806Y1820*
X3804Y1835*
X3803Y1852*
X3803Y1869*
X3805Y1884*
X3807Y1899*
X3811Y1914*
X3819Y1936*
X3829Y1958*
X3841Y1978*
X3854Y1994*
X3858Y1999*
X3859Y2001*
X3860Y2002*
X3859Y2004*
X3857Y2005*
X3851Y2009*
X3845Y2013*
X3841Y2014*
X3841Y1986D02*
X3841Y1986D01*
X3841Y1986*
X3840Y1985*
X3830Y1973*
X3821Y1957*
X3812Y1939*
X3806Y1922*
X3800Y1899*
X3796Y1877*
X3795Y1854*
X3796Y1832*
X3800Y1810*
X3806Y1787*
X3815Y1763*
X3827Y1737*
X3836Y1721*
X3844Y1706*
X3848Y1700*
X3851Y1695*
X3853Y1692*
X3854Y1691*
X3855Y1691*
X3855Y1691*
X3856Y1692*
Y1693*
X3855Y1695*
X3854Y1698*
X3851Y1703*
X3848Y1709*
X3831Y1739*
X3818Y1769*
X3809Y1797*
X3802Y1824*
X3801Y1840*
X3800Y1859*
X3801Y1878*
X3803Y1894*
X3809Y1916*
X3816Y1939*
X3826Y1960*
X3838Y1978*
X3840Y1982*
X3842Y1985*
X3842Y1985*
X3842Y1986*
X3842Y1986*
X3841Y1986*
X3843Y1920D02*
X3843Y1919D01*
X3844Y1918*
X3846Y1913*
X3849Y1906*
X3855Y1900*
X3861Y1894*
X3869Y1890*
Y1890*
X3869Y1890*
X3870Y1890*
X3860Y1894*
X3853Y1899*
X3847Y1905*
X3845Y1909*
X3843Y1914*
X3843Y1919*
X3843Y1920*
X3843Y1920*
X3843Y1921D02*
X3842Y1920D01*
X3841Y1919*
X3842Y1914*
X3843Y1909*
X3846Y1904*
X3852Y1898*
X3859Y1893*
X3867Y1889*
X3875Y1887*
X3875*
X3875Y1887*
X3876Y1888*
X3875Y1888*
X3874Y1889*
X3870Y1891*
Y1891*
X3870Y1891*
X3863Y1895*
X3856Y1900*
X3851Y1907*
X3847Y1914*
X3845Y1919*
X3844Y1920*
X3844Y1921*
X3843Y1921*
X3844Y1924D02*
X3839Y1923D01*
X3832Y1922*
X3825Y1920*
X3824Y1919*
Y1919*
X3824Y1913*
X3825Y1903*
X3828Y1893*
X3833Y1884*
X3840Y1876*
X3852Y1868*
X3868Y1862*
X3889Y1859*
X3916Y1858*
X3936*
X3935Y1855*
X3934Y1845*
X3932Y1826*
X3929Y1798*
X3925Y1761*
X3924Y1749*
X3923Y1736*
X3922Y1724*
X3921Y1715*
X3919Y1696*
X3917Y1675*
Y1675*
X3916Y1666*
X3915Y1656*
X3914Y1648*
X3913Y1641*
X3913Y1635*
X3913Y1631*
X3913Y1629*
X3914Y1627*
X3915Y1627*
X3916Y1627*
X3919Y1626*
X3930Y1625*
X3946Y1623*
X3963Y1621*
X3978Y1620*
X3991Y1618*
Y1618*
X3992Y1618*
X4000Y1617*
X4006Y1617*
X4011Y1617*
X4014Y1619*
X4015Y1623*
X4015Y1628*
X4015Y1636*
X4014Y1646*
X4013Y1659*
X4012Y1674*
X4010Y1690*
X4009Y1705*
X4006Y1740*
X4004Y1768*
X4002Y1791*
X4001Y1810*
X4000Y1820*
X3999Y1829*
X3998Y1838*
X3998Y1845*
X3997Y1855*
X3996Y1859*
X3996Y1861*
X3996Y1862*
X3996Y1862*
X3997Y1863*
X4000Y1863*
X4004Y1863*
X4009Y1863*
X4015Y1864*
X4022Y1864*
X4053Y1866*
X4090Y1864*
X4100Y1864*
X4107Y1864*
X4111Y1864*
X4113Y1865*
X4114Y1865*
X4114Y1866*
X4115Y1869*
X4117Y1877*
X4118Y1886*
X4119Y1893*
X4118Y1894*
X4117Y1895*
X4111Y1897*
X4102Y1899*
X4090Y1900*
X4073Y1901*
X4052Y1901*
X4027Y1899*
X3999Y1896*
X3968Y1893*
X3943Y1890*
X3923Y1889*
X3907Y1888*
X3894Y1889*
X3884Y1890*
X3875Y1893*
X3867Y1896*
X3861Y1900*
X3856Y1905*
X3852Y1911*
X3850Y1918*
X3849Y1921*
X3848Y1923*
X3846Y1924*
X3844Y1924*
X3844Y1923D02*
X3846Y1923D01*
X3847Y1922*
X3847Y1921*
X3848Y1917*
X3851Y1910*
X3855Y1904*
X3860Y1899*
X3866Y1895*
X3875Y1892*
X3884Y1889*
X3894Y1888*
X3907Y1887*
X3923Y1887*
X3943Y1889*
X3969Y1891*
X3999Y1895*
X4027Y1898*
X4052Y1899*
X4073Y1900*
X4090Y1899*
X4102Y1898*
X4111Y1896*
X4116Y1894*
X4117Y1893*
X4117Y1893*
X4117Y1890*
X4117Y1886*
X4116Y1882*
X4115Y1877*
X4113Y1869*
X4113Y1867*
X4112Y1866*
X4112Y1866*
X4111Y1865*
X4107Y1865*
X4100Y1865*
X4090Y1866*
X4053Y1867*
X4022Y1866*
X4016Y1865*
X4010Y1865*
X4006Y1864*
X4002Y1864*
X4002Y1864*
X4002Y1865*
X4002*
Y1865*
X4002Y1865*
X4001Y1866*
X3999Y1866*
X3998Y1865*
X3998Y1865*
X3998Y1864*
X3998Y1864*
X3997Y1864*
X3995Y1864*
X3994Y1862*
X3995Y1860*
X3995Y1859*
X3996Y1855*
X3997Y1845*
X3997Y1838*
X3998Y1829*
X3998Y1820*
X3999Y1810*
X4001Y1791*
X4003Y1768*
X4005Y1740*
X4008Y1705*
X4009Y1690*
X4010Y1674*
X4012Y1659*
X4013Y1646*
X4013Y1636*
X4014Y1628*
X4014Y1623*
X4013Y1620*
X4010Y1618*
X4006Y1618*
X4001Y1618*
X3993Y1619*
X3992Y1619*
X3979Y1621*
X3963Y1622*
X3946Y1624*
X3930Y1626*
X3920Y1627*
X3916Y1628*
X3915Y1628*
X3914Y1628*
X3914Y1629*
X3914Y1631*
X3914Y1635*
X3915Y1641*
X3915Y1647*
X3916Y1656*
X3917Y1666*
X3918Y1675*
X3920Y1696*
X3922Y1715*
X3923Y1724*
X3924Y1736*
X3925Y1749*
X3926Y1761*
X3930Y1798*
X3933Y1826*
X3935Y1845*
X3936Y1854*
X3937Y1856*
X3937Y1855*
X3937Y1852*
X3937Y1847*
X3936Y1842*
X3936Y1837*
X3935Y1830*
X3934Y1817*
X3932Y1799*
X3930Y1777*
X3927Y1751*
X3924Y1723*
X3921Y1693*
X3918Y1662*
X3918Y1653*
X3917Y1646*
X3916Y1641*
X3916Y1637*
X3916Y1632*
X3918Y1630*
X3920Y1629*
X3921Y1629*
X3922Y1629*
X3922Y1630*
X3921Y1631*
X3921Y1632*
X3921Y1633*
X3921Y1638*
X3922Y1645*
X3923Y1655*
X3924Y1670*
X3926Y1689*
X3928Y1709*
X3930Y1730*
X3932Y1751*
X3934Y1772*
X3936Y1790*
X3938Y1806*
X3940Y1826*
X3941Y1844*
X3943Y1861*
Y1861*
X3943Y1859*
X3943Y1857*
X3943Y1853*
X3942Y1847*
X3942Y1839*
X3940Y1819*
X3938Y1796*
X3936Y1776*
X3934Y1759*
X3932Y1744*
X3931Y1731*
X3930Y1718*
X3929Y1705*
X3927Y1691*
X3926Y1676*
X3925Y1667*
X3924Y1658*
X3923Y1650*
X3923Y1644*
X3922Y1636*
X3922Y1633*
X3922Y1632*
X3922Y1632*
X3922Y1631*
X3923Y1631*
X3923Y1631*
X3924Y1631*
X3926Y1631*
X3935Y1630*
X3952Y1628*
X3970Y1626*
X3978Y1626*
X3985Y1625*
X3990Y1624*
X3991Y1624*
X3992Y1624*
X3993Y1624*
X3995Y1624*
X3999Y1623*
X4005Y1623*
X4006*
X4006Y1624*
X4005Y1639*
Y1639*
X4004Y1646*
X4003Y1656*
X4003Y1666*
X4002Y1676*
X4001Y1689*
X3999Y1708*
X3998Y1729*
X3996Y1751*
X3994Y1773*
X3992Y1796*
X3991Y1816*
X3989Y1832*
X3988Y1844*
X3988Y1854*
X3987Y1861*
X3987Y1863*
X3987Y1863*
X3988Y1864*
X3991Y1864*
X3998Y1866*
X4010Y1868*
X4023Y1869*
X4034Y1870*
X4045Y1871*
X4056Y1871*
X4070Y1871*
X4081Y1870*
X4090Y1870*
X4097Y1869*
X4101Y1869*
X4104Y1869*
X4106Y1870*
X4106Y1872*
X4107Y1875*
X4108Y1879*
X4108Y1884*
X4109Y1890*
X4109Y1891*
X4109Y1891*
X4104Y1892*
X4087Y1895*
X4065Y1896*
X4038Y1895*
X4007Y1892*
X3980Y1889*
X3959Y1887*
X3943Y1885*
X3930Y1884*
X3921Y1884*
X3913Y1883*
X3906Y1883*
X3900Y1883*
X3876Y1886*
X3859Y1891*
X3853Y1895*
X3848Y1900*
X3844Y1906*
X3842Y1913*
X3840Y1918*
X3839Y1920*
X3839Y1920*
X3839Y1920*
X3839Y1921*
X3838*
X3837Y1921*
X3836Y1920*
X3834Y1919*
X3833Y1917*
X3833Y1914*
X3834Y1909*
X3835Y1901*
X3836Y1896*
X3838Y1891*
X3841Y1887*
X3846Y1882*
X3858Y1873*
X3875Y1867*
X3882Y1866*
X3889Y1865*
X3900Y1864*
X3915Y1864*
X3943Y1863*
X3943Y1862*
X3942Y1862*
X3936Y1862*
X3934Y1862*
X3933Y1862*
X3932Y1861*
X3932Y1861*
X3932Y1860*
X3933Y1860*
X3934Y1860*
X3936Y1859*
X3916*
X3889Y1860*
X3869Y1864*
X3853Y1869*
X3841Y1877*
X3834Y1884*
X3830Y1893*
X3827Y1903*
X3825Y1913*
X3825Y1918*
X3832Y1921*
X3839Y1922*
X3844Y1923*
X3844Y2008D02*
X3847Y2006D01*
X3851Y2003*
X3853Y2002*
X3854Y2001*
X3853Y2000*
X3853Y2000*
Y2000*
X3853Y2001*
X3852Y2002*
X3851Y2003*
X3846Y2007*
X3844Y2008*
X3852Y1999D02*
X3852Y1998D01*
X3851Y1998*
X3850Y1997*
X3848Y1995*
X3848Y1994*
X3848Y1993*
X3849Y1993*
X3849Y1993*
X3850Y1994*
X3850Y1994*
X3852Y1996*
X3853Y1997*
X3853Y1997*
X3853Y1998*
Y1998*
X3853Y1998*
X3852Y1999*
X3852*
X3872Y1867D02*
X3870Y1867D01*
X3869Y1866*
X3869Y1866*
X3869Y1865*
X3870Y1865*
X3871Y1865*
X3873Y1865*
X3874Y1866*
X3874Y1866*
X3874*
Y1866*
X3873Y1867*
X3872Y1867*
X3877Y1866D02*
X3875Y1866D01*
X3875Y1865*
X3874Y1865*
X3875Y1864*
X3875Y1864*
X3876Y1863*
X3878Y1864*
X3879Y1864*
X3879Y1865*
X3879*
Y1865*
X3879Y1865*
X3877Y1866*
X3880Y1888D02*
X3878Y1888D01*
X3878Y1888*
X3877Y1887*
X3877Y1886*
X3878Y1886*
X3880Y1886*
X3882Y1886*
X3882Y1886*
X3883Y1887*
X3882Y1888*
X3882Y1888*
X3880Y1888*
X3885Y1864D02*
X3883Y1864D01*
X3883Y1864*
X3882Y1863*
X3883Y1863*
X3883Y1862*
X3884Y1862*
X3886Y1862*
X3887Y1863*
X3887Y1863*
X3887*
Y1864*
X3887Y1864*
X3885Y1864*
X3885Y1887D02*
X3885Y1886D01*
X3884Y1886*
X3884Y1885*
X3885Y1885*
X3885Y1885*
X3888Y1885*
X3890Y1885*
X3891Y1885*
X3891Y1885*
X3891Y1886*
X3891Y1886*
X3890Y1887*
X3885*
X3894Y1863D02*
X3893Y1863D01*
X3893Y1862*
X3893Y1862*
X3893Y1861*
X3894Y1861*
X3897Y1861*
X3900Y1861*
X3901Y1861*
X3901Y1862*
X3901Y1862*
X3901Y1863*
X3900Y1863*
X3897Y1863*
X3894Y1863*
X3906Y1885D02*
X3905Y1885D01*
X3904Y1885*
X3904Y1885*
X3904Y1884*
X3905Y1884*
X3905Y1884*
X3910Y1883*
X3915Y1884*
X3915Y1884*
X3916Y1884*
X3916Y1885*
X3916Y1885*
X3915Y1885*
X3914Y1885*
X3910Y1886*
X3906Y1885*
X3931Y1630D02*
Y1629D01*
X3927Y1629*
X3926Y1629*
X3926Y1629*
X3926Y1628*
X3927Y1628*
X3929Y1627*
X3932Y1628*
X3932Y1628*
X3932Y1628*
Y1628*
X3932Y1628*
X3932Y1629*
X3932Y1629*
X3931Y1630*
X3933Y1887D02*
Y1887D01*
X3928*
X3927Y1886*
X3927Y1886*
X3927Y1886*
X3927Y1885*
X3927Y1885*
X3930Y1885*
X3934Y1885*
X3934Y1885*
X3934Y1885*
X3934Y1886*
X3934Y1886*
X3934Y1886*
X3934Y1887*
X3933Y1887*
X3941Y1717D02*
X3941Y1717D01*
X3940Y1714*
X3940Y1713*
X3941Y1716*
X3941Y1717*
X3941Y1719D02*
X3941Y1719D01*
X3940Y1717*
X3938Y1712*
X3939Y1711*
X3939Y1711*
X3940Y1711*
X3941Y1712*
X3941Y1713*
X3942Y1717*
X3943Y1718*
X3942Y1719*
X3941Y1719*
X3942Y1861D02*
X3940Y1844D01*
X3938Y1826*
X3936Y1806*
X3935Y1791*
X3933Y1772*
X3931Y1752*
X3929Y1730*
X3927Y1709*
X3925Y1689*
X3923Y1671*
X3921Y1655*
X3920Y1645*
X3920Y1638*
X3920Y1633*
X3920Y1631*
X3920Y1630*
X3921Y1630*
X3920Y1630*
X3918Y1631*
X3918Y1632*
X3918Y1637*
X3918Y1640*
X3918Y1646*
X3919Y1653*
X3920Y1661*
X3923Y1693*
X3926Y1723*
X3928Y1751*
X3931Y1777*
X3933Y1799*
X3935Y1817*
X3936Y1829*
X3937Y1837*
X3937Y1842*
X3938Y1847*
X3938Y1852*
X3938Y1855*
X3938Y1858*
X3938Y1859*
X3936Y1861*
X3936*
X3942Y1861*
X3943Y1628D02*
X3941Y1628D01*
X3941Y1628*
X3940Y1627*
X3940Y1627*
X3941Y1626*
X3943Y1626*
X3945Y1626*
X3945Y1627*
X3946Y1627*
X3945Y1628*
X3945Y1628*
X3943Y1628*
X3944Y1863D02*
X3945Y1861D01*
X3947Y1856*
X3948Y1852*
X3948Y1848*
X3948Y1842*
X3948Y1833*
X3948Y1822*
X3948Y1816*
X3949Y1812*
X3952Y1810*
X3955Y1809*
X3959Y1809*
X3968Y1808*
X3976Y1809*
X3979Y1809*
X3981Y1810*
X3983Y1813*
X3984Y1818*
X3984Y1825*
X3983Y1834*
X3983Y1851*
X3986Y1863*
X3986Y1861*
X3986Y1854*
X3987Y1844*
X3988Y1832*
X3989Y1816*
X3991Y1796*
X3993Y1773*
X3995Y1750*
X3996Y1729*
X3998Y1708*
X4000Y1689*
X4001Y1676*
X4001Y1666*
X4002Y1656*
X4003Y1646*
X4003Y1639*
Y1639*
X4004Y1625*
X3999Y1625*
X3995Y1625*
X3993Y1625*
X3992Y1625*
X3991Y1625*
X3990Y1626*
X3985Y1626*
X3978Y1627*
X3970Y1628*
X3952Y1630*
X3935Y1631*
X3927Y1632*
X3924Y1632*
X3923Y1632*
X3923Y1633*
X3923Y1635*
X3924Y1644*
X3925Y1650*
X3925Y1658*
X3926Y1667*
X3927Y1676*
X3929Y1691*
X3930Y1705*
X3931Y1718*
X3932Y1731*
X3934Y1744*
X3935Y1759*
X3937Y1776*
X3939Y1796*
X3941Y1819*
X3943Y1839*
X3944Y1847*
X3944Y1853*
X3945Y1857*
X3945Y1859*
X3944Y1863*
X3945Y1888D02*
Y1888D01*
X3942Y1888*
X3941Y1887*
X3941Y1887*
X3941Y1887*
X3941Y1886*
X3944Y1886*
X3946Y1886*
X3946Y1886*
X3947Y1886*
Y1886*
X3947Y1887*
X3947Y1888*
X3946Y1888*
X3945Y1888*
X3948Y1718D02*
X3950Y1717D01*
X3952Y1715*
X3953Y1714*
X3953Y1714*
X3950Y1715*
X3948Y1716*
X3947Y1717*
X3947Y1717*
X3947*
X3948Y1718*
Y1719D02*
X3946Y1718D01*
X3945Y1718*
X3946Y1717*
X3950Y1714*
X3952Y1713*
X3954Y1713*
X3955Y1714*
X3955Y1714*
X3953Y1716*
X3951Y1718*
X3948Y1719*
X3950Y1749D02*
X3948Y1745D01*
X3947Y1740*
X3947Y1737*
X3948Y1735*
X3949Y1733*
X3952Y1730*
X3955Y1727*
X3955Y1727*
X3955Y1727*
X3953Y1727*
X3949Y1729*
X3945Y1733*
X3944Y1739*
X3945Y1744*
X3950Y1749*
X3952Y1685D02*
X3954Y1684D01*
X3957Y1681*
X3961Y1679*
X3958Y1679*
X3956Y1680*
X3955Y1681*
X3953Y1684*
X3952Y1685*
X3953Y1889D02*
X3952Y1889D01*
X3952Y1889*
X3952Y1888*
X3952Y1888*
X3953Y1888*
X3956Y1887*
X3959Y1888*
X3960Y1888*
X3960Y1888*
X3960Y1889*
X3960Y1889*
X3959Y1889*
X3956Y1889*
X3953Y1889*
X3953Y1710D02*
X3953Y1710D01*
X3953Y1709*
X3950Y1706*
X3946Y1704*
X3944Y1703*
X3945Y1703*
X3946Y1706*
X3949Y1708*
X3951Y1709*
X3953Y1710*
Y1711D02*
X3951Y1710D01*
X3948Y1709*
X3945Y1707*
X3943Y1704*
X3943Y1702*
X3943Y1702*
X3943Y1701*
X3943Y1701*
X3944Y1701*
X3945Y1701*
X3947Y1703*
X3951Y1705*
X3954Y1708*
X3955Y1710*
X3954Y1711*
X3953Y1711*
Y1787D02*
X3954Y1785D01*
X3957Y1782*
X3961Y1780*
X3962Y1779*
X3962*
X3958Y1780*
X3955Y1783*
X3953Y1787*
X3954Y1753D02*
X3954Y1753D01*
Y1753*
X3950Y1751*
X3945Y1745*
X3942Y1739*
X3944Y1732*
X3949Y1728*
X3953Y1726*
X3955Y1725*
X3956Y1726*
X3956Y1727*
X3956Y1728*
X3953Y1731*
X3950Y1734*
X3949Y1736*
X3948Y1738*
X3948Y1740*
X3949Y1745*
X3951Y1749*
X3954Y1752*
X3955Y1752*
X3954Y1753*
X3954Y1797D02*
X3952Y1794D01*
X3951Y1790*
X3952Y1786*
X3954Y1782*
X3955Y1781*
X3955Y1781*
X3958Y1779*
X3961Y1778*
X3957Y1779*
X3954Y1780*
X3951Y1782*
X3949Y1785*
X3948Y1788*
X3949Y1791*
X3951Y1794*
X3954Y1797*
X3955Y1627D02*
X3953Y1627D01*
X3952Y1626*
X3952Y1626*
X3952Y1625*
X3953Y1625*
X3955Y1625*
X3957Y1625*
X3957Y1625*
X3957Y1626*
X3957Y1626*
X3957Y1627*
X3955Y1627*
X3955Y1696D02*
X3955Y1696D01*
X3953Y1693*
X3952Y1692*
X3952Y1692*
X3954Y1694*
X3955Y1696*
X3956Y1796D02*
X3955Y1794D01*
X3953Y1792*
X3953Y1789*
X3953Y1793*
X3955Y1796*
X3956Y1796*
X3962Y1752D02*
X3968Y1750D01*
X3973Y1746*
X3976Y1741*
X3976Y1736*
X3975Y1734*
X3972Y1731*
X3970Y1728*
X3970Y1728*
X3971Y1727*
X3971Y1727*
X3971Y1727*
X3969Y1727*
X3968Y1726*
X3968Y1727*
X3968Y1727*
X3968Y1728*
X3967Y1728*
X3967Y1728*
X3962Y1729*
X3958Y1731*
X3954Y1734*
X3951Y1736*
X3950Y1741*
X3952Y1746*
X3956Y1750*
X3962Y1752*
X3962Y1754D02*
X3961Y1754D01*
X3960Y1754*
X3962Y1754*
X3963Y1799D02*
X3963Y1799D01*
X3963Y1799*
X3964Y1798*
X3967Y1797*
X3971Y1794*
X3973Y1791*
X3974Y1788*
X3973Y1784*
X3972Y1782*
X3972Y1781*
X3972Y1780*
X3972Y1780*
X3966Y1778*
X3966Y1779*
X3962Y1781*
X3958Y1783*
X3955Y1786*
X3954Y1788*
X3954Y1789*
X3955Y1791*
X3956Y1794*
X3958Y1798*
X3963Y1799*
X3963Y1778D02*
X3964D01*
X3964Y1778*
X3963Y1778*
X3965Y1698D02*
X3971Y1695D01*
X3973Y1691*
X3970Y1695*
X3965Y1698*
X3965Y1703D02*
X3958Y1702D01*
X3952Y1700*
X3947Y1696*
X3945Y1694*
X3944Y1690*
X3944Y1687*
X3944Y1684*
X3945Y1681*
X3947Y1678*
X3949Y1676*
X3952Y1675*
X3955Y1675*
X3958Y1674*
X3962Y1674*
X3968Y1675*
X3973Y1676*
X3977Y1678*
X3980Y1681*
X3982Y1684*
X3983Y1688*
X3982Y1692*
X3981Y1696*
X3978Y1699*
X3975Y1701*
X3971Y1703*
X3965Y1703*
X3965Y1700D02*
X3961Y1700D01*
X3957Y1699*
X3955Y1698*
X3952Y1697*
X3948Y1692*
X3946Y1686*
X3948Y1681*
X3953Y1677*
X3963Y1676*
X3972Y1678*
X3977Y1682*
X3980Y1686*
X3980Y1691*
X3977Y1696*
X3975Y1698*
X3973Y1699*
X3970Y1700*
X3965Y1700*
Y1702D02*
X3971Y1701D01*
X3975Y1700*
X3978Y1698*
X3980Y1695*
X3981Y1692*
X3981Y1688*
X3981Y1685*
X3979Y1681*
X3976Y1679*
X3973Y1677*
X3968Y1676*
X3962Y1675*
X3958Y1675*
X3955Y1676*
X3953Y1676*
X3950Y1677*
X3948Y1679*
X3946Y1682*
X3945Y1684*
X3945Y1687*
X3945Y1690*
X3946Y1693*
X3948Y1696*
X3953Y1698*
X3959Y1700*
X3965Y1702*
X3965Y1799D02*
X3965D01*
X3969Y1798*
X3972Y1796*
X3974Y1793*
X3975Y1791*
X3975Y1789*
X3975Y1788*
X3975Y1784*
X3974Y1782*
X3974Y1783*
X3975Y1788*
X3974Y1792*
X3972Y1795*
X3968Y1798*
X3965Y1799*
X3965Y1801D02*
X3957Y1799D01*
X3957Y1800*
X3957Y1799*
X3951Y1796*
X3947Y1791*
X3947Y1788*
X3948Y1784*
X3950Y1781*
X3953Y1778*
X3958Y1777*
X3964Y1777*
X3970Y1778*
X3974Y1779*
X3978Y1782*
X3980Y1785*
X3981Y1788*
X3981Y1792*
X3979Y1796*
X3976Y1799*
X3971Y1800*
X3965Y1801*
X3967Y1890D02*
X3966Y1890D01*
X3966Y1890*
X3966Y1889*
X3966Y1889*
X3966Y1889*
X3969Y1889*
X3972Y1889*
X3972Y1889*
X3973Y1889*
X3973Y1890*
X3972Y1890*
X3972Y1890*
X3967*
X3967Y1756D02*
X3963Y1756D01*
X3959Y1755*
X3956Y1754*
X3955Y1754*
X3955Y1754*
X3955Y1753*
X3956Y1753*
X3956Y1753*
X3958Y1753*
X3954Y1751*
X3951Y1747*
X3949Y1741*
X3950Y1736*
X3953Y1733*
X3957Y1730*
X3965Y1727*
X3964Y1727*
X3958Y1726*
X3958*
Y1726*
X3958*
X3958Y1725*
X3958*
X3963Y1725*
X3967Y1725*
X3970Y1725*
Y1725*
X3971Y1726*
X3972Y1726*
X3973Y1727*
X3973Y1727*
X3973Y1728*
X3972Y1728*
X3973Y1730*
X3976Y1733*
X3978Y1736*
X3978Y1742*
X3974Y1747*
X3969Y1751*
X3962Y1753*
X3966Y1753*
X3967Y1754*
X3968Y1754*
X3968Y1754*
X3968Y1754*
X3968Y1755*
X3968Y1756*
X3967Y1756*
X3967Y1756D02*
X3974Y1755D01*
X3978Y1753*
X3982Y1750*
X3984Y1747*
X3985Y1743*
X3985Y1739*
X3984Y1735*
X3982Y1732*
X3979Y1729*
X3975Y1726*
X3970Y1725*
X3965Y1724*
X3959Y1724*
X3955Y1724*
X3948Y1727*
X3944Y1731*
X3941Y1735*
X3941Y1741*
X3943Y1745*
X3946Y1749*
X3950Y1752*
X3955Y1755*
X3960Y1756*
X3967Y1756*
X3967Y1757D02*
X3960Y1757D01*
X3954Y1756*
X3950Y1753*
X3945Y1750*
X3942Y1745*
X3940Y1741*
X3940Y1735*
X3943Y1730*
X3947Y1726*
X3954Y1723*
X3959Y1722*
X3965Y1722*
X3970Y1723*
X3975Y1725*
X3980Y1727*
X3983Y1731*
X3985Y1735*
X3987Y1739*
X3987Y1743*
X3985Y1748*
X3983Y1751*
X3979Y1754*
X3974Y1756*
X3967Y1757*
Y1802D02*
X3972Y1802D01*
X3976Y1801*
X3979Y1798*
X3981Y1795*
X3982Y1792*
X3982Y1788*
X3981Y1784*
X3979Y1781*
X3974Y1778*
X3966Y1776*
X3958Y1776*
X3952Y1777*
X3949Y1779*
X3948Y1782*
X3946Y1785*
X3946Y1788*
X3948Y1794*
X3952Y1798*
X3958Y1801*
X3967Y1802*
Y1803D02*
X3958Y1802D01*
X3951Y1799*
X3946Y1795*
X3945Y1788*
X3945Y1784*
X3946Y1781*
X3948Y1778*
X3951Y1776*
X3958Y1774*
X3966Y1775*
X3974Y1777*
X3980Y1780*
X3983Y1784*
X3984Y1788*
X3984Y1792*
X3982Y1796*
X3980Y1799*
X3977Y1802*
X3973Y1803*
X3967Y1803*
X3967Y1698D02*
X3970Y1698D01*
X3972Y1698*
X3974Y1697*
X3976Y1695*
X3979Y1691*
X3978Y1686*
X3977Y1684*
X3974Y1681*
X3975Y1685*
X3975Y1686*
X3975Y1687*
X3974Y1687*
X3974*
X3973Y1687*
X3973Y1686*
X3972Y1685*
X3971Y1682*
X3970Y1681*
X3969Y1680*
X3969Y1679*
X3969Y1679*
X3969Y1678*
X3966Y1678*
X3966Y1679*
X3966Y1679*
X3962Y1680*
X3958Y1682*
X3955Y1685*
X3952Y1687*
X3951Y1688*
X3951Y1688*
X3950Y1688*
X3950Y1687*
X3951Y1685*
X3952Y1683*
X3955Y1679*
Y1679*
X3955Y1679*
X3958Y1678*
X3960Y1677*
X3954Y1679*
X3949Y1682*
X3948Y1686*
X3949Y1691*
X3953Y1696*
X3954Y1696*
X3953Y1695*
X3951Y1693*
X3950Y1690*
X3950Y1690*
X3951Y1689*
X3952Y1690*
X3954Y1692*
X3957Y1695*
X3957Y1697*
X3957Y1697*
X3957Y1698*
X3958Y1698*
X3958Y1698*
X3963Y1697*
X3966Y1696*
X3970Y1694*
X3972Y1692*
X3973Y1690*
X3973Y1689*
X3973Y1688*
X3973Y1688*
X3974Y1688*
X3974Y1688*
X3974Y1689*
X3975Y1690*
X3974Y1693*
X3971Y1696*
X3967Y1698*
X3969Y1626D02*
Y1625D01*
X3965Y1625*
X3964Y1625*
X3964Y1625*
X3964Y1624*
X3965Y1624*
X3967Y1623*
X3970Y1624*
X3970Y1624*
X3970Y1624*
Y1624*
X3970Y1624*
X3970Y1625*
X3970Y1625*
X3969Y1626*
X3969Y1799D02*
X3975Y1798D01*
X3978Y1795*
X3980Y1792*
X3979Y1786*
X3974Y1781*
X3976Y1784*
X3976Y1789*
X3976Y1792*
X3976Y1794*
X3973Y1797*
X3969Y1799*
X3971Y1753D02*
X3971D01*
X3975Y1752*
X3979Y1749*
X3982Y1745*
X3983Y1741*
X3982Y1737*
X3979Y1733*
X3980Y1739*
X3979Y1744*
X3977Y1749*
X3972Y1752*
X3971Y1753*
X3971Y1754D02*
X3970Y1754D01*
X3969Y1754*
X3969Y1754*
X3969Y1753*
X3969Y1753*
X3970Y1752*
X3972Y1751*
X3976Y1747*
X3979Y1742*
X3979Y1736*
X3976Y1731*
X3975Y1730*
X3975Y1729*
X3975Y1729*
X3976Y1728*
X3976Y1728*
X3977Y1729*
X3979Y1731*
X3983Y1736*
X3984Y1741*
X3983Y1746*
X3980Y1750*
X3976Y1753*
X3971Y1754*
X3973Y1684D02*
X3972Y1681D01*
X3971Y1680*
X3972Y1681*
X3973Y1684*
X3974Y1710D02*
X3977Y1709D01*
X3980Y1707*
X3982Y1704*
X3984Y1701*
X3985Y1699*
X3983Y1700*
X3978Y1704*
X3975Y1708*
X3973Y1710*
X3973Y1710*
X3974Y1710*
Y1711D02*
X3972Y1711D01*
X3972Y1710*
X3972Y1709*
X3974Y1707*
X3977Y1703*
X3982Y1699*
X3984Y1697*
X3985Y1697*
X3985Y1697*
X3985Y1697*
X3986Y1697*
X3986Y1698*
X3986Y1699*
X3985Y1702*
X3983Y1705*
X3981Y1708*
X3977Y1710*
X3974Y1711*
X3977Y1880D02*
X3966Y1879D01*
X3956Y1878*
X3949Y1876*
X3944Y1875*
X3942Y1872*
X3941Y1871*
X3942Y1870*
X3945Y1870*
X3950Y1871*
X3956Y1872*
X3960Y1873*
X3964Y1873*
X3969Y1874*
X3974Y1874*
X3983Y1875*
X3989Y1876*
X3991Y1877*
X3991Y1878*
X3991Y1878*
X3991Y1879*
X3989Y1879*
X3986Y1880*
X3982Y1880*
X3977Y1880*
X3978Y1879D02*
X3982Y1879D01*
X3986Y1878*
X3989Y1878*
X3990Y1878*
X3988Y1877*
X3986Y1876*
X3983Y1876*
X3974Y1875*
X3969Y1875*
X3964Y1875*
X3959Y1874*
X3955Y1873*
X3949Y1872*
X3945Y1871*
X3943Y1871*
X3943Y1872*
X3943Y1872*
X3945Y1873*
X3950Y1875*
X3957Y1877*
X3966Y1878*
X3978Y1879*
X3980Y1624D02*
X3978Y1624D01*
X3977Y1624*
X3977Y1623*
X3977Y1623*
X3978Y1622*
X3980Y1622*
X3982Y1622*
X3982Y1623*
X3982Y1623*
X3982Y1624*
X3981Y1624*
X3980Y1624*
Y1892D02*
X3978Y1892D01*
X3977Y1892*
X3977Y1891*
X3977Y1890*
X3978Y1890*
X3980Y1890*
X3982Y1890*
X3982Y1890*
X3982Y1891*
X3982Y1892*
X3981Y1892*
X3980Y1892*
X3984Y1720D02*
X3984D01*
X3984Y1719*
X3981Y1717*
X3978Y1715*
X3975Y1714*
X3973Y1714*
X3973Y1714*
X3974Y1715*
X3976Y1717*
X3979Y1719*
X3982Y1720*
X3984Y1720*
X3984Y1721D02*
X3982Y1721D01*
X3978Y1720*
X3975Y1718*
X3973Y1716*
X3972Y1714*
X3972Y1714*
X3972Y1713*
X3973Y1713*
X3975Y1712*
X3979Y1714*
X3982Y1716*
X3985Y1719*
X3985Y1720*
X3984Y1721*
X3987Y1720D02*
X3987D01*
X3988Y1719*
X3990Y1715*
X3991Y1710*
X3991Y1705*
X3990Y1703*
X3990Y1703*
X3990Y1704*
X3989Y1706*
X3989Y1710*
X3987Y1714*
X3986Y1717*
X3986Y1719*
X3987Y1720*
X3987Y1681D02*
X3986Y1679D01*
X3985Y1675*
X3983Y1673*
X3980Y1670*
X3976Y1668*
X3963Y1665*
X3950Y1668*
X3945Y1671*
X3942Y1674*
X3941Y1677*
X3941Y1678*
X3942Y1677*
X3945Y1675*
X3954Y1669*
X3964Y1668*
X3974Y1671*
X3983Y1678*
X3987Y1681*
X3987Y1721D02*
X3986Y1721D01*
X3985Y1720*
X3985Y1717*
X3986Y1713*
X3988Y1709*
X3988Y1706*
X3989Y1703*
X3990Y1702*
X3991Y1702*
X3991Y1703*
X3992Y1705*
X3992Y1710*
X3991Y1715*
X3989Y1719*
X3987Y1721*
X3989Y1686D02*
X3987Y1684D01*
X3982Y1678*
X3974Y1672*
X3964Y1669*
X3955Y1671*
X3946Y1676*
X3943Y1678*
X3942Y1679*
X3941*
X3940Y1678*
X3940Y1677*
X3941Y1674*
X3944Y1670*
X3949Y1667*
X3963Y1664*
X3977Y1667*
X3981Y1669*
X3984Y1672*
X3986Y1675*
X3987Y1679*
X3988Y1683*
X3989Y1686*
X3989Y1893D02*
X3989Y1893D01*
X3988Y1893*
X3988Y1892*
X3988Y1892*
X3989Y1891*
X3991Y1891*
X3994Y1891*
X3995Y1892*
X3995Y1892*
X3995Y1893*
X3994Y1893*
X3994Y1893*
X3989*
X3990Y1873D02*
X3990Y1872D01*
X3987Y1867*
X3984Y1861*
X3982Y1854*
X3981Y1845*
X3982Y1833*
X3982Y1825*
X3982Y1818*
X3981Y1814*
X3980Y1811*
X3979Y1811*
X3976Y1810*
X3968Y1810*
X3959Y1810*
X3955Y1810*
X3953Y1811*
X3951Y1812*
X3949Y1816*
X3949Y1822*
X3949Y1833*
X3950Y1842*
X3950Y1848*
X3949Y1852*
X3948Y1857*
X3946Y1862*
X3945Y1864*
X3944Y1865*
X3944Y1866*
X3944Y1868*
X3944Y1868*
X3944*
X3945Y1867*
X3948Y1865*
X3950Y1861*
X3951Y1858*
X3951Y1854*
X3952Y1847*
X3952Y1837*
X3952Y1829*
X3952Y1823*
X3952Y1818*
X3953Y1815*
X3955Y1814*
X3958Y1813*
X3961Y1812*
X3966Y1812*
X3970Y1812*
X3974Y1813*
X3976Y1814*
X3978Y1816*
X3979Y1819*
X3980Y1823*
X3980Y1829*
X3979Y1837*
X3979Y1845*
X3979Y1851*
X3980Y1857*
X3980Y1861*
X3983Y1867*
X3987Y1871*
X3990Y1873*
X3990Y1873*
X3991Y1680D02*
X3991Y1680D01*
X3990Y1677*
X3990Y1672*
X3991Y1666*
X3992Y1659*
X3992Y1651*
X3992Y1647*
X3992Y1644*
X3990Y1641*
X3988Y1639*
X3985Y1639*
X3982Y1639*
X3979Y1639*
X3974Y1640*
X3968Y1640*
X3960Y1641*
X3953Y1642*
X3947Y1642*
X3944Y1643*
X3939Y1645*
X3936Y1650*
X3936Y1656*
X3937Y1665*
X3938Y1671*
X3937Y1675*
X3936Y1676*
X3936Y1676*
X3935Y1676*
X3934Y1675*
X3933Y1672*
X3932Y1665*
X3931Y1657*
X3931Y1650*
X3932Y1646*
X3934Y1642*
X3938Y1639*
X3945Y1637*
X3955Y1636*
X3961Y1635*
X3968Y1635*
X3975Y1634*
X3981Y1634*
X3985Y1634*
X3989Y1634*
X3992Y1635*
X3994Y1636*
X3997Y1641*
X3997Y1649*
X3997Y1657*
X3996Y1667*
X3995Y1674*
X3993Y1679*
X3992Y1680*
X3991Y1680*
X3992Y1679D02*
X3992Y1679D01*
X3993Y1677*
X3993Y1674*
X3995Y1666*
X3996Y1657*
X3996Y1649*
X3996Y1641*
X3994Y1637*
X3992Y1636*
X3989Y1635*
X3985Y1635*
X3981Y1635*
X3975Y1635*
X3969Y1636*
X3962Y1636*
X3955Y1637*
X3945Y1639*
X3939Y1640*
X3935Y1643*
X3933Y1646*
X3932Y1650*
X3932Y1657*
X3933Y1665*
X3934Y1671*
X3935Y1674*
X3936Y1675*
X3936Y1674*
X3937Y1671*
X3936Y1666*
X3934Y1656*
X3935Y1649*
X3938Y1644*
X3944Y1642*
X3947Y1641*
X3953Y1640*
X3960Y1639*
X3968Y1639*
X3974Y1638*
X3979Y1638*
X3982Y1638*
X3985Y1638*
X3988Y1638*
X3991Y1640*
X3993Y1644*
X3993Y1647*
X3993Y1651*
X3993Y1659*
X3992Y1666*
X3991Y1672*
X3991Y1677*
X3992Y1679*
X3993Y1623D02*
X3991Y1623D01*
X3990Y1622*
X3990Y1622*
X3990Y1621*
X3991Y1621*
X3992Y1621*
X3994Y1621*
X3994Y1622*
X3994Y1622*
X3994*
Y1622*
X3994Y1622*
X3993Y1623*
X4001Y1894D02*
X4000Y1894D01*
X4000Y1894*
X4000Y1893*
X4000Y1893*
X4001Y1893*
X4003Y1893*
X4006Y1893*
X4006Y1893*
X4007Y1893*
X4007Y1894*
X4006Y1894*
X4006Y1894*
X4001*
X4008Y1867D02*
X4007Y1867D01*
X4006Y1866*
X4006Y1866*
X4006Y1865*
X4007Y1865*
X4008Y1865*
X4009Y1865*
X4010Y1866*
X4010Y1866*
X4010*
Y1866*
X4010Y1867*
X4008Y1867*
X4015Y1896D02*
X4013Y1896D01*
X4013Y1895*
X4012Y1895*
X4013Y1894*
X4013Y1894*
X4015Y1894*
X4017Y1894*
X4018Y1894*
X4018Y1895*
X4017Y1895*
X4017Y1896*
X4015Y1896*
X4021Y1868D02*
Y1868D01*
X4016*
X4015Y1868*
X4015Y1868*
X4015Y1867*
X4015Y1867*
X4015Y1866*
X4018Y1866*
X4021Y1866*
X4022Y1867*
X4022Y1867*
X4022Y1867*
X4022Y1868*
X4022Y1868*
X4021Y1868*
X4021Y1868*
X4026Y1897D02*
X4025Y1897D01*
X4025Y1896*
X4025Y1896*
X4025Y1896*
X4025Y1895*
X4028Y1895*
X4031Y1895*
X4031Y1896*
X4032Y1896*
X4032Y1896*
X4031Y1897*
X4031Y1897*
X4026*
X4032Y1869D02*
X4032Y1869D01*
X4031Y1869*
X4031Y1868*
X4032Y1868*
X4032Y1868*
X4035Y1868*
X4037Y1868*
X4038Y1868*
X4038Y1868*
X4038Y1869*
X4038Y1869*
X4037Y1869*
X4032*
X4041Y1898D02*
X4040Y1898D01*
X4040Y1898*
X4039Y1898*
X4039Y1897*
X4040Y1897*
X4040Y1897*
X4045Y1897*
X4050Y1897*
X4051Y1897*
X4051Y1897*
X4051Y1898*
X4051Y1898*
X4050Y1898*
X4050Y1898*
X4045Y1899*
X4041Y1898*
X4080Y1869D02*
X4079Y1869D01*
X4079Y1869*
X4079Y1868*
X4079Y1868*
X4079Y1868*
X4082Y1868*
X4085Y1868*
X4085Y1868*
X4085Y1868*
X4085Y1869*
X4085Y1869*
X4084Y1869*
X4080*
X4084Y1822D02*
X4085Y1820D01*
X4087Y1815*
X4091Y1809*
X4094Y1803*
X4099Y1795*
X4104Y1785*
X4109Y1775*
X4114Y1765*
X4119Y1755*
X4122Y1746*
X4125Y1739*
X4133Y1716*
X4137Y1694*
X4140Y1673*
X4140Y1650*
X4139Y1630*
X4136Y1612*
X4131Y1594*
X4124Y1574*
X4113Y1551*
X4099Y1531*
X4112Y1552*
X4123Y1575*
X4131Y1600*
X4137Y1627*
X4138Y1648*
X4138Y1671*
X4135Y1694*
X4131Y1715*
X4127Y1726*
X4123Y1739*
X4117Y1752*
X4111Y1766*
X4104Y1780*
X4097Y1794*
X4090Y1806*
X4083Y1818*
X4082Y1819*
X4082Y1820*
X4083Y1821*
X4084Y1822*
X4086Y1899D02*
X4084Y1898D01*
X4084Y1898*
X4083Y1898*
X4083Y1897*
X4084Y1897*
X4086Y1896*
X4088Y1897*
X4088Y1897*
X4089Y1898*
X4088Y1898*
X4088Y1898*
X4086Y1899*
X4086Y1826D02*
X4086Y1826D01*
X4084Y1824*
X4082Y1822*
X4081Y1820*
X4081Y1819*
X4082Y1817*
X4089Y1806*
X4096Y1793*
X4103Y1780*
X4110Y1766*
X4116Y1752*
X4121Y1738*
X4126Y1726*
X4129Y1715*
X4134Y1693*
X4137Y1671*
X4137Y1648*
X4135Y1627*
X4129Y1596*
X4118Y1567*
X4105Y1542*
X4088Y1520*
X4080Y1512*
X4080Y1512*
X4081Y1511*
X4087Y1506*
X4093Y1503*
X4098Y1501*
X4099Y1501*
X4100Y1502*
X4100Y1502*
X4100Y1502*
X4100Y1503*
X4100Y1503*
X4099Y1503*
X4095Y1505*
X4090Y1508*
X4087Y1511*
X4086Y1512*
X4085Y1512*
X4085Y1513*
X4086Y1513*
X4087Y1515*
X4092Y1521*
X4102Y1533*
X4111Y1545*
X4118Y1559*
X4125Y1574*
X4132Y1593*
X4137Y1612*
X4140Y1630*
X4141Y1650*
X4141Y1673*
X4139Y1695*
X4134Y1716*
X4127Y1739*
X4124Y1746*
X4120Y1755*
X4115Y1765*
X4110Y1776*
X4105Y1786*
X4100Y1795*
X4095Y1803*
X4092Y1809*
X4088Y1816*
X4086Y1820*
X4086Y1822*
X4087Y1824*
X4087Y1825*
X4087Y1825*
X4087Y1825*
X4087Y1826*
X4086Y1826*
X4087Y1517D02*
X4086Y1516D01*
X4085Y1514*
X4084Y1513*
X4084Y1512*
X4085Y1511*
X4086Y1510*
X4090Y1507*
X4095Y1503*
X4094Y1504*
X4088Y1507*
X4082Y1512*
X4087Y1517*
X4099Y1868D02*
X4097Y1868D01*
X4096Y1868*
X4096Y1867*
X4096Y1867*
X4097Y1866*
X4098Y1866*
X4100Y1866*
X4101Y1867*
X4101Y1867*
X4101*
Y1868*
X4100Y1868*
X4099Y1868*
X4112Y1892D02*
X4112D01*
X4113Y1891*
X4113Y1888*
X4113Y1882*
X4112Y1876*
X4110Y1870*
X4109Y1869*
X4109Y1868*
X4108Y1868*
X4108Y1868*
X4109Y1869*
X4110Y1874*
X4111Y1880*
X4112Y1887*
X4112Y1891*
X4112Y1892*
X4113Y1893D02*
X4111Y1893D01*
X4111Y1891*
X4111Y1890*
X4110Y1887*
X4110Y1881*
X4108Y1874*
X4108Y1870*
X4107Y1868*
Y1867*
X4107Y1867*
X4108Y1867*
X4109Y1867*
X4110Y1868*
X4111Y1870*
X4113Y1875*
X4114Y1882*
X4115Y1887*
X4114Y1891*
X4113Y1893*
X4119Y1517D02*
X4118Y1517D01*
X4118Y1517*
X4117Y1516*
X4115Y1514*
X4114Y1514*
X4114Y1513*
X4114Y1513*
X4114Y1512*
X4115Y1512*
X4116Y1512*
X4118Y1514*
X4119Y1515*
X4119Y1516*
X4119Y1516*
Y1516*
X4119Y1517*
X4119Y1517*
X4119*
X4124Y1775D02*
X4123Y1775D01*
X4123Y1775*
X4123Y1773*
X4124Y1770*
X4126Y1768*
X4127Y1767*
X4127Y1767*
X4128Y1767*
X4128Y1768*
X4128Y1769*
X4127Y1772*
X4126Y1774*
X4125Y1775*
X4124Y1775*
X4124Y1774D02*
X4124Y1773D01*
X4126Y1771*
X4127Y1769*
X4125Y1771*
X4124Y1774*
X4126Y1781D02*
X4126Y1780D01*
X4126Y1779*
X4128Y1776*
X4130Y1772*
X4131Y1770*
X4130Y1768*
X4131Y1767*
X4132Y1766*
X4133Y1767*
X4133Y1768*
X4134Y1770*
X4134Y1774*
X4132Y1777*
X4129Y1780*
X4127Y1780*
X4126Y1781*
X4127Y1779D02*
X4128Y1779D01*
X4131Y1776*
X4133Y1774*
X4133Y1770*
X4132Y1768*
X4132Y1768*
X4132Y1768*
X4132Y1769*
X4132Y1773*
X4129Y1777*
X4127Y1779*
X4127Y1779*
X4131Y1804D02*
X4130Y1799D01*
X4130Y1794*
X4132Y1790*
X4136Y1788*
X4132Y1789*
X4128Y1791*
X4127Y1794*
X4127Y1797*
X4128Y1801*
X4130Y1803*
X4131Y1804*
X4140Y1842D02*
X4145Y1842D01*
X4149Y1839*
X4153Y1835*
X4156Y1830*
X4158Y1824*
X4158Y1820*
X4158Y1819*
X4157Y1818*
X4153Y1818*
X4147Y1817*
X4137Y1816*
X4130Y1814*
X4125Y1810*
X4121Y1803*
X4119Y1798*
X4118Y1796*
X4118Y1796*
X4118Y1796*
X4117Y1798*
X4116Y1801*
X4116Y1803*
X4117Y1805*
X4121Y1810*
X4125Y1814*
X4129Y1818*
X4133Y1820*
X4138Y1821*
X4145Y1821*
X4150Y1822*
X4153Y1823*
X4153Y1826*
X4151Y1831*
X4149Y1835*
X4146Y1837*
X4142Y1839*
X4139Y1838*
X4135Y1837*
X4131Y1835*
X4127Y1832*
X4122Y1829*
X4113Y1823*
X4110Y1821*
X4108Y1819*
X4106Y1816*
X4106Y1813*
X4107Y1809*
X4110Y1805*
X4112Y1801*
X4113Y1797*
X4114Y1794*
X4113Y1795*
X4110Y1798*
X4104Y1807*
X4102Y1816*
X4103Y1819*
X4106Y1823*
X4109Y1825*
X4112Y1828*
X4117Y1830*
X4122Y1834*
X4128Y1837*
X4132Y1839*
X4136Y1841*
X4140Y1842*
X4140Y1808D02*
X4140Y1807D01*
X4140Y1807*
X4145Y1805*
X4148Y1804*
X4151Y1801*
X4152Y1798*
Y1799*
X4153Y1798*
X4153Y1798*
X4154Y1798*
X4155Y1799*
X4154Y1802*
X4152Y1805*
X4148Y1807*
X4151Y1807*
X4155Y1804*
X4158Y1800*
X4158Y1796*
X4155Y1792*
X4154Y1791*
X4154Y1793*
X4155Y1796*
X4154Y1797*
X4152Y1794*
X4151Y1791*
X4150Y1790*
X4150Y1789*
X4150Y1789*
X4148Y1789*
X4147Y1788*
X4147Y1787*
X4146Y1787*
X4144Y1788*
X4141Y1789*
X4136Y1792*
X4133Y1795*
X4133Y1799*
X4134Y1803*
X4136Y1805*
X4136Y1806*
X4136Y1807*
X4136Y1807*
X4140Y1808*
X4141Y1809D02*
X4136Y1808D01*
X4135Y1808*
X4134Y1807*
X4134Y1806*
X4134*
X4134Y1806*
X4133Y1804*
X4131Y1799*
X4133Y1804*
X4133Y1805*
X4134Y1806*
X4133Y1806*
X4133Y1807*
X4132Y1806*
X4132Y1806*
X4130Y1804*
X4127Y1801*
X4126Y1798*
X4126Y1794*
X4127Y1791*
X4131Y1787*
X4136Y1786*
X4138Y1786*
X4138Y1786*
X4139Y1786*
X4139Y1787*
X4138Y1788*
X4138Y1788*
X4136Y1788*
X4133Y1791*
X4132Y1795*
X4132Y1796*
X4132Y1794*
X4135Y1791*
X4140Y1788*
X4144Y1787*
X4146Y1786*
X4148Y1787*
X4148Y1788*
X4148Y1788*
X4149Y1788*
X4151Y1788*
X4152Y1788*
X4152Y1789*
X4152Y1789*
X4152Y1790*
X4153Y1793*
X4153Y1793*
X4153Y1793*
X4153Y1791*
X4153Y1790*
X4153Y1789*
X4154Y1789*
X4155Y1790*
X4156Y1791*
X4159Y1795*
X4159Y1801*
X4156Y1805*
X4151Y1808*
X4146Y1809*
X4141*
X4141Y1538D02*
X4141Y1538D01*
X4140Y1538*
X4140Y1537*
X4137Y1535*
X4134Y1532*
X4131Y1528*
X4127Y1525*
X4124Y1522*
X4123Y1520*
X4122Y1519*
X4122Y1519*
X4122Y1519*
X4123Y1518*
X4123Y1518*
X4123Y1519*
X4124Y1519*
X4126Y1521*
X4129Y1524*
X4133Y1528*
X4136Y1531*
X4139Y1534*
X4141Y1536*
X4141Y1537*
X4142Y1537*
Y1537*
X4141Y1538*
X4142Y1812D02*
X4134Y1810D01*
X4127Y1806*
X4124Y1802*
X4123Y1796*
X4124Y1791*
X4126Y1787*
X4129Y1785*
X4133Y1783*
X4138Y1783*
X4143Y1783*
X4148Y1784*
X4153Y1786*
X4159Y1790*
X4162Y1796*
X4162Y1802*
X4158Y1808*
X4155Y1810*
X4151Y1811*
X4147Y1812*
X4142*
X4142Y1811D02*
X4147Y1811D01*
X4151Y1810*
X4154Y1809*
X4157Y1807*
X4160Y1802*
X4161Y1796*
X4158Y1791*
X4153Y1787*
X4148Y1785*
X4143Y1784*
X4138Y1784*
X4134Y1785*
X4129Y1786*
X4127Y1788*
X4125Y1791*
X4125Y1796*
X4125Y1802*
X4128Y1805*
X4128Y1805*
X4134Y1809*
X4142Y1811*
Y1844D02*
X4139Y1843D01*
X4136Y1842*
X4132Y1841*
X4127Y1838*
X4122Y1835*
X4116Y1832*
X4112Y1829*
X4108Y1826*
X4105Y1824*
X4102Y1820*
X4101Y1816*
X4103Y1807*
X4109Y1798*
X4112Y1794*
X4113Y1793*
X4114Y1793*
X4114Y1793*
X4114Y1792*
X4115Y1793*
X4115Y1793*
Y1794*
X4114Y1798*
X4113Y1802*
X4111Y1805*
X4108Y1810*
X4107Y1813*
X4107Y1816*
X4109Y1818*
X4110Y1820*
X4114Y1822*
X4122Y1828*
X4127Y1831*
X4132Y1833*
X4136Y1836*
X4139Y1837*
X4142Y1837*
X4145Y1836*
X4148Y1834*
X4150Y1830*
X4152Y1826*
X4152Y1824*
X4149Y1823*
X4145Y1823*
X4138Y1822*
X4133Y1821*
X4128Y1819*
X4124Y1815*
X4120Y1811*
X4116Y1806*
X4115Y1803*
X4114Y1801*
X4116Y1797*
X4117Y1796*
X4118Y1795*
X4119Y1795*
X4120Y1798*
X4122Y1802*
X4126Y1809*
X4131Y1813*
X4137Y1815*
X4147Y1816*
X4153Y1817*
X4157Y1817*
X4159Y1818*
X4160Y1820*
X4159Y1825*
X4157Y1831*
X4154Y1836*
X4150Y1840*
X4147Y1843*
X4142Y1844*
X4143Y1762D02*
X4142Y1756D01*
X4143Y1750*
X4146Y1746*
X4152Y1742*
X4147Y1744*
X4143Y1747*
X4140Y1749*
X4139Y1752*
X4139Y1755*
X4143Y1762*
X4145Y1807D02*
X4148Y1806D01*
X4151Y1804*
X4153Y1802*
X4153Y1799*
X4153Y1799*
X4152Y1801*
X4151Y1803*
Y1803*
X4148Y1805*
X4145Y1807*
X4146Y1766D02*
X4146Y1766D01*
X4145Y1765*
X4143Y1763*
X4140Y1759*
X4138Y1756*
X4139Y1748*
X4142Y1745*
X4146Y1743*
X4150Y1741*
X4154Y1740*
X4155Y1740*
X4155Y1741*
X4155Y1741*
X4155Y1742*
X4152Y1743*
X4147Y1747*
X4144Y1752*
X4143Y1758*
X4146Y1763*
X4147Y1765*
X4147Y1765*
X4147Y1766*
X4146Y1766*
X4147Y1857D02*
X4147Y1856D01*
X4150Y1852*
X4153Y1847*
X4156Y1841*
X4170Y1816*
X4181Y1789*
X4190Y1762*
X4196Y1733*
X4197Y1726*
X4198Y1717*
X4199Y1707*
X4199Y1693*
X4199Y1677*
X4198Y1667*
X4197Y1659*
X4195Y1650*
X4188Y1630*
X4180Y1609*
X4170Y1589*
X4160Y1571*
X4148Y1553*
X4135Y1537*
X4121Y1523*
X4107Y1512*
X4102Y1508*
X4100Y1507*
X4100Y1506*
X4099Y1506*
X4099Y1507*
X4097Y1507*
X4093Y1510*
X4088Y1513*
X4096Y1521*
X4111Y1540*
X4123Y1563*
X4134Y1588*
X4141Y1617*
X4143Y1627*
X4144Y1635*
X4144Y1644*
X4145Y1657*
X4144Y1678*
X4142Y1696*
X4138Y1714*
X4132Y1734*
X4128Y1743*
X4124Y1753*
X4119Y1764*
X4114Y1775*
X4108Y1787*
X4103Y1797*
X4098Y1806*
X4093Y1813*
X4089Y1819*
X4088Y1821*
X4088Y1821*
X4088Y1822*
X4090Y1823*
X4093Y1825*
X4097Y1827*
X4106Y1833*
X4117Y1839*
X4128Y1846*
X4137Y1851*
X4144Y1855*
X4146Y1856*
X4147Y1857*
X4147Y1858D02*
X4146Y1858D01*
X4146Y1858*
X4144Y1856*
X4137Y1853*
X4127Y1847*
X4116Y1840*
X4105Y1834*
X4096Y1828*
X4089Y1824*
X4087Y1823*
X4087Y1822*
X4087Y1822*
X4087Y1822*
X4087Y1821*
X4087Y1820*
X4088Y1818*
X4092Y1812*
X4097Y1805*
X4102Y1796*
X4107Y1786*
X4113Y1775*
X4118Y1764*
X4123Y1753*
X4127Y1743*
X4130Y1734*
X4136Y1714*
X4140Y1696*
X4143Y1678*
X4143Y1657*
X4143Y1644*
X4143Y1635*
X4142Y1627*
X4140Y1617*
X4132Y1589*
X4122Y1563*
X4110Y1541*
X4095Y1522*
X4087Y1513*
X4086Y1513*
X4087Y1512*
X4093Y1509*
X4097Y1506*
X4098Y1505*
X4099Y1505*
X4100Y1505*
X4101Y1506*
X4103Y1507*
X4108Y1511*
X4122Y1522*
X4136Y1536*
X4149Y1552*
X4161Y1570*
X4172Y1589*
X4181Y1609*
X4189Y1629*
X4196Y1650*
X4198Y1659*
X4199Y1667*
X4200Y1677*
X4200Y1693*
X4200Y1707*
X4199Y1717*
X4199Y1726*
X4198Y1734*
X4191Y1762*
X4182Y1790*
X4171Y1816*
X4158Y1842*
X4154Y1848*
X4151Y1853*
X4148Y1857*
X4148Y1858*
X4147Y1858*
X4147Y1858*
X4147Y1858*
X4149Y1547D02*
X4148Y1547D01*
X4148Y1547*
X4147Y1546*
X4145Y1544*
X4142Y1541*
X4142Y1540*
X4142Y1540*
X4142Y1539*
X4143Y1539*
X4143Y1539*
X4143Y1540*
X4144Y1540*
X4147Y1543*
X4149Y1545*
X4149Y1546*
X4149Y1546*
X4149Y1547*
X4149Y1547*
X4150Y1861D02*
X4151Y1861D01*
X4151Y1860*
X4154Y1857*
X4157Y1853*
X4160Y1847*
X4168Y1833*
X4176Y1818*
X4188Y1789*
X4197Y1761*
X4203Y1732*
X4206Y1702*
X4206Y1691*
X4206Y1682*
X4205Y1675*
X4204Y1667*
X4198Y1642*
X4189Y1617*
X4177Y1591*
X4162Y1566*
X4162Y1565*
X4174Y1586*
X4185Y1609*
X4194Y1632*
X4200Y1653*
X4203Y1673*
X4204Y1694*
X4203Y1716*
X4199Y1740*
X4192Y1771*
X4182Y1801*
X4168Y1830*
X4151Y1859*
X4150Y1860*
X4150Y1861*
X4150Y1861*
Y1862D02*
X4149Y1862D01*
X4149Y1861*
X4149Y1860*
X4150Y1858*
X4167Y1830*
X4180Y1800*
X4191Y1770*
X4198Y1740*
X4201Y1716*
X4203Y1694*
X4202Y1673*
X4199Y1654*
X4192Y1632*
X4183Y1609*
X4172Y1586*
X4160Y1565*
X4157Y1561*
X4155Y1557*
X4154Y1554*
X4153Y1554*
X4153Y1554*
X4153Y1553*
X4154Y1553*
X4154Y1553*
X4155Y1553*
X4156Y1554*
X4157Y1557*
X4163Y1564*
X4163Y1565*
X4178Y1590*
X4191Y1616*
X4200Y1642*
X4205Y1667*
X4206Y1675*
X4207Y1682*
X4207Y1691*
X4207Y1702*
X4204Y1732*
X4199Y1761*
X4190Y1790*
X4177Y1819*
X4170Y1834*
X4162Y1847*
X4158Y1853*
X4155Y1858*
X4152Y1861*
X4151Y1862*
X4150Y1862*
X4151Y1926D02*
X4150Y1926D01*
X4150Y1924*
X4150Y1921*
X4151Y1918*
X4152Y1918*
X4153Y1917*
X4154Y1918*
X4155Y1920*
X4153Y1925*
X4152Y1926*
X4151Y1926*
X4151Y1925D02*
X4151Y1925D01*
X4152Y1924*
X4153Y1920*
X4153Y1919*
X4153Y1918*
X4153Y1919*
X4152Y1919*
X4151Y1921*
X4151Y1924*
X4151Y1925*
X4151Y1925*
X4152Y1864D02*
X4153Y1864D01*
X4155Y1861*
X4158Y1857*
X4176Y1825*
X4190Y1793*
X4201Y1760*
X4207Y1725*
X4209Y1709*
X4209Y1691*
X4208Y1674*
X4206Y1660*
X4200Y1637*
X4192Y1615*
X4182Y1593*
X4170Y1571*
X4156Y1552*
X4141Y1534*
X4125Y1518*
X4109Y1506*
X4102Y1501*
X4097Y1500*
X4091Y1501*
X4085Y1505*
X4081Y1509*
X4079Y1510*
X4079Y1511*
X4079Y1512*
X4081Y1515*
X4086Y1521*
X4097Y1533*
X4106Y1548*
X4115Y1564*
X4122Y1581*
X4128Y1599*
X4132Y1618*
X4134Y1637*
X4135Y1657*
X4134Y1679*
X4131Y1701*
X4125Y1723*
X4116Y1745*
X4108Y1765*
X4098Y1786*
X4088Y1803*
X4081Y1814*
X4079Y1818*
X4079Y1820*
X4080Y1823*
X4082Y1825*
X4088Y1829*
X4096Y1834*
X4107Y1840*
X4119Y1847*
X4130Y1853*
X4139Y1859*
X4147Y1863*
X4149Y1864*
X4150Y1864*
X4152Y1864*
X4152Y1866D02*
X4150Y1865D01*
X4148Y1865*
X4146Y1864*
X4139Y1860*
X4129Y1855*
X4118Y1848*
X4106Y1841*
X4096Y1835*
X4087Y1830*
X4081Y1826*
X4079Y1824*
X4077Y1820*
X4078Y1817*
X4080Y1814*
X4087Y1802*
X4096Y1785*
X4106Y1765*
X4115Y1745*
X4124Y1722*
X4130Y1700*
X4133Y1679*
X4134Y1657*
X4133Y1638*
X4131Y1619*
X4126Y1600*
X4121Y1582*
X4114Y1565*
X4105Y1549*
X4096Y1534*
X4085Y1522*
X4080Y1515*
X4078Y1513*
X4077Y1511*
X4078Y1510*
X4080Y1508*
X4085Y1504*
X4091Y1500*
X4097Y1499*
X4103Y1500*
X4110Y1504*
X4126Y1517*
X4142Y1533*
X4157Y1551*
X4171Y1571*
X4183Y1592*
X4193Y1614*
X4202Y1637*
X4207Y1659*
X4209Y1674*
X4210Y1691*
X4210Y1709*
X4209Y1725*
X4202Y1760*
X4192Y1794*
X4178Y1826*
X4160Y1858*
X4157Y1862*
X4154Y1865*
X4152Y1866*
X4153Y1552D02*
X4152Y1552D01*
X4152Y1552*
X4151Y1551*
X4149Y1549*
X4148Y1548*
X4149Y1547*
X4149Y1547*
X4150Y1547*
X4150Y1547*
X4151Y1548*
X4152Y1550*
X4153Y1551*
X4153Y1551*
X4153Y1551*
Y1552*
X4153Y1552*
X4153Y1552*
X4153*
X4154Y1973D02*
X4155Y1973D01*
X4155Y1973*
X4153Y1972*
X4153Y1970*
X4152Y1967*
X4153Y1965*
X4153Y1964*
X4153*
X4152Y1965*
X4151Y1966*
X4151Y1968*
X4152Y1971*
X4153Y1973*
X4154Y1973*
X4154Y1767D02*
X4150Y1766D01*
X4147Y1764*
X4145Y1761*
X4144Y1757*
X4144Y1754*
X4146Y1750*
X4149Y1747*
X4154Y1744*
X4159Y1743*
X4163Y1742*
X4166Y1742*
X4167Y1742*
X4167Y1742*
X4168Y1742*
X4168Y1743*
X4168Y1743*
X4167Y1743*
X4167Y1743*
X4167Y1744*
X4169Y1747*
X4172Y1750*
X4173Y1754*
X4172Y1758*
X4169Y1762*
X4165Y1766*
X4159Y1767*
X4154Y1767*
X4154Y1766D02*
X4159Y1766D01*
X4162Y1765*
X4164Y1765*
X4166Y1763*
X4168Y1761*
X4171Y1758*
X4172Y1754*
X4171Y1751*
X4168Y1748*
X4166Y1745*
X4165Y1743*
X4166Y1743*
X4163Y1743*
X4159Y1744*
X4154Y1745*
X4150Y1748*
X4147Y1751*
X4145Y1754*
X4145Y1757*
X4146Y1760*
X4148Y1763*
X4151Y1765*
X4154Y1766*
X4160Y1771D02*
X4168Y1771D01*
X4175Y1768*
X4179Y1764*
X4181Y1757*
X4181Y1754*
X4181Y1752*
X4179Y1750*
X4177Y1747*
X4171Y1743*
X4163Y1740*
X4154Y1739*
X4147Y1740*
X4143Y1742*
X4140Y1745*
X4138Y1747*
X4137Y1748*
X4137Y1751*
X4136Y1753*
X4138Y1761*
X4143Y1766*
X4150Y1770*
X4160Y1771*
Y1773D02*
X4150Y1771D01*
X4142Y1768*
X4137Y1761*
X4135Y1753*
X4135Y1750*
X4136Y1748*
X4137Y1746*
X4139Y1744*
X4142Y1741*
X4146Y1739*
X4154Y1737*
X4163Y1738*
X4172Y1741*
X4178Y1746*
X4181Y1749*
X4182Y1752*
X4182Y1754*
X4182Y1757*
X4180Y1764*
X4176Y1769*
X4169Y1772*
X4160Y1773*
X4160Y1963D02*
X4159Y1962D01*
X4159Y1962*
X4160Y1960*
X4161Y1958*
X4161Y1953*
X4160Y1947*
X4161Y1939*
X4162Y1933*
X4163Y1931*
X4163Y1931*
X4164Y1930*
X4165Y1931*
X4165Y1931*
X4166Y1934*
X4166Y1939*
X4166Y1946*
X4166Y1952*
X4165Y1957*
X4165Y1960*
X4163Y1962*
X4162Y1963*
X4160Y1963*
X4161Y1962D02*
X4161Y1962D01*
X4163Y1961*
X4163Y1960*
X4164Y1957*
X4164Y1952*
X4165Y1946*
X4165Y1939*
X4164Y1934*
X4164Y1932*
X4164Y1932*
X4164Y1932*
X4163Y1934*
X4162Y1939*
X4162Y1947*
X4162Y1953*
X4162Y1958*
X4161Y1961*
X4161Y1962*
X4161Y1770D02*
X4161Y1769D01*
X4165Y1767*
X4170Y1764*
X4173Y1759*
X4174Y1754*
X4173Y1748*
X4172Y1747*
X4172Y1746*
X4173Y1745*
X4173*
X4174Y1746*
X4176Y1748*
X4178Y1752*
X4179Y1756*
X4178Y1760*
X4176Y1763*
X4173Y1766*
X4169Y1768*
X4165Y1770*
X4162Y1770*
X4161Y1770*
X4166Y1768D02*
X4173Y1765D01*
X4177Y1760*
X4178Y1756*
X4177Y1752*
X4175Y1749*
X4174Y1747*
X4174Y1748*
X4175Y1754*
X4174Y1759*
X4171Y1764*
X4166Y1768*
X4167Y1724D02*
X4166Y1723D01*
X4170Y1722*
X4175Y1719*
X4178Y1716*
X4179Y1713*
X4178Y1708*
X4178Y1706*
X4178Y1706*
X4178Y1706*
X4178Y1705*
X4177Y1705*
X4175Y1704*
X4172Y1704*
X4168Y1705*
X4164Y1708*
X4161Y1711*
X4160Y1712*
X4159Y1713*
X4158Y1713*
X4158Y1713*
X4157Y1711*
X4158Y1708*
X4161Y1705*
X4162Y1703*
X4161Y1704*
X4158Y1706*
X4155Y1710*
X4155Y1714*
X4156Y1718*
X4159Y1721*
X4157Y1717*
X4158Y1716*
X4158Y1716*
X4159Y1716*
X4161Y1718*
X4163Y1721*
X4163Y1722*
Y1722*
X4165Y1722*
X4166Y1723*
X4167Y1724*
X4169Y1920D02*
X4169Y1920D01*
X4170Y1919*
X4172Y1917*
X4177Y1910*
X4183Y1901*
X4179Y1895*
X4177Y1891*
X4175Y1889*
X4176Y1885*
X4178Y1884*
X4176Y1885*
X4173Y1887*
X4177Y1892*
X4180Y1896*
X4181Y1898*
X4181Y1899*
X4181Y1900*
X4180Y1901*
X4179Y1903*
X4174Y1910*
X4170Y1915*
X4168Y1919*
X4168Y1920*
X4168Y1920*
X4169Y1920*
Y1921D02*
X4168Y1921D01*
X4167Y1920*
X4167Y1918*
X4169Y1914*
X4173Y1909*
X4178Y1902*
X4179Y1900*
X4180Y1899*
X4180Y1899*
X4179Y1899*
X4179Y1897*
X4176Y1893*
X4172Y1887*
X4172Y1886*
X4172Y1886*
X4175Y1884*
X4179Y1882*
X4182Y1882*
X4185Y1884*
X4189Y1887*
X4193Y1892*
X4198Y1890*
X4203Y1889*
X4205Y1888*
X4205Y1888*
X4206Y1888*
X4206Y1889*
X4206Y1889*
X4206Y1890*
X4205Y1890*
X4201Y1892*
X4195Y1894*
X4192Y1894*
X4189Y1892*
X4186Y1889*
X4184Y1886*
X4181Y1884*
X4179Y1885*
X4177Y1886*
X4176Y1887*
X4177Y1888*
X4178Y1891*
X4180Y1894*
X4185Y1901*
X4185Y1901*
X4185Y1901*
X4178Y1911*
X4173Y1918*
X4171Y1920*
X4170Y1921*
X4169Y1921*
X4170Y1724D02*
X4178Y1722D01*
X4183Y1719*
X4185Y1716*
X4184Y1712*
X4182Y1708*
X4180Y1706*
X4180Y1707*
X4182Y1710*
X4182Y1713*
X4181Y1717*
X4178Y1720*
X4174Y1723*
X4170Y1724*
X4169*
X4170Y1724*
X4170Y1725D02*
X4167Y1725D01*
X4165Y1724*
X4164Y1724*
X4162Y1724*
X4162Y1723*
X4162Y1722*
X4162Y1722*
X4161Y1721*
X4160Y1719*
X4159Y1718*
X4160Y1720*
X4161Y1721*
X4161Y1722*
X4161Y1722*
X4161Y1722*
X4160Y1723*
X4160Y1723*
X4159Y1722*
X4155Y1719*
X4154Y1714*
X4154Y1709*
X4157Y1705*
X4160Y1703*
X4163Y1702*
X4164Y1703*
X4164Y1704*
X4162Y1706*
X4160Y1709*
X4159Y1711*
X4160Y1710*
X4163Y1707*
X4167Y1704*
X4172Y1703*
X4174Y1703*
X4176Y1703*
X4177Y1704*
X4178Y1704*
X4178Y1704*
X4179Y1704*
X4180Y1704*
X4183Y1707*
X4186Y1711*
X4186Y1716*
X4184Y1720*
X4179Y1724*
X4170Y1725*
X4171Y1723D02*
X4174Y1722D01*
X4177Y1719*
X4180Y1716*
X4181Y1713*
X4181Y1711*
X4180Y1709*
X4180Y1713*
X4179Y1717*
X4176Y1720*
X4171Y1723*
X4171Y1793D02*
X4172Y1792D01*
X4173Y1791*
X4174Y1788*
X4174Y1784*
X4174Y1782*
X4174Y1781*
X4173Y1781*
X4171Y1781*
X4169Y1781*
X4167Y1782*
X4166Y1784*
X4165Y1786*
X4166Y1791*
X4167Y1792*
X4167Y1791*
X4167Y1789*
Y1785*
X4169Y1782*
X4171Y1781*
X4173Y1782*
X4174Y1785*
X4172Y1788*
X4171Y1791*
X4171Y1792*
X4171Y1792*
X4171Y1793*
X4171Y1794D02*
X4170Y1793D01*
X4170Y1792*
X4170Y1791*
X4171Y1788*
X4172Y1784*
X4172Y1783*
X4172Y1782*
X4170Y1783*
X4168Y1785*
X4168Y1789*
X4169Y1792*
X4168Y1793*
X4167Y1794*
X4166Y1793*
X4165Y1791*
X4164Y1786*
X4165Y1783*
X4166Y1781*
X4168Y1780*
X4171Y1779*
X4174Y1780*
X4175Y1780*
X4176Y1782*
X4176Y1784*
X4175Y1788*
X4174Y1791*
X4172Y1793*
X4171Y1794*
X4174Y1727D02*
X4178Y1726D01*
X4181Y1725*
X4184Y1722*
X4186Y1720*
X4187Y1717*
X4188Y1714*
X4187Y1709*
X4185Y1706*
X4181Y1703*
X4176Y1701*
X4171Y1700*
X4167Y1699*
X4164Y1700*
X4160Y1701*
X4155Y1703*
X4152Y1707*
X4151Y1712*
X4152Y1718*
X4154Y1720*
X4157Y1723*
X4161Y1725*
X4165Y1726*
X4174Y1727*
X4174Y1728D02*
X4165Y1727D01*
X4161Y1726*
X4157Y1724*
X4153Y1721*
X4151Y1718*
X4150Y1712*
X4151Y1707*
X4155Y1702*
X4160Y1699*
X4164Y1698*
X4167Y1698*
X4171Y1699*
X4176Y1700*
X4182Y1702*
X4186Y1705*
X4188Y1709*
X4189Y1714*
X4189Y1718*
X4187Y1721*
X4185Y1723*
X4182Y1726*
X4179Y1727*
X4174Y1728*
X4179Y2006D02*
X4179Y2006D01*
X4180Y2005*
X4183Y2002*
X4185Y1998*
X4186Y1997*
X4186Y1996*
X4186Y1996*
X4186Y1995*
X4185Y1994*
X4181Y1990*
X4177Y1984*
X4172Y1978*
X4170Y1974*
X4168Y1972*
X4164Y1972*
X4159Y1973*
X4158Y1973*
X4159Y1973*
X4160Y1973*
X4165Y1973*
X4167Y1973*
X4169Y1974*
X4170Y1976*
X4171Y1978*
X4173Y1980*
X4178Y1985*
X4181Y1990*
X4183Y1994*
X4183Y1997*
X4181Y2001*
X4179Y2005*
X4179Y2006*
X4179Y2006*
Y2008D02*
X4177Y2007D01*
X4177Y2005*
X4180Y2000*
X4182Y1997*
X4182Y1994*
X4180Y1991*
X4177Y1986*
X4172Y1981*
X4170Y1978*
X4169Y1976*
X4168Y1975*
X4167Y1974*
X4165Y1974*
X4161Y1974*
X4156Y1975*
X4154Y1975*
X4152Y1973*
X4151Y1971*
X4150Y1966*
X4151Y1964*
X4153Y1963*
X4154Y1964*
X4154Y1965*
X4154Y1967*
X4154Y1970*
X4155Y1971*
X4155Y1972*
X4156Y1972*
X4158Y1972*
X4164Y1971*
X4168Y1971*
X4171Y1973*
X4173Y1977*
X4175Y1980*
X4178Y1983*
X4180Y1986*
X4182Y1989*
X4186Y1993*
X4187Y1995*
X4187Y1995*
X4188Y1996*
X4187Y1997*
X4186Y1999*
X4184Y2003*
X4181Y2006*
X4180Y2007*
X4179Y2008*
X4188Y2012D02*
X4190Y2011D01*
X4192Y2008*
X4195Y2004*
X4195Y2002*
X4195Y2001*
X4195*
X4195Y2001*
X4193Y2003*
X4191Y2006*
X4189Y2010*
X4187Y2012*
X4188Y2012*
Y2013D02*
X4186Y2013D01*
X4185Y2011*
X4186Y2011*
X4187Y2010*
X4188Y2009*
X4190Y2005*
X4194Y2000*
X4195Y2000*
X4196Y2000*
X4197Y2002*
X4196Y2005*
X4193Y2009*
X4190Y2012*
X4188Y2013*
X4188Y1697D02*
X4191Y1694D01*
X4192Y1690*
X4193Y1683*
X4192Y1674*
X4191Y1663*
X4188Y1649*
X4183Y1634*
X4177Y1619*
X4170Y1603*
X4163Y1589*
X4155Y1575*
X4146Y1563*
X4138Y1553*
X4133Y1548*
X4129Y1545*
X4129Y1545*
X4129Y1545*
X4130Y1546*
X4131Y1548*
X4133Y1551*
X4136Y1555*
X4143Y1565*
X4151Y1576*
X4158Y1588*
X4165Y1600*
X4171Y1614*
X4177Y1628*
X4182Y1643*
X4186Y1656*
X4188Y1668*
X4189Y1679*
X4189Y1686*
X4187Y1690*
X4183Y1691*
X4178Y1690*
X4171Y1690*
X4165Y1690*
X4159Y1690*
X4157Y1689*
X4156Y1687*
X4155Y1685*
X4154Y1681*
X4154Y1676*
X4155Y1669*
X4154Y1639*
X4149Y1611*
X4146Y1598*
X4142Y1584*
X4140Y1577*
X4138Y1571*
X4136Y1566*
X4135Y1563*
X4132Y1558*
X4129Y1553*
X4127Y1550*
X4127Y1550*
X4128Y1554*
X4130Y1561*
X4133Y1568*
X4142Y1594*
X4147Y1617*
X4150Y1640*
X4151Y1666*
X4151Y1676*
X4151Y1684*
X4152Y1690*
X4152Y1692*
X4152Y1693*
X4153Y1694*
X4154Y1694*
X4157Y1694*
X4162Y1694*
X4171Y1693*
X4180Y1695*
X4188Y1697*
X4189Y1699D02*
X4188Y1699D01*
X4180Y1696*
X4171Y1695*
X4162Y1695*
X4157Y1695*
X4154Y1695*
X4151Y1694*
X4151Y1692*
X4150Y1691*
X4150Y1685*
X4150Y1676*
X4150Y1666*
X4149Y1640*
X4146Y1617*
X4140Y1594*
X4132Y1569*
X4129Y1561*
X4127Y1555*
X4125Y1550*
X4125Y1549*
X4125Y1549*
X4125Y1548*
X4125Y1548*
X4126Y1548*
X4126Y1548*
X4127Y1549*
X4130Y1552*
X4133Y1557*
X4136Y1563*
X4138Y1566*
X4139Y1571*
X4141Y1577*
X4143Y1583*
X4147Y1597*
X4151Y1611*
X4155Y1639*
X4156Y1669*
X4156Y1676*
X4156Y1681*
X4156Y1684*
X4157Y1687*
X4158Y1688*
X4159Y1689*
X4165Y1688*
X4171Y1688*
X4178Y1689*
X4183Y1690*
X4186Y1689*
X4188Y1685*
X4188Y1679*
X4187Y1669*
X4185Y1656*
X4181Y1643*
X4176Y1629*
X4170Y1615*
X4164Y1601*
X4157Y1588*
X4149Y1577*
X4141Y1565*
X4135Y1556*
X4132Y1552*
X4130Y1549*
X4129Y1547*
X4128Y1546*
X4127Y1544*
X4127Y1544*
X4128Y1543*
X4128Y1543*
X4129Y1543*
X4130Y1544*
X4134Y1547*
X4139Y1552*
X4147Y1562*
X4156Y1574*
X4164Y1588*
X4172Y1603*
X4179Y1618*
X4184Y1633*
X4189Y1648*
X4192Y1662*
X4194Y1674*
X4194Y1683*
X4193Y1691*
X4192Y1695*
X4189Y1698*
X4189Y1699*
X4190Y2015D02*
X4192Y2015D01*
X4193Y2013*
X4196Y2009*
X4199Y2004*
X4200Y2002*
X4201Y2001*
X4202Y2001*
X4203Y2002*
X4203Y2003*
X4203Y2004*
X4204Y2004*
X4204Y2004*
X4204Y2003*
X4205Y2003*
X4206Y2003*
X4208Y2003*
X4208Y2003*
X4208Y2002*
X4202Y2000*
X4197Y1999*
X4194Y1999*
X4191Y2000*
X4189Y2004*
X4187Y2007*
X4186Y2008*
X4185Y2009*
X4184Y2008*
X4184Y2008*
X4184Y2007*
X4185Y2005*
X4187Y2001*
X4190Y1995*
X4184Y1988*
X4181Y1985*
X4178Y1981*
X4176Y1978*
X4174Y1975*
X4171Y1971*
X4169Y1969*
X4165Y1969*
X4159Y1970*
X4157Y1970*
X4156Y1970*
X4156Y1969*
X4158Y1966*
X4162Y1964*
X4167Y1963*
Y1929*
X4162Y1928*
X4159Y1928*
X4157Y1927*
X4156Y1925*
X4156Y1923*
X4156Y1922*
X4157Y1920*
X4159Y1920*
X4161Y1920*
X4167Y1922*
X4171Y1922*
X4174Y1920*
X4177Y1915*
X4181Y1910*
X4183Y1906*
X4185Y1904*
X4186Y1902*
X4185Y1899*
X4183Y1895*
X4180Y1890*
X4179Y1888*
X4180Y1887*
X4181Y1886*
X4182Y1887*
X4185Y1890*
X4188Y1893*
X4189Y1895*
X4191Y1896*
X4194Y1896*
X4197Y1896*
X4199Y1895*
X4203Y1893*
X4209Y1891*
X4217Y1890*
X4225Y1890*
X4235*
X4236Y1884*
X4237Y1879*
X4237Y1877*
X4238Y1876*
X4239Y1876*
X4240Y1877*
X4240Y1879*
X4238Y1886*
X4238Y1890*
X4239Y1892*
X4242Y1894*
X4254Y1903*
X4263Y1913*
X4266Y1917*
X4270Y1920*
X4273Y1921*
X4276Y1920*
X4279Y1919*
X4281Y1920*
X4281Y1921*
X4281Y1922*
X4277Y1925*
X4272Y1927*
X4272Y1941*
X4273Y1952*
X4273Y1955*
X4273Y1956*
X4273Y1957*
X4275Y1958*
X4277Y1958*
X4279Y1957*
X4280Y1954*
X4281Y1948*
X4280Y1940*
X4279Y1931*
X4279Y1930*
X4280Y1930*
X4284Y1928*
X4288Y1927*
X4289Y1925*
X4289Y1922*
X4287Y1918*
X4285Y1914*
X4282Y1912*
X4279Y1911*
X4276Y1912*
X4273Y1913*
X4271*
X4270Y1911*
X4267Y1908*
X4265Y1905*
X4262Y1903*
X4259Y1900*
X4255Y1897*
X4251Y1895*
X4248Y1892*
X4246Y1891*
X4246Y1889*
X4247Y1886*
X4248Y1881*
X4248Y1878*
X4248Y1877*
X4247Y1876*
X4245Y1876*
X4241Y1875*
X4237Y1874*
X4233Y1873*
X4231Y1873*
X4229Y1873*
X4229Y1874*
X4229Y1875*
X4228Y1879*
X4228Y1883*
X4227Y1886*
X4225Y1888*
X4222Y1888*
X4220Y1888*
X4220Y1888*
X4219Y1888*
X4219Y1887*
X4219Y1887*
X4220Y1887*
X4220Y1886*
X4221Y1886*
X4221*
X4218Y1886*
X4214Y1886*
X4205Y1887*
X4201Y1888*
X4199Y1889*
X4194Y1891*
X4193Y1891*
X4193Y1890*
X4190Y1885*
X4187Y1881*
X4183Y1880*
X4180Y1880*
X4175Y1881*
X4171Y1884*
X4170Y1885*
X4169Y1885*
X4170Y1886*
X4171Y1888*
X4174Y1893*
X4179Y1899*
X4179Y1900*
X4179Y1900*
X4175Y1904*
X4172Y1908*
X4168Y1913*
X4164Y1918*
X4163Y1919*
X4161Y1920*
X4160Y1920*
X4159Y1920*
X4159Y1919*
X4159Y1918*
X4159Y1918*
X4160Y1917*
X4160Y1917*
X4156Y1916*
X4151Y1915*
X4150*
X4149Y1915*
X4149Y1916*
X4149Y1917*
X4148Y1922*
X4147Y1925*
X4148Y1927*
X4151Y1928*
X4157Y1930*
X4157Y1930*
X4157Y1929*
X4156Y1929*
X4156Y1928*
X4156Y1928*
X4157Y1928*
X4157Y1928*
X4158Y1928*
X4160Y1929*
X4160Y1931*
X4160Y1933*
X4160Y1936*
X4159Y1946*
X4159Y1959*
Y1959*
X4159Y1960*
X4153Y1961*
X4148Y1963*
X4147Y1964*
X4147Y1964*
X4147Y1967*
X4149Y1971*
X4150Y1975*
X4151Y1976*
X4151Y1977*
X4153Y1977*
X4156Y1977*
X4162Y1976*
X4164Y1975*
X4166Y1975*
X4167Y1976*
X4168Y1979*
X4171Y1983*
X4176Y1988*
X4179Y1992*
X4181Y1993*
X4181Y1994*
X4181Y1994*
X4181Y1995*
X4180Y1997*
X4178Y2000*
X4175Y2004*
X4175Y2006*
X4177Y2009*
X4180Y2011*
X4184Y2014*
X4188Y2015*
X4190Y2015*
X4190Y2017D02*
X4188Y2016D01*
X4184Y2015*
X4179Y2013*
X4176Y2010*
X4174Y2007*
X4174Y2003*
X4176Y1999*
X4179Y1996*
X4180Y1995*
X4180Y1994*
X4180*
X4179Y1994*
X4178Y1993*
X4175Y1989*
X4170Y1984*
X4167Y1979*
X4166Y1977*
X4165Y1976*
X4164Y1976*
X4162Y1977*
X4156Y1979*
X4153Y1979*
X4150Y1978*
X4150Y1977*
X4149Y1976*
X4147Y1972*
X4146Y1968*
X4146Y1964*
X4146Y1963*
X4148Y1962*
X4152Y1960*
X4158Y1958*
X4158Y1946*
X4158Y1936*
X4159Y1933*
X4159Y1931*
X4158Y1931*
X4156Y1931*
X4151Y1930*
X4147Y1928*
X4146Y1925*
X4146Y1921*
X4147Y1917*
X4148Y1915*
X4148Y1914*
X4150Y1914*
X4151*
X4156Y1915*
X4161Y1916*
X4162Y1917*
X4161Y1918*
X4161Y1918*
X4162Y1918*
X4163Y1917*
X4167Y1913*
X4171Y1907*
X4174Y1903*
X4177Y1900*
X4173Y1894*
X4169Y1889*
X4168Y1887*
X4168Y1885*
X4169Y1884*
X4170Y1883*
X4174Y1880*
X4179Y1878*
X4184Y1878*
X4187Y1880*
X4191Y1885*
X4194Y1889*
X4198Y1887*
X4205Y1886*
X4214Y1885*
X4218Y1885*
X4221*
X4222Y1885*
X4223Y1885*
X4223Y1886*
X4223Y1886*
X4222Y1887*
X4222Y1887*
X4224Y1887*
X4226Y1885*
X4227Y1883*
X4227Y1879*
X4227Y1875*
X4228Y1873*
X4227*
X4228Y1872*
X4231Y1871*
X4233Y1872*
X4237Y1872*
X4241Y1874*
X4245Y1874*
X4248Y1875*
X4249Y1876*
X4249Y1878*
X4249Y1882*
X4248Y1886*
X4247Y1889*
X4248Y1890*
X4249Y1891*
X4252Y1893*
X4256Y1896*
X4263Y1902*
X4268Y1907*
X4271Y1910*
X4272Y1912*
X4273Y1912*
X4275Y1910*
X4279Y1910*
X4283Y1911*
X4286Y1913*
X4289Y1918*
X4290Y1922*
X4291Y1925*
X4289Y1928*
X4285Y1929*
X4281Y1931*
X4282Y1940*
X4282Y1948*
X4282Y1954*
X4280Y1958*
X4277Y1959*
X4274Y1959*
X4272Y1958*
X4272Y1957*
X4272Y1956*
X4272Y1952*
X4271Y1941*
X4270Y1927*
Y1927*
X4271Y1926*
X4276Y1924*
X4280Y1921*
X4280Y1921*
X4280Y1921*
X4279Y1920*
X4277Y1921*
X4273Y1922*
X4269Y1921*
X4266Y1918*
X4262Y1914*
X4253Y1903*
X4241Y1895*
X4238Y1893*
X4237Y1890*
X4237Y1886*
X4238Y1879*
X4239Y1877*
X4238Y1877*
X4238Y1879*
X4237Y1884*
X4236Y1890*
X4236Y1891*
X4225*
X4217Y1891*
X4210Y1893*
X4204Y1894*
X4200Y1896*
X4198Y1897*
X4194Y1897*
X4191Y1897*
X4189Y1896*
X4186Y1894*
X4184Y1891*
X4181Y1888*
X4181Y1888*
X4181Y1888*
X4181Y1888*
X4181Y1890*
X4184Y1894*
X4187Y1898*
X4187Y1902*
X4186Y1904*
X4184Y1907*
X4182Y1911*
X4179Y1916*
X4175Y1921*
X4171Y1923*
X4169Y1923*
X4167Y1923*
X4164Y1923*
X4160Y1922*
X4158Y1921*
X4158Y1921*
X4158Y1922*
X4157Y1923*
X4158Y1925*
X4158Y1926*
X4163Y1927*
X4168Y1928*
X4169Y1928*
Y1964*
X4168Y1964*
X4163Y1965*
X4159Y1967*
X4157Y1969*
X4157Y1969*
X4158Y1969*
X4159Y1969*
X4164Y1967*
X4169Y1967*
X4172Y1970*
X4175Y1974*
X4177Y1977*
X4179Y1980*
X4182Y1984*
X4185Y1987*
X4192Y1995*
X4192Y1995*
X4192Y1996*
X4188Y2002*
X4186Y2006*
X4188Y2003*
X4190Y1999*
X4193Y1998*
X4197Y1998*
X4202Y1999*
X4209Y2001*
X4216Y2002*
X4222Y2002*
X4230Y2000*
X4238Y1998*
X4243Y1998*
X4247Y2000*
X4249Y2003*
X4251Y2004*
X4252Y2005*
X4252Y2005*
X4252Y2005*
X4252Y2003*
X4251Y2001*
X4249Y1997*
X4248Y1995*
X4248Y1994*
X4249Y1993*
X4250Y1991*
X4254Y1987*
X4256Y1985*
X4259Y1981*
X4262Y1978*
X4264Y1974*
X4268Y1967*
X4270Y1965*
X4271Y1965*
X4272Y1964*
X4275Y1965*
X4279Y1966*
X4282Y1968*
X4284Y1968*
X4285Y1967*
X4285Y1964*
X4286Y1960*
X4288Y1958*
X4291Y1958*
X4294Y1960*
X4296Y1963*
X4296Y1965*
X4295Y1969*
X4294Y1973*
X4292Y1976*
X4288*
X4282Y1974*
X4279Y1973*
X4278Y1972*
X4277*
X4277Y1973*
X4276Y1974*
X4274Y1979*
X4272Y1982*
X4269Y1985*
X4267Y1989*
X4264Y1991*
X4259Y1997*
X4261Y2000*
X4263Y2005*
X4263Y2008*
X4262Y2010*
X4258Y2013*
X4253Y2015*
X4249Y2015*
X4245Y2013*
X4242Y2009*
X4241Y2007*
X4240Y2006*
X4239Y2006*
X4237Y2006*
X4232Y2007*
X4227Y2008*
X4221Y2008*
X4215Y2007*
X4209Y2007*
X4205Y2006*
X4202Y2005*
X4201Y2004*
X4202Y2003*
X4202Y2002*
X4202Y2002*
X4202Y2002*
X4202Y2002*
X4201Y2003*
X4200Y2004*
X4197Y2009*
X4194Y2014*
X4192Y2016*
X4190Y2017*
X4192Y1893D02*
X4188Y1888D01*
X4186Y1887*
X4187Y1888*
X4190Y1891*
X4192Y1893*
X4192Y1971D02*
X4188Y1961D01*
X4187Y1950*
X4187Y1939*
X4190Y1928*
X4194Y1921*
X4198Y1915*
X4203Y1911*
X4207Y1909*
X4201Y1911*
X4196Y1914*
X4193Y1918*
X4187Y1932*
X4185Y1947*
X4187Y1960*
X4192Y1971*
X4198Y1981D02*
X4198Y1980D01*
X4194Y1975*
X4187Y1963*
X4184Y1947*
X4185Y1931*
X4192Y1918*
X4196Y1913*
X4200Y1910*
X4205Y1908*
X4210Y1907*
X4211Y1907*
X4211Y1907*
X4211Y1908*
X4211Y1908*
X4210Y1909*
X4208Y1909*
X4204Y1912*
X4199Y1916*
X4195Y1922*
X4191Y1928*
X4189Y1940*
X4188Y1952*
X4191Y1964*
X4195Y1974*
X4199Y1980*
X4199Y1980*
X4199Y1980*
X4198Y1981*
X4207Y2005D02*
Y2005D01*
X4207Y2005*
X4207Y2005*
X4213Y1982D02*
X4218Y1980D01*
X4223Y1978*
X4228Y1973*
X4232Y1966*
X4234Y1962*
X4235Y1958*
X4235Y1953*
X4236Y1945*
X4235Y1935*
X4233Y1927*
X4230Y1920*
X4226Y1915*
X4222Y1912*
X4218Y1911*
X4214Y1911*
X4208Y1913*
X4203Y1917*
X4198Y1922*
X4195Y1929*
X4192Y1937*
X4191Y1942*
X4191Y1947*
X4191Y1950*
X4191Y1955*
X4194Y1963*
X4197Y1970*
X4200Y1975*
X4204Y1979*
X4208Y1981*
X4213Y1982*
X4213Y1983D02*
X4208Y1982D01*
X4203Y1980*
X4199Y1976*
X4195Y1970*
X4192Y1963*
X4190Y1955*
X4189Y1950*
X4189Y1947*
X4190Y1942*
X4191Y1937*
X4193Y1928*
X4197Y1922*
X4202Y1916*
X4208Y1912*
X4213Y1910*
X4218Y1909*
X4222Y1911*
X4227Y1914*
X4232Y1920*
X4235Y1926*
X4236Y1934*
X4237Y1945*
X4237Y1953*
X4236Y1958*
X4235Y1962*
X4233Y1967*
X4229Y1974*
X4224Y1979*
X4219Y1982*
X4213Y1983*
X4219Y1986D02*
X4226Y1985D01*
X4232Y1982*
X4239Y1974*
X4243Y1964*
X4246Y1952*
X4245Y1939*
X4244Y1933*
X4242Y1927*
X4240Y1922*
X4237Y1918*
X4229Y1911*
X4220Y1907*
X4210Y1906*
X4200Y1908*
X4193Y1914*
X4187Y1922*
X4184Y1933*
X4182Y1945*
X4185Y1961*
X4191Y1974*
X4199Y1982*
X4210Y1986*
Y1985*
X4209Y1985*
X4207Y1985*
X4207Y1984*
X4206Y1984*
X4207Y1983*
X4207Y1983*
X4208Y1983*
X4210Y1983*
X4210Y1983*
X4211Y1983*
Y1984*
X4211Y1984*
X4211Y1984*
Y1984*
X4211*
X4211Y1985*
X4210Y1986*
X4214Y1986*
X4219Y1986*
X4219Y1988D02*
X4214Y1988D01*
X4206Y1986*
X4200Y1984*
X4194Y1980*
X4190Y1975*
X4183Y1962*
X4181Y1945*
X4182Y1932*
X4186Y1922*
X4192Y1913*
X4200Y1907*
X4209Y1904*
X4220Y1905*
X4230Y1909*
X4238Y1917*
X4241Y1921*
X4244Y1926*
X4245Y1932*
X4246Y1939*
X4247Y1952*
X4245Y1964*
X4240Y1975*
X4233Y1983*
X4227Y1986*
X4219Y1988*
X4221Y1985D02*
X4220Y1985D01*
X4219Y1984*
X4220Y1983*
X4221Y1983*
X4222Y1982*
X4224Y1981*
X4228Y1978*
X4232Y1973*
X4235Y1968*
X4239Y1955*
X4239Y1940*
X4238Y1933*
X4236Y1926*
X4234Y1920*
X4231Y1916*
X4230Y1915*
X4230Y1914*
X4230Y1914*
X4230Y1914*
X4230Y1914*
X4230Y1914*
X4230Y1913*
X4231Y1914*
X4231Y1914*
X4234Y1917*
X4239Y1923*
X4242Y1930*
X4244Y1942*
X4244Y1954*
X4241Y1965*
X4237Y1975*
X4233Y1979*
X4228Y1982*
X4223Y1985*
X4221Y1985*
X4223Y1983D02*
X4227Y1981D01*
X4232Y1978*
X4236Y1974*
X4240Y1965*
X4243Y1954*
X4243Y1942*
X4241Y1931*
X4238Y1925*
X4235Y1921*
X4239Y1930*
X4241Y1940*
X4240Y1955*
X4236Y1969*
X4233Y1974*
X4229Y1979*
X4224Y1982*
X4223Y1983*
X4231Y1887D02*
X4233Y1885D01*
X4234Y1880*
X4233Y1877*
X4233Y1877*
X4233*
X4233Y1877*
X4232Y1878*
X4231Y1883*
X4230Y1886*
X4230Y1887*
X4231Y1887*
Y1888D02*
X4229Y1888D01*
X4229Y1886*
X4229Y1883*
X4231Y1878*
X4232Y1876*
X4232Y1875*
X4233Y1875*
X4234Y1877*
X4235Y1880*
X4234Y1886*
X4233Y1888*
X4231Y1888*
X4232Y2005D02*
Y2005D01*
X4231Y2005*
X4230Y2005*
X4229Y2004*
X4229Y2004*
X4229Y2003*
X4230Y2003*
X4231Y2003*
X4233Y2003*
X4233Y2003*
X4233Y2002*
Y2003*
X4233Y2003*
X4233Y2004*
Y2004*
X4233*
X4233Y2004*
X4232Y2005*
X4244Y1892D02*
X4243Y1889D01*
X4244Y1884*
X4244Y1880*
X4244Y1879*
X4244Y1879*
X4244Y1879*
X4243Y1880*
X4242Y1884*
X4240Y1888*
X4240Y1889*
X4240Y1889*
X4241Y1889*
X4241Y1890*
X4244Y1892*
X4244Y1892*
X4245Y1894D02*
X4245Y1894D01*
X4244Y1894*
X4243Y1893*
X4241Y1891*
X4240Y1890*
X4239Y1890*
X4239Y1889*
X4239Y1889*
X4239Y1887*
X4240Y1883*
X4242Y1880*
X4243Y1878*
X4244Y1878*
X4245Y1878*
X4246Y1880*
X4245Y1885*
X4245Y1890*
X4246Y1892*
X4246Y1893*
X4246Y1894*
X4246Y1894*
X4245Y1894*
X4248Y2009D02*
X4247Y2007D01*
X4246Y2005*
X4244Y2003*
X4242Y2002*
X4241Y2002*
X4242Y2002*
X4244Y2004*
X4246Y2006*
X4248Y2009*
X4249Y2013D02*
X4253Y2013D01*
X4257Y2012*
X4261Y2009*
X4262Y2007*
X4262Y2005*
X4260Y2001*
X4257Y1997*
X4257Y1996*
X4257Y1996*
X4263Y1990*
X4266Y1988*
X4268Y1985*
X4271Y1981*
X4272Y1978*
X4275Y1974*
X4276Y1972*
X4277Y1971*
X4277Y1971*
X4278Y1971*
X4279Y1971*
X4283Y1973*
X4288Y1975*
X4291Y1975*
X4293Y1973*
X4294Y1969*
X4295Y1965*
X4295Y1963*
X4294Y1962*
X4293Y1961*
X4291Y1959*
X4289Y1959*
X4287Y1961*
X4287Y1964*
X4286Y1967*
X4284Y1969*
X4282Y1969*
X4278Y1968*
X4274Y1966*
X4272Y1966*
X4272Y1966*
X4271Y1966*
X4269Y1968*
X4265Y1974*
X4263Y1978*
X4260Y1982*
X4257Y1986*
X4254Y1988*
X4251Y1992*
X4250Y1993*
X4249Y1994*
X4249Y1995*
X4250Y1996*
X4252Y2000*
X4253Y2003*
X4254Y2005*
X4253Y2006*
X4252Y2006*
X4250Y2005*
X4248Y2003*
X4246Y2001*
X4243Y1999*
X4238Y2000*
X4231Y2001*
X4224Y2003*
X4219Y2003*
X4213Y2003*
X4208Y2002*
Y2003*
X4208Y2003*
X4208Y2004*
Y2004*
X4208*
X4208Y2004*
X4207Y2005*
X4212Y2006*
X4212Y2006*
X4212Y2005*
X4212Y2005*
X4213Y2004*
X4213Y2004*
X4217Y2004*
X4221Y2004*
X4222Y2004*
X4222Y2005*
X4222Y2005*
X4222Y2006*
X4221Y2006*
X4221Y2006*
X4215*
X4215Y2006*
X4221Y2006*
X4227Y2006*
X4232Y2006*
X4236Y2005*
X4239Y2005*
X4241Y2005*
X4242Y2006*
X4243Y2008*
X4246Y2012*
X4249Y2013*
X4250Y2011D02*
X4248Y2010D01*
X4245Y2007*
X4243Y2005*
X4241Y2003*
X4240Y2003*
X4238Y2003*
X4234Y2004*
X4234Y2003*
X4233Y2002*
X4233Y2002*
X4234*
X4238Y2001*
X4242Y2000*
X4245Y2002*
X4247Y2004*
X4249Y2007*
X4249Y2008*
X4250Y2009*
X4252Y2009*
X4254Y2007*
X4256Y2006*
X4256Y2005*
X4255Y2004*
X4254Y2000*
X4250Y1994*
X4250Y1994*
X4251Y1994*
X4256Y1988*
X4259Y1986*
X4262Y1982*
X4264Y1979*
X4266Y1975*
X4269Y1971*
X4271Y1968*
X4273Y1967*
X4275Y1968*
Y1970*
X4274Y1972*
X4270Y1978*
X4266Y1984*
X4261Y1990*
X4258Y1994*
X4256Y1997*
X4257Y1999*
X4259Y2003*
X4260Y2005*
X4260Y2006*
X4259Y2008*
X4257Y2009*
X4253Y2011*
X4250Y2011*
X4252Y1965D02*
X4252Y1965D01*
X4251Y1964*
X4251Y1959*
X4251Y1950*
X4251Y1937*
X4251Y1932*
X4250Y1929*
X4250Y1925*
X4250Y1924*
X4250Y1923*
X4250Y1923*
X4251Y1923*
X4251Y1923*
X4252Y1924*
X4254Y1928*
X4255Y1931*
X4255Y1935*
X4256Y1941*
X4256Y1946*
X4256Y1956*
X4255Y1960*
X4254Y1963*
X4254Y1964*
X4253Y1965*
X4252Y1965*
X4253Y2010D02*
X4256Y2008D01*
X4258Y2007*
X4259Y2006*
X4259Y2005*
X4258Y2004*
X4256Y2000*
X4255Y1996*
X4256Y1993*
X4260Y1989*
X4265Y1983*
X4269Y1977*
X4273Y1971*
X4273Y1970*
X4274Y1969*
X4273Y1968*
X4272Y1969*
X4270Y1971*
X4267Y1976*
X4265Y1979*
X4263Y1983*
X4260Y1987*
X4257Y1989*
X4252Y1994*
X4255Y2000*
X4256Y2003*
X4257Y2005*
X4257Y2007*
X4255Y2008*
X4253Y2010*
X4253Y1963D02*
X4253Y1963D01*
X4254Y1960*
X4254Y1956*
X4255Y1946*
X4255Y1941*
X4254Y1935*
X4253Y1931*
X4253Y1928*
X4251Y1925*
X4251Y1925*
Y1925*
X4251Y1929*
X4252Y1932*
X4252Y1937*
X4252Y1950*
X4252Y1959*
X4253Y1963*
X4257Y1972D02*
X4256Y1972D01*
X4256Y1971*
X4256Y1971*
X4256Y1969*
X4259Y1964*
X4261Y1961*
X4262Y1957*
X4262Y1953*
X4262Y1947*
X4262Y1940*
X4261Y1934*
X4259Y1928*
X4256Y1923*
X4254Y1920*
X4254Y1918*
X4254Y1918*
X4255Y1917*
X4256Y1917*
X4257Y1918*
X4260Y1921*
X4263Y1926*
X4265Y1932*
X4266Y1941*
X4266Y1953*
X4266Y1958*
X4266Y1962*
X4264Y1965*
X4262Y1967*
X4259Y1971*
X4257Y1972*
X4257Y1972*
X4257Y1970D02*
X4258Y1970D01*
X4261Y1967*
X4263Y1964*
X4264Y1961*
X4265Y1958*
X4265Y1953*
X4265Y1941*
X4263Y1932*
X4262Y1926*
X4259Y1922*
X4256Y1919*
X4256Y1919*
X4256Y1919*
X4257Y1922*
X4261Y1928*
X4262Y1933*
X4263Y1940*
X4264Y1947*
X4264Y1953*
X4263Y1957*
X4262Y1961*
X4260Y1965*
X4258Y1970*
X4257Y1970*
X4277Y1955D02*
X4277Y1954D01*
X4277Y1952*
X4277Y1948*
X4277Y1942*
X4277Y1928*
Y1928*
X4275Y1929*
X4274Y1930*
X4274Y1931*
X4274Y1933*
X4275Y1936*
X4275Y1944*
X4275Y1949*
X4276Y1952*
X4276Y1954*
X4277Y1955*
Y1956D02*
X4275Y1955D01*
X4274Y1953*
X4274Y1949*
X4274Y1944*
X4273Y1936*
X4273Y1933*
X4273Y1931*
X4273Y1930*
X4274Y1929*
X4278Y1926*
X4281Y1924*
X4283Y1922*
X4283Y1921*
X4281Y1918*
X4280Y1917*
X4279Y1916*
X4278Y1916*
X4276Y1917*
X4274Y1919*
X4271Y1920*
X4271Y1919*
X4270Y1919*
X4268Y1917*
X4263Y1911*
X4257Y1902*
X4257Y1902*
X4258Y1901*
X4258Y1901*
X4258Y1901*
X4265Y1909*
X4269Y1913*
X4271Y1915*
X4273Y1915*
X4273Y1915*
X4276Y1913*
X4279Y1913*
X4282Y1915*
X4285Y1918*
X4287Y1921*
X4287Y1922*
X4287Y1923*
X4287Y1923*
X4287Y1924*
X4287Y1924*
X4286Y1925*
X4282Y1927*
X4278Y1929*
X4278Y1942*
X4279Y1948*
X4278Y1952*
X4278Y1955*
X4277Y1956*
X4277Y1956*
X4278Y1927D02*
X4282Y1926D01*
X4285Y1924*
X4286Y1923*
X4286Y1923*
X4286Y1923*
X4285Y1922*
X4284Y1918*
X4281Y1916*
X4279Y1915*
X4276Y1915*
X4274Y1916*
X4273Y1917*
X4271Y1916*
X4268Y1914*
X4264Y1910*
X4264Y1909*
X4264Y1910*
X4269Y1916*
X4271Y1918*
X4271Y1918*
X4271Y1918*
X4273Y1918*
X4276Y1916*
X4278Y1915*
X4279Y1915*
X4281Y1916*
X4282Y1917*
X4284Y1920*
X4284Y1923*
X4282Y1925*
X4278Y1927*
X4278Y1927*
X4288Y1973D02*
X4287Y1972D01*
X4287Y1970*
X4287Y1967*
X4288Y1964*
X4289Y1962*
X4290Y1962*
X4292Y1962*
X4293Y1964*
Y1964*
X4292*
X4291Y1970*
X4290Y1972*
X4289Y1973*
X4288Y1973*
X4289Y1971D02*
X4289Y1971D01*
X4289Y1971*
X4290Y1969*
X4291Y1964*
X4291Y1963*
X4291Y1963*
X4289Y1964*
X4288Y1968*
X4288Y1970*
X4288Y1971*
X4289Y1971*
X5491Y799D02*
Y787D01*
X5480Y798*
X5477Y799*
X5474Y798*
X5473Y795*
Y790*
X5474Y787*
X5490Y2665D02*
X5491Y2668D01*
Y2673*
X5490Y2676*
X5487Y2677*
X5485*
X5482Y2676*
X5480Y2673*
Y2665*
X5473*
Y2677*
X5490Y2691D02*
X5491Y2694D01*
Y2698*
X5490Y2701*
X5487Y2702*
X5477*
X5474Y2701*
X5473Y2698*
Y2694*
X5474Y2691*
X5477Y2690*
X5487*
X5490Y2691*
X5474Y2701*
X5783Y794D02*
Y800D01*
Y797D02*
X5764D01*
X5767Y794*
X5783Y2673D02*
X5764D01*
X5776Y2665*
Y2677*
X5783Y2694D02*
X5781Y2698D01*
X5778Y2701*
X5773Y2702*
X5769*
X5765Y2701*
X5764Y2698*
Y2694*
X5765Y2691*
X5769Y2690*
X5772Y2691*
X5773Y2694*
Y2698*
X5772Y2701*
X5769Y2702*
D02*
D11*
X109Y3465D02*
Y3477D01*
X111Y3483*
X114Y3486*
X120Y3489*
X126*
X132Y3486*
X135Y3483*
X138Y3477*
Y3465*
X135Y3459*
X132Y3456*
X126Y3453*
X120*
X114Y3456*
X111Y3459*
X109Y3465*
X156Y3477D02*
Y3444D01*
Y3462D02*
X159Y3456D01*
X165Y3453*
X171*
X176Y3456*
X179Y3462*
Y3468*
X176Y3474*
X171Y3477*
X165*
X159Y3474*
X156Y3468*
Y3462*
X227Y3456D02*
X224Y3453D01*
X218*
X212*
X206Y3456*
X203Y3462*
Y3471*
X206Y3474*
X212Y3477*
X218*
X224Y3474*
X227Y3471*
Y3468*
X224Y3465*
X218Y3462*
X212*
X206Y3465*
X203Y3468*
X250Y3453D02*
Y3477D01*
Y3468D02*
X253Y3474D01*
X259Y3477*
X265*
X271Y3474*
X274Y3468*
Y3453*
X303Y3477D02*
X315D01*
X309Y3483D02*
Y3456D01*
X312Y3453*
X315*
X318Y3456*
X368D02*
X365Y3453D01*
X360*
X354*
X348Y3456*
X345Y3462*
Y3471*
X348Y3474*
X354Y3477*
X360*
X365Y3474*
X368Y3471*
Y3468*
X365Y3465*
X360Y3462*
X354*
X348Y3465*
X345Y3468*
X392Y3453D02*
Y3489D01*
Y3465D02*
X401D01*
X416Y3477*
X401Y3465D02*
X416Y3453D01*
X439D02*
Y3489D01*
Y3468D02*
X442Y3474D01*
X448Y3477*
X454*
X460Y3474*
X463Y3468*
Y3453*
X486D02*
Y3477D01*
Y3468D02*
X489Y3474D01*
X495Y3477*
X501*
X507Y3474*
X510Y3468*
Y3453*
X546D02*
Y3477D01*
Y3486D02*
X581Y3474*
X587Y3477D01*
X596*
X602Y3474*
X605Y3468*
Y3459*
X602Y3456*
X596Y3453*
X590*
X584Y3456*
X581Y3459*
Y3462*
X584Y3465*
X590Y3468*
X596*
X602Y3465*
X605Y3462*
Y3459D02*
Y3453D01*
X123Y3397D02*
Y3432D01*
X109D02*
X138D01*
X165Y3397D02*
X176D01*
X171D02*
Y3432D01*
X165D02*
X176D01*
X203Y3408D02*
Y3420D01*
X206Y3426*
X209Y3429*
X215Y3432*
X221*
X227Y3429*
X230Y3426*
X233Y3420*
Y3408*
X230Y3402*
X227Y3399*
X221Y3397*
X215*
X209Y3399*
X206Y3402*
X203Y3408*
X298D02*
X321D01*
X392Y3405D02*
X395Y3411D01*
X401Y3414*
X407*
X413Y3411*
X416Y3405*
X413Y3399*
X407Y3397*
X401*
X395Y3399*
X392Y3405*
Y3414*
X395Y3423*
X401Y3429*
X407Y3432*
X454Y3397D02*
Y3432D01*
X439Y3408*
X463*
X554Y3411D02*
X563D01*
Y3408*
X560Y3402*
X557Y3399*
X551Y3397*
X546*
X540Y3399*
X537Y3402*
X534Y3408*
Y3420*
X537Y3426*
X540Y3429*
X546Y3432*
X551*
X557Y3429*
X560Y3426*
X563Y3420*
X581Y3397D02*
Y3432D01*
X602*
X608Y3429*
X611Y3423*
X608Y3417*
X602Y3414*
X581*
X637Y3397D02*
X649D01*
X643D02*
Y3432D01*
X637D02*
X649D01*
X675Y3408D02*
Y3420D01*
X678Y3426*
X681Y3429*
X687Y3432*
X693*
X699Y3429*
X702Y3426*
X705Y3420*
Y3408*
X702Y3402*
X699Y3399*
X693Y3397*
X687*
X681Y3399*
X678Y3402*
X675Y3408*
X791Y3414D02*
X797Y3411D01*
X799Y3405*
X797Y3399*
X791Y3397*
X770*
Y3432*
X791*
X797Y3429*
X799Y3423*
X797Y3417*
X791Y3414*
X770*
X817Y3405D02*
X820Y3399D01*
X826Y3397*
X832*
X838Y3399*
X841Y3405*
Y3411*
X838Y3417*
X832Y3420*
X826*
X820Y3417*
X817Y3411*
Y3405*
X864Y3417D02*
X870Y3420D01*
X879*
X885Y3417*
X888Y3411*
Y3402*
X885Y3399*
X879Y3397*
X873*
X867Y3399*
X864Y3402*
Y3405*
X867Y3408*
X873Y3411*
X879*
X885Y3408*
X888Y3405*
Y3402D02*
Y3397D01*
X912D02*
Y3420D01*
Y3411D02*
X915Y3417D01*
X921Y3420*
X926*
X932Y3417*
X983Y3411D02*
X980Y3417D01*
X974Y3420*
X968*
X962Y3417*
X959Y3411*
Y3405*
X962Y3399*
X968Y3397*
X974*
X980Y3399*
X983Y3405*
Y3397D02*
Y3432D01*
X1053D02*
X1068Y3397D01*
X1083Y3432*
X1154Y3397D02*
X1166D01*
X1160D02*
Y3432D01*
X1154Y3426*
X1198Y3397D02*
X1201Y3399D01*
X1198Y3402*
X1195Y3399*
X1198Y3397*
X1245Y3399D02*
X1251Y3397D01*
X1257*
X1263Y3399*
X1266Y3405*
Y3423*
X1263Y3429*
X1257Y3432*
X1251*
X1245Y3429*
X1242Y3423*
Y3405*
X1245Y3399*
X1263Y3429*
X1293Y3399D02*
X1298Y3397D01*
X1304*
X1310Y3399*
X1313Y3405*
X1310Y3411*
X1304Y3414*
X1298*
X1304D02*
X1310Y3417D01*
X1313Y3423*
X1310Y3429*
X1304Y3432*
X1298*
X1293Y3429*
D02*
D12*
X53Y3905D02*
X56Y3902D01*
X63Y3899*
X69Y3902*
X72Y3905*
Y3937*
X78*
X72D02*
X59D01*
X128Y3899D02*
X103D01*
X125Y3921*
X128Y3927*
X125Y3934*
X119Y3937*
X109*
X103Y3934*
X140Y3698D02*
X1388D01*
Y3940*
X140*
Y3698*
X192Y3516D02*
X154D01*
Y3538*
X157Y3544*
X163Y3547*
X170Y3544*
X173Y3538*
Y3516*
Y3538D02*
X192Y3547D01*
Y3572D02*
Y3585D01*
Y3578D02*
X154D01*
X160Y3572*
X188Y3619D02*
X192Y3625D01*
Y3632*
X188Y3638*
X182Y3641*
X176Y3638*
X173Y3632*
Y3625*
Y3632D02*
X170Y3638D01*
X163Y3641*
X157Y3638*
X154Y3632*
Y3625*
X157Y3619*
X192Y3672D02*
Y3685D01*
Y3678D02*
X154D01*
X160Y3672*
X203Y3673D02*
Y3513D01*
X273*
Y3673*
X203*
X297Y791D02*
Y631D01*
X367*
Y791*
X297*
X282Y680D02*
X285Y677D01*
X288Y671*
Y662*
X285Y655*
X282Y652*
X276Y649*
X263*
X257Y652*
X254Y655*
X251Y662*
Y671*
X254Y677*
X257Y680*
X288Y724D02*
Y699D01*
X266Y721*
X260Y724*
X254Y721*
X251Y715*
Y705*
X254Y699*
X269Y758D02*
Y765D01*
X266Y771*
X260Y774*
X254Y771*
X251Y765*
Y758*
X254Y752*
X260Y749*
X266Y752*
X269Y758*
X273Y752*
X279Y749*
X285Y752*
X288Y758*
Y765*
X285Y771*
X279Y774*
X273Y771*
X269Y765*
X353Y3673D02*
Y3513D01*
X423*
Y3673*
X353*
X345Y3512D02*
X307D01*
Y3534*
X310Y3540*
X317Y3543*
X323Y3540*
X326Y3534*
Y3512*
Y3534D02*
X345Y3543D01*
Y3568D02*
Y3581D01*
Y3575D02*
X307D01*
X314Y3568*
X345Y3637D02*
Y3612D01*
X323Y3634*
X317Y3637*
X310Y3634*
X307Y3628*
Y3618*
X310Y3612*
X345Y3672D02*
X342Y3678D01*
X335Y3684*
X326Y3687*
X317*
X310Y3684*
X307Y3678*
Y3672*
X310Y3665*
X317Y3662*
X323Y3665*
X326Y3672*
Y3678*
X323Y3684*
X317Y3687*
X341Y1180D02*
X344Y1177D01*
X347Y1171*
Y1162*
X344Y1155*
X341Y1152*
X335Y1149*
X322*
X316Y1152*
X313Y1155*
X310Y1162*
Y1171*
X313Y1177*
X316Y1180*
X344Y1202D02*
X347Y1208D01*
Y1215*
X344Y1221*
X338Y1224*
X332Y1221*
X328Y1215*
Y1208*
Y1215D02*
X325Y1221D01*
X319Y1224*
X313Y1221*
X310Y1215*
Y1208*
X313Y1202*
X347Y1274D02*
Y1249D01*
X325Y1271*
X319Y1274*
X313Y1271*
X310Y1265*
Y1255*
X313Y1249*
X365Y1227D02*
Y1067D01*
X435*
Y1227*
X365*
X420Y464D02*
Y436D01*
X423Y429*
X429Y426*
X441*
X448Y429*
X451Y436*
Y464*
X473Y429D02*
X479Y426D01*
X485*
X491Y429*
X495Y436*
X491Y442*
X485Y445*
X479*
X485D02*
X491Y448D01*
X495Y454*
X491Y461*
X485Y464*
X479*
X473Y461*
X529Y426D02*
X535Y429D01*
X541Y436*
X545Y445*
Y454*
X541Y461*
X535Y464*
X529*
X523Y461*
X520Y454*
X523Y448*
X529Y445*
X535*
X541Y448*
X545Y454*
X428Y265D02*
X431Y262D01*
X437Y259*
X443Y262*
X447Y265*
Y296*
X453*
X447D02*
X434D01*
X484Y259D02*
X497D01*
X490D02*
Y296D01*
X484Y290*
X534Y259D02*
X547D01*
X540D02*
Y296D01*
X534Y290*
X427Y1326D02*
X390D01*
Y1348*
X393Y1354*
X399Y1358*
X405Y1354*
X408Y1348*
Y1326*
Y1348D02*
X427Y1358D01*
X408Y1386D02*
Y1392D01*
X405Y1398*
X399Y1401*
X393Y1398*
X390Y1392*
Y1386*
X393Y1379*
X399Y1376*
X405Y1379*
X408Y1386*
X412Y1379*
X418Y1376*
X424Y1379*
X427Y1386*
Y1392*
X424Y1398*
X418Y1401*
X412Y1398*
X408Y1392*
X424Y1429D02*
X427Y1436D01*
Y1442*
X424Y1448*
X418Y1451*
X399*
X393Y1448*
X390Y1442*
Y1436*
X393Y1429*
X399Y1426*
X418*
X424Y1429*
X393Y1448*
X467Y2558D02*
Y2530D01*
X470Y2524*
X476Y2521*
X489*
X495Y2524*
X498Y2530*
Y2558*
X520Y2524D02*
X526Y2521D01*
X532*
X539Y2524*
X542Y2530*
X539Y2536*
X532Y2539*
X526*
X532D02*
X539Y2543D01*
X542Y2549*
X539Y2555*
X532Y2558*
X526*
X520Y2555*
X482Y1326D02*
X445D01*
Y1348*
X448Y1354*
X454Y1358*
X460Y1354*
X463Y1348*
Y1326*
Y1348D02*
X482Y1358D01*
Y1376D02*
X445Y1401D01*
Y1376*
X482Y1436D02*
X479Y1442D01*
X473Y1448*
X463Y1451*
X454*
X448Y1448*
X445Y1442*
Y1436*
X448Y1429*
X454Y1426*
X460Y1429*
X463Y1436*
Y1442*
X460Y1448*
X454Y1451*
X493Y1474D02*
Y1314D01*
X563*
Y1474*
X493*
X487Y3511D02*
X450D01*
Y3533*
X453Y3539*
X459Y3542*
X465Y3539*
X468Y3533*
Y3511*
Y3533D02*
X487Y3542D01*
Y3567D02*
Y3580D01*
Y3573D02*
X450D01*
X456Y3567*
X484Y3614D02*
X487Y3620D01*
Y3627*
X484Y3633*
X478Y3636*
X471Y3633*
X468Y3627*
Y3620*
Y3627D02*
X465Y3633D01*
X459Y3636*
X453Y3633*
X450Y3627*
Y3620*
X453Y3614*
X484Y3664D02*
X487Y3670D01*
Y3677*
X484Y3683*
X478Y3686*
X459*
X453Y3683*
X450Y3677*
Y3670*
X453Y3664*
X459Y3661*
X478*
X484Y3664*
X453Y3683*
X507Y3673D02*
Y3513D01*
X577*
Y3673*
X507*
X526Y1306D02*
Y1278D01*
X529Y1272*
X535Y1269*
X548*
X554Y1272*
X557Y1278*
Y1306*
X591Y1269D02*
Y1306D01*
X576Y1281*
X601*
X629Y1272D02*
X635Y1269D01*
X641*
X648Y1272*
X651Y1278*
Y1297*
X648Y1303*
X641Y1306*
X635*
X629Y1303*
X626Y1297*
Y1278*
X629Y1272*
X648Y1303*
X533Y794D02*
G75*
G03X516I-8D01*
G01*
G75*
G03X533I8*
G01*
G36*
G75*
G03X516I-8*
G01*
G75*
G03X533I8*
G01*
G37*
X565Y3325D02*
G75*
G03Y3287J-19D01*
G01*
G75*
G03Y3325J19*
G01*
G36*
G75*
G03Y3287J-19*
G01*
G75*
G03Y3325J19*
G01*
G37*
X570Y1473D02*
Y1313D01*
X640*
Y1473*
X570*
X575Y622D02*
X375D01*
Y803*
X575*
Y622*
X583Y2291D02*
X546D01*
Y2313*
X549Y2319*
X555Y2322*
X562Y2319*
X565Y2313*
Y2291*
Y2313D02*
X583Y2322D01*
Y2347D02*
Y2360D01*
Y2353D02*
X546D01*
X552Y2347*
X583Y2416D02*
Y2391D01*
X562Y2413*
X555Y2416*
X549Y2413*
X546Y2406*
Y2397*
X549Y2391*
X609Y784D02*
Y624D01*
X679*
Y784*
X609*
X612Y1188D02*
G75*
G03X595I-8D01*
G01*
G75*
G03X612I8*
G01*
G36*
G75*
G03X595I-8*
G01*
G75*
G03X612I8*
G01*
G37*
X631Y2291D02*
X593D01*
Y2313*
X596Y2319*
X603Y2322*
X609Y2319*
X612Y2313*
Y2291*
Y2313D02*
X631Y2322D01*
Y2347D02*
Y2360D01*
Y2353D02*
X593D01*
X599Y2347*
X628Y2394D02*
X631Y2400D01*
Y2406*
X628Y2413*
X621Y2416*
X615Y2413*
X612Y2406*
Y2400*
Y2406D02*
X609Y2413D01*
X603Y2416*
X596Y2413*
X593Y2406*
Y2400*
X596Y2394*
X639Y3508D02*
X602D01*
Y3530*
X605Y3537*
X611Y3540*
X618Y3537*
X621Y3530*
Y3508*
Y3530D02*
X639Y3540D01*
Y3565D02*
Y3577D01*
Y3571D02*
X602D01*
X608Y3565*
X636Y3612D02*
X639Y3618D01*
Y3624*
X636Y3630*
X630Y3633*
X624Y3630*
X621Y3624*
Y3618*
Y3624D02*
X618Y3630D01*
X611Y3633*
X605Y3630*
X602Y3624*
Y3618*
X605Y3612*
X639Y3683D02*
Y3658D01*
X618Y3680*
X611Y3683*
X605Y3680*
X602Y3674*
Y3665*
X605Y3658*
X653Y1015D02*
X453D01*
Y1196*
X653*
Y1015*
X656Y3673D02*
Y3513D01*
X726*
Y3673*
X656*
X656Y440D02*
X659Y437D01*
X662Y431*
Y421*
X659Y415*
X656Y412*
X650Y409*
X637*
X631Y412*
X628Y415*
X625Y421*
Y431*
X628Y437*
X631Y440*
X662Y465D02*
Y478D01*
Y471D02*
X625D01*
X631Y465*
X643Y518D02*
Y525D01*
X640Y531*
X634Y534*
X628Y531*
X625Y525*
Y518*
X628Y512*
X634Y509*
X640Y512*
X643Y518*
X647Y512*
X653Y509*
X659Y512*
X662Y518*
Y525*
X659Y531*
X653Y534*
X647Y531*
X643Y525*
X678Y2291D02*
X640D01*
Y2313*
X644Y2319*
X650Y2322*
X656Y2319*
X659Y2313*
Y2291*
Y2313D02*
X678Y2322D01*
Y2347D02*
Y2360D01*
Y2353D02*
X640D01*
X647Y2347*
X678Y2406D02*
X640D01*
X665Y2391*
Y2416*
X692Y1253D02*
Y1093D01*
X762*
Y1253*
X692*
X727Y464D02*
Y436D01*
X730Y429*
X736Y426*
X749*
X755Y429*
X758Y436*
Y464*
X780Y429D02*
X786Y426D01*
X792*
X799Y429*
X802Y436*
X799Y442*
X792Y445*
X786*
X792D02*
X799Y448D01*
X802Y454*
X799Y461*
X792Y464*
X786*
X780Y461*
X830Y429D02*
X836Y426D01*
X842*
X849Y429*
X852Y436*
X849Y442*
X842Y445*
X836*
X842D02*
X849Y448D01*
X852Y454*
X849Y461*
X842Y464*
X836*
X830Y461*
X725Y2291D02*
X688D01*
Y2313*
X691Y2319*
X697Y2322*
X703Y2319*
X706Y2313*
Y2291*
Y2313D02*
X725Y2322D01*
Y2347D02*
Y2360D01*
Y2353D02*
X688D01*
X694Y2347*
X722Y2391D02*
X725Y2397D01*
Y2406*
X722Y2413*
X716Y2416*
X713*
X706Y2413*
X703Y2406*
Y2391*
X688*
Y2416*
X739Y2430D02*
Y2270D01*
X809*
Y2430*
X739*
X735Y1389D02*
X738Y1386D01*
X741Y1380*
Y1370*
X738Y1364*
X735Y1361*
X728Y1358*
X716*
X710Y1361*
X707Y1364*
X703Y1370*
Y1380*
X707Y1386*
X710Y1389*
X741Y1433D02*
Y1408D01*
X719Y1430*
X713Y1433*
X707Y1430*
X703Y1423*
Y1414*
X707Y1408*
X741Y1473D02*
X703D01*
X728Y1458*
Y1483*
X794Y3334D02*
Y2579D01*
X546*
Y3334*
X794*
X794Y3506D02*
X756D01*
Y3528*
X760Y3534*
X766Y3537*
X772Y3534*
X775Y3528*
Y3506*
Y3528D02*
X794Y3537D01*
Y3562D02*
Y3575D01*
Y3568D02*
X756D01*
X763Y3562*
X791Y3609D02*
X794Y3615D01*
Y3622*
X791Y3628*
X785Y3631*
X778Y3628*
X775Y3622*
Y3615*
Y3622D02*
X772Y3628D01*
X766Y3631*
X760Y3628*
X756Y3622*
Y3615*
X760Y3609*
X785Y3656D02*
X778Y3659D01*
X775Y3665*
Y3672*
X778Y3678*
X785Y3681*
X791Y3678*
X794Y3672*
Y3665*
X791Y3659*
X785Y3656*
X775*
X766Y3659*
X760Y3665*
X756Y3672*
X805Y1474D02*
Y1314D01*
X875*
Y1474*
X805*
X806Y3673D02*
Y3513D01*
X876*
Y3673*
X806*
X818Y2430D02*
Y2270D01*
X888*
Y2430*
X818*
X848Y794D02*
G75*
G03X831I-8D01*
G01*
G75*
G03X848I8*
G01*
G36*
G75*
G03X831I-8*
G01*
G75*
G03X848I8*
G01*
G37*
X849Y1306D02*
Y1278D01*
X852Y1272*
X858Y1269*
X871*
X877Y1272*
X880Y1278*
Y1306*
X902Y1272D02*
X908Y1269D01*
X914*
X921Y1272*
X924Y1278*
X921Y1284*
X914Y1287*
X908*
X914D02*
X921Y1291D01*
X924Y1297*
X921Y1303*
X914Y1306*
X908*
X902Y1303*
X964Y1269D02*
Y1306D01*
X949Y1281*
X974*
X857Y1756D02*
Y2109D01*
X1038*
Y1756*
X857*
X859Y1486D02*
X821D01*
Y1508*
X825Y1514*
X831Y1517*
X837Y1514*
X840Y1508*
Y1486*
Y1508D02*
X859Y1517D01*
X850Y1536D02*
X843Y1539D01*
X840Y1545*
Y1552*
X843Y1558*
X850Y1561*
X856Y1558*
X859Y1552*
Y1545*
X856Y1539*
X850Y1536*
X840*
X831Y1539*
X825Y1545*
X821Y1552*
X840Y1595D02*
Y1602D01*
X837Y1608*
X831Y1611*
X825Y1608*
X821Y1602*
Y1595*
X825Y1589*
X831Y1586*
X837Y1589*
X840Y1595*
X843Y1589*
X850Y1586*
X856Y1589*
X859Y1595*
Y1602*
X856Y1608*
X850Y1611*
X843Y1608*
X840Y1602*
X883Y1473D02*
Y1313D01*
X953*
Y1473*
X883*
X890Y622D02*
X690D01*
Y803*
X890*
Y622*
X896Y2430D02*
Y2270D01*
X966*
Y2430*
X896*
X927Y1188D02*
G75*
G03X910I-8D01*
G01*
G75*
G03X927I8*
G01*
G36*
G75*
G03X910I-8*
G01*
G75*
G03X927I8*
G01*
G37*
X928Y784D02*
Y624D01*
X998*
Y784*
X928*
X938Y1487D02*
X900D01*
Y1509*
X903Y1515*
X909Y1519*
X916Y1515*
X919Y1509*
Y1487*
Y1509D02*
X938Y1519D01*
X928Y1537D02*
X922Y1540D01*
X919Y1547*
Y1553*
X922Y1559*
X928Y1562*
X934Y1559*
X938Y1553*
Y1547*
X934Y1540*
X928Y1537*
X919*
X909Y1540*
X903Y1547*
X900Y1553*
X938Y1597D02*
X934Y1603D01*
X928Y1609*
X919Y1612*
X909*
X903Y1609*
X900Y1603*
Y1597*
X903Y1590*
X909Y1587*
X916Y1590*
X919Y1597*
Y1603*
X916Y1609*
X909Y1612*
X941Y3505D02*
X904D01*
Y3527*
X907Y3533*
X913Y3536*
X919Y3533*
X922Y3527*
Y3505*
Y3527D02*
X941Y3536D01*
Y3561D02*
Y3573D01*
Y3567D02*
X904D01*
X910Y3561*
X938Y3608D02*
X941Y3614D01*
Y3620*
X938Y3627*
X932Y3630*
X925Y3627*
X922Y3620*
Y3614*
Y3620D02*
X919Y3627D01*
X913Y3630*
X907Y3627*
X904Y3620*
Y3614*
X907Y3608*
X938Y3655D02*
X941Y3661D01*
Y3670*
X938Y3677*
X932Y3680*
X929*
X922Y3677*
X919Y3670*
Y3655*
X904*
Y3680*
X955Y3673D02*
Y3513D01*
X1025*
Y3673*
X955*
X968Y1015D02*
X768D01*
Y1196*
X968*
Y1015*
X975Y2430D02*
Y2270D01*
X1045*
Y2430*
X975*
X979Y413D02*
X982Y409D01*
X985Y403*
Y394*
X982Y388*
X979Y384*
X972Y381*
X960*
X954Y384*
X951Y388*
X947Y394*
Y403*
X951Y409*
X954Y413*
X985Y438D02*
Y450D01*
Y444D02*
X947D01*
X954Y438*
X982Y484D02*
X985Y491D01*
Y497*
X982Y503*
X976Y506*
X969Y503*
X966Y497*
Y491*
Y497D02*
X963Y503D01*
X957Y506*
X951Y503*
X947Y497*
Y491*
X951Y484*
X1003Y1250D02*
Y1090D01*
X1073*
Y1250*
X1003*
X1031Y1759D02*
G75*
G03Y1773J7D01*
G01*
G75*
G03Y1759J-7*
G01*
G36*
G75*
G03Y1773J7*
G01*
G75*
G03Y1759J-7*
G01*
G37*
X1038Y460D02*
Y432D01*
X1041Y425*
X1047Y422*
X1060*
X1066Y425*
X1069Y432*
Y460*
X1091Y425D02*
X1097Y422D01*
X1103*
X1110Y425*
X1113Y432*
X1110Y438*
X1103Y441*
X1097*
X1103D02*
X1110Y444D01*
X1113Y450*
X1110Y457*
X1103Y460*
X1097*
X1091Y457*
X1138Y425D02*
X1144Y422D01*
X1153*
X1160Y425*
X1163Y432*
Y435*
X1160Y441*
X1153Y444*
X1138*
Y460*
X1163*
X1044Y1739D02*
Y1711D01*
X1047Y1704*
X1054Y1701*
X1066*
X1072Y1704*
X1076Y1711*
Y1739*
X1101Y1701D02*
X1113D01*
X1107D02*
Y1739D01*
X1101Y1733*
X1050Y1365D02*
X1053Y1362D01*
X1056Y1356*
Y1347*
X1053Y1340*
X1050Y1337*
X1043Y1334*
X1031*
X1025Y1337*
X1021Y1340*
X1018Y1347*
Y1356*
X1021Y1362*
X1025Y1365*
X1053Y1387D02*
X1056Y1393D01*
Y1400*
X1053Y1406*
X1046Y1409*
X1040Y1406*
X1037Y1400*
Y1393*
Y1400D02*
X1034Y1406D01*
X1028Y1409*
X1021Y1406*
X1018Y1400*
Y1393*
X1021Y1387*
X1056Y1440D02*
Y1453D01*
Y1447D02*
X1018D01*
X1025Y1440*
X1101Y2535D02*
Y2506D01*
X1104Y2500*
X1110Y2497*
X1123*
X1129Y2500*
X1132Y2506*
Y2535*
X1166Y2497D02*
Y2535D01*
X1151Y2510*
X1176*
X1109Y3673D02*
Y3513D01*
X1179*
Y3673*
X1109*
X1100Y3504D02*
X1062D01*
Y3526*
X1065Y3532*
X1072Y3535*
X1078Y3532*
X1081Y3526*
Y3504*
Y3526D02*
X1100Y3535D01*
Y3560D02*
Y3573D01*
Y3567D02*
X1062D01*
X1068Y3560*
X1097Y3607D02*
X1100Y3613D01*
Y3620*
X1097Y3626*
X1090Y3629*
X1084Y3626*
X1081Y3620*
Y3613*
Y3620D02*
X1078Y3626D01*
X1072Y3629*
X1065Y3626*
X1062Y3620*
Y3613*
X1065Y3607*
X1100Y3670D02*
X1062D01*
X1087Y3654*
Y3679*
X1117Y1496D02*
Y1336D01*
X1187*
Y1496*
X1117*
X1163Y794D02*
G75*
G03X1146I-8D01*
G01*
G75*
G03X1163I8*
G01*
G36*
G75*
G03X1146I-8*
G01*
G75*
G03X1163I8*
G01*
G37*
X1175Y1314D02*
Y1286D01*
X1179Y1280*
X1185Y1277*
X1197*
X1204Y1280*
X1207Y1286*
Y1314*
X1229Y1280D02*
X1235Y1277D01*
X1241*
X1247Y1280*
X1250Y1286*
X1247Y1292*
X1241Y1295*
X1235*
X1241D02*
X1247Y1298D01*
X1250Y1305*
X1247Y1311*
X1241Y1314*
X1235*
X1229Y1311*
X1275Y1286D02*
X1279Y1292D01*
X1285Y1295*
X1291*
X1297Y1292*
X1300Y1286*
X1297Y1280*
X1291Y1277*
X1285*
X1279Y1280*
X1275Y1286*
Y1295*
X1279Y1305*
X1285Y1311*
X1291Y1314*
X1171Y1506D02*
X1134D01*
Y1528*
X1137Y1534*
X1143Y1537*
X1149Y1534*
X1153Y1528*
Y1506*
Y1528D02*
X1171Y1537D01*
Y1556D02*
X1134Y1581D01*
Y1556*
X1171Y1631D02*
Y1606D01*
X1149Y1628*
X1143Y1631*
X1137Y1628*
X1134Y1622*
Y1612*
X1137Y1606*
X1196Y1497D02*
Y1337D01*
X1266*
Y1497*
X1196*
X1197Y3325D02*
G75*
G03Y3287J-19D01*
G01*
G75*
G03Y3325J19*
G01*
G36*
G75*
G03Y3287J-19*
G01*
G75*
G03Y3325J19*
G01*
G37*
X1205Y622D02*
X1005D01*
Y803*
X1205*
Y622*
X1240Y796D02*
Y636D01*
X1310*
Y796*
X1240*
X1242Y1188D02*
G75*
G03X1225I-8D01*
G01*
G75*
G03X1242I8*
G01*
G36*
G75*
G03X1225I-8*
G01*
G75*
G03X1242I8*
G01*
G37*
X1247Y1511D02*
X1210D01*
Y1533*
X1213Y1539*
X1219Y1542*
X1226Y1539*
X1229Y1533*
Y1511*
Y1533D02*
X1247Y1542D01*
Y1561D02*
X1210Y1586D01*
Y1561*
X1247Y1627D02*
X1210D01*
X1235Y1611*
Y1636*
X1248Y3506D02*
X1211D01*
Y3528*
X1214Y3534*
X1220Y3537*
X1226Y3534*
X1229Y3528*
Y3506*
Y3528D02*
X1248Y3537D01*
Y3562D02*
Y3575D01*
Y3568D02*
X1211D01*
X1217Y3562*
X1245Y3609D02*
X1248Y3615D01*
Y3622*
X1245Y3628*
X1239Y3631*
X1232Y3628*
X1229Y3622*
Y3615*
Y3622D02*
X1226Y3628D01*
X1220Y3631*
X1214Y3628*
X1211Y3622*
Y3615*
X1214Y3609*
X1245Y3659D02*
X1248Y3665D01*
Y3672*
X1245Y3678*
X1239Y3681*
X1232Y3678*
X1229Y3672*
Y3665*
Y3672D02*
X1226Y3678D01*
X1220Y3681*
X1214Y3678*
X1211Y3672*
Y3665*
X1214Y3659*
X1259Y3673D02*
Y3513D01*
X1329*
Y3673*
X1259*
X1263Y2013D02*
Y1853D01*
X1333*
Y2013*
X1263*
X1282Y2422D02*
Y2262D01*
X1352*
Y2422*
X1282*
X1283Y1015D02*
X1083D01*
Y1196*
X1283*
Y1015*
X1286Y474D02*
X1289Y471D01*
X1292Y465*
Y455*
X1289Y449*
X1286Y446*
X1280Y443*
X1267*
X1261Y446*
X1258Y449*
X1255Y455*
Y465*
X1258Y471*
X1261Y474*
X1292Y499D02*
Y511D01*
Y505D02*
X1255D01*
X1261Y499*
X1292Y558D02*
X1255D01*
X1280Y543*
Y568*
X1322Y1261D02*
Y1101D01*
X1392*
Y1261*
X1322*
X1308Y1787D02*
X1311Y1784D01*
X1315Y1778*
Y1768*
X1311Y1762*
X1308Y1759*
X1302Y1756*
X1290*
X1283Y1759*
X1280Y1762*
X1277Y1768*
Y1778*
X1280Y1784*
X1283Y1787*
X1315Y1831D02*
Y1806D01*
X1293Y1828*
X1286Y1831*
X1280Y1828*
X1277Y1821*
Y1812*
X1280Y1806*
X1335Y2055D02*
X1298D01*
Y2076*
X1301Y2083*
X1307Y2086*
X1313Y2083*
X1317Y2076*
Y2055*
Y2076D02*
X1335Y2086D01*
Y2130D02*
Y2105D01*
X1313Y2126*
X1307Y2130*
X1301Y2126*
X1298Y2120*
Y2111*
X1301Y2105*
X1335Y2170D02*
X1298D01*
X1323Y2155*
Y2180*
X1361Y2422D02*
Y2262D01*
X1431*
Y2422*
X1361*
X1368Y468D02*
Y439D01*
X1372Y433*
X1378Y430*
X1390*
X1397Y433*
X1400Y439*
Y468*
X1422Y433D02*
X1428Y430D01*
X1434*
X1440Y433*
X1443Y439*
X1440Y446*
X1434Y449*
X1428*
X1434D02*
X1440Y452D01*
X1443Y458*
X1440Y464*
X1434Y468*
X1428*
X1422Y464*
X1468Y430D02*
X1493Y468D01*
X1468*
X1368Y1369D02*
X1372Y1366D01*
X1375Y1360*
Y1351*
X1372Y1344*
X1368Y1341*
X1362Y1338*
X1350*
X1343Y1341*
X1340Y1344*
X1337Y1351*
Y1360*
X1340Y1366*
X1343Y1369*
X1375Y1413D02*
Y1388D01*
X1353Y1410*
X1347Y1413*
X1340Y1410*
X1337Y1404*
Y1394*
X1340Y1388*
X1375Y1463D02*
Y1438D01*
X1353Y1460*
X1347Y1463*
X1340Y1460*
X1337Y1454*
Y1444*
X1340Y1438*
X1400Y3698D02*
X2648D01*
Y3940*
X1400*
Y3698*
X1414Y2055D02*
X1377D01*
Y2076*
X1380Y2083*
X1386Y2086*
X1392Y2083*
X1395Y2076*
Y2055*
Y2076D02*
X1414Y2086D01*
Y2130D02*
Y2105D01*
X1392Y2126*
X1386Y2130*
X1380Y2126*
X1377Y2120*
Y2111*
X1380Y2105*
X1411Y2155D02*
X1414Y2161D01*
Y2170*
X1411Y2176*
X1405Y2180*
X1402*
X1395Y2176*
X1392Y2170*
Y2155*
X1377*
Y2180*
X1425Y3334D02*
Y2579D01*
X1177*
Y3334*
X1425*
X1432Y1505D02*
Y1345D01*
X1502*
Y1505*
X1432*
X1440Y2422D02*
Y2262D01*
X1510*
Y2422*
X1440*
X1452Y3501D02*
X1414D01*
Y3523*
X1417Y3529*
X1424Y3532*
X1430Y3529*
X1433Y3523*
Y3501*
Y3523D02*
X1452Y3532D01*
Y3557D02*
Y3570D01*
Y3563D02*
X1414D01*
X1421Y3557*
X1449Y3601D02*
X1452Y3607D01*
Y3617*
X1449Y3623*
X1442Y3626*
X1439*
X1433Y3623*
X1430Y3617*
Y3601*
X1414*
Y3626*
X1452Y3676D02*
Y3651D01*
X1430Y3673*
X1424Y3676*
X1417Y3673*
X1414Y3667*
Y3657*
X1417Y3651*
X1464Y3673D02*
Y3513D01*
X1534*
Y3673*
X1464*
X1478Y794D02*
G75*
G03X1461I-8D01*
G01*
G75*
G03X1478I8*
G01*
G36*
G75*
G03X1461I-8*
G01*
G75*
G03X1478I8*
G01*
G37*
X1494Y1318D02*
Y1290D01*
X1497Y1284*
X1504Y1280*
X1516*
X1522Y1284*
X1526Y1290*
Y1318*
X1547Y1284D02*
X1554Y1280D01*
X1560*
X1566Y1284*
X1569Y1290*
X1566Y1296*
X1560Y1299*
X1554*
X1560D02*
X1566Y1302D01*
X1569Y1309*
X1566Y1315*
X1560Y1318*
X1554*
X1547Y1315*
X1604Y1299D02*
X1610D01*
X1616Y1302*
X1619Y1309*
X1616Y1315*
X1610Y1318*
X1604*
X1597Y1315*
X1594Y1309*
X1597Y1302*
X1604Y1299*
X1597Y1296*
X1594Y1290*
X1597Y1284*
X1604Y1280*
X1610*
X1616Y1284*
X1619Y1290*
X1616Y1296*
X1610Y1299*
X1486Y1516D02*
X1449D01*
Y1538*
X1452Y1544*
X1458Y1548*
X1464Y1544*
X1467Y1538*
Y1516*
Y1538D02*
X1486Y1548D01*
Y1566D02*
X1449Y1591D01*
Y1566*
X1483Y1616D02*
X1486Y1623D01*
Y1632*
X1483Y1638*
X1477Y1641*
X1474*
X1467Y1638*
X1464Y1632*
Y1616*
X1449*
Y1641*
X1493Y2055D02*
X1455D01*
Y2076*
X1458Y2083*
X1465Y2086*
X1471Y2083*
X1474Y2076*
Y2055*
Y2076D02*
X1493Y2086D01*
Y2130D02*
Y2105D01*
X1471Y2126*
X1465Y2130*
X1458Y2126*
X1455Y2120*
Y2111*
X1458Y2105*
X1483Y2155D02*
X1477Y2158D01*
X1474Y2164*
Y2170*
X1477Y2176*
X1483Y2180*
X1490Y2176*
X1493Y2170*
Y2164*
X1490Y2158*
X1483Y2155*
X1474*
X1465Y2158*
X1458Y2164*
X1455Y2170*
X1518Y1497D02*
Y1337D01*
X1588*
Y1497*
X1518*
Y2422D02*
Y2262D01*
X1588*
Y2422*
X1518*
X1520Y622D02*
X1320D01*
Y803*
X1520*
Y622*
X1557Y1188D02*
G75*
G03X1540I-8D01*
G01*
G75*
G03X1557I8*
G01*
G36*
G75*
G03X1540I-8*
G01*
G75*
G03X1557I8*
G01*
G37*
X1558Y788D02*
Y628D01*
X1628*
Y788*
X1558*
X1572Y2055D02*
X1534D01*
Y2076*
X1537Y2083*
X1543Y2086*
X1550Y2083*
X1553Y2076*
Y2055*
Y2076D02*
X1572Y2086D01*
Y2130D02*
Y2105D01*
X1550Y2126*
X1543Y2130*
X1537Y2126*
X1534Y2120*
Y2111*
X1537Y2105*
X1572Y2155D02*
X1534Y2180D01*
Y2155*
X1574Y1506D02*
X1536D01*
Y1528*
X1540Y1534*
X1546Y1537*
X1552Y1534*
X1555Y1528*
Y1506*
Y1528D02*
X1574Y1537D01*
Y1556D02*
X1536Y1581D01*
Y1556*
X1555Y1615D02*
Y1622D01*
X1552Y1628*
X1546Y1631*
X1540Y1628*
X1536Y1622*
Y1615*
X1540Y1609*
X1546Y1606*
X1552Y1609*
X1555Y1615*
X1558Y1609*
X1565Y1606*
X1571Y1609*
X1574Y1615*
Y1622*
X1571Y1628*
X1565Y1631*
X1558Y1628*
X1555Y1622*
X1598Y1015D02*
X1398D01*
Y1196*
X1598*
Y1015*
X1600Y3498D02*
X1562D01*
Y3520*
X1565Y3527*
X1572Y3530*
X1578Y3527*
X1581Y3520*
Y3498*
Y3520D02*
X1600Y3530D01*
Y3555D02*
Y3567D01*
Y3561D02*
X1562D01*
X1569Y3555*
X1597Y3598D02*
X1600Y3605D01*
Y3614*
X1597Y3620*
X1590Y3623*
X1587*
X1581Y3620*
X1578Y3614*
Y3598*
X1562*
Y3623*
X1600Y3655D02*
Y3667D01*
Y3661D02*
X1562D01*
X1569Y3655*
X1613Y3673D02*
Y3513D01*
X1683*
Y3673*
X1613*
X1609Y476D02*
X1612Y472D01*
X1615Y466*
Y457*
X1612Y451*
X1609Y447*
X1602Y444*
X1590*
X1584Y447*
X1581Y451*
X1577Y457*
Y466*
X1581Y472*
X1584Y476*
X1615Y494D02*
X1577Y519D01*
Y494*
X1637Y1247D02*
Y1087D01*
X1707*
Y1247*
X1637*
X1675Y246D02*
X427D01*
Y4*
X1675*
Y246*
X1675Y444D02*
Y416D01*
X1679Y410*
X1685Y406*
X1697*
X1704Y410*
X1707Y416*
Y444*
X1750Y406D02*
X1725D01*
X1747Y428*
X1750Y435*
X1747Y441*
X1741Y444*
X1732*
X1725Y441*
X1775Y406D02*
X1800Y444D01*
X1775*
X1696Y270D02*
X1699Y267D01*
X1705Y264*
X1711Y267*
X1715Y270*
Y301*
X1721*
X1715D02*
X1702D01*
X1752Y264D02*
X1765D01*
X1758D02*
Y301D01*
X1752Y295*
X1821Y264D02*
X1796D01*
X1818Y286*
X1821Y292*
X1818Y298*
X1811Y301*
X1802*
X1796Y298*
X1683Y1357D02*
X1687Y1354D01*
X1690Y1348*
Y1339*
X1687Y1332*
X1683Y1329*
X1677Y1326*
X1665*
X1658Y1329*
X1655Y1332*
X1652Y1339*
Y1348*
X1655Y1354*
X1658Y1357*
X1690Y1401D02*
Y1376D01*
X1668Y1398*
X1662Y1401*
X1655Y1398*
X1652Y1392*
Y1382*
X1655Y1376*
X1680Y1426D02*
X1674Y1429D01*
X1671Y1436*
Y1442*
X1674Y1448*
X1680Y1451*
X1687Y1448*
X1690Y1442*
Y1436*
X1687Y1429*
X1680Y1426*
X1671*
X1662Y1429*
X1655Y1436*
X1652Y1442*
X1723Y2546D02*
Y2518D01*
X1726Y2512*
X1732Y2509*
X1745*
X1751Y2512*
X1754Y2518*
Y2546*
X1788Y2509D02*
Y2546D01*
X1773Y2521*
X1798*
X1826Y2512D02*
X1832Y2509D01*
X1838*
X1845Y2512*
X1848Y2518*
X1845Y2524*
X1838Y2528*
X1832*
X1838D02*
X1845Y2531D01*
X1848Y2537*
X1845Y2543*
X1838Y2546*
X1832*
X1826Y2543*
X1751Y1513D02*
Y1353D01*
X1821*
Y1513*
X1751*
X1766Y3673D02*
Y3513D01*
X1836*
Y3673*
X1766*
X1757Y3498D02*
X1720D01*
Y3520*
X1723Y3527*
X1729Y3530*
X1735Y3527*
X1738Y3520*
Y3498*
Y3520D02*
X1757Y3530D01*
Y3555D02*
Y3567D01*
Y3561D02*
X1720D01*
X1726Y3555*
X1754Y3598D02*
X1757Y3605D01*
Y3614*
X1754Y3620*
X1748Y3623*
X1745*
X1738Y3620*
X1735Y3614*
Y3598*
X1720*
Y3623*
X1754Y3652D02*
X1757Y3658D01*
Y3664*
X1754Y3670*
X1748Y3673*
X1729*
X1723Y3670*
X1720Y3664*
Y3658*
X1723Y3652*
X1729Y3648*
X1748*
X1754Y3652*
X1723Y3670*
X1793Y794D02*
G75*
G03X1776I-8D01*
G01*
G75*
G03X1793I8*
G01*
G36*
G75*
G03X1776I-8*
G01*
G75*
G03X1793I8*
G01*
G37*
X1813Y1318D02*
Y1290D01*
X1816Y1284*
X1823Y1280*
X1835*
X1841Y1284*
X1845Y1290*
Y1318*
X1888Y1280D02*
X1863D01*
X1885Y1302*
X1888Y1309*
X1885Y1315*
X1879Y1318*
X1870*
X1863Y1315*
X1923Y1299D02*
X1929D01*
X1935Y1302*
X1938Y1309*
X1935Y1315*
X1929Y1318*
X1923*
X1916Y1315*
X1913Y1309*
X1916Y1302*
X1923Y1299*
X1916Y1296*
X1913Y1290*
X1916Y1284*
X1923Y1280*
X1929*
X1935Y1284*
X1938Y1290*
X1935Y1296*
X1929Y1299*
X1804Y1527D02*
X1766D01*
Y1549*
X1770Y1555*
X1776Y1558*
X1782Y1555*
X1785Y1549*
Y1527*
Y1549D02*
X1804Y1558D01*
X1795Y1577D02*
X1788Y1580D01*
X1785Y1586*
Y1593*
X1788Y1599*
X1795Y1602*
X1801Y1599*
X1804Y1593*
Y1586*
X1801Y1580*
X1795Y1577*
X1785*
X1776Y1580*
X1770Y1586*
X1766Y1593*
X1804Y1627D02*
X1766Y1652D01*
Y1627*
X1827Y3325D02*
G75*
G03Y3287J-19D01*
G01*
G75*
G03Y3325J19*
G01*
G36*
G75*
G03Y3287J-19*
G01*
G75*
G03Y3325J19*
G01*
G37*
X1829Y1513D02*
Y1353D01*
X1899*
Y1513*
X1829*
X1835Y622D02*
X1635D01*
Y803*
X1835*
Y622*
X1869Y784D02*
Y624D01*
X1939*
Y784*
X1869*
X1872Y1188D02*
G75*
G03X1855I-8D01*
G01*
G75*
G03X1872I8*
G01*
G36*
G75*
G03X1855I-8*
G01*
G75*
G03X1872I8*
G01*
G37*
X1875Y2275D02*
X1837D01*
Y2297*
X1840Y2303*
X1847Y2306*
X1853Y2303*
X1856Y2297*
Y2275*
Y2297D02*
X1875Y2306D01*
Y2331D02*
Y2344D01*
Y2338D02*
X1837D01*
X1843Y2331*
X1872Y2378D02*
X1875Y2384D01*
Y2391*
X1872Y2397*
X1865Y2400*
X1847*
X1840Y2397*
X1837Y2391*
Y2384*
X1840Y2378*
X1847Y2375*
X1865*
X1872Y2378*
X1840Y2397*
X1856Y2434D02*
Y2441D01*
X1853Y2447*
X1847Y2450*
X1840Y2447*
X1837Y2441*
Y2434*
X1840Y2428*
X1847Y2425*
X1853Y2428*
X1856Y2434*
X1859Y2428*
X1865Y2425*
X1872Y2428*
X1875Y2434*
Y2441*
X1872Y2447*
X1865Y2450*
X1859Y2447*
X1856Y2441*
X1883Y1527D02*
X1845D01*
Y1549*
X1848Y1555*
X1854Y1558*
X1861Y1555*
X1864Y1549*
Y1527*
Y1549D02*
X1883Y1558D01*
Y1577D02*
X1845Y1602D01*
Y1577*
X1879Y1630D02*
X1883Y1636D01*
Y1643*
X1879Y1649*
X1873Y1652*
X1854*
X1848Y1649*
X1845Y1643*
Y1636*
X1848Y1630*
X1854Y1627*
X1873*
X1879Y1630*
X1848Y1649*
X1913Y1015D02*
X1713D01*
Y1196*
X1913*
Y1015*
X1905Y3498D02*
X1868D01*
Y3520*
X1871Y3527*
X1877Y3530*
X1884Y3527*
X1887Y3520*
Y3498*
Y3520D02*
X1905Y3530D01*
Y3555D02*
Y3567D01*
Y3561D02*
X1868D01*
X1874Y3555*
X1905Y3614D02*
X1868D01*
X1893Y3598*
Y3623*
X1905Y3658D02*
X1902Y3664D01*
X1896Y3670*
X1887Y3673*
X1877*
X1871Y3670*
X1868Y3664*
Y3658*
X1871Y3652*
X1877Y3648*
X1884Y3652*
X1887Y3658*
Y3664*
X1884Y3670*
X1877Y3673*
X1916Y3673D02*
Y3513D01*
X1986*
Y3673*
X1916*
X1916Y480D02*
X1919Y476D01*
X1922Y470*
Y461*
X1919Y455*
X1916Y451*
X1909Y448*
X1897*
X1891Y451*
X1888Y455*
X1884Y461*
Y470*
X1888Y476*
X1891Y480*
X1913Y498D02*
X1906Y501D01*
X1903Y508*
Y514*
X1906Y520*
X1913Y523*
X1919Y520*
X1922Y514*
Y508*
X1919Y501*
X1913Y498*
X1903*
X1894Y501*
X1888Y508*
X1884Y514*
X1926Y2275D02*
X1888D01*
Y2297*
X1892Y2303*
X1898Y2306*
X1904Y2303*
X1907Y2297*
Y2275*
Y2297D02*
X1926Y2306D01*
Y2331D02*
Y2344D01*
Y2338D02*
X1888D01*
X1895Y2331*
X1923Y2378D02*
X1926Y2384D01*
Y2391*
X1923Y2397*
X1917Y2400*
X1898*
X1892Y2397*
X1888Y2391*
Y2384*
X1892Y2378*
X1898Y2375*
X1917*
X1923Y2378*
X1892Y2397*
X1923Y2425D02*
X1926Y2431D01*
Y2441*
X1923Y2447*
X1917Y2450*
X1913*
X1907Y2447*
X1904Y2441*
Y2425*
X1888*
Y2450*
X1951Y1235D02*
Y1075D01*
X2021*
Y1235*
X1951*
X1977Y2275D02*
X1940D01*
Y2297*
X1943Y2303*
X1949Y2306*
X1955Y2303*
X1958Y2297*
Y2275*
Y2297D02*
X1977Y2306D01*
Y2331D02*
Y2344D01*
Y2338D02*
X1940D01*
X1946Y2331*
X1974Y2378D02*
X1977Y2384D01*
Y2391*
X1974Y2397*
X1968Y2400*
X1949*
X1943Y2397*
X1940Y2391*
Y2384*
X1943Y2378*
X1949Y2375*
X1968*
X1974Y2378*
X1943Y2397*
X1968Y2425D02*
X1961Y2428D01*
X1958Y2434*
Y2441*
X1961Y2447*
X1968Y2450*
X1974Y2447*
X1977Y2441*
Y2434*
X1974Y2428*
X1968Y2425*
X1958*
X1949Y2428*
X1943Y2434*
X1940Y2441*
X1987Y485D02*
Y456D01*
X1990Y450*
X1996Y447*
X2008*
X2015Y450*
X2018Y456*
Y485*
X2062Y447D02*
X2037D01*
X2058Y469*
X2062Y475*
X2058Y481*
X2052Y485*
X2043*
X2037Y481*
X2096Y447D02*
X2102Y450D01*
X2108Y456*
X2112Y466*
Y475*
X2108Y481*
X2102Y485*
X2096*
X2090Y481*
X2087Y475*
X2090Y469*
X2096Y466*
X2102*
X2108Y469*
X2112Y475*
X1994Y1354D02*
X1998Y1350D01*
X2001Y1344*
Y1335*
X1998Y1329*
X1994Y1325*
X1988Y1322*
X1976*
X1969Y1325*
X1966Y1329*
X1963Y1335*
Y1344*
X1966Y1350*
X1969Y1354*
X1982Y1382D02*
Y1388D01*
X1979Y1394*
X1973Y1397*
X1966Y1394*
X1963Y1388*
Y1382*
X1966Y1375*
X1973Y1372*
X1979Y1375*
X1982Y1382*
X1985Y1375*
X1991Y1372*
X1998Y1375*
X2001Y1382*
Y1388*
X1998Y1394*
X1991Y1397*
X1985Y1394*
X1982Y1388*
X2038Y1756D02*
Y2109D01*
X2219*
Y1756*
X2038*
X2028Y2275D02*
X1991D01*
Y2297*
X1994Y2303*
X2000Y2306*
X2006Y2303*
X2010Y2297*
Y2275*
Y2297D02*
X2028Y2306D01*
Y2331D02*
Y2344D01*
Y2338D02*
X1991D01*
X1997Y2331*
X2025Y2378D02*
X2028Y2384D01*
Y2391*
X2025Y2397*
X2019Y2400*
X2000*
X1994Y2397*
X1991Y2391*
Y2384*
X1994Y2378*
X2000Y2375*
X2019*
X2025Y2378*
X1994Y2397*
X2028Y2425D02*
X1991Y2450D01*
Y2425*
X2055Y3334D02*
Y2579D01*
X1807*
Y3334*
X2055*
X2051Y3496D02*
X2014D01*
Y3518*
X2017Y3524*
X2023Y3527*
X2029Y3524*
X2033Y3518*
Y3496*
Y3518D02*
X2051Y3527D01*
Y3552D02*
Y3565D01*
Y3558D02*
X2014D01*
X2020Y3552*
X2051Y3612D02*
X2014D01*
X2039Y3596*
Y3621*
X2048Y3646D02*
X2051Y3652D01*
Y3662*
X2048Y3668*
X2042Y3671*
X2039*
X2033Y3668*
X2029Y3662*
Y3646*
X2014*
Y3671*
X2066Y3673D02*
Y3513D01*
X2136*
Y3673*
X2066*
X2075Y1488D02*
Y1328D01*
X2145*
Y1488*
X2075*
X2108Y794D02*
G75*
G03X2091I-8D01*
G01*
G75*
G03X2108I8*
G01*
G36*
G75*
G03X2091I-8*
G01*
G75*
G03X2108I8*
G01*
G37*
X2120Y1314D02*
Y1286D01*
X2123Y1280*
X2130Y1277*
X2142*
X2148Y1280*
X2152Y1286*
Y1314*
X2173Y1280D02*
X2180Y1277D01*
X2186*
X2192Y1280*
X2195Y1286*
X2192Y1292*
X2186Y1295*
X2180*
X2186D02*
X2192Y1298D01*
X2195Y1305*
X2192Y1311*
X2186Y1314*
X2180*
X2173Y1311*
X2223Y1280D02*
X2230Y1277D01*
X2236*
X2242Y1280*
X2245Y1286*
Y1305*
X2242Y1311*
X2236Y1314*
X2230*
X2223Y1311*
X2220Y1305*
Y1286*
X2223Y1280*
X2242Y1311*
X2132Y1494D02*
X2094D01*
Y1516*
X2098Y1522*
X2104Y1525*
X2110Y1522*
X2113Y1516*
Y1494*
Y1516D02*
X2132Y1525D01*
Y1544D02*
X2094Y1569D01*
Y1544*
X2132Y1600D02*
Y1613D01*
Y1606D02*
X2094D01*
X2101Y1600*
X2149Y622D02*
X1949D01*
Y803*
X2149*
Y622*
X2151Y2282D02*
Y2442D01*
X2081*
Y2282*
X2151*
X2156Y1489D02*
Y1329D01*
X2226*
Y1489*
X2156*
X2186Y1188D02*
G75*
G03X2170I-8D01*
G01*
G75*
G03X2186I8*
G01*
G36*
G75*
G03X2170I-8*
G01*
G75*
G03X2186I8*
G01*
G37*
X2188Y788D02*
Y628D01*
X2258*
Y788*
X2188*
X2202Y3497D02*
X2165D01*
Y3519*
X2168Y3525*
X2174Y3528*
X2180Y3525*
X2183Y3519*
Y3497*
Y3519D02*
X2202Y3528D01*
Y3553D02*
Y3566D01*
Y3560D02*
X2165D01*
X2171Y3553*
X2202Y3613D02*
X2165D01*
X2190Y3597*
Y3622*
X2193Y3647D02*
X2187Y3650D01*
X2183Y3657*
Y3663*
X2187Y3669*
X2193Y3672*
X2199Y3669*
X2202Y3663*
Y3657*
X2199Y3650*
X2193Y3647*
X2183*
X2174Y3650*
X2168Y3657*
X2165Y3663*
X2212Y1759D02*
G75*
G03Y1773J7D01*
G01*
G75*
G03Y1759J-7*
G01*
G36*
G75*
G03Y1773J7*
G01*
G75*
G03Y1759J-7*
G01*
G37*
X2215Y3673D02*
Y3513D01*
X2285*
Y3673*
X2215*
X2216Y1739D02*
Y1711D01*
X2219Y1704*
X2226Y1701*
X2238*
X2244Y1704*
X2247Y1711*
Y1739*
X2276Y1720D02*
X2282D01*
X2288Y1723*
X2291Y1729*
X2288Y1736*
X2282Y1739*
X2276*
X2269Y1736*
X2266Y1729*
X2269Y1723*
X2276Y1720*
X2269Y1717*
X2266Y1711*
X2269Y1704*
X2276Y1701*
X2282*
X2288Y1704*
X2291Y1711*
X2288Y1717*
X2282Y1720*
X2212Y1498D02*
X2174D01*
Y1519*
X2177Y1526*
X2184Y1529*
X2190Y1526*
X2193Y1519*
Y1498*
Y1519D02*
X2212Y1529D01*
Y1548D02*
X2174Y1573D01*
Y1548*
X2209Y1601D02*
X2212Y1607D01*
Y1613*
X2209Y1619*
X2202Y1623*
X2196Y1619*
X2193Y1613*
Y1607*
Y1613D02*
X2190Y1619D01*
X2184Y1623*
X2177Y1619*
X2174Y1613*
Y1607*
X2177Y1601*
X2228Y1015D02*
X2028D01*
Y1196*
X2228*
Y1015*
X2230Y2282D02*
Y2442D01*
X2160*
Y2282*
X2230*
X2235Y436D02*
X2238Y433D01*
X2241Y427*
Y417*
X2238Y411*
X2235Y408*
X2228Y405*
X2216*
X2210Y408*
X2207Y411*
X2203Y417*
Y427*
X2207Y433*
X2210Y436*
X2241Y480D02*
Y455D01*
X2219Y477*
X2213Y480*
X2207Y477*
X2203Y471*
Y461*
X2207Y455*
X2238Y505D02*
X2241Y511D01*
Y521*
X2238Y527*
X2232Y530*
X2228*
X2222Y527*
X2219Y521*
Y505*
X2203*
Y530*
X2266Y1245D02*
Y1085D01*
X2336*
Y1245*
X2266*
X2305Y456D02*
Y428D01*
X2309Y421*
X2315Y418*
X2327*
X2334Y421*
X2337Y428*
Y456*
X2359Y421D02*
X2365Y418D01*
X2371*
X2377Y421*
X2380Y428*
X2377Y434*
X2371Y437*
X2365*
X2371D02*
X2377Y440D01*
X2380Y446*
X2377Y453*
X2371Y456*
X2365*
X2359Y453*
X2412Y418D02*
X2424D01*
X2418D02*
Y456D01*
X2412Y450*
X2309Y2282D02*
Y2442D01*
X2239*
Y2282*
X2309*
X2313Y1357D02*
X2317Y1354D01*
X2320Y1348*
Y1339*
X2317Y1332*
X2313Y1329*
X2307Y1326*
X2295*
X2288Y1329*
X2285Y1332*
X2282Y1339*
Y1348*
X2285Y1354*
X2288Y1357*
X2320Y1401D02*
Y1376D01*
X2298Y1398*
X2292Y1401*
X2285Y1398*
X2282Y1392*
Y1382*
X2285Y1376*
X2320Y1426D02*
X2282Y1451D01*
Y1426*
X2349Y2554D02*
Y2526D01*
X2352Y2520*
X2358Y2517*
X2371*
X2377Y2520*
X2380Y2526*
Y2554*
X2414Y2517D02*
Y2554D01*
X2399Y2529*
X2424*
X2464Y2517D02*
Y2554D01*
X2449Y2529*
X2474*
X2365Y3673D02*
Y3513D01*
X2435*
Y3673*
X2365*
X2356Y3491D02*
X2318D01*
Y3513*
X2321Y3519*
X2327Y3522*
X2334Y3519*
X2337Y3513*
Y3491*
Y3513D02*
X2356Y3522D01*
Y3547D02*
Y3560D01*
Y3553D02*
X2318D01*
X2324Y3547*
X2356Y3607D02*
X2318D01*
X2343Y3591*
Y3616*
X2356Y3641D02*
X2318Y3666D01*
Y3641*
X2381Y1489D02*
Y1329D01*
X2451*
Y1489*
X2381*
X2388Y2282D02*
Y2442D01*
X2318*
Y2282*
X2388*
X2413Y2013D02*
Y1853D01*
X2483*
Y2013*
X2413*
X2423Y794D02*
G75*
G03X2406I-8D01*
G01*
G75*
G03X2423I8*
G01*
G36*
G75*
G03X2406I-8*
G01*
G75*
G03X2423I8*
G01*
G37*
X2427Y1318D02*
Y1290D01*
X2431Y1284*
X2437Y1280*
X2449*
X2456Y1284*
X2459Y1290*
Y1318*
X2481Y1284D02*
X2487Y1280D01*
X2493*
X2499Y1284*
X2502Y1290*
X2499Y1296*
X2493Y1299*
X2487*
X2493D02*
X2499Y1302D01*
X2502Y1309*
X2499Y1315*
X2493Y1318*
X2487*
X2481Y1315*
X2552Y1280D02*
X2527D01*
X2549Y1302*
X2552Y1309*
X2549Y1315*
X2543Y1318*
X2534*
X2527Y1315*
X2434Y1498D02*
X2396D01*
Y1520*
X2399Y1526*
X2406Y1529*
X2412Y1526*
X2415Y1520*
Y1498*
Y1520D02*
X2434Y1529D01*
Y1548D02*
X2396Y1573D01*
Y1548*
X2424Y1598D02*
X2418Y1601D01*
X2415Y1607*
Y1614*
X2418Y1620*
X2424Y1623*
X2431Y1620*
X2434Y1614*
Y1607*
X2431Y1601*
X2424Y1598*
X2415*
X2406Y1601*
X2399Y1607*
X2396Y1614*
X2457Y3325D02*
G75*
G03Y3287J-19D01*
G01*
G75*
G03Y3325J19*
G01*
G36*
G75*
G03Y3287J-19*
G01*
G75*
G03Y3325J19*
G01*
G37*
X2459Y1489D02*
Y1329D01*
X2529*
Y1489*
X2459*
X2464Y622D02*
X2264D01*
Y803*
X2464*
Y622*
X2456Y1788D02*
X2460Y1785D01*
X2463Y1779*
Y1769*
X2460Y1763*
X2456Y1760*
X2450Y1757*
X2438*
X2431Y1760*
X2428Y1763*
X2425Y1769*
Y1779*
X2428Y1785*
X2431Y1788*
X2463Y1813D02*
Y1826D01*
Y1819D02*
X2425D01*
X2431Y1813*
X2495Y784D02*
Y624D01*
X2565*
Y784*
X2495*
X2501Y1188D02*
G75*
G03X2485I-8D01*
G01*
G75*
G03X2501I8*
G01*
G36*
G75*
G03X2485I-8*
G01*
G75*
G03X2501I8*
G01*
G37*
X2510Y3425D02*
X2513Y3421D01*
X2519Y3418*
X2526Y3421*
X2529Y3425*
Y3456*
X2535*
X2529D02*
X2516D01*
X2563Y3421D02*
X2569Y3418D01*
X2576*
X2582Y3421*
X2585Y3428*
X2582Y3434*
X2576Y3437*
X2569*
X2576D02*
X2582Y3440D01*
X2585Y3446*
X2582Y3453*
X2576Y3456*
X2569*
X2563Y3453*
X2503Y3496D02*
X2465D01*
Y3518*
X2468Y3524*
X2475Y3527*
X2481Y3524*
X2484Y3518*
Y3496*
Y3518D02*
X2503Y3527D01*
Y3552D02*
Y3565D01*
Y3558D02*
X2465D01*
X2471Y3552*
X2503Y3612D02*
X2465D01*
X2490Y3596*
Y3621*
X2484Y3655D02*
Y3662D01*
X2481Y3668*
X2475Y3671*
X2468Y3668*
X2465Y3662*
Y3655*
X2468Y3649*
X2475Y3646*
X2481Y3649*
X2484Y3655*
X2487Y3649*
X2493Y3646*
X2500Y3649*
X2503Y3655*
Y3662*
X2500Y3668*
X2493Y3671*
X2487Y3668*
X2484Y3662*
X2514Y3673D02*
Y3513D01*
X2584*
Y3673*
X2514*
X2515Y1497D02*
X2477D01*
Y1519*
X2481Y1525*
X2487Y1528*
X2493Y1525*
X2496Y1519*
Y1497*
Y1519D02*
X2515Y1528D01*
Y1547D02*
X2477Y1572D01*
Y1547*
X2515Y1597D02*
X2477Y1622D01*
Y1597*
X2543Y1015D02*
X2343D01*
Y1196*
X2543*
Y1015*
X2554Y476D02*
X2557Y472D01*
X2560Y466*
Y457*
X2557Y451*
X2554Y447*
X2547Y444*
X2535*
X2529Y447*
X2525Y451*
X2522Y457*
Y466*
X2525Y472*
X2529Y476*
X2557Y494D02*
X2560Y501D01*
Y510*
X2557Y516*
X2550Y519*
X2547*
X2541Y516*
X2538Y510*
Y494*
X2522*
Y519*
X2581Y1241D02*
Y1081D01*
X2651*
Y1241*
X2581*
X2627Y478D02*
Y450D01*
X2630Y444*
X2636Y441*
X2649*
X2655Y444*
X2658Y450*
Y478*
X2702Y441D02*
X2677D01*
X2699Y463*
X2702Y469*
X2699Y475*
X2692Y478*
X2683*
X2677Y475*
X2733Y441D02*
X2746D01*
X2739D02*
Y478D01*
X2733Y472*
X2628Y1365D02*
X2631Y1362D01*
X2635Y1356*
Y1347*
X2631Y1340*
X2628Y1337*
X2622Y1334*
X2610*
X2603Y1337*
X2600Y1340*
X2597Y1347*
Y1356*
X2600Y1362*
X2603Y1365*
X2635Y1409D02*
Y1384D01*
X2613Y1406*
X2606Y1409*
X2600Y1406*
X2597Y1400*
Y1390*
X2600Y1384*
X2635Y1440D02*
Y1453D01*
Y1447D02*
X2597D01*
X2603Y1440*
X2660Y3698D02*
X3908D01*
Y3940*
X2660*
Y3698*
X2685Y3334D02*
Y2579D01*
X2437*
Y3334*
X2685*
X2704Y1467D02*
Y1307D01*
X2774*
Y1467*
X2704*
X2712Y3501D02*
X2675D01*
Y3523*
X2678Y3529*
X2684Y3532*
X2690Y3529*
X2694Y3523*
Y3501*
Y3523D02*
X2712Y3532D01*
Y3557D02*
Y3570D01*
Y3563D02*
X2675D01*
X2681Y3557*
X2712Y3617D02*
X2675D01*
X2700Y3601*
Y3626*
X2709Y3654D02*
X2712Y3660D01*
Y3667*
X2709Y3673*
X2703Y3676*
X2684*
X2678Y3673*
X2675Y3667*
Y3660*
X2678Y3654*
X2684Y3651*
X2703*
X2709Y3654*
X2678Y3673*
X2723Y3673D02*
Y3513D01*
X2793*
Y3673*
X2723*
X2738Y794D02*
G75*
G03X2721I-8D01*
G01*
G75*
G03X2738I8*
G01*
G36*
G75*
G03X2721I-8*
G01*
G75*
G03X2738I8*
G01*
G37*
X2746Y1302D02*
Y1274D01*
X2749Y1268*
X2756Y1265*
X2768*
X2774Y1268*
X2778Y1274*
Y1302*
X2821Y1265D02*
X2796D01*
X2818Y1287*
X2821Y1293*
X2818Y1299*
X2812Y1302*
X2803*
X2796Y1299*
X2871Y1265D02*
X2846D01*
X2868Y1287*
X2871Y1293*
X2868Y1299*
X2862Y1302*
X2853*
X2846Y1299*
X2758Y1476D02*
X2721D01*
Y1498*
X2724Y1504*
X2730Y1507*
X2737Y1504*
X2740Y1498*
Y1476*
Y1498D02*
X2758Y1507D01*
X2749Y1526D02*
X2743Y1529D01*
X2740Y1535*
Y1542*
X2743Y1548*
X2749Y1551*
X2755Y1548*
X2758Y1542*
Y1535*
X2755Y1529*
X2749Y1526*
X2740*
X2730Y1529*
X2724Y1535*
X2721Y1542*
X2749Y1576D02*
X2743Y1579D01*
X2740Y1585*
Y1592*
X2743Y1598*
X2749Y1601*
X2755Y1598*
X2758Y1592*
Y1585*
X2755Y1579*
X2749Y1576*
X2740*
X2730Y1579*
X2724Y1585*
X2721Y1592*
X2761Y2031D02*
X2723D01*
Y2053*
X2726Y2059*
X2732Y2062*
X2739Y2059*
X2742Y2053*
Y2031*
Y2053D02*
X2761Y2062D01*
Y2087D02*
Y2100D01*
Y2093D02*
X2723D01*
X2729Y2087*
X2761Y2156D02*
Y2131D01*
X2739Y2153*
X2732Y2156*
X2726Y2153*
X2723Y2147*
Y2137*
X2726Y2131*
X2757Y2181D02*
X2761Y2187D01*
Y2197*
X2757Y2203*
X2751Y2206*
X2748*
X2742Y2203*
X2739Y2197*
Y2181*
X2723*
Y2206*
X2779Y622D02*
X2579D01*
Y803*
X2779*
Y622*
X2780Y1467D02*
Y1307D01*
X2850*
Y1467*
X2780*
X2781Y2293D02*
Y2453D01*
X2711*
Y2293*
X2781*
X2785Y795D02*
Y635D01*
X2855*
Y795*
X2785*
X2816Y1188D02*
G75*
G03X2800I-8D01*
G01*
G75*
G03X2816I8*
G01*
G36*
G75*
G03X2800I-8*
G01*
G75*
G03X2816I8*
G01*
G37*
X2835Y1476D02*
X2797D01*
Y1498*
X2800Y1504*
X2807Y1507*
X2813Y1504*
X2816Y1498*
Y1476*
Y1498D02*
X2835Y1507D01*
X2825Y1526D02*
X2819Y1529D01*
X2816Y1535*
Y1542*
X2819Y1548*
X2825Y1551*
X2832Y1548*
X2835Y1542*
Y1535*
X2832Y1529*
X2825Y1526*
X2816*
X2807Y1529*
X2800Y1535*
X2797Y1542*
X2832Y1576D02*
X2835Y1582D01*
Y1592*
X2832Y1598*
X2825Y1601*
X2822*
X2816Y1598*
X2813Y1592*
Y1576*
X2797*
Y1601*
X2830Y465D02*
X2833Y462D01*
X2836Y456*
Y446*
X2833Y440*
X2830Y437*
X2823Y434*
X2811*
X2805Y437*
X2801Y440*
X2798Y446*
Y456*
X2801Y462*
X2805Y465*
X2833Y487D02*
X2836Y493D01*
Y500*
X2833Y506*
X2826Y509*
X2820Y506*
X2817Y500*
Y493*
Y500D02*
X2814Y506D01*
X2808Y509*
X2801Y506*
X2798Y500*
Y493*
X2801Y487*
X2826Y534D02*
X2820Y537D01*
X2817Y543*
Y550*
X2820Y556*
X2826Y559*
X2833Y556*
X2836Y550*
Y543*
X2833Y537*
X2826Y534*
X2817*
X2808Y537*
X2801Y543*
X2798Y550*
X2843Y2031D02*
X2806D01*
Y2053*
X2809Y2059*
X2815Y2062*
X2821Y2059*
X2825Y2053*
Y2031*
Y2053D02*
X2843Y2062D01*
Y2087D02*
Y2100D01*
Y2093D02*
X2806D01*
X2812Y2087*
X2843Y2156D02*
Y2131D01*
X2821Y2153*
X2815Y2156*
X2809Y2153*
X2806Y2147*
Y2137*
X2809Y2131*
X2834Y2181D02*
X2828Y2184D01*
X2825Y2190*
Y2197*
X2828Y2203*
X2834Y2206*
X2840Y2203*
X2843Y2197*
Y2190*
X2840Y2184*
X2834Y2181*
X2825*
X2815Y2184*
X2809Y2190*
X2806Y2197*
X2858Y1015D02*
X2658D01*
Y1196*
X2858*
Y1015*
X2860Y2293D02*
Y2453D01*
X2790*
Y2293*
X2860*
X2865Y1217D02*
Y1057D01*
X2935*
Y1217*
X2865*
X2862Y3501D02*
X2825D01*
Y3523*
X2828Y3529*
X2834Y3532*
X2840Y3529*
X2843Y3523*
Y3501*
Y3523D02*
X2862Y3532D01*
Y3557D02*
Y3570D01*
Y3563D02*
X2825D01*
X2831Y3557*
X2859Y3604D02*
X2862Y3610D01*
Y3617*
X2859Y3623*
X2853Y3626*
X2847Y3623*
X2843Y3617*
Y3610*
Y3617D02*
X2840Y3623D01*
X2834Y3626*
X2828Y3623*
X2825Y3617*
Y3610*
X2828Y3604*
X2862Y3660D02*
X2859Y3667D01*
X2853Y3673*
X2843Y3676*
X2834*
X2828Y3673*
X2825Y3667*
Y3660*
X2828Y3654*
X2834Y3651*
X2840Y3654*
X2843Y3660*
Y3667*
X2840Y3673*
X2834Y3676*
X2873Y3673D02*
Y3513D01*
X2943*
Y3673*
X2873*
X2908Y468D02*
Y439D01*
X2911Y433*
X2917Y430*
X2930*
X2936Y433*
X2939Y439*
Y468*
X2983Y430D02*
X2958D01*
X2980Y452*
X2983Y458*
X2980Y464*
X2973Y468*
X2964*
X2958Y464*
X3011Y433D02*
X3017Y430D01*
X3023*
X3030Y433*
X3033Y439*
X3030Y446*
X3023Y449*
X3017*
X3023D02*
X3030Y452D01*
X3033Y458*
X3030Y464*
X3023Y468*
X3017*
X3011Y464*
X2908Y1338D02*
X2911Y1335D01*
X2914Y1328*
Y1319*
X2911Y1313*
X2908Y1310*
X2902Y1307*
X2889*
X2883Y1310*
X2880Y1313*
X2877Y1319*
Y1328*
X2880Y1335*
X2883Y1338*
X2914Y1382D02*
Y1357D01*
X2892Y1378*
X2886Y1382*
X2880Y1378*
X2877Y1372*
Y1363*
X2880Y1357*
X2911Y1410D02*
X2914Y1416D01*
Y1422*
X2911Y1428*
X2905Y1432*
X2898Y1428*
X2895Y1422*
Y1416*
Y1422D02*
X2892Y1428D01*
X2886Y1432*
X2880Y1428*
X2877Y1422*
Y1416*
X2880Y1410*
X2935Y246D02*
X1687D01*
Y4*
X2935*
Y246*
X2926Y2035D02*
X2888D01*
Y2057*
X2892Y2063*
X2898Y2066*
X2904Y2063*
X2907Y2057*
Y2035*
Y2057D02*
X2926Y2066D01*
Y2091D02*
Y2104D01*
Y2097D02*
X2888D01*
X2895Y2091*
X2926Y2160D02*
Y2135D01*
X2904Y2157*
X2898Y2160*
X2892Y2157*
X2888Y2151*
Y2141*
X2892Y2135*
X2926Y2185D02*
X2888Y2210D01*
Y2185*
X2939Y2293D02*
Y2453D01*
X2869*
Y2293*
X2939*
X2950Y272D02*
X2953Y269D01*
X2959Y266*
X2966Y269*
X2969Y272*
Y304*
X2975*
X2969D02*
X2956D01*
X3006Y266D02*
X3019D01*
X3013D02*
Y304D01*
X3006Y297*
X3053Y269D02*
X3059Y266D01*
X3066*
X3072Y269*
X3075Y275*
X3072Y282*
X3066Y285*
X3059*
X3066D02*
X3072Y288D01*
X3075Y294*
X3072Y300*
X3066Y304*
X3059*
X3053Y300*
X2970Y1474D02*
Y1314D01*
X3040*
Y1474*
X2970*
X2994Y2554D02*
Y2526D01*
X2997Y2520*
X3004Y2517*
X3016*
X3022Y2520*
X3026Y2526*
Y2554*
X3044Y2520D02*
X3051Y2517D01*
X3060*
X3066Y2520*
X3069Y2526*
Y2529*
X3066Y2535*
X3060Y2539*
X3044*
Y2554*
X3069*
X3001Y2035D02*
X2963D01*
Y2057*
X2966Y2063*
X2973Y2066*
X2979Y2063*
X2982Y2057*
Y2035*
Y2057D02*
X3001Y2066D01*
Y2091D02*
Y2104D01*
Y2097D02*
X2963D01*
X2969Y2091*
X3001Y2160D02*
Y2135D01*
X2979Y2157*
X2973Y2160*
X2966Y2157*
X2963Y2151*
Y2141*
X2966Y2135*
X2982Y2194D02*
Y2201D01*
X2979Y2207*
X2973Y2210*
X2966Y2207*
X2963Y2201*
Y2194*
X2966Y2188*
X2973Y2185*
X2979Y2188*
X2982Y2194*
X2985Y2188*
X2991Y2185*
X2998Y2188*
X3001Y2194*
Y2201*
X2998Y2207*
X2991Y2210*
X2985Y2207*
X2982Y2201*
X3018Y2293D02*
Y2453D01*
X2948*
Y2293*
X3018*
X3021Y795D02*
G75*
G03X3005I-8D01*
G01*
G75*
G03X3021I8*
G01*
G36*
G75*
G03X3005I-8*
G01*
G75*
G03X3021I8*
G01*
G37*
X3012Y3502D02*
X2974D01*
Y3524*
X2977Y3530*
X2984Y3533*
X2990Y3530*
X2993Y3524*
Y3502*
Y3524D02*
X3012Y3533D01*
Y3558D02*
Y3571D01*
Y3565D02*
X2974D01*
X2981Y3558*
X3009Y3605D02*
X3012Y3612D01*
Y3618*
X3009Y3624*
X3002Y3627*
X2996Y3624*
X2993Y3618*
Y3612*
Y3618D02*
X2990Y3624D01*
X2984Y3627*
X2977Y3624*
X2974Y3618*
Y3612*
X2977Y3605*
X2993Y3662D02*
Y3668D01*
X2990Y3674*
X2984Y3677*
X2977Y3674*
X2974Y3668*
Y3662*
X2977Y3655*
X2984Y3652*
X2990Y3655*
X2993Y3662*
X2996Y3655*
X3002Y3652*
X3009Y3655*
X3012Y3662*
Y3668*
X3009Y3674*
X3002Y3677*
X2996Y3674*
X2993Y3668*
X3022Y1306D02*
Y1278D01*
X3025Y1272*
X3031Y1269*
X3044*
X3050Y1272*
X3053Y1278*
Y1306*
X3097Y1269D02*
X3072D01*
X3094Y1291*
X3097Y1297*
X3094Y1303*
X3088Y1306*
X3078*
X3072Y1303*
X3138Y1269D02*
Y1306D01*
X3122Y1281*
X3147*
X3022Y3673D02*
Y3513D01*
X3092*
Y3673*
X3022*
X3023Y1481D02*
X2986D01*
Y1503*
X2989Y1509*
X2995Y1512*
X3001Y1509*
X3004Y1503*
Y1481*
Y1503D02*
X3023Y1512D01*
X3014Y1531D02*
X3007Y1534D01*
X3004Y1540*
Y1547*
X3007Y1553*
X3014Y1556*
X3020Y1553*
X3023Y1547*
Y1540*
X3020Y1534*
X3014Y1531*
X3004*
X2995Y1534*
X2989Y1540*
X2986Y1547*
X3023Y1597D02*
X2986D01*
X3011Y1581*
Y1606*
X3049Y1475D02*
Y1315D01*
X3119*
Y1475*
X3049*
X3063Y622D02*
X2863D01*
Y803*
X3063*
Y622*
X3085Y784D02*
Y624D01*
X3155*
Y784*
X3085*
X3086Y3325D02*
G75*
G03Y3287J-19D01*
G01*
G75*
G03Y3325J19*
G01*
G36*
G75*
G03Y3287J-19*
G01*
G75*
G03Y3325J19*
G01*
G37*
X3100Y1188D02*
G75*
G03X3083I-8D01*
G01*
G75*
G03X3100I8*
G01*
G36*
G75*
G03X3083I-8*
G01*
G75*
G03X3100I8*
G01*
G37*
X3103Y1485D02*
X3065D01*
Y1507*
X3069Y1513*
X3075Y1516*
X3081Y1513*
X3084Y1507*
Y1485*
Y1507D02*
X3103Y1516D01*
X3094Y1535D02*
X3087Y1538D01*
X3084Y1544*
Y1550*
X3087Y1557*
X3094Y1560*
X3100Y1557*
X3103Y1550*
Y1544*
X3100Y1538*
X3094Y1535*
X3084*
X3075Y1538*
X3069Y1544*
X3065Y1550*
X3100Y1588D02*
X3103Y1594D01*
Y1600*
X3100Y1607*
X3094Y1610*
X3087Y1607*
X3084Y1600*
Y1594*
Y1600D02*
X3081Y1607D01*
X3075Y1610*
X3069Y1607*
X3065Y1600*
Y1594*
X3069Y1588*
X3142Y1015D02*
X2942D01*
Y1196*
X3142*
Y1015*
X3136Y440D02*
X3139Y437D01*
X3142Y431*
Y421*
X3139Y415*
X3136Y412*
X3130Y409*
X3117*
X3111Y412*
X3108Y415*
X3105Y421*
Y431*
X3108Y437*
X3111Y440*
X3142Y465D02*
Y478D01*
Y471D02*
X3105D01*
X3111Y465*
X3139Y509D02*
X3142Y515D01*
Y525*
X3139Y531*
X3133Y534*
X3130*
X3124Y531*
X3121Y525*
Y509*
X3105*
Y534*
X3172Y1250D02*
Y1090D01*
X3242*
Y1250*
X3172*
X3165Y3497D02*
X3128D01*
Y3519*
X3131Y3525*
X3137Y3528*
X3143Y3525*
X3147Y3519*
Y3497*
Y3519D02*
X3165Y3528D01*
Y3553D02*
Y3566D01*
Y3560D02*
X3128D01*
X3134Y3553*
X3162Y3600D02*
X3165Y3607D01*
Y3613*
X3162Y3619*
X3156Y3622*
X3150Y3619*
X3147Y3613*
Y3607*
Y3613D02*
X3143Y3619D01*
X3137Y3622*
X3131Y3619*
X3128Y3613*
Y3607*
X3131Y3600*
X3165Y3647D02*
X3128Y3672D01*
Y3647*
X3176Y3673D02*
Y3513D01*
X3246*
Y3673*
X3176*
X3219Y1756D02*
Y2109D01*
X3400*
Y1756*
X3219*
X3223Y460D02*
Y432D01*
X3226Y425*
X3232Y422*
X3245*
X3251Y425*
X3254Y432*
Y460*
X3298Y422D02*
X3273D01*
X3295Y444*
X3298Y450*
X3295Y457*
X3288Y460*
X3279*
X3273Y457*
X3323Y425D02*
X3329Y422D01*
X3338*
X3345Y425*
X3348Y432*
Y435*
X3345Y441*
X3338Y444*
X3323*
Y460*
X3348*
X3219Y1365D02*
X3222Y1362D01*
X3225Y1356*
Y1347*
X3222Y1340*
X3219Y1337*
X3213Y1334*
X3200*
X3194Y1337*
X3191Y1340*
X3188Y1347*
Y1356*
X3191Y1362*
X3194Y1365*
X3222Y1387D02*
X3225Y1393D01*
Y1400*
X3222Y1406*
X3216Y1409*
X3210Y1406*
X3206Y1400*
Y1393*
Y1400D02*
X3203Y1406D01*
X3197Y1409*
X3191Y1406*
X3188Y1400*
Y1393*
X3191Y1387*
X3222Y1437D02*
X3225Y1443D01*
Y1450*
X3222Y1456*
X3216Y1459*
X3197*
X3191Y1456*
X3188Y1450*
Y1443*
X3191Y1437*
X3197Y1434*
X3216*
X3222Y1437*
X3191Y1456*
X3284Y1499D02*
Y1339D01*
X3354*
Y1499*
X3284*
X3284Y2291D02*
X3247D01*
Y2313*
X3250Y2319*
X3256Y2322*
X3262Y2319*
X3265Y2313*
Y2291*
Y2313D02*
X3284Y2322D01*
X3281Y2344D02*
X3284Y2350D01*
Y2356*
X3281Y2363*
X3275Y2366*
X3269Y2363*
X3265Y2356*
Y2350*
Y2356D02*
X3262Y2363D01*
X3256Y2366*
X3250Y2363*
X3247Y2356*
Y2350*
X3250Y2344*
X3275Y2391D02*
X3269Y2394D01*
X3265Y2400*
Y2406*
X3269Y2413*
X3275Y2416*
X3281Y2413*
X3284Y2406*
Y2400*
X3281Y2394*
X3275Y2391*
X3265*
X3256Y2394*
X3250Y2400*
X3247Y2406*
X3298Y2446D02*
Y2286D01*
X3368*
Y2446*
X3298*
X3315Y3334D02*
Y2579D01*
X3067*
Y3334*
X3315*
X3325Y3673D02*
Y3513D01*
X3395*
Y3673*
X3325*
X3317Y3495D02*
X3280D01*
Y3517*
X3283Y3523*
X3289Y3526*
X3296Y3523*
X3299Y3517*
Y3495*
Y3517D02*
X3317Y3526D01*
Y3551D02*
Y3563D01*
Y3557D02*
X3280D01*
X3286Y3551*
X3317Y3610D02*
X3280D01*
X3305Y3595*
Y3620*
X3317Y3660D02*
X3280D01*
X3305Y3645*
Y3670*
X3328Y794D02*
G75*
G03X3312I-8D01*
G01*
G75*
G03X3328I8*
G01*
G36*
G75*
G03X3312I-8*
G01*
G75*
G03X3328I8*
G01*
G37*
X3337Y1318D02*
Y1290D01*
X3340Y1284*
X3346Y1280*
X3359*
X3365Y1284*
X3368Y1290*
Y1318*
X3412Y1280D02*
X3387D01*
X3409Y1302*
X3412Y1309*
X3409Y1315*
X3403Y1318*
X3393*
X3387Y1315*
X3437Y1290D02*
X3440Y1296D01*
X3446Y1299*
X3453*
X3459Y1296*
X3462Y1290*
X3459Y1284*
X3453Y1280*
X3446*
X3440Y1284*
X3437Y1290*
Y1299*
X3440Y1309*
X3446Y1315*
X3453Y1318*
X3335Y1508D02*
X3298D01*
Y1530*
X3301Y1536*
X3307Y1539*
X3314Y1536*
X3317Y1530*
Y1508*
Y1530D02*
X3335Y1539D01*
X3326Y1558D02*
X3320Y1561D01*
X3317Y1567*
Y1574*
X3320Y1580*
X3326Y1583*
X3332Y1580*
X3335Y1574*
Y1567*
X3332Y1561*
X3326Y1558*
X3317*
X3307Y1561*
X3301Y1567*
X3298Y1574*
X3335Y1633D02*
Y1608D01*
X3314Y1630*
X3307Y1633*
X3301Y1630*
X3298Y1624*
Y1614*
X3301Y1608*
X3361Y1497D02*
Y1337D01*
X3431*
Y1497*
X3361*
X3370Y622D02*
X3170D01*
Y803*
X3370*
Y622*
X3377Y2446D02*
Y2286D01*
X3447*
Y2446*
X3377*
X3393Y1759D02*
G75*
G03Y1773J7D01*
G01*
G75*
G03Y1759J-7*
G01*
G36*
G75*
G03Y1773J7*
G01*
G75*
G03Y1759J-7*
G01*
G37*
X3399Y792D02*
Y632D01*
X3469*
Y792*
X3399*
X3407Y1188D02*
G75*
G03X3390I-8D01*
G01*
G75*
G03X3407I8*
G01*
G36*
G75*
G03X3390I-8*
G01*
G75*
G03X3407I8*
G01*
G37*
X3411Y1736D02*
Y1708D01*
X3414Y1702*
X3420Y1699*
X3432*
X3439Y1702*
X3442Y1708*
Y1736*
X3461Y1699D02*
X3486Y1736D01*
X3461*
X3414Y1507D02*
X3377D01*
Y1529*
X3380Y1535*
X3386Y1538*
X3392Y1535*
X3395Y1529*
Y1507*
Y1529D02*
X3414Y1538D01*
X3405Y1557D02*
X3398Y1560D01*
X3395Y1566*
Y1572*
X3398Y1579*
X3405Y1582*
X3411Y1579*
X3414Y1572*
Y1566*
X3411Y1560*
X3405Y1557*
X3395*
X3386Y1560*
X3380Y1566*
X3377Y1572*
X3414Y1613D02*
Y1625D01*
Y1619D02*
X3377D01*
X3383Y1613*
X3449Y1015D02*
X3249D01*
Y1196*
X3449*
Y1015*
X3455Y2446D02*
Y2286D01*
X3525*
Y2446*
X3455*
X3455Y428D02*
X3458Y425D01*
X3461Y419*
Y410*
X3458Y403*
X3455Y400*
X3449Y397*
X3436*
X3430Y400*
X3427Y403*
X3424Y410*
Y419*
X3427Y425*
X3430Y428*
X3458Y450D02*
X3461Y456D01*
Y463*
X3458Y469*
X3452Y472*
X3446Y469*
X3443Y463*
Y456*
Y463D02*
X3439Y469D01*
X3433Y472*
X3427Y469*
X3424Y463*
Y456*
X3427Y450*
X3458Y500D02*
X3461Y506D01*
Y513*
X3458Y519*
X3452Y522*
X3446Y519*
X3443Y513*
Y506*
Y513D02*
X3439Y519D01*
X3433Y522*
X3427Y519*
X3424Y513*
Y506*
X3427Y500*
X3475Y3673D02*
Y3513D01*
X3545*
Y3673*
X3475*
X3466Y3498D02*
X3428D01*
Y3520*
X3431Y3527*
X3438Y3530*
X3444Y3527*
X3447Y3520*
Y3498*
Y3520D02*
X3466Y3530D01*
Y3555D02*
Y3567D01*
Y3561D02*
X3428D01*
X3435Y3555*
X3466Y3614D02*
X3428D01*
X3453Y3598*
Y3623*
X3463Y3652D02*
X3466Y3658D01*
Y3664*
X3463Y3670*
X3456Y3673*
X3450Y3670*
X3447Y3664*
Y3658*
Y3664D02*
X3444Y3670D01*
X3438Y3673*
X3431Y3670*
X3428Y3664*
Y3658*
X3431Y3652*
X3487Y1245D02*
Y1085D01*
X3557*
Y1245*
X3487*
X3530Y464D02*
Y436D01*
X3533Y429*
X3539Y426*
X3552*
X3558Y429*
X3561Y436*
Y464*
X3586Y426D02*
X3599D01*
X3592D02*
Y464D01*
X3586Y457*
X3630Y429D02*
X3636Y426D01*
X3645*
X3652Y429*
X3655Y436*
Y439*
X3652Y445*
X3645Y448*
X3630*
Y464*
X3655*
X3534Y2446D02*
Y2286D01*
X3604*
Y2446*
X3534*
X3530Y1365D02*
X3533Y1362D01*
X3536Y1356*
Y1347*
X3533Y1340*
X3530Y1337*
X3524Y1334*
X3511*
X3505Y1337*
X3502Y1340*
X3499Y1347*
Y1356*
X3502Y1362*
X3505Y1365*
X3536Y1390D02*
Y1403D01*
Y1397D02*
X3499D01*
X3505Y1390*
X3536Y1459D02*
Y1434D01*
X3514Y1456*
X3508Y1459*
X3502Y1456*
X3499Y1450*
Y1440*
X3502Y1434*
X3599Y1473D02*
Y1313D01*
X3669*
Y1473*
X3599*
X3600Y2018D02*
Y1858D01*
X3670*
Y2018*
X3600*
X3620Y2558D02*
Y2530D01*
X3623Y2524*
X3630Y2521*
X3642*
X3648Y2524*
X3652Y2530*
Y2558*
X3670Y2530D02*
X3673Y2536D01*
X3680Y2539*
X3686*
X3692Y2536*
X3695Y2530*
X3692Y2524*
X3686Y2521*
X3680*
X3673Y2524*
X3670Y2530*
Y2539*
X3673Y2549*
X3680Y2555*
X3686Y2558*
X3614Y3500D02*
X3577D01*
Y3522*
X3580Y3528*
X3586Y3531*
X3592Y3528*
X3595Y3522*
Y3500*
Y3522D02*
X3614Y3531D01*
Y3556D02*
Y3568D01*
Y3562D02*
X3577D01*
X3583Y3556*
X3614Y3615D02*
X3577D01*
X3602Y3600*
Y3625*
X3614Y3675D02*
Y3650D01*
X3592Y3672*
X3586Y3675*
X3580Y3672*
X3577Y3665*
Y3656*
X3580Y3650*
X3625Y3673D02*
Y3513D01*
X3695*
Y3673*
X3625*
X3643Y794D02*
G75*
G03X3627I-8D01*
G01*
G75*
G03X3643I8*
G01*
G36*
G75*
G03X3627I-8*
G01*
G75*
G03X3643I8*
G01*
G37*
X3660Y1306D02*
Y1278D01*
X3663Y1272*
X3669Y1269*
X3682*
X3688Y1272*
X3691Y1278*
Y1306*
X3716Y1269D02*
X3728D01*
X3722D02*
Y1306D01*
X3716Y1300*
X3760Y1278D02*
X3763Y1284D01*
X3769Y1287*
X3775*
X3782Y1284*
X3785Y1278*
X3782Y1272*
X3775Y1269*
X3769*
X3763Y1272*
X3760Y1278*
Y1287*
X3763Y1297*
X3769Y1303*
X3775Y1306*
X3650Y2291D02*
X3613D01*
Y2313*
X3616Y2319*
X3622Y2322*
X3628Y2319*
X3632Y2313*
Y2291*
Y2313D02*
X3650Y2322D01*
X3647Y2344D02*
X3650Y2350D01*
Y2356*
X3647Y2363*
X3641Y2366*
X3635Y2363*
X3632Y2356*
Y2350*
Y2356D02*
X3628Y2363D01*
X3622Y2366*
X3616Y2363*
X3613Y2356*
Y2350*
X3616Y2344*
X3650Y2391D02*
X3613Y2416D01*
Y2391*
X3651Y1484D02*
X3613D01*
Y1505*
X3616Y1512*
X3623Y1515*
X3629Y1512*
X3632Y1505*
Y1484*
Y1505D02*
X3651Y1515D01*
X3648Y1534D02*
X3651Y1540D01*
Y1549*
X3648Y1555*
X3641Y1559*
X3638*
X3632Y1555*
X3629Y1549*
Y1534*
X3613*
Y1559*
X3648Y1584D02*
X3651Y1590D01*
Y1599*
X3648Y1605*
X3641Y1609*
X3638*
X3632Y1605*
X3629Y1599*
Y1584*
X3613*
Y1609*
X3645Y1783D02*
X3648Y1780D01*
X3651Y1774*
Y1764*
X3648Y1758*
X3645Y1755*
X3638Y1752*
X3626*
X3620Y1755*
X3616Y1758*
X3613Y1764*
Y1774*
X3616Y1780*
X3620Y1783*
X3648Y1805D02*
X3651Y1811D01*
Y1818*
X3648Y1824*
X3641Y1827*
X3635Y1824*
X3632Y1818*
Y1811*
Y1818D02*
X3629Y1824D01*
X3623Y1827*
X3616Y1824*
X3613Y1818*
Y1811*
X3616Y1805*
X3678Y1473D02*
Y1313D01*
X3748*
Y1473*
X3678*
X3685Y622D02*
X3485D01*
Y803*
X3685*
Y622*
X3694Y2291D02*
X3656D01*
Y2313*
X3659Y2319*
X3666Y2322*
X3672Y2319*
X3675Y2313*
Y2291*
Y2313D02*
X3694Y2322D01*
X3691Y2344D02*
X3694Y2350D01*
Y2356*
X3691Y2363*
X3684Y2366*
X3678Y2363*
X3675Y2356*
Y2350*
Y2356D02*
X3672Y2363D01*
X3666Y2366*
X3659Y2363*
X3656Y2356*
Y2350*
X3659Y2344*
X3675Y2400D02*
Y2406D01*
X3672Y2413*
X3666Y2416*
X3659Y2413*
X3656Y2406*
Y2400*
X3659Y2394*
X3666Y2391*
X3672Y2394*
X3675Y2400*
X3678Y2394*
X3684Y2391*
X3691Y2394*
X3694Y2400*
Y2406*
X3691Y2413*
X3684Y2416*
X3678Y2413*
X3675Y2406*
X3711Y788D02*
Y628D01*
X3781*
Y788*
X3711*
X3716Y3325D02*
G75*
G03Y3287J-19D01*
G01*
G75*
G03Y3325J19*
G01*
G36*
G75*
G03Y3287J-19*
G01*
G75*
G03Y3325J19*
G01*
G37*
X3722Y1188D02*
G75*
G03X3705I-8D01*
G01*
G75*
G03X3722I8*
G01*
G36*
G75*
G03X3705I-8*
G01*
G75*
G03X3722I8*
G01*
G37*
X3726Y1482D02*
X3688D01*
Y1504*
X3691Y1510*
X3698Y1514*
X3704Y1510*
X3707Y1504*
Y1482*
Y1504D02*
X3726Y1514D01*
X3723Y1532D02*
X3726Y1539D01*
Y1548*
X3723Y1554*
X3716Y1557*
X3713*
X3707Y1554*
X3704Y1548*
Y1532*
X3688*
Y1557*
X3716Y1582D02*
X3710Y1585D01*
X3707Y1592*
Y1598*
X3710Y1604*
X3716Y1607*
X3723Y1604*
X3726Y1598*
Y1592*
X3723Y1585*
X3716Y1582*
X3707*
X3698Y1585*
X3691Y1592*
X3688Y1598*
X3745Y2291D02*
X3707D01*
Y2313*
X3710Y2319*
X3717Y2322*
X3723Y2319*
X3726Y2313*
Y2291*
Y2313D02*
X3745Y2322D01*
X3742Y2344D02*
X3745Y2350D01*
Y2356*
X3742Y2363*
X3735Y2366*
X3729Y2363*
X3726Y2356*
Y2350*
Y2356D02*
X3723Y2363D01*
X3717Y2366*
X3710Y2363*
X3707Y2356*
Y2350*
X3710Y2344*
X3745Y2400D02*
X3742Y2406D01*
X3735Y2413*
X3726Y2416*
X3717*
X3710Y2413*
X3707Y2406*
Y2400*
X3710Y2394*
X3717Y2391*
X3723Y2394*
X3726Y2400*
Y2406*
X3723Y2413*
X3717Y2416*
X3764Y1015D02*
X3564D01*
Y1196*
X3764*
Y1015*
X3758Y3501D02*
X3720D01*
Y3523*
X3723Y3529*
X3729Y3532*
X3736Y3529*
X3739Y3523*
Y3501*
Y3523D02*
X3758Y3532D01*
Y3557D02*
Y3570D01*
Y3563D02*
X3720D01*
X3726Y3557*
X3758Y3617D02*
X3720D01*
X3745Y3601*
Y3626*
X3758Y3657D02*
Y3670D01*
Y3663D02*
X3720D01*
X3726Y3657*
X3774Y3432D02*
X3777Y3429D01*
X3783Y3426*
X3790Y3429*
X3793Y3432*
Y3464*
X3799*
X3793D02*
X3780D01*
X3840Y3426D02*
Y3464D01*
X3824Y3439*
X3849*
X3774Y3673D02*
Y3513D01*
X3844*
Y3673*
X3774*
X3766Y440D02*
X3769Y437D01*
X3772Y431*
Y421*
X3769Y415*
X3766Y412*
X3760Y409*
X3747*
X3741Y412*
X3738Y415*
X3735Y421*
Y431*
X3738Y437*
X3741Y440*
X3772Y465D02*
Y478D01*
Y471D02*
X3735D01*
X3741Y465*
X3772Y518D02*
X3769Y525D01*
X3763Y531*
X3754Y534*
X3744*
X3738Y531*
X3735Y525*
Y518*
X3738Y512*
X3744Y509*
X3751Y512*
X3754Y518*
Y525*
X3751Y531*
X3744Y534*
X3798Y1247D02*
Y1087D01*
X3868*
Y1247*
X3798*
X3845Y452D02*
Y424D01*
X3848Y417*
X3854Y414*
X3867*
X3873Y417*
X3876Y424*
Y452*
X3901Y414D02*
X3914D01*
X3907D02*
Y452D01*
X3901Y446*
X3945Y414D02*
X3970Y452D01*
X3945*
X3837Y1346D02*
X3840Y1343D01*
X3843Y1336*
Y1327*
X3840Y1321*
X3837Y1318*
X3831Y1314*
X3818*
X3812Y1318*
X3809Y1321*
X3806Y1327*
Y1336*
X3809Y1343*
X3812Y1346*
X3843Y1371D02*
Y1383D01*
Y1377D02*
X3806D01*
X3812Y1371*
X3834Y1414D02*
X3828Y1418D01*
X3825Y1424*
Y1430*
X3828Y1436*
X3834Y1439*
X3840Y1436*
X3843Y1430*
Y1424*
X3840Y1418*
X3834Y1414*
X3825*
X3815Y1418*
X3809Y1424*
X3806Y1430*
X3898Y1362D02*
X3861D01*
Y1384*
X3864Y1390*
X3870Y1393*
X3876Y1390*
X3880Y1384*
Y1362*
Y1384D02*
X3898Y1393D01*
X3895Y1412D02*
X3898Y1418D01*
Y1427*
X3895Y1434*
X3889Y1437*
X3886*
X3880Y1434*
X3876Y1427*
Y1412*
X3861*
Y1437*
X3898Y1462D02*
X3861Y1487D01*
Y1462*
X3916Y1505D02*
Y1345D01*
X3986*
Y1505*
X3916*
X3920Y3698D02*
X5168D01*
Y3940*
X3920*
Y3698*
X3924Y2426D02*
Y2266D01*
X3994*
Y2426*
X3924*
X3945Y3334D02*
Y2579D01*
X3697*
Y3334*
X3945*
X3958Y794D02*
G75*
G03X3942I-8D01*
G01*
G75*
G03X3958I8*
G01*
G36*
G75*
G03X3942I-8*
G01*
G75*
G03X3958I8*
G01*
G37*
X3969Y3499D02*
X3932D01*
Y3521*
X3935Y3528*
X3941Y3531*
X3947Y3528*
X3950Y3521*
Y3499*
Y3521D02*
X3969Y3531D01*
Y3556D02*
Y3568D01*
Y3562D02*
X3932D01*
X3938Y3556*
X3960Y3599D02*
X3954Y3603D01*
X3950Y3609*
Y3615*
X3954Y3621*
X3960Y3624*
X3966Y3621*
X3969Y3615*
Y3609*
X3966Y3603*
X3960Y3599*
X3950*
X3941Y3603*
X3935Y3609*
X3932Y3615*
X3966Y3653D02*
X3969Y3659D01*
Y3665*
X3966Y3671*
X3960Y3674*
X3941*
X3935Y3671*
X3932Y3665*
Y3659*
X3935Y3653*
X3941Y3649*
X3960*
X3966Y3653*
X3935Y3671*
X3982Y3673D02*
Y3513D01*
X4052*
Y3673*
X3982*
X3977Y2062D02*
X3940D01*
Y2084*
X3943Y2091*
X3949Y2094*
X3955Y2091*
X3958Y2084*
Y2062*
Y2084D02*
X3977Y2094D01*
Y2128D02*
X3940D01*
X3965Y2112*
Y2137*
X3958Y2172D02*
Y2178D01*
X3955Y2184*
X3949Y2187*
X3943Y2184*
X3940Y2178*
Y2172*
X3943Y2166*
X3949Y2162*
X3955Y2166*
X3958Y2172*
X3961Y2166*
X3968Y2162*
X3974Y2166*
X3977Y2172*
Y2178*
X3974Y2184*
X3968Y2187*
X3961Y2184*
X3958Y2178*
X3995Y1505D02*
Y1345D01*
X4065*
Y1505*
X3995*
X4000Y622D02*
X3800D01*
Y803*
X4000*
Y622*
X4003Y2426D02*
Y2266D01*
X4073*
Y2426*
X4003*
X4036Y795D02*
Y635D01*
X4106*
Y795*
X4036*
X4037Y1188D02*
G75*
G03X4020I-8D01*
G01*
G75*
G03X4037I8*
G01*
G36*
G75*
G03X4020I-8*
G01*
G75*
G03X4037I8*
G01*
G37*
X4060Y861D02*
Y889D01*
X4057Y895*
X4051Y898*
X4038*
X4032Y895*
X4029Y889*
Y861*
X4004Y898D02*
X3991D01*
X3998D02*
Y861D01*
X4004Y867*
X3951Y879D02*
X3944D01*
X3938Y876*
X3935Y870*
X3938Y864*
X3944Y861*
X3951*
X3957Y864*
X3960Y870*
X3957Y876*
X3951Y879*
X3957Y883*
X3960Y889*
X3957Y895*
X3951Y898*
X3944*
X3938Y895*
X3935Y889*
X3938Y883*
X3944Y879*
X4056Y2062D02*
X4018D01*
Y2084*
X4021Y2091*
X4028Y2094*
X4034Y2091*
X4037Y2084*
Y2062*
Y2084D02*
X4056Y2094D01*
Y2128D02*
X4018D01*
X4043Y2112*
Y2137*
X4056Y2172D02*
X4053Y2178D01*
X4046Y2184*
X4037Y2187*
X4028*
X4021Y2184*
X4018Y2178*
Y2172*
X4021Y2166*
X4028Y2162*
X4034Y2166*
X4037Y2172*
Y2178*
X4034Y2184*
X4028Y2187*
X4079Y1015D02*
X3879D01*
Y1196*
X4079*
Y1015*
X4081Y2426D02*
Y2266D01*
X4151*
Y2426*
X4081*
X4085Y440D02*
X4088Y437D01*
X4091Y431*
Y421*
X4088Y415*
X4085Y412*
X4079Y409*
X4066*
X4060Y412*
X4057Y415*
X4054Y421*
Y431*
X4057Y437*
X4060Y440*
X4088Y462D02*
X4091Y468D01*
Y475*
X4088Y481*
X4082Y484*
X4076Y481*
X4073Y475*
Y468*
Y475D02*
X4069Y481D01*
X4063Y484*
X4057Y481*
X4054Y475*
Y468*
X4057Y462*
X4091Y525D02*
X4054D01*
X4079Y509*
Y534*
X4117Y1250D02*
Y1090D01*
X4187*
Y1250*
X4117*
X4115Y1346D02*
X4077D01*
Y1368*
X4081Y1374*
X4087Y1377*
X4093Y1374*
X4096Y1368*
Y1346*
Y1368D02*
X4115Y1377D01*
X4112Y1396D02*
X4115Y1402D01*
Y1412*
X4112Y1418*
X4106Y1421*
X4102*
X4096Y1418*
X4093Y1412*
Y1396*
X4077*
Y1421*
X4096Y1455D02*
Y1462D01*
X4093Y1468*
X4087Y1471*
X4081Y1468*
X4077Y1462*
Y1455*
X4081Y1449*
X4087Y1446*
X4093Y1449*
X4096Y1455*
X4099Y1449*
X4106Y1446*
X4112Y1449*
X4115Y1455*
Y1462*
X4112Y1468*
X4106Y1471*
X4099Y1468*
X4096Y1462*
X4118Y3493D02*
X4081D01*
Y3515*
X4084Y3522*
X4090Y3525*
X4096Y3522*
X4100Y3515*
Y3493*
Y3515D02*
X4118Y3525D01*
Y3550D02*
Y3562D01*
Y3556D02*
X4081D01*
X4087Y3550*
X4115Y3593D02*
X4118Y3600D01*
Y3609*
X4115Y3615*
X4109Y3618*
X4106*
X4100Y3615*
X4096Y3609*
Y3593*
X4081*
Y3618*
X4118Y3653D02*
X4115Y3659D01*
X4109Y3665*
X4100Y3668*
X4090*
X4084Y3665*
X4081Y3659*
Y3653*
X4084Y3647*
X4090Y3643*
X4096Y3647*
X4100Y3653*
Y3659*
X4096Y3665*
X4090Y3668*
X4133Y3673D02*
Y3513D01*
X4203*
Y3673*
X4133*
X4135Y2066D02*
X4097D01*
Y2088*
X4100Y2095*
X4106Y2098*
X4113Y2095*
X4116Y2088*
Y2066*
Y2088D02*
X4135Y2098D01*
X4131Y2116D02*
X4135Y2123D01*
Y2132*
X4131Y2138*
X4125Y2141*
X4122*
X4116Y2138*
X4113Y2132*
Y2116*
X4097*
Y2141*
X4131Y2170D02*
X4135Y2176D01*
Y2182*
X4131Y2188*
X4125Y2191*
X4106*
X4100Y2188*
X4097Y2182*
Y2176*
X4100Y2170*
X4106Y2166*
X4125*
X4131Y2170*
X4100Y2188*
X4152Y448D02*
Y420D01*
X4155Y414*
X4161Y410*
X4174*
X4180Y414*
X4183Y420*
Y448*
X4208Y410D02*
X4221D01*
X4214D02*
Y448D01*
X4208Y442*
X4261Y410D02*
X4267Y414D01*
X4274Y420*
X4277Y429*
Y439*
X4274Y445*
X4267Y448*
X4261*
X4255Y445*
X4252Y439*
X4255Y432*
X4261Y429*
X4267*
X4274Y432*
X4277Y439*
X4160Y2426D02*
Y2266D01*
X4230*
Y2426*
X4160*
X4156Y1361D02*
X4159Y1358D01*
X4162Y1352*
Y1343*
X4159Y1336*
X4156Y1333*
X4150Y1330*
X4137*
X4131Y1333*
X4128Y1336*
X4125Y1343*
Y1352*
X4128Y1358*
X4131Y1361*
X4162Y1390D02*
X4159Y1396D01*
X4153Y1402*
X4143Y1405*
X4134*
X4128Y1402*
X4125Y1396*
Y1390*
X4128Y1383*
X4134Y1380*
X4140Y1383*
X4143Y1390*
Y1396*
X4140Y1402*
X4134Y1405*
X4195Y246D02*
X2947D01*
Y4*
X4195*
Y246*
X4211Y272D02*
X4214Y269D01*
X4220Y266*
X4226Y269*
X4229Y272*
Y304*
X4236*
X4229D02*
X4217D01*
X4267Y266D02*
X4279D01*
X4273D02*
Y304D01*
X4267Y297*
X4326Y266D02*
Y304D01*
X4311Y279*
X4336*
X4217Y2070D02*
X4180D01*
Y2092*
X4183Y2098*
X4189Y2102*
X4195Y2098*
X4199Y2092*
Y2070*
Y2092D02*
X4217Y2102D01*
X4214Y2120D02*
X4217Y2127D01*
Y2136*
X4214Y2142*
X4208Y2145*
X4205*
X4199Y2142*
X4195Y2136*
Y2120*
X4180*
Y2145*
X4217Y2177D02*
Y2189D01*
Y2183D02*
X4180D01*
X4186Y2177*
X4227Y1504D02*
Y1344D01*
X4297*
Y1504*
X4227*
X4254Y2546D02*
Y2518D01*
X4257Y2512*
X4264Y2509*
X4276*
X4282Y2512*
X4285Y2518*
Y2546*
X4320Y2509D02*
Y2546D01*
X4304Y2521*
X4329*
X4360Y2509D02*
X4373D01*
X4367D02*
Y2546D01*
X4360Y2540*
X4273Y793D02*
G75*
G03X4257I-8D01*
G01*
G75*
G03X4273I8*
G01*
G36*
G75*
G03X4257I-8*
G01*
G75*
G03X4273I8*
G01*
G37*
X4264Y3501D02*
X4227D01*
Y3523*
X4230Y3529*
X4236Y3532*
X4242Y3529*
X4245Y3523*
Y3501*
Y3523D02*
X4264Y3532D01*
Y3557D02*
Y3570D01*
Y3563D02*
X4227D01*
X4233Y3557*
X4261Y3601D02*
X4264Y3607D01*
Y3617*
X4261Y3623*
X4255Y3626*
X4252*
X4245Y3623*
X4242Y3617*
Y3601*
X4227*
Y3626*
X4245Y3660D02*
Y3667D01*
X4242Y3673*
X4236Y3676*
X4230Y3673*
X4227Y3667*
Y3660*
X4230Y3654*
X4236Y3651*
X4242Y3654*
X4245Y3660*
X4249Y3654*
X4255Y3651*
X4261Y3654*
X4264Y3660*
Y3667*
X4261Y3673*
X4255Y3676*
X4249Y3673*
X4245Y3667*
X4282Y1322D02*
Y1294D01*
X4285Y1288*
X4291Y1284*
X4304*
X4310Y1288*
X4313Y1294*
Y1322*
X4357Y1284D02*
X4332D01*
X4354Y1306*
X4357Y1313*
X4354Y1319*
X4347Y1322*
X4338*
X4332Y1319*
X4385Y1288D02*
X4391Y1284D01*
X4397*
X4404Y1288*
X4407Y1294*
Y1313*
X4404Y1319*
X4397Y1322*
X4391*
X4385Y1319*
X4382Y1313*
Y1294*
X4385Y1288*
X4404Y1319*
X4282Y3673D02*
Y3513D01*
X4352*
Y3673*
X4282*
X4278Y1556D02*
X4240D01*
Y1578*
X4243Y1584*
X4250Y1587*
X4256Y1584*
X4259Y1578*
Y1556*
Y1578D02*
X4278Y1587D01*
X4275Y1606D02*
X4278Y1612D01*
Y1622*
X4275Y1628*
X4268Y1631*
X4265*
X4259Y1628*
X4256Y1622*
Y1606*
X4240*
Y1631*
X4278Y1666D02*
X4275Y1672D01*
X4268Y1678*
X4259Y1681*
X4250*
X4243Y1678*
X4240Y1672*
Y1666*
X4243Y1659*
X4250Y1656*
X4256Y1659*
X4259Y1666*
Y1672*
X4256Y1678*
X4250Y1681*
X4306Y1505D02*
Y1345D01*
X4376*
Y1505*
X4306*
X4315Y620D02*
X4115D01*
Y802*
X4315*
Y620*
X4346Y3325D02*
G75*
G03Y3287J-19D01*
G01*
G75*
G03Y3325J19*
G01*
G36*
G75*
G03Y3287J-19*
G01*
G75*
G03Y3325J19*
G01*
G37*
X4348Y791D02*
Y631D01*
X4418*
Y791*
X4348*
X4352Y1188D02*
G75*
G03X4335I-8D01*
G01*
G75*
G03X4352I8*
G01*
G36*
G75*
G03X4335I-8*
G01*
G75*
G03X4352I8*
G01*
G37*
X4359Y1557D02*
X4321D01*
Y1579*
X4325Y1586*
X4331Y1589*
X4337Y1586*
X4340Y1579*
Y1557*
Y1579D02*
X4359Y1589D01*
X4350Y1607D02*
X4343Y1611D01*
X4340Y1617*
Y1623*
X4343Y1629*
X4350Y1632*
X4356Y1629*
X4359Y1623*
Y1617*
X4356Y1611*
X4350Y1607*
X4340*
X4331Y1611*
X4325Y1617*
X4321Y1623*
X4356Y1661D02*
X4359Y1667D01*
Y1673*
X4356Y1679*
X4350Y1682*
X4331*
X4325Y1679*
X4321Y1673*
Y1667*
X4325Y1661*
X4331Y1657*
X4350*
X4356Y1661*
X4325Y1679*
X4394Y1015D02*
X4194D01*
Y1196*
X4394*
Y1015*
X4400Y1756D02*
Y2109D01*
X4581*
Y1756*
X4400*
X4400Y444D02*
X4403Y441D01*
X4406Y435*
Y425*
X4403Y419*
X4400Y416*
X4394Y413*
X4381*
X4375Y416*
X4372Y419*
X4369Y425*
Y435*
X4372Y441*
X4375Y444*
X4406Y469D02*
Y482D01*
Y475D02*
X4369D01*
X4375Y469*
X4406Y519D02*
Y532D01*
Y525D02*
X4369D01*
X4375Y519*
X4414Y3496D02*
X4376D01*
Y3518*
X4379Y3524*
X4386Y3527*
X4392Y3524*
X4395Y3518*
Y3496*
Y3518D02*
X4414Y3527D01*
Y3552D02*
Y3565D01*
Y3558D02*
X4376D01*
X4382Y3552*
X4411Y3596D02*
X4414Y3602D01*
Y3612*
X4411Y3618*
X4404Y3621*
X4401*
X4395Y3618*
X4392Y3612*
Y3596*
X4376*
Y3621*
X4414Y3646D02*
X4376Y3671D01*
Y3646*
X4432Y3673D02*
Y3513D01*
X4502*
Y3673*
X4432*
X4433Y1247D02*
Y1087D01*
X4503*
Y1247*
X4433*
X4442Y2291D02*
X4404D01*
Y2313*
X4407Y2319*
X4414Y2322*
X4420Y2319*
X4423Y2313*
Y2291*
Y2313D02*
X4442Y2322D01*
Y2350D02*
X4439Y2356D01*
X4432Y2363*
X4423Y2366*
X4414*
X4407Y2363*
X4404Y2356*
Y2350*
X4407Y2344*
X4414Y2341*
X4420Y2344*
X4423Y2350*
Y2356*
X4420Y2363*
X4414Y2366*
X4442Y2416D02*
Y2391D01*
X4420Y2413*
X4414Y2416*
X4407Y2413*
X4404Y2406*
Y2397*
X4407Y2391*
X4471Y468D02*
Y439D01*
X4474Y433*
X4480Y430*
X4493*
X4499Y433*
X4502Y439*
Y468*
X4527Y430D02*
X4539D01*
X4533D02*
Y468D01*
X4527Y461*
X4586Y430D02*
Y468D01*
X4571Y443*
X4596*
X4479Y1357D02*
X4482Y1354D01*
X4485Y1348*
Y1339*
X4482Y1332*
X4479Y1329*
X4472Y1326*
X4460*
X4454Y1329*
X4451Y1332*
X4447Y1339*
Y1348*
X4451Y1354*
X4454Y1357*
X4485Y1382D02*
Y1395D01*
Y1389D02*
X4447D01*
X4454Y1382*
X4482Y1429D02*
X4485Y1436D01*
Y1442*
X4482Y1448*
X4476Y1451*
X4457*
X4451Y1448*
X4447Y1442*
Y1436*
X4451Y1429*
X4457Y1426*
X4476*
X4482Y1429*
X4451Y1448*
X4493Y2291D02*
X4455D01*
Y2313*
X4458Y2319*
X4465Y2322*
X4471Y2319*
X4474Y2313*
Y2291*
Y2313D02*
X4493Y2322D01*
Y2350D02*
X4490Y2356D01*
X4483Y2363*
X4474Y2366*
X4465*
X4458Y2363*
X4455Y2356*
Y2350*
X4458Y2344*
X4465Y2341*
X4471Y2344*
X4474Y2350*
Y2356*
X4471Y2363*
X4465Y2366*
X4493Y2397D02*
Y2410D01*
Y2403D02*
X4455D01*
X4462Y2397*
X4544Y1492D02*
Y1332D01*
X4614*
Y1492*
X4544*
X4546Y1731D02*
Y1703D01*
X4549Y1697*
X4555Y1694*
X4567*
X4574Y1697*
X4577Y1703*
Y1731*
X4621Y1694D02*
X4596D01*
X4617Y1716*
X4621Y1722*
X4617Y1728*
X4611Y1731*
X4602*
X4596Y1728*
X4572Y2271D02*
Y2431D01*
X4502*
Y2271*
X4572*
X4574Y1759D02*
G75*
G03Y1773J7D01*
G01*
G75*
G03Y1759J-7*
G01*
G36*
G75*
G03Y1773J7*
G01*
G75*
G03Y1759J-7*
G01*
G37*
X4575Y3334D02*
Y2579D01*
X4327*
Y3334*
X4575*
X4570Y3498D02*
X4532D01*
Y3520*
X4535Y3527*
X4542Y3530*
X4548Y3527*
X4551Y3520*
Y3498*
Y3520D02*
X4570Y3530D01*
Y3555D02*
Y3567D01*
Y3561D02*
X4532D01*
X4539Y3555*
X4567Y3598D02*
X4570Y3605D01*
Y3614*
X4567Y3620*
X4560Y3623*
X4557*
X4551Y3620*
X4548Y3614*
Y3598*
X4532*
Y3623*
X4560Y3648D02*
X4554Y3652D01*
X4551Y3658*
Y3664*
X4554Y3670*
X4560Y3673*
X4567Y3670*
X4570Y3664*
Y3658*
X4567Y3652*
X4560Y3648*
X4551*
X4542Y3652*
X4535Y3658*
X4532Y3664*
X4585Y3673D02*
Y3513D01*
X4655*
Y3673*
X4585*
X4588Y794D02*
G75*
G03X4572I-8D01*
G01*
G75*
G03X4588I8*
G01*
G36*
G75*
G03X4572I-8*
G01*
G75*
G03X4588I8*
G01*
G37*
X4598Y1546D02*
X4560D01*
Y1568*
X4564Y1574*
X4570Y1577*
X4576Y1574*
X4579Y1568*
Y1546*
Y1568D02*
X4598Y1577D01*
X4595Y1596D02*
X4598Y1602D01*
Y1611*
X4595Y1618*
X4589Y1621*
X4585*
X4579Y1618*
X4576Y1611*
Y1596*
X4560*
Y1621*
X4598Y1661D02*
X4560D01*
X4585Y1646*
Y1671*
X4612Y1318D02*
Y1290D01*
X4616Y1284*
X4622Y1280*
X4634*
X4641Y1284*
X4644Y1290*
Y1318*
X4669Y1280D02*
X4681D01*
X4675D02*
Y1318D01*
X4669Y1312*
X4716Y1284D02*
X4722Y1280D01*
X4728*
X4734Y1284*
X4737Y1290*
X4734Y1296*
X4728Y1299*
X4722*
X4728D02*
X4734Y1302D01*
X4737Y1309*
X4734Y1315*
X4728Y1318*
X4722*
X4716Y1315*
X4625Y1493D02*
Y1333D01*
X4695*
Y1493*
X4625*
X4630Y622D02*
X4430D01*
Y803*
X4630*
Y622*
X4651Y2271D02*
Y2431D01*
X4581*
Y2271*
X4651*
X4665Y786D02*
Y626D01*
X4735*
Y786*
X4665*
X4667Y1188D02*
G75*
G03X4650I-8D01*
G01*
G75*
G03X4667I8*
G01*
G36*
G75*
G03X4650I-8*
G01*
G75*
G03X4667I8*
G01*
G37*
X4672Y1547D02*
X4634D01*
Y1569*
X4637Y1575*
X4643Y1578*
X4650Y1575*
X4653Y1569*
Y1547*
Y1569D02*
X4672Y1578D01*
X4668Y1597D02*
X4672Y1603D01*
Y1613*
X4668Y1619*
X4662Y1622*
X4659*
X4653Y1619*
X4650Y1613*
Y1597*
X4634*
Y1622*
X4668Y1650D02*
X4672Y1656D01*
Y1663*
X4668Y1669*
X4662Y1672*
X4656Y1669*
X4653Y1663*
Y1656*
Y1663D02*
X4650Y1669D01*
X4643Y1672*
X4637Y1669*
X4634Y1663*
Y1656*
X4637Y1650*
X4709Y1015D02*
X4509D01*
Y1196*
X4709*
Y1015*
X4713Y2070D02*
X4676D01*
Y2092*
X4679Y2098*
X4685Y2102*
X4691Y2098*
X4695Y2092*
Y2070*
Y2092D02*
X4713Y2102D01*
Y2130D02*
X4710Y2136D01*
X4704Y2142*
X4695Y2145*
X4685*
X4679Y2142*
X4676Y2136*
Y2130*
X4679Y2123*
X4685Y2120*
X4691Y2123*
X4695Y2130*
Y2136*
X4691Y2142*
X4685Y2145*
X4710Y2173D02*
X4713Y2180D01*
Y2186*
X4710Y2192*
X4704Y2195*
X4685*
X4679Y2192*
X4676Y2186*
Y2180*
X4679Y2173*
X4685Y2170*
X4704*
X4710Y2173*
X4679Y2192*
X4730Y2271D02*
Y2431D01*
X4660*
Y2271*
X4730*
X4723Y3500D02*
X4686D01*
Y3522*
X4689Y3528*
X4695Y3531*
X4701Y3528*
X4704Y3522*
Y3500*
Y3522D02*
X4723Y3531D01*
Y3556D02*
Y3568D01*
Y3562D02*
X4686D01*
X4692Y3556*
X4720Y3600D02*
X4723Y3606D01*
Y3615*
X4720Y3622*
X4714Y3625*
X4711*
X4704Y3622*
X4701Y3615*
Y3600*
X4686*
Y3625*
X4720Y3650D02*
X4723Y3656D01*
Y3665*
X4720Y3672*
X4714Y3675*
X4711*
X4704Y3672*
X4701Y3665*
Y3650*
X4686*
Y3675*
X4719Y420D02*
X4722Y417D01*
X4725Y411*
Y402*
X4722Y395*
X4719Y392*
X4713Y389*
X4700*
X4694Y392*
X4691Y395*
X4688Y402*
Y411*
X4691Y417*
X4694Y420*
X4722Y442D02*
X4725Y449D01*
Y455*
X4722Y461*
X4716Y464*
X4710Y461*
X4706Y455*
Y449*
Y455D02*
X4703Y461D01*
X4697Y464*
X4691Y461*
X4688Y455*
Y449*
X4691Y442*
X4722Y489D02*
X4725Y495D01*
Y505*
X4722Y511*
X4716Y514*
X4713*
X4706Y511*
X4703Y505*
Y489*
X4688*
Y514*
X4735Y3673D02*
Y3513D01*
X4805*
Y3673*
X4735*
X4747Y1241D02*
Y1081D01*
X4817*
Y1241*
X4747*
X4766Y2032D02*
Y1872D01*
X4836*
Y2032*
X4766*
X4786Y452D02*
Y424D01*
X4789Y417*
X4795Y414*
X4808*
X4814Y417*
X4817Y424*
Y452*
X4842Y414D02*
X4854D01*
X4848D02*
Y452D01*
X4842Y446*
X4911Y414D02*
X4886D01*
X4908Y436*
X4911Y442*
X4908Y449*
X4901Y452*
X4892*
X4886Y449*
X4809Y2271D02*
Y2431D01*
X4739*
Y2271*
X4809*
X4794Y1354D02*
X4797Y1350D01*
X4800Y1344*
Y1335*
X4797Y1329*
X4794Y1325*
X4787Y1322*
X4775*
X4769Y1325*
X4766Y1329*
X4762Y1335*
Y1344*
X4766Y1350*
X4769Y1354*
X4800Y1397D02*
Y1372D01*
X4778Y1394*
X4772Y1397*
X4766Y1394*
X4762Y1388*
Y1379*
X4766Y1372*
X4797Y1425D02*
X4800Y1432D01*
Y1438*
X4797Y1444*
X4791Y1447*
X4772*
X4766Y1444*
X4762Y1438*
Y1432*
X4766Y1425*
X4772Y1422*
X4791*
X4797Y1425*
X4766Y1444*
X4816Y1806D02*
X4819Y1803D01*
X4822Y1797*
Y1788*
X4819Y1781*
X4816Y1778*
X4810Y1775*
X4797*
X4791Y1778*
X4788Y1781*
X4785Y1788*
Y1797*
X4788Y1803*
X4791Y1806*
X4822Y1841D02*
X4785D01*
X4810Y1825*
Y1850*
X4861Y1493D02*
Y1333D01*
X4931*
Y1493*
X4861*
X4855Y2287D02*
X4818D01*
Y2309*
X4821Y2315*
X4827Y2318*
X4833Y2315*
X4836Y2309*
Y2287*
Y2309D02*
X4855Y2318D01*
X4836Y2346D02*
Y2352D01*
X4833Y2359*
X4827Y2362*
X4821Y2359*
X4818Y2352*
Y2346*
X4821Y2340*
X4827Y2337*
X4833Y2340*
X4836Y2346*
X4839Y2340*
X4846Y2337*
X4852Y2340*
X4855Y2346*
Y2352*
X4852Y2359*
X4846Y2362*
X4839Y2359*
X4836Y2352*
X4855Y2396D02*
X4852Y2402D01*
X4846Y2409*
X4836Y2412*
X4827*
X4821Y2409*
X4818Y2402*
Y2396*
X4821Y2390*
X4827Y2387*
X4833Y2390*
X4836Y2396*
Y2402*
X4833Y2409*
X4827Y2412*
X4872Y2550D02*
Y2522D01*
X4875Y2516*
X4882Y2513*
X4894*
X4900Y2516*
X4904Y2522*
Y2550*
X4938Y2513D02*
Y2550D01*
X4922Y2525*
X4947*
X4997Y2513D02*
X4972D01*
X4994Y2535*
X4997Y2541*
X4994Y2547*
X4988Y2550*
X4979*
X4972Y2547*
X4870Y3493D02*
X4833D01*
Y3515*
X4836Y3522*
X4842Y3525*
X4848Y3522*
X4851Y3515*
Y3493*
Y3515D02*
X4870Y3525D01*
Y3550D02*
Y3562D01*
Y3556D02*
X4833D01*
X4839Y3550*
X4867Y3593D02*
X4870Y3600D01*
Y3609*
X4867Y3615*
X4861Y3618*
X4858*
X4851Y3615*
X4848Y3609*
Y3593*
X4833*
Y3618*
X4870Y3659D02*
X4833D01*
X4858Y3643*
Y3668*
X4885Y3673D02*
Y3513D01*
X4955*
Y3673*
X4885*
X4903Y794D02*
G75*
G03X4886I-8D01*
G01*
G75*
G03X4903I8*
G01*
G36*
G75*
G03X4886I-8*
G01*
G75*
G03X4903I8*
G01*
G37*
X4916Y1314D02*
Y1286D01*
X4919Y1280*
X4925Y1277*
X4937*
X4944Y1280*
X4947Y1286*
Y1314*
X4972Y1277D02*
X4984D01*
X4978D02*
Y1314D01*
X4972Y1308*
X5022Y1277D02*
X5034D01*
X5028D02*
Y1314D01*
X5022Y1308*
X4917Y1544D02*
X4879D01*
Y1566*
X4882Y1572*
X4888Y1575*
X4895Y1572*
X4898Y1566*
Y1544*
Y1566D02*
X4917Y1575D01*
X4913Y1594D02*
X4917Y1600D01*
Y1610*
X4913Y1616*
X4907Y1619*
X4904*
X4898Y1616*
X4895Y1610*
Y1594*
X4879*
Y1619*
X4917Y1669D02*
Y1644D01*
X4895Y1666*
X4888Y1669*
X4882Y1666*
X4879Y1660*
Y1650*
X4882Y1644*
X4940Y1494D02*
Y1334D01*
X5010*
Y1494*
X4940*
X4945Y622D02*
X4745D01*
Y803*
X4945*
Y622*
X4947Y2117D02*
X4950Y2114D01*
X4953Y2108*
Y2099*
X4950Y2092*
X4947Y2089*
X4941Y2086*
X4928*
X4922Y2089*
X4919Y2092*
X4916Y2099*
Y2108*
X4919Y2114*
X4922Y2117*
X4950Y2139D02*
X4953Y2145D01*
Y2152*
X4950Y2158*
X4944Y2161*
X4938Y2158*
X4935Y2152*
Y2145*
Y2152D02*
X4932Y2158D01*
X4925Y2161*
X4919Y2158*
X4916Y2152*
Y2145*
X4919Y2139*
X4953Y2195D02*
X4950Y2202D01*
X4944Y2208*
X4935Y2211*
X4925*
X4919Y2208*
X4916Y2202*
Y2195*
X4919Y2189*
X4925Y2186*
X4932Y2189*
X4935Y2195*
Y2202*
X4932Y2208*
X4925Y2211*
X4967Y1980D02*
Y2216D01*
X5203*
Y1999*
X5164Y1940*
X5026*
X4967Y1980*
X4976Y3325D02*
G75*
G03Y3287J-19D01*
G01*
G75*
G03Y3325J19*
G01*
G36*
G75*
G03Y3287J-19*
G01*
G75*
G03Y3325J19*
G01*
G37*
X4978Y790D02*
Y630D01*
X5048*
Y790*
X4978*
X4982Y1188D02*
G75*
G03X4965I-8D01*
G01*
G75*
G03X4982I8*
G01*
G36*
G75*
G03X4965I-8*
G01*
G75*
G03X4982I8*
G01*
G37*
X4994Y1541D02*
X4956D01*
Y1563*
X4960Y1570*
X4966Y1573*
X4972Y1570*
X4975Y1563*
Y1541*
Y1563D02*
X4994Y1573D01*
Y1607D02*
X4956D01*
X4981Y1591*
Y1616*
X4994Y1641D02*
X4956Y1666D01*
Y1641*
X5018Y1493D02*
Y1333D01*
X5088*
Y1493*
X5018*
X5023Y1015D02*
X4823D01*
Y1196*
X5023*
Y1015*
X5020Y3495D02*
X4982D01*
Y3517*
X4985Y3523*
X4992Y3526*
X4998Y3523*
X5001Y3517*
Y3495*
Y3517D02*
X5020Y3526D01*
Y3551D02*
Y3563D01*
Y3557D02*
X4982D01*
X4989Y3551*
X5017Y3595D02*
X5020Y3601D01*
Y3610*
X5017Y3617*
X5010Y3620*
X5007*
X5001Y3617*
X4998Y3610*
Y3595*
X4982*
Y3620*
X5017Y3648D02*
X5020Y3654D01*
Y3660*
X5017Y3667*
X5010Y3670*
X5004Y3667*
X5001Y3660*
Y3654*
Y3660D02*
X4998Y3667D01*
X4992Y3670*
X4985Y3667*
X4982Y3660*
Y3654*
X4985Y3648*
X5034Y3673D02*
Y3513D01*
X5104*
Y3673*
X5034*
X5026Y452D02*
X5029Y449D01*
X5032Y443*
Y433*
X5029Y427*
X5026Y424*
X5020Y421*
X5007*
X5001Y424*
X4998Y427*
X4995Y433*
Y443*
X4998Y449*
X5001Y452*
X5032Y477D02*
Y489D01*
Y483D02*
X4995D01*
X5001Y477*
X5032Y521D02*
X4995Y546D01*
Y521*
X5062Y1225D02*
Y1065D01*
X5132*
Y1225*
X5062*
X5073Y1546D02*
X5035D01*
Y1568*
X5038Y1574*
X5045Y1577*
X5051Y1574*
X5054Y1568*
Y1546*
Y1568D02*
X5073Y1577D01*
Y1611D02*
X5035D01*
X5060Y1596*
Y1621*
X5063Y1646D02*
X5057Y1649D01*
X5054Y1655*
Y1661*
X5057Y1668*
X5063Y1671*
X5070Y1668*
X5073Y1661*
Y1655*
X5070Y1649*
X5063Y1646*
X5054*
X5045Y1649*
X5038Y1655*
X5035Y1661*
X5093Y444D02*
Y416D01*
X5096Y410*
X5102Y406*
X5115*
X5121Y410*
X5124Y416*
Y444*
X5149Y406D02*
X5162D01*
X5155D02*
Y444D01*
X5149Y438*
X5196Y410D02*
X5202Y406D01*
X5208*
X5215Y410*
X5218Y416*
Y435*
X5215Y441*
X5208Y444*
X5202*
X5196Y441*
X5193Y435*
Y416*
X5196Y410*
X5215Y441*
X5111Y1335D02*
X5271D01*
Y1405*
X5111*
Y1335*
X5105Y1334D02*
X5108Y1331D01*
X5111Y1324*
Y1315*
X5108Y1309*
X5105Y1306*
X5098Y1303*
X5086*
X5080Y1306*
X5077Y1309*
X5073Y1315*
Y1324*
X5077Y1331*
X5080Y1334*
X5111Y1378D02*
Y1353D01*
X5089Y1374*
X5083Y1378*
X5077Y1374*
X5073Y1368*
Y1359*
X5077Y1353*
X5111Y1412D02*
X5108Y1418D01*
X5102Y1424*
X5092Y1428*
X5083*
X5077Y1424*
X5073Y1418*
Y1412*
X5077Y1406*
X5083Y1403*
X5089Y1406*
X5092Y1412*
Y1418*
X5089Y1424*
X5083Y1428*
X5124Y3645D02*
X5127Y3642D01*
X5134Y3639*
X5140Y3642*
X5143Y3645*
Y3676*
X5149*
X5143D02*
X5131D01*
X5174Y3642D02*
X5181Y3639D01*
X5190*
X5196Y3642*
X5199Y3648*
Y3651*
X5196Y3658*
X5190Y3661*
X5174*
Y3676*
X5199*
X5123Y2322D02*
X5085D01*
Y2344*
X5088Y2350*
X5095Y2354*
X5101Y2350*
X5104Y2344*
Y2322*
Y2344D02*
X5123Y2354D01*
Y2382D02*
X5120Y2388D01*
X5113Y2394*
X5104Y2397*
X5095*
X5088Y2394*
X5085Y2388*
Y2382*
X5088Y2375*
X5095Y2372*
X5101Y2375*
X5104Y2382*
Y2388*
X5101Y2394*
X5095Y2397*
X5120Y2425D02*
X5123Y2432D01*
Y2438*
X5120Y2444*
X5113Y2447*
X5107Y2444*
X5104Y2438*
Y2432*
Y2438D02*
X5101Y2444D01*
X5095Y2447*
X5088Y2444*
X5085Y2438*
Y2432*
X5088Y2425*
X5199Y2247D02*
Y2219D01*
X5202Y2213*
X5208Y2210*
X5221*
X5227Y2213*
X5230Y2219*
Y2247*
X5265Y2210D02*
Y2247D01*
X5249Y2222*
X5274*
X5299Y2213D02*
X5305Y2210D01*
X5315*
X5321Y2213*
X5324Y2219*
Y2222*
X5321Y2228*
X5315Y2231*
X5299*
Y2247*
X5324*
X5203Y2258D02*
Y2418D01*
X5133*
Y2258*
X5203*
X5205Y3334D02*
Y2579D01*
X4957*
Y3334*
X5205*
X5211Y2200D02*
X5447D01*
Y1909*
X5211*
Y2200*
X5218Y794D02*
G75*
G03X5201I-8D01*
G01*
G75*
G03X5218I8*
G01*
G36*
G75*
G03X5201I-8*
G01*
G75*
G03X5218I8*
G01*
G37*
X5225Y1923D02*
G75*
G03X5252I14D01*
G01*
G75*
G03X5225I-14*
G01*
G36*
G75*
G03X5252I14*
G01*
G75*
G03X5225I-14*
G01*
G37*
X5247Y1454D02*
Y1416D01*
X5225*
X5219Y1419*
X5216Y1426*
X5219Y1432*
X5225Y1435*
X5247*
X5225D02*
X5216Y1454D01*
X5181D02*
Y1416D01*
X5197Y1441*
X5172*
X5147Y1451D02*
X5141Y1454D01*
X5131*
X5125Y1451*
X5122Y1444*
Y1441*
X5125Y1435*
X5131Y1432*
X5147*
Y1416*
X5122*
X5260Y622D02*
X5060D01*
Y803*
X5260*
Y622*
X5281Y2258D02*
Y2418D01*
X5211*
Y2258*
X5281*
X5297Y1188D02*
G75*
G03X5280I-8D01*
G01*
G75*
G03X5297I8*
G01*
G36*
G75*
G03X5280I-8*
G01*
G75*
G03X5297I8*
G01*
G37*
X5325Y1263D02*
Y1235D01*
X5328Y1228*
X5334Y1225*
X5347*
X5353Y1228*
X5356Y1235*
Y1263*
X5384Y1225D02*
X5391Y1228D01*
X5397Y1235*
X5400Y1244*
Y1253*
X5397Y1260*
X5391Y1263*
X5384*
X5378Y1260*
X5375Y1253*
X5378Y1247*
X5384Y1244*
X5391*
X5397Y1247*
X5400Y1253*
X5338Y1015D02*
X5138D01*
Y1196*
X5338*
Y1015*
X5347Y2484D02*
X5310D01*
Y2506*
X5313Y2512*
X5319Y2515*
X5325Y2512*
X5328Y2506*
Y2484*
Y2506D02*
X5347Y2515D01*
Y2543D02*
X5344Y2549D01*
X5338Y2556*
X5328Y2559*
X5319*
X5313Y2556*
X5310Y2549*
Y2543*
X5313Y2537*
X5319Y2534*
X5325Y2537*
X5328Y2543*
Y2549*
X5325Y2556*
X5319Y2559*
X5347Y2599D02*
X5310D01*
X5335Y2584*
Y2609*
X5360Y2258D02*
Y2418D01*
X5290*
Y2258*
X5360*
X5368Y3649D02*
X5372Y3646D01*
X5378Y3643*
X5384Y3646*
X5387Y3649*
Y3680*
X5393*
X5387D02*
X5375D01*
X5425Y3643D02*
X5437D01*
X5431D02*
Y3680D01*
X5425Y3674*
X5377Y3698D02*
X5725D01*
Y3940*
X5377*
Y3698*
X5368Y318D02*
X5372Y315D01*
X5375Y309*
Y299*
X5372Y293*
X5368Y290*
X5362Y287*
X5350*
X5343Y290*
X5340Y293*
X5337Y299*
Y309*
X5340Y315*
X5343Y318*
X5372Y340D02*
X5375Y346D01*
Y352*
X5372Y359*
X5365Y362*
X5359Y359*
X5356Y352*
Y346*
Y352D02*
X5353Y359D01*
X5347Y362*
X5340Y359*
X5337Y352*
Y346*
X5340Y340*
X5356Y396D02*
Y402D01*
X5353Y409*
X5347Y412*
X5340Y409*
X5337Y402*
Y396*
X5340Y390*
X5347Y387*
X5353Y390*
X5356Y396*
X5359Y390*
X5365Y387*
X5372Y390*
X5375Y396*
Y402*
X5372Y409*
X5365Y412*
X5359Y409*
X5356Y402*
X5404Y1626D02*
Y1786D01*
X5334*
Y1626*
X5404*
X5394Y2484D02*
X5357D01*
Y2506*
X5360Y2512*
X5366Y2515*
X5373Y2512*
X5376Y2506*
Y2484*
Y2506D02*
X5394Y2515D01*
Y2543D02*
X5391Y2549D01*
X5385Y2556*
X5376Y2559*
X5366*
X5360Y2556*
X5357Y2549*
Y2543*
X5360Y2537*
X5366Y2534*
X5373Y2537*
X5376Y2543*
Y2549*
X5373Y2556*
X5366Y2559*
X5391Y2584D02*
X5394Y2590D01*
Y2599*
X5391Y2606*
X5385Y2609*
X5382*
X5376Y2606*
X5373Y2599*
Y2584*
X5357*
Y2609*
X5439Y2258D02*
Y2418D01*
X5369*
Y2258*
X5439*
X5433Y820D02*
X5436Y823D01*
X5439Y829*
X5436Y835*
X5433Y838*
X5402*
Y845*
Y838D02*
Y826D01*
X5439Y870D02*
X5402Y895D01*
Y870*
X5455Y246D02*
X4207D01*
Y4*
X5455*
Y246*
X5446Y2484D02*
X5408D01*
Y2506*
X5411Y2512*
X5417Y2515*
X5424Y2512*
X5427Y2506*
Y2484*
Y2506D02*
X5446Y2515D01*
Y2543D02*
X5442Y2549D01*
X5436Y2556*
X5427Y2559*
X5417*
X5411Y2556*
X5408Y2549*
Y2543*
X5411Y2537*
X5417Y2534*
X5424Y2537*
X5427Y2543*
Y2549*
X5424Y2556*
X5417Y2559*
X5436Y2584D02*
X5430Y2587D01*
X5427Y2593*
Y2599*
X5430Y2606*
X5436Y2609*
X5442Y2606*
X5446Y2599*
Y2593*
X5442Y2587*
X5436Y2584*
X5427*
X5417Y2587*
X5411Y2593*
X5408Y2599*
X5457Y1677D02*
X5420D01*
Y1698*
X5423Y1705*
X5429Y1708*
X5436Y1705*
X5439Y1698*
Y1677*
Y1698D02*
X5457Y1708D01*
Y1733D02*
Y1745D01*
Y1739D02*
X5420D01*
X5426Y1733*
X5539Y673D02*
Y437D01*
X5303*
Y654*
X5342Y713*
X5480*
X5539Y673*
X5553Y722D02*
Y502D01*
X5633*
Y722*
X5553*
X5572Y23D02*
X5534D01*
Y54*
X5553Y48D02*
Y23D01*
X5562Y73D02*
X5568Y76D01*
X5572Y82*
Y95*
X5568Y101*
X5562Y104*
X5556Y101*
X5553Y95*
Y82*
X5550Y76*
X5543Y73*
X5537Y76*
X5534Y82*
Y95*
X5537Y101*
X5543Y104*
X5572Y129D02*
Y142D01*
Y136D02*
X5534D01*
X5540Y129*
X5756Y740D02*
Y2740D01*
X5500*
Y740*
X5756*
X5849Y320D02*
X5852Y317D01*
X5855Y311*
Y302*
X5852Y295*
X5849Y292*
X5842Y289*
X5830*
X5824Y292*
X5820Y295*
X5817Y302*
Y311*
X5820Y317*
X5824Y320*
X5852Y342D02*
X5855Y349D01*
Y355*
X5852Y361*
X5845Y364*
X5839Y361*
X5836Y355*
Y349*
Y355D02*
X5833Y361D01*
X5827Y364*
X5820Y361*
X5817Y355*
Y349*
X5820Y342*
X5855Y389D02*
X5817Y414D01*
Y389*
X5881Y666D02*
Y430D01*
X5645*
Y646*
X5684Y705*
X5822*
X5881Y666*
X0Y0D02*
M02*
