%FSLAX23Y23*%
%MOIN*%
G04 EasyPC Gerber Version 17.0 Build 3379 *
%ADD72C,0.10600*%
%ADD27R,0.06112X0.04104*%
%ADD26C,0.28100*%
X0Y0D02*
D02*
D26*
X278Y278D03*
Y3203D03*
X5628Y278D03*
Y3203D03*
D02*
D27*
X5539Y795D03*
Y873D03*
Y952D03*
Y1031D03*
Y1110D03*
Y1188D03*
Y1267D03*
Y1346D03*
Y1425D03*
Y1503D03*
Y1582D03*
Y1661D03*
Y1740D03*
Y1818D03*
Y1897D03*
Y1976D03*
Y2055D03*
Y2133D03*
Y2212D03*
Y2291D03*
Y2370D03*
Y2448D03*
Y2527D03*
Y2606D03*
Y2684D03*
X5717Y795D03*
Y873D03*
Y952D03*
Y1031D03*
Y1110D03*
Y1188D03*
Y1267D03*
Y1346D03*
Y1425D03*
Y1503D03*
Y1582D03*
Y1661D03*
Y1740D03*
Y1818D03*
Y1897D03*
Y1976D03*
Y2055D03*
Y2133D03*
Y2212D03*
Y2291D03*
Y2370D03*
Y2448D03*
Y2527D03*
Y2606D03*
Y2684D03*
D02*
D72*
X238Y3744D03*
X388D03*
X527Y200D03*
X538Y3744D03*
X677Y200D03*
X688Y3744D03*
X827Y200D03*
X838Y3744D03*
X977Y200D03*
X988Y3744D03*
X1127Y200D03*
X1138Y3744D03*
X1277Y200D03*
X1288Y3744D03*
X1427Y200D03*
X1498Y3744D03*
X1577Y200D03*
X1648Y3744D03*
X1787Y200D03*
X1798Y3744D03*
X1937Y200D03*
X1948Y3744D03*
X2087Y200D03*
X2098Y3744D03*
X2237Y200D03*
X2248Y3744D03*
X2387Y200D03*
X2398Y3744D03*
X2537Y200D03*
X2548Y3744D03*
X2687Y200D03*
X2758Y3744D03*
X2837Y200D03*
X2908Y3744D03*
X3047Y200D03*
X3058Y3744D03*
X3197Y200D03*
X3208Y3744D03*
X3347Y200D03*
X3358Y3744D03*
X3497Y200D03*
X3508Y3744D03*
X3647Y200D03*
X3658Y3744D03*
X3797Y200D03*
X3808Y3744D03*
X3947Y200D03*
X4018Y3744D03*
X4097Y200D03*
X4168Y3744D03*
X4307Y200D03*
X4318Y3744D03*
X4457Y200D03*
X4468Y3744D03*
X4607Y200D03*
X4618Y3744D03*
X4757Y200D03*
X4768Y3744D03*
X4907Y200D03*
X4918Y3744D03*
X5057Y200D03*
X5068Y3744D03*
X5207Y200D03*
X5357D03*
X5475Y3744D03*
X5625D03*
X0Y0D02*
M02*
