%FSLAX23Y23*%
%MOIN*%
G04 EasyPC Gerber Version 17.0 Build 3379 *
%ADD12C,0.00500*%
%ADD17C,0.10000*%
X0Y0D02*
D02*
D12*
X360Y3822D02*
X367Y3819D01*
X370Y3812*
X367Y3806*
X360Y3803*
X338*
Y3840*
X360*
X367Y3837*
X370Y3831*
X367Y3825*
X360Y3822*
X338*
X378Y337D02*
X393Y374D01*
X409Y337*
X384Y353D02*
X403D01*
X378Y3262D02*
X393Y3299D01*
X409Y3262*
X384Y3278D02*
X403D01*
X460Y652D02*
X457Y649D01*
X451Y645*
X442*
X435Y649*
X432Y652*
X429Y658*
Y670*
X432Y677*
X435Y680*
X442Y683*
X451*
X457Y680*
X460Y677*
Y1161D02*
X457Y1158D01*
X451Y1155*
X442*
X435Y1158*
X432Y1161*
X429Y1168*
Y1180*
X432Y1186*
X435Y1189*
X442Y1193*
X451*
X457Y1189*
X460Y1186*
X464Y896D02*
X461Y893D01*
X455Y890*
X445*
X439Y893*
X436Y896*
X433Y902*
Y915*
X436Y921*
X439Y924*
X445Y927*
X455*
X461Y924*
X464Y921*
X492Y959D02*
X489Y956D01*
X482Y953*
X473*
X467Y956*
X464Y959*
X461Y965*
Y978*
X464Y984*
X467Y987*
X473Y990*
X482*
X489Y987*
X492Y984*
X510Y3822D02*
X517Y3819D01*
X520Y3812*
X517Y3806*
X510Y3803*
X488*
Y3840*
X510*
X517Y3837*
X520Y3831*
X517Y3825*
X510Y3822*
X488*
X527Y2774D02*
X524Y2771D01*
X518Y2767*
X508*
X502Y2771*
X499Y2774*
X496Y2780*
Y2792*
X499Y2799*
X502Y2802*
X508Y2805*
X518*
X524Y2802*
X527Y2799*
Y2971D02*
X524Y2967D01*
X518Y2964*
X508*
X502Y2967*
X499Y2971*
X496Y2977*
Y2989*
X499Y2996*
X502Y2999*
X508Y3002*
X518*
X524Y2999*
X527Y2996*
X535Y1331D02*
X532Y1327D01*
X526Y1324*
X516*
X510Y1327*
X507Y1331*
X504Y1337*
Y1349*
X507Y1356*
X510Y1359*
X516Y1362*
X526*
X532Y1359*
X535Y1356*
Y3140D02*
X532Y3137D01*
X526Y3134*
X516*
X510Y3137*
X507Y3140*
X504Y3146*
Y3159*
X507Y3165*
X510Y3168*
X516Y3171*
X526*
X532Y3168*
X535Y3165*
X539Y573D02*
X536Y570D01*
X530Y567*
X520*
X514Y570*
X511Y573*
X508Y579*
Y592*
X511Y598*
X514Y601*
X520Y604*
X530*
X536Y601*
X539Y598*
X574Y1045D02*
X571Y1042D01*
X565Y1039*
X556*
X549Y1042*
X546Y1045*
X543Y1052*
Y1064*
X546Y1070*
X549Y1074*
X556Y1077*
X565*
X571Y1074*
X574Y1070*
X598Y1352D02*
X595Y1349D01*
X589Y1346*
X579*
X573Y1349*
X570Y1352*
X567Y1359*
Y1371*
X570Y1377*
X573Y1381*
X579Y1384*
X589*
X595Y1381*
X598Y1377*
X618Y3444D02*
X615Y3441D01*
X608Y3437*
X599*
X593Y3441*
X590Y3444*
X586Y3450*
Y3462*
X590Y3469*
X593Y3472*
X599Y3475*
X608*
X615Y3472*
X618Y3469*
X649Y278D02*
X655Y275D01*
X658Y269*
X655Y263*
X649Y260*
X627*
Y297*
X649*
X655Y294*
X658Y288*
X655Y281*
X649Y278*
X627*
X665Y589D02*
X662Y586D01*
X656Y582*
X646*
X640Y586*
X637Y589*
X634Y595*
Y607*
X637Y614*
X640Y617*
X646Y620*
X656*
X662Y617*
X665Y614*
X660Y3822D02*
X667Y3819D01*
X670Y3812*
X667Y3806*
X660Y3803*
X638*
Y3840*
X660*
X667Y3837*
X670Y3831*
X667Y3825*
X660Y3822*
X638*
X736Y971D02*
X733Y967D01*
X726Y964*
X717*
X711Y967*
X708Y971*
X705Y977*
Y989*
X708Y996*
X711Y999*
X717Y1002*
X726*
X733Y999*
X736Y996*
X775Y648D02*
X772Y645D01*
X766Y642*
X756*
X750Y645*
X747Y648*
X744Y654*
Y667*
X747Y673*
X750Y676*
X756Y679*
X766*
X772Y676*
X775Y673*
Y896D02*
X772Y893D01*
X766Y890*
X756*
X750Y893*
X747Y896*
X744Y902*
Y915*
X747Y921*
X750Y924*
X756Y927*
X766*
X772Y924*
X775Y921*
X799Y278D02*
X805Y275D01*
X808Y269*
X805Y263*
X799Y260*
X777*
Y297*
X799*
X805Y294*
X808Y288*
X805Y281*
X799Y278*
X777*
X810Y3822D02*
X817Y3819D01*
X820Y3812*
X817Y3806*
X810Y3803*
X788*
Y3840*
X810*
X817Y3837*
X820Y3831*
X817Y3825*
X810Y3822*
X788*
X830Y971D02*
X827Y967D01*
X821Y964*
X812*
X805Y967*
X802Y971*
X799Y977*
Y989*
X802Y996*
X805Y999*
X812Y1002*
X821*
X827Y999*
X830Y996*
X823Y2079D02*
Y2116D01*
X841*
X848Y2113*
X851Y2110*
X854Y2104*
Y2091*
X851Y2085*
X848Y2082*
X841Y2079*
X823*
X858Y577D02*
X855Y574D01*
X849Y571*
X839*
X833Y574*
X830Y577*
X827Y583*
Y596*
X830Y602*
X833Y605*
X839Y608*
X849*
X855Y605*
X858Y602*
Y1124D02*
X855Y1121D01*
X849Y1118*
X839*
X833Y1121*
X830Y1124*
X827Y1130*
Y1143*
X830Y1149*
X833Y1152*
X839Y1155*
X849*
X855Y1152*
X858Y1149*
Y1364D02*
X855Y1361D01*
X849Y1358*
X839*
X833Y1361*
X830Y1364*
X827Y1371*
Y1383*
X830Y1389*
X833Y1392*
X839Y1396*
X849*
X855Y1392*
X858Y1389*
X862Y2164D02*
X859Y2160D01*
X852Y2157*
X843*
X837Y2160*
X834Y2164*
X831Y2170*
Y2182*
X834Y2189*
X837Y2192*
X843Y2195*
X852*
X859Y2192*
X862Y2189*
X897Y1053D02*
X894Y1050D01*
X888Y1047*
X879*
X872Y1050*
X869Y1053*
X866Y1060*
Y1072*
X869Y1078*
X872Y1081*
X879Y1085*
X888*
X894Y1081*
X897Y1078*
X874Y2287D02*
Y2325D01*
X893*
X899Y2322*
X902Y2318*
X905Y2312*
Y2300*
X902Y2293*
X899Y2290*
X893Y2287*
X874*
X917Y1352D02*
X914Y1349D01*
X908Y1346*
X898*
X892Y1349*
X889Y1352*
X886Y1359*
Y1371*
X889Y1377*
X892Y1381*
X898Y1384*
X908*
X914Y1381*
X917Y1377*
X925Y2236D02*
Y2273D01*
X944*
X950Y2270*
X953Y2267*
X956Y2261*
Y2248*
X953Y2242*
X950Y2239*
X944Y2236*
X925*
X949Y278D02*
X955Y275D01*
X958Y269*
X955Y263*
X949Y260*
X927*
Y297*
X949*
X955Y294*
X958Y288*
X955Y281*
X949Y278*
X927*
X937Y2527D02*
Y2565D01*
X956*
X962Y2562*
X965Y2559*
X968Y2552*
Y2540*
X965Y2534*
X962Y2530*
X956Y2527*
X937*
X960Y3822D02*
X967Y3819D01*
X970Y3812*
X967Y3806*
X960Y3803*
X938*
Y3840*
X960*
X967Y3837*
X970Y3831*
X967Y3825*
X960Y3822*
X938*
X976Y589D02*
X973Y586D01*
X967Y582*
X957*
X951Y586*
X948Y589*
X945Y595*
Y607*
X948Y614*
X951Y617*
X957Y620*
X967*
X973Y617*
X976Y614*
X953Y2287D02*
Y2325D01*
X971*
X978Y2322*
X981Y2318*
X984Y2312*
Y2300*
X981Y2293*
X978Y2290*
X971Y2287*
X953*
X984Y2608D02*
X981Y2605D01*
X975Y2602*
X965*
X959Y2605*
X956Y2608*
X953Y2615*
Y2627*
X956Y2633*
X959Y2637*
X965Y2640*
X975*
X981Y2637*
X984Y2633*
X996Y2232D02*
Y2270D01*
X1015*
X1021Y2266*
X1024Y2263*
X1027Y2257*
Y2245*
X1024Y2238*
X1021Y2235*
X1015Y2232*
X996*
X1012Y2523D02*
Y2561D01*
X1030*
X1037Y2558*
X1040Y2555*
X1043Y2548*
Y2536*
X1040Y2530*
X1037Y2527*
X1030Y2523*
X1012*
X1051Y978D02*
X1048Y975D01*
X1041Y972*
X1032*
X1026Y975*
X1023Y978*
X1020Y985*
Y997*
X1023Y1003*
X1026Y1007*
X1032Y1010*
X1041*
X1048Y1007*
X1051Y1003*
X1031Y2287D02*
Y2325D01*
X1050*
X1056Y2322*
X1059Y2318*
X1063Y2312*
Y2300*
X1059Y2293*
X1056Y2290*
X1050Y2287*
X1031*
X1094Y888D02*
X1091Y885D01*
X1085Y882*
X1075*
X1069Y885*
X1066Y888*
X1063Y894*
Y907*
X1066Y913*
X1069Y916*
X1075Y919*
X1085*
X1091Y916*
X1094Y913*
X1102Y628D02*
X1099Y625D01*
X1093Y622*
X1083*
X1077Y625*
X1074Y628*
X1071Y634*
Y647*
X1074Y653*
X1077Y656*
X1083Y659*
X1093*
X1099Y656*
X1102Y653*
X1099Y278D02*
X1105Y275D01*
X1108Y269*
X1105Y263*
X1099Y260*
X1077*
Y297*
X1099*
X1105Y294*
X1108Y288*
X1105Y281*
X1099Y278*
X1077*
X1110Y3822D02*
X1117Y3819D01*
X1120Y3812*
X1117Y3806*
X1110Y3803*
X1088*
Y3840*
X1110*
X1117Y3837*
X1120Y3831*
X1117Y3825*
X1110Y3822*
X1088*
X1130Y967D02*
X1126Y964D01*
X1120Y960*
X1111*
X1105Y964*
X1101Y967*
X1098Y973*
Y985*
X1101Y992*
X1105Y995*
X1111Y998*
X1120*
X1126Y995*
X1130Y992*
X1119Y1821D02*
Y1859D01*
X1138*
X1144Y1856*
X1148Y1852*
X1151Y1846*
Y1834*
X1148Y1827*
X1144Y1824*
X1138Y1821*
X1119*
X1169Y573D02*
X1166Y570D01*
X1160Y567*
X1150*
X1144Y570*
X1141Y573*
X1138Y579*
Y592*
X1141Y598*
X1144Y601*
X1150Y604*
X1160*
X1166Y601*
X1169Y598*
Y1122D02*
X1166Y1119D01*
X1160Y1116*
X1150*
X1144Y1119*
X1141Y1122*
X1138Y1128*
Y1141*
X1141Y1147*
X1144Y1150*
X1150Y1153*
X1160*
X1166Y1150*
X1169Y1147*
Y1358D02*
X1166Y1355D01*
X1160Y1352*
X1150*
X1144Y1355*
X1141Y1358*
X1138Y1364*
Y1377*
X1141Y1383*
X1144Y1386*
X1150Y1389*
X1160*
X1166Y1386*
X1169Y1383*
X1208Y1053D02*
X1205Y1050D01*
X1199Y1047*
X1190*
X1183Y1050*
X1180Y1053*
X1177Y1060*
Y1072*
X1180Y1078*
X1183Y1081*
X1190Y1085*
X1199*
X1205Y1081*
X1208Y1078*
X1177Y2366D02*
Y2403D01*
X1196*
X1202Y2400*
X1205Y2397*
X1208Y2391*
Y2378*
X1205Y2372*
X1202Y2369*
X1196Y2366*
X1177*
X1248Y3451D02*
X1245Y3448D01*
X1238Y3445*
X1229*
X1223Y3448*
X1220Y3451*
X1216Y3457*
Y3470*
X1220Y3476*
X1223Y3479*
X1229Y3482*
X1238*
X1245Y3479*
X1248Y3476*
X1249Y278D02*
X1255Y275D01*
X1258Y269*
X1255Y263*
X1249Y260*
X1227*
Y297*
X1249*
X1255Y294*
X1258Y288*
X1255Y281*
X1249Y278*
X1227*
X1263Y1352D02*
X1260Y1349D01*
X1254Y1346*
X1245*
X1238Y1349*
X1235Y1352*
X1232Y1359*
Y1371*
X1235Y1377*
X1238Y1381*
X1245Y1384*
X1254*
X1260Y1381*
X1263Y1377*
X1260Y3822D02*
X1267Y3819D01*
X1270Y3812*
X1267Y3806*
X1260Y3803*
X1238*
Y3840*
X1260*
X1267Y3837*
X1270Y3831*
X1267Y3825*
X1260Y3822*
X1238*
X1245Y1846D02*
Y1884D01*
X1264*
X1270Y1881*
X1274Y1877*
X1277Y1871*
Y1859*
X1274Y1852*
X1270Y1849*
X1264Y1846*
X1245*
X1291Y585D02*
X1288Y582D01*
X1282Y579*
X1272*
X1266Y582*
X1263Y585*
X1260Y591*
Y604*
X1263Y610*
X1266Y613*
X1272Y616*
X1282*
X1288Y613*
X1291Y610*
X1299Y2287D02*
Y2325D01*
X1318*
X1324Y2322*
X1327Y2318*
X1330Y2312*
Y2300*
X1327Y2293*
X1324Y2290*
X1318Y2287*
X1299*
X1366Y982D02*
X1363Y979D01*
X1356Y976*
X1347*
X1341Y979*
X1338Y982*
X1335Y989*
Y1001*
X1338Y1007*
X1341Y1011*
X1347Y1014*
X1356*
X1363Y1011*
X1366Y1007*
X1342Y2267D02*
Y2305D01*
X1361*
X1367Y2302*
X1371Y2299*
X1374Y2292*
Y2280*
X1371Y2274*
X1367Y2271*
X1361Y2267*
X1342*
X1405Y896D02*
X1402Y893D01*
X1396Y890*
X1386*
X1380Y893*
X1377Y896*
X1374Y902*
Y915*
X1377Y921*
X1380Y924*
X1386Y927*
X1396*
X1402Y924*
X1405Y921*
X1399Y278D02*
X1405Y275D01*
X1408Y269*
X1405Y263*
X1399Y260*
X1377*
Y297*
X1399*
X1405Y294*
X1408Y288*
X1405Y281*
X1399Y278*
X1377*
X1413Y652D02*
X1410Y649D01*
X1404Y645*
X1394*
X1388Y649*
X1385Y652*
X1382Y658*
Y670*
X1385Y677*
X1388Y680*
X1394Y683*
X1404*
X1410Y680*
X1413Y677*
X1410Y3822D02*
X1417Y3819D01*
X1420Y3812*
X1417Y3806*
X1410Y3803*
X1388*
Y3840*
X1410*
X1417Y3837*
X1420Y3831*
X1417Y3825*
X1410Y3822*
X1388*
X1445Y959D02*
X1441Y956D01*
X1435Y953*
X1426*
X1420Y956*
X1416Y959*
X1413Y965*
Y978*
X1416Y984*
X1420Y987*
X1426Y990*
X1435*
X1441Y987*
X1445Y984*
X1417Y2283D02*
Y2321D01*
X1436*
X1442Y2318*
X1445Y2314*
X1448Y2308*
Y2296*
X1445Y2289*
X1442Y2286*
X1436Y2283*
X1417*
X1488Y1132D02*
X1485Y1129D01*
X1478Y1126*
X1469*
X1463Y1129*
X1460Y1132*
X1457Y1138*
Y1151*
X1460Y1157*
X1463Y1160*
X1469Y1163*
X1478*
X1485Y1160*
X1488Y1157*
Y1360D02*
X1485Y1357D01*
X1478Y1354*
X1469*
X1463Y1357*
X1460Y1360*
X1457Y1367*
Y1379*
X1460Y1385*
X1463Y1388*
X1469Y1392*
X1478*
X1485Y1388*
X1488Y1385*
X1492Y573D02*
X1489Y570D01*
X1482Y567*
X1473*
X1467Y570*
X1464Y573*
X1460Y579*
Y592*
X1464Y598*
X1467Y601*
X1473Y604*
X1482*
X1489Y601*
X1492Y598*
X1464Y1949D02*
Y1986D01*
X1483*
X1489Y1983*
X1493Y1980*
X1496Y1974*
Y1961*
X1493Y1955*
X1489Y1952*
X1483Y1949*
X1464*
X1496Y2045D02*
X1493Y2042D01*
X1486Y2039*
X1477*
X1471Y2042*
X1468Y2045*
X1464Y2052*
Y2064*
X1468Y2070*
X1471Y2074*
X1477Y2077*
X1486*
X1493Y2074*
X1496Y2070*
X1480Y2516D02*
Y2553D01*
X1499*
X1505Y2550*
X1508Y2547*
X1511Y2541*
Y2528*
X1508Y2522*
X1505Y2519*
X1499Y2516*
X1480*
X1527Y1053D02*
X1524Y1050D01*
X1518Y1047*
X1508*
X1502Y1050*
X1499Y1053*
X1496Y1060*
Y1072*
X1499Y1078*
X1502Y1081*
X1508Y1085*
X1518*
X1524Y1081*
X1527Y1078*
X1496Y2283D02*
Y2321D01*
X1515*
X1521Y2318*
X1524Y2314*
X1527Y2308*
Y2296*
X1524Y2289*
X1521Y2286*
X1515Y2283*
X1496*
X1549Y278D02*
X1555Y275D01*
X1558Y269*
X1555Y263*
X1549Y260*
X1527*
Y297*
X1549*
X1555Y294*
X1558Y288*
X1555Y281*
X1549Y278*
X1527*
X1578Y1349D02*
X1575Y1345D01*
X1569Y1342*
X1560*
X1553Y1345*
X1550Y1349*
X1547Y1355*
Y1367*
X1550Y1374*
X1553Y1377*
X1560Y1380*
X1569*
X1575Y1377*
X1578Y1374*
X1563Y2500D02*
Y2537D01*
X1582*
X1588Y2534*
X1591Y2531*
X1594Y2525*
Y2512*
X1591Y2506*
X1588Y2503*
X1582Y2500*
X1563*
X1606Y589D02*
X1603Y586D01*
X1597Y582*
X1587*
X1581Y586*
X1578Y589*
X1575Y595*
Y607*
X1578Y614*
X1581Y617*
X1587Y620*
X1597*
X1603Y617*
X1606Y614*
X1575Y2283D02*
Y2321D01*
X1593*
X1600Y2318*
X1603Y2314*
X1606Y2308*
Y2296*
X1603Y2289*
X1600Y2286*
X1593Y2283*
X1575*
X1618Y2604D02*
X1615Y2601D01*
X1608Y2598*
X1599*
X1593Y2601*
X1590Y2604*
X1586Y2611*
Y2623*
X1590Y2629*
X1593Y2633*
X1599Y2636*
X1608*
X1615Y2633*
X1618Y2629*
X1620Y3822D02*
X1626Y3819D01*
X1630Y3812*
X1626Y3806*
X1620Y3803*
X1598*
Y3840*
X1620*
X1626Y3837*
X1630Y3831*
X1626Y3825*
X1620Y3822*
X1598*
X1685Y978D02*
X1682Y975D01*
X1675Y972*
X1666*
X1660Y975*
X1657Y978*
X1653Y985*
Y997*
X1657Y1003*
X1660Y1007*
X1666Y1010*
X1675*
X1682Y1007*
X1685Y1003*
X1653Y2283D02*
Y2321D01*
X1672*
X1678Y2318*
X1682Y2314*
X1685Y2308*
Y2296*
X1682Y2289*
X1678Y2286*
X1672Y2283*
X1653*
X1654Y1936D02*
Y1974D01*
X1672*
X1679Y1970*
X1682Y1967*
X1685Y1961*
Y1949*
X1682Y1942*
X1679Y1939*
X1672Y1936*
X1654*
X1672Y1901D02*
Y1939D01*
X1691*
X1697Y1935*
X1700Y1932*
X1704Y1926*
Y1914*
X1700Y1907*
X1697Y1904*
X1691Y1901*
X1672*
X1699Y278D02*
X1705Y275D01*
X1708Y269*
X1705Y263*
X1699Y260*
X1677*
Y297*
X1699*
X1705Y294*
X1708Y288*
X1705Y281*
X1699Y278*
X1677*
X1724Y900D02*
X1721Y897D01*
X1715Y893*
X1705*
X1699Y897*
X1696Y900*
X1693Y906*
Y918*
X1696Y925*
X1699Y928*
X1705Y931*
X1715*
X1721Y928*
X1724Y925*
X1728Y632D02*
X1725Y629D01*
X1719Y626*
X1709*
X1703Y629*
X1700Y632*
X1697Y638*
Y651*
X1700Y657*
X1703Y660*
X1709Y663*
X1719*
X1725Y660*
X1728Y657*
X1708Y1886D02*
Y1924D01*
X1727*
X1733Y1921*
X1737Y1917*
X1740Y1911*
Y1899*
X1737Y1892*
X1733Y1889*
X1727Y1886*
X1708*
X1759Y959D02*
X1756Y956D01*
X1750Y953*
X1741*
X1734Y956*
X1731Y959*
X1728Y965*
Y978*
X1731Y984*
X1734Y987*
X1741Y990*
X1750*
X1756Y987*
X1759Y984*
X1742Y1865D02*
Y1902D01*
X1761*
X1767Y1899*
X1770Y1896*
X1773Y1890*
Y1877*
X1770Y1871*
X1767Y1868*
X1761Y1865*
X1742*
X1770Y3822D02*
X1776Y3819D01*
X1780Y3812*
X1776Y3806*
X1770Y3803*
X1748*
Y3840*
X1770*
X1776Y3837*
X1780Y3831*
X1776Y3825*
X1770Y3822*
X1748*
X1799Y569D02*
X1796Y566D01*
X1789Y563*
X1780*
X1774Y566*
X1771Y569*
X1768Y575*
Y588*
X1771Y594*
X1774Y597*
X1780Y600*
X1789*
X1796Y597*
X1799Y594*
X1803Y1350D02*
X1800Y1347D01*
X1793Y1344*
X1784*
X1778Y1347*
X1775Y1350*
X1772Y1356*
Y1369*
X1775Y1375*
X1778Y1378*
X1784Y1381*
X1793*
X1800Y1378*
X1803Y1375*
X1807Y1110D02*
X1804Y1107D01*
X1797Y1104*
X1788*
X1782Y1107*
X1779Y1110*
X1775Y1116*
Y1129*
X1779Y1135*
X1782Y1138*
X1788Y1141*
X1797*
X1804Y1138*
X1807Y1135*
X1787Y1865D02*
Y1902D01*
X1806*
X1812Y1899*
X1815Y1896*
X1818Y1890*
Y1877*
X1815Y1871*
X1812Y1868*
X1806Y1865*
X1787*
X1801Y1819D02*
Y1856D01*
X1820*
X1826Y1853*
X1829Y1850*
X1832Y1844*
Y1831*
X1829Y1825*
X1826Y1822*
X1820Y1819*
X1801*
X1842Y1053D02*
X1839Y1050D01*
X1833Y1047*
X1823*
X1817Y1050*
X1814Y1053*
X1811Y1060*
Y1072*
X1814Y1078*
X1817Y1081*
X1823Y1085*
X1833*
X1839Y1081*
X1842Y1078*
X1878Y3447D02*
X1874Y3444D01*
X1868Y3441*
X1859*
X1853Y3444*
X1849Y3447*
X1846Y3453*
Y3466*
X1849Y3472*
X1853Y3475*
X1859Y3478*
X1868*
X1874Y3475*
X1878Y3472*
X1893Y1345D02*
X1890Y1341D01*
X1884Y1338*
X1875*
X1868Y1341*
X1865Y1345*
X1862Y1351*
Y1363*
X1865Y1370*
X1868Y1373*
X1875Y1376*
X1884*
X1890Y1373*
X1893Y1370*
X1917Y581D02*
X1914Y578D01*
X1908Y575*
X1898*
X1892Y578*
X1889Y581*
X1886Y587*
Y600*
X1889Y606*
X1892Y609*
X1898Y612*
X1908*
X1914Y609*
X1917Y606*
X1909Y278D02*
X1915Y275D01*
X1918Y269*
X1915Y263*
X1909Y260*
X1887*
Y297*
X1909*
X1915Y294*
X1918Y288*
X1915Y281*
X1909Y278*
X1887*
X1920Y3822D02*
X1926Y3819D01*
X1930Y3812*
X1926Y3806*
X1920Y3803*
X1898*
Y3840*
X1920*
X1926Y3837*
X1930Y3831*
X1926Y3825*
X1920Y3822*
X1898*
X1913Y1933D02*
Y1970D01*
X1932*
X1938Y1967*
X1941Y1964*
X1945Y1958*
Y1945*
X1941Y1939*
X1938Y1936*
X1932Y1933*
X1913*
X1917Y1976D02*
Y2014D01*
X1936*
X1942Y2011*
X1945Y2007*
X1948Y2001*
Y1989*
X1945Y1982*
X1942Y1979*
X1936Y1976*
X1917*
X1937Y1897D02*
Y1935D01*
X1956*
X1962Y1932*
X1965Y1929*
X1968Y1922*
Y1910*
X1965Y1904*
X1962Y1901*
X1956Y1897*
X1937*
X1953Y1858D02*
Y1896D01*
X1971*
X1978Y1892*
X1981Y1889*
X1984Y1883*
Y1871*
X1981Y1864*
X1978Y1861*
X1971Y1858*
X1953*
X1964Y1984D02*
Y2022D01*
X1983*
X1989Y2018*
X1993Y2015*
X1996Y2009*
Y1997*
X1993Y1990*
X1989Y1987*
X1983Y1984*
X1964*
X2000Y986D02*
X1997Y983D01*
X1990Y980*
X1981*
X1975Y983*
X1972Y986*
X1968Y993*
Y1005*
X1972Y1011*
X1975Y1014*
X1981Y1018*
X1990*
X1997Y1014*
X2000Y1011*
X1988Y1830D02*
Y1868D01*
X2007*
X2013Y1865*
X2016Y1862*
X2019Y1855*
Y1843*
X2016Y1837*
X2013Y1834*
X2007Y1830*
X1988*
X2035Y900D02*
X2032Y897D01*
X2026Y893*
X2016*
X2010Y897*
X2007Y900*
X2004Y906*
Y918*
X2007Y925*
X2010Y928*
X2016Y931*
X2026*
X2032Y928*
X2035Y925*
X2039Y632D02*
X2036Y629D01*
X2030Y626*
X2020*
X2014Y629*
X2011Y632*
X2008Y638*
Y651*
X2011Y657*
X2014Y660*
X2020Y663*
X2030*
X2036Y660*
X2039Y657*
X2008Y2098D02*
Y2136D01*
X2026*
X2033Y2133*
X2036Y2129*
X2039Y2123*
Y2111*
X2036Y2104*
X2033Y2101*
X2026Y2098*
X2008*
X2039Y2164D02*
X2036Y2160D01*
X2030Y2157*
X2020*
X2014Y2160*
X2011Y2164*
X2008Y2170*
Y2182*
X2011Y2189*
X2014Y2192*
X2020Y2195*
X2030*
X2036Y2192*
X2039Y2189*
X2012Y2008D02*
Y2045D01*
X2030*
X2037Y2042*
X2040Y2039*
X2043Y2033*
Y2020*
X2040Y2014*
X2037Y2011*
X2030Y2008*
X2012*
X2027Y1815D02*
Y1852D01*
X2046*
X2052Y1849*
X2056Y1846*
X2059Y1840*
Y1827*
X2056Y1821*
X2052Y1818*
X2046Y1815*
X2027*
X2059Y278D02*
X2065Y275D01*
X2068Y269*
X2065Y263*
X2059Y260*
X2037*
Y297*
X2059*
X2065Y294*
X2068Y288*
X2065Y281*
X2059Y278*
X2037*
X2078Y955D02*
X2075Y952D01*
X2069Y949*
X2060*
X2053Y952*
X2050Y955*
X2047Y961*
Y974*
X2050Y980*
X2053Y983*
X2060Y986*
X2069*
X2075Y983*
X2078Y980*
X2070Y3822D02*
X2076Y3819D01*
X2080Y3812*
X2076Y3806*
X2070Y3803*
X2048*
Y3840*
X2070*
X2076Y3837*
X2080Y3831*
X2076Y3825*
X2070Y3822*
X2048*
X2110Y569D02*
X2107Y566D01*
X2100Y563*
X2091*
X2085Y566*
X2082Y569*
X2079Y575*
Y588*
X2082Y594*
X2085Y597*
X2091Y600*
X2100*
X2107Y597*
X2110Y594*
X2114Y1342D02*
X2111Y1339D01*
X2104Y1336*
X2095*
X2089Y1339*
X2086Y1342*
X2083Y1349*
Y1361*
X2086Y1367*
X2089Y1370*
X2095Y1374*
X2104*
X2111Y1370*
X2114Y1367*
X2118Y1108D02*
X2115Y1105D01*
X2108Y1102*
X2099*
X2093Y1105*
X2090Y1108*
X2086Y1115*
Y1127*
X2090Y1133*
X2093Y1137*
X2099Y1140*
X2108*
X2115Y1137*
X2118Y1133*
X2161Y1045D02*
X2158Y1042D01*
X2152Y1039*
X2142*
X2136Y1042*
X2133Y1045*
X2130Y1052*
Y1064*
X2133Y1070*
X2136Y1074*
X2142Y1077*
X2152*
X2158Y1074*
X2161Y1070*
X2149Y2468D02*
Y2506D01*
X2168*
X2174Y2503*
X2178Y2500*
X2181Y2493*
Y2481*
X2178Y2475*
X2174Y2471*
X2168Y2468*
X2149*
X2208Y1349D02*
X2205Y1345D01*
X2199Y1342*
X2190*
X2183Y1345*
X2180Y1349*
X2177Y1355*
Y1367*
X2180Y1374*
X2183Y1377*
X2190Y1380*
X2199*
X2205Y1377*
X2208Y1374*
X2209Y278D02*
X2215Y275D01*
X2218Y269*
X2215Y263*
X2209Y260*
X2187*
Y297*
X2209*
X2215Y294*
X2218Y288*
X2215Y281*
X2209Y278*
X2187*
X2220Y3822D02*
X2226Y3819D01*
X2230Y3812*
X2226Y3806*
X2220Y3803*
X2198*
Y3840*
X2220*
X2226Y3837*
X2230Y3831*
X2226Y3825*
X2220Y3822*
X2198*
X2232Y581D02*
X2229Y578D01*
X2223Y575*
X2213*
X2207Y578*
X2204Y581*
X2201Y587*
Y600*
X2204Y606*
X2207Y609*
X2213Y612*
X2223*
X2229Y609*
X2232Y606*
X2216Y2291D02*
Y2329D01*
X2235*
X2241Y2325*
X2245Y2322*
X2248Y2316*
Y2304*
X2245Y2297*
X2241Y2294*
X2235Y2291*
X2216*
X2248Y2604D02*
X2245Y2601D01*
X2238Y2598*
X2229*
X2223Y2601*
X2220Y2604*
X2216Y2611*
Y2623*
X2220Y2629*
X2223Y2633*
X2229Y2636*
X2238*
X2245Y2633*
X2248Y2629*
X2272Y2531D02*
Y2569D01*
X2290*
X2297Y2566*
X2300Y2563*
X2303Y2556*
Y2544*
X2300Y2538*
X2297Y2534*
X2290Y2531*
X2272*
X2311Y978D02*
X2308Y975D01*
X2301Y972*
X2292*
X2286Y975*
X2283Y978*
X2279Y985*
Y997*
X2283Y1003*
X2286Y1007*
X2292Y1010*
X2301*
X2308Y1007*
X2311Y1003*
X2295Y2291D02*
Y2329D01*
X2314*
X2320Y2325*
X2323Y2322*
X2326Y2316*
Y2304*
X2323Y2297*
X2320Y2294*
X2314Y2291*
X2295*
X2354Y908D02*
X2351Y904D01*
X2345Y901*
X2335*
X2329Y904*
X2326Y908*
X2323Y914*
Y926*
X2326Y933*
X2329Y936*
X2335Y939*
X2345*
X2351Y936*
X2354Y933*
X2358Y636D02*
X2355Y633D01*
X2349Y630*
X2339*
X2333Y633*
X2330Y636*
X2327Y642*
Y655*
X2330Y661*
X2333Y664*
X2339Y667*
X2349*
X2355Y664*
X2358Y661*
X2359Y278D02*
X2365Y275D01*
X2368Y269*
X2365Y263*
X2359Y260*
X2337*
Y297*
X2359*
X2365Y294*
X2368Y288*
X2365Y281*
X2359Y278*
X2337*
X2370Y3822D02*
X2376Y3819D01*
X2380Y3812*
X2376Y3806*
X2370Y3803*
X2348*
Y3840*
X2370*
X2376Y3837*
X2380Y3831*
X2376Y3825*
X2370Y3822*
X2348*
X2397Y963D02*
X2394Y960D01*
X2388Y956*
X2379*
X2372Y960*
X2369Y963*
X2366Y969*
Y981*
X2369Y988*
X2372Y991*
X2379Y994*
X2388*
X2394Y991*
X2397Y988*
X2374Y2291D02*
Y2329D01*
X2393*
X2399Y2325*
X2402Y2322*
X2405Y2316*
Y2304*
X2402Y2297*
X2399Y2294*
X2393Y2291*
X2374*
X2390Y2531D02*
Y2569D01*
X2408*
X2415Y2566*
X2418Y2563*
X2421Y2556*
Y2544*
X2418Y2538*
X2415Y2534*
X2408Y2531*
X2390*
X2433Y573D02*
X2430Y570D01*
X2423Y567*
X2414*
X2408Y570*
X2405Y573*
X2401Y579*
Y592*
X2405Y598*
X2408Y601*
X2414Y604*
X2423*
X2430Y601*
X2433Y598*
Y1120D02*
X2430Y1117D01*
X2423Y1114*
X2414*
X2408Y1117*
X2405Y1120*
X2401Y1126*
Y1139*
X2405Y1145*
X2408Y1148*
X2414Y1151*
X2423*
X2430Y1148*
X2433Y1145*
Y1349D02*
X2430Y1345D01*
X2423Y1342*
X2414*
X2408Y1345*
X2405Y1349*
X2401Y1355*
Y1367*
X2405Y1374*
X2408Y1377*
X2414Y1380*
X2423*
X2430Y1377*
X2433Y1374*
X2476Y1049D02*
X2473Y1046D01*
X2467Y1043*
X2457*
X2451Y1046*
X2448Y1049*
X2445Y1056*
Y1068*
X2448Y1074*
X2451Y1077*
X2457Y1081*
X2467*
X2473Y1077*
X2476Y1074*
X2453Y2291D02*
Y2329D01*
X2471*
X2478Y2325*
X2481Y2322*
X2484Y2316*
Y2304*
X2481Y2297*
X2478Y2294*
X2471Y2291*
X2453*
X2508Y3455D02*
X2504Y3452D01*
X2498Y3449*
X2489*
X2483Y3452*
X2479Y3455*
X2476Y3461*
Y3474*
X2479Y3480*
X2483Y3483*
X2489Y3486*
X2498*
X2504Y3483*
X2508Y3480*
X2509Y278D02*
X2515Y275D01*
X2518Y269*
X2515Y263*
X2509Y260*
X2487*
Y297*
X2509*
X2515Y294*
X2518Y288*
X2515Y281*
X2509Y278*
X2487*
X2523Y1349D02*
X2520Y1345D01*
X2514Y1342*
X2504*
X2498Y1345*
X2495Y1349*
X2492Y1355*
Y1367*
X2495Y1374*
X2498Y1377*
X2504Y1380*
X2514*
X2520Y1377*
X2523Y1374*
X2520Y3822D02*
X2526Y3819D01*
X2530Y3812*
X2526Y3806*
X2520Y3803*
X2498*
Y3840*
X2520*
X2526Y3837*
X2530Y3831*
X2526Y3825*
X2520Y3822*
X2498*
X2547Y581D02*
X2544Y578D01*
X2537Y575*
X2528*
X2522Y578*
X2519Y581*
X2516Y587*
Y600*
X2519Y606*
X2522Y609*
X2528Y612*
X2537*
X2544Y609*
X2547Y606*
X2516Y2468D02*
Y2506D01*
X2534*
X2541Y2503*
X2544Y2500*
X2547Y2493*
Y2481*
X2544Y2475*
X2541Y2471*
X2534Y2468*
X2516*
X2626Y982D02*
X2622Y979D01*
X2616Y976*
X2607*
X2601Y979*
X2597Y982*
X2594Y989*
Y1001*
X2597Y1007*
X2601Y1011*
X2607Y1014*
X2616*
X2622Y1011*
X2626Y1007*
X2610Y1949D02*
Y1986D01*
X2629*
X2635Y1983*
X2638Y1980*
X2641Y1974*
Y1961*
X2638Y1955*
X2635Y1952*
X2629Y1949*
X2610*
X2653Y2045D02*
X2650Y2042D01*
X2644Y2039*
X2634*
X2628Y2042*
X2625Y2045*
X2622Y2052*
Y2064*
X2625Y2070*
X2628Y2074*
X2634Y2077*
X2644*
X2650Y2074*
X2653Y2070*
X2661Y880D02*
X2658Y877D01*
X2652Y874*
X2642*
X2636Y877*
X2633Y880*
X2630Y886*
Y899*
X2633Y905*
X2636Y908*
X2642Y911*
X2652*
X2658Y908*
X2661Y905*
X2630Y1897D02*
Y1935D01*
X2649*
X2655Y1932*
X2658Y1929*
X2661Y1922*
Y1910*
X2658Y1904*
X2655Y1901*
X2649Y1897*
X2630*
X2659Y278D02*
X2665Y275D01*
X2668Y269*
X2665Y263*
X2659Y260*
X2637*
Y297*
X2659*
X2665Y294*
X2668Y288*
X2665Y281*
X2659Y278*
X2637*
X2673Y628D02*
X2670Y625D01*
X2663Y622*
X2654*
X2648Y625*
X2645Y628*
X2642Y634*
Y647*
X2645Y653*
X2648Y656*
X2654Y659*
X2663*
X2670Y656*
X2673Y653*
X2670Y3822D02*
X2676Y3819D01*
X2680Y3812*
X2676Y3806*
X2670Y3803*
X2648*
Y3840*
X2670*
X2676Y3837*
X2680Y3831*
X2676Y3825*
X2670Y3822*
X2648*
X2696Y947D02*
X2693Y944D01*
X2687Y941*
X2678*
X2671Y944*
X2668Y947*
X2665Y953*
Y966*
X2668Y972*
X2671Y975*
X2678Y978*
X2687*
X2693Y975*
X2696Y972*
X2677Y1775D02*
Y1813D01*
X2696*
X2702Y1810*
X2705Y1807*
X2708Y1800*
Y1788*
X2705Y1782*
X2702Y1778*
X2696Y1775*
X2677*
X2684Y1665D02*
Y1703D01*
X2703*
X2709Y1700*
X2712Y1696*
X2715Y1690*
Y1678*
X2712Y1671*
X2709Y1668*
X2703Y1665*
X2684*
X2685Y1732D02*
Y1770D01*
X2704*
X2710Y1766*
X2713Y1763*
X2716Y1757*
Y1745*
X2713Y1738*
X2710Y1735*
X2704Y1732*
X2685*
X2693Y1819D02*
Y1856D01*
X2712*
X2718Y1853*
X2721Y1850*
X2724Y1844*
Y1831*
X2721Y1825*
X2718Y1822*
X2712Y1819*
X2693*
X2748Y589D02*
X2745Y586D01*
X2738Y582*
X2729*
X2723Y586*
X2720Y589*
X2716Y595*
Y607*
X2720Y614*
X2723Y617*
X2729Y620*
X2738*
X2745Y617*
X2748Y614*
Y1116D02*
X2745Y1113D01*
X2738Y1110*
X2729*
X2723Y1113*
X2720Y1116*
X2716Y1123*
Y1135*
X2720Y1141*
X2723Y1144*
X2729Y1148*
X2738*
X2745Y1144*
X2748Y1141*
Y1349D02*
X2745Y1345D01*
X2738Y1342*
X2729*
X2723Y1345*
X2720Y1349*
X2716Y1355*
Y1367*
X2720Y1374*
X2723Y1377*
X2729Y1380*
X2738*
X2745Y1377*
X2748Y1374*
X2720Y1858D02*
Y1896D01*
X2739*
X2745Y1892*
X2748Y1889*
X2752Y1883*
Y1871*
X2748Y1864*
X2745Y1861*
X2739Y1858*
X2720*
X2787Y1045D02*
X2784Y1042D01*
X2778Y1039*
X2768*
X2762Y1042*
X2759Y1045*
X2756Y1052*
Y1064*
X2759Y1070*
X2762Y1074*
X2768Y1077*
X2778*
X2784Y1074*
X2787Y1070*
X2775Y2476D02*
Y2514D01*
X2794*
X2800Y2511*
X2804Y2507*
X2807Y2501*
Y2489*
X2804Y2482*
X2800Y2479*
X2794Y2476*
X2775*
X2809Y278D02*
X2815Y275D01*
X2818Y269*
X2815Y263*
X2809Y260*
X2787*
Y297*
X2809*
X2815Y294*
X2818Y288*
X2815Y281*
X2809Y278*
X2787*
X2838Y1341D02*
X2835Y1338D01*
X2829Y1334*
X2819*
X2813Y1338*
X2810Y1341*
X2807Y1347*
Y1359*
X2810Y1366*
X2813Y1369*
X2819Y1372*
X2829*
X2835Y1369*
X2838Y1366*
X2862Y585D02*
X2859Y582D01*
X2852Y579*
X2843*
X2837Y582*
X2834Y585*
X2831Y591*
Y604*
X2834Y610*
X2837Y613*
X2843Y616*
X2852*
X2859Y613*
X2862Y610*
X2838Y1638D02*
Y1675D01*
X2857*
X2863Y1672*
X2867Y1669*
X2870Y1663*
Y1650*
X2867Y1644*
X2863Y1641*
X2857Y1638*
X2838*
X2846Y2311D02*
Y2348D01*
X2865*
X2871Y2345*
X2874Y2342*
X2878Y2336*
Y2323*
X2874Y2317*
X2871Y2314*
X2865Y2311*
X2846*
X2878Y2597D02*
X2874Y2593D01*
X2868Y2590*
X2859*
X2853Y2593*
X2849Y2597*
X2846Y2603*
Y2615*
X2849Y2622*
X2853Y2625*
X2859Y2628*
X2868*
X2874Y2625*
X2878Y2622*
X2880Y3822D02*
X2886Y3819D01*
X2889Y3812*
X2886Y3806*
X2880Y3803*
X2858*
Y3840*
X2880*
X2886Y3837*
X2889Y3831*
X2886Y3825*
X2880Y3822*
X2858*
X2901Y2539D02*
Y2577D01*
X2920*
X2926Y2574*
X2930Y2570*
X2933Y2564*
Y2552*
X2930Y2545*
X2926Y2542*
X2920Y2539*
X2901*
X2941Y982D02*
X2937Y979D01*
X2931Y976*
X2922*
X2916Y979*
X2912Y982*
X2909Y989*
Y1001*
X2912Y1007*
X2916Y1011*
X2922Y1014*
X2931*
X2937Y1011*
X2941Y1007*
X2948Y904D02*
X2945Y901D01*
X2939Y897*
X2930*
X2923Y901*
X2920Y904*
X2917Y910*
Y922*
X2920Y929*
X2923Y932*
X2930Y935*
X2939*
X2945Y932*
X2948Y929*
X2917Y1642D02*
Y1679D01*
X2936*
X2942Y1676*
X2945Y1673*
X2948Y1667*
Y1654*
X2945Y1648*
X2942Y1645*
X2936Y1642*
X2917*
X2925Y2311D02*
Y2348D01*
X2944*
X2950Y2345*
X2953Y2342*
X2956Y2336*
Y2323*
X2953Y2317*
X2950Y2314*
X2944Y2311*
X2925*
X2959Y278D02*
X2965Y275D01*
X2968Y269*
X2965Y263*
X2959Y260*
X2937*
Y297*
X2959*
X2965Y294*
X2968Y288*
X2965Y281*
X2959Y278*
X2937*
X2972Y648D02*
X2969Y645D01*
X2963Y642*
X2953*
X2947Y645*
X2944Y648*
X2941Y654*
Y667*
X2944Y673*
X2947Y676*
X2953Y679*
X2963*
X2969Y676*
X2972Y673*
X3000Y947D02*
X2997Y944D01*
X2990Y941*
X2981*
X2975Y944*
X2972Y947*
X2968Y953*
Y966*
X2972Y972*
X2975Y975*
X2981Y978*
X2990*
X2997Y975*
X3000Y972*
X3019Y569D02*
X3016Y566D01*
X3010Y563*
X3001*
X2994Y566*
X2991Y569*
X2988Y575*
Y588*
X2991Y594*
X2994Y597*
X3001Y600*
X3010*
X3016Y597*
X3019Y594*
X3027Y1321D02*
X3024Y1318D01*
X3018Y1315*
X3008*
X3002Y1318*
X2999Y1321*
X2996Y1327*
Y1340*
X2999Y1346*
X3002Y1349*
X3008Y1352*
X3018*
X3024Y1349*
X3027Y1346*
X3031Y1093D02*
X3028Y1090D01*
X3022Y1086*
X3012*
X3006Y1090*
X3003Y1093*
X3000Y1099*
Y1111*
X3003Y1118*
X3006Y1121*
X3012Y1124*
X3022*
X3028Y1121*
X3031Y1118*
X3004Y2311D02*
Y2348D01*
X3023*
X3029Y2345*
X3032Y2342*
X3035Y2336*
Y2323*
X3032Y2317*
X3029Y2314*
X3023Y2311*
X3004*
Y2551D02*
Y2588D01*
X3023*
X3029Y2585*
X3032Y2582*
X3035Y2576*
Y2563*
X3032Y2557*
X3029Y2554*
X3023Y2551*
X3004*
X3030Y3822D02*
X3036Y3819D01*
X3039Y3812*
X3036Y3806*
X3030Y3803*
X3008*
Y3840*
X3030*
X3036Y3837*
X3039Y3831*
X3036Y3825*
X3030Y3822*
X3008*
X3074Y1041D02*
X3071Y1038D01*
X3065Y1035*
X3056*
X3049Y1038*
X3046Y1041*
X3043Y1048*
Y1060*
X3046Y1066*
X3049Y1070*
X3056Y1073*
X3065*
X3071Y1070*
X3074Y1066*
X3086Y1352D02*
X3083Y1349D01*
X3077Y1346*
X3067*
X3061Y1349*
X3058Y1352*
X3055Y1359*
Y1371*
X3058Y1377*
X3061Y1381*
X3067Y1384*
X3077*
X3083Y1381*
X3086Y1377*
X3083Y2311D02*
Y2348D01*
X3101*
X3108Y2345*
X3111Y2342*
X3114Y2336*
Y2323*
X3111Y2317*
X3108Y2314*
X3101Y2311*
X3083*
Y2547D02*
Y2585D01*
X3101*
X3108Y2581*
X3111Y2578*
X3114Y2572*
Y2560*
X3111Y2553*
X3108Y2550*
X3101Y2547*
X3083*
X3137Y3439D02*
X3134Y3436D01*
X3128Y3433*
X3119*
X3112Y3436*
X3109Y3439*
X3106Y3445*
Y3458*
X3109Y3464*
X3112Y3467*
X3119Y3470*
X3128*
X3134Y3467*
X3137Y3464*
X3141Y581D02*
X3138Y578D01*
X3132Y575*
X3123*
X3116Y578*
X3113Y581*
X3110Y587*
Y600*
X3113Y606*
X3116Y609*
X3123Y612*
X3132*
X3138Y609*
X3141Y606*
X3126Y1886D02*
Y1923D01*
X3145*
X3151Y1920*
X3154Y1917*
X3157Y1911*
Y1898*
X3154Y1892*
X3151Y1889*
X3145Y1886*
X3126*
X3130Y1933D02*
Y1970D01*
X3149*
X3155Y1967*
X3158Y1964*
X3161Y1958*
Y1945*
X3158Y1939*
X3155Y1936*
X3149Y1933*
X3130*
X3134Y1846D02*
Y1884D01*
X3152*
X3159Y1881*
X3162Y1877*
X3165Y1871*
Y1859*
X3162Y1852*
X3159Y1849*
X3152Y1846*
X3134*
X3142Y1972D02*
Y2010D01*
X3160*
X3167Y2007*
X3170Y2003*
X3173Y1997*
Y1985*
X3170Y1978*
X3167Y1975*
X3160Y1972*
X3142*
X3169Y278D02*
X3175Y275D01*
X3178Y269*
X3175Y263*
X3169Y260*
X3147*
Y297*
X3169*
X3175Y294*
X3178Y288*
X3175Y281*
X3169Y278*
X3147*
X3180Y3822D02*
X3186Y3819D01*
X3189Y3812*
X3186Y3806*
X3180Y3803*
X3158*
Y3840*
X3180*
X3186Y3837*
X3189Y3831*
X3186Y3825*
X3180Y3822*
X3158*
X3161Y2043D02*
Y2081D01*
X3180*
X3186Y2077*
X3189Y2074*
X3193Y2068*
Y2056*
X3189Y2049*
X3186Y2046*
X3180Y2043*
X3161*
X3169Y1823D02*
Y1860D01*
X3188*
X3194Y1857*
X3197Y1854*
X3200Y1848*
Y1835*
X3197Y1829*
X3194Y1826*
X3188Y1823*
X3169*
Y1909D02*
Y1947D01*
X3188*
X3194Y1944*
X3197Y1940*
X3200Y1934*
Y1922*
X3197Y1915*
X3194Y1912*
X3188Y1909*
X3169*
Y2106D02*
Y2144D01*
X3188*
X3194Y2140*
X3197Y2137*
X3200Y2131*
Y2119*
X3197Y2112*
X3194Y2109*
X3188Y2106*
X3169*
X3177Y2145D02*
Y2183D01*
X3196*
X3202Y2180*
X3205Y2177*
X3208Y2170*
Y2158*
X3205Y2152*
X3202Y2149*
X3196Y2145*
X3177*
X3189Y2000D02*
Y2037D01*
X3208*
X3214Y2034*
X3217Y2031*
X3220Y2025*
Y2012*
X3217Y2006*
X3214Y2003*
X3208Y2000*
X3189*
X3224Y978D02*
X3221Y975D01*
X3215Y972*
X3205*
X3199Y975*
X3196Y978*
X3193Y985*
Y997*
X3196Y1003*
X3199Y1007*
X3205Y1010*
X3215*
X3221Y1007*
X3224Y1003*
X3209Y2043D02*
Y2081D01*
X3227*
X3234Y2077*
X3237Y2074*
X3240Y2068*
Y2056*
X3237Y2049*
X3234Y2046*
X3227Y2043*
X3209*
X3252Y640D02*
X3248Y637D01*
X3242Y634*
X3233*
X3227Y637*
X3223Y640*
X3220Y646*
Y659*
X3223Y665*
X3227Y668*
X3233Y671*
X3242*
X3248Y668*
X3252Y665*
Y892D02*
X3248Y889D01*
X3242Y886*
X3233*
X3227Y889*
X3223Y892*
X3220Y898*
Y911*
X3223Y917*
X3227Y920*
X3233Y923*
X3242*
X3248Y920*
X3252Y917*
X3291Y951D02*
X3288Y948D01*
X3282Y945*
X3272*
X3266Y948*
X3263Y951*
X3260Y957*
Y970*
X3263Y976*
X3266Y979*
X3272Y982*
X3282*
X3288Y979*
X3291Y976*
X3319Y278D02*
X3325Y275D01*
X3328Y269*
X3325Y263*
X3319Y260*
X3297*
Y297*
X3319*
X3325Y294*
X3328Y288*
X3325Y281*
X3319Y278*
X3297*
X3334Y573D02*
X3331Y570D01*
X3325Y567*
X3316*
X3309Y570*
X3306Y573*
X3303Y579*
Y592*
X3306Y598*
X3309Y601*
X3316Y604*
X3325*
X3331Y601*
X3334Y598*
X3338Y1358D02*
X3335Y1355D01*
X3329Y1352*
X3319*
X3313Y1355*
X3310Y1358*
X3307Y1364*
Y1377*
X3310Y1383*
X3313Y1386*
X3319Y1389*
X3329*
X3335Y1386*
X3338Y1383*
X3330Y3822D02*
X3336Y3819D01*
X3339Y3812*
X3336Y3806*
X3330Y3803*
X3308*
Y3840*
X3330*
X3336Y3837*
X3339Y3831*
X3336Y3825*
X3330Y3822*
X3308*
X3342Y1110D02*
X3339Y1107D01*
X3333Y1104*
X3323*
X3317Y1107*
X3314Y1110*
X3311Y1116*
Y1129*
X3314Y1135*
X3317Y1138*
X3323Y1141*
X3333*
X3339Y1138*
X3342Y1135*
X3350Y1041D02*
X3347Y1038D01*
X3341Y1035*
X3331*
X3325Y1038*
X3322Y1041*
X3319Y1048*
Y1060*
X3322Y1066*
X3325Y1070*
X3331Y1073*
X3341*
X3347Y1070*
X3350Y1066*
X3342Y2082D02*
Y2120D01*
X3361*
X3367Y2117*
X3371Y2114*
X3374Y2107*
Y2095*
X3371Y2089*
X3367Y2086*
X3361Y2082*
X3342*
X3429Y1352D02*
X3426Y1349D01*
X3419Y1346*
X3410*
X3404Y1349*
X3401Y1352*
X3398Y1359*
Y1371*
X3401Y1377*
X3404Y1381*
X3410Y1384*
X3419*
X3426Y1381*
X3429Y1377*
X3452Y581D02*
X3449Y578D01*
X3443Y575*
X3434*
X3427Y578*
X3424Y581*
X3421Y587*
Y600*
X3424Y606*
X3427Y609*
X3434Y612*
X3443*
X3449Y609*
X3452Y606*
X3433Y2291D02*
Y2329D01*
X3452*
X3458Y2325*
X3461Y2322*
X3464Y2316*
Y2304*
X3461Y2297*
X3458Y2294*
X3452Y2291*
X3433*
Y2535D02*
Y2573D01*
X3452*
X3458Y2570*
X3461Y2566*
X3464Y2560*
Y2548*
X3461Y2541*
X3458Y2538*
X3452Y2535*
X3433*
X3469Y278D02*
X3475Y275D01*
X3478Y269*
X3475Y263*
X3469Y260*
X3447*
Y297*
X3469*
X3475Y294*
X3478Y288*
X3475Y281*
X3469Y278*
X3447*
X3480Y3822D02*
X3486Y3819D01*
X3489Y3812*
X3486Y3806*
X3480Y3803*
X3458*
Y3840*
X3480*
X3486Y3837*
X3489Y3831*
X3486Y3825*
X3480Y3822*
X3458*
X3507Y2597D02*
X3504Y2593D01*
X3498Y2590*
X3489*
X3483Y2593*
X3479Y2597*
X3476Y2603*
Y2615*
X3479Y2622*
X3483Y2625*
X3489Y2628*
X3498*
X3504Y2625*
X3507Y2622*
X3531Y986D02*
X3528Y983D01*
X3522Y980*
X3512*
X3506Y983*
X3503Y986*
X3500Y993*
Y1005*
X3503Y1011*
X3506Y1014*
X3512Y1018*
X3522*
X3528Y1014*
X3531Y1011*
X3512Y2291D02*
Y2329D01*
X3530*
X3537Y2325*
X3540Y2322*
X3543Y2316*
Y2304*
X3540Y2297*
X3537Y2294*
X3530Y2291*
X3512*
X3527Y2527D02*
Y2565D01*
X3546*
X3552Y2562*
X3556Y2559*
X3559Y2552*
Y2540*
X3556Y2534*
X3552Y2530*
X3546Y2527*
X3527*
X3567Y900D02*
X3563Y897D01*
X3557Y893*
X3548*
X3542Y897*
X3538Y900*
X3535Y906*
Y918*
X3538Y925*
X3542Y928*
X3548Y931*
X3557*
X3563Y928*
X3567Y925*
X3574Y644D02*
X3571Y641D01*
X3565Y638*
X3556*
X3549Y641*
X3546Y644*
X3543Y650*
Y663*
X3546Y669*
X3549Y672*
X3556Y675*
X3565*
X3571Y672*
X3574Y669*
X3610Y955D02*
X3607Y952D01*
X3600Y949*
X3591*
X3585Y952*
X3582Y955*
X3579Y961*
Y974*
X3582Y980*
X3585Y983*
X3591Y986*
X3600*
X3607Y983*
X3610Y980*
X3590Y2291D02*
Y2329D01*
X3609*
X3615Y2325*
X3619Y2322*
X3622Y2316*
Y2304*
X3619Y2297*
X3615Y2294*
X3609Y2291*
X3590*
X3619Y278D02*
X3625Y275D01*
X3628Y269*
X3625Y263*
X3619Y260*
X3597*
Y297*
X3619*
X3625Y294*
X3628Y288*
X3625Y281*
X3619Y278*
X3597*
X3602Y2531D02*
Y2569D01*
X3621*
X3627Y2566*
X3630Y2563*
X3633Y2556*
Y2544*
X3630Y2538*
X3627Y2534*
X3621Y2531*
X3602*
X3630Y3822D02*
X3636Y3819D01*
X3639Y3812*
X3636Y3806*
X3630Y3803*
X3608*
Y3840*
X3630*
X3636Y3837*
X3639Y3831*
X3636Y3825*
X3630Y3822*
X3608*
X3641Y569D02*
X3638Y566D01*
X3632Y563*
X3623*
X3616Y566*
X3613Y569*
X3610Y575*
Y588*
X3613Y594*
X3616Y597*
X3623Y600*
X3632*
X3638Y597*
X3641Y594*
X3653Y1116D02*
X3650Y1113D01*
X3644Y1110*
X3634*
X3628Y1113*
X3625Y1116*
X3622Y1123*
Y1135*
X3625Y1141*
X3628Y1144*
X3634Y1148*
X3644*
X3650Y1144*
X3653Y1141*
Y1352D02*
X3650Y1349D01*
X3644Y1346*
X3634*
X3628Y1349*
X3625Y1352*
X3622Y1359*
Y1371*
X3625Y1377*
X3628Y1381*
X3634Y1384*
X3644*
X3650Y1381*
X3653Y1377*
X3693Y1041D02*
X3689Y1038D01*
X3683Y1035*
X3674*
X3668Y1038*
X3664Y1041*
X3661Y1048*
Y1060*
X3664Y1066*
X3668Y1070*
X3674Y1073*
X3683*
X3689Y1070*
X3693Y1066*
X3669Y2291D02*
Y2329D01*
X3688*
X3694Y2325*
X3697Y2322*
X3700Y2316*
Y2304*
X3697Y2297*
X3694Y2294*
X3688Y2291*
X3669*
Y2531D02*
Y2569D01*
X3688*
X3694Y2566*
X3697Y2563*
X3700Y2556*
Y2544*
X3697Y2538*
X3694Y2534*
X3688Y2531*
X3669*
X3744Y1349D02*
X3741Y1345D01*
X3734Y1342*
X3725*
X3719Y1345*
X3716Y1349*
X3712Y1355*
Y1367*
X3716Y1374*
X3719Y1377*
X3725Y1380*
X3734*
X3741Y1377*
X3744Y1374*
X3767Y577D02*
X3764Y574D01*
X3758Y571*
X3749*
X3742Y574*
X3739Y577*
X3736Y583*
Y596*
X3739Y602*
X3742Y605*
X3749Y608*
X3758*
X3764Y605*
X3767Y602*
Y3455D02*
X3764Y3452D01*
X3758Y3449*
X3749*
X3742Y3452*
X3739Y3455*
X3736Y3461*
Y3474*
X3739Y3480*
X3742Y3483*
X3749Y3486*
X3758*
X3764Y3483*
X3767Y3480*
X3769Y278D02*
X3775Y275D01*
X3778Y269*
X3775Y263*
X3769Y260*
X3747*
Y297*
X3769*
X3775Y294*
X3778Y288*
X3775Y281*
X3769Y278*
X3747*
X3780Y3822D02*
X3786Y3819D01*
X3789Y3812*
X3786Y3806*
X3780Y3803*
X3758*
Y3840*
X3780*
X3786Y3837*
X3789Y3831*
X3786Y3825*
X3780Y3822*
X3758*
X3807Y1953D02*
Y1990D01*
X3826*
X3832Y1987*
X3835Y1984*
X3838Y1978*
Y1965*
X3835Y1959*
X3832Y1956*
X3826Y1953*
X3807*
X3838Y2049D02*
X3835Y2046D01*
X3829Y2043*
X3819*
X3813Y2046*
X3810Y2049*
X3807Y2056*
Y2068*
X3810Y2074*
X3813Y2077*
X3819Y2081*
X3829*
X3835Y2077*
X3838Y2074*
X3854Y978D02*
X3851Y975D01*
X3845Y972*
X3835*
X3829Y975*
X3826Y978*
X3823Y985*
Y997*
X3826Y1003*
X3829Y1007*
X3835Y1010*
X3845*
X3851Y1007*
X3854Y1003*
X3878Y896D02*
X3874Y893D01*
X3868Y890*
X3859*
X3853Y893*
X3849Y896*
X3846Y902*
Y915*
X3849Y921*
X3853Y924*
X3859Y927*
X3868*
X3874Y924*
X3878Y921*
X3885Y644D02*
X3882Y641D01*
X3876Y638*
X3867*
X3860Y641*
X3857Y644*
X3854Y650*
Y663*
X3857Y669*
X3860Y672*
X3867Y675*
X3876*
X3882Y672*
X3885Y669*
X3919Y278D02*
X3925Y275D01*
X3928Y269*
X3925Y263*
X3919Y260*
X3897*
Y297*
X3919*
X3925Y294*
X3928Y288*
X3925Y281*
X3919Y278*
X3897*
X3929Y947D02*
X3926Y944D01*
X3919Y941*
X3910*
X3904Y944*
X3901Y947*
X3898Y953*
Y966*
X3901Y972*
X3904Y975*
X3910Y978*
X3919*
X3926Y975*
X3929Y972*
X3930Y3822D02*
X3936Y3819D01*
X3939Y3812*
X3936Y3806*
X3930Y3803*
X3908*
Y3840*
X3930*
X3936Y3837*
X3939Y3831*
X3936Y3825*
X3930Y3822*
X3908*
X3956Y565D02*
X3953Y562D01*
X3947Y559*
X3938*
X3931Y562*
X3928Y565*
X3925Y571*
Y584*
X3928Y590*
X3931Y593*
X3938Y596*
X3947*
X3953Y593*
X3956Y590*
X3964Y1118D02*
X3961Y1115D01*
X3955Y1112*
X3945*
X3939Y1115*
X3936Y1118*
X3933Y1124*
Y1137*
X3936Y1143*
X3939Y1146*
X3945Y1149*
X3955*
X3961Y1146*
X3964Y1143*
Y1346D02*
X3961Y1343D01*
X3955Y1340*
X3945*
X3939Y1343*
X3936Y1346*
X3933Y1353*
Y1365*
X3936Y1371*
X3939Y1374*
X3945Y1378*
X3955*
X3961Y1374*
X3964Y1371*
X4008Y1041D02*
X4004Y1038D01*
X3998Y1035*
X3989*
X3983Y1038*
X3979Y1041*
X3976Y1048*
Y1060*
X3979Y1066*
X3983Y1070*
X3989Y1073*
X3998*
X4004Y1070*
X4008Y1066*
X4059Y1352D02*
X4056Y1349D01*
X4049Y1346*
X4040*
X4034Y1349*
X4031Y1352*
X4027Y1359*
Y1371*
X4031Y1377*
X4034Y1381*
X4040Y1384*
X4049*
X4056Y1381*
X4059Y1377*
X4069Y278D02*
X4075Y275D01*
X4078Y269*
X4075Y263*
X4069Y260*
X4047*
Y297*
X4069*
X4075Y294*
X4078Y288*
X4075Y281*
X4069Y278*
X4047*
X4078Y577D02*
X4075Y574D01*
X4069Y571*
X4060*
X4053Y574*
X4050Y577*
X4047Y583*
Y596*
X4050Y602*
X4053Y605*
X4060Y608*
X4069*
X4075Y605*
X4078Y602*
X4059Y2287D02*
Y2325D01*
X4078*
X4084Y2322*
X4087Y2318*
X4090Y2312*
Y2300*
X4087Y2293*
X4084Y2290*
X4078Y2287*
X4059*
Y2523D02*
Y2561D01*
X4078*
X4084Y2558*
X4087Y2555*
X4090Y2548*
Y2536*
X4087Y2530*
X4084Y2527*
X4078Y2523*
X4059*
X4137Y2597D02*
X4134Y2593D01*
X4128Y2590*
X4119*
X4112Y2593*
X4109Y2597*
X4106Y2603*
Y2615*
X4109Y2622*
X4112Y2625*
X4119Y2628*
X4128*
X4134Y2625*
X4137Y2622*
X4114Y2508D02*
Y2545D01*
X4133*
X4139Y2542*
X4142Y2539*
X4145Y2533*
Y2520*
X4142Y2514*
X4139Y2511*
X4133Y2508*
X4114*
X4140Y3822D02*
X4146Y3819D01*
X4149Y3812*
X4146Y3806*
X4140Y3803*
X4118*
Y3840*
X4140*
X4146Y3837*
X4149Y3831*
X4146Y3825*
X4140Y3822*
X4118*
X4165Y978D02*
X4162Y975D01*
X4156Y972*
X4146*
X4140Y975*
X4137Y978*
X4134Y985*
Y997*
X4137Y1003*
X4140Y1007*
X4146Y1010*
X4156*
X4162Y1007*
X4165Y1003*
X4138Y2287D02*
Y2325D01*
X4156*
X4163Y2322*
X4166Y2318*
X4169Y2312*
Y2300*
X4166Y2293*
X4163Y2290*
X4156Y2287*
X4138*
X4200Y648D02*
X4197Y645D01*
X4191Y642*
X4182*
X4175Y645*
X4172Y648*
X4169Y654*
Y667*
X4172Y673*
X4175Y676*
X4182Y679*
X4191*
X4197Y676*
X4200Y673*
Y896D02*
X4197Y893D01*
X4191Y890*
X4182*
X4175Y893*
X4172Y896*
X4169Y902*
Y915*
X4172Y921*
X4175Y924*
X4182Y927*
X4191*
X4197Y924*
X4200Y921*
X4193Y2519D02*
Y2557D01*
X4212*
X4218Y2554*
X4221Y2551*
X4224Y2544*
Y2532*
X4221Y2526*
X4218Y2523*
X4212Y2519*
X4193*
X4219Y278D02*
X4225Y275D01*
X4228Y269*
X4225Y263*
X4219Y260*
X4197*
Y297*
X4219*
X4225Y294*
X4228Y288*
X4225Y281*
X4219Y278*
X4197*
X4240Y955D02*
X4237Y952D01*
X4230Y949*
X4221*
X4215Y952*
X4212Y955*
X4209Y961*
Y974*
X4212Y980*
X4215Y983*
X4221Y986*
X4230*
X4237Y983*
X4240Y980*
X4216Y2287D02*
Y2325D01*
X4235*
X4241Y2322*
X4245Y2318*
X4248Y2312*
Y2300*
X4245Y2293*
X4241Y2290*
X4235Y2287*
X4216*
X4234Y2070D02*
Y2107D01*
X4253*
X4259Y2104*
X4263Y2101*
X4266Y2095*
Y2082*
X4263Y2076*
X4259Y2073*
X4253Y2070*
X4234*
X4275Y561D02*
X4272Y558D01*
X4266Y555*
X4256*
X4250Y558*
X4247Y561*
X4244Y567*
Y580*
X4247Y586*
X4250Y589*
X4256Y592*
X4266*
X4272Y589*
X4275Y586*
Y1122D02*
X4272Y1119D01*
X4266Y1116*
X4256*
X4250Y1119*
X4247Y1122*
X4244Y1128*
Y1141*
X4247Y1147*
X4250Y1150*
X4256Y1153*
X4266*
X4272Y1150*
X4275Y1147*
X4283Y1354D02*
X4280Y1351D01*
X4274Y1348*
X4264*
X4258Y1351*
X4255Y1354*
X4252Y1360*
Y1373*
X4255Y1379*
X4258Y1382*
X4264Y1385*
X4274*
X4280Y1382*
X4283Y1379*
X4290Y3822D02*
X4296Y3819D01*
X4299Y3812*
X4296Y3806*
X4290Y3803*
X4268*
Y3840*
X4290*
X4296Y3837*
X4299Y3831*
X4296Y3825*
X4290Y3822*
X4268*
X4322Y1041D02*
X4319Y1038D01*
X4313Y1035*
X4304*
X4297Y1038*
X4294Y1041*
X4291Y1048*
Y1060*
X4294Y1066*
X4297Y1070*
X4304Y1073*
X4313*
X4319Y1070*
X4322Y1066*
X4295Y2287D02*
Y2325D01*
X4314*
X4320Y2322*
X4323Y2318*
X4326Y2312*
Y2300*
X4323Y2293*
X4320Y2290*
X4314Y2287*
X4295*
X4307Y2523D02*
Y2561D01*
X4326*
X4332Y2558*
X4335Y2555*
X4338Y2548*
Y2536*
X4335Y2530*
X4332Y2527*
X4326Y2523*
X4307*
X4378Y1349D02*
X4374Y1345D01*
X4368Y1342*
X4359*
X4353Y1345*
X4349Y1349*
X4346Y1355*
Y1367*
X4349Y1374*
X4353Y1377*
X4359Y1380*
X4368*
X4374Y1377*
X4378Y1374*
X4362Y1589D02*
Y1627D01*
X4381*
X4387Y1624*
X4390Y1621*
X4393Y1614*
Y1602*
X4390Y1596*
X4387Y1593*
X4381Y1589*
X4362*
X4397Y569D02*
X4394Y566D01*
X4388Y563*
X4379*
X4372Y566*
X4369Y569*
X4366Y575*
Y588*
X4369Y594*
X4372Y597*
X4379Y600*
X4388*
X4394Y597*
X4397Y594*
Y3435D02*
X4394Y3432D01*
X4388Y3429*
X4379*
X4372Y3432*
X4369Y3435*
X4366Y3441*
Y3454*
X4369Y3460*
X4372Y3463*
X4379Y3466*
X4388*
X4394Y3463*
X4397Y3460*
X4401Y2144D02*
X4398Y2141D01*
X4392Y2138*
X4382*
X4376Y2141*
X4373Y2144*
X4370Y2150*
Y2163*
X4373Y2169*
X4376Y2172*
X4382Y2175*
X4392*
X4398Y2172*
X4401Y2169*
X4382Y2082D02*
Y2120D01*
X4401*
X4407Y2117*
X4410Y2114*
X4413Y2107*
Y2095*
X4410Y2089*
X4407Y2086*
X4401Y2082*
X4382*
X4428Y278D02*
X4435Y275D01*
X4438Y269*
X4435Y263*
X4428Y260*
X4407*
Y297*
X4428*
X4435Y294*
X4438Y288*
X4435Y281*
X4428Y278*
X4407*
X4440Y3822D02*
X4446Y3819D01*
X4449Y3812*
X4446Y3806*
X4440Y3803*
X4418*
Y3840*
X4440*
X4446Y3837*
X4449Y3831*
X4446Y3825*
X4440Y3822*
X4418*
X4421Y2449D02*
Y2486D01*
X4440*
X4446Y2483*
X4449Y2480*
X4452Y2474*
Y2461*
X4449Y2455*
X4446Y2452*
X4440Y2449*
X4421*
X4441Y1589D02*
Y1627D01*
X4460*
X4466Y1624*
X4469Y1621*
X4472Y1614*
Y1602*
X4469Y1596*
X4466Y1593*
X4460Y1589*
X4441*
X4476Y978D02*
X4473Y975D01*
X4467Y972*
X4457*
X4451Y975*
X4448Y978*
X4445Y985*
Y997*
X4448Y1003*
X4451Y1007*
X4457Y1010*
X4467*
X4473Y1007*
X4476Y1003*
X4515Y644D02*
X4512Y641D01*
X4506Y638*
X4497*
X4490Y641*
X4487Y644*
X4484Y650*
Y663*
X4487Y669*
X4490Y672*
X4497Y675*
X4506*
X4512Y672*
X4515Y669*
Y896D02*
X4512Y893D01*
X4506Y890*
X4497*
X4490Y893*
X4487Y896*
X4484Y902*
Y915*
X4487Y921*
X4490Y924*
X4497Y927*
X4506*
X4512Y924*
X4515Y921*
X4555Y951D02*
X4552Y948D01*
X4545Y945*
X4536*
X4530Y948*
X4527Y951*
X4523Y957*
Y970*
X4527Y976*
X4530Y979*
X4536Y982*
X4545*
X4552Y979*
X4555Y976*
X4523Y2161D02*
Y2199D01*
X4542*
X4548Y2196*
X4552Y2192*
X4555Y2186*
Y2174*
X4552Y2167*
X4548Y2164*
X4542Y2161*
X4523*
X4586Y573D02*
X4583Y570D01*
X4577Y567*
X4567*
X4561Y570*
X4558Y573*
X4555Y579*
Y592*
X4558Y598*
X4561Y601*
X4567Y604*
X4577*
X4583Y601*
X4586Y598*
X4555Y2126D02*
Y2163D01*
X4574*
X4580Y2160*
X4583Y2157*
X4586Y2151*
Y2138*
X4583Y2132*
X4580Y2129*
X4574Y2126*
X4555*
X4578Y278D02*
X4585Y275D01*
X4588Y269*
X4585Y263*
X4578Y260*
X4557*
Y297*
X4578*
X4585Y294*
X4588Y288*
X4585Y281*
X4578Y278*
X4557*
X4594Y1349D02*
X4591Y1345D01*
X4585Y1342*
X4575*
X4569Y1345*
X4566Y1349*
X4563Y1355*
Y1367*
X4566Y1374*
X4569Y1377*
X4575Y1380*
X4585*
X4591Y1377*
X4594Y1374*
X4598Y1120D02*
X4595Y1117D01*
X4589Y1114*
X4579*
X4573Y1117*
X4570Y1120*
X4567Y1126*
Y1139*
X4570Y1145*
X4573Y1148*
X4579Y1151*
X4589*
X4595Y1148*
X4598Y1145*
X4590Y3822D02*
X4596Y3819D01*
X4599Y3812*
X4596Y3806*
X4590Y3803*
X4568*
Y3840*
X4590*
X4596Y3837*
X4599Y3831*
X4596Y3825*
X4590Y3822*
X4568*
X4590Y2098D02*
Y2136D01*
X4609*
X4615Y2133*
X4619Y2129*
X4622Y2123*
Y2111*
X4619Y2104*
X4615Y2101*
X4609Y2098*
X4590*
X4637Y1041D02*
X4634Y1038D01*
X4628Y1035*
X4619*
X4612Y1038*
X4609Y1041*
X4606Y1048*
Y1060*
X4609Y1066*
X4612Y1070*
X4619Y1073*
X4628*
X4634Y1070*
X4637Y1066*
X4638Y2287D02*
Y2325D01*
X4656*
X4663Y2322*
X4666Y2318*
X4669Y2312*
Y2300*
X4666Y2293*
X4663Y2290*
X4656Y2287*
X4638*
X4643Y2012D02*
Y2050D01*
X4661*
X4668Y2047*
X4671Y2043*
X4674Y2037*
Y2025*
X4671Y2018*
X4668Y2015*
X4661Y2012*
X4643*
X4689Y1345D02*
X4685Y1341D01*
X4679Y1338*
X4670*
X4664Y1341*
X4660Y1345*
X4657Y1351*
Y1363*
X4660Y1370*
X4664Y1373*
X4670Y1376*
X4679*
X4685Y1373*
X4689Y1370*
X4664Y1965D02*
Y2002D01*
X4683*
X4689Y1999*
X4692Y1996*
X4695Y1990*
Y1977*
X4692Y1971*
X4689Y1968*
X4683Y1965*
X4664*
X4679Y1580D02*
Y1618D01*
X4697*
X4704Y1614*
X4707Y1611*
X4710Y1605*
Y1593*
X4707Y1586*
X4704Y1583*
X4697Y1580*
X4679*
X4712Y581D02*
X4709Y578D01*
X4703Y575*
X4693*
X4687Y578*
X4684Y581*
X4681Y587*
Y600*
X4684Y606*
X4687Y609*
X4693Y612*
X4703*
X4709Y609*
X4712Y606*
X4728Y278D02*
X4735Y275D01*
X4738Y269*
X4735Y263*
X4728Y260*
X4707*
Y297*
X4728*
X4735Y294*
X4738Y288*
X4735Y281*
X4728Y278*
X4707*
X4716Y2287D02*
Y2325D01*
X4735*
X4741Y2322*
X4745Y2318*
X4748Y2312*
Y2300*
X4745Y2293*
X4741Y2290*
X4735Y2287*
X4716*
X4740Y3822D02*
X4746Y3819D01*
X4749Y3812*
X4746Y3806*
X4740Y3803*
X4718*
Y3840*
X4740*
X4746Y3837*
X4749Y3831*
X4746Y3825*
X4740Y3822*
X4718*
X4720Y2516D02*
Y2553D01*
X4739*
X4745Y2550*
X4748Y2547*
X4752Y2541*
Y2528*
X4748Y2522*
X4745Y2519*
X4739Y2516*
X4720*
X4767Y2604D02*
X4764Y2601D01*
X4758Y2598*
X4749*
X4742Y2601*
X4739Y2604*
X4736Y2611*
Y2623*
X4739Y2629*
X4742Y2633*
X4749Y2636*
X4758*
X4764Y2633*
X4767Y2629*
X4787Y978D02*
X4784Y975D01*
X4778Y972*
X4768*
X4762Y975*
X4759Y978*
X4756Y985*
Y997*
X4759Y1003*
X4762Y1007*
X4768Y1010*
X4778*
X4784Y1007*
X4787Y1003*
X4760Y1580D02*
Y1618D01*
X4778*
X4785Y1614*
X4788Y1611*
X4791Y1605*
Y1593*
X4788Y1586*
X4785Y1583*
X4778Y1580*
X4760*
X4763Y1789D02*
Y1826D01*
X4782*
X4788Y1823*
X4791Y1820*
X4794Y1814*
Y1801*
X4791Y1795*
X4788Y1792*
X4782Y1789*
X4763*
X4791Y1978D02*
Y2016D01*
X4810*
X4816Y2013*
X4819Y2010*
X4822Y2003*
Y1991*
X4819Y1985*
X4816Y1982*
X4810Y1978*
X4791*
X4826Y884D02*
X4823Y881D01*
X4817Y878*
X4808*
X4801Y881*
X4798Y884*
X4795Y890*
Y903*
X4798Y909*
X4801Y912*
X4808Y915*
X4817*
X4823Y912*
X4826Y909*
X4795Y2287D02*
Y2325D01*
X4814*
X4820Y2322*
X4823Y2318*
X4826Y2312*
Y2300*
X4823Y2293*
X4820Y2290*
X4814Y2287*
X4795*
X4834Y632D02*
X4831Y629D01*
X4825Y626*
X4816*
X4809Y629*
X4806Y632*
X4803Y638*
Y651*
X4806Y657*
X4809Y660*
X4816Y663*
X4825*
X4831Y660*
X4834Y657*
X4815Y2527D02*
Y2565D01*
X4834*
X4840Y2562*
X4843Y2559*
X4846Y2552*
Y2540*
X4843Y2534*
X4840Y2530*
X4834Y2527*
X4815*
X4816Y1946D02*
Y1984D01*
X4835*
X4841Y1980*
X4844Y1977*
X4847Y1971*
Y1959*
X4844Y1952*
X4841Y1949*
X4835Y1946*
X4816*
X4858Y947D02*
X4855Y944D01*
X4849Y941*
X4839*
X4833Y944*
X4830Y947*
X4827Y953*
Y966*
X4830Y972*
X4833Y975*
X4839Y978*
X4849*
X4855Y975*
X4858Y972*
X4832Y1837D02*
Y1875D01*
X4851*
X4857Y1872*
X4860Y1869*
X4864Y1862*
Y1850*
X4860Y1844*
X4857Y1841*
X4851Y1837*
X4832*
X4853Y1917D02*
Y1955D01*
X4872*
X4878Y1952*
X4882Y1949*
X4885Y1942*
Y1930*
X4882Y1924*
X4878Y1920*
X4872Y1917*
X4853*
X4878Y278D02*
X4885Y275D01*
X4888Y269*
X4885Y263*
X4878Y260*
X4857*
Y297*
X4878*
X4885Y294*
X4888Y288*
X4885Y281*
X4878Y278*
X4857*
X4890Y3822D02*
X4896Y3819D01*
X4899Y3812*
X4896Y3806*
X4890Y3803*
X4868*
Y3840*
X4890*
X4896Y3837*
X4899Y3831*
X4896Y3825*
X4890Y3822*
X4868*
X4871Y1879D02*
Y1916D01*
X4890*
X4896Y1913*
X4899Y1910*
X4902Y1904*
Y1891*
X4899Y1885*
X4896Y1882*
X4890Y1879*
X4871*
X4874Y2287D02*
Y2325D01*
X4893*
X4899Y2322*
X4902Y2318*
X4905Y2312*
Y2300*
X4902Y2293*
X4899Y2290*
X4893Y2287*
X4874*
X4909Y569D02*
X4906Y566D01*
X4900Y563*
X4890*
X4884Y566*
X4881Y569*
X4878Y575*
Y588*
X4881Y594*
X4884Y597*
X4890Y600*
X4900*
X4906Y597*
X4909Y594*
X4913Y1112D02*
X4910Y1109D01*
X4904Y1106*
X4894*
X4888Y1109*
X4885Y1112*
X4882Y1119*
Y1131*
X4885Y1137*
X4888Y1140*
X4894Y1144*
X4904*
X4910Y1140*
X4913Y1137*
Y1349D02*
X4910Y1345D01*
X4904Y1342*
X4894*
X4888Y1345*
X4885Y1349*
X4882Y1355*
Y1367*
X4885Y1374*
X4888Y1377*
X4894Y1380*
X4904*
X4910Y1377*
X4913Y1374*
X4890Y2527D02*
Y2565D01*
X4908*
X4915Y2562*
X4918Y2559*
X4921Y2552*
Y2540*
X4918Y2534*
X4915Y2530*
X4908Y2527*
X4890*
X4952Y1041D02*
X4949Y1038D01*
X4943Y1035*
X4934*
X4927Y1038*
X4924Y1041*
X4921Y1048*
Y1060*
X4924Y1066*
X4927Y1070*
X4934Y1073*
X4943*
X4949Y1070*
X4952Y1066*
X4964Y1968D02*
Y2006D01*
X4983*
X4989Y2003*
X4993Y2000*
X4996Y1993*
Y1981*
X4993Y1975*
X4989Y1971*
X4983Y1968*
X4964*
X4996Y2061D02*
X4993Y2058D01*
X4986Y2055*
X4977*
X4971Y2058*
X4968Y2061*
X4964Y2067*
Y2080*
X4968Y2086*
X4971Y2089*
X4977Y2092*
X4986*
X4993Y2089*
X4996Y2086*
X5004Y1349D02*
X5000Y1345D01*
X4994Y1342*
X4985*
X4979Y1345*
X4975Y1349*
X4972Y1355*
Y1367*
X4975Y1374*
X4979Y1377*
X4985Y1380*
X4994*
X5000Y1377*
X5004Y1374*
X5023Y577D02*
X5020Y574D01*
X5014Y571*
X5004*
X4998Y574*
X4995Y577*
X4992Y583*
Y596*
X4995Y602*
X4998Y605*
X5004Y608*
X5014*
X5020Y605*
X5023Y602*
X4996Y1580D02*
Y1617D01*
X5015*
X5021Y1614*
X5024Y1611*
X5027Y1605*
Y1592*
X5024Y1586*
X5021Y1583*
X5015Y1580*
X4996*
X5027Y3459D02*
X5024Y3456D01*
X5018Y3453*
X5008*
X5002Y3456*
X4999Y3459*
X4996Y3465*
Y3478*
X4999Y3484*
X5002Y3487*
X5008Y3490*
X5018*
X5024Y3487*
X5027Y3484*
X5028Y278D02*
X5035Y275D01*
X5038Y269*
X5035Y263*
X5028Y260*
X5007*
Y297*
X5028*
X5035Y294*
X5038Y288*
X5035Y281*
X5028Y278*
X5007*
X5040Y3822D02*
X5046Y3819D01*
X5049Y3812*
X5046Y3806*
X5040Y3803*
X5018*
Y3840*
X5040*
X5046Y3837*
X5049Y3831*
X5046Y3825*
X5040Y3822*
X5018*
X5044Y1923D02*
Y1961D01*
X5063*
X5069Y1957*
X5072Y1954*
X5075Y1948*
Y1936*
X5072Y1929*
X5069Y1926*
X5063Y1923*
X5044*
X5047Y2441D02*
Y2478D01*
X5066*
X5072Y2475*
X5075Y2472*
X5078Y2466*
Y2453*
X5075Y2447*
X5072Y2444*
X5066Y2441*
X5047*
X5075Y1577D02*
Y1615D01*
X5093*
X5100Y1611*
X5103Y1608*
X5106Y1602*
Y1590*
X5103Y1583*
X5100Y1580*
X5093Y1577*
X5075*
X5110Y986D02*
X5107Y983D01*
X5100Y980*
X5091*
X5085Y983*
X5082Y986*
X5079Y993*
Y1005*
X5082Y1011*
X5085Y1014*
X5091Y1018*
X5100*
X5107Y1014*
X5110Y1011*
X5083Y1823D02*
Y1860D01*
X5101*
X5108Y1857*
X5111Y1854*
X5114Y1848*
Y1835*
X5111Y1829*
X5108Y1826*
X5101Y1823*
X5083*
X5145Y652D02*
X5142Y649D01*
X5136Y645*
X5127*
X5120Y649*
X5117Y652*
X5114Y658*
Y670*
X5117Y677*
X5120Y680*
X5127Y683*
X5136*
X5142Y680*
X5145Y677*
Y888D02*
X5142Y885D01*
X5136Y882*
X5127*
X5120Y885*
X5117Y888*
X5114Y894*
Y907*
X5117Y913*
X5120Y916*
X5127Y919*
X5136*
X5142Y916*
X5145Y913*
X5130Y1815D02*
Y1852D01*
X5149*
X5155Y1849*
X5158Y1846*
X5161Y1840*
Y1827*
X5158Y1821*
X5155Y1818*
X5149Y1815*
X5130*
X5181Y951D02*
X5178Y948D01*
X5171Y945*
X5162*
X5156Y948*
X5153Y951*
X5149Y957*
Y970*
X5153Y976*
X5156Y979*
X5162Y982*
X5171*
X5178Y979*
X5181Y976*
X5153Y1575D02*
Y1612D01*
X5172*
X5178Y1609*
X5182Y1606*
X5185Y1600*
Y1587*
X5182Y1581*
X5178Y1578*
X5172Y1575*
X5153*
X5178Y278D02*
X5185Y275D01*
X5188Y269*
X5185Y263*
X5178Y260*
X5157*
Y297*
X5178*
X5185Y294*
X5188Y288*
X5185Y281*
X5178Y278*
X5157*
X5161Y2366D02*
Y2403D01*
X5180*
X5186Y2400*
X5189Y2397*
X5193Y2391*
Y2378*
X5189Y2372*
X5186Y2369*
X5180Y2366*
X5161*
X5190Y3822D02*
X5196Y3819D01*
X5199Y3812*
X5196Y3806*
X5190Y3803*
X5168*
Y3840*
X5190*
X5196Y3837*
X5199Y3831*
X5196Y3825*
X5190Y3822*
X5168*
X5169Y1803D02*
Y1840D01*
X5188*
X5194Y1837*
X5197Y1834*
X5200Y1828*
Y1815*
X5197Y1809*
X5194Y1806*
X5188Y1803*
X5169*
X5212Y557D02*
X5209Y554D01*
X5203Y551*
X5193*
X5187Y554*
X5184Y557*
X5181Y563*
Y576*
X5184Y582*
X5187Y585*
X5193Y588*
X5203*
X5209Y585*
X5212Y582*
X5224Y1325D02*
X5221Y1322D01*
X5215Y1319*
X5205*
X5199Y1322*
X5196Y1325*
X5193Y1331*
Y1344*
X5196Y1350*
X5199Y1353*
X5205Y1356*
X5215*
X5221Y1353*
X5224Y1350*
X5228Y1097D02*
X5225Y1093D01*
X5219Y1090*
X5209*
X5203Y1093*
X5200Y1097*
X5197Y1103*
Y1115*
X5200Y1122*
X5203Y1125*
X5209Y1128*
X5219*
X5225Y1125*
X5228Y1122*
X5224Y2299D02*
Y2336D01*
X5243*
X5249Y2333*
X5252Y2330*
X5256Y2324*
Y2311*
X5252Y2305*
X5249Y2302*
X5243Y2299*
X5224*
X5267Y1041D02*
X5264Y1038D01*
X5258Y1035*
X5249*
X5242Y1038*
X5239Y1041*
X5236Y1048*
Y1060*
X5239Y1066*
X5242Y1070*
X5249Y1073*
X5258*
X5264Y1070*
X5267Y1066*
X5244Y1488D02*
Y1525D01*
X5263*
X5269Y1522*
X5272Y1519*
X5275Y1513*
Y1500*
X5272Y1494*
X5269Y1491*
X5263Y1488*
X5244*
X5287Y1947D02*
X5284Y1944D01*
X5278Y1941*
X5268*
X5262Y1944*
X5259Y1947*
X5256Y1953*
Y1966*
X5259Y1972*
X5262Y1975*
X5268Y1978*
X5278*
X5284Y1975*
X5287Y1972*
X5272Y1736D02*
Y1773D01*
X5290*
X5297Y1770*
X5300Y1767*
X5303Y1761*
Y1748*
X5300Y1742*
X5297Y1739*
X5290Y1736*
X5272*
X5319Y1352D02*
X5315Y1349D01*
X5309Y1346*
X5300*
X5294Y1349*
X5290Y1352*
X5287Y1359*
Y1371*
X5290Y1377*
X5294Y1381*
X5300Y1384*
X5309*
X5315Y1381*
X5319Y1377*
X5328Y278D02*
X5335Y275D01*
X5338Y269*
X5335Y263*
X5328Y260*
X5307*
Y297*
X5328*
X5335Y294*
X5338Y288*
X5335Y281*
X5328Y278*
X5307*
X5307Y1767D02*
Y1805D01*
X5326*
X5332Y1802*
X5335Y1799*
X5338Y1792*
Y1780*
X5335Y1774*
X5332Y1771*
X5326Y1767*
X5307*
X5346Y577D02*
X5343Y574D01*
X5337Y571*
X5327*
X5321Y574*
X5318Y577*
X5315Y583*
Y596*
X5318Y602*
X5321Y605*
X5327Y608*
X5337*
X5343Y605*
X5346Y602*
X5315Y1807D02*
Y1844D01*
X5334*
X5340Y1841*
X5343Y1838*
X5346Y1832*
Y1819*
X5343Y1813*
X5340Y1810*
X5334Y1807*
X5315*
X5319Y1850D02*
Y1888D01*
X5338*
X5344Y1885*
X5347Y1881*
X5350Y1875*
Y1863*
X5347Y1856*
X5344Y1853*
X5338Y1850*
X5319*
X5350Y1947D02*
X5347Y1944D01*
X5341Y1941*
X5331*
X5325Y1944*
X5322Y1947*
X5319Y1953*
Y1966*
X5322Y1972*
X5325Y1975*
X5331Y1978*
X5341*
X5347Y1975*
X5350Y1972*
X5338Y2090D02*
Y2128D01*
X5357*
X5363Y2125*
X5367Y2122*
X5370Y2115*
Y2103*
X5367Y2097*
X5363Y2093*
X5357Y2090*
X5338*
X5346Y2508D02*
Y2545D01*
X5365*
X5371Y2542*
X5374Y2539*
X5378Y2533*
Y2520*
X5374Y2514*
X5371Y2511*
X5365Y2508*
X5346*
X5397Y2597D02*
X5394Y2593D01*
X5388Y2590*
X5379*
X5372Y2593*
X5369Y2597*
X5366Y2603*
Y2615*
X5369Y2622*
X5372Y2625*
X5379Y2628*
X5388*
X5394Y2625*
X5397Y2622*
X5366Y1681D02*
Y1719D01*
X5385*
X5391Y1716*
X5395Y1713*
X5398Y1706*
Y1694*
X5395Y1688*
X5391Y1685*
X5385Y1681*
X5366*
X5413Y1947D02*
X5410Y1944D01*
X5404Y1941*
X5394*
X5388Y1944*
X5385Y1947*
X5382Y1953*
Y1966*
X5385Y1972*
X5388Y1975*
X5394Y1978*
X5404*
X5410Y1975*
X5413Y1972*
X5429Y975D02*
X5426Y971D01*
X5419Y968*
X5410*
X5404Y971*
X5401Y975*
X5398Y981*
Y993*
X5401Y1000*
X5404Y1003*
X5410Y1006*
X5419*
X5426Y1003*
X5429Y1000*
X5405Y1705D02*
Y1742D01*
X5424*
X5430Y1739*
X5434Y1736*
X5437Y1730*
Y1717*
X5434Y1711*
X5430Y1708*
X5424Y1705*
X5405*
X5410Y1632D02*
Y1669D01*
X5429*
X5435Y1666*
X5438Y1663*
X5441Y1657*
Y1644*
X5438Y1638*
X5435Y1635*
X5429Y1632*
X5410*
X5449Y2508D02*
Y2545D01*
X5467*
X5474Y2542*
X5477Y2539*
X5480Y2533*
Y2520*
X5477Y2514*
X5474Y2511*
X5467Y2508*
X5449*
X5451Y1643D02*
Y1680D01*
X5470*
X5476Y1677*
X5479Y1674*
X5483Y1668*
Y1655*
X5479Y1649*
X5476Y1646*
X5470Y1643*
X5451*
X5478Y278D02*
X5485Y275D01*
X5488Y269*
X5485Y263*
X5478Y260*
X5457*
Y297*
X5478*
X5485Y294*
X5488Y288*
X5485Y281*
X5478Y278*
X5457*
X5551Y467D02*
X5548Y464D01*
X5541Y460*
X5532*
X5526Y464*
X5523Y467*
X5520Y473*
Y485*
X5523Y492*
X5526Y495*
X5532Y498*
X5541*
X5548Y495*
X5551Y492*
X5559Y1018D02*
X5556Y1015D01*
X5549Y1012*
X5540*
X5534Y1015*
X5531Y1018*
X5527Y1024*
Y1037*
X5531Y1043*
X5534Y1046*
X5540Y1049*
X5549*
X5556Y1046*
X5559Y1043*
X5527Y2512D02*
Y2549D01*
X5546*
X5552Y2546*
X5556Y2543*
X5559Y2537*
Y2524*
X5556Y2518*
X5552Y2515*
X5546Y2512*
X5527*
X5535Y2212D02*
Y2250D01*
X5554*
X5560Y2247*
X5563Y2244*
X5567Y2237*
Y2225*
X5563Y2219*
X5560Y2216*
X5554Y2212*
X5535*
X5555Y1643D02*
Y1680D01*
X5574*
X5580Y1677*
X5583Y1674*
X5586Y1668*
Y1655*
X5583Y1649*
X5580Y1646*
X5574Y1643*
X5555*
X5590Y1097D02*
X5587Y1093D01*
X5581Y1090*
X5571*
X5565Y1093*
X5562Y1097*
X5559Y1103*
Y1115*
X5562Y1122*
X5565Y1125*
X5571Y1128*
X5581*
X5587Y1125*
X5590Y1122*
X5598Y2750D02*
X5595Y2747D01*
X5589Y2744*
X5579*
X5573Y2747*
X5570Y2750*
X5567Y2756*
Y2769*
X5570Y2775*
X5573Y2778*
X5579Y2781*
X5589*
X5595Y2778*
X5598Y2775*
X5602Y1490D02*
X5599Y1487D01*
X5593Y1484*
X5583*
X5577Y1487*
X5574Y1490*
X5571Y1497*
Y1509*
X5574Y1515*
X5577Y1518*
X5583Y1522*
X5593*
X5599Y1518*
X5602Y1515*
X5606Y943D02*
X5603Y940D01*
X5597Y937*
X5587*
X5581Y940*
X5578Y943*
X5575Y949*
Y962*
X5578Y968*
X5581Y971*
X5587Y974*
X5597*
X5603Y971*
X5606Y968*
Y1333D02*
X5603Y1330D01*
X5597Y1327*
X5587*
X5581Y1330*
X5578Y1333*
X5575Y1339*
Y1352*
X5578Y1358*
X5581Y1361*
X5587Y1364*
X5597*
X5603Y1361*
X5606Y1358*
X5597Y3822D02*
X5603Y3819D01*
X5606Y3812*
X5603Y3806*
X5597Y3803*
X5575*
Y3841*
X5597*
X5603Y3837*
X5606Y3831*
X5603Y3825*
X5597Y3822*
X5575*
X5610Y2593D02*
X5607Y2590D01*
X5600Y2586*
X5591*
X5585Y2590*
X5582Y2593*
X5579Y2599*
Y2611*
X5582Y2618*
X5585Y2621*
X5591Y2624*
X5600*
X5607Y2621*
X5610Y2618*
X5582Y1405D02*
Y1443D01*
X5601*
X5607Y1440*
X5610Y1436*
X5613Y1430*
Y1418*
X5610Y1411*
X5607Y1408*
X5601Y1405*
X5582*
X5583Y1681D02*
Y1718D01*
X5601*
X5608Y1715*
X5611Y1712*
X5614Y1706*
Y1693*
X5611Y1687*
X5608Y1684*
X5601Y1681*
X5583*
X5586Y1169D02*
Y1207D01*
X5605*
X5611Y1203*
X5615Y1200*
X5618Y1194*
Y1182*
X5615Y1175*
X5611Y1172*
X5605Y1169*
X5586*
Y1248D02*
Y1285D01*
X5605*
X5611Y1282*
X5615Y1279*
X5618Y1273*
Y1260*
X5615Y1254*
X5611Y1251*
X5605Y1248*
X5586*
Y1563D02*
Y1600D01*
X5605*
X5611Y1597*
X5615Y1594*
X5618Y1588*
Y1575*
X5615Y1569*
X5611Y1566*
X5605Y1563*
X5586*
Y1956D02*
Y1994D01*
X5605*
X5611Y1991*
X5615Y1988*
X5618Y1981*
Y1969*
X5615Y1963*
X5611Y1960*
X5605Y1956*
X5586*
Y2035D02*
Y2073D01*
X5605*
X5611Y2070*
X5615Y2066*
X5618Y2060*
Y2048*
X5615Y2041*
X5611Y2038*
X5605Y2035*
X5586*
Y2114D02*
Y2151D01*
X5605*
X5611Y2148*
X5615Y2145*
X5618Y2139*
Y2126*
X5615Y2120*
X5611Y2117*
X5605Y2114*
X5586*
Y2193D02*
Y2230D01*
X5605*
X5611Y2227*
X5615Y2224*
X5618Y2218*
Y2205*
X5615Y2199*
X5611Y2196*
X5605Y2193*
X5586*
Y2271D02*
Y2309D01*
X5605*
X5611Y2306*
X5615Y2303*
X5618Y2296*
Y2284*
X5615Y2278*
X5611Y2275*
X5605Y2271*
X5586*
Y2350D02*
Y2388D01*
X5605*
X5611Y2385*
X5615Y2381*
X5618Y2375*
Y2363*
X5615Y2356*
X5611Y2353*
X5605Y2350*
X5586*
Y2429D02*
Y2466D01*
X5605*
X5611Y2463*
X5615Y2460*
X5618Y2454*
Y2441*
X5615Y2435*
X5611Y2432*
X5605Y2429*
X5586*
Y2508D02*
Y2545D01*
X5605*
X5611Y2542*
X5615Y2539*
X5618Y2533*
Y2520*
X5615Y2514*
X5611Y2511*
X5605Y2508*
X5586*
Y2665D02*
Y2703D01*
X5605*
X5611Y2700*
X5615Y2696*
X5618Y2690*
Y2678*
X5615Y2671*
X5611Y2668*
X5605Y2665*
X5586*
X5701Y1756D02*
Y1793D01*
X5719*
X5726Y1790*
X5729Y1787*
X5732Y1781*
Y1768*
X5729Y1762*
X5726Y1759*
X5719Y1756*
X5701*
X5736Y2593D02*
X5733Y2590D01*
X5726Y2586*
X5717*
X5711Y2590*
X5708Y2593*
X5705Y2599*
Y2611*
X5708Y2618*
X5711Y2621*
X5717Y2624*
X5726*
X5733Y2621*
X5736Y2618*
X5721Y1878D02*
Y1915D01*
X5740*
X5746Y1912*
X5749Y1909*
X5752Y1903*
Y1890*
X5749Y1884*
X5746Y1881*
X5740Y1878*
X5721*
X5724Y1807D02*
Y1844D01*
X5743*
X5749Y1841*
X5752Y1838*
X5756Y1832*
Y1819*
X5752Y1813*
X5749Y1810*
X5743Y1807*
X5724*
X5747Y3822D02*
X5753Y3819D01*
X5756Y3812*
X5753Y3806*
X5747Y3803*
X5725*
Y3841*
X5747*
X5753Y3837*
X5756Y3831*
X5753Y3825*
X5747Y3822*
X5725*
X5728Y337D02*
X5743Y374D01*
X5759Y337*
X5734Y353D02*
X5753D01*
X5728Y3262D02*
X5743Y3299D01*
X5759Y3262*
X5734Y3278D02*
X5753D01*
X5771Y939D02*
X5768Y936D01*
X5762Y933*
X5753*
X5746Y936*
X5743Y939*
X5740Y945*
Y958*
X5743Y964*
X5746Y967*
X5753Y970*
X5762*
X5768Y967*
X5771Y964*
Y2660D02*
X5768Y2656D01*
X5762Y2653*
X5753*
X5746Y2656*
X5743Y2660*
X5740Y2666*
Y2678*
X5743Y2685*
X5746Y2688*
X5753Y2691*
X5762*
X5768Y2688*
X5771Y2685*
X5775Y1333D02*
X5772Y1330D01*
X5766Y1327*
X5756*
X5750Y1330*
X5747Y1333*
X5744Y1339*
Y1352*
X5747Y1358*
X5750Y1361*
X5756Y1364*
X5766*
X5772Y1361*
X5775Y1358*
Y1412D02*
X5772Y1408D01*
X5766Y1405*
X5756*
X5750Y1408*
X5747Y1412*
X5744Y1418*
Y1430*
X5747Y1437*
X5750Y1440*
X5756Y1443*
X5766*
X5772Y1440*
X5775Y1437*
X5744Y1618D02*
Y1655D01*
X5763*
X5769Y1652*
X5772Y1649*
X5775Y1643*
Y1630*
X5772Y1624*
X5769Y1621*
X5763Y1618*
X5744*
Y1693D02*
Y1730D01*
X5763*
X5769Y1727*
X5772Y1724*
X5775Y1718*
Y1705*
X5772Y1699*
X5769Y1696*
X5763Y1693*
X5744*
Y1740D02*
Y1777D01*
X5763*
X5769Y1774*
X5772Y1771*
X5775Y1765*
Y1752*
X5772Y1746*
X5769Y1743*
X5763Y1740*
X5744*
X5779Y860D02*
X5776Y857D01*
X5770Y854*
X5760*
X5754Y857*
X5751Y860*
X5748Y867*
Y879*
X5751Y885*
X5754Y888*
X5760Y892*
X5770*
X5776Y888*
X5779Y885*
Y1018D02*
X5776Y1015D01*
X5770Y1012*
X5760*
X5754Y1015*
X5751Y1018*
X5748Y1024*
Y1037*
X5751Y1043*
X5754Y1046*
X5760Y1049*
X5770*
X5776Y1046*
X5779Y1043*
X5748Y1551D02*
Y1588D01*
X5767*
X5773Y1585*
X5776Y1582*
X5779Y1576*
Y1563*
X5776Y1557*
X5773Y1554*
X5767Y1551*
X5748*
X5751Y1840D02*
Y1877D01*
X5770*
X5776Y1874*
X5779Y1871*
X5782Y1865*
Y1852*
X5779Y1846*
X5776Y1843*
X5770Y1840*
X5751*
X5803Y793D02*
X5800Y790D01*
X5793Y787*
X5784*
X5778Y790*
X5775Y793*
X5772Y800*
Y812*
X5775Y818*
X5778Y822*
X5784Y825*
X5793*
X5800Y822*
X5803Y818*
X5870Y1169D02*
Y1207D01*
X5889*
X5895Y1203*
X5898Y1200*
X5901Y1194*
Y1182*
X5898Y1175*
X5895Y1172*
X5889Y1169*
X5870*
Y1248D02*
Y1285D01*
X5889*
X5895Y1282*
X5898Y1279*
X5901Y1273*
Y1260*
X5898Y1254*
X5895Y1251*
X5889Y1248*
X5870*
Y1484D02*
Y1522D01*
X5889*
X5895Y1518*
X5898Y1515*
X5901Y1509*
Y1497*
X5898Y1490*
X5895Y1487*
X5889Y1484*
X5870*
Y1563D02*
Y1600D01*
X5889*
X5895Y1597*
X5898Y1594*
X5901Y1588*
Y1575*
X5898Y1569*
X5895Y1566*
X5889Y1563*
X5870*
Y1956D02*
Y1994D01*
X5889*
X5895Y1991*
X5898Y1988*
X5901Y1981*
Y1969*
X5898Y1963*
X5895Y1960*
X5889Y1956*
X5870*
Y2035D02*
Y2073D01*
X5889*
X5895Y2070*
X5898Y2066*
X5901Y2060*
Y2048*
X5898Y2041*
X5895Y2038*
X5889Y2035*
X5870*
Y2114D02*
Y2151D01*
X5889*
X5895Y2148*
X5898Y2145*
X5901Y2139*
Y2126*
X5898Y2120*
X5895Y2117*
X5889Y2114*
X5870*
Y2193D02*
Y2230D01*
X5889*
X5895Y2227*
X5898Y2224*
X5901Y2218*
Y2205*
X5898Y2199*
X5895Y2196*
X5889Y2193*
X5870*
Y2271D02*
Y2309D01*
X5889*
X5895Y2306*
X5898Y2303*
X5901Y2296*
Y2284*
X5898Y2278*
X5895Y2275*
X5889Y2271*
X5870*
Y2350D02*
Y2388D01*
X5889*
X5895Y2385*
X5898Y2381*
X5901Y2375*
Y2363*
X5898Y2356*
X5895Y2353*
X5889Y2350*
X5870*
Y2429D02*
Y2466D01*
X5889*
X5895Y2463*
X5898Y2460*
X5901Y2454*
Y2441*
X5898Y2435*
X5895Y2432*
X5889Y2429*
X5870*
Y2508D02*
Y2545D01*
X5889*
X5895Y2542*
X5898Y2539*
X5901Y2533*
Y2520*
X5898Y2514*
X5895Y2511*
X5889Y2508*
X5870*
Y2665D02*
Y2703D01*
X5889*
X5895Y2700*
X5898Y2696*
X5901Y2690*
Y2678*
X5898Y2671*
X5895Y2668*
X5889Y2665*
X5870*
X5913Y463D02*
X5910Y460D01*
X5904Y456*
X5894*
X5888Y460*
X5885Y463*
X5882Y469*
Y481*
X5885Y488*
X5888Y491*
X5894Y494*
X5904*
X5910Y491*
X5913Y488*
X5917Y939D02*
X5914Y936D01*
X5908Y933*
X5898*
X5892Y936*
X5889Y939*
X5886Y945*
Y958*
X5889Y964*
X5892Y967*
X5898Y970*
X5908*
X5914Y967*
X5917Y964*
X5921Y1093D02*
X5918Y1090D01*
X5912Y1086*
X5902*
X5896Y1090*
X5893Y1093*
X5890Y1099*
Y1111*
X5893Y1118*
X5896Y1121*
X5902Y1124*
X5912*
X5918Y1121*
X5921Y1118*
X5937Y2742D02*
X5934Y2739D01*
X5927Y2736*
X5918*
X5912Y2739*
X5909Y2742*
X5905Y2748*
Y2761*
X5909Y2767*
X5912Y2770*
X5918Y2773*
X5927*
X5934Y2770*
X5937Y2767*
D02*
D17*
X238Y3744D03*
X278Y278D03*
Y3203D03*
X329Y586D03*
Y1096D03*
X333Y830D03*
X361Y893D03*
X388Y3744D03*
X396Y2708D03*
Y2905D03*
X404Y1265D03*
Y3074D03*
X408Y507D03*
X443Y980D03*
X467Y1287D03*
X486Y3378D03*
X527Y200D03*
X534Y523D03*
X538Y3744D03*
X605Y905D03*
X644Y582D03*
Y830D03*
X677Y200D03*
X688Y3744D03*
X699Y905D03*
X723Y2019D03*
X727Y511D03*
Y1059D03*
Y1299D03*
X731Y2098D03*
X766Y988D03*
X774Y2228D03*
X786Y1287D03*
X825Y2177D03*
X827Y200D03*
X837Y2468D03*
X838Y3744D03*
X845Y523D03*
X853Y2228D03*
Y2543D03*
X896Y2173D03*
X912Y2464D03*
X920Y913D03*
X931Y2228D03*
X963Y822D03*
X971Y562D03*
X977Y200D03*
X988Y3744D03*
X998Y901D03*
X1019Y1762D03*
X1038Y507D03*
Y1056D03*
Y1292D03*
X1077Y988D03*
Y2307D03*
X1116Y3385D03*
X1127Y200D03*
X1132Y1287D03*
X1138Y3744D03*
X1145Y1787D03*
X1160Y519D03*
X1199Y2228D03*
X1235Y917D03*
X1242Y2208D03*
X1274Y830D03*
X1277Y200D03*
X1282Y586D03*
X1288Y3744D03*
X1313Y893D03*
X1317Y2224D03*
X1357Y1066D03*
Y1295D03*
X1361Y507D03*
X1364Y1889D03*
Y1980D03*
X1380Y2456D03*
X1396Y988D03*
Y2224D03*
X1427Y200D03*
X1447Y1283D03*
X1463Y2440D03*
X1475Y523D03*
Y2224D03*
X1486Y2539D03*
X1498Y3744D03*
X1553Y913D03*
Y2224D03*
X1554Y1877D03*
X1572Y1842D03*
X1577Y200D03*
X1593Y834D03*
X1597Y566D03*
X1608Y1827D03*
X1628Y893D03*
X1642Y1806D03*
X1648Y3744D03*
X1668Y503D03*
X1672Y1285D03*
X1675Y1044D03*
X1687Y1806D03*
X1701Y1759D03*
X1711Y988D03*
X1746Y3381D03*
X1762Y1279D03*
X1786Y515D03*
X1787Y200D03*
X1798Y3744D03*
X1813Y1873D03*
X1817Y1917D03*
X1837Y1838D03*
X1853Y1799D03*
X1864Y1925D03*
X1868Y921D03*
X1888Y1771D03*
X1904Y834D03*
X1908Y566D03*
Y2039D03*
Y2098D03*
X1912Y1948D03*
X1927Y1755D03*
X1937Y200D03*
X1947Y889D03*
X1948Y3744D03*
X1979Y503D03*
X1983Y1277D03*
X1986Y1043D03*
X2030Y980D03*
X2049Y2409D03*
X2077Y1283D03*
X2087Y200D03*
X2098Y3744D03*
X2101Y515D03*
X2116Y2232D03*
Y2539D03*
X2172Y2472D03*
X2179Y913D03*
X2195Y2232D03*
X2223Y842D03*
X2227Y570D03*
X2237Y200D03*
X2248Y3744D03*
X2266Y897D03*
X2274Y2232D03*
X2290Y2472D03*
X2301Y507D03*
Y1055D03*
Y1283D03*
X2345Y984D03*
X2353Y2232D03*
X2376Y3389D03*
X2387Y200D03*
X2392Y1283D03*
X2398Y3744D03*
X2416Y515D03*
Y2409D03*
X2494Y917D03*
X2510Y1889D03*
X2522Y1980D03*
X2530Y814D03*
Y1838D03*
X2537Y200D03*
X2542Y562D03*
X2548Y3744D03*
X2565Y881D03*
X2577Y1716D03*
X2584Y1606D03*
X2585Y1673D03*
X2593Y1759D03*
X2616Y523D03*
Y1051D03*
Y1283D03*
X2620Y1799D03*
X2656Y980D03*
X2675Y2417D03*
X2687Y200D03*
X2707Y1275D03*
X2731Y519D03*
X2738Y1578D03*
X2746Y2251D03*
Y2531D03*
X2758Y3744D03*
X2801Y2480D03*
X2809Y917D03*
X2817Y838D03*
Y1582D03*
X2825Y2251D03*
X2837Y200D03*
X2841Y582D03*
X2868Y881D03*
X2888Y503D03*
X2896Y1255D03*
X2900Y1027D03*
X2904Y2251D03*
Y2492D03*
X2908Y3744D03*
X2943Y976D03*
X2955Y1287D03*
X2983Y2251D03*
Y2488D03*
X3006Y3373D03*
X3010Y515D03*
X3026Y1826D03*
X3030Y1873D03*
X3034Y1787D03*
X3042Y1913D03*
X3047Y200D03*
X3058Y3744D03*
X3061Y1984D03*
X3069Y1763D03*
Y1850D03*
Y2047D03*
X3077Y2086D03*
X3089Y1940D03*
X3093Y913D03*
X3109Y1984D03*
X3120Y574D03*
Y826D03*
X3160Y885D03*
X3197Y200D03*
X3203Y507D03*
X3207Y1292D03*
X3208Y3744D03*
X3211Y1044D03*
X3219Y976D03*
X3242Y2023D03*
X3298Y1287D03*
X3321Y515D03*
X3333Y2232D03*
Y2476D03*
X3347Y200D03*
X3358Y3744D03*
X3376Y2531D03*
X3400Y921D03*
X3412Y2232D03*
X3427Y2468D03*
X3435Y834D03*
X3443Y578D03*
X3479Y889D03*
X3490Y2232D03*
X3497Y200D03*
X3502Y2472D03*
X3508Y3744D03*
X3510Y503D03*
X3522Y1051D03*
Y1287D03*
X3561Y976D03*
X3569Y2232D03*
Y2472D03*
X3612Y1283D03*
X3636Y511D03*
Y3389D03*
X3647Y200D03*
X3658Y3744D03*
X3707Y1893D03*
Y1984D03*
X3723Y913D03*
X3746Y830D03*
X3754Y578D03*
X3797Y200D03*
X3798Y881D03*
X3808Y3744D03*
X3825Y499D03*
X3833Y1052D03*
Y1281D03*
X3876Y976D03*
X3927Y1287D03*
X3947Y200D03*
X3947Y511D03*
X3959Y2228D03*
Y2464D03*
X4006Y2531D03*
X4014Y2448D03*
X4018Y3744D03*
X4034Y913D03*
X4038Y2228D03*
X4069Y582D03*
Y830D03*
X4093Y2460D03*
X4097Y200D03*
X4109Y889D03*
X4116Y2228D03*
X4134Y2010D03*
X4144Y496D03*
Y1056D03*
X4152Y1289D03*
X4168Y3744D03*
X4191Y976D03*
X4195Y2228D03*
X4207Y2464D03*
X4246Y1283D03*
X4262Y1530D03*
X4266Y503D03*
Y3370D03*
X4270Y2078D03*
X4282Y2023D03*
X4307Y200D03*
X4318Y3744D03*
X4321Y2389D03*
X4341Y1530D03*
X4345Y913D03*
X4384Y578D03*
Y830D03*
X4423Y885D03*
Y2102D03*
X4455Y507D03*
Y2066D03*
X4457Y200D03*
X4463Y1283D03*
X4467Y1055D03*
X4468Y3744D03*
X4490Y2039D03*
X4506Y976D03*
X4538Y2228D03*
X4543Y1953D03*
X4557Y1279D03*
X4564Y1905D03*
X4579Y1521D03*
X4581Y515D03*
X4607Y200D03*
X4616Y2228D03*
X4618Y3744D03*
X4620Y2456D03*
X4636Y2539D03*
X4656Y913D03*
X4660Y1521D03*
X4663Y1729D03*
X4691Y1919D03*
X4695Y818D03*
Y2228D03*
X4703Y566D03*
X4715Y2468D03*
X4716Y1887D03*
X4727Y881D03*
X4732Y1778D03*
X4753Y1858D03*
X4757Y200D03*
X4768Y3744D03*
X4771Y1819D03*
X4774Y2228D03*
X4778Y503D03*
X4782Y1047D03*
Y1283D03*
X4790Y2468D03*
X4821Y976D03*
X4864Y1909D03*
Y1996D03*
X4872Y1283D03*
X4892Y511D03*
X4896Y1520D03*
Y3393D03*
X4907Y200D03*
X4918Y3744D03*
X4944Y1864D03*
X4947Y2381D03*
X4975Y1518D03*
X4979Y921D03*
X4983Y1763D03*
X5014Y586D03*
Y822D03*
X5030Y1755D03*
X5049Y885D03*
X5053Y1515D03*
X5057Y200D03*
X5061Y2307D03*
X5068Y3744D03*
X5069Y1744D03*
X5081Y492D03*
X5093Y1259D03*
X5097Y1031D03*
X5124Y2240D03*
X5136Y976D03*
X5144Y1429D03*
X5156Y1881D03*
X5172Y1677D03*
X5187Y1287D03*
X5207Y200D03*
X5207Y1708D03*
X5215Y511D03*
Y1747D03*
X5219Y1791D03*
Y1881D03*
X5238Y2031D03*
X5246Y2448D03*
X5266Y2531D03*
X5266Y1622D03*
X5282Y1881D03*
X5298Y909D03*
X5305Y1645D03*
X5310Y1572D03*
X5349Y2448D03*
X5351Y1583D03*
X5357Y200D03*
X5420Y401D03*
X5427Y952D03*
Y2452D03*
X5435Y2153D03*
X5455Y1583D03*
X5459Y1031D03*
X5467Y2684D03*
X5471Y1425D03*
X5475Y877D03*
Y1267D03*
Y3744D03*
X5479Y2527D03*
X5482Y1346D03*
X5483Y1622D03*
X5486Y1110D03*
Y1188D03*
Y1503D03*
Y1897D03*
Y1976D03*
Y2055D03*
Y2133D03*
Y2212D03*
Y2291D03*
Y2370D03*
Y2448D03*
Y2606D03*
X5601Y1696D03*
X5605Y2527D03*
X5621Y1818D03*
X5624Y1747D03*
X5625Y3744D03*
X5628Y278D03*
Y3203D03*
X5640Y873D03*
Y2594D03*
X5644Y1267D03*
Y1346D03*
Y1559D03*
Y1633D03*
Y1681D03*
X5648Y795D03*
Y952D03*
Y1492D03*
X5651Y1781D03*
X5672Y728D03*
X5770Y1110D03*
Y1188D03*
Y1425D03*
Y1503D03*
Y1897D03*
Y1976D03*
Y2055D03*
Y2133D03*
Y2212D03*
Y2291D03*
Y2370D03*
Y2448D03*
Y2606D03*
X5782Y397D03*
X5786Y873D03*
X5790Y1027D03*
X5805Y2677D03*
X0Y0D02*
M02*
