%FSLAX23Y23*%
%MOIN*%
G04 EasyPC Gerber Version 17.0 Build 3379 *
%ADD86C,0.00787*%
%ADD87C,0.01969*%
%ADD23C,0.02000*%
%ADD22C,0.03200*%
%ADD21C,0.05600*%
%ADD17C,0.10000*%
%ADD13C,0.27500*%
X0Y0D02*
D02*
D13*
X278Y278D03*
Y3203D03*
X5628Y278D03*
Y3203D03*
D02*
D17*
X238Y3744D03*
X388D03*
X527Y200D03*
X538Y3744D03*
X677Y200D03*
X688Y3744D03*
X827Y200D03*
X838Y3744D03*
X977Y200D03*
X988Y3744D03*
X1127Y200D03*
X1138Y3744D03*
X1277Y200D03*
X1288Y3744D03*
X1427Y200D03*
X1498Y3744D03*
X1577Y200D03*
X1648Y3744D03*
X1787Y200D03*
X1798Y3744D03*
X1937Y200D03*
X1948Y3744D03*
X2087Y200D03*
X2098Y3744D03*
X2237Y200D03*
X2248Y3744D03*
X2387Y200D03*
X2398Y3744D03*
X2537Y200D03*
X2548Y3744D03*
X2687Y200D03*
X2758Y3744D03*
X2837Y200D03*
X2908Y3744D03*
X3047Y200D03*
X3058Y3744D03*
X3197Y200D03*
X3208Y3744D03*
X3347Y200D03*
X3358Y3744D03*
X3497Y200D03*
X3508Y3744D03*
X3647Y200D03*
X3658Y3744D03*
X3797Y200D03*
X3808Y3744D03*
X3947Y200D03*
X4018Y3744D03*
X4097Y200D03*
X4168Y3744D03*
X4307Y200D03*
X4318Y3744D03*
X4457Y200D03*
X4468Y3744D03*
X4607Y200D03*
X4618Y3744D03*
X4757Y200D03*
X4768Y3744D03*
X4907Y200D03*
X4918Y3744D03*
X5057Y200D03*
X5068Y3744D03*
X5207Y200D03*
X5357D03*
X5475Y3744D03*
X5625D03*
D02*
D21*
X329Y586D03*
Y1096D03*
X333Y830D03*
X361Y893D03*
X396Y2708D03*
Y2905D03*
X404Y1265D03*
Y3074D03*
X408Y507D03*
X443Y980D03*
X467Y1287D03*
X486Y3378D03*
X534Y523D03*
X605Y905D03*
X644Y582D03*
Y830D03*
X699Y905D03*
X727Y511D03*
Y1059D03*
Y1299D03*
X731Y2098D03*
X766Y988D03*
X786Y1287D03*
X845Y523D03*
X853Y2543D03*
X920Y913D03*
X963Y822D03*
X971Y562D03*
X998Y901D03*
X1038Y507D03*
Y1056D03*
Y1292D03*
X1077Y988D03*
X1116Y3385D03*
X1132Y1287D03*
X1160Y519D03*
X1235Y917D03*
X1274Y830D03*
X1282Y586D03*
X1313Y893D03*
X1357Y1066D03*
Y1295D03*
X1361Y507D03*
X1364Y1980D03*
X1396Y988D03*
X1447Y1283D03*
X1475Y523D03*
X1486Y2539D03*
X1553Y913D03*
X1593Y834D03*
X1597Y566D03*
X1628Y893D03*
X1668Y503D03*
X1672Y1285D03*
X1675Y1044D03*
X1711Y988D03*
X1746Y3381D03*
X1762Y1279D03*
X1786Y515D03*
X1868Y921D03*
X1904Y834D03*
X1908Y566D03*
Y2098D03*
X1947Y889D03*
X1979Y503D03*
X1983Y1277D03*
X1986Y1043D03*
X2030Y980D03*
X2077Y1283D03*
X2101Y515D03*
X2116Y2539D03*
X2179Y913D03*
X2223Y842D03*
X2227Y570D03*
X2266Y897D03*
X2301Y507D03*
Y1055D03*
Y1283D03*
X2345Y984D03*
X2376Y3389D03*
X2392Y1283D03*
X2416Y515D03*
X2494Y917D03*
X2522Y1980D03*
X2530Y814D03*
X2542Y562D03*
X2565Y881D03*
X2616Y523D03*
Y1051D03*
Y1283D03*
X2656Y980D03*
X2707Y1275D03*
X2731Y519D03*
X2746Y2531D03*
X2809Y917D03*
X2817Y838D03*
X2841Y582D03*
X2868Y881D03*
X2888Y503D03*
X2896Y1255D03*
X2900Y1027D03*
X2943Y976D03*
X2955Y1287D03*
X3006Y3373D03*
X3010Y515D03*
X3093Y913D03*
X3120Y574D03*
Y826D03*
X3160Y885D03*
X3203Y507D03*
X3207Y1292D03*
X3211Y1044D03*
X3219Y976D03*
X3298Y1287D03*
X3321Y515D03*
X3376Y2531D03*
X3400Y921D03*
X3435Y834D03*
X3443Y578D03*
X3479Y889D03*
X3510Y503D03*
X3522Y1051D03*
Y1287D03*
X3561Y976D03*
X3612Y1283D03*
X3636Y511D03*
Y3389D03*
X3707Y1984D03*
X3723Y913D03*
X3746Y830D03*
X3754Y578D03*
X3798Y881D03*
X3825Y499D03*
X3833Y1052D03*
Y1281D03*
X3876Y976D03*
X3927Y1287D03*
X3947Y511D03*
X4006Y2531D03*
X4034Y913D03*
X4069Y582D03*
Y830D03*
X4109Y889D03*
X4144Y496D03*
Y1056D03*
X4152Y1289D03*
X4191Y976D03*
X4246Y1283D03*
X4266Y503D03*
Y3370D03*
X4270Y2078D03*
X4345Y913D03*
X4384Y578D03*
Y830D03*
X4423Y885D03*
X4455Y507D03*
X4463Y1283D03*
X4467Y1055D03*
X4506Y976D03*
X4557Y1279D03*
X4581Y515D03*
X4636Y2539D03*
X4656Y913D03*
X4695Y818D03*
X4703Y566D03*
X4727Y881D03*
X4778Y503D03*
X4782Y1047D03*
Y1283D03*
X4821Y976D03*
X4864Y1996D03*
X4872Y1283D03*
X4892Y511D03*
X4896Y3393D03*
X4979Y921D03*
X5014Y586D03*
Y822D03*
X5049Y885D03*
X5081Y492D03*
X5093Y1259D03*
X5097Y1031D03*
X5136Y976D03*
X5156Y1881D03*
X5187Y1287D03*
X5215Y511D03*
X5219Y1881D03*
X5266Y2531D03*
X5282Y1881D03*
X5298Y909D03*
X5420Y401D03*
X5427Y952D03*
X5459Y1031D03*
X5467Y2684D03*
X5471Y1425D03*
X5475Y877D03*
Y1267D03*
X5479Y2527D03*
X5605D03*
X5640Y873D03*
Y2594D03*
X5644Y1267D03*
Y1346D03*
X5648Y795D03*
Y952D03*
X5672Y728D03*
X5782Y397D03*
X5786Y873D03*
X5790Y1027D03*
X5805Y2677D03*
D02*
D22*
X723Y2019D03*
X774Y2228D03*
X825Y2177D03*
X837Y2468D03*
X853Y2228D03*
X896Y2173D03*
X912Y2464D03*
X931Y2228D03*
X1019Y1762D03*
X1077Y2307D03*
X1145Y1787D03*
X1199Y2228D03*
X1242Y2208D03*
X1317Y2224D03*
X1364Y1889D03*
X1380Y2456D03*
X1396Y2224D03*
X1463Y2440D03*
X1475Y2224D03*
X1553D03*
X1554Y1877D03*
X1572Y1842D03*
X1608Y1827D03*
X1642Y1806D03*
X1687D03*
X1701Y1759D03*
X1813Y1873D03*
X1817Y1917D03*
X1837Y1838D03*
X1853Y1799D03*
X1864Y1925D03*
X1888Y1771D03*
X1908Y2039D03*
X1912Y1948D03*
X1927Y1755D03*
X2049Y2409D03*
X2116Y2232D03*
X2172Y2472D03*
X2195Y2232D03*
X2274D03*
X2290Y2472D03*
X2353Y2232D03*
X2416Y2409D03*
X2510Y1889D03*
X2530Y1838D03*
X2577Y1716D03*
X2584Y1606D03*
X2585Y1673D03*
X2593Y1759D03*
X2620Y1799D03*
X2675Y2417D03*
X2738Y1578D03*
X2746Y2251D03*
X2801Y2480D03*
X2817Y1582D03*
X2825Y2251D03*
X2904D03*
Y2492D03*
X2983Y2251D03*
Y2488D03*
X3026Y1826D03*
X3030Y1873D03*
X3034Y1787D03*
X3042Y1913D03*
X3061Y1984D03*
X3069Y1763D03*
Y1850D03*
Y2047D03*
X3077Y2086D03*
X3089Y1940D03*
X3109Y1984D03*
X3242Y2023D03*
X3333Y2232D03*
Y2476D03*
X3412Y2232D03*
X3427Y2468D03*
X3490Y2232D03*
X3502Y2472D03*
X3569Y2232D03*
Y2472D03*
X3707Y1893D03*
X3959Y2228D03*
Y2464D03*
X4014Y2448D03*
X4038Y2228D03*
X4093Y2460D03*
X4116Y2228D03*
X4134Y2010D03*
X4195Y2228D03*
X4207Y2464D03*
X4262Y1530D03*
X4282Y2023D03*
X4321Y2389D03*
X4341Y1530D03*
X4423Y2102D03*
X4455Y2066D03*
X4490Y2039D03*
X4538Y2228D03*
X4543Y1953D03*
X4564Y1905D03*
X4579Y1521D03*
X4616Y2228D03*
X4620Y2456D03*
X4660Y1521D03*
X4663Y1729D03*
X4691Y1919D03*
X4695Y2228D03*
X4715Y2468D03*
X4716Y1887D03*
X4732Y1778D03*
X4753Y1858D03*
X4771Y1819D03*
X4774Y2228D03*
X4790Y2468D03*
X4864Y1909D03*
X4896Y1520D03*
X4944Y1864D03*
X4947Y2381D03*
X4975Y1518D03*
X4983Y1763D03*
X5030Y1755D03*
X5053Y1515D03*
X5061Y2307D03*
X5069Y1744D03*
X5124Y2240D03*
X5144Y1429D03*
X5172Y1677D03*
X5207Y1708D03*
X5215Y1747D03*
X5219Y1791D03*
X5238Y2031D03*
X5246Y2448D03*
X5266Y1622D03*
X5305Y1645D03*
X5310Y1572D03*
X5349Y2448D03*
X5351Y1583D03*
X5427Y2452D03*
X5435Y2153D03*
X5455Y1583D03*
X5482Y1346D03*
X5483Y1622D03*
X5486Y1110D03*
Y1188D03*
Y1503D03*
Y1897D03*
Y1976D03*
Y2055D03*
Y2133D03*
Y2212D03*
Y2291D03*
Y2370D03*
Y2448D03*
Y2606D03*
X5601Y1696D03*
X5621Y1818D03*
X5624Y1747D03*
X5644Y1559D03*
Y1633D03*
Y1681D03*
X5648Y1492D03*
X5651Y1781D03*
X5770Y1110D03*
Y1188D03*
Y1425D03*
Y1503D03*
Y1897D03*
Y1976D03*
Y2055D03*
Y2133D03*
Y2212D03*
Y2291D03*
Y2370D03*
Y2448D03*
Y2606D03*
D02*
D23*
X329Y586D02*
Y590D01*
X396Y2708D02*
X392D01*
X396Y2905D02*
X400D01*
X404Y3074D02*
Y3078D01*
X534Y523D02*
X538D01*
X605Y905D02*
Y909D01*
X644Y582D02*
X652D01*
X845Y523D02*
X837D01*
X920Y913D02*
Y901D01*
X971Y562D02*
X975D01*
X979Y566*
X1116Y3385D02*
X1120D01*
X1160Y519D02*
Y507D01*
X1235Y917D02*
X1238D01*
X1242Y913*
X1282Y586D02*
Y590D01*
X1475Y523D02*
X1483D01*
X1553Y913D02*
X1557D01*
X1597Y566D02*
X1601D01*
X1605Y562*
X1746Y3381D02*
Y3389D01*
X1786Y515D02*
X1790Y511D01*
X1868Y921D02*
X1872Y917D01*
X1908Y566D02*
Y570D01*
X1912Y574*
X1947Y889D02*
Y893D01*
X1943Y897*
X2101Y515D02*
X2105D01*
X2179Y913D02*
X2183Y909D01*
X2227Y570D02*
X2231D01*
X2235Y574*
X2376Y3389D02*
X2372D01*
X2416Y515D02*
X2420D01*
X2494Y917D02*
X2502Y909D01*
X2506*
X2542Y562D02*
X2546Y566D01*
Y562*
X2731Y519D02*
X2738D01*
X2809Y917D02*
Y913D01*
X2813*
Y909*
X2841Y582D02*
X2845D01*
X2849Y578*
X3006Y3373D02*
X3010Y3377D01*
Y3381*
X3093Y913D02*
Y917D01*
X3120Y574D02*
X3116D01*
X3321Y515D02*
X3325D01*
X3400Y921D02*
Y917D01*
X3443Y578D02*
X3447Y582D01*
X3636Y511D02*
Y507D01*
Y3389D02*
Y3381D01*
X3723Y913D02*
Y917D01*
X3754Y578D02*
Y582D01*
X3947Y511D02*
X3951D01*
X3955Y507*
X4034Y913D02*
Y917D01*
X4069Y582D02*
X4077Y590D01*
X4266Y503D02*
X4262Y507D01*
X4266Y3370D02*
Y3366D01*
X4345Y913D02*
Y917D01*
X4341Y921*
X4384Y578D02*
X4380D01*
X4581Y515D02*
Y523D01*
X4656Y913D02*
X4660D01*
X4703Y566D02*
Y574D01*
X4892Y511D02*
X4888Y507D01*
X4896Y3393D02*
Y3389D01*
X4979Y921D02*
X4983Y925D01*
X5014Y586D02*
Y582D01*
X5018Y578*
X5215Y511D02*
X5211D01*
X5298Y909D02*
Y905D01*
D02*
D86*
X810Y2468D02*
G75*
G02X864Y2468I27J0D01*
G01*
X885Y2468*
G75*
G02X938Y2468I27J-4*
G01*
X1356Y2469*
G75*
G02X1404Y2469I24J-12*
G01*
X2145Y2469*
G75*
G02X2145Y2472I27J3*
G01*
G75*
G02X2198I27*
G01*
G75*
G02X2198Y2469I-27J0*
G01*
X2263Y2469*
G75*
G02X2263Y2472I27J3*
G01*
G75*
G02X2317I27*
G01*
G75*
G02X2316Y2469I-27J0*
G01*
X2776Y2470*
G75*
G02X2775Y2480I25J10*
G01*
G75*
G02X2828I27*
G01*
G75*
G02X2826Y2470I-27J0*
G01*
X2888Y2470*
G75*
G02X2877Y2492I16J22*
G01*
G75*
G02X2931I27*
G01*
G75*
G02X2920Y2470I-27*
G01*
X2962Y2470*
G75*
G02X2956Y2488I20J18*
G01*
G75*
G02X3009I27*
G01*
G75*
G02X3003Y2470I-27J0*
G01*
X3307Y2470*
G75*
G02X3306Y2476I26J6*
G01*
G75*
G02X3360I27*
G01*
G75*
G02X3359Y2470I-27J0*
G01*
X3401Y2470*
G75*
G02X3454Y2470I27J-2*
G01*
X3475Y2470*
G75*
G02X3475Y2472I27J2*
G01*
G75*
G02X3529I27*
G01*
G75*
G02X3529Y2470I-27J0*
G01*
X3542Y2470*
G75*
G02X3542Y2472I27J2*
G01*
G75*
G02X3596I27*
G01*
G75*
G02X3596Y2470I-27J0*
G01*
X3933Y2470*
G75*
G02X3985Y2471I26J-6*
G01*
X3999Y2471*
G75*
G02X4029Y2471I15J-22*
G01*
X4068Y2471*
G75*
G02X4118Y2471I25J-11*
G01*
X4181Y2471*
G75*
G02X4233Y2471I26J-7*
G01*
X4598Y2471*
G75*
G02X4643Y2471I22J-15*
G01*
X4688Y2471*
G75*
G02X4742Y2471I27J-3*
G01*
X4763Y2471*
G75*
G02X4816Y2471I27J-3*
G01*
X5233Y2471*
G75*
G02X5260Y2471I14J-23*
G01*
X5335Y2472*
G75*
G02X5362Y2472I14J-23*
G01*
X5409Y2472*
G75*
G02X5446Y2472I19J-19*
G01*
X5473Y2472*
G75*
G02X5500Y2472I13J-23*
G01*
X5757Y2472*
G75*
G02X5783Y2472I13J-24*
G01*
X5876Y2472*
Y3926*
X29*
Y29*
X5876*
Y472*
X5361*
Y1377*
X5357Y1381*
X439*
X435Y1385*
Y2468*
X810Y2468*
X129Y278D02*
G75*
G02X426I148D01*
G01*
G75*
G02X129I-148*
G01*
X178Y3744D02*
G75*
G02X299I61D01*
G01*
G75*
G02X178I-61*
G01*
X287Y586D02*
G75*
G02X371I42D01*
G01*
G75*
G02X287I-42*
G01*
Y1096D02*
G75*
G02X371I42D01*
G01*
G75*
G02X287I-42*
G01*
X328Y3744D02*
G75*
G02X449I61D01*
G01*
G75*
G02X328I-61*
G01*
X330Y869D02*
G75*
G02X322Y893I31J24D01*
G01*
G75*
G02X399I39*
G01*
G75*
G02X363Y854I-39*
G01*
G75*
G02X372Y830I-31J-24*
G01*
G75*
G02X294I-39*
G01*
G75*
G02X330Y869I39*
G01*
X354Y2708D02*
G75*
G02X438I42D01*
G01*
G75*
G02X354I-42*
G01*
Y2905D02*
G75*
G02X438I42D01*
G01*
G75*
G02X354I-42*
G01*
X362Y3081D02*
G75*
G02X129Y3203I-85J122D01*
G01*
G75*
G02X426I148*
G01*
G75*
G02X398Y3116I-148J0*
G01*
G75*
G02X446Y3074I6J-42*
G01*
G75*
G02X362I-42*
G01*
G75*
G02X362Y3081I42J0*
G01*
X369Y507D02*
G75*
G02X447I39D01*
G01*
G75*
G02X369I-39*
G01*
X376Y807D02*
X581D01*
Y618*
X376*
Y807*
X429Y1295D02*
G75*
G02X506Y1287I38J-8D01*
G01*
G75*
G02X442Y1257I-39*
G01*
G75*
G02X365Y1265I-38J8*
G01*
G75*
G02X429Y1295I39*
G01*
X445Y3378D02*
G75*
G02X528I42D01*
G01*
G75*
G02X445I-42*
G01*
X455Y1017D02*
Y1204D01*
X660*
Y1015*
X459*
G75*
G02X482Y980I-16J-35*
G01*
G75*
G02X404I-39*
G01*
G75*
G02X455Y1017I39*
G01*
X478Y3744D02*
G75*
G02X599I61D01*
G01*
G75*
G02X478I-61*
G01*
X492Y523D02*
G75*
G02X576I42D01*
G01*
G75*
G02X492I-42*
G01*
X538Y3346D02*
X798D01*
Y2570*
X538*
Y3346*
X563Y905D02*
G75*
G02X647I42D01*
G01*
G75*
G02X563I-42*
G01*
X588Y200D02*
G75*
G02X466I-61D01*
G01*
G75*
G02X588I61*
G01*
X602Y582D02*
G75*
G02X686I42D01*
G01*
G75*
G02X602I-42*
G01*
X605Y830D02*
G75*
G02X683I39D01*
G01*
G75*
G02X605I-39*
G01*
X628Y3744D02*
G75*
G02X749I61D01*
G01*
G75*
G02X628I-61*
G01*
X660Y905D02*
G75*
G02X738I39D01*
G01*
G75*
G02X660I-39*
G01*
X683Y799D02*
X888D01*
Y610*
X683*
Y799*
X688Y511D02*
G75*
G02X766I39D01*
G01*
G75*
G02X688I-39*
G01*
X738Y200D02*
G75*
G02X616I-61D01*
G01*
G75*
G02X738I61*
G01*
X751Y1269D02*
G75*
G02X688Y1299I-25J30D01*
G01*
G75*
G02X761Y1317I39*
G01*
G75*
G02X825Y1287I25J-30*
G01*
G75*
G02X751Y1269I-39*
G01*
X766Y1027D02*
Y1044D01*
G75*
G02X685Y1059I-39J14*
G01*
G75*
G02X766Y1073I42*
G01*
Y1204*
X971*
Y1015*
X794*
G75*
G02X805Y988I-28J-28*
G01*
G75*
G02X727I-39*
G01*
G75*
G02X766Y1027I39*
G01*
X778Y3744D02*
G75*
G02X899I61D01*
G01*
G75*
G02X778I-61*
G01*
X803Y523D02*
G75*
G02X887I42D01*
G01*
G75*
G02X803I-42*
G01*
X814Y2543D02*
G75*
G02X892I39D01*
G01*
G75*
G02X814I-39*
G01*
X888Y200D02*
G75*
G02X766I-61D01*
G01*
G75*
G02X888I61*
G01*
X924Y822D02*
G75*
G02X1002I39D01*
G01*
G75*
G02X924I-39*
G01*
X928Y3744D02*
G75*
G02X1049I61D01*
G01*
G75*
G02X928I-61*
G01*
X929Y562D02*
G75*
G02X1013I42D01*
G01*
G75*
G02X929I-42*
G01*
X959Y900D02*
G75*
G02X878Y913I-40J13D01*
G01*
G75*
G02X961Y914I42*
G01*
G75*
G02X1037Y901I37J-13*
G01*
G75*
G02X959Y900I-39*
G01*
X999Y507D02*
G75*
G02X1077I39D01*
G01*
G75*
G02X999I-39*
G01*
Y1292D02*
G75*
G02X1077I39D01*
G01*
G75*
G02X999I-39*
G01*
X1006Y803D02*
X1211D01*
Y614*
X1006*
Y803*
X1038Y200D02*
G75*
G02X916I-61D01*
G01*
G75*
G02X1038I61*
G01*
X1051Y1016D02*
G75*
G02X996Y1056I-13J40D01*
G01*
G75*
G02X1080I42*
G01*
G75*
G02X1065Y1025I-42*
G01*
G75*
G02X1081Y1026I12J-37*
G01*
Y1200*
X1286*
Y1011*
X1108*
G75*
G02X1116Y988I-31J-24*
G01*
G75*
G02X1038I-39*
G01*
G75*
G02X1051Y1016I39J0*
G01*
X1074Y3385D02*
G75*
G02X1158I42D01*
G01*
G75*
G02X1074I-42*
G01*
X1078Y3744D02*
G75*
G02X1199I61D01*
G01*
G75*
G02X1078I-61*
G01*
X1093Y1287D02*
G75*
G02X1171I39D01*
G01*
G75*
G02X1093I-39*
G01*
X1118Y519D02*
G75*
G02X1202I42D01*
G01*
G75*
G02X1118I-42*
G01*
X1172Y3342D02*
X1431D01*
Y2566*
X1172*
Y3342*
X1188Y200D02*
G75*
G02X1066I-61D01*
G01*
G75*
G02X1188I61*
G01*
X1193Y917D02*
G75*
G02X1276I42D01*
G01*
G75*
G02X1193I-42*
G01*
X1228Y3744D02*
G75*
G02X1349I61D01*
G01*
G75*
G02X1228I-61*
G01*
X1284Y868D02*
G75*
G02X1274Y893I30J25D01*
G01*
G75*
G02X1352I39*
G01*
G75*
G02X1303Y855I-39*
G01*
G75*
G02X1313Y830I-30J-25*
G01*
G75*
G02X1235I-39*
G01*
G75*
G02X1284Y868I39*
G01*
X1309Y618D02*
Y803D01*
X1514*
Y614*
X1313*
G75*
G02X1324Y586I-32J-28*
G01*
G75*
G02X1240I-42*
G01*
G75*
G02X1309Y618I42*
G01*
X1315Y1066D02*
G75*
G02X1399I42D01*
G01*
G75*
G02X1315I-42*
G01*
X1318Y1295D02*
G75*
G02X1396I39D01*
G01*
G75*
G02X1318I-39*
G01*
X1322Y507D02*
G75*
G02X1399I39D01*
G01*
G75*
G02X1322I-39*
G01*
X1338Y200D02*
G75*
G02X1216I-61D01*
G01*
G75*
G02X1338I61*
G01*
X1400Y1026D02*
Y1196D01*
X1605*
Y1007*
X1430*
G75*
G02X1435Y988I-34J-20*
G01*
G75*
G02X1357I-39*
G01*
G75*
G02X1400Y1026I39*
G01*
X1408Y1283D02*
G75*
G02X1486I39D01*
G01*
G75*
G02X1408I-39*
G01*
X1433Y523D02*
G75*
G02X1517I42D01*
G01*
G75*
G02X1433I-42*
G01*
X1437Y3744D02*
G75*
G02X1559I61D01*
G01*
G75*
G02X1437I-61*
G01*
X1448Y2539D02*
G75*
G02X1525I39D01*
G01*
G75*
G02X1448I-39*
G01*
X1488Y200D02*
G75*
G02X1366I-61D01*
G01*
G75*
G02X1488I61*
G01*
X1555Y566D02*
G75*
G02X1639I42D01*
G01*
G75*
G02X1555I-42*
G01*
X1587Y3744D02*
G75*
G02X1709I61D01*
G01*
G75*
G02X1587I-61*
G01*
X1589Y891D02*
G75*
G02X1511Y913I-36J22D01*
G01*
G75*
G02X1595Y914I42*
G01*
G75*
G02X1667Y893I33J-21*
G01*
G75*
G02X1626Y854I-39*
G01*
G75*
G02X1632Y834I-33J-20*
G01*
G75*
G02X1554I-39*
G01*
G75*
G02X1595Y873I39*
G01*
G75*
G02X1589Y891I33J20*
G01*
X1629Y503D02*
G75*
G02X1707I39D01*
G01*
G75*
G02X1629I-39*
G01*
X1633Y1285D02*
G75*
G02X1710I39D01*
G01*
G75*
G02X1633I-39*
G01*
X1636Y807D02*
X1841D01*
Y618*
X1636*
Y807*
X1638Y200D02*
G75*
G02X1516I-61D01*
G01*
G75*
G02X1638I61*
G01*
X1675Y1003D02*
G75*
G02X1634Y1044I1J42D01*
G01*
G75*
G02X1711Y1067I42*
G01*
Y1200*
X1916*
Y1011*
X1742*
G75*
G02X1750Y988I-31J-24*
G01*
G75*
G02X1672I-39*
G01*
G75*
G02X1675Y1003I39J0*
G01*
X1704Y3381D02*
G75*
G02X1788I42D01*
G01*
G75*
G02X1704I-42*
G01*
X1723Y1279D02*
G75*
G02X1801I39D01*
G01*
G75*
G02X1723I-39*
G01*
X1737Y3744D02*
G75*
G02X1859I61D01*
G01*
G75*
G02X1737I-61*
G01*
X1744Y515D02*
G75*
G02X1828I42D01*
G01*
G75*
G02X1744I-42*
G01*
X1801Y3346D02*
X2061D01*
Y2570*
X1801*
Y3346*
X1826Y921D02*
G75*
G02X1910I42D01*
G01*
G75*
G02X1826I-42*
G01*
X1848Y200D02*
G75*
G02X1726I-61D01*
G01*
G75*
G02X1848I61*
G01*
X1866Y566D02*
G75*
G02X1950I42D01*
G01*
G75*
G02X1866I-42*
G01*
X1887Y3744D02*
G75*
G02X2009I61D01*
G01*
G75*
G02X1887I-61*
G01*
X1912Y872D02*
G75*
G02X1908Y889I35J17D01*
G01*
G75*
G02X1986I39*
G01*
G75*
G02X1939Y851I-39*
G01*
G75*
G02X1943Y834I-35J-17*
G01*
G75*
G02X1865I-39*
G01*
G75*
G02X1912Y872I39*
G01*
X1940Y503D02*
G75*
G02X2018I39D01*
G01*
G75*
G02X1940I-39*
G01*
X1943Y795D02*
X2148D01*
Y606*
X1943*
Y795*
X1944Y1277D02*
G75*
G02X2021I39D01*
G01*
G75*
G02X1944I-39*
G01*
X1998Y200D02*
G75*
G02X1876I-61D01*
G01*
G75*
G02X1998I61*
G01*
X1998Y1002D02*
G75*
G02X1945Y1043I-12J40D01*
G01*
G75*
G02X2026Y1057I42*
G01*
Y1208*
X2231*
Y1019*
X2026*
Y1028*
G75*
G02X2020Y1017I-39J14*
G01*
G75*
G02X2069Y980I10J-38*
G01*
G75*
G02X1991I-39*
G01*
G75*
G02X1998Y1002I39J0*
G01*
X2037Y3744D02*
G75*
G02X2159I61D01*
G01*
G75*
G02X2037I-61*
G01*
X2038Y1283D02*
G75*
G02X2116I39D01*
G01*
G75*
G02X2038I-39*
G01*
X2059Y515D02*
G75*
G02X2143I42D01*
G01*
G75*
G02X2059I-42*
G01*
X2077Y2539D02*
G75*
G02X2155I39D01*
G01*
G75*
G02X2077I-39*
G01*
X2137Y913D02*
G75*
G02X2221I42D01*
G01*
G75*
G02X2137I-42*
G01*
X2148Y200D02*
G75*
G02X2026I-61D01*
G01*
G75*
G02X2148I61*
G01*
X2185Y570D02*
G75*
G02X2269I42D01*
G01*
G75*
G02X2185I-42*
G01*
X2187Y3744D02*
G75*
G02X2309I61D01*
G01*
G75*
G02X2187I-61*
G01*
X2231Y880D02*
G75*
G02X2227Y897I35J17D01*
G01*
G75*
G02X2305I39*
G01*
G75*
G02X2258Y859I-39*
G01*
G75*
G02X2262Y842I-35J-17*
G01*
G75*
G02X2184I-39*
G01*
G75*
G02X2231Y880I39*
G01*
X2263Y507D02*
G75*
G02X2340I39D01*
G01*
G75*
G02X2263I-39*
G01*
Y1283D02*
G75*
G02X2340I39D01*
G01*
G75*
G02X2263I-39*
G01*
X2266Y807D02*
X2471D01*
Y618*
X2266*
Y807*
X2298Y200D02*
G75*
G02X2176I-61D01*
G01*
G75*
G02X2298I61*
G01*
X2334Y3389D02*
G75*
G02X2418I42D01*
G01*
G75*
G02X2334I-42*
G01*
X2337Y3744D02*
G75*
G02X2459I61D01*
G01*
G75*
G02X2337I-61*
G01*
X2341Y1022D02*
Y1040D01*
G75*
G02X2260Y1055I-39J14*
G01*
G75*
G02X2341Y1069I42*
G01*
Y1196*
X2546*
Y1007*
X2376*
G75*
G02X2384Y984I-31J-24*
G01*
G75*
G02X2306I-39*
G01*
G75*
G02X2341Y1022I39*
G01*
X2353Y1283D02*
G75*
G02X2431I39D01*
G01*
G75*
G02X2353I-39*
G01*
X2374Y515D02*
G75*
G02X2458I42D01*
G01*
G75*
G02X2374I-42*
G01*
X2431Y3342D02*
X2691D01*
Y2566*
X2431*
Y3342*
X2448Y200D02*
G75*
G02X2326I-61D01*
G01*
G75*
G02X2448I61*
G01*
X2487Y3744D02*
G75*
G02X2609I61D01*
G01*
G75*
G02X2487I-61*
G01*
X2500Y562D02*
G75*
G02X2584I42D01*
G01*
G75*
G02X2500I-42*
G01*
X2528Y891D02*
G75*
G02X2452Y917I-33J26D01*
G01*
G75*
G02X2536I42*
G01*
G75*
G02X2535Y906I-42J0*
G01*
G75*
G02X2604Y881I30J-24*
G01*
G75*
G02X2556Y844I-39*
G01*
G75*
G02X2569Y814I-26J-29*
G01*
G75*
G02X2491I-39*
G01*
G75*
G02X2539Y852I39*
G01*
G75*
G02X2528Y891I26J29*
G01*
X2573Y803D02*
X2778D01*
Y614*
X2573*
Y803*
X2577Y523D02*
G75*
G02X2655I39D01*
G01*
G75*
G02X2577I-39*
G01*
Y1283D02*
G75*
G02X2655I39D01*
G01*
G75*
G02X2577I-39*
G01*
X2598Y200D02*
G75*
G02X2476I-61D01*
G01*
G75*
G02X2598I61*
G01*
X2652Y1019D02*
Y1028D01*
G75*
G02X2574Y1051I-35J22*
G01*
G75*
G02X2652Y1073I42*
G01*
Y1196*
X2857*
Y1007*
X2683*
G75*
G02X2695Y980I-28J-28*
G01*
G75*
G02X2617I-39*
G01*
G75*
G02X2652Y1019I39*
G01*
X2668Y1275D02*
G75*
G02X2746I39D01*
G01*
G75*
G02X2668I-39*
G01*
X2689Y519D02*
G75*
G02X2773I42D01*
G01*
G75*
G02X2689I-42*
G01*
X2697Y3744D02*
G75*
G02X2819I61D01*
G01*
G75*
G02X2697I-61*
G01*
X2707Y2531D02*
G75*
G02X2785I39D01*
G01*
G75*
G02X2707I-39*
G01*
X2748Y200D02*
G75*
G02X2626I-61D01*
G01*
G75*
G02X2748I61*
G01*
X2805Y875D02*
G75*
G02X2767Y917I4J42D01*
G01*
G75*
G02X2851I42*
G01*
X2851Y916*
G75*
G02X2907Y881I17J-35*
G01*
G75*
G02X2856Y845I-39*
G01*
G75*
G02X2856Y838I-38J-7*
G01*
G75*
G02X2778I-39*
G01*
G75*
G02X2805Y875I39*
G01*
X2847Y3744D02*
G75*
G02X2969I61D01*
G01*
G75*
G02X2847I-61*
G01*
X2849Y503D02*
G75*
G02X2927I39D01*
G01*
G75*
G02X2849I-39*
G01*
X2864Y617D02*
Y803D01*
X3069*
Y614*
X2869*
G75*
G02X2883Y582I-28J-31*
G01*
G75*
G02X2799I-42*
G01*
G75*
G02X2864Y617I42*
G01*
X2898Y200D02*
G75*
G02X2776I-61D01*
G01*
G75*
G02X2898I61*
G01*
X2905Y985D02*
G75*
G02X2858Y1027I-6J42D01*
G01*
G75*
G02X2939Y1041I42*
G01*
Y1200*
X3144*
Y1011*
X2959*
G75*
G02X2982Y976I-16J-35*
G01*
G75*
G02X2904I-39*
G01*
G75*
G02X2905Y985I39J0*
G01*
X2916Y1289D02*
G75*
G02X2994Y1287I39J-2D01*
G01*
G75*
G02X2935Y1254I-39*
G01*
G75*
G02X2857Y1255I-39J2*
G01*
G75*
G02X2916Y1289I39*
G01*
X2964Y3373D02*
G75*
G02X3048I42D01*
G01*
G75*
G02X2964I-42*
G01*
X2968Y515D02*
G75*
G02X3052I42D01*
G01*
G75*
G02X2968I-42*
G01*
X2997Y3744D02*
G75*
G02X3119I61D01*
G01*
G75*
G02X2997I-61*
G01*
X3061Y3330D02*
X3321D01*
Y2555*
X3061*
Y3330*
X3078Y574D02*
G75*
G02X3162I42D01*
G01*
G75*
G02X3078I-42*
G01*
X3108Y200D02*
G75*
G02X2986I-61D01*
G01*
G75*
G02X3108I61*
G01*
X3121Y882D02*
G75*
G02X3051Y913I-28J31D01*
G01*
G75*
G02X3135Y915I42*
G01*
G75*
G02X3199Y885I25J-30*
G01*
G75*
G02X3153Y847I-39*
G01*
G75*
G02X3159Y826I-33J-21*
G01*
G75*
G02X3081I-39*
G01*
G75*
G02X3127Y865I39*
G01*
G75*
G02X3121Y882I33J21*
G01*
X3147Y3744D02*
G75*
G02X3269I61D01*
G01*
G75*
G02X3147I-61*
G01*
X3164Y795D02*
X3368D01*
Y606*
X3164*
Y795*
X3164Y507D02*
G75*
G02X3242I39D01*
G01*
G75*
G02X3164I-39*
G01*
X3168Y1292D02*
G75*
G02X3246I39D01*
G01*
G75*
G02X3168I-39*
G01*
X3194Y1006D02*
G75*
G02X3169Y1044I17J38D01*
G01*
G75*
G02X3250Y1059I42*
G01*
Y1192*
X3455*
Y1003*
X3250*
Y1030*
G75*
G02X3236Y1011I-39J14*
G01*
G75*
G02X3258Y976I-17J-35*
G01*
G75*
G02X3180I-39*
G01*
G75*
G02X3194Y1006I39*
G01*
X3258Y200D02*
G75*
G02X3136I-61D01*
G01*
G75*
G02X3258I61*
G01*
X3259Y1287D02*
G75*
G02X3336I39D01*
G01*
G75*
G02X3259I-39*
G01*
X3279Y515D02*
G75*
G02X3363I42D01*
G01*
G75*
G02X3279I-42*
G01*
X3297Y3744D02*
G75*
G02X3419I61D01*
G01*
G75*
G02X3297I-61*
G01*
X3337Y2531D02*
G75*
G02X3415I39D01*
G01*
G75*
G02X3337I-39*
G01*
X3358Y921D02*
G75*
G02X3442I42D01*
G01*
G75*
G02X3358I-42*
G01*
X3408Y200D02*
G75*
G02X3286I-61D01*
G01*
G75*
G02X3408I61*
G01*
X3444Y872D02*
G75*
G02X3440Y889I35J17D01*
G01*
G75*
G02X3518I39*
G01*
G75*
G02X3470Y851I-39*
G01*
G75*
G02X3474Y834I-35J-17*
G01*
G75*
G02X3396I-39*
G01*
G75*
G02X3444Y872I39*
G01*
X3447Y3744D02*
G75*
G02X3569I61D01*
G01*
G75*
G02X3447I-61*
G01*
X3471Y503D02*
G75*
G02X3549I39D01*
G01*
G75*
G02X3471I-39*
G01*
X3475Y606D02*
Y795D01*
X3679*
Y606*
X3475*
G75*
G02X3485Y578I-32J-28*
G01*
G75*
G02X3401I-42*
G01*
G75*
G02X3475Y606I42*
G01*
X3483Y1287D02*
G75*
G02X3561I39D01*
G01*
G75*
G02X3483I-39*
G01*
X3557Y1015D02*
Y1028D01*
G75*
G02X3480Y1051I-35J22*
G01*
G75*
G02X3557Y1073I42*
G01*
Y1196*
X3762*
Y1007*
X3584*
G75*
G02X3600Y976I-23J-31*
G01*
G75*
G02X3522I-39*
G01*
G75*
G02X3557Y1015I39*
G01*
X3558Y200D02*
G75*
G02X3436I-61D01*
G01*
G75*
G02X3558I61*
G01*
X3574Y1283D02*
G75*
G02X3651I39D01*
G01*
G75*
G02X3574I-39*
G01*
X3594Y511D02*
G75*
G02X3678I42D01*
G01*
G75*
G02X3594I-42*
G01*
Y3389D02*
G75*
G02X3678I42D01*
G01*
G75*
G02X3594I-42*
G01*
X3597Y3744D02*
G75*
G02X3719I61D01*
G01*
G75*
G02X3597I-61*
G01*
X3681Y913D02*
G75*
G02X3765I42D01*
G01*
G75*
G02X3681I-42*
G01*
X3683Y3342D02*
X3943D01*
Y2566*
X3683*
Y3342*
X3708Y200D02*
G75*
G02X3586I-61D01*
G01*
G75*
G02X3708I61*
G01*
X3712Y578D02*
G75*
G02X3796I42D01*
G01*
G75*
G02X3712I-42*
G01*
X3747Y3744D02*
G75*
G02X3869I61D01*
G01*
G75*
G02X3747I-61*
G01*
X3762Y866D02*
G75*
G02X3759Y881I36J15D01*
G01*
G75*
G02X3836I39*
G01*
G75*
G02X3782Y846I-39*
G01*
G75*
G02X3785Y830I-36J-15*
G01*
G75*
G02X3707I-39*
G01*
G75*
G02X3762Y866I39*
G01*
X3786Y499D02*
G75*
G02X3864I39D01*
G01*
G75*
G02X3786I-39*
G01*
X3790Y814D02*
X3994D01*
Y625*
X3790*
Y814*
X3794Y1281D02*
G75*
G02X3872I39D01*
G01*
G75*
G02X3794I-39*
G01*
X3858Y200D02*
G75*
G02X3736I-61D01*
G01*
G75*
G02X3858I61*
G01*
X3868Y1014D02*
Y1030D01*
G75*
G02X3791Y1052I-35J22*
G01*
G75*
G02X3868Y1075I42*
G01*
Y1192*
X4073*
Y1003*
X3904*
G75*
G02X3915Y976I-28J-28*
G01*
G75*
G02X3837I-39*
G01*
G75*
G02X3868Y1014I39*
G01*
X3888Y1287D02*
G75*
G02X3966I39D01*
G01*
G75*
G02X3888I-39*
G01*
X3905Y511D02*
G75*
G02X3989I42D01*
G01*
G75*
G02X3905I-42*
G01*
X3957Y3744D02*
G75*
G02X4079I61D01*
G01*
G75*
G02X3957I-61*
G01*
X3967Y2531D02*
G75*
G02X4045I39D01*
G01*
G75*
G02X3967I-39*
G01*
X4008Y200D02*
G75*
G02X3886I-61D01*
G01*
G75*
G02X4008I61*
G01*
X4027Y582D02*
G75*
G02X4111I42D01*
G01*
G75*
G02X4027I-42*
G01*
X4070Y891D02*
G75*
G02X3992Y913I-36J22D01*
G01*
G75*
G02X4076I42*
G01*
G75*
G02X4076Y910I-42J0*
G01*
G75*
G02X4147Y889I33J-21*
G01*
G75*
G02X4102Y851I-39*
G01*
G75*
G02X4108Y830I-33J-21*
G01*
G75*
G02X4030I-39*
G01*
G75*
G02X4076Y869I39*
G01*
G75*
G02X4070Y889I33J21*
G01*
G75*
G02X4070Y891I39J0*
G01*
X4102Y1056D02*
G75*
G02X4186I42D01*
G01*
G75*
G02X4102I-42*
G01*
X4105Y496D02*
G75*
G02X4183I39D01*
G01*
G75*
G02X4105I-39*
G01*
X4107Y3744D02*
G75*
G02X4229I61D01*
G01*
G75*
G02X4107I-61*
G01*
X4113Y1289D02*
G75*
G02X4191I39D01*
G01*
G75*
G02X4113I-39*
G01*
X4116Y803D02*
X4321D01*
Y614*
X4116*
Y803*
X4158Y200D02*
G75*
G02X4036I-61D01*
G01*
G75*
G02X4158I61*
G01*
X4187Y1015D02*
Y1192D01*
X4392*
Y1003*
X4219*
G75*
G02X4230Y976I-28J-28*
G01*
G75*
G02X4152I-39*
G01*
G75*
G02X4187Y1015I39*
G01*
X4207Y1283D02*
G75*
G02X4285I39D01*
G01*
G75*
G02X4207I-39*
G01*
X4224Y503D02*
G75*
G02X4308I42D01*
G01*
G75*
G02X4224I-42*
G01*
Y3370D02*
G75*
G02X4308I42D01*
G01*
G75*
G02X4224I-42*
G01*
X4257Y3744D02*
G75*
G02X4379I61D01*
G01*
G75*
G02X4257I-61*
G01*
X4303Y913D02*
G75*
G02X4387I42D01*
G01*
G75*
G02X4303I-42*
G01*
X4325Y3338D02*
X4585D01*
Y2562*
X4325*
Y3338*
X4342Y578D02*
G75*
G02X4426I42D01*
G01*
G75*
G02X4342I-42*
G01*
X4368Y200D02*
G75*
G02X4246I-61D01*
G01*
G75*
G02X4368I61*
G01*
X4388Y869D02*
G75*
G02X4385Y885I35J16D01*
G01*
G75*
G02X4462I39*
G01*
G75*
G02X4419Y847I-39*
G01*
G75*
G02X4423Y830I-35J-16*
G01*
G75*
G02X4345I-39*
G01*
G75*
G02X4388Y869I39*
G01*
X4407Y3744D02*
G75*
G02X4529I61D01*
G01*
G75*
G02X4407I-61*
G01*
X4416Y507D02*
G75*
G02X4494I39D01*
G01*
G75*
G02X4416I-39*
G01*
X4424Y1283D02*
G75*
G02X4502I39D01*
G01*
G75*
G02X4424I-39*
G01*
X4427Y799D02*
X4632D01*
Y610*
X4427*
Y799*
X4498Y1014D02*
Y1027D01*
G75*
G02X4425Y1055I-31J28*
G01*
G75*
G02X4498Y1082I42*
G01*
Y1192*
X4703*
Y1003*
X4534*
G75*
G02X4545Y976I-28J-28*
G01*
G75*
G02X4467I-39*
G01*
G75*
G02X4498Y1014I39*
G01*
X4518Y200D02*
G75*
G02X4396I-61D01*
G01*
G75*
G02X4518I61*
G01*
X4518Y1279D02*
G75*
G02X4596I39D01*
G01*
G75*
G02X4518I-39*
G01*
X4539Y515D02*
G75*
G02X4623I42D01*
G01*
G75*
G02X4539I-42*
G01*
X4557Y3744D02*
G75*
G02X4679I61D01*
G01*
G75*
G02X4557I-61*
G01*
X4597Y2539D02*
G75*
G02X4675I39D01*
G01*
G75*
G02X4597I-39*
G01*
X4661Y566D02*
G75*
G02X4745I42D01*
G01*
G75*
G02X4661I-42*
G01*
X4668Y200D02*
G75*
G02X4546I-61D01*
G01*
G75*
G02X4668I61*
G01*
X4688Y886D02*
G75*
G02X4614Y913I-32J27D01*
G01*
G75*
G02X4698I42*
G01*
G75*
G02X4697Y907I-42J0*
G01*
G75*
G02X4766Y881I29J-26*
G01*
G75*
G02X4726Y842I-39*
G01*
G75*
G02X4734Y818I-31J-24*
G01*
G75*
G02X4656I-39*
G01*
G75*
G02X4696Y857I39*
G01*
G75*
G02X4688Y881I31J24*
G01*
G75*
G02X4688Y886I39J0*
G01*
X4707Y3744D02*
G75*
G02X4829I61D01*
G01*
G75*
G02X4707I-61*
G01*
X4738Y799D02*
X4943D01*
Y610*
X4738*
Y799*
X4739Y503D02*
G75*
G02X4817I39D01*
G01*
G75*
G02X4739I-39*
G01*
X4740Y1047D02*
G75*
G02X4824I42D01*
G01*
G75*
G02X4740I-42*
G01*
X4743Y1283D02*
G75*
G02X4821I39D01*
G01*
G75*
G02X4743I-39*
G01*
X4818Y200D02*
G75*
G02X4696I-61D01*
G01*
G75*
G02X4818I61*
G01*
X4825Y1015D02*
Y1188D01*
X5030*
Y999*
X4852*
G75*
G02X4860Y976I-31J-24*
G01*
G75*
G02X4782I-39*
G01*
G75*
G02X4825Y1015I39*
G01*
X4833Y1283D02*
G75*
G02X4911I39D01*
G01*
G75*
G02X4833I-39*
G01*
X4850Y511D02*
G75*
G02X4934I42D01*
G01*
G75*
G02X4850I-42*
G01*
X4854Y3393D02*
G75*
G02X4938I42D01*
G01*
G75*
G02X4854I-42*
G01*
X4857Y3744D02*
G75*
G02X4979I61D01*
G01*
G75*
G02X4857I-61*
G01*
X4947Y3350D02*
X5207D01*
Y2574*
X4947*
Y3350*
X4968Y200D02*
G75*
G02X4846I-61D01*
G01*
G75*
G02X4968I61*
G01*
X4972Y586D02*
G75*
G02X5056I42D01*
G01*
G75*
G02X4972I-42*
G01*
X5007Y3744D02*
G75*
G02X5129I61D01*
G01*
G75*
G02X5007I-61*
G01*
X5012Y895D02*
G75*
G02X4937Y921I-33J26D01*
G01*
G75*
G02X5021I42*
G01*
G75*
G02X5019Y910I-42J0*
G01*
G75*
G02X5088Y885I30J-24*
G01*
G75*
G02X5044Y847I-39*
G01*
G75*
G02X5053Y822I-30J-24*
G01*
G75*
G02X4975I-39*
G01*
G75*
G02X5019Y861I39*
G01*
G75*
G02X5012Y895I30J24*
G01*
X5042Y492D02*
G75*
G02X5120I39D01*
G01*
G75*
G02X5042I-39*
G01*
X5054Y1259D02*
G75*
G02X5132I39D01*
G01*
G75*
G02X5054I-39*
G01*
X5061Y803D02*
X5266D01*
Y614*
X5061*
Y803*
X5099Y989D02*
G75*
G02X5055Y1031I-3J42D01*
G01*
G75*
G02X5139I42*
G01*
G75*
G02X5135Y1015I-42J0*
G01*
G75*
G02X5175Y976I1J-39*
G01*
G75*
G02X5097I-39*
G01*
G75*
G02X5099Y989I39J0*
G01*
X5118Y200D02*
G75*
G02X4996I-61D01*
G01*
G75*
G02X5118I61*
G01*
X5144Y1208D02*
X5349D01*
Y1019*
X5144*
Y1208*
X5148Y1287D02*
G75*
G02X5226I39D01*
G01*
G75*
G02X5148I-39*
G01*
X5173Y511D02*
G75*
G02X5257I42D01*
G01*
G75*
G02X5173I-42*
G01*
X5227Y2531D02*
G75*
G02X5305I39D01*
G01*
G75*
G02X5227I-39*
G01*
X5256Y909D02*
G75*
G02X5339I42D01*
G01*
G75*
G02X5256I-42*
G01*
X5268Y200D02*
G75*
G02X5146I-61D01*
G01*
G75*
G02X5268I61*
G01*
X5381Y401D02*
G75*
G02X5458I39D01*
G01*
G75*
G02X5381I-39*
G01*
X5411Y3744D02*
G75*
G02X5539I64D01*
G01*
G75*
G02X5411I-64*
G01*
X5418Y200D02*
G75*
G02X5296I-61D01*
G01*
G75*
G02X5418I61*
G01*
X5428Y2684D02*
G75*
G02X5506I39D01*
G01*
G75*
G02X5428I-39*
G01*
X5440Y2527D02*
G75*
G02X5518I39D01*
G01*
G75*
G02X5440I-39*
G01*
X5460Y2606D02*
G75*
G02X5513I27D01*
G01*
G75*
G02X5460I-27*
G01*
X5479Y278D02*
G75*
G02X5776I148D01*
G01*
G75*
G02X5479I-148*
G01*
Y3203D02*
G75*
G02X5776I148D01*
G01*
G75*
G02X5479I-148*
G01*
X5564Y3744D02*
G75*
G02X5686I61D01*
G01*
G75*
G02X5564I-61*
G01*
X5614Y2565D02*
G75*
G02X5601Y2594I26J29D01*
G01*
G75*
G02X5679I39*
G01*
G75*
G02X5630Y2556I-39*
G01*
G75*
G02X5644Y2527I-26J-29*
G01*
G75*
G02X5566I-39*
G01*
G75*
G02X5614Y2565I39*
G01*
X5743Y397D02*
G75*
G02X5821I39D01*
G01*
G75*
G02X5743I-39*
G01*
X5743Y2606D02*
G75*
G02X5797I27D01*
G01*
G75*
G02X5743I-27*
G01*
X5766Y2677D02*
G75*
G02X5844I39D01*
G01*
G75*
G02X5766I-39*
G01*
X29Y278D02*
G36*
Y200D01*
X151*
G75*
G02X129Y278I127J77*
G01*
X29*
G37*
X129D02*
G36*
G75*
G02X195Y401I148D01*
G01*
X29*
Y278*
X129*
G37*
X426D02*
G36*
G75*
G02X404Y200I-148D01*
G01*
X466*
G75*
G02X588I61*
G01*
X616*
G75*
G02X738I61*
G01*
X766*
G75*
G02X888I61*
G01*
X916*
G75*
G02X1038I61*
G01*
X1066*
G75*
G02X1188I61*
G01*
X1216*
G75*
G02X1338I61*
G01*
X1366*
G75*
G02X1488I61*
G01*
X1516*
G75*
G02X1638I61*
G01*
X1726*
G75*
G02X1848I61*
G01*
X1876*
G75*
G02X1998I61*
G01*
X2026*
G75*
G02X2148I61*
G01*
X2176*
G75*
G02X2298I61*
G01*
X2326*
G75*
G02X2448I61*
G01*
X2476*
G75*
G02X2598I61*
G01*
X2626*
G75*
G02X2748I61*
G01*
X2776*
G75*
G02X2898I61*
G01*
X2986*
G75*
G02X3108I61*
G01*
X3136*
G75*
G02X3258I61*
G01*
X3286*
G75*
G02X3408I61*
G01*
X3436*
G75*
G02X3558I61*
G01*
X3586*
G75*
G02X3708I61*
G01*
X3736*
G75*
G02X3858I61*
G01*
X3886*
G75*
G02X4008I61*
G01*
X4036*
G75*
G02X4158I61*
G01*
X4246*
G75*
G02X4368I61*
G01*
X4396*
G75*
G02X4518I61*
G01*
X4546*
G75*
G02X4668I61*
G01*
X4696*
G75*
G02X4818I61*
G01*
X4846*
G75*
G02X4968I61*
G01*
X4996*
G75*
G02X5118I61*
G01*
X5146*
G75*
G02X5268I61*
G01*
X5296*
G75*
G02X5418I61*
G01*
X5501*
G75*
G02X5479Y278I127J77*
G01*
X426*
G37*
X5479D02*
G36*
G75*
G02X5545Y401I148D01*
G01*
X5458*
G75*
G02X5381I-39*
G01*
X360*
G75*
G02X426Y278I-82J-124*
G01*
X5479*
G37*
X5776D02*
G36*
G75*
G02X5754Y200I-148D01*
G01*
X5876*
Y278*
X5776*
G37*
X5876D02*
G36*
Y401D01*
X5820*
G75*
G02X5821Y397I-39J-4*
G01*
G75*
G02X5743I-39*
G01*
G75*
G02X5743Y401I39J0*
G01*
X5710*
G75*
G02X5776Y278I-82J-124*
G01*
X5876*
G37*
X29Y3744D02*
G36*
Y3378D01*
X445*
G75*
G02X528I42*
G01*
X1075*
G75*
G02X1074Y3385I41J7*
G01*
G75*
G02X1158I42*
G01*
G75*
G02X1158Y3378I-42J0*
G01*
X1705*
G75*
G02X1704Y3381I42J3*
G01*
G75*
G02X1788I42*
G01*
G75*
G02X1788Y3378I-42J0*
G01*
X2336*
G75*
G02X2334Y3389I40J11*
G01*
G75*
G02X2418I42*
G01*
G75*
G02X2417Y3378I-42J0*
G01*
X2964*
G75*
G02X3048I42J-5*
G01*
X3596*
G75*
G02X3594Y3389I40J11*
G01*
G75*
G02X3678I42*
G01*
G75*
G02X3677Y3378I-42J0*
G01*
X4225*
G75*
G02X4307I41J-9*
G01*
X4857*
G75*
G02X4854Y3393I39J15*
G01*
G75*
G02X4938I42*
G01*
G75*
G02X4935Y3378I-42*
G01*
X5876*
Y3744*
X5686*
G75*
G02X5564I-61J0*
G01*
X5539*
G75*
G02X5411I-64J0*
G01*
X5129*
G75*
G02X5007I-61*
G01*
X4979*
G75*
G02X4857I-61*
G01*
X4829*
G75*
G02X4707I-61*
G01*
X4679*
G75*
G02X4557I-61*
G01*
X4529*
G75*
G02X4407I-61*
G01*
X4379*
G75*
G02X4257I-61*
G01*
X4229*
G75*
G02X4107I-61*
G01*
X4079*
G75*
G02X3957I-61*
G01*
X3869*
G75*
G02X3747I-61*
G01*
X3719*
G75*
G02X3597I-61*
G01*
X3569*
G75*
G02X3447I-61*
G01*
X3419*
G75*
G02X3297I-61*
G01*
X3269*
G75*
G02X3147I-61*
G01*
X3119*
G75*
G02X2997I-61*
G01*
X2969*
G75*
G02X2847I-61*
G01*
X2819*
G75*
G02X2697I-61*
G01*
X2609*
G75*
G02X2487I-61*
G01*
X2459*
G75*
G02X2337I-61*
G01*
X2309*
G75*
G02X2187I-61*
G01*
X2159*
G75*
G02X2037I-61*
G01*
X2009*
G75*
G02X1887I-61*
G01*
X1859*
G75*
G02X1737I-61*
G01*
X1709*
G75*
G02X1587I-61*
G01*
X1559*
G75*
G02X1437I-61*
G01*
X1349*
G75*
G02X1228I-61*
G01*
X1199*
G75*
G02X1078I-61*
G01*
X1049*
G75*
G02X928I-61*
G01*
X899*
G75*
G02X778I-61*
G01*
X749*
G75*
G02X628I-61*
G01*
X599*
G75*
G02X478I-61*
G01*
X449*
G75*
G02X328I-61*
G01*
X299*
G75*
G02X178I-61*
G01*
X29*
G37*
X178D02*
G36*
G75*
G02X299I61D01*
G01*
X328*
G75*
G02X449I61*
G01*
X478*
G75*
G02X599I61*
G01*
X628*
G75*
G02X749I61*
G01*
X778*
G75*
G02X899I61*
G01*
X928*
G75*
G02X1049I61*
G01*
X1078*
G75*
G02X1199I61*
G01*
X1228*
G75*
G02X1349I61*
G01*
X1437*
G75*
G02X1559I61*
G01*
X1587*
G75*
G02X1709I61*
G01*
X1737*
G75*
G02X1859I61*
G01*
X1887*
G75*
G02X2009I61*
G01*
X2037*
G75*
G02X2159I61*
G01*
X2187*
G75*
G02X2309I61*
G01*
X2337*
G75*
G02X2459I61*
G01*
X2487*
G75*
G02X2609I61*
G01*
X2697*
G75*
G02X2819I61*
G01*
X2847*
G75*
G02X2969I61*
G01*
X2997*
G75*
G02X3119I61*
G01*
X3147*
G75*
G02X3269I61*
G01*
X3297*
G75*
G02X3419I61*
G01*
X3447*
G75*
G02X3569I61*
G01*
X3597*
G75*
G02X3719I61*
G01*
X3747*
G75*
G02X3869I61*
G01*
X3957*
G75*
G02X4079I61*
G01*
X4107*
G75*
G02X4229I61*
G01*
X4257*
G75*
G02X4379I61*
G01*
X4407*
G75*
G02X4529I61*
G01*
X4557*
G75*
G02X4679I61*
G01*
X4707*
G75*
G02X4829I61*
G01*
X4857*
G75*
G02X4979I61*
G01*
X5007*
G75*
G02X5129I61*
G01*
X5411*
Y3744*
G75*
G02X5539I64*
G01*
Y3744*
X5564*
Y3744*
G75*
G02X5686I61*
G01*
Y3744*
X5876*
Y3926*
X29*
Y3744*
X178*
G37*
X29Y586D02*
G36*
Y507D01*
X369*
G75*
G02X447I39*
G01*
X495*
G75*
G02X492Y523I39J16*
G01*
G75*
G02X576I42*
G01*
G75*
G02X573Y507I-42J0*
G01*
X688*
G75*
G02X688Y511I39J4*
G01*
G75*
G02X766I39*
G01*
G75*
G02X765Y507I-39J0*
G01*
X806*
G75*
G02X803Y523I39J16*
G01*
G75*
G02X887I42*
G01*
G75*
G02X884Y507I-42J0*
G01*
X999*
G75*
G02X1077I39*
G01*
X1119*
G75*
G02X1118Y519I40J12*
G01*
G75*
G02X1202I42*
G01*
G75*
G02X1200Y507I-42J0*
G01*
X1322*
G75*
G02X1399I39*
G01*
X1436*
G75*
G02X1433Y523I39J16*
G01*
G75*
G02X1517I42*
G01*
G75*
G02X1514Y507I-42J0*
G01*
X1629*
G75*
G02X1706I39J-4*
G01*
X1745*
G75*
G02X1744Y515I41J8*
G01*
G75*
G02X1828I42*
G01*
G75*
G02X1827Y507I-42J0*
G01*
X1940*
G75*
G02X2017I39J-4*
G01*
X2059*
G75*
G02X2059Y515I41J8*
G01*
G75*
G02X2143I42*
G01*
G75*
G02X2142Y507I-42J0*
G01*
X2263*
G75*
G02X2340I39*
G01*
X2374*
G75*
G02X2374Y515I41J8*
G01*
G75*
G02X2458I42*
G01*
G75*
G02X2457Y507I-42J0*
G01*
X2581*
G75*
G02X2577Y523I36J16*
G01*
G75*
G02X2655I39*
G01*
G75*
G02X2652Y507I-39*
G01*
X2690*
G75*
G02X2689Y519I40J12*
G01*
G75*
G02X2773I42*
G01*
G75*
G02X2771Y507I-42J0*
G01*
X2849*
G75*
G02X2927I39J-4*
G01*
X2969*
G75*
G02X2968Y515I41J8*
G01*
G75*
G02X3052I42*
G01*
G75*
G02X3051Y507I-42J0*
G01*
X3164*
G75*
G02X3242I39*
G01*
X3280*
G75*
G02X3279Y515I41J8*
G01*
G75*
G02X3363I42*
G01*
G75*
G02X3362Y507I-42J0*
G01*
X3471*
G75*
G02X3549I39J-4*
G01*
X3594*
G75*
G02X3594Y511I42J4*
G01*
G75*
G02X3678I42*
G01*
G75*
G02X3678Y507I-42*
G01*
X3787*
G75*
G02X3863I38J-8*
G01*
X3905*
G75*
G02X3905Y511I42J4*
G01*
G75*
G02X3989I42*
G01*
G75*
G02X3989Y507I-42*
G01*
X4107*
G75*
G02X4181I37J-12*
G01*
X4224*
G75*
G02X4308I42J-4*
G01*
X4416*
G75*
G02X4494I39*
G01*
X4540*
G75*
G02X4539Y515I41J8*
G01*
G75*
G02X4623I42*
G01*
G75*
G02X4622Y507I-42J0*
G01*
X4739*
G75*
G02X4817I39J-4*
G01*
X4850*
G75*
G02X4850Y511I42J4*
G01*
G75*
G02X4934I42*
G01*
G75*
G02X4934Y507I-42*
G01*
X5045*
G75*
G02X5117I36J-16*
G01*
X5173*
G75*
G02X5173Y511I42J4*
G01*
G75*
G02X5257I42*
G01*
G75*
G02X5257Y507I-42*
G01*
X5361*
Y586*
X5056*
G75*
G02X4972I-42*
G01*
X4740*
G75*
G02X4745Y566I-37J-20*
G01*
G75*
G02X4661I-42*
G01*
G75*
G02X4666Y586I42J0*
G01*
X4425*
G75*
G02X4426Y578I-41J-8*
G01*
G75*
G02X4342I-42*
G01*
G75*
G02X4343Y586I42J0*
G01*
X4111*
G75*
G02X4111Y582I-42J-4*
G01*
G75*
G02X4027I-42*
G01*
G75*
G02X4027Y586I42*
G01*
X3795*
G75*
G02X3796Y578I-41J-8*
G01*
G75*
G02X3712I-42*
G01*
G75*
G02X3713Y586I42J0*
G01*
X3484*
G75*
G02X3485Y578I-41J-8*
G01*
G75*
G02X3401I-42*
G01*
G75*
G02X3402Y586I42J0*
G01*
X3161*
G75*
G02X3162Y574I-40J-12*
G01*
G75*
G02X3078I-42*
G01*
G75*
G02X3080Y586I42J0*
G01*
X2883*
G75*
G02X2883Y582I-42J-4*
G01*
G75*
G02X2799I-42*
G01*
G75*
G02X2799Y586I42*
G01*
X2576*
G75*
G02X2584Y562I-35J-24*
G01*
G75*
G02X2500I-42*
G01*
G75*
G02X2507Y586I42J0*
G01*
X2266*
G75*
G02X2269Y570I-39J-16*
G01*
G75*
G02X2185I-42*
G01*
G75*
G02X2188Y586I42J0*
G01*
X1945*
G75*
G02X1950Y566I-37J-20*
G01*
G75*
G02X1866I-42*
G01*
G75*
G02X1871Y586I42J0*
G01*
X1634*
G75*
G02X1639Y566I-37J-20*
G01*
G75*
G02X1555I-42*
G01*
G75*
G02X1560Y586I42J0*
G01*
X1324*
G75*
G02X1240I-42*
G01*
X1005*
G75*
G02X1013Y562I-35J-24*
G01*
G75*
G02X929I-42*
G01*
G75*
G02X936Y586I42J0*
G01*
X686*
G75*
G02X686Y582I-42J-4*
G01*
G75*
G02X602I-42*
G01*
G75*
G02X602Y586I42*
G01*
X371*
G75*
G02X287I-42*
G01*
X29*
G37*
X287D02*
G36*
G75*
G02X371I42D01*
G01*
X602*
G75*
G02X686I42J-4*
G01*
X936*
G75*
G02X1005I35J-24*
G01*
X1240*
G75*
G02X1309Y618I42*
G01*
Y712*
X1211*
Y614*
X1006*
Y712*
X888*
Y610*
X683*
Y712*
X581*
Y618*
X376*
Y712*
X29*
Y586*
X287*
G37*
X1560D02*
G36*
G75*
G02X1634I37J-20D01*
G01*
X1871*
G75*
G02X1945I37J-20*
G01*
X2188*
G75*
G02X2266I39J-16*
G01*
X2507*
G75*
G02X2576I35J-24*
G01*
X2799*
G75*
G02X2864Y617I42J-4*
G01*
Y712*
X2778*
Y614*
X2573*
Y712*
X2471*
Y618*
X2266*
Y712*
X2148*
Y606*
X1943*
Y712*
X1841*
Y618*
X1636*
Y712*
X1514*
Y614*
X1313*
G75*
G02X1324Y586I-32J-28*
G01*
X1560*
G37*
X3080D02*
G36*
G75*
G02X3161I40J-12D01*
G01*
X3402*
G75*
G02X3475Y606I41J-8*
G01*
Y712*
X3368*
Y606*
X3164*
Y712*
X3069*
Y614*
X2869*
G75*
G02X2883Y586I-28J-31*
G01*
X3080*
G37*
X3713D02*
G36*
G75*
G02X3795I41J-8D01*
G01*
X4027*
G75*
G02X4111I42J-4*
G01*
X4343*
G75*
G02X4425I41J-8*
G01*
X4666*
G75*
G02X4740I37J-20*
G01*
X4972*
G75*
G02X5056I42*
G01*
X5361*
Y712*
X5266*
Y614*
X5061*
Y712*
X4943*
Y610*
X4738*
Y712*
X4632*
Y610*
X4427*
Y712*
X4321*
Y614*
X4116*
Y712*
X3994*
Y625*
X3790*
Y712*
X3679*
Y606*
X3475*
G75*
G02X3484Y586I-32J-28*
G01*
X3713*
G37*
X29Y1096D02*
G36*
Y1047D01*
X455*
Y1096*
X371*
G75*
G02X287I-42*
G01*
X29*
G37*
X287D02*
G36*
G75*
G02X371I42D01*
G01*
X455*
Y1204*
X660*
Y1096*
X707*
G75*
G02X766Y1073I20J-37*
G01*
Y1204*
X971*
Y1096*
X1023*
G75*
G02X1080Y1056I14J-39*
G01*
G75*
G02X1065Y1025I-42*
G01*
G75*
G02X1081Y1026I12J-37*
G01*
Y1200*
X1286*
Y1096*
X1327*
G75*
G02X1387I30J-29*
G01*
X1400*
Y1196*
X1605*
Y1096*
X1711*
Y1200*
X1916*
Y1096*
X2026*
Y1208*
X2231*
Y1096*
X2293*
G75*
G02X2341Y1069I9J-41*
G01*
Y1196*
X2546*
Y1096*
X2652*
Y1196*
X2857*
Y1096*
X2939*
Y1200*
X3144*
Y1096*
X3250*
Y1192*
X3455*
Y1096*
X3557*
Y1196*
X3762*
Y1096*
X3868*
Y1192*
X4073*
Y1096*
X4130*
G75*
G02X4158I14J-39*
G01*
X4187*
Y1192*
X4392*
Y1096*
X4458*
G75*
G02X4498Y1082I9J-41*
G01*
Y1192*
X4703*
Y1096*
X4825*
Y1188*
X5030*
Y1096*
X5144*
Y1208*
X5349*
Y1096*
X5361*
Y1276*
X5225*
G75*
G02X5150I-37J11*
G01*
X5128*
G75*
G02X5132Y1259I-35J-17*
G01*
G75*
G02X5054I-39*
G01*
G75*
G02X5058Y1276I39*
G01*
X4911*
G75*
G02X4834I-38J7*
G01*
X4820*
G75*
G02X4743I-38J7*
G01*
X4596*
G75*
G02X4519I-39J3*
G01*
X4501*
G75*
G02X4425I-38J7*
G01*
X4285*
G75*
G02X4208I-38J7*
G01*
X4189*
G75*
G02X4115I-37J13*
G01*
X3965*
G75*
G02X3890I-37J11*
G01*
X3872*
G75*
G02X3794I-39J5*
G01*
X3651*
G75*
G02X3574I-38J7*
G01*
X3559*
G75*
G02X3485I-37J11*
G01*
X3335*
G75*
G02X3260I-37J11*
G01*
X3242*
G75*
G02X3172I-35J17*
G01*
X2992*
G75*
G02X2935Y1254I-37J11*
G01*
G75*
G02X2857Y1255I-39J2*
G01*
G75*
G02X2863Y1276I39*
G01*
X2746*
G75*
G02Y1275I-39J0*
G01*
G75*
G02X2668I-39*
G01*
G75*
G02Y1276I39J0*
G01*
X2655*
G75*
G02X2578I-38J7*
G01*
X2430*
G75*
G02X2354I-38J7*
G01*
X2340*
G75*
G02X2263I-38J7*
G01*
X2115*
G75*
G02X2039I-38J7*
G01*
X2021*
G75*
G02X1944I-39J1*
G01*
X1801*
G75*
G02X1723I-39J3*
G01*
X1709*
G75*
G02X1634I-38J9*
G01*
X1485*
G75*
G02X1409I-38J7*
G01*
X1391*
G75*
G02X1322I-34J19*
G01*
X1170*
G75*
G02X1095I-37J11*
G01*
X1073*
G75*
G02X1002I-35J17*
G01*
X823*
G75*
G02X751Y1269I-37J11*
G01*
G75*
G02X695Y1276I-25J30*
G01*
X504*
G75*
G02X442Y1257I-37J11*
G01*
G75*
G02X365Y1265I-38J8*
G01*
G75*
G02X366Y1276I39J0*
G01*
X29*
Y1096*
X287*
G37*
X660D02*
G36*
Y1047D01*
X686*
G75*
G02X685Y1059I40J12*
G01*
G75*
G02X707Y1096I42*
G01*
X660*
G37*
X971D02*
G36*
Y1047D01*
X997*
G75*
G02X996Y1056I41J10*
G01*
G75*
G02X1023Y1096I42*
G01*
X971*
G37*
X1286D02*
G36*
Y1047D01*
X1320*
G75*
G02X1315Y1066I37J20*
G01*
G75*
G02X1327Y1096I42*
G01*
X1286*
G37*
X1387D02*
G36*
G75*
G02X1399Y1066I-30J-29D01*
G01*
G75*
G02X1394Y1047I-42J0*
G01*
X1400*
Y1096*
X1387*
G37*
X1605D02*
G36*
Y1047D01*
X1634*
G75*
G02X1711Y1067I42J-2*
G01*
Y1096*
X1605*
G37*
X1916D02*
G36*
Y1047D01*
X1945*
G75*
G02X2026Y1057I42J-4*
G01*
Y1096*
X1916*
G37*
X2231D02*
G36*
Y1047D01*
X2260*
G75*
G02X2260Y1055I41J8*
G01*
G75*
G02X2293Y1096I42*
G01*
X2231*
G37*
X2546D02*
G36*
Y1047D01*
X2575*
G75*
G02X2574Y1051I42J4*
G01*
G75*
G02X2652Y1073I42*
G01*
Y1096*
X2546*
G37*
X2857D02*
G36*
Y1047D01*
X2863*
G75*
G02X2939Y1041I37J-20*
G01*
Y1096*
X2857*
G37*
X3144D02*
G36*
Y1047D01*
X3169*
G75*
G02X3250Y1059I42J-2*
G01*
Y1096*
X3144*
G37*
X3455D02*
G36*
Y1047D01*
X3480*
G75*
G02X3480Y1051I42J4*
G01*
G75*
G02X3557Y1073I42*
G01*
Y1096*
X3455*
G37*
X3762D02*
G36*
Y1047D01*
X3791*
G75*
G02X3791Y1052I42J6*
G01*
G75*
G02X3868Y1075I42*
G01*
Y1096*
X3762*
G37*
X4073D02*
G36*
Y1047D01*
X4103*
G75*
G02X4102Y1056I41J10*
G01*
G75*
G02X4130Y1096I42*
G01*
X4073*
G37*
X4158D02*
G36*
G75*
G02X4186Y1056I-14J-39D01*
G01*
G75*
G02X4185Y1047I-42J0*
G01*
X4187*
Y1096*
X4158*
G37*
X4392D02*
G36*
Y1047D01*
X4426*
G75*
G02X4425Y1055I41J8*
G01*
G75*
G02X4458Y1096I42*
G01*
X4392*
G37*
X4703D02*
G36*
Y1047D01*
X4740*
G75*
G02X4824I42*
G01*
X4825*
Y1096*
X4703*
G37*
X5030D02*
G36*
Y1047D01*
X5058*
G75*
G02X5136I39J-16*
G01*
X5144*
Y1096*
X5030*
G37*
X5349D02*
G36*
Y1047D01*
X5361*
Y1096*
X5349*
G37*
X29Y862D02*
G36*
Y822D01*
X295*
G75*
G02X294Y830I38J8*
G01*
G75*
G02X310Y862I39*
G01*
X29*
G37*
X310D02*
G36*
G75*
G02X330Y869I23J-31D01*
G01*
G75*
G02X322Y893I31J24*
G01*
G75*
G02X323Y905I39*
G01*
X29*
Y862*
X310*
G37*
X383D02*
G36*
G75*
G02X363Y854I-23J31D01*
G01*
G75*
G02X372Y830I-31J-24*
G01*
G75*
G02X371Y822I-39J0*
G01*
X606*
G75*
G02X605Y830I38J8*
G01*
G75*
G02X621Y862I39*
G01*
X383*
G37*
X621D02*
G36*
G75*
G02X667I23J-31D01*
G01*
X1251*
G75*
G02X1284Y868I23J-31*
G01*
G75*
G02X1274Y893I30J25*
G01*
G75*
G02X1276Y905I39*
G01*
X1275*
G75*
G02X1194I-40J12*
G01*
X1037*
G75*
G02X1037Y901I-39J-4*
G01*
G75*
G02X959Y900I-39*
G01*
G75*
G02X878Y905I-40J13*
G01*
X738*
G75*
G02X660I-39*
G01*
X647*
G75*
G02X563I-42*
G01*
X398*
G75*
G02X399Y893I-37J-12*
G01*
G75*
G02X383Y862I-39*
G01*
X621*
G37*
X667D02*
G36*
G75*
G02X683Y830I-23J-31D01*
G01*
G75*
G02X682Y822I-39J0*
G01*
X924*
G75*
G02X1002I39*
G01*
X1236*
G75*
G02X1235Y830I38J8*
G01*
G75*
G02X1251Y862I39*
G01*
X667*
G37*
X1336D02*
G36*
G75*
G02X1303Y855I-23J31D01*
G01*
G75*
G02X1313Y830I-30J-25*
G01*
G75*
G02X1312Y822I-39J0*
G01*
X1556*
G75*
G02X1554Y834I37J12*
G01*
G75*
G02X1565Y862I39*
G01*
X1336*
G37*
X1565D02*
G36*
G75*
G02X1595Y873I28J-28D01*
G01*
G75*
G02X1589Y891I33J20*
G01*
G75*
G02X1512Y905I-36J22*
G01*
X1350*
G75*
G02X1352Y893I-37J-12*
G01*
G75*
G02X1336Y862I-39*
G01*
X1565*
G37*
X1651D02*
G36*
G75*
G02X1626Y854I-23J31D01*
G01*
G75*
G02X1632Y834I-33J-20*
G01*
G75*
G02X1630Y822I-39*
G01*
X1867*
G75*
G02X1865Y834I37J12*
G01*
G75*
G02X1876Y862I39*
G01*
X1651*
G37*
X1876D02*
G36*
G75*
G02X1912Y872I28J-28D01*
G01*
G75*
G02X1908Y889I35J17*
G01*
G75*
G02X1912Y905I39*
G01*
X1907*
G75*
G02X1830I-39J16*
G01*
X1665*
G75*
G02X1667Y893I-37J-12*
G01*
G75*
G02X1651Y862I-39*
G01*
X1876*
G37*
X1975D02*
G36*
G75*
G02X1939Y851I-28J28D01*
G01*
G75*
G02X1943Y834I-35J-17*
G01*
G75*
G02X1941Y822I-39*
G01*
X2189*
G75*
G02X2184Y842I34J20*
G01*
G75*
G02X2189Y862I39*
G01*
X1975*
G37*
X2189D02*
G36*
G75*
G02X2231Y880I34J-20D01*
G01*
G75*
G02X2227Y897I35J17*
G01*
G75*
G02X2228Y905I39J0*
G01*
X2221*
G75*
G02X2138I-41J8*
G01*
X1983*
G75*
G02X1986Y889I-36J-16*
G01*
G75*
G02X1975Y862I-39*
G01*
X2189*
G37*
X2282D02*
G36*
G75*
G02X2258Y859I-16J35D01*
G01*
G75*
G02X2262Y842I-35J-17*
G01*
G75*
G02X2256Y822I-39*
G01*
X2492*
G75*
G02X2539Y852I38J-8*
G01*
G75*
G02X2532Y862I26J29*
G01*
X2282*
G37*
X2532D02*
G36*
G75*
G02X2528Y891I34J20D01*
G01*
G75*
G02X2454Y905I-33J26*
G01*
X2304*
G75*
G02X2305Y897I-38J-8*
G01*
G75*
G02X2282Y862I-39*
G01*
X2532*
G37*
X2599D02*
G36*
G75*
G02X2556Y844I-34J20D01*
G01*
G75*
G02X2568Y822I-26J-29*
G01*
X2782*
G75*
G02X2778Y838I36J16*
G01*
G75*
G02X2786Y862I39*
G01*
X2599*
G37*
X2786D02*
G36*
G75*
G02X2805Y875I31J-24D01*
G01*
G75*
G02X2769Y905I4J42*
G01*
X2596*
G75*
G02X2604Y881I-31J-24*
G01*
G75*
G02X2599Y862I-39*
G01*
X2786*
G37*
X2902D02*
G36*
G75*
G02X2856Y845I-34J20D01*
G01*
G75*
G02X2856Y838I-38J-7*
G01*
G75*
G02X2853Y822I-39*
G01*
X3082*
G75*
G02X3081Y826I39J4*
G01*
G75*
G02X3104Y862I39*
G01*
X2902*
G37*
X3104D02*
G36*
G75*
G02X3127Y865I16J-35D01*
G01*
G75*
G02X3121Y882I33J21*
G01*
G75*
G02X3052Y905I-28J31*
G01*
X2899*
G75*
G02X2907Y881I-31J-24*
G01*
G75*
G02X2902Y862I-39*
G01*
X3104*
G37*
X3191D02*
G36*
G75*
G02X3153Y847I-31J24D01*
G01*
G75*
G02X3159Y826I-33J-21*
G01*
G75*
G02X3159Y822I-39J0*
G01*
X3398*
G75*
G02X3396Y834I37J12*
G01*
G75*
G02X3408Y862I39*
G01*
X3191*
G37*
X3408D02*
G36*
G75*
G02X3444Y872I28J-28D01*
G01*
G75*
G02X3440Y889I35J17*
G01*
G75*
G02X3443Y905I39*
G01*
X3439*
G75*
G02X3361I-39J16*
G01*
X3193*
G75*
G02X3199Y885I-34J-20*
G01*
G75*
G02X3191Y862I-39*
G01*
X3408*
G37*
X3506D02*
G36*
G75*
G02X3470Y851I-28J28D01*
G01*
G75*
G02X3474Y834I-35J-17*
G01*
G75*
G02X3472Y822I-39*
G01*
X3708*
G75*
G02X3707Y830I38J8*
G01*
G75*
G02X3723Y862I39*
G01*
X3506*
G37*
X3723D02*
G36*
G75*
G02X3762Y866I23J-31D01*
G01*
G75*
G02X3759Y881I36J15*
G01*
G75*
G02X3767Y905I39*
G01*
X3764*
G75*
G02X3682I-41J8*
G01*
X3514*
G75*
G02X3518Y889I-36J-16*
G01*
G75*
G02X3506Y862I-39*
G01*
X3723*
G37*
X3831D02*
G36*
G75*
G02X3782Y846I-34J20D01*
G01*
G75*
G02X3785Y830I-36J-15*
G01*
G75*
G02X3784Y822I-39J0*
G01*
X4031*
G75*
G02X4030Y830I38J8*
G01*
G75*
G02X4046Y862I39*
G01*
X3831*
G37*
X4046D02*
G36*
G75*
G02X4076Y869I23J-31D01*
G01*
G75*
G02X4070Y889I33J21*
G01*
G75*
G02X4070Y891I39J0*
G01*
G75*
G02X3993Y905I-36J22*
G01*
X3828*
G75*
G02X3836Y881I-31J-24*
G01*
G75*
G02X3831Y862I-39*
G01*
X4046*
G37*
X4136D02*
G36*
G75*
G02X4102Y851I-28J28D01*
G01*
G75*
G02X4108Y830I-33J-21*
G01*
G75*
G02X4107Y822I-39J0*
G01*
X4346*
G75*
G02X4345Y830I38J8*
G01*
G75*
G02X4361Y862I39*
G01*
X4136*
G37*
X4361D02*
G36*
G75*
G02X4388Y869I23J-31D01*
G01*
G75*
G02X4385Y885I35J16*
G01*
G75*
G02X4390Y905I39*
G01*
X4386*
G75*
G02X4304I-41J8*
G01*
X4144*
G75*
G02X4147Y889I-36J-16*
G01*
G75*
G02X4136Y862I-39J0*
G01*
X4361*
G37*
X4454D02*
G36*
G75*
G02X4419Y847I-31J24D01*
G01*
G75*
G02X4423Y830I-35J-16*
G01*
G75*
G02X4422Y822I-39J0*
G01*
X4656*
G75*
G02X4696Y857I39J-4*
G01*
G75*
G02X4693Y862I31J24*
G01*
X4454*
G37*
X4693D02*
G36*
G75*
G02X4688Y881I34J20D01*
G01*
G75*
G02X4688Y886I39J0*
G01*
G75*
G02X4615Y905I-32J27*
G01*
X4457*
G75*
G02X4462Y885I-34J-20*
G01*
G75*
G02X4454Y862I-39*
G01*
X4693*
G37*
X4760D02*
G36*
G75*
G02X4726Y842I-34J20D01*
G01*
G75*
G02X4734Y822I-31J-24*
G01*
X4975*
G75*
G02X5019Y861I39*
G01*
G75*
G02X5019Y862I30J24*
G01*
X4760*
G37*
X5019D02*
G36*
G75*
G02X5012Y895I31J24D01*
G01*
G75*
G02X4940Y905I-33J26*
G01*
X4758*
G75*
G02X4766Y881I-31J-24*
G01*
G75*
G02X4760Y862I-39*
G01*
X5019*
G37*
X5080D02*
G36*
G75*
G02X5044Y847I-31J24D01*
G01*
G75*
G02X5053Y822I-30J-24*
G01*
X5361*
Y862*
X5080*
G37*
X5361D02*
G36*
Y905D01*
X5339*
G75*
G02X5256I-42J4*
G01*
X5083*
G75*
G02X5088Y885I-34J-20*
G01*
G75*
G02X5080Y862I-39*
G01*
X5361*
G37*
X29Y2708D02*
G36*
Y2606D01*
X538*
Y2708*
X438*
G75*
G02X354I-42*
G01*
X29*
G37*
X354D02*
G36*
G75*
G02X438I42D01*
G01*
X538*
Y2905*
X438*
G75*
G02X354I-42*
G01*
X29*
Y2708*
X354*
G37*
X798D02*
G36*
Y2606D01*
X1172*
Y2708*
X798*
G37*
X1172D02*
G36*
Y2905D01*
X798*
Y2708*
X1172*
G37*
X1431D02*
G36*
Y2606D01*
X1801*
Y2708*
X1431*
G37*
X1801D02*
G36*
Y2905D01*
X1431*
Y2708*
X1801*
G37*
X2061D02*
G36*
Y2606D01*
X2431*
Y2708*
X2061*
G37*
X2431D02*
G36*
Y2905D01*
X2061*
Y2708*
X2431*
G37*
X2691D02*
G36*
Y2606D01*
X3061*
Y2708*
X2691*
G37*
X3061D02*
G36*
Y2905D01*
X2691*
Y2708*
X3061*
G37*
X3321D02*
G36*
Y2606D01*
X3683*
Y2708*
X3321*
G37*
X3683D02*
G36*
Y2905D01*
X3321*
Y2708*
X3683*
G37*
X3943D02*
G36*
Y2606D01*
X4325*
Y2708*
X3943*
G37*
X4325D02*
G36*
Y2905D01*
X3943*
Y2708*
X4325*
G37*
X4585D02*
G36*
Y2606D01*
X4947*
Y2708*
X4585*
G37*
X4947D02*
G36*
Y2905D01*
X4585*
Y2708*
X4947*
G37*
X5207D02*
G36*
Y2606D01*
X5460*
G75*
G02X5513I27*
G01*
X5603*
G75*
G02X5677I37J-12*
G01*
X5743*
G75*
G02X5797I27*
G01*
X5876*
Y2708*
X5828*
G75*
G02X5844Y2677I-23J-31*
G01*
G75*
G02X5766I-39*
G01*
G75*
G02X5782Y2708I39*
G01*
X5498*
G75*
G02X5506Y2684I-31J-24*
G01*
G75*
G02X5428I-39*
G01*
G75*
G02X5436Y2708I39*
G01*
X5207*
G37*
X5436D02*
G36*
G75*
G02X5498I31J-24D01*
G01*
X5782*
G75*
G02X5828I23J-31*
G01*
X5876*
Y2905*
X5207*
Y2708*
X5436*
G37*
X354Y2905D02*
G36*
G75*
G02X438I42D01*
G01*
X538*
Y3192*
X426*
G75*
G02X398Y3116I-148J11*
G01*
G75*
G02X446Y3074I6J-42*
G01*
G75*
G02X362I-42*
G01*
G75*
G02X362Y3081I42J0*
G01*
G75*
G02X129Y3192I-85J122*
G01*
X29*
Y2905*
X354*
G37*
X1172D02*
G36*
Y3192D01*
X798*
Y2905*
X1172*
G37*
X1801D02*
G36*
Y3192D01*
X1431*
Y2905*
X1801*
G37*
X2431D02*
G36*
Y3192D01*
X2061*
Y2905*
X2431*
G37*
X3061D02*
G36*
Y3192D01*
X2691*
Y2905*
X3061*
G37*
X3683D02*
G36*
Y3192D01*
X3321*
Y2905*
X3683*
G37*
X4325D02*
G36*
Y3192D01*
X3943*
Y2905*
X4325*
G37*
X4947D02*
G36*
Y3192D01*
X4585*
Y2905*
X4947*
G37*
X5876D02*
G36*
Y3192D01*
X5776*
G75*
G02X5479I-148J11*
G01*
X5207*
Y2905*
X5876*
G37*
X129Y3192D02*
G36*
G75*
G02X129Y3203I148J11D01*
G01*
G75*
G02X426I148*
G01*
G75*
G02X426Y3192I-148J0*
G01*
X538*
Y3346*
X798*
Y3192*
X1172*
Y3342*
X1431*
Y3192*
X1801*
Y3346*
X2061*
Y3192*
X2431*
Y3342*
X2691*
Y3192*
X3061*
Y3330*
X3321*
Y3192*
X3683*
Y3342*
X3943*
Y3192*
X4325*
Y3338*
X4585*
Y3192*
X4947*
Y3350*
X5207*
Y3192*
X5479*
G75*
G02X5479Y3203I148J11*
G01*
G75*
G02X5776I148*
G01*
G75*
G02X5776Y3192I-148J0*
G01*
X5876*
Y3378*
X4935*
G75*
G02X4857I-39J15*
G01*
X4307*
G75*
G02X4308Y3370I-41J-9*
G01*
G75*
G02X4224I-42*
G01*
G75*
G02X4225Y3378I42*
G01*
X3677*
G75*
G02X3596I-40J11*
G01*
X3048*
G75*
G02X3048Y3373I-42J-5*
G01*
G75*
G02X2964I-42*
G01*
G75*
G02X2964Y3378I42J0*
G01*
X2417*
G75*
G02X2336I-40J11*
G01*
X1788*
G75*
G02X1705I-42J3*
G01*
X1158*
G75*
G02X1075I-41J7*
G01*
X528*
G75*
G02X445I-42*
G01*
X29*
Y3192*
X129*
G37*
X29Y507D02*
G36*
Y401D01*
X195*
G75*
G02X360I82J-124*
G01*
X5381*
G75*
G02X5458I39*
G01*
X5545*
G75*
G02X5710I82J-124*
G01*
X5743*
G75*
G02X5820I39J-4*
G01*
X5876*
Y472*
X5361*
Y507*
X5257*
G75*
G02X5173I-42J4*
G01*
X5117*
G75*
G02X5120Y492I-36J-16*
G01*
G75*
G02X5042I-39*
G01*
G75*
G02X5045Y507I39*
G01*
X4934*
G75*
G02X4850I-42J4*
G01*
X4817*
G75*
G02X4817Y503I-39J-4*
G01*
G75*
G02X4739I-39*
G01*
G75*
G02X4739Y507I39J0*
G01*
X4622*
G75*
G02X4540I-41J8*
G01*
X4494*
G75*
G02X4416I-39*
G01*
X4308*
G75*
G02X4308Y503I-42J-4*
G01*
G75*
G02X4224I-42*
G01*
G75*
G02X4224Y507I42*
G01*
X4181*
G75*
G02X4183Y496I-37J-12*
G01*
G75*
G02X4105I-39*
G01*
G75*
G02X4107Y507I39*
G01*
X3989*
G75*
G02X3905I-42J4*
G01*
X3863*
G75*
G02X3864Y499I-38J-8*
G01*
G75*
G02X3786I-39*
G01*
G75*
G02X3787Y507I39J0*
G01*
X3678*
G75*
G02X3594I-42J4*
G01*
X3549*
G75*
G02X3549Y503I-39J-4*
G01*
G75*
G02X3471I-39*
G01*
G75*
G02X3471Y507I39J0*
G01*
X3362*
G75*
G02X3280I-41J8*
G01*
X3242*
G75*
G02X3164I-39*
G01*
X3051*
G75*
G02X2969I-41J8*
G01*
X2927*
G75*
G02X2927Y503I-39J-4*
G01*
G75*
G02X2849I-39*
G01*
G75*
G02X2849Y507I39J0*
G01*
X2771*
G75*
G02X2690I-40J12*
G01*
X2652*
G75*
G02X2581I-36J16*
G01*
X2457*
G75*
G02X2374I-41J8*
G01*
X2340*
G75*
G02X2263I-39*
G01*
X2142*
G75*
G02X2059I-41J8*
G01*
X2017*
G75*
G02X2018Y503I-39J-4*
G01*
G75*
G02X1940I-39*
G01*
G75*
G02X1940Y507I39J0*
G01*
X1827*
G75*
G02X1745I-41J8*
G01*
X1706*
G75*
G02X1707Y503I-39J-4*
G01*
G75*
G02X1629I-39*
G01*
G75*
G02X1629Y507I39J0*
G01*
X1514*
G75*
G02X1436I-39J16*
G01*
X1399*
G75*
G02X1322I-39*
G01*
X1200*
G75*
G02X1119I-40J12*
G01*
X1077*
G75*
G02X999I-39*
G01*
X884*
G75*
G02X806I-39J16*
G01*
X765*
G75*
G02X688I-39J4*
G01*
X573*
G75*
G02X495I-39J16*
G01*
X447*
G75*
G02X369I-39*
G01*
X29*
G37*
X376Y712D02*
G36*
Y807D01*
X581*
Y712*
X683*
Y799*
X888*
Y712*
X1006*
Y803*
X1211*
Y712*
X1309*
Y803*
X1514*
Y712*
X1636*
Y807*
X1841*
Y712*
X1943*
Y795*
X2148*
Y712*
X2266*
Y807*
X2471*
Y712*
X2573*
Y803*
X2778*
Y712*
X2864*
Y803*
X3069*
Y712*
X3164*
Y795*
X3368*
Y712*
X3475*
Y795*
X3679*
Y712*
X3790*
Y814*
X3994*
Y712*
X4116*
Y803*
X4321*
Y712*
X4427*
Y799*
X4632*
Y712*
X4738*
Y799*
X4943*
Y712*
X5061*
Y803*
X5266*
Y712*
X5361*
Y822*
X5053*
G75*
G02X4975I-39*
G01*
X4734*
G75*
G02X4734Y818I-39J-4*
G01*
G75*
G02X4656I-39*
G01*
G75*
G02X4656Y822I39J0*
G01*
X4422*
G75*
G02X4346I-38J8*
G01*
X4107*
G75*
G02X4031I-38J8*
G01*
X3784*
G75*
G02X3708I-38J8*
G01*
X3472*
G75*
G02X3398I-37J12*
G01*
X3159*
G75*
G02X3082I-39J4*
G01*
X2853*
G75*
G02X2782I-36J16*
G01*
X2568*
G75*
G02X2569Y814I-38J-8*
G01*
G75*
G02X2491I-39*
G01*
G75*
G02X2492Y822I39J0*
G01*
X2256*
G75*
G02X2189I-34J20*
G01*
X1941*
G75*
G02X1867I-37J12*
G01*
X1630*
G75*
G02X1556I-37J12*
G01*
X1312*
G75*
G02X1236I-38J8*
G01*
X1002*
G75*
G02X924I-39*
G01*
X682*
G75*
G02X606I-38J8*
G01*
X371*
G75*
G02X295I-38J8*
G01*
X29*
Y712*
X376*
G37*
X366Y1276D02*
G36*
G75*
G02X429Y1295I37J-11D01*
G01*
G75*
G02X506Y1287I38J-8*
G01*
G75*
G02X504Y1276I-39J0*
G01*
X695*
G75*
G02X688Y1299I32J23*
G01*
G75*
G02X761Y1317I39*
G01*
G75*
G02X825Y1287I25J-30*
G01*
G75*
G02X823Y1276I-39J0*
G01*
X1002*
G75*
G02X999Y1292I35J17*
G01*
G75*
G02X1077I39*
G01*
G75*
G02X1073Y1276I-39*
G01*
X1095*
G75*
G02X1093Y1287I37J11*
G01*
G75*
G02X1171I39*
G01*
G75*
G02X1170Y1276I-39J0*
G01*
X1322*
G75*
G02X1318Y1295I34J19*
G01*
G75*
G02X1396I39*
G01*
G75*
G02X1391Y1276I-39J0*
G01*
X1409*
G75*
G02X1408Y1283I38J7*
G01*
G75*
G02X1486I39*
G01*
G75*
G02X1485Y1276I-39J0*
G01*
X1634*
G75*
G02X1633Y1285I38J9*
G01*
G75*
G02X1710I39*
G01*
G75*
G02X1709Y1276I-39J0*
G01*
X1723*
G75*
G02X1723Y1279I39J3*
G01*
G75*
G02X1801I39*
G01*
G75*
G02X1801Y1276I-39J0*
G01*
X1944*
G75*
G02Y1277I39J0*
G01*
G75*
G02X2021I39*
G01*
G75*
G02Y1276I-39J0*
G01*
X2039*
G75*
G02X2038Y1283I38J7*
G01*
G75*
G02X2116I39*
G01*
G75*
G02X2115Y1276I-39J0*
G01*
X2263*
G75*
G02X2263Y1283I38J7*
G01*
G75*
G02X2340I39*
G01*
G75*
G02X2340Y1276I-39J0*
G01*
X2354*
G75*
G02X2353Y1283I38J7*
G01*
G75*
G02X2431I39*
G01*
G75*
G02X2430Y1276I-39J0*
G01*
X2578*
G75*
G02X2577Y1283I38J7*
G01*
G75*
G02X2655I39*
G01*
G75*
G02X2655Y1276I-39J0*
G01*
X2668*
G75*
G02X2746I39J-1*
G01*
X2863*
G75*
G02X2916Y1289I33J-21*
G01*
G75*
G02X2994Y1287I39J-2*
G01*
G75*
G02X2992Y1276I-39J0*
G01*
X3172*
G75*
G02X3168Y1292I35J17*
G01*
G75*
G02X3246I39*
G01*
G75*
G02X3242Y1276I-39*
G01*
X3260*
G75*
G02X3259Y1287I37J11*
G01*
G75*
G02X3336I39*
G01*
G75*
G02X3335Y1276I-39J0*
G01*
X3485*
G75*
G02X3483Y1287I37J11*
G01*
G75*
G02X3561I39*
G01*
G75*
G02X3559Y1276I-39J0*
G01*
X3574*
G75*
G02X3574Y1283I38J7*
G01*
G75*
G02X3651I39*
G01*
G75*
G02X3651Y1276I-39J0*
G01*
X3794*
G75*
G02X3794Y1281I39J5*
G01*
G75*
G02X3872I39*
G01*
G75*
G02X3872Y1276I-39J0*
G01*
X3890*
G75*
G02X3888Y1287I37J11*
G01*
G75*
G02X3966I39*
G01*
G75*
G02X3965Y1276I-39J0*
G01*
X4115*
G75*
G02X4113Y1289I37J13*
G01*
G75*
G02X4191I39*
G01*
G75*
G02X4189Y1276I-39*
G01*
X4208*
G75*
G02X4207Y1283I38J7*
G01*
G75*
G02X4285I39*
G01*
G75*
G02X4285Y1276I-39J0*
G01*
X4425*
G75*
G02X4424Y1283I38J7*
G01*
G75*
G02X4502I39*
G01*
G75*
G02X4501Y1276I-39J0*
G01*
X4519*
G75*
G02X4518Y1279I39J3*
G01*
G75*
G02X4596I39*
G01*
G75*
G02X4596Y1276I-39J0*
G01*
X4743*
G75*
G02X4743Y1283I38J7*
G01*
G75*
G02X4821I39*
G01*
G75*
G02X4820Y1276I-39J0*
G01*
X4834*
G75*
G02X4833Y1283I38J7*
G01*
G75*
G02X4911I39*
G01*
G75*
G02X4911Y1276I-39J0*
G01*
X5058*
G75*
G02X5128I35J-17*
G01*
X5150*
G75*
G02X5148Y1287I37J11*
G01*
G75*
G02X5226I39*
G01*
G75*
G02X5225Y1276I-39J0*
G01*
X5361*
Y1377*
X5357Y1381*
X439*
X435Y1385*
Y2468*
X810Y2468*
G75*
G02X864Y2468I27J0*
G01*
X885Y2468*
G75*
G02X938Y2468I27J-4*
G01*
X1356Y2469*
G75*
G02X1404Y2469I24J-12*
G01*
X2145Y2469*
G75*
G02X2145Y2472I27J3*
G01*
G75*
G02X2198I27*
G01*
G75*
G02X2198Y2469I-27J0*
G01*
X2263Y2469*
G75*
G02X2263Y2472I27J3*
G01*
G75*
G02X2317I27*
G01*
G75*
G02X2316Y2469I-27J0*
G01*
X2776Y2470*
G75*
G02X2775Y2480I25J10*
G01*
G75*
G02X2828I27*
G01*
G75*
G02X2826Y2470I-27J0*
G01*
X2888Y2470*
G75*
G02X2877Y2492I16J22*
G01*
G75*
G02X2931I27*
G01*
G75*
G02X2920Y2470I-27*
G01*
X2962Y2470*
G75*
G02X2956Y2488I20J18*
G01*
G75*
G02X3009I27*
G01*
G75*
G02X3003Y2470I-27J0*
G01*
X3307Y2470*
G75*
G02X3306Y2476I26J6*
G01*
G75*
G02X3360I27*
G01*
G75*
G02X3359Y2470I-27J0*
G01*
X3401Y2470*
G75*
G02X3454Y2470I27J-2*
G01*
X3475Y2470*
G75*
G02X3475Y2472I27J2*
G01*
G75*
G02X3529I27*
G01*
G75*
G02X3529Y2470I-27J0*
G01*
X3542Y2470*
G75*
G02X3542Y2472I27J2*
G01*
G75*
G02X3596I27*
G01*
G75*
G02X3596Y2470I-27J0*
G01*
X3933Y2470*
G75*
G02X3985Y2471I26J-6*
G01*
X3999Y2471*
G75*
G02X4029Y2471I15J-22*
G01*
X4068Y2471*
G75*
G02X4118Y2471I25J-11*
G01*
X4181Y2471*
G75*
G02X4233Y2471I26J-7*
G01*
X4598Y2471*
G75*
G02X4643Y2471I22J-15*
G01*
X4688Y2471*
G75*
G02X4742Y2471I27J-3*
G01*
X4763Y2471*
G75*
G02X4816Y2471I27J-3*
G01*
X5233Y2471*
G75*
G02X5260Y2471I14J-23*
G01*
X5335Y2472*
G75*
G02X5362Y2472I14J-23*
G01*
X5409Y2472*
G75*
G02X5446Y2472I19J-19*
G01*
X5473Y2472*
G75*
G02X5500Y2472I13J-23*
G01*
X5757Y2472*
G75*
G02X5783Y2472I13J-24*
G01*
X5876Y2472*
Y2543*
X5640*
G75*
G02X5644Y2527I-36J-16*
G01*
G75*
G02X5566I-39*
G01*
G75*
G02X5569Y2543I39*
G01*
X5514*
G75*
G02X5518Y2527I-36J-16*
G01*
G75*
G02X5440I-39*
G01*
G75*
G02X5443Y2543I39*
G01*
X5303*
G75*
G02X5305Y2531I-37J-12*
G01*
G75*
G02X5227I-39*
G01*
G75*
G02X5229Y2543I39*
G01*
X4675*
G75*
G02X4675Y2539I-39J-4*
G01*
G75*
G02X4597I-39*
G01*
G75*
G02X4597Y2543I39J0*
G01*
X4043*
G75*
G02X4045Y2531I-37J-12*
G01*
G75*
G02X3967I-39*
G01*
G75*
G02X3969Y2543I39*
G01*
X3413*
G75*
G02X3415Y2531I-37J-12*
G01*
G75*
G02X3337I-39*
G01*
G75*
G02X3339Y2543I39*
G01*
X2783*
G75*
G02X2785Y2531I-37J-12*
G01*
G75*
G02X2707I-39*
G01*
G75*
G02X2709Y2543I39*
G01*
X2155*
G75*
G02X2155Y2539I-39J-4*
G01*
G75*
G02X2077I-39*
G01*
G75*
G02X2078Y2543I39J0*
G01*
X1525*
G75*
G02X1525Y2539I-39J-4*
G01*
G75*
G02X1448I-39*
G01*
G75*
G02X1448Y2543I39J0*
G01*
X892*
G75*
G02X814I-39*
G01*
X29*
Y1276*
X366*
G37*
X323Y905D02*
G36*
G75*
G02X398I37J-12D01*
G01*
X563*
G75*
G02X647I42*
G01*
X660*
G75*
G02X738I39*
G01*
X878*
G75*
G02X878Y913I41J8*
G01*
G75*
G02X961Y914I42*
G01*
G75*
G02X1037Y905I37J-13*
G01*
X1194*
G75*
G02X1193Y917I40J12*
G01*
G75*
G02X1276I42*
G01*
G75*
G02X1275Y905I-42J0*
G01*
X1276*
G75*
G02X1350I37J-12*
G01*
X1512*
G75*
G02X1511Y913I41J8*
G01*
G75*
G02X1595Y914I42*
G01*
G75*
G02X1665Y905I33J-21*
G01*
X1830*
G75*
G02X1826Y921I39J16*
G01*
G75*
G02X1910I42*
G01*
G75*
G02X1907Y905I-42J0*
G01*
X1912*
G75*
G02X1983I36J-16*
G01*
X2138*
G75*
G02X2137Y913I41J8*
G01*
G75*
G02X2221I42*
G01*
G75*
G02X2221Y905I-42J0*
G01*
X2228*
G75*
G02X2304I38J-8*
G01*
X2454*
G75*
G02X2452Y917I40J12*
G01*
G75*
G02X2536I42*
G01*
G75*
G02X2535Y906I-42J0*
G01*
G75*
G02X2596Y905I30J-24*
G01*
X2769*
G75*
G02X2767Y917I40J12*
G01*
G75*
G02X2851I42*
G01*
X2851Y916*
G75*
G02X2899Y905I17J-35*
G01*
X3052*
G75*
G02X3051Y913I41J8*
G01*
G75*
G02X3135Y915I42*
G01*
G75*
G02X3193Y905I25J-30*
G01*
X3361*
G75*
G02X3358Y921I39J16*
G01*
G75*
G02X3442I42*
G01*
G75*
G02X3439Y905I-42J0*
G01*
X3443*
G75*
G02X3514I36J-16*
G01*
X3682*
G75*
G02X3681Y913I41J8*
G01*
G75*
G02X3765I42*
G01*
G75*
G02X3764Y905I-42J0*
G01*
X3767*
G75*
G02X3828I31J-24*
G01*
X3993*
G75*
G02X3992Y913I41J8*
G01*
G75*
G02X4076I42*
G01*
G75*
G02X4076Y910I-42J0*
G01*
G75*
G02X4144Y905I33J-21*
G01*
X4304*
G75*
G02X4303Y913I41J8*
G01*
G75*
G02X4387I42*
G01*
G75*
G02X4386Y905I-42J0*
G01*
X4390*
G75*
G02X4457I34J-20*
G01*
X4615*
G75*
G02X4614Y913I41J8*
G01*
G75*
G02X4698I42*
G01*
G75*
G02X4697Y907I-42J0*
G01*
G75*
G02X4758Y905I29J-26*
G01*
X4940*
G75*
G02X4937Y921I39J16*
G01*
G75*
G02X5021I42*
G01*
G75*
G02X5019Y910I-42J0*
G01*
G75*
G02X5083Y905I30J-24*
G01*
X5256*
G75*
G02X5256Y909I42J4*
G01*
G75*
G02X5339I42*
G01*
G75*
G02X5339Y905I-42*
G01*
X5361*
Y1047*
X5349*
Y1019*
X5144*
Y1047*
X5136*
G75*
G02X5139Y1031I-39J-16*
G01*
G75*
G02X5135Y1015I-42J0*
G01*
G75*
G02X5175Y976I1J-39*
G01*
G75*
G02X5097I-39*
G01*
G75*
G02X5099Y989I39J0*
G01*
G75*
G02X5055Y1031I-3J42*
G01*
G75*
G02X5058Y1047I42J0*
G01*
X5030*
Y999*
X4852*
G75*
G02X4860Y976I-31J-24*
G01*
G75*
G02X4782I-39*
G01*
G75*
G02X4825Y1015I39*
G01*
Y1047*
X4824*
G75*
G02X4740I-42*
G01*
X4703*
Y1003*
X4534*
G75*
G02X4545Y976I-28J-28*
G01*
G75*
G02X4467I-39*
G01*
G75*
G02X4498Y1014I39*
G01*
Y1027*
G75*
G02X4426Y1047I-31J28*
G01*
X4392*
Y1003*
X4219*
G75*
G02X4230Y976I-28J-28*
G01*
G75*
G02X4152I-39*
G01*
G75*
G02X4187Y1015I39*
G01*
Y1047*
X4185*
G75*
G02X4103I-41J10*
G01*
X4073*
Y1003*
X3904*
G75*
G02X3915Y976I-28J-28*
G01*
G75*
G02X3837I-39*
G01*
G75*
G02X3868Y1014I39*
G01*
Y1030*
G75*
G02X3791Y1047I-35J22*
G01*
X3762*
Y1007*
X3584*
G75*
G02X3600Y976I-23J-31*
G01*
G75*
G02X3522I-39*
G01*
G75*
G02X3557Y1015I39*
G01*
Y1028*
G75*
G02X3480Y1047I-35J22*
G01*
X3455*
Y1003*
X3250*
Y1030*
G75*
G02X3236Y1011I-39J14*
G01*
G75*
G02X3258Y976I-17J-35*
G01*
G75*
G02X3180I-39*
G01*
G75*
G02X3194Y1006I39*
G01*
G75*
G02X3169Y1044I17J38*
G01*
G75*
G02X3169Y1047I42J0*
G01*
X3144*
Y1011*
X2959*
G75*
G02X2982Y976I-16J-35*
G01*
G75*
G02X2904I-39*
G01*
G75*
G02X2905Y985I39J0*
G01*
G75*
G02X2858Y1027I-6J42*
G01*
G75*
G02X2863Y1047I42J0*
G01*
X2857*
Y1007*
X2683*
G75*
G02X2695Y980I-28J-28*
G01*
G75*
G02X2617I-39*
G01*
G75*
G02X2652Y1019I39*
G01*
Y1028*
G75*
G02X2575Y1047I-35J22*
G01*
X2546*
Y1007*
X2376*
G75*
G02X2384Y984I-31J-24*
G01*
G75*
G02X2306I-39*
G01*
G75*
G02X2341Y1022I39*
G01*
Y1040*
G75*
G02X2260Y1047I-39J14*
G01*
X2231*
Y1019*
X2026*
Y1028*
G75*
G02X2020Y1017I-39J14*
G01*
G75*
G02X2069Y980I10J-38*
G01*
G75*
G02X1991I-39*
G01*
G75*
G02X1998Y1002I39J0*
G01*
G75*
G02X1945Y1043I-12J40*
G01*
G75*
G02X1945Y1047I42*
G01*
X1916*
Y1011*
X1742*
G75*
G02X1750Y988I-31J-24*
G01*
G75*
G02X1672I-39*
G01*
G75*
G02X1675Y1003I39J0*
G01*
G75*
G02X1634Y1044I1J42*
G01*
G75*
G02X1634Y1047I42J0*
G01*
X1605*
Y1007*
X1430*
G75*
G02X1435Y988I-34J-20*
G01*
G75*
G02X1357I-39*
G01*
G75*
G02X1400Y1026I39*
G01*
Y1047*
X1394*
G75*
G02X1320I-37J20*
G01*
X1286*
Y1011*
X1108*
G75*
G02X1116Y988I-31J-24*
G01*
G75*
G02X1038I-39*
G01*
G75*
G02X1051Y1016I39J0*
G01*
G75*
G02X997Y1047I-13J40*
G01*
X971*
Y1015*
X794*
G75*
G02X805Y988I-28J-28*
G01*
G75*
G02X727I-39*
G01*
G75*
G02X766Y1027I39*
G01*
Y1044*
G75*
G02X686Y1047I-39J14*
G01*
X660*
Y1015*
X459*
G75*
G02X482Y980I-16J-35*
G01*
G75*
G02X404I-39*
G01*
G75*
G02X455Y1017I39*
G01*
Y1047*
X29*
Y905*
X323*
G37*
X29Y200D02*
G36*
Y29D01*
X5876*
Y200*
X5754*
G75*
G02X5501I-127J77*
G01*
X5418*
G75*
G02X5296I-61*
G01*
X5268*
G75*
G02X5146I-61*
G01*
X5118*
G75*
G02X4996I-61*
G01*
X4968*
G75*
G02X4846I-61*
G01*
X4818*
G75*
G02X4696I-61*
G01*
X4668*
G75*
G02X4546I-61*
G01*
X4518*
G75*
G02X4396I-61*
G01*
X4368*
G75*
G02X4246I-61*
G01*
X4158*
G75*
G02X4036I-61*
G01*
X4008*
G75*
G02X3886I-61*
G01*
X3858*
G75*
G02X3736I-61*
G01*
X3708*
G75*
G02X3586I-61*
G01*
X3558*
G75*
G02X3436I-61*
G01*
X3408*
G75*
G02X3286I-61*
G01*
X3258*
G75*
G02X3136I-61*
G01*
X3108*
G75*
G02X2986I-61*
G01*
X2898*
G75*
G02X2776I-61*
G01*
X2748*
G75*
G02X2626I-61*
G01*
X2598*
G75*
G02X2476I-61*
G01*
X2448*
G75*
G02X2326I-61*
G01*
X2298*
G75*
G02X2176I-61*
G01*
X2148*
G75*
G02X2026I-61*
G01*
X1998*
G75*
G02X1876I-61*
G01*
X1848*
G75*
G02X1726I-61*
G01*
X1638*
G75*
G02X1516I-61*
G01*
X1488*
G75*
G02X1366I-61*
G01*
X1338*
G75*
G02X1216I-61*
G01*
X1188*
G75*
G02X1066I-61*
G01*
X1038*
G75*
G02X916I-61*
G01*
X888*
G75*
G02X766I-61*
G01*
X738*
G75*
G02X616I-61*
G01*
X588*
G75*
G02X466I-61*
G01*
X404*
G75*
G02X151I-127J77*
G01*
X29*
G37*
X814Y2543D02*
G36*
G75*
G02X892I39D01*
G01*
X1448*
G75*
G02X1525I39J-4*
G01*
X2078*
G75*
G02X2155I39J-4*
G01*
X2709*
G75*
G02X2783I37J-12*
G01*
X3339*
G75*
G02X3413I37J-12*
G01*
X3969*
G75*
G02X4043I37J-12*
G01*
X4597*
G75*
G02X4675I39J-4*
G01*
X5229*
G75*
G02X5303I37J-12*
G01*
X5443*
G75*
G02X5514I36J-16*
G01*
X5569*
G75*
G02X5614Y2565I36J-16*
G01*
G75*
G02X5601Y2594I26J29*
G01*
G75*
G02X5603Y2606I39*
G01*
X5513*
G75*
G02X5460I-27*
G01*
X5207*
Y2574*
X4947*
Y2606*
X4585*
Y2562*
X4325*
Y2606*
X3943*
Y2566*
X3683*
Y2606*
X3321*
Y2555*
X3061*
Y2606*
X2691*
Y2566*
X2431*
Y2606*
X2061*
Y2570*
X1801*
Y2606*
X1431*
Y2566*
X1172*
Y2606*
X798*
Y2570*
X538*
Y2606*
X29*
Y2543*
X814*
G37*
X5876D02*
G36*
Y2606D01*
X5797*
G75*
G02X5743I-27*
G01*
X5677*
G75*
G02X5679Y2594I-37J-12*
G01*
G75*
G02X5630Y2556I-39*
G01*
G75*
G02X5640Y2543I-26J-29*
G01*
X5876*
G37*
X818Y2448D02*
X459D01*
Y1405*
X5131*
G75*
G02X5117Y1429I13J24*
G01*
G75*
G02X5171I27*
G01*
G75*
G02X5157Y1405I-27*
G01*
X5388*
X5400Y1393*
Y980*
G75*
G02X5466Y952I28J-28*
G01*
G75*
G02X5400Y925I-39*
G01*
Y496*
X5876*
Y2448*
X5797*
G75*
G02X5743I-27*
G01*
X5513*
G75*
G02X5460I-27*
G01*
X5454*
G75*
G02X5401I-27J4*
G01*
X5376*
G75*
G02X5322I-27*
G01*
X5273*
G75*
G02X5219I-27*
G01*
X4808*
G75*
G02X4771I-18J20*
G01*
X4733*
G75*
G02X4696I-18J20*
G01*
X4646*
G75*
G02X4595I-26J8*
G01*
X4229*
G75*
G02X4185I-22J16*
G01*
X4117*
G75*
G02X4069I-24J12*
G01*
X4041*
G75*
G02X3987I-27*
G01*
X3981*
G75*
G02X3937I-22J16*
G01*
X3582*
G75*
G02X3556I-13J24*
G01*
X3515*
G75*
G02X3489I-13J24*
G01*
X3446*
G75*
G02X3409I-18J20*
G01*
X2303*
G75*
G02X2277I-13J24*
G01*
X2184*
G75*
G02X2159I-13J24*
G01*
X1489*
G75*
G02X1490Y2440I-26J-8*
G01*
G75*
G02X1436I-27*
G01*
G75*
G02X1437Y2448I27J0*
G01*
X1406*
G75*
G02X1354I-26J8*
G01*
X934*
G75*
G02X890I-22J16*
G01*
X855*
G75*
G02X818I-18J20*
G01*
X692Y2098D02*
G75*
G02X770I39D01*
G01*
G75*
G02X692I-39*
G01*
X693Y2019D02*
G75*
G02X753I30D01*
G01*
G75*
G02X693I-30*
G01*
X744Y2228D02*
G75*
G02X804I30D01*
G01*
G75*
G02X744I-30*
G01*
X798Y2177D02*
G75*
G02X852I27D01*
G01*
G75*
G02X798I-27*
G01*
X823Y2228D02*
G75*
G02X883I30D01*
G01*
G75*
G02X823I-30*
G01*
X869Y2173D02*
G75*
G02X923I27D01*
G01*
G75*
G02X869I-27*
G01*
X901Y2228D02*
G75*
G02X961I30D01*
G01*
G75*
G02X901I-30*
G01*
X992Y1762D02*
G75*
G02X1046I27D01*
G01*
G75*
G02X992I-27*
G01*
X1047Y2307D02*
G75*
G02X1107I30D01*
G01*
G75*
G02X1047I-30*
G01*
X1118Y1787D02*
G75*
G02X1172I27D01*
G01*
G75*
G02X1118I-27*
G01*
X1216Y2206D02*
G75*
G02X1172Y2228I-16J21D01*
G01*
G75*
G02X1226Y2229I27*
G01*
G75*
G02X1269Y2208I16J-21*
G01*
G75*
G02X1216Y2206I-27*
G01*
X1287Y2224D02*
G75*
G02X1347I30D01*
G01*
G75*
G02X1287I-30*
G01*
X1325Y1980D02*
G75*
G02X1403I39D01*
G01*
G75*
G02X1325I-39*
G01*
X1335Y1889D02*
G75*
G02X1394I30D01*
G01*
G75*
G02X1335I-30*
G01*
X1366Y2224D02*
G75*
G02X1426I30D01*
G01*
G75*
G02X1366I-30*
G01*
X1445D02*
G75*
G02X1505I30D01*
G01*
G75*
G02X1445I-30*
G01*
X1523D02*
G75*
G02X1583I30D01*
G01*
G75*
G02X1523I-30*
G01*
X1547Y1851D02*
G75*
G02X1527Y1877I7J26D01*
G01*
G75*
G02X1580I27*
G01*
G75*
G02X1579Y1868I-27J0*
G01*
G75*
G02X1597Y1851I-7J-26*
G01*
G75*
G02X1635Y1832I11J-25*
G01*
G75*
G02X1665Y1820I7J-26*
G01*
G75*
G02X1714Y1806I22J-15*
G01*
G75*
G02X1705Y1786I-27*
G01*
G75*
G02X1728Y1759I-5J-27*
G01*
G75*
G02X1674I-27*
G01*
G75*
G02X1682Y1779I27*
G01*
G75*
G02X1665Y1791I5J27*
G01*
G75*
G02X1616Y1801I-22J15*
G01*
G75*
G02X1583Y1817I-7J26*
G01*
G75*
G02X1547Y1851I-11J25*
G01*
X1799Y1897D02*
G75*
G02X1790Y1917I18J20D01*
G01*
G75*
G02X1839Y1933I27*
G01*
G75*
G02X1886Y1941I26J-8*
G01*
G75*
G02X1885Y1948I26J7*
G01*
G75*
G02X1939I27*
G01*
G75*
G02X1890Y1932I-27*
G01*
G75*
G02X1843Y1909I-26J-7*
G01*
G75*
G02X1831Y1894I-26J8*
G01*
G75*
G02X1839Y1865I-18J-20*
G01*
G75*
G02X1860Y1825I-2J-27*
G01*
G75*
G02X1880Y1799I-8J-26*
G01*
G75*
G02X1879Y1797I-27J0*
G01*
G75*
G02X1914Y1779I9J-26*
G01*
G75*
G02X1954Y1755I14J-23*
G01*
G75*
G02X1902Y1748I-27*
G01*
G75*
G02X1861Y1771I-14J23*
G01*
G75*
G02X1861Y1773I27J0*
G01*
G75*
G02X1829Y1812I-9J26*
G01*
G75*
G02X1811Y1847I8J26*
G01*
G75*
G02X1799Y1897I2J27*
G01*
X1890Y2063D02*
G75*
G02X1869Y2098I18J35D01*
G01*
G75*
G02X1947I39*
G01*
G75*
G02X1925Y2063I-39*
G01*
G75*
G02X1938Y2039I-18J-24*
G01*
G75*
G02X1878I-30*
G01*
G75*
G02X1890Y2063I30J0*
G01*
X2023Y2409D02*
G75*
G02X2076I27D01*
G01*
G75*
G02X2023I-27*
G01*
X2086Y2232D02*
G75*
G02X2146I30D01*
G01*
G75*
G02X2086I-30*
G01*
X2165D02*
G75*
G02X2225I30D01*
G01*
G75*
G02X2165I-30*
G01*
X2244D02*
G75*
G02X2304I30D01*
G01*
G75*
G02X2244I-30*
G01*
X2323D02*
G75*
G02X2383I30D01*
G01*
G75*
G02X2323I-30*
G01*
X2389Y2409D02*
G75*
G02X2443I27D01*
G01*
G75*
G02X2389I-27*
G01*
X2483Y1980D02*
G75*
G02X2561I39D01*
G01*
G75*
G02X2483I-39*
G01*
X2513Y1859D02*
G75*
G02X2480Y1889I-3J30D01*
G01*
G75*
G02X2540I30*
G01*
G75*
G02X2528Y1865I-30*
G01*
G75*
G02X2557Y1838I2J-27*
G01*
G75*
G02X2503I-27*
G01*
G75*
G02X2513Y1859I27*
G01*
X2557Y1606D02*
G75*
G02X2611I27D01*
G01*
G75*
G02X2557I-27*
G01*
X2566Y1692D02*
G75*
G02X2572Y1742I11J24D01*
G01*
G75*
G02X2597Y1786I21J17*
G01*
G75*
G02X2593Y1799I24J13*
G01*
G75*
G02X2647I27*
G01*
G75*
G02X2617Y1772I-27*
G01*
G75*
G02X2598Y1733I-24J-13*
G01*
G75*
G02X2596Y1697I-21J-17*
G01*
G75*
G02X2612Y1673I-11J-24*
G01*
G75*
G02X2558I-27*
G01*
G75*
G02X2566Y1692I27J0*
G01*
X2649Y2417D02*
G75*
G02X2702I27D01*
G01*
G75*
G02X2649I-27*
G01*
X2712Y1578D02*
G75*
G02X2765I27D01*
G01*
G75*
G02X2712I-27*
G01*
X2716Y2251D02*
G75*
G02X2776I30D01*
G01*
G75*
G02X2716I-30*
G01*
X2790Y1582D02*
G75*
G02X2844I27D01*
G01*
G75*
G02X2790I-27*
G01*
X2795Y2251D02*
G75*
G02X2855I30D01*
G01*
G75*
G02X2795I-30*
G01*
X2874D02*
G75*
G02X2934I30D01*
G01*
G75*
G02X2874I-30*
G01*
X2953D02*
G75*
G02X3012I30D01*
G01*
G75*
G02X2953I-30*
G01*
X3012Y1803D02*
G75*
G02X3015Y1851I14J23D01*
G01*
G75*
G02X3019Y1898I15J23*
G01*
G75*
G02X3015Y1913I23J15*
G01*
G75*
G02X3069I27*
G01*
G75*
G02X3052Y1888I-27*
G01*
G75*
G02X3057Y1874I-23J-15*
G01*
G75*
G02X3096Y1850I12J-24*
G01*
G75*
G02X3053Y1829I-27*
G01*
G75*
G02X3053Y1826I-27J-2*
G01*
G75*
G02X3047Y1810I-27J0*
G01*
G75*
G02X3061Y1789I-14J-23*
G01*
G75*
G02X3096Y1763I9J-26*
G01*
G75*
G02X3042Y1761I-27*
G01*
G75*
G02X3012Y1803I-9J26*
G01*
X3054Y2072D02*
G75*
G02X3050Y2086I23J14D01*
G01*
G75*
G02X3104I27*
G01*
G75*
G02X3093Y2065I-27*
G01*
G75*
G02X3099Y2047I-24J-18*
G01*
G75*
G02X3039I-30*
G01*
G75*
G02X3054Y2072I30J0*
G01*
X3068Y1958D02*
G75*
G02X3034Y1984I-7J26D01*
G01*
G75*
G02X3085Y1997I27*
G01*
G75*
G02X3135Y1984I24J-13*
G01*
G75*
G02X3110Y1957I-27*
G01*
G75*
G02X3116Y1940I-21J-16*
G01*
G75*
G02X3062I-27*
G01*
G75*
G02X3068Y1958I27*
G01*
X3212Y2023D02*
G75*
G02X3272I30D01*
G01*
G75*
G02X3212I-30*
G01*
X3303Y2232D02*
G75*
G02X3363I30D01*
G01*
G75*
G02X3303I-30*
G01*
X3382D02*
G75*
G02X3442I30D01*
G01*
G75*
G02X3382I-30*
G01*
X3460D02*
G75*
G02X3520I30D01*
G01*
G75*
G02X3460I-30*
G01*
X3539D02*
G75*
G02X3599I30D01*
G01*
G75*
G02X3539I-30*
G01*
X3668Y1984D02*
G75*
G02X3746I39D01*
G01*
G75*
G02X3668I-39*
G01*
X3677Y1893D02*
G75*
G02X3737I30D01*
G01*
G75*
G02X3677I-30*
G01*
X3929Y2228D02*
G75*
G02X3989I30D01*
G01*
G75*
G02X3929I-30*
G01*
X4008D02*
G75*
G02X4068I30D01*
G01*
G75*
G02X4008I-30*
G01*
X4086D02*
G75*
G02X4146I30D01*
G01*
G75*
G02X4086I-30*
G01*
X4108Y2010D02*
G75*
G02X4161I27D01*
G01*
G75*
G02X4108I-27*
G01*
X4165Y2228D02*
G75*
G02X4225I30D01*
G01*
G75*
G02X4165I-30*
G01*
X4235Y1530D02*
G75*
G02X4289I27D01*
G01*
G75*
G02X4235I-27*
G01*
X4258Y2041D02*
G75*
G02X4231Y2078I12J37D01*
G01*
G75*
G02X4309I39*
G01*
G75*
G02X4296Y2049I-39*
G01*
G75*
G02X4312Y2023I-14J-26*
G01*
G75*
G02X4252I-30*
G01*
G75*
G02X4258Y2041I30J0*
G01*
X4294Y2389D02*
G75*
G02X4348I27D01*
G01*
G75*
G02X4294I-27*
G01*
X4314Y1530D02*
G75*
G02X4368I27D01*
G01*
G75*
G02X4314I-27*
G01*
X4430Y2076D02*
G75*
G02X4397Y2102I-6J26D01*
G01*
G75*
G02X4450I27*
G01*
G75*
G02X4449Y2093I-27*
G01*
G75*
G02X4482Y2066I6J-26*
G01*
G75*
G02X4482Y2064I-27J0*
G01*
G75*
G02X4517Y2039I9J-26*
G01*
G75*
G02X4463I-27*
G01*
G75*
G02X4464Y2041I27J0*
G01*
G75*
G02X4430Y2076I-9J26*
G01*
X4508Y2228D02*
G75*
G02X4568I30D01*
G01*
G75*
G02X4508I-30*
G01*
X4547Y1926D02*
G75*
G02X4516Y1953I-4J27D01*
G01*
G75*
G02X4570I27*
G01*
G75*
G02X4560Y1932I-27*
G01*
G75*
G02X4591Y1905I4J-27*
G01*
G75*
G02X4537I-27*
G01*
G75*
G02X4547Y1926I27*
G01*
X4552Y1521D02*
G75*
G02X4606I27D01*
G01*
G75*
G02X4552I-27*
G01*
X4586Y2228D02*
G75*
G02X4646I30D01*
G01*
G75*
G02X4586I-30*
G01*
X4633Y1521D02*
G75*
G02X4687I27D01*
G01*
G75*
G02X4633I-27*
G01*
X4636Y1729D02*
G75*
G02X4690I27D01*
G01*
G75*
G02X4636I-27*
G01*
X4665Y2228D02*
G75*
G02X4725I30D01*
G01*
G75*
G02X4665I-30*
G01*
X4690Y1892D02*
G75*
G02X4664Y1919I1J27D01*
G01*
G75*
G02X4718I27*
G01*
G75*
G02X4717Y1914I-27J0*
G01*
G75*
G02X4743Y1883I-1J-27*
G01*
G75*
G02X4777Y1845I11J-25*
G01*
G75*
G02X4798Y1819I-6J-26*
G01*
G75*
G02X4744I-27*
G01*
G75*
G02X4747Y1832I27*
G01*
G75*
G02X4727Y1862I6J26*
G01*
G75*
G02X4690Y1892I-11J25*
G01*
X4705Y1778D02*
G75*
G02X4759I27D01*
G01*
G75*
G02X4705I-27*
G01*
X4744Y2228D02*
G75*
G02X4804I30D01*
G01*
G75*
G02X4744I-30*
G01*
X4826Y1996D02*
G75*
G02X4903I39D01*
G01*
G75*
G02X4826I-39*
G01*
X4835Y1909D02*
G75*
G02X4894I30D01*
G01*
G75*
G02X4835I-30*
G01*
X4869Y1520D02*
G75*
G02X4923I27D01*
G01*
G75*
G02X4869I-27*
G01*
X4917Y1864D02*
G75*
G02X4971I27D01*
G01*
G75*
G02X4917I-27*
G01*
X4920Y2381D02*
G75*
G02X4974I27D01*
G01*
G75*
G02X4920I-27*
G01*
X4948Y1518D02*
G75*
G02X5001I27D01*
G01*
G75*
G02X4948I-27*
G01*
X5004Y1747D02*
G75*
G02X4956Y1763I-22J16D01*
G01*
G75*
G02X5008Y1771I27*
G01*
G75*
G02X5054Y1766I22J-16*
G01*
G75*
G02X5096Y1744I15J-23*
G01*
G75*
G02X5044Y1733I-27*
G01*
G75*
G02X5004Y1747I-15J23*
G01*
X5026Y1515D02*
G75*
G02X5080I27D01*
G01*
G75*
G02X5026I-27*
G01*
X5031Y2307D02*
G75*
G02X5091I30D01*
G01*
G75*
G02X5031I-30*
G01*
X5097Y2240D02*
G75*
G02X5151I27D01*
G01*
G75*
G02X5097I-27*
G01*
X5181Y1702D02*
G75*
G02X5193Y1731I26J6D01*
G01*
G75*
G02X5201Y1771I22J16*
G01*
G75*
G02X5192Y1791I18J20*
G01*
G75*
G02X5246I27*
G01*
G75*
G02X5233Y1768I-27*
G01*
G75*
G02X5229Y1724I-18J-20*
G01*
G75*
G02X5198Y1683I-22J-16*
G01*
G75*
G02X5198Y1677I-26J-6*
G01*
G75*
G02X5145I-27*
G01*
G75*
G02X5181Y1702I27*
G01*
X5187Y1854D02*
G75*
G02X5114Y1881I-31J28D01*
G01*
G75*
G02X5187Y1909I42*
G01*
G75*
G02X5250I31J-28*
G01*
G75*
G02X5324Y1881I31J-28*
G01*
G75*
G02X5250Y1854I-42*
G01*
G75*
G02X5187I-31J28*
G01*
X5212Y2031D02*
G75*
G02X5265I27D01*
G01*
G75*
G02X5212I-27*
G01*
X5278Y1646D02*
G75*
G02X5332Y1645I27J-1D01*
G01*
G75*
G02X5293Y1621I-27*
G01*
G75*
G02X5239Y1622I-27J1*
G01*
G75*
G02X5278Y1646I27*
G01*
X5326Y1594D02*
G75*
G02X5378Y1583I25J-10D01*
G01*
G75*
G02X5335Y1562I-27*
G01*
G75*
G02X5283Y1572I-25J10*
G01*
G75*
G02X5326Y1594I27*
G01*
X5408Y2153D02*
G75*
G02X5462I27D01*
G01*
G75*
G02X5408I-27*
G01*
X5420Y1031D02*
G75*
G02X5498I39D01*
G01*
G75*
G02X5420I-39*
G01*
X5432Y1425D02*
G75*
G02X5510I39D01*
G01*
G75*
G02X5432I-39*
G01*
X5436Y877D02*
G75*
G02X5514I39D01*
G01*
G75*
G02X5436I-39*
G01*
Y1267D02*
G75*
G02X5514I39D01*
G01*
G75*
G02X5436I-39*
G01*
X5455Y1346D02*
G75*
G02X5509I27D01*
G01*
G75*
G02X5455I-27*
G01*
X5458Y1610D02*
G75*
G02X5456Y1622I24J11D01*
G01*
G75*
G02X5509I27*
G01*
G75*
G02X5479Y1595I-27*
G01*
G75*
G02X5482Y1583I-24J-11*
G01*
G75*
G02X5428I-27*
G01*
G75*
G02X5458Y1610I27*
G01*
X5460Y1110D02*
G75*
G02X5513I27D01*
G01*
G75*
G02X5460I-27*
G01*
Y1188D02*
G75*
G02X5513I27D01*
G01*
G75*
G02X5460I-27*
G01*
Y1503D02*
G75*
G02X5513I27D01*
G01*
G75*
G02X5460I-27*
G01*
Y1897D02*
G75*
G02X5513I27D01*
G01*
G75*
G02X5460I-27*
G01*
Y1976D02*
G75*
G02X5513I27D01*
G01*
G75*
G02X5460I-27*
G01*
Y2055D02*
G75*
G02X5513I27D01*
G01*
G75*
G02X5460I-27*
G01*
Y2133D02*
G75*
G02X5513I27D01*
G01*
G75*
G02X5460I-27*
G01*
Y2212D02*
G75*
G02X5513I27D01*
G01*
G75*
G02X5460I-27*
G01*
Y2291D02*
G75*
G02X5513I27D01*
G01*
G75*
G02X5460I-27*
G01*
Y2370D02*
G75*
G02X5513I27D01*
G01*
G75*
G02X5460I-27*
G01*
X5601Y873D02*
G75*
G02X5679I39D01*
G01*
G75*
G02X5601I-39*
G01*
X5605Y1267D02*
G75*
G02X5683I39D01*
G01*
G75*
G02X5605I-39*
G01*
Y1346D02*
G75*
G02X5683I39D01*
G01*
G75*
G02X5605I-39*
G01*
X5609Y952D02*
G75*
G02X5687I39D01*
G01*
G75*
G02X5609I-39*
G01*
X5617Y1559D02*
G75*
G02X5671I27D01*
G01*
G75*
G02X5617I-27*
G01*
X5618Y1675D02*
G75*
G02X5574Y1696I-17J21D01*
G01*
G75*
G02X5627Y1702I27*
G01*
G75*
G02X5671Y1681I17J-21*
G01*
G75*
G02X5657Y1657I-27*
G01*
G75*
G02X5671Y1633I-13J-24*
G01*
G75*
G02X5617I-27*
G01*
G75*
G02X5631Y1657I27*
G01*
G75*
G02X5618Y1675I13J24*
G01*
X5621Y1492D02*
G75*
G02X5675I27D01*
G01*
G75*
G02X5621I-27*
G01*
X5625Y1774D02*
G75*
G02X5626Y1792I26J6D01*
G01*
G75*
G02X5594Y1818I-6J26*
G01*
G75*
G02X5648I27*
G01*
G75*
G02X5645Y1807I-27J0*
G01*
G75*
G02X5678Y1781I6J-26*
G01*
G75*
G02X5651Y1754I-27*
G01*
G75*
G02X5651Y1747I-26J-6*
G01*
G75*
G02X5597I-27*
G01*
G75*
G02X5625Y1774I27*
G01*
X5645Y756D02*
G75*
G02X5609Y795I3J39D01*
G01*
G75*
G02X5687I39*
G01*
G75*
G02X5675Y767I-39J0*
G01*
G75*
G02X5710Y728I-3J-39*
G01*
G75*
G02X5633I-39*
G01*
G75*
G02X5645Y756I39J0*
G01*
X5743Y1110D02*
G75*
G02X5797I27D01*
G01*
G75*
G02X5743I-27*
G01*
Y1188D02*
G75*
G02X5797I27D01*
G01*
G75*
G02X5743I-27*
G01*
Y1425D02*
G75*
G02X5797I27D01*
G01*
G75*
G02X5743I-27*
G01*
Y1503D02*
G75*
G02X5797I27D01*
G01*
G75*
G02X5743I-27*
G01*
Y1897D02*
G75*
G02X5797I27D01*
G01*
G75*
G02X5743I-27*
G01*
Y1976D02*
G75*
G02X5797I27D01*
G01*
G75*
G02X5743I-27*
G01*
Y2055D02*
G75*
G02X5797I27D01*
G01*
G75*
G02X5743I-27*
G01*
Y2133D02*
G75*
G02X5797I27D01*
G01*
G75*
G02X5743I-27*
G01*
Y2212D02*
G75*
G02X5797I27D01*
G01*
G75*
G02X5743I-27*
G01*
Y2291D02*
G75*
G02X5797I27D01*
G01*
G75*
G02X5743I-27*
G01*
Y2370D02*
G75*
G02X5797I27D01*
G01*
G75*
G02X5743I-27*
G01*
X5747Y873D02*
G75*
G02X5825I39D01*
G01*
G75*
G02X5747I-39*
G01*
X5751Y1027D02*
G75*
G02X5829I39D01*
G01*
G75*
G02X5751I-39*
G01*
X459Y2098D02*
G36*
Y2055D01*
X1882*
G75*
G02X1890Y2063I25J-16*
G01*
G75*
G02X1869Y2098I18J35*
G01*
X770*
G75*
G02X692I-39*
G01*
X459*
G37*
X692D02*
G36*
G75*
G02X714Y2133I39D01*
G01*
X459*
Y2098*
X692*
G37*
X1869D02*
G36*
G75*
G02X1892Y2133I39D01*
G01*
X747*
G75*
G02X770Y2098I-16J-35*
G01*
X1869*
G37*
X1947D02*
G36*
G75*
G02X1925Y2063I-39D01*
G01*
G75*
G02X1933Y2055I-18J-24*
G01*
X3040*
G75*
G02X3054Y2072I29J-8*
G01*
G75*
G02X3050Y2086I23J14*
G01*
G75*
G02X3053Y2098I27*
G01*
X1947*
G37*
X3053D02*
G36*
G75*
G02X3101I24J-12D01*
G01*
X4236*
G75*
G02X4304I34J-20*
G01*
X4397*
G75*
G02X4397Y2102I27J4*
G01*
G75*
G02X4450I27*
G01*
G75*
G02X4450Y2098I-27J0*
G01*
X5876*
Y2133*
X5797*
G75*
G02X5743I-27*
G01*
X5513*
G75*
G02X5460I-27*
G01*
X5454*
G75*
G02X5417I-18J20*
G01*
X1924*
G75*
G02X1947Y2098I-16J-35*
G01*
X3053*
G37*
X3101D02*
G36*
G75*
G02X3104Y2086I-24J-12D01*
G01*
G75*
G02X3093Y2065I-27*
G01*
G75*
G02X3098Y2055I-24J-18*
G01*
X4239*
G75*
G02X4231Y2078I31J24*
G01*
G75*
G02X4236Y2098I39*
G01*
X3101*
G37*
X4304D02*
G36*
G75*
G02X4309Y2078I-34J-20D01*
G01*
G75*
G02X4301Y2055I-39*
G01*
X4431*
G75*
G02X4430Y2076I24J12*
G01*
G75*
G02X4397Y2098I-6J26*
G01*
X4304*
G37*
X4450D02*
G36*
G75*
G02X4449Y2093I-27J4D01*
G01*
G75*
G02X4482Y2066I6J-26*
G01*
G75*
G02X4482Y2064I-27J0*
G01*
G75*
G02X4512Y2055I9J-26*
G01*
X5226*
G75*
G02X5251I13J-24*
G01*
X5460*
G75*
G02X5513I27*
G01*
X5743*
G75*
G02X5797I27*
G01*
X5876*
Y2098*
X4450*
G37*
X459Y2019D02*
G36*
Y1980D01*
X1325*
G75*
G02X1403I39*
G01*
X2483*
G75*
G02X2561I39*
G01*
X3035*
G75*
G02X3034Y1984I27J4*
G01*
G75*
G02X3085Y1997I27*
G01*
G75*
G02X3135Y1984I24J-13*
G01*
G75*
G02X3135Y1980I-27J0*
G01*
X3668*
G75*
G02X3668Y1984I39J4*
G01*
G75*
G02X3691Y2019I39*
G01*
X3272*
G75*
G02X3213I-30J4*
G01*
X3081*
G75*
G02X3057I-12J28*
G01*
X1930*
G75*
G02X1885I-23J20*
G01*
X753*
G75*
G02X693I-30*
G01*
X459*
G37*
X693D02*
G36*
G75*
G02X753I30D01*
G01*
X1885*
G75*
G02X1878Y2039I23J20*
G01*
G75*
G02X1882Y2055I30*
G01*
X459*
Y2019*
X693*
G37*
X3057D02*
G36*
G75*
G02X3039Y2047I12J28D01*
G01*
G75*
G02X3040Y2055I30J0*
G01*
X1933*
G75*
G02X1938Y2039I-25J-16*
G01*
G75*
G02X1930Y2019I-30*
G01*
X3057*
G37*
X3213D02*
G36*
G75*
G02X3212Y2023I30J4D01*
G01*
G75*
G02X3272I30*
G01*
G75*
G02X3272Y2019I-30*
G01*
X3691*
G75*
G02X3723I16J-35*
G01*
X4109*
G75*
G02X4160I25J-9*
G01*
X4252*
G75*
G02X4252Y2023I30J4*
G01*
G75*
G02X4258Y2041I30J0*
G01*
G75*
G02X4239Y2055I12J37*
G01*
X3098*
G75*
G02X3099Y2047I-29J-8*
G01*
G75*
G02X3081Y2019I-30*
G01*
X3213*
G37*
X3723D02*
G36*
G75*
G02X3746Y1984I-16J-35D01*
G01*
G75*
G02X3746Y1980I-39J0*
G01*
X4829*
G75*
G02X4826Y1996I36J16*
G01*
G75*
G02X4833Y2019I39*
G01*
X4509*
G75*
G02X4472I-18J20*
G01*
X4311*
G75*
G02X4252I-30J4*
G01*
X4160*
G75*
G02X4161Y2010I-25J-9*
G01*
G75*
G02X4108I-27*
G01*
G75*
G02X4109Y2019I27J0*
G01*
X3723*
G37*
X4472D02*
G36*
G75*
G02X4463Y2039I18J20D01*
G01*
G75*
G02X4464Y2041I27J0*
G01*
G75*
G02X4431Y2055I-9J26*
G01*
X4301*
G75*
G02X4296Y2049I-31J24*
G01*
G75*
G02X4312Y2023I-14J-26*
G01*
G75*
G02X4311Y2019I-30*
G01*
X4472*
G37*
X4833D02*
G36*
G75*
G02X4895I31J-24D01*
G01*
X5214*
G75*
G02X5212Y2031I24J12*
G01*
G75*
G02X5226Y2055I27*
G01*
X4512*
G75*
G02X4517Y2039I-22J-16*
G01*
G75*
G02X4509Y2019I-27*
G01*
X4833*
G37*
X4895D02*
G36*
G75*
G02X4903Y1996I-31J-24D01*
G01*
G75*
G02X4900Y1980I-39*
G01*
X5460*
G75*
G02X5513I27J-4*
G01*
X5743*
G75*
G02X5797I27J-4*
G01*
X5876*
Y2019*
X5263*
G75*
G02X5214I-24J12*
G01*
X4895*
G37*
X5876D02*
G36*
Y2055D01*
X5797*
G75*
G02X5743I-27*
G01*
X5513*
G75*
G02X5460I-27*
G01*
X5251*
G75*
G02X5265Y2031I-13J-24*
G01*
G75*
G02X5263Y2019I-27*
G01*
X5876*
G37*
X459Y2228D02*
G36*
Y2177D01*
X798*
G75*
G02X852I27*
G01*
X869*
G75*
G02X923I27J-4*
G01*
X5422*
G75*
G02X5448I13J-24*
G01*
X5876*
Y2228*
X5792*
G75*
G02X5797Y2212I-22J-16*
G01*
G75*
G02X5743I-27*
G01*
G75*
G02X5748Y2228I27*
G01*
X5508*
G75*
G02X5513Y2212I-22J-16*
G01*
G75*
G02X5460I-27*
G01*
G75*
G02X5465Y2228I27*
G01*
X5148*
G75*
G02X5100I-24J12*
G01*
X4804*
G75*
G02X4744I-30*
G01*
X4725*
G75*
G02X4665I-30*
G01*
X4646*
G75*
G02X4586I-30*
G01*
X4568*
G75*
G02X4508I-30*
G01*
X4225*
G75*
G02X4165I-30*
G01*
X4146*
G75*
G02X4086I-30*
G01*
X4068*
G75*
G02X4008I-30*
G01*
X3989*
G75*
G02X3929I-30*
G01*
X3599*
G75*
G02X3539I-30J4*
G01*
X3520*
G75*
G02X3461I-30J4*
G01*
X3441*
G75*
G02X3382I-30J4*
G01*
X3363*
G75*
G02X3303I-30J4*
G01*
X3001*
G75*
G02X2964I-18J24*
G01*
X2922*
G75*
G02X2885I-18J24*
G01*
X2843*
G75*
G02X2807I-18J24*
G01*
X2765*
G75*
G02X2728I-18J24*
G01*
X2382*
G75*
G02X2323I-30J4*
G01*
X2304*
G75*
G02X2244I-30J4*
G01*
X2225*
G75*
G02X2165I-30J4*
G01*
X2146*
G75*
G02X2087I-30J4*
G01*
X1583*
G75*
G02X1583Y2224I-30J-4*
G01*
G75*
G02X1523I-30*
G01*
G75*
G02X1524Y2228I30*
G01*
X1504*
G75*
G02X1505Y2224I-30J-4*
G01*
G75*
G02X1445I-30*
G01*
G75*
G02X1445Y2228I30*
G01*
X1426*
G75*
G02X1426Y2224I-30J-4*
G01*
G75*
G02X1366I-30*
G01*
G75*
G02X1366Y2228I30*
G01*
X1347*
G75*
G02X1347Y2224I-30J-4*
G01*
G75*
G02X1287I-30*
G01*
G75*
G02X1288Y2228I30*
G01*
X1261*
G75*
G02X1269Y2208I-18J-20*
G01*
G75*
G02X1216Y2206I-27*
G01*
G75*
G02X1172Y2228I-16J21*
G01*
X961*
G75*
G02X901I-30*
G01*
X883*
G75*
G02X823I-30*
G01*
X804*
G75*
G02X744I-30*
G01*
X459*
G37*
X744D02*
G36*
G75*
G02X804I30D01*
G01*
X823*
G75*
G02X883I30*
G01*
X901*
G75*
G02X961I30*
G01*
X1172*
G75*
G02X1226Y2229I27*
G01*
G75*
G02X1261Y2228I16J-21*
G01*
X1288*
G75*
G02X1347I30J-4*
G01*
X1366*
G75*
G02X1426I30J-4*
G01*
X1445*
G75*
G02X1504I30J-4*
G01*
X1524*
G75*
G02X1583I30J-4*
G01*
X2087*
G75*
G02X2086Y2232I30J4*
G01*
G75*
G02X2146I30*
G01*
G75*
G02X2146Y2228I-30*
G01*
X2165*
G75*
G02X2165Y2232I30J4*
G01*
G75*
G02X2225I30*
G01*
G75*
G02X2225Y2228I-30*
G01*
X2244*
G75*
G02X2244Y2232I30J4*
G01*
G75*
G02X2304I30*
G01*
G75*
G02X2304Y2228I-30*
G01*
X2323*
G75*
G02X2323Y2232I30J4*
G01*
G75*
G02X2383I30*
G01*
G75*
G02X2382Y2228I-30*
G01*
X2728*
G75*
G02X2716Y2251I18J24*
G01*
G75*
G02X2776I30*
G01*
G75*
G02X2765Y2228I-30*
G01*
X2807*
G75*
G02X2795Y2251I18J24*
G01*
G75*
G02X2855I30*
G01*
G75*
G02X2843Y2228I-30*
G01*
X2885*
G75*
G02X2874Y2251I18J24*
G01*
G75*
G02X2934I30*
G01*
G75*
G02X2922Y2228I-30*
G01*
X2964*
G75*
G02X2953Y2251I18J24*
G01*
G75*
G02X3012I30*
G01*
G75*
G02X3001Y2228I-30*
G01*
X3303*
G75*
G02X3303Y2232I30J4*
G01*
G75*
G02X3363I30*
G01*
G75*
G02X3363Y2228I-30*
G01*
X3382*
G75*
G02X3382Y2232I30J4*
G01*
G75*
G02X3442I30*
G01*
G75*
G02X3441Y2228I-30*
G01*
X3461*
G75*
G02X3460Y2232I30J4*
G01*
G75*
G02X3520I30*
G01*
G75*
G02X3520Y2228I-30*
G01*
X3539*
G75*
G02X3539Y2232I30J4*
G01*
G75*
G02X3599I30*
G01*
G75*
G02X3599Y2228I-30*
G01*
X3929*
G75*
G02X3989I30*
G01*
X4008*
G75*
G02X4068I30*
G01*
X4086*
G75*
G02X4146I30*
G01*
X4165*
G75*
G02X4225I30*
G01*
X4508*
G75*
G02X4568I30*
G01*
X4586*
G75*
G02X4646I30*
G01*
X4665*
G75*
G02X4725I30*
G01*
X4744*
G75*
G02X4804I30*
G01*
X5100*
G75*
G02X5097Y2240I24J12*
G01*
G75*
G02X5151I27*
G01*
G75*
G02X5148Y2228I-27*
G01*
X5465*
G75*
G02X5508I22J-16*
G01*
X5748*
G75*
G02X5792I22J-16*
G01*
X5876*
Y2307*
X5792*
G75*
G02X5797Y2291I-22J-16*
G01*
G75*
G02X5743I-27*
G01*
G75*
G02X5748Y2307I27*
G01*
X5508*
G75*
G02X5513Y2291I-22J-16*
G01*
G75*
G02X5460I-27*
G01*
G75*
G02X5465Y2307I27*
G01*
X5091*
G75*
G02X5031I-30*
G01*
X1107*
G75*
G02X1047I-30*
G01*
X459*
Y2228*
X744*
G37*
X459Y2177D02*
G36*
Y2133D01*
X714*
G75*
G02X747I16J-35*
G01*
X1892*
G75*
G02X1924I16J-35*
G01*
X5417*
G75*
G02X5408Y2153I18J20*
G01*
G75*
G02X5422Y2177I27*
G01*
X923*
G75*
G02X923Y2173I-27J-4*
G01*
G75*
G02X869I-27*
G01*
G75*
G02X869Y2177I27J0*
G01*
X852*
G75*
G02X798I-27*
G01*
X459*
G37*
X5448D02*
G36*
G75*
G02X5462Y2153I-13J-24D01*
G01*
G75*
G02X5454Y2133I-27*
G01*
X5460*
G75*
G02X5513I27*
G01*
X5743*
G75*
G02X5797I27*
G01*
X5876*
Y2177*
X5448*
G37*
X459Y1762D02*
G36*
Y1729D01*
X1920*
G75*
G02X1902Y1748I7J26*
G01*
G75*
G02X1863Y1762I-14J23*
G01*
X1728*
G75*
G02X1728Y1759I-27J-2*
G01*
G75*
G02X1674I-27*
G01*
G75*
G02X1674Y1762I27J0*
G01*
X1156*
G75*
G02X1135I-10J25*
G01*
X1046*
G75*
G02X992I-27*
G01*
X459*
G37*
X992D02*
G36*
G75*
G02X1046I27D01*
G01*
X1135*
G75*
G02X1118Y1787I10J25*
G01*
G75*
G02X1172I27*
G01*
G75*
G02X1156Y1762I-27*
G01*
X1674*
G75*
G02X1682Y1779I27J-2*
G01*
G75*
G02X1665Y1791I5J27*
G01*
G75*
G02X1616Y1801I-22J15*
G01*
G75*
G02X1583Y1817I-7J26*
G01*
G75*
G02X1547Y1851I-11J25*
G01*
G75*
G02X1527Y1877I7J26*
G01*
G75*
G02X1530Y1889I27J0*
G01*
X1394*
G75*
G02X1335I-30*
G01*
X459*
Y1762*
X992*
G37*
X1863D02*
G36*
G75*
G02X1861Y1771I25J9D01*
G01*
G75*
G02X1861Y1773I27J0*
G01*
G75*
G02X1829Y1812I-9J26*
G01*
G75*
G02X1811Y1847I8J26*
G01*
G75*
G02X1791Y1889I2J27*
G01*
X1577*
G75*
G02X1580Y1877I-24J-13*
G01*
G75*
G02X1579Y1868I-27J0*
G01*
G75*
G02X1597Y1851I-7J-26*
G01*
G75*
G02X1635Y1832I11J-25*
G01*
G75*
G02X1665Y1820I7J-26*
G01*
G75*
G02X1714Y1806I22J-15*
G01*
G75*
G02X1705Y1786I-27*
G01*
G75*
G02X1728Y1762I-5J-27*
G01*
X1863*
G37*
X1954D02*
G36*
G75*
G02X1954Y1755I-26J-6D01*
G01*
G75*
G02X1935Y1729I-27*
G01*
X2554*
G75*
G02X2572Y1742I23J-13*
G01*
G75*
G02X2566Y1762I21J17*
G01*
X1954*
G37*
X2566D02*
G36*
G75*
G02X2597Y1786I27J-3D01*
G01*
G75*
G02X2593Y1799I24J13*
G01*
G75*
G02X2647I27*
G01*
G75*
G02X2617Y1772I-27*
G01*
G75*
G02X2620Y1762I-24J-13*
G01*
X3024*
G75*
G02X3012Y1803I10J25*
G01*
G75*
G02X3015Y1851I14J23*
G01*
G75*
G02X3008Y1889I15J23*
G01*
X2540*
G75*
G02X2528Y1865I-30*
G01*
G75*
G02X2557Y1838I2J-27*
G01*
G75*
G02X2503I-27*
G01*
G75*
G02X2513Y1859I27*
G01*
G75*
G02X2480Y1889I-3J30*
G01*
X1835*
G75*
G02X1839Y1865I-22J-16*
G01*
G75*
G02X1860Y1825I-2J-27*
G01*
G75*
G02X1880Y1799I-8J-26*
G01*
G75*
G02X1879Y1797I-27J0*
G01*
G75*
G02X1914Y1779I9J-26*
G01*
G75*
G02X1954Y1762I14J-23*
G01*
X2566*
G37*
X2620D02*
G36*
G75*
G02X2598Y1733I-27J-3D01*
G01*
G75*
G02X2600Y1729I-21J-17*
G01*
X4636*
G75*
G02X4690I27*
G01*
X5023*
G75*
G02X5004Y1747I7J26*
G01*
G75*
G02X4956Y1762I-22J16*
G01*
X4754*
G75*
G02X4711I-22J16*
G01*
X3096*
G75*
G02X3042Y1761I-27J1*
G01*
G75*
G02X3024Y1762I-9J26*
G01*
X2620*
G37*
X4711D02*
G36*
G75*
G02X4705Y1778I22J16D01*
G01*
G75*
G02X4759I27*
G01*
G75*
G02X4754Y1762I-27*
G01*
X4956*
G75*
G02X4956Y1763I27J1*
G01*
G75*
G02X5008Y1771I27*
G01*
G75*
G02X5054Y1766I22J-16*
G01*
G75*
G02X5089Y1762I15J-23*
G01*
X5192*
G75*
G02X5201Y1771I23J-14*
G01*
G75*
G02X5192Y1791I18J20*
G01*
G75*
G02X5246I27*
G01*
G75*
G02X5233Y1768I-27*
G01*
G75*
G02X5238Y1762I-18J-20*
G01*
X5602*
G75*
G02X5625Y1774I23J-14*
G01*
G75*
G02X5626Y1792I26J6*
G01*
G75*
G02X5594Y1818I-6J26*
G01*
G75*
G02X5648I27*
G01*
G75*
G02X5645Y1807I-27J0*
G01*
G75*
G02X5678Y1781I6J-26*
G01*
G75*
G02X5670Y1762I-27*
G01*
X5876*
Y1889*
X5796*
G75*
G02X5744I-26J8*
G01*
X5512*
G75*
G02X5461I-26J8*
G01*
X5323*
G75*
G02X5324Y1881I-41J-8*
G01*
G75*
G02X5250Y1854I-42*
G01*
G75*
G02X5187I-31J28*
G01*
G75*
G02X5114Y1881I-31J28*
G01*
G75*
G02X5115Y1889I42J0*
G01*
X4952*
G75*
G02X4971Y1864I-8J-26*
G01*
G75*
G02X4917I-27*
G01*
G75*
G02X4935Y1889I27*
G01*
X4887*
G75*
G02X4842I-23J20*
G01*
X4743*
G75*
G02X4743Y1883I-27J-3*
G01*
G75*
G02X4777Y1845I11J-25*
G01*
G75*
G02X4798Y1819I-6J-26*
G01*
G75*
G02X4744I-27*
G01*
G75*
G02X4747Y1832I27*
G01*
G75*
G02X4727Y1862I6J26*
G01*
G75*
G02X4689Y1889I-11J25*
G01*
X4585*
G75*
G02X4542I-22J16*
G01*
X3737*
G75*
G02X3677I-30J4*
G01*
X3055*
G75*
G02X3052Y1888I-13J24*
G01*
G75*
G02X3057Y1874I-23J-15*
G01*
G75*
G02X3096Y1850I12J-24*
G01*
G75*
G02X3053Y1829I-27*
G01*
G75*
G02X3053Y1826I-27J-2*
G01*
G75*
G02X3047Y1810I-27J0*
G01*
G75*
G02X3061Y1789I-14J-23*
G01*
G75*
G02X3096Y1763I9J-26*
G01*
G75*
G02X3096Y1762I-27J0*
G01*
X4711*
G37*
X5089D02*
G36*
G75*
G02X5096Y1744I-20J-18D01*
G01*
G75*
G02X5092Y1729I-27*
G01*
X5190*
G75*
G02X5193Y1731I16J-21*
G01*
G75*
G02X5192Y1762I22J16*
G01*
X5089*
G37*
X5238D02*
G36*
G75*
G02X5235Y1729I-23J-14D01*
G01*
X5604*
G75*
G02X5597Y1747I20J18*
G01*
G75*
G02X5602Y1762I27J0*
G01*
X5238*
G37*
X5670D02*
G36*
G75*
G02X5651Y1754I-19J19D01*
G01*
G75*
G02X5651Y1747I-26J-6*
G01*
G75*
G02X5644Y1729I-27*
G01*
X5876*
Y1762*
X5670*
G37*
X1047Y2307D02*
G36*
G75*
G02X1107I30D01*
G01*
X5031*
G75*
G02X5091I30*
G01*
X5465*
G75*
G02X5508I22J-16*
G01*
X5748*
G75*
G02X5792I22J-16*
G01*
X5876*
Y2381*
X5794*
G75*
G02X5797Y2370I-24J-12*
G01*
G75*
G02X5743I-27*
G01*
G75*
G02X5746Y2381I27*
G01*
X5511*
G75*
G02X5513Y2370I-24J-12*
G01*
G75*
G02X5460I-27*
G01*
G75*
G02X5462Y2381I27*
G01*
X4974*
G75*
G02X4920I-27*
G01*
X4347*
G75*
G02X4295I-26J8*
G01*
X459*
Y2307*
X1047*
G37*
X459Y1980D02*
G36*
Y1889D01*
X1335*
G75*
G02X1394I30*
G01*
X1530*
G75*
G02X1577I24J-13*
G01*
X1791*
G75*
G02X1799Y1897I22J-16*
G01*
G75*
G02X1790Y1917I18J20*
G01*
G75*
G02X1839Y1933I27*
G01*
G75*
G02X1886Y1941I26J-8*
G01*
G75*
G02X1885Y1948I26J7*
G01*
G75*
G02X1939I27*
G01*
G75*
G02X1890Y1932I-27*
G01*
G75*
G02X1843Y1909I-26J-7*
G01*
G75*
G02X1831Y1894I-26J8*
G01*
G75*
G02X1835Y1889I-18J-20*
G01*
X2480*
G75*
G02X2540I30*
G01*
X3008*
G75*
G02X3019Y1898I22J-16*
G01*
G75*
G02X3015Y1913I23J15*
G01*
G75*
G02X3069I27*
G01*
G75*
G02X3055Y1889I-27*
G01*
X3677*
G75*
G02X3677Y1893I30J4*
G01*
G75*
G02X3737I30*
G01*
G75*
G02X3737Y1889I-30*
G01*
X4542*
G75*
G02X4537Y1905I22J16*
G01*
G75*
G02X4547Y1926I27*
G01*
G75*
G02X4516Y1953I-4J27*
G01*
G75*
G02X4570I27*
G01*
G75*
G02X4560Y1932I-27*
G01*
G75*
G02X4591Y1905I4J-27*
G01*
G75*
G02X4585Y1889I-27J0*
G01*
X4689*
G75*
G02X4690Y1892I27J-3*
G01*
G75*
G02X4664Y1919I1J27*
G01*
G75*
G02X4718I27*
G01*
G75*
G02X4717Y1914I-27J0*
G01*
G75*
G02X4743Y1889I-1J-27*
G01*
X4842*
G75*
G02X4835Y1909I23J20*
G01*
G75*
G02X4894I30*
G01*
G75*
G02X4887Y1889I-30*
G01*
X4935*
G75*
G02X4952I8J-26*
G01*
X5115*
G75*
G02X5187Y1909I41J-8*
G01*
G75*
G02X5250I31J-28*
G01*
G75*
G02X5323Y1889I31J-28*
G01*
X5461*
G75*
G02X5460Y1897I26J8*
G01*
G75*
G02X5513I27*
G01*
G75*
G02X5512Y1889I-27J0*
G01*
X5744*
G75*
G02X5743Y1897I26J8*
G01*
G75*
G02X5797I27*
G01*
G75*
G02X5796Y1889I-27J0*
G01*
X5876*
Y1980*
X5797*
G75*
G02X5797Y1976I-27J-4*
G01*
G75*
G02X5743I-27*
G01*
G75*
G02X5743Y1980I27J0*
G01*
X5513*
G75*
G02X5513Y1976I-27J-4*
G01*
G75*
G02X5460I-27*
G01*
G75*
G02X5460Y1980I27J0*
G01*
X4900*
G75*
G02X4829I-36J16*
G01*
X3746*
G75*
G02X3668I-39J4*
G01*
X3135*
G75*
G02X3110Y1957I-27J4*
G01*
G75*
G02X3116Y1940I-21J-16*
G01*
G75*
G02X3062I-27*
G01*
G75*
G02X3068Y1958I27*
G01*
G75*
G02X3035Y1980I-7J26*
G01*
X2561*
G75*
G02X2483I-39*
G01*
X1403*
G75*
G02X1325I-39*
G01*
X459*
G37*
Y2409D02*
G36*
Y2381D01*
X4295*
G75*
G02X4294Y2389I26J8*
G01*
G75*
G02X4303Y2409I27*
G01*
X2701*
G75*
G02X2650I-26J8*
G01*
X2443*
G75*
G02X2389I-27*
G01*
X2076*
G75*
G02X2023I-27*
G01*
X459*
G37*
X2023D02*
G36*
G75*
G02X2076I27D01*
G01*
X2389*
G75*
G02X2443I27*
G01*
X2650*
G75*
G02X2649Y2417I26J8*
G01*
G75*
G02X2702I27*
G01*
G75*
G02X2701Y2409I-27J0*
G01*
X4303*
G75*
G02X4340I18J-20*
G01*
X5876*
Y2448*
X5797*
G75*
G02X5743I-27*
G01*
X5513*
G75*
G02X5460I-27*
G01*
X5454*
G75*
G02X5401I-27J4*
G01*
X5376*
G75*
G02X5322I-27*
G01*
X5273*
G75*
G02X5219I-27*
G01*
X4808*
G75*
G02X4771I-18J20*
G01*
X4733*
G75*
G02X4696I-18J20*
G01*
X4646*
G75*
G02X4595I-26J8*
G01*
X4229*
G75*
G02X4185I-22J16*
G01*
X4117*
G75*
G02X4069I-24J12*
G01*
X4041*
G75*
G02X3987I-27*
G01*
X3981*
G75*
G02X3937I-22J16*
G01*
X3582*
G75*
G02X3556I-13J24*
G01*
X3515*
G75*
G02X3489I-13J24*
G01*
X3446*
G75*
G02X3409I-18J20*
G01*
X2303*
G75*
G02X2277I-13J24*
G01*
X2184*
G75*
G02X2159I-13J24*
G01*
X1489*
G75*
G02X1490Y2440I-26J-8*
G01*
G75*
G02X1436I-27*
G01*
G75*
G02X1437Y2448I27J0*
G01*
X1406*
G75*
G02X1354I-26J8*
G01*
X934*
G75*
G02X890I-22J16*
G01*
X855*
G75*
G02X818I-18J20*
G01*
X459*
Y2409*
X2023*
G37*
X4340D02*
G36*
G75*
G02X4348Y2389I-18J-20D01*
G01*
G75*
G02X4347Y2381I-27J0*
G01*
X4920*
G75*
G02X4974I27*
G01*
X5462*
G75*
G02X5511I24J-12*
G01*
X5746*
G75*
G02X5794I24J-12*
G01*
X5876*
Y2409*
X4340*
G37*
X459Y1606D02*
G36*
Y1578D01*
X2712*
G75*
G02X2765I27*
G01*
X2791*
G75*
G02X2790Y1582I27J4*
G01*
G75*
G02X2804Y1606I27*
G01*
X2611*
G75*
G02X2557I-27*
G01*
X459*
G37*
X2557D02*
G36*
G75*
G02X2611I27D01*
G01*
X2804*
G75*
G02X2830I13J-24*
G01*
X5245*
G75*
G02X5239Y1622I21J16*
G01*
G75*
G02X5278Y1646I27*
G01*
G75*
G02X5287Y1665I27J-1*
G01*
X5196*
G75*
G02X5147I-24J12*
G01*
X2611*
G75*
G02X2559I-26J8*
G01*
X459*
Y1606*
X2557*
G37*
X2830D02*
G36*
G75*
G02X2844Y1582I-13J-24D01*
G01*
G75*
G02X2844Y1578I-27J0*
G01*
X5284*
G75*
G02X5326Y1594I26J-6*
G01*
G75*
G02X5336Y1606I25J-10*
G01*
X5288*
G75*
G02X5245I-21J16*
G01*
X2830*
G37*
X5336D02*
G36*
G75*
G02X5366I15J-22D01*
G01*
X5440*
G75*
G02X5458Y1610I15J-22*
G01*
G75*
G02X5456Y1622I24J11*
G01*
G75*
G02X5509I27*
G01*
G75*
G02X5504Y1606I-27*
G01*
X5876*
Y1665*
X5666*
G75*
G02X5657Y1657I-22J16*
G01*
G75*
G02X5671Y1633I-13J-24*
G01*
G75*
G02X5617I-27*
G01*
G75*
G02X5631Y1657I27*
G01*
G75*
G02X5622Y1665I13J24*
G01*
X5324*
G75*
G02X5332Y1645I-18J-20*
G01*
G75*
G02X5293Y1621I-27*
G01*
G75*
G02X5288Y1606I-27J1*
G01*
X5336*
G37*
X5366D02*
G36*
G75*
G02X5378Y1583I-15J-22D01*
G01*
G75*
G02X5378Y1578I-27*
G01*
X5428*
G75*
G02X5428Y1583I26J5*
G01*
G75*
G02X5440Y1606I27*
G01*
X5366*
G37*
X5504D02*
G36*
G75*
G02X5479Y1595I-22J16D01*
G01*
G75*
G02X5482Y1583I-24J-11*
G01*
G75*
G02X5481Y1578I-27*
G01*
X5626*
G75*
G02X5662I18J-20*
G01*
X5876*
Y1606*
X5504*
G37*
X459Y1578D02*
G36*
Y1530D01*
X4235*
G75*
G02X4289I27*
G01*
X4314*
G75*
G02X4368I27*
G01*
X4553*
G75*
G02X4604I25J-9*
G01*
X4634*
G75*
G02X4685I25J-9*
G01*
X4871*
G75*
G02X4921I25J-10*
G01*
X4951*
G75*
G02X4998I24J-12*
G01*
X5031*
G75*
G02X5076I22J-15*
G01*
X5482*
G75*
G02X5490I4J-27*
G01*
X5766*
G75*
G02X5774I4J-27*
G01*
X5876*
Y1578*
X5662*
G75*
G02X5671Y1559I-18J-20*
G01*
G75*
G02X5617I-27*
G01*
G75*
G02X5626Y1578I27*
G01*
X5481*
G75*
G02X5428I-26J5*
G01*
X5378*
G75*
G02X5335Y1562I-26J5*
G01*
G75*
G02X5283Y1572I-25J10*
G01*
G75*
G02X5284Y1578I27J0*
G01*
X2844*
G75*
G02X2791I-27J4*
G01*
X2765*
G75*
G02X2712I-27*
G01*
X459*
G37*
Y1530D02*
G36*
Y1492D01*
X4968*
G75*
G02X4948Y1518I7J26*
G01*
G75*
G02X4951Y1530I27*
G01*
X4921*
G75*
G02X4923Y1520I-25J-10*
G01*
G75*
G02X4869I-27*
G01*
G75*
G02X4871Y1530I27J0*
G01*
X4685*
G75*
G02X4687Y1521I-25J-9*
G01*
G75*
G02X4633I-27*
G01*
G75*
G02X4634Y1530I27*
G01*
X4604*
G75*
G02X4606Y1521I-25J-9*
G01*
G75*
G02X4552I-27*
G01*
G75*
G02X4553Y1530I27*
G01*
X4368*
G75*
G02X4314I-27*
G01*
X4289*
G75*
G02X4235I-27*
G01*
X459*
G37*
X4998D02*
G36*
G75*
G02X5001Y1518I-24J-12D01*
G01*
G75*
G02X4981Y1492I-27*
G01*
X5040*
G75*
G02X5026Y1515I13J24*
G01*
G75*
G02X5031Y1530I27*
G01*
X4998*
G37*
X5076D02*
G36*
G75*
G02X5080Y1515I-22J-15D01*
G01*
G75*
G02X5066Y1492I-27*
G01*
X5462*
G75*
G02X5460Y1503I24J12*
G01*
G75*
G02X5482Y1530I27*
G01*
X5076*
G37*
X5490D02*
G36*
G75*
G02X5513Y1503I-4J-27D01*
G01*
G75*
G02X5511Y1492I-27*
G01*
X5621*
G75*
G02X5675I27*
G01*
X5746*
G75*
G02X5743Y1503I24J12*
G01*
G75*
G02X5766Y1530I27*
G01*
X5490*
G37*
X5774D02*
G36*
G75*
G02X5797Y1503I-4J-27D01*
G01*
G75*
G02X5794Y1492I-27*
G01*
X5876*
Y1530*
X5774*
G37*
X459Y1729D02*
G36*
Y1665D01*
X2559*
G75*
G02X2558Y1673I26J8*
G01*
G75*
G02X2566Y1692I27J0*
G01*
G75*
G02X2554Y1729I11J24*
G01*
X1935*
G75*
G02X1920I-7J26*
G01*
X459*
G37*
X2600D02*
G36*
G75*
G02X2596Y1697I-23J-13D01*
G01*
G75*
G02X2612Y1673I-11J-24*
G01*
G75*
G02X2611Y1665I-27J0*
G01*
X5147*
G75*
G02X5145Y1677I24J12*
G01*
G75*
G02X5181Y1702I27*
G01*
G75*
G02X5190Y1729I26J6*
G01*
X5092*
G75*
G02X5044Y1733I-23J14*
G01*
G75*
G02X5023Y1729I-15J23*
G01*
X4690*
G75*
G02X4636I-27*
G01*
X2600*
G37*
X5235D02*
G36*
G75*
G02X5229Y1724I-20J18D01*
G01*
G75*
G02X5198Y1683I-22J-16*
G01*
G75*
G02X5198Y1677I-26J-6*
G01*
G75*
G02X5196Y1665I-27*
G01*
X5287*
G75*
G02X5324I18J-20*
G01*
X5622*
G75*
G02X5618Y1675I22J16*
G01*
G75*
G02X5574Y1696I-17J21*
G01*
G75*
G02X5627Y1702I27*
G01*
G75*
G02X5671Y1681I17J-21*
G01*
G75*
G02X5666Y1665I-27*
G01*
X5876*
Y1729*
X5644*
G75*
G02X5604I-20J18*
G01*
X5235*
G37*
X5400Y1031D02*
G36*
Y980D01*
G75*
G02X5466Y952I28J-28*
G01*
X5609*
G75*
G02X5687I39*
G01*
X5876*
Y1031*
X5828*
G75*
G02X5829Y1027I-39J-4*
G01*
G75*
G02X5751I-39*
G01*
G75*
G02X5751Y1031I39J0*
G01*
X5498*
G75*
G02X5420I-39*
G01*
X5400*
G37*
X5420D02*
G36*
G75*
G02X5498I39D01*
G01*
X5751*
G75*
G02X5828I39J-4*
G01*
X5876*
Y1110*
X5797*
G75*
G02X5743I-27*
G01*
X5513*
G75*
G02X5460I-27*
G01*
X5400*
Y1031*
X5420*
G37*
X5171Y1425D02*
G36*
G75*
G02X5157Y1405I-27J4D01*
G01*
X5388*
X5400Y1393*
Y1346*
X5455*
G75*
G02X5509I27*
G01*
X5605*
Y1346*
G75*
G02X5683I39*
G01*
Y1346*
X5876*
Y1425*
X5797*
G75*
G02X5743I-27*
G01*
X5510*
G75*
G02X5432I-39*
G01*
X5171*
G37*
X5432D02*
G36*
G75*
G02X5510I39D01*
G01*
X5743*
G75*
G02X5797I27*
G01*
X5876*
Y1492*
X5794*
G75*
G02X5746I-24J12*
G01*
X5675*
G75*
G02X5621I-27*
G01*
X5511*
G75*
G02X5462I-24J12*
G01*
X5066*
G75*
G02X5040I-13J24*
G01*
X4981*
G75*
G02X4968I-7J26*
G01*
X459*
Y1405*
X5131*
G75*
G02X5117Y1429I13J24*
G01*
G75*
G02X5171I27*
G01*
G75*
G02X5171Y1425I-27J0*
G01*
X5432*
G37*
X5400Y877D02*
G36*
Y761D01*
X5628*
G75*
G02X5609Y795I20J33*
G01*
G75*
G02X5687I39*
G01*
G75*
G02X5675Y767I-39J0*
G01*
G75*
G02X5691Y761I-3J-39*
G01*
X5876*
Y877*
X5824*
G75*
G02X5825Y873I-39J-4*
G01*
G75*
G02X5747I-39*
G01*
G75*
G02X5747Y877I39J0*
G01*
X5679*
G75*
G02X5679Y873I-39J-4*
G01*
G75*
G02X5601I-39*
G01*
G75*
G02X5601Y877I39J0*
G01*
X5514*
G75*
G02X5436I-39*
G01*
X5400*
G37*
X5436D02*
G36*
G75*
G02X5514I39D01*
G01*
X5601*
G75*
G02X5679I39J-4*
G01*
X5747*
G75*
G02X5824I39J-4*
G01*
X5876*
Y952*
X5687*
G75*
G02X5609I-39*
G01*
X5466*
G75*
G02X5400Y925I-39*
G01*
Y877*
X5436*
G37*
X5400Y1267D02*
G36*
Y1188D01*
X5460*
G75*
G02X5513I27*
G01*
X5743*
G75*
G02X5797I27*
G01*
X5876*
Y1267*
X5683*
G75*
G02X5605I-39*
G01*
X5514*
G75*
G02X5436I-39*
G01*
X5400*
G37*
X5436D02*
G36*
G75*
G02X5514I39D01*
G01*
X5605*
G75*
G02X5683I39*
G01*
X5876*
Y1346*
X5683*
G75*
G02X5605I-39J0*
G01*
X5509*
G75*
G02X5455I-27*
G01*
X5400*
Y1267*
X5436*
G37*
X5460Y1110D02*
G36*
G75*
G02X5513I27D01*
G01*
X5743*
G75*
G02X5797I27*
G01*
X5876*
Y1188*
X5797*
G75*
G02X5743I-27*
G01*
X5513*
G75*
G02X5460I-27*
G01*
X5400*
Y1110*
X5460*
G37*
X5400Y761D02*
G36*
Y496D01*
X5876*
Y761*
X5691*
G75*
G02X5710Y728I-20J-33*
G01*
G75*
G02X5633I-39*
G01*
G75*
G02X5645Y756I39J0*
G01*
G75*
G02X5628Y761I3J39*
G01*
X5400*
G37*
D02*
D87*
X311Y586D02*
X281D01*
X311Y1096D02*
X281D01*
X329Y568D02*
Y538D01*
Y604D02*
Y634D01*
Y1077D02*
Y1048D01*
Y1114D02*
Y1143D01*
X347Y586D02*
X377D01*
X347Y1096D02*
X377D01*
X378Y2708D02*
X348D01*
X378Y2905D02*
X348D01*
X391Y3061D02*
X370Y3040D01*
X396Y2690D02*
Y2660D01*
Y2726D02*
Y2756D01*
Y2887D02*
Y2857D01*
Y2923D02*
Y2953D01*
X414Y2708D02*
X444D01*
X414Y2905D02*
X444D01*
X417Y3061D02*
X438Y3040D01*
X417Y3087D02*
X438Y3108D01*
X468Y3378D02*
X439D01*
X486Y3360D02*
Y3330D01*
Y3396D02*
Y3426D01*
X505Y3378D02*
X534D01*
X516Y523D02*
X486D01*
X534Y505D02*
Y475D01*
Y541D02*
Y571D01*
X552Y523D02*
X582D01*
X586Y905D02*
X557D01*
X605Y887D02*
Y857D01*
Y923D02*
Y953D01*
X623Y905D02*
X652D01*
X626Y582D02*
X596D01*
X644Y564D02*
Y534D01*
Y600D02*
Y630D01*
X718Y2015D02*
X697Y1994D01*
X718Y2023D02*
X697Y2044D01*
X727Y1040D02*
Y1011D01*
Y1077D02*
Y1106D01*
X727Y2015D02*
X748Y1994D01*
X727Y2023D02*
X748Y2044D01*
X768Y2228D02*
X738D01*
X774Y2222D02*
Y2192D01*
Y2234D02*
Y2264D01*
X780Y2228D02*
X810D01*
X827Y523D02*
X797D01*
X845Y505D02*
Y475D01*
Y541D02*
Y571D01*
X846Y2228D02*
X817D01*
X853Y2234D02*
Y2264D01*
X859Y2228D02*
X888D01*
X863Y523D02*
X893D01*
X907Y900D02*
X886Y879D01*
X907Y926D02*
X886Y947D01*
X925Y2228D02*
X896D01*
X931Y2222D02*
Y2192D01*
Y2234D02*
Y2264D01*
X932Y900D02*
X953Y879D01*
X932Y926D02*
X953Y947D01*
X938Y2228D02*
X967D01*
X953Y562D02*
X923D01*
X971Y544D02*
Y515D01*
Y581D02*
Y610D01*
X989Y562D02*
X1019D01*
X1025Y1043D02*
X1004Y1022D01*
X1025Y1069D02*
X1004Y1090D01*
X1071Y2307D02*
X1041D01*
X1077Y2300D02*
Y2271D01*
Y2313D02*
Y2342D01*
X1083Y2307D02*
X1113D01*
X1098Y3385D02*
X1069D01*
X1116Y3367D02*
Y3337D01*
Y3403D02*
Y3433D01*
X1135Y3385D02*
X1164D01*
X1142Y519D02*
X1112D01*
X1160Y501D02*
Y471D01*
Y537D02*
Y567D01*
X1178Y519D02*
X1208D01*
X1222Y904D02*
X1201Y883D01*
X1222Y930D02*
X1201Y951D01*
X1247Y904D02*
X1268Y883D01*
X1247Y930D02*
X1268Y951D01*
X1269Y573D02*
X1248Y552D01*
X1269Y599D02*
X1248Y620D01*
X1295Y573D02*
X1316Y552D01*
X1311Y2224D02*
X1281D01*
X1317Y2218D02*
Y2188D01*
Y2230D02*
Y2260D01*
X1323Y2224D02*
X1353D01*
X1357Y1048D02*
Y1019D01*
Y1085D02*
Y1114D01*
X1358Y1889D02*
X1329D01*
X1364Y1883D02*
Y1853D01*
Y1895D02*
Y1925D01*
X1371Y1889D02*
X1400D01*
X1390Y2224D02*
X1360D01*
X1396Y2218D02*
Y2188D01*
Y2230D02*
Y2260D01*
X1402Y2224D02*
X1432D01*
X1457Y523D02*
X1427D01*
X1469Y2224D02*
X1439D01*
X1475Y505D02*
Y475D01*
Y541D02*
Y571D01*
Y2218D02*
Y2188D01*
Y2230D02*
Y2260D01*
X1481Y2224D02*
X1511D01*
X1493Y523D02*
X1523D01*
X1535Y913D02*
X1506D01*
X1547Y2224D02*
X1518D01*
X1553Y895D02*
Y865D01*
Y931D02*
Y961D01*
Y2218D02*
Y2188D01*
Y2230D02*
Y2260D01*
X1560Y2224D02*
X1589D01*
X1579Y566D02*
X1549D01*
X1597Y548D02*
Y519D01*
Y585D02*
Y614D01*
X1615Y566D02*
X1645D01*
X1663Y1032D02*
X1642Y1011D01*
X1663Y1057D02*
X1642Y1078D01*
X1728Y3381D02*
X1698D01*
X1746Y3363D02*
Y3334D01*
Y3400D02*
Y3429D01*
X1764Y3381D02*
X1794D01*
X1768Y515D02*
X1738D01*
X1786Y497D02*
Y467D01*
Y533D02*
Y563D01*
X1804Y515D02*
X1834D01*
X1856Y908D02*
X1835Y887D01*
X1856Y934D02*
X1835Y955D01*
X1881Y908D02*
X1902Y887D01*
X1881Y934D02*
X1902Y955D01*
X1890Y566D02*
X1860D01*
X1902Y2039D02*
X1872D01*
X1908Y548D02*
Y519D01*
Y585D02*
Y614D01*
Y2033D02*
Y2003D01*
X1914Y2039D02*
X1944D01*
X1926Y566D02*
X1956D01*
X1986Y1025D02*
Y995D01*
Y1061D02*
Y1091D01*
X2083Y515D02*
X2053D01*
X2101Y497D02*
Y467D01*
Y533D02*
Y563D01*
X2110Y2232D02*
X2081D01*
X2116Y2226D02*
Y2196D01*
Y2238D02*
Y2268D01*
X2119Y515D02*
X2149D01*
X2123Y2232D02*
X2152D01*
X2161Y913D02*
X2132D01*
X2179Y895D02*
Y865D01*
Y931D02*
Y961D01*
X2189Y2232D02*
X2159D01*
X2195Y2226D02*
Y2196D01*
Y2238D02*
Y2268D01*
X2201Y2232D02*
X2231D01*
X2208Y570D02*
X2179D01*
X2227Y552D02*
Y522D01*
Y588D02*
Y618D01*
X2245Y570D02*
X2274D01*
X2268Y2232D02*
X2238D01*
X2274Y2226D02*
Y2196D01*
Y2238D02*
Y2268D01*
X2280Y2232D02*
X2310D01*
X2301Y1036D02*
Y1007D01*
Y1073D02*
Y1102D01*
X2346Y2232D02*
X2317D01*
X2353Y2226D02*
Y2196D01*
Y2238D02*
Y2268D01*
X2358Y3389D02*
X2328D01*
X2359Y2232D02*
X2388D01*
X2376Y3371D02*
Y3341D01*
Y3407D02*
Y3437D01*
X2394Y3389D02*
X2424D01*
X2397Y515D02*
X2368D01*
X2416Y497D02*
Y467D01*
Y533D02*
Y563D01*
X2434Y515D02*
X2463D01*
X2476Y917D02*
X2447D01*
X2494Y899D02*
Y869D01*
Y935D02*
Y965D01*
X2504Y1889D02*
X2474D01*
X2510Y1895D02*
Y1925D01*
X2516Y1889D02*
X2546D01*
X2523Y562D02*
X2494D01*
X2542Y544D02*
Y515D01*
Y581D02*
Y610D01*
X2560Y562D02*
X2589D01*
X2616Y1032D02*
Y1003D01*
Y1069D02*
Y1098D01*
X2712Y519D02*
X2683D01*
X2731Y501D02*
Y471D01*
Y537D02*
Y567D01*
X2740Y2251D02*
X2710D01*
X2746Y2245D02*
Y2216D01*
Y2258D02*
Y2287D01*
X2749Y519D02*
X2778D01*
X2752Y2251D02*
X2782D01*
X2796Y904D02*
X2775Y883D01*
X2796Y930D02*
X2775Y951D01*
X2819Y2251D02*
X2789D01*
X2822Y930D02*
X2843Y951D01*
X2823Y582D02*
X2793D01*
X2825Y2245D02*
Y2216D01*
Y2258D02*
Y2287D01*
X2831Y2251D02*
X2861D01*
X2841Y564D02*
Y534D01*
X2859Y582D02*
X2889D01*
X2898Y2251D02*
X2868D01*
X2900Y1045D02*
Y1075D01*
X2904Y2245D02*
Y2216D01*
Y2258D02*
Y2287D01*
X2910Y2251D02*
X2940D01*
X2976D02*
X2947D01*
X2983Y2245D02*
Y2216D01*
Y2258D02*
Y2287D01*
X2988Y3373D02*
X2958D01*
X2989Y2251D02*
X3018D01*
X2992Y515D02*
X2962D01*
X3006Y3355D02*
Y3326D01*
Y3392D02*
Y3421D01*
X3010Y497D02*
Y467D01*
Y533D02*
Y563D01*
X3024Y3373D02*
X3054D01*
X3028Y515D02*
X3058D01*
X3065Y2042D02*
X3044Y2021D01*
X3065Y2051D02*
X3044Y2072D01*
X3074Y2042D02*
X3095Y2021D01*
X3075Y913D02*
X3045D01*
X3093Y895D02*
Y865D01*
Y931D02*
Y961D01*
X3102Y574D02*
X3073D01*
X3120Y556D02*
Y526D01*
Y592D02*
Y622D01*
X3139Y574D02*
X3168D01*
X3198Y1032D02*
X3177Y1011D01*
X3198Y1057D02*
X3177Y1078D01*
X3236Y2023D02*
X3207D01*
X3242Y2017D02*
Y1987D01*
Y2029D02*
Y2059D01*
X3249Y2023D02*
X3278D01*
X3303Y515D02*
X3273D01*
X3321Y497D02*
Y467D01*
Y533D02*
Y563D01*
X3327Y2232D02*
X3297D01*
X3333Y2226D02*
Y2196D01*
Y2238D02*
Y2268D01*
X3339Y2232D02*
X3369D01*
X3339Y515D02*
X3369D01*
X3387Y908D02*
X3366Y887D01*
X3387Y934D02*
X3366Y955D01*
X3406Y2232D02*
X3376D01*
X3412Y2226D02*
Y2196D01*
Y2238D02*
Y2268D01*
X3413Y908D02*
X3434Y887D01*
X3413Y934D02*
X3434Y955D01*
X3418Y2232D02*
X3448D01*
X3430Y565D02*
X3409Y544D01*
X3430Y591D02*
X3409Y612D01*
X3456Y565D02*
X3477Y544D01*
X3484Y2232D02*
X3455D01*
X3490Y2226D02*
Y2196D01*
Y2238D02*
Y2268D01*
X3497Y2232D02*
X3526D01*
X3522Y1032D02*
Y1003D01*
Y1069D02*
Y1098D01*
X3563Y2232D02*
X3533D01*
X3569Y2226D02*
Y2196D01*
Y2238D02*
Y2268D01*
X3575Y2232D02*
X3605D01*
X3618Y511D02*
X3588D01*
X3618Y3389D02*
X3588D01*
X3636Y493D02*
Y463D01*
Y529D02*
Y559D01*
Y3371D02*
Y3341D01*
Y3407D02*
Y3437D01*
X3654Y511D02*
X3684D01*
X3654Y3389D02*
X3684D01*
X3701Y1893D02*
X3671D01*
X3707Y1887D02*
Y1857D01*
Y1899D02*
Y1929D01*
X3710Y900D02*
X3689Y879D01*
X3710Y926D02*
X3689Y947D01*
X3713Y1893D02*
X3743D01*
X3736Y926D02*
X3757Y947D01*
X3754Y560D02*
Y530D01*
Y596D02*
Y626D01*
X3772Y578D02*
X3802D01*
X3833Y1034D02*
Y1004D01*
Y1070D02*
Y1100D01*
X3929Y511D02*
X3899D01*
X3947Y493D02*
Y463D01*
Y529D02*
Y559D01*
X3953Y2228D02*
X3923D01*
X3959Y2222D02*
Y2192D01*
Y2234D02*
Y2264D01*
X3965Y2228D02*
X3995D01*
X3965Y511D02*
X3995D01*
X4016Y913D02*
X3986D01*
X4032Y2228D02*
X4002D01*
X4034Y895D02*
Y865D01*
Y931D02*
Y961D01*
X4038Y2222D02*
Y2192D01*
Y2234D02*
Y2264D01*
X4044Y2228D02*
X4074D01*
X4051Y582D02*
X4021D01*
X4069Y564D02*
Y534D01*
Y600D02*
Y630D01*
X4087Y582D02*
X4117D01*
X4110Y2228D02*
X4081D01*
X4116Y2222D02*
Y2192D01*
Y2234D02*
Y2264D01*
X4123Y2228D02*
X4152D01*
X4144Y1038D02*
Y1008D01*
Y1074D02*
Y1104D01*
X4189Y2228D02*
X4159D01*
X4195Y2222D02*
Y2192D01*
Y2234D02*
Y2264D01*
X4201Y2228D02*
X4231D01*
X4248Y503D02*
X4218D01*
X4248Y3370D02*
X4218D01*
X4266Y485D02*
Y456D01*
Y522D02*
Y551D01*
Y3351D02*
Y3322D01*
Y3388D02*
Y3417D01*
X4276Y2023D02*
X4246D01*
X4282Y2017D02*
Y1987D01*
X4284Y503D02*
X4314D01*
X4284Y3370D02*
X4314D01*
X4288Y2023D02*
X4318D01*
X4332Y900D02*
X4311Y879D01*
X4332Y926D02*
X4311Y947D01*
X4358Y900D02*
X4379Y879D01*
X4358Y926D02*
X4379Y947D01*
X4366Y578D02*
X4336D01*
X4384Y560D02*
Y530D01*
Y596D02*
Y626D01*
X4402Y578D02*
X4432D01*
X4467Y1036D02*
Y1007D01*
Y1073D02*
Y1102D01*
X4532Y2228D02*
X4502D01*
X4538Y2222D02*
Y2192D01*
Y2234D02*
Y2264D01*
X4544Y2228D02*
X4574D01*
X4563Y515D02*
X4533D01*
X4581Y497D02*
Y467D01*
Y533D02*
Y563D01*
X4599Y515D02*
X4629D01*
X4610Y2228D02*
X4581D01*
X4616Y2222D02*
Y2192D01*
Y2234D02*
Y2264D01*
X4623Y2228D02*
X4652D01*
X4638Y913D02*
X4608D01*
X4656Y895D02*
Y865D01*
Y931D02*
Y961D01*
X4685Y566D02*
X4655D01*
X4689Y2228D02*
X4659D01*
X4695Y2222D02*
Y2192D01*
Y2234D02*
Y2264D01*
X4701Y2228D02*
X4731D01*
X4703Y548D02*
Y519D01*
Y585D02*
Y614D01*
X4721Y566D02*
X4751D01*
X4764Y1047D02*
X4734D01*
X4768Y2228D02*
X4738D01*
X4774Y2222D02*
Y2192D01*
Y2234D02*
Y2264D01*
X4780Y2228D02*
X4810D01*
X4782Y1029D02*
Y999D01*
Y1065D02*
Y1095D01*
X4858Y1909D02*
X4829D01*
X4864Y1903D02*
Y1873D01*
Y1915D02*
Y1945D01*
X4871Y1909D02*
X4900D01*
X4874Y511D02*
X4844D01*
X4878Y3393D02*
X4848D01*
X4892Y493D02*
Y463D01*
Y529D02*
Y559D01*
X4896Y3375D02*
Y3345D01*
Y3411D02*
Y3441D01*
X4910Y511D02*
X4940D01*
X4914Y3393D02*
X4944D01*
X4960Y921D02*
X4931D01*
X4979Y903D02*
Y873D01*
Y939D02*
Y969D01*
X5001Y573D02*
X4980Y552D01*
X5001Y599D02*
X4980Y620D01*
X5027Y573D02*
X5048Y552D01*
X5055Y2307D02*
X5025D01*
X5061Y2300D02*
Y2271D01*
Y2313D02*
Y2342D01*
X5067Y2307D02*
X5097D01*
X5084Y1018D02*
X5063Y997D01*
X5084Y1044D02*
X5063Y1065D01*
X5138Y1881D02*
X5108D01*
X5156Y1863D02*
Y1834D01*
Y1900D02*
Y1929D01*
X5197Y511D02*
X5167D01*
X5215Y493D02*
Y463D01*
Y529D02*
Y559D01*
X5219Y1863D02*
Y1834D01*
Y1900D02*
Y1929D01*
X5233Y511D02*
X5263D01*
X5279Y909D02*
X5250D01*
X5282Y1863D02*
Y1834D01*
Y1900D02*
Y1929D01*
X5298Y891D02*
Y861D01*
Y927D02*
Y957D01*
X5300Y1881D02*
X5330D01*
X5316Y909D02*
X5345D01*
X5435Y3744D02*
X5405D01*
X5475Y3704D02*
Y3674D01*
Y3784D02*
Y3814D01*
X5515Y3744D02*
X5545D01*
X0Y0D02*
M02*
