  0
SECTION
  2
HEADER
  9
$ACADVER
  1
AC1009
  9
$EXTMIN
 10
0.0
 20
0.0
 30
0.0
  9
$EXTMAX
 10
1000.0
 20
1000.0
 30
0.0
  9
$FILLMODE
 70
 0
  9
$SPLFRAME
 70
 1
  0
ENDSEC
  0
SECTION
  2
TABLES
  0
TABLE
  2
LAYER
 70
1
  0
LAYER
  2
0
 70
     0
 62
     7
  6
CONTINUOUS
  0
ENDTAB
  0
ENDSEC
  0
SECTION
  2
ENTITIES
  0
POLYLINE
  8
0
 62
     0
 66
     1
 10
0
 20
0
 30
0.0
 70
     1
 40
0
 41
0
  0
VERTEX
  8
0
 10
0
 20
5.25553
 30
0.0
 40
0
 41
0
  0
VERTEX
  8
0
 10
0
 20
4.75553
 30
0.0
 40
0
 41
0
  0
VERTEX
  8
0
 10
4.47775
 20
4.75553
 30
0.0
 40
0
 41
0
  0
VERTEX
  8
0
 10
4.47775
 20
5.25553
 30
0.0
 40
0
 41
0
  0
VERTEX
  8
0
 10
0
 20
5.25553
 30
0.0
 40
0
 41
0
  0
SEQEND
 8
0
  0
POLYLINE
  8
0
 62
     0
 66
     1
 10
0
 20
0
 30
0.0
 70
     1
 40
0
 41
0
  0
VERTEX
  8
0
 10
0.0333117
 20
5.22228
 30
0.0
 40
0
 41
0
  0
VERTEX
  8
0
 10
4.44444
 20
5.22228
 30
0.0
 40
0
 41
0
  0
VERTEX
  8
0
 10
4.44444
 20
4.78885
 30
0.0
 40
0
 41
0
  0
VERTEX
  8
0
 10
0.0333117
 20
4.78885
 30
0.0
 40
0
 41
0
  0
VERTEX
  8
0
 10
0.0333117
 20
5.22228
 30
0.0
 40
0
 41
0
  0
SEQEND
 8
0
  0
POLYLINE
  8
0
 62
     0
 66
     1
 10
0
 20
0
 30
0.0
 70
     1
 40
0
 41
0
  0
VERTEX
  8
0
 10
1.97775
 20
5.42535e-05
 30
0.0
 40
0
 41
0
  0
VERTEX
  8
0
 10
2.47775
 20
5.42535e-05
 30
0.0
 40
0
 41
0
  0
VERTEX
  8
0
 10
2.47775
 20
4.47775
 30
0.0
 40
0
 41
0
  0
VERTEX
  8
0
 10
1.97775
 20
4.47775
 30
0.0
 40
0
 41
0
  0
VERTEX
  8
0
 10
1.97775
 20
5.42535e-05
 30
0.0
 40
0
 41
0
  0
SEQEND
 8
0
  0
POLYLINE
  8
0
 62
     0
 66
     1
 10
0
 20
0
 30
0.0
 70
     1
 40
0
 41
0
  0
VERTEX
  8
0
 10
2.01112
 20
0.0333117
 30
0.0
 40
0
 41
0
  0
VERTEX
  8
0
 10
2.01112
 20
4.4445
 30
0.0
 40
0
 41
0
  0
VERTEX
  8
0
 10
2.44444
 20
4.4445
 30
0.0
 40
0
 41
0
  0
VERTEX
  8
0
 10
2.44444
 20
0.0333117
 30
0.0
 40
0
 41
0
  0
VERTEX
  8
0
 10
2.01112
 20
0.0333117
 30
0.0
 40
0
 41
0
  0
SEQEND
 8
0
  0
POLYLINE
  8
0
 62
     0
 66
     1
 10
0
 20
0
 30
0.0
 70
     1
 40
0
 41
0
  0
VERTEX
  8
0
 10
2.97775
 20
5.42535e-05
 30
0.0
 40
0
 41
0
  0
VERTEX
  8
0
 10
3.47775
 20
5.42535e-05
 30
0.0
 40
0
 41
0
  0
VERTEX
  8
0
 10
3.47775
 20
4.47775
 30
0.0
 40
0
 41
0
  0
VERTEX
  8
0
 10
2.97775
 20
4.47775
 30
0.0
 40
0
 41
0
  0
VERTEX
  8
0
 10
2.97775
 20
5.42535e-05
 30
0.0
 40
0
 41
0
  0
SEQEND
 8
0
  0
POLYLINE
  8
0
 62
     0
 66
     1
 10
0
 20
0
 30
0.0
 70
     1
 40
0
 41
0
  0
VERTEX
  8
0
 10
3.01112
 20
0.0333117
 30
0.0
 40
0
 41
0
  0
VERTEX
  8
0
 10
3.01112
 20
4.4445
 30
0.0
 40
0
 41
0
  0
VERTEX
  8
0
 10
3.44444
 20
4.4445
 30
0.0
 40
0
 41
0
  0
VERTEX
  8
0
 10
3.44444
 20
0.0333117
 30
0.0
 40
0
 41
0
  0
VERTEX
  8
0
 10
3.01112
 20
0.0333117
 30
0.0
 40
0
 41
0
  0
SEQEND
 8
0
  0
POLYLINE
  8
0
 62
     0
 66
     1
 10
0
 20
0
 30
0.0
 70
     1
 40
0
 41
0
  0
VERTEX
  8
0
 10
4
 20
4.47775
 30
0.0
 40
0
 41
0
  0
VERTEX
  8
0
 10
4
 20
5.42535e-05
 30
0.0
 40
0
 41
0
  0
VERTEX
  8
0
 10
8.47775
 20
5.42535e-05
 30
0.0
 40
0
 41
0
  0
VERTEX
  8
0
 10
8.47775
 20
4.47775
 30
0.0
 40
0
 41
0
  0
VERTEX
  8
0
 10
4
 20
4.47775
 30
0.0
 40
0
 41
0
  0
SEQEND
 8
0
  0
POLYLINE
  8
0
 62
     0
 66
     1
 10
0
 20
0
 30
0.0
 70
     1
 40
0
 41
0
  0
VERTEX
  8
0
 10
4.03331
 20
4.4445
 30
0.0
 40
0
 41
0
  0
VERTEX
  8
0
 10
8.44444
 20
4.4445
 30
0.0
 40
0
 41
0
  0
VERTEX
  8
0
 10
8.44444
 20
0.0333117
 30
0.0
 40
0
 41
0
  0
VERTEX
  8
0
 10
4.03331
 20
0.0333117
 30
0.0
 40
0
 41
0
  0
VERTEX
  8
0
 10
4.03331
 20
4.4445
 30
0.0
 40
0
 41
0
  0
SEQEND
 8
0
  0
POLYLINE
  8
0
 62
     0
 66
     1
 10
0
 20
0
 30
0.0
 70
     1
 40
0
 41
0
  0
VERTEX
  8
0
 10
4.46669
 20
4.01107
 30
0.0
 40
0
 41
0
  0
VERTEX
  8
0
 10
4.46669
 20
0.466635
 30
0.0
 40
0
 41
0
  0
VERTEX
  8
0
 10
8.01113
 20
0.466635
 30
0.0
 40
0
 41
0
  0
VERTEX
  8
0
 10
8.01113
 20
4.01107
 30
0.0
 40
0
 41
0
  0
VERTEX
  8
0
 10
4.46669
 20
4.01107
 30
0.0
 40
0
 41
0
  0
SEQEND
 8
0
  0
POLYLINE
  8
0
 62
     0
 66
     1
 10
0
 20
0
 30
0.0
 70
     1
 40
0
 41
0
  0
VERTEX
  8
0
 10
4.5
 20
3.97775
 30
0.0
 40
0
 41
0
  0
VERTEX
  8
0
 10
7.97775
 20
3.97775
 30
0.0
 40
0
 41
0
  0
VERTEX
  8
0
 10
7.97775
 20
0.500054
 30
0.0
 40
0
 41
0
  0
VERTEX
  8
0
 10
4.5
 20
0.500054
 30
0.0
 40
0
 41
0
  0
VERTEX
  8
0
 10
4.5
 20
3.97775
 30
0.0
 40
0
 41
0
  0
SEQEND
 8
0
  0
ENDSEC
  0
EOF
