%FSLAX23Y23*%
%MOIN*%
G04 EasyPC Gerber Version 17.0 Build 3379 *
%ADD18C,0.00500*%
%ADD71C,0.10000*%
X0Y0D02*
D02*
D18*
X251Y3805D02*
Y3842D01*
X282*
X276Y3823D02*
X251D01*
X378Y343D02*
X381Y340D01*
X387Y337*
X393Y340*
X396Y343*
Y374*
X403*
X396D02*
X384D01*
X378Y3268D02*
X381Y3265D01*
X387Y3262*
X393Y3265*
X396Y3268*
Y3299*
X403*
X396D02*
X384D01*
X401Y3805D02*
Y3842D01*
X432*
X426Y3823D02*
X401D01*
X551Y3805D02*
Y3842D01*
X582*
X576Y3823D02*
X551D01*
X617Y1357D02*
X629D01*
X623D02*
Y1394D01*
X617D02*
X629D01*
X617Y1477D02*
X629D01*
X623D02*
Y1514D01*
X617D02*
X629D01*
X617Y1612D02*
X629D01*
X623D02*
Y1649D01*
X617D02*
X629D01*
X617Y1727D02*
X629D01*
X623D02*
Y1764D01*
X617D02*
X629D01*
X617Y1862D02*
X629D01*
X623D02*
Y1899D01*
X617D02*
X629D01*
X617Y1977D02*
X629D01*
X623D02*
Y2014D01*
X617D02*
X629D01*
X617Y2112D02*
X629D01*
X623D02*
Y2149D01*
X617D02*
X629D01*
X617Y2227D02*
X629D01*
X623D02*
Y2264D01*
X617D02*
X629D01*
X617Y2357D02*
X629D01*
X623D02*
Y2394D01*
X617D02*
X629D01*
X617Y2477D02*
X629D01*
X623D02*
Y2514D01*
X617D02*
X629D01*
X617Y2612D02*
X629D01*
X623D02*
Y2649D01*
X617D02*
X629D01*
X617Y2727D02*
X629D01*
X623D02*
Y2764D01*
X617D02*
X629D01*
X617Y2862D02*
X629D01*
X623D02*
Y2899D01*
X617D02*
X629D01*
X617Y2977D02*
X629D01*
X623D02*
Y3014D01*
X617D02*
X629D01*
X617Y3107D02*
X629D01*
X623D02*
Y3144D01*
X617D02*
X629D01*
X617Y3227D02*
X629D01*
X623D02*
Y3264D01*
X617D02*
X629D01*
X701Y3805D02*
Y3842D01*
X732*
X726Y3823D02*
X701D01*
X787Y1537D02*
X799D01*
X793D02*
Y1574D01*
X787D02*
X799D01*
X787Y1787D02*
X799D01*
X793D02*
Y1824D01*
X787D02*
X799D01*
X787Y2037D02*
X799D01*
X793D02*
Y2074D01*
X787D02*
X799D01*
X787Y2287D02*
X799D01*
X793D02*
Y2324D01*
X787D02*
X799D01*
X787Y2537D02*
X799D01*
X793D02*
Y2574D01*
X787D02*
X799D01*
X787Y2787D02*
X799D01*
X793D02*
Y2824D01*
X787D02*
X799D01*
X787Y3037D02*
X799D01*
X793D02*
Y3074D01*
X787D02*
X799D01*
X787Y3287D02*
X799D01*
X793D02*
Y3324D01*
X787D02*
X799D01*
X812Y1302D02*
X824D01*
X818D02*
Y1339D01*
X812D02*
X824D01*
X851Y3805D02*
Y3842D01*
X882*
X876Y3823D02*
X851D01*
X1001Y3805D02*
Y3842D01*
X1032*
X1026Y3823D02*
X1001D01*
X1052Y2542D02*
X1064D01*
X1058D02*
Y2579D01*
X1052D02*
X1064D01*
X1057Y1542D02*
X1069D01*
X1063D02*
Y1579D01*
X1057D02*
X1069D01*
X1057Y1792D02*
X1069D01*
X1063D02*
Y1829D01*
X1057D02*
X1069D01*
X1057Y2042D02*
X1069D01*
X1063D02*
Y2079D01*
X1057D02*
X1069D01*
X1057Y2292D02*
X1069D01*
X1063D02*
Y2329D01*
X1057D02*
X1069D01*
X1057Y2792D02*
X1069D01*
X1063D02*
Y2829D01*
X1057D02*
X1069D01*
X1057Y3042D02*
X1069D01*
X1063D02*
Y3079D01*
X1057D02*
X1069D01*
X1057Y3292D02*
X1069D01*
X1063D02*
Y3329D01*
X1057D02*
X1069D01*
X1151Y3805D02*
Y3842D01*
X1182*
X1176Y3823D02*
X1151D01*
X1227Y1492D02*
X1239D01*
X1233D02*
Y1529D01*
X1227D02*
X1239D01*
X1227Y1742D02*
X1239D01*
X1233D02*
Y1779D01*
X1227D02*
X1239D01*
X1227Y1992D02*
X1239D01*
X1233D02*
Y2029D01*
X1227D02*
X1239D01*
X1227Y2242D02*
X1239D01*
X1233D02*
Y2279D01*
X1227D02*
X1239D01*
X1227Y2492D02*
X1239D01*
X1233D02*
Y2529D01*
X1227D02*
X1239D01*
X1227Y2742D02*
X1239D01*
X1233D02*
Y2779D01*
X1227D02*
X1239D01*
X1227Y2992D02*
X1239D01*
X1233D02*
Y3029D01*
X1227D02*
X1239D01*
X1227Y3227D02*
X1239D01*
X1233D02*
Y3264D01*
X1227D02*
X1239D01*
X1301Y3805D02*
Y3842D01*
X1332*
X1326Y3823D02*
X1301D01*
X1550Y3806D02*
Y3843D01*
X1581*
X1575Y3825D02*
X1550D01*
X1627Y1367D02*
X1639D01*
X1633D02*
Y1404D01*
X1627D02*
X1639D01*
X1627Y1614D02*
X1639D01*
X1633D02*
Y1652D01*
X1627D02*
X1639D01*
X1627Y1864D02*
X1639D01*
X1633D02*
Y1902D01*
X1627D02*
X1639D01*
X1627Y2114D02*
X1639D01*
X1633D02*
Y2152D01*
X1627D02*
X1639D01*
X1627Y2364D02*
X1639D01*
X1633D02*
Y2402D01*
X1627D02*
X1639D01*
X1627Y2614D02*
X1639D01*
X1633D02*
Y2652D01*
X1627D02*
X1639D01*
Y2864D02*
X1652D01*
X1646D02*
Y2902D01*
X1639D02*
X1652D01*
X1639Y3114D02*
X1652D01*
X1646D02*
Y3152D01*
X1639D02*
X1652D01*
X1700Y3806D02*
Y3843D01*
X1731*
X1725Y3825D02*
X1700D01*
X1797Y1317D02*
X1809D01*
X1803D02*
Y1354D01*
X1797D02*
X1809D01*
X1797Y1564D02*
X1809D01*
X1803D02*
Y1602D01*
X1797D02*
X1809D01*
X1797Y1814D02*
X1809D01*
X1803D02*
Y1852D01*
X1797D02*
X1809D01*
X1797Y2064D02*
X1809D01*
X1803D02*
Y2102D01*
X1797D02*
X1809D01*
X1797Y2314D02*
X1809D01*
X1803D02*
Y2352D01*
X1797D02*
X1809D01*
X1797Y2564D02*
X1809D01*
X1803D02*
Y2602D01*
X1797D02*
X1809D01*
Y2814D02*
X1822D01*
X1816D02*
Y2852D01*
X1809D02*
X1822D01*
X1809Y3064D02*
X1822D01*
X1816D02*
Y3102D01*
X1809D02*
X1822D01*
X1850Y3806D02*
Y3843D01*
X1881*
X1875Y3825D02*
X1850D01*
X2000Y3806D02*
Y3843D01*
X2031*
X2025Y3825D02*
X2000D01*
X2037Y3302D02*
X2049D01*
X2043D02*
Y3339D01*
X2037D02*
X2049D01*
X2062Y1567D02*
X2074D01*
X2068D02*
Y1604D01*
X2062D02*
X2074D01*
X2067Y1317D02*
X2079D01*
X2073D02*
Y1354D01*
X2067D02*
X2079D01*
X2067Y1817D02*
X2079D01*
X2073D02*
Y1854D01*
X2067D02*
X2079D01*
X2067Y2067D02*
X2079D01*
X2073D02*
Y2104D01*
X2067D02*
X2079D01*
X2067Y2317D02*
X2079D01*
X2073D02*
Y2354D01*
X2067D02*
X2079D01*
X2067Y2567D02*
X2079D01*
X2073D02*
Y2604D01*
X2067D02*
X2079D01*
X2077Y2817D02*
X2089D01*
X2083D02*
Y2854D01*
X2077D02*
X2089D01*
X2077Y3067D02*
X2089D01*
X2083D02*
Y3104D01*
X2077D02*
X2089D01*
X2150Y3806D02*
Y3843D01*
X2181*
X2175Y3825D02*
X2150D01*
X2234Y1497D02*
X2247D01*
X2241D02*
Y1534D01*
X2234D02*
X2247D01*
X2237Y1627D02*
X2249D01*
X2243D02*
Y1664D01*
X2237D02*
X2249D01*
X2237Y1747D02*
X2249D01*
X2243D02*
Y1784D01*
X2237D02*
X2249D01*
X2237Y1877D02*
X2249D01*
X2243D02*
Y1914D01*
X2237D02*
X2249D01*
X2237Y1997D02*
X2249D01*
X2243D02*
Y2034D01*
X2237D02*
X2249D01*
X2237Y2127D02*
X2249D01*
X2243D02*
Y2164D01*
X2237D02*
X2249D01*
X2237Y2247D02*
X2249D01*
X2243D02*
Y2284D01*
X2237D02*
X2249D01*
X2237Y2377D02*
X2249D01*
X2243D02*
Y2414D01*
X2237D02*
X2249D01*
X2237Y2627D02*
X2249D01*
X2243D02*
Y2664D01*
X2237D02*
X2249D01*
X2237Y2747D02*
X2249D01*
X2243D02*
Y2784D01*
X2237D02*
X2249D01*
X2239Y1379D02*
X2252D01*
X2246D02*
Y1417D01*
X2239D02*
X2252D01*
X2239Y2497D02*
X2252D01*
X2246D02*
Y2534D01*
X2239D02*
X2252D01*
X2247Y2877D02*
X2259D01*
X2253D02*
Y2914D01*
X2247D02*
X2259D01*
X2247Y2997D02*
X2259D01*
X2253D02*
Y3034D01*
X2247D02*
X2259D01*
X2247Y3127D02*
X2259D01*
X2253D02*
Y3164D01*
X2247D02*
X2259D01*
X2247Y3247D02*
X2259D01*
X2253D02*
Y3284D01*
X2247D02*
X2259D01*
X2300Y3806D02*
Y3843D01*
X2331*
X2325Y3825D02*
X2300D01*
X2444Y481D02*
Y519D01*
Y500D02*
X2475D01*
Y481D02*
Y519D01*
X2450Y3806D02*
Y3843D01*
X2481*
X2475Y3825D02*
X2450D01*
X2600Y3806D02*
Y3843D01*
X2631*
X2625Y3825D02*
X2600D01*
X2653Y312D02*
Y349D01*
X2668Y331*
X2684Y349*
Y312*
X2653Y412D02*
Y449D01*
X2668Y431*
X2684Y449*
Y412*
X2653Y512D02*
Y549D01*
X2668Y531*
X2684Y549*
Y512*
X2653Y612D02*
Y649D01*
X2668Y631*
X2684Y649*
Y612*
X2653Y712D02*
Y749D01*
X2668Y731*
X2684Y749*
Y712*
X2653Y812D02*
Y849D01*
X2668Y831*
X2684Y849*
Y812*
X2653Y912D02*
Y949D01*
X2668Y931*
X2684Y949*
Y912*
X2653Y1012D02*
Y1049D01*
X2668Y1031*
X2684Y1049*
Y1012*
X2653Y1112D02*
Y1149D01*
X2668Y1131*
X2684Y1149*
Y1112*
X2653Y1212D02*
Y1249D01*
X2668Y1231*
X2684Y1249*
Y1212*
X2653Y1312D02*
Y1349D01*
X2668Y1331*
X2684Y1349*
Y1312*
X2653Y1412D02*
Y1449D01*
X2668Y1431*
X2684Y1449*
Y1412*
X2653Y1512D02*
Y1549D01*
X2668Y1531*
X2684Y1549*
Y1512*
X2653Y1612D02*
Y1649D01*
X2668Y1631*
X2684Y1649*
Y1612*
X2653Y1712D02*
Y1749D01*
X2668Y1731*
X2684Y1749*
Y1712*
X2653Y1812D02*
Y1849D01*
X2668Y1831*
X2684Y1849*
Y1812*
X2653Y1912D02*
Y1949D01*
X2668Y1931*
X2684Y1949*
Y1912*
X2653Y2012D02*
Y2049D01*
X2668Y2031*
X2684Y2049*
Y2012*
X2653Y2112D02*
Y2149D01*
X2668Y2131*
X2684Y2149*
Y2112*
X2653Y2212D02*
Y2249D01*
X2668Y2231*
X2684Y2249*
Y2212*
X2653Y2312D02*
Y2349D01*
X2668Y2331*
X2684Y2349*
Y2312*
X2653Y2412D02*
Y2449D01*
X2668Y2431*
X2684Y2449*
Y2412*
X2653Y2512D02*
Y2549D01*
X2668Y2531*
X2684Y2549*
Y2512*
X2653Y2612D02*
Y2649D01*
X2668Y2631*
X2684Y2649*
Y2612*
X2951Y3806D02*
Y3843D01*
X2982*
X2976Y3825D02*
X2951D01*
X2953Y312D02*
Y349D01*
X2968Y331*
X2984Y349*
Y312*
X2953Y412D02*
Y449D01*
X2968Y431*
X2984Y449*
Y412*
X2953Y512D02*
Y549D01*
X2968Y531*
X2984Y549*
Y512*
X2953Y612D02*
Y649D01*
X2968Y631*
X2984Y649*
Y612*
X2953Y712D02*
Y749D01*
X2968Y731*
X2984Y749*
Y712*
X2953Y812D02*
Y849D01*
X2968Y831*
X2984Y849*
Y812*
X2953Y912D02*
Y949D01*
X2968Y931*
X2984Y949*
Y912*
X2953Y1012D02*
Y1049D01*
X2968Y1031*
X2984Y1049*
Y1012*
X2953Y1112D02*
Y1149D01*
X2968Y1131*
X2984Y1149*
Y1112*
X2953Y1212D02*
Y1249D01*
X2968Y1231*
X2984Y1249*
Y1212*
X2953Y1312D02*
Y1349D01*
X2968Y1331*
X2984Y1349*
Y1312*
X2953Y1412D02*
Y1449D01*
X2968Y1431*
X2984Y1449*
Y1412*
X2953Y1512D02*
Y1549D01*
X2968Y1531*
X2984Y1549*
Y1512*
X2953Y1612D02*
Y1649D01*
X2968Y1631*
X2984Y1649*
Y1612*
X2953Y1712D02*
Y1749D01*
X2968Y1731*
X2984Y1749*
Y1712*
X2953Y1812D02*
Y1849D01*
X2968Y1831*
X2984Y1849*
Y1812*
X2953Y1912D02*
Y1949D01*
X2968Y1931*
X2984Y1949*
Y1912*
X2953Y2012D02*
Y2049D01*
X2968Y2031*
X2984Y2049*
Y2012*
X2953Y2112D02*
Y2149D01*
X2968Y2131*
X2984Y2149*
Y2112*
X2953Y2212D02*
Y2249D01*
X2968Y2231*
X2984Y2249*
Y2212*
X2953Y2312D02*
Y2349D01*
X2968Y2331*
X2984Y2349*
Y2312*
X2953Y2412D02*
Y2449D01*
X2968Y2431*
X2984Y2449*
Y2412*
X2953Y2512D02*
Y2549D01*
X2968Y2531*
X2984Y2549*
Y2512*
X2953Y2612D02*
Y2649D01*
X2968Y2631*
X2984Y2649*
Y2612*
X3101Y3806D02*
Y3843D01*
X3132*
X3126Y3825D02*
X3101D01*
X3251Y3806D02*
Y3843D01*
X3282*
X3276Y3825D02*
X3251D01*
X3401Y3806D02*
Y3843D01*
X3432*
X3426Y3825D02*
X3401D01*
X3447Y1427D02*
X3459D01*
X3453D02*
Y1464D01*
X3447D02*
X3459D01*
X3447Y1672D02*
X3459D01*
X3453D02*
Y1709D01*
X3447D02*
X3459D01*
X3447Y1912D02*
X3459D01*
X3453D02*
Y1949D01*
X3447D02*
X3459D01*
X3447Y2157D02*
X3459D01*
X3453D02*
Y2194D01*
X3447D02*
X3459D01*
X3447Y2397D02*
X3459D01*
X3453D02*
Y2434D01*
X3447D02*
X3459D01*
X3447Y2642D02*
X3459D01*
X3453D02*
Y2679D01*
X3447D02*
X3459D01*
X3447Y2882D02*
X3459D01*
X3453D02*
Y2919D01*
X3447D02*
X3459D01*
X3447Y3122D02*
X3459D01*
X3453D02*
Y3159D01*
X3447D02*
X3459D01*
X3551Y3806D02*
Y3843D01*
X3582*
X3576Y3825D02*
X3551D01*
X3701Y3806D02*
Y3843D01*
X3732*
X3726Y3825D02*
X3701D01*
X3734Y1574D02*
X3746D01*
X3740D02*
Y1612D01*
X3734D02*
X3746D01*
X3736Y1818D02*
X3749D01*
X3742D02*
Y1855D01*
X3736D02*
X3749D01*
X3736Y2060D02*
X3749D01*
X3742D02*
Y2097D01*
X3736D02*
X3749D01*
X3739Y2303D02*
X3751D01*
X3745D02*
Y2341D01*
X3739D02*
X3751D01*
X3739Y3027D02*
X3751D01*
X3745D02*
Y3065D01*
X3739D02*
X3751D01*
X3740Y2545D02*
X3752D01*
X3746D02*
Y2583D01*
X3740D02*
X3752D01*
X3740Y2785D02*
X3752D01*
X3746D02*
Y2823D01*
X3740D02*
X3752D01*
X3740Y3269D02*
X3752D01*
X3746D02*
Y3307D01*
X3740D02*
X3752D01*
X3772Y1370D02*
X3785D01*
X3779D02*
Y1407D01*
X3772D02*
X3785D01*
X3772Y2341D02*
X3785D01*
X3779D02*
Y2378D01*
X3772D02*
X3785D01*
X3772Y2584D02*
X3785D01*
X3779D02*
Y2622D01*
X3772D02*
X3785D01*
X3772Y2824D02*
X3785D01*
X3779D02*
Y2861D01*
X3772D02*
X3785D01*
X3774Y1852D02*
X3786D01*
X3780D02*
Y1889D01*
X3774D02*
X3786D01*
X3774Y2097D02*
X3786D01*
X3780D02*
Y2135D01*
X3774D02*
X3786D01*
X3775Y1611D02*
X3787D01*
X3781D02*
Y1648D01*
X3775D02*
X3787D01*
X3775Y3065D02*
X3787D01*
X3781D02*
Y3102D01*
X3775D02*
X3787D01*
X3851Y3806D02*
Y3843D01*
X3882*
X3876Y3825D02*
X3851D01*
X3906Y1420D02*
X3918D01*
X3912D02*
Y1457D01*
X3906D02*
X3918D01*
X3907Y1516D02*
X3920D01*
X3913D02*
Y1553D01*
X3907D02*
X3920D01*
X3908Y1663D02*
X3921D01*
X3915D02*
Y1701D01*
X3908D02*
X3921D01*
X3908Y1762D02*
X3921D01*
X3915D02*
Y1799D01*
X3908D02*
X3921D01*
X3908Y2006D02*
X3921D01*
X3915D02*
Y2044D01*
X3908D02*
X3921D01*
X3908Y2491D02*
X3921D01*
X3915D02*
Y2528D01*
X3908D02*
X3921D01*
X3908Y2634D02*
X3921D01*
X3915D02*
Y2672D01*
X3908D02*
X3921D01*
X3908Y2874D02*
X3921D01*
X3915D02*
Y2911D01*
X3908D02*
X3921D01*
X3908Y3117D02*
X3921D01*
X3915D02*
Y3155D01*
X3908D02*
X3921D01*
X3910Y1903D02*
X3922D01*
X3916D02*
Y1940D01*
X3910D02*
X3922D01*
X3910Y2149D02*
X3922D01*
X3916D02*
Y2186D01*
X3910D02*
X3922D01*
X3910Y2393D02*
X3922D01*
X3916D02*
Y2431D01*
X3910D02*
X3922D01*
X3910Y2734D02*
X3922D01*
X3916D02*
Y2771D01*
X3910D02*
X3922D01*
X3910Y2971D02*
X3922D01*
X3916D02*
Y3009D01*
X3910D02*
X3922D01*
X3910Y3217D02*
X3922D01*
X3916D02*
Y3254D01*
X3910D02*
X3922D01*
X3911Y2250D02*
X3923D01*
X3917D02*
Y2287D01*
X3911D02*
X3923D01*
X4001Y3806D02*
Y3843D01*
X4032*
X4026Y3825D02*
X4001D01*
X4251Y3806D02*
Y3843D01*
X4282*
X4276Y3825D02*
X4251D01*
X4328Y1742D02*
X4340D01*
X4334D02*
Y1779D01*
X4328D02*
X4340D01*
X4328Y2474D02*
X4340D01*
X4334D02*
Y2512D01*
X4328D02*
X4340D01*
X4329Y1496D02*
X4341D01*
X4335D02*
Y1533D01*
X4329D02*
X4341D01*
X4329Y1985D02*
X4341D01*
X4335D02*
Y2023D01*
X4329D02*
X4341D01*
X4329Y2227D02*
X4341D01*
X4335D02*
Y2265D01*
X4329D02*
X4341D01*
X4329Y2612D02*
X4341D01*
X4335D02*
Y2649D01*
X4329D02*
X4341D01*
X4329Y2718D02*
X4341D01*
X4335D02*
Y2755D01*
X4329D02*
X4341D01*
X4329Y3106D02*
X4341D01*
X4335D02*
Y3143D01*
X4329D02*
X4341D01*
X4330Y1395D02*
X4343D01*
X4336D02*
Y1432D01*
X4330D02*
X4343D01*
X4330Y1637D02*
X4343D01*
X4336D02*
Y1674D01*
X4330D02*
X4343D01*
X4330Y2125D02*
X4343D01*
X4336D02*
Y2162D01*
X4330D02*
X4343D01*
X4330Y3207D02*
X4343D01*
X4336D02*
Y3244D01*
X4330D02*
X4343D01*
X4331Y1884D02*
X4344D01*
X4338D02*
Y1922D01*
X4331D02*
X4344D01*
X4331Y2374D02*
X4344D01*
X4338D02*
Y2412D01*
X4331D02*
X4344D01*
X4331Y2861D02*
X4344D01*
X4338D02*
Y2899D01*
X4331D02*
X4344D01*
X4331Y2961D02*
X4344D01*
X4338D02*
Y2999D01*
X4331D02*
X4344D01*
X4401Y3806D02*
Y3843D01*
X4432*
X4426Y3825D02*
X4401D01*
X4470Y2036D02*
X4483D01*
X4476D02*
Y2074D01*
X4470D02*
X4483D01*
X4470Y2770D02*
X4483D01*
X4476D02*
Y2808D01*
X4470D02*
X4483D01*
X4470Y3259D02*
X4483D01*
X4476D02*
Y3297D01*
X4470D02*
X4483D01*
X4471Y1547D02*
X4484D01*
X4478D02*
Y1585D01*
X4471D02*
X4484D01*
X4471Y1794D02*
X4484D01*
X4478D02*
Y1832D01*
X4471D02*
X4484D01*
X4471Y2278D02*
X4484D01*
X4478D02*
Y2316D01*
X4471D02*
X4484D01*
X4471Y2525D02*
X4484D01*
X4478D02*
Y2563D01*
X4471D02*
X4484D01*
X4471Y3012D02*
X4484D01*
X4478D02*
Y3050D01*
X4471D02*
X4484D01*
X4504Y2562D02*
X4516D01*
X4510D02*
Y2599D01*
X4504D02*
X4516D01*
X4504Y3051D02*
X4516D01*
X4510D02*
Y3088D01*
X4504D02*
X4516D01*
X4505Y2072D02*
X4517D01*
X4511D02*
Y2110D01*
X4505D02*
X4517D01*
X4506Y1340D02*
X4519D01*
X4512D02*
Y1377D01*
X4506D02*
X4519D01*
X4506Y1586D02*
X4519D01*
X4512D02*
Y1623D01*
X4506D02*
X4519D01*
X4507Y2317D02*
X4520D01*
X4514D02*
Y2355D01*
X4507D02*
X4520D01*
X4509Y1828D02*
X4521D01*
X4515D02*
Y1865D01*
X4509D02*
X4521D01*
X4509Y2804D02*
X4521D01*
X4515D02*
Y2841D01*
X4509D02*
X4521D01*
X4551Y3806D02*
Y3843D01*
X4582*
X4576Y3825D02*
X4551D01*
X4681Y290D02*
Y327D01*
Y309D02*
X4712D01*
Y290D02*
Y327D01*
X4701Y3806D02*
Y3843D01*
X4732*
X4726Y3825D02*
X4701D01*
X4715Y660D02*
Y697D01*
Y678D02*
X4746D01*
Y660D02*
Y697D01*
X4797Y1487D02*
X4809D01*
X4803D02*
Y1524D01*
X4797D02*
X4809D01*
X4797Y1732D02*
X4809D01*
X4803D02*
Y1769D01*
X4797D02*
X4809D01*
X4797Y1977D02*
X4809D01*
X4803D02*
Y2014D01*
X4797D02*
X4809D01*
X4797Y2217D02*
X4809D01*
X4803D02*
Y2254D01*
X4797D02*
X4809D01*
X4797Y2707D02*
X4809D01*
X4803D02*
Y2744D01*
X4797D02*
X4809D01*
X4797Y2947D02*
X4809D01*
X4803D02*
Y2984D01*
X4797D02*
X4809D01*
X4797Y3197D02*
X4809D01*
X4803D02*
Y3234D01*
X4797D02*
X4809D01*
X4802Y2467D02*
X4814D01*
X4808D02*
Y2504D01*
X4802D02*
X4814D01*
X4817Y582D02*
Y619D01*
Y600D02*
X4848D01*
Y582D02*
Y619D01*
X4818Y734D02*
Y771D01*
Y753D02*
X4849D01*
Y734D02*
Y771D01*
X4851Y3806D02*
Y3843D01*
X4882*
X4876Y3825D02*
X4851D01*
X4917Y658D02*
Y696D01*
Y677D02*
X4949D01*
Y658D02*
Y696D01*
X5001Y3806D02*
Y3843D01*
X5032*
X5026Y3825D02*
X5001D01*
X5151Y3806D02*
Y3843D01*
X5182*
X5176Y3825D02*
X5151D01*
X5301Y3806D02*
Y3843D01*
X5332*
X5326Y3825D02*
X5301D01*
X5563Y2587D02*
Y2624D01*
Y2606D02*
X5594D01*
Y2587D02*
Y2624D01*
X5563Y2742D02*
Y2779D01*
Y2761D02*
X5594D01*
Y2742D02*
Y2779D01*
X5568Y932D02*
Y969D01*
Y951D02*
X5599D01*
Y932D02*
Y969D01*
X5568Y1092D02*
Y1129D01*
Y1111D02*
X5599D01*
Y1092D02*
Y1129D01*
X5568Y1327D02*
Y1364D01*
Y1346D02*
X5599D01*
Y1327D02*
Y1364D01*
X5568Y1482D02*
Y1519D01*
Y1501D02*
X5599D01*
Y1482D02*
Y1519D01*
X5568Y1012D02*
Y1049D01*
Y1030D02*
X5599D01*
Y1012D02*
Y1049D01*
X5569Y854D02*
Y892D01*
Y873D02*
X5601D01*
Y854D02*
Y892D01*
X5586Y1798D02*
X5598D01*
X5592D02*
Y1835D01*
X5586D02*
X5598D01*
X5700Y2428D02*
X5712D01*
X5706D02*
Y2466D01*
X5700D02*
X5712D01*
X5701Y1562D02*
X5713D01*
X5707D02*
Y1600D01*
X5701D02*
X5713D01*
X5701Y2272D02*
X5714D01*
X5707D02*
Y2310D01*
X5701D02*
X5714D01*
X5701Y2508D02*
X5714D01*
X5707D02*
Y2545D01*
X5701D02*
X5714D01*
X5702Y1169D02*
X5714D01*
X5708D02*
Y1206D01*
X5702D02*
X5714D01*
X5702Y1248D02*
X5714D01*
X5708D02*
Y1285D01*
X5702D02*
X5714D01*
X5702Y1956D02*
X5714D01*
X5708D02*
Y1994D01*
X5702D02*
X5714D01*
X5702Y2035D02*
X5714D01*
X5708D02*
Y2073D01*
X5702D02*
X5714D01*
X5702Y2114D02*
X5715D01*
X5709D02*
Y2151D01*
X5702D02*
X5715D01*
X5702Y2192D02*
X5715D01*
X5709D02*
Y2230D01*
X5702D02*
X5715D01*
X5702Y2351D02*
X5715D01*
X5709D02*
Y2388D01*
X5702D02*
X5715D01*
X5702Y2665D02*
X5715D01*
X5709D02*
Y2703D01*
X5702D02*
X5715D01*
X5703Y1406D02*
X5716D01*
X5709D02*
Y1444D01*
X5703D02*
X5716D01*
X5703Y1878D02*
X5716D01*
X5709D02*
Y1915D01*
X5703D02*
X5716D01*
X5704Y3802D02*
Y3840D01*
X5735*
X5729Y3821D02*
X5704D01*
X5736Y1642D02*
X5748D01*
X5742D02*
Y1679D01*
X5736D02*
X5748D01*
X5736Y1721D02*
X5748D01*
X5742D02*
Y1758D01*
X5736D02*
X5748D01*
X5736Y1799D02*
X5748D01*
X5742D02*
Y1837D01*
X5736D02*
X5748D01*
X5728Y343D02*
X5731Y340D01*
X5737Y337*
X5743Y340*
X5746Y343*
Y374*
X5753*
X5746D02*
X5734D01*
X5728Y3268D02*
X5731Y3265D01*
X5737Y3262*
X5743Y3265*
X5746Y3268*
Y3299*
X5753*
X5746D02*
X5734D01*
X5772Y1169D02*
X5784D01*
X5778D02*
Y1206D01*
X5772D02*
X5784D01*
X5772Y1248D02*
X5784D01*
X5778D02*
Y1285D01*
X5772D02*
X5784D01*
X5772Y1485D02*
X5784D01*
X5778D02*
Y1522D01*
X5772D02*
X5784D01*
X5772Y1562D02*
X5784D01*
X5778D02*
Y1600D01*
X5772D02*
X5784D01*
X5772Y1956D02*
X5784D01*
X5778D02*
Y1994D01*
X5772D02*
X5784D01*
X5772Y2035D02*
X5784D01*
X5778D02*
Y2073D01*
X5772D02*
X5784D01*
X5772Y2114D02*
X5784D01*
X5778D02*
Y2151D01*
X5772D02*
X5784D01*
X5772Y2193D02*
X5784D01*
X5778D02*
Y2230D01*
X5772D02*
X5784D01*
X5772Y2271D02*
X5784D01*
X5778D02*
Y2309D01*
X5772D02*
X5784D01*
X5772Y2350D02*
X5784D01*
X5778D02*
Y2388D01*
X5772D02*
X5784D01*
X5772Y2429D02*
X5784D01*
X5778D02*
Y2466D01*
X5772D02*
X5784D01*
X5772Y2508D02*
X5784D01*
X5778D02*
Y2545D01*
X5772D02*
X5784D01*
X5772Y2665D02*
X5784D01*
X5778D02*
Y2703D01*
X5772D02*
X5784D01*
X5854Y3802D02*
Y3840D01*
X5885*
X5879Y3821D02*
X5854D01*
X5888Y1602D02*
X5900D01*
X5894D02*
Y1639D01*
X5888D02*
X5900D01*
X5888Y1677D02*
X5900D01*
X5894D02*
Y1714D01*
X5888D02*
X5900D01*
X5889Y1759D02*
X5902D01*
X5895D02*
Y1797D01*
X5889D02*
X5902D01*
X5884Y854D02*
Y892D01*
Y873D02*
X5915D01*
Y854D02*
Y892D01*
X5888Y932D02*
Y969D01*
Y951D02*
X5919D01*
Y932D02*
Y969D01*
X5888Y1092D02*
Y1129D01*
Y1111D02*
X5919D01*
Y1092D02*
Y1129D01*
X5888Y1327D02*
Y1364D01*
Y1346D02*
X5919D01*
Y1327D02*
Y1364D01*
X5888Y1407D02*
Y1444D01*
Y1426D02*
X5919D01*
Y1407D02*
Y1444D01*
X5888Y1012D02*
Y1049D01*
Y1030D02*
X5920D01*
Y1012D02*
Y1049D01*
X5893Y2587D02*
Y2624D01*
Y2606D02*
X5924D01*
Y2587D02*
Y2624D01*
X5893Y2742D02*
Y2779D01*
Y2761D02*
X5924D01*
Y2742D02*
Y2779D01*
D02*
D71*
X151Y3745D03*
X278Y278D03*
Y3203D03*
X301Y3745D03*
X451D03*
X507Y1298D03*
Y1418D03*
Y1553D03*
Y1668D03*
Y1803D03*
Y1918D03*
Y2053D03*
Y2168D03*
Y2297D03*
Y2418D03*
Y2553D03*
Y2668D03*
Y2803D03*
Y2918D03*
Y3048D03*
Y3168D03*
X601Y3745D03*
X678Y1478D03*
Y1728D03*
Y1978D03*
Y2228D03*
Y2478D03*
Y2728D03*
Y2978D03*
Y3228D03*
X703Y1242D03*
X751Y3745D03*
X901D03*
X943Y2483D03*
X948Y1483D03*
Y1733D03*
Y1983D03*
Y2233D03*
Y2733D03*
Y2983D03*
Y3233D03*
X1051Y3745D03*
X1117Y1433D03*
Y1683D03*
Y1933D03*
Y2183D03*
Y2433D03*
Y2683D03*
Y2933D03*
Y3168D03*
X1201Y3745D03*
X1450Y3747D03*
X1518Y1308D03*
Y1555D03*
Y1805D03*
Y2055D03*
Y2305D03*
Y2555D03*
X1530Y2805D03*
Y3055D03*
X1600Y3747D03*
X1688Y1258D03*
Y1505D03*
Y1755D03*
Y2005D03*
Y2255D03*
Y2505D03*
X1700Y2755D03*
Y3005D03*
X1750Y3747D03*
X1900D03*
X1928Y3243D03*
X1953Y1508D03*
X1958Y1258D03*
Y1758D03*
Y2008D03*
Y2258D03*
Y2508D03*
X1968Y2758D03*
Y3008D03*
X2050Y3747D03*
X2125Y1438D03*
X2128Y1568D03*
Y1688D03*
Y1817D03*
Y1938D03*
Y2067D03*
Y2188D03*
Y2317D03*
Y2568D03*
Y2688D03*
X2130Y1320D03*
Y2438D03*
X2138Y2818D03*
Y2938D03*
Y3068D03*
Y3188D03*
X2200Y3747D03*
X2344Y422D03*
X2350Y3747D03*
X2500D03*
X2553Y253D03*
Y353D03*
Y453D03*
Y553D03*
Y653D03*
Y753D03*
Y853D03*
Y953D03*
Y1053D03*
Y1153D03*
Y1252D03*
Y1353D03*
Y1453D03*
Y1553D03*
Y1653D03*
Y1753D03*
Y1853D03*
Y1953D03*
Y2053D03*
Y2153D03*
Y2253D03*
Y2353D03*
Y2453D03*
Y2553D03*
X2851Y3747D03*
X2853Y253D03*
Y353D03*
Y453D03*
Y553D03*
Y653D03*
Y753D03*
Y853D03*
Y953D03*
Y1053D03*
Y1153D03*
Y1252D03*
Y1353D03*
Y1453D03*
Y1553D03*
Y1653D03*
Y1753D03*
Y1853D03*
Y1953D03*
Y2053D03*
Y2153D03*
Y2253D03*
Y2353D03*
Y2453D03*
Y2553D03*
X3001Y3747D03*
X3151D03*
X3301D03*
X3338Y1368D03*
Y1613D03*
Y1853D03*
Y2098D03*
Y2338D03*
Y2583D03*
Y2823D03*
Y3063D03*
X3451Y3747D03*
X3601D03*
X3624Y1515D03*
X3627Y1758D03*
Y2001D03*
X3629Y2244D03*
Y2968D03*
X3631Y2486D03*
Y2726D03*
Y3210D03*
X3663Y1310D03*
Y2281D03*
Y2525D03*
Y2764D03*
X3664Y1792D03*
Y2038D03*
X3665Y1551D03*
Y3005D03*
X3751Y3747D03*
X3797Y1360D03*
X3798Y1456D03*
X3799Y1604D03*
Y1702D03*
Y1947D03*
Y2431D03*
Y2575D03*
Y2814D03*
Y3058D03*
X3800Y1843D03*
Y2089D03*
Y2334D03*
Y2675D03*
Y2912D03*
Y3158D03*
X3802Y2190D03*
X3901Y3747D03*
X4151D03*
X4218Y1682D03*
Y2415D03*
X4220Y1436D03*
Y1926D03*
Y2168D03*
Y2552D03*
Y2658D03*
Y3046D03*
X4221Y1335D03*
Y1578D03*
Y2065D03*
Y3148D03*
X4222Y1825D03*
Y2315D03*
Y2802D03*
Y2902D03*
X4301Y3747D03*
X4361Y1977D03*
Y2711D03*
Y3200D03*
X4362Y1488D03*
Y1735D03*
Y2219D03*
Y2466D03*
Y2953D03*
X4394Y2502D03*
Y2992D03*
X4396Y2013D03*
X4397Y1280D03*
Y1526D03*
X4398Y2258D03*
X4399Y1768D03*
Y2744D03*
X4451Y3747D03*
X4581Y231D03*
X4601Y3747D03*
X4615Y600D03*
X4688Y1428D03*
Y1673D03*
Y1918D03*
Y2158D03*
Y2648D03*
Y2888D03*
Y3138D03*
X4693Y2408D03*
X4717Y522D03*
X4718Y675D03*
X4751Y3747D03*
X4817Y599D03*
X4901Y3747D03*
X5051D03*
X5201D03*
X5463Y2528D03*
Y2683D03*
X5468Y873D03*
Y1033D03*
Y1268D03*
Y1423D03*
X5468Y952D03*
X5469Y795D03*
X5476Y1739D03*
X5591Y2369D03*
X5591Y1503D03*
X5592Y2213D03*
Y2449D03*
X5592Y1110D03*
Y1188D03*
Y1897D03*
Y1976D03*
X5593Y2054D03*
Y2133D03*
Y2291D03*
Y2606D03*
X5594Y1347D03*
Y1818D03*
X5604Y3743D03*
X5626Y1583D03*
Y1661D03*
Y1740D03*
X5628Y278D03*
Y3203D03*
X5662Y1110D03*
Y1188D03*
Y1425D03*
Y1503D03*
Y1897D03*
Y1976D03*
X5663Y2054D03*
Y2133D03*
Y2212D03*
Y2291D03*
Y2369D03*
Y2448D03*
Y2606D03*
X5754Y3743D03*
X5778Y1543D03*
Y1617D03*
X5780Y1700D03*
X5784Y795D03*
X5788Y873D03*
Y1033D03*
Y1268D03*
Y1348D03*
X5788Y952D03*
X5793Y2528D03*
Y2683D03*
X0Y0D02*
M02*
