%FSLAX23Y23*%
%MOIN*%
G04 EasyPC Gerber Version 17.0 Build 3379 *
%ADD109R,0.04537X0.04891*%
%ADD97R,0.05088X0.07096*%
%ADD95R,0.06100X0.06600*%
%ADD105R,0.06112X0.03159*%
%ADD26R,0.06112X0.04104*%
%ADD107R,0.06900X0.06900*%
%ADD10C,0.00500*%
%ADD27C,0.06600*%
%ADD126C,0.10600*%
%ADD25C,0.28100*%
%ADD138R,0.04891X0.04537*%
%ADD100R,0.06600X0.06100*%
%ADD98R,0.12411X0.07096*%
X0Y0D02*
D02*
D10*
X3Y3D02*
X5903D01*
Y3953*
X3*
Y3*
D02*
D25*
X278Y278D03*
Y3203D03*
X5628Y278D03*
Y3203D03*
D02*
D26*
X5539Y795D03*
Y873D03*
Y952D03*
Y1031D03*
Y1110D03*
Y1188D03*
Y1267D03*
Y1346D03*
Y1425D03*
Y1503D03*
Y1582D03*
Y1661D03*
Y1740D03*
Y1818D03*
Y1897D03*
Y1976D03*
Y2054D03*
Y2133D03*
Y2212D03*
Y2291D03*
Y2369D03*
Y2448D03*
Y2527D03*
Y2606D03*
Y2684D03*
X5716Y795D03*
Y873D03*
Y952D03*
Y1031D03*
Y1110D03*
Y1188D03*
Y1267D03*
Y1346D03*
Y1425D03*
Y1503D03*
Y1582D03*
Y1661D03*
Y1740D03*
Y1818D03*
Y1897D03*
Y1976D03*
Y2054D03*
Y2133D03*
Y2212D03*
Y2291D03*
Y2369D03*
Y2448D03*
Y2527D03*
Y2606D03*
Y2684D03*
D02*
D27*
X2403Y253D03*
Y353D03*
Y453D03*
Y553D03*
Y653D03*
Y753D03*
Y853D03*
Y953D03*
Y1053D03*
Y1153D03*
Y1252D03*
Y1353D03*
Y1453D03*
Y1553D03*
Y1653D03*
Y1753D03*
Y1853D03*
Y1953D03*
Y2053D03*
Y2153D03*
Y2253D03*
Y2353D03*
Y2453D03*
Y2553D03*
X3003Y253D03*
Y353D03*
Y453D03*
Y553D03*
Y653D03*
Y753D03*
Y853D03*
Y953D03*
Y1053D03*
Y1153D03*
Y1252D03*
Y1353D03*
Y1453D03*
Y1553D03*
Y1653D03*
Y1753D03*
Y1853D03*
Y1953D03*
Y2053D03*
Y2153D03*
Y2253D03*
Y2353D03*
Y2453D03*
Y2553D03*
D02*
D95*
X2053Y253D03*
Y343D03*
X2148Y253D03*
Y343D03*
X4509Y291D03*
Y381D03*
X5378Y1708D03*
Y1798D03*
D02*
D97*
X4626Y348D03*
X4717D03*
X4808D03*
D02*
D98*
X4717Y598D03*
D02*
D100*
X4670Y245D03*
X4760D03*
D02*
D105*
X703Y1288D03*
Y1338D03*
Y1388D03*
Y1438D03*
Y1538D03*
Y1588D03*
Y1638D03*
Y1688D03*
Y1788D03*
Y1838D03*
Y1888D03*
Y1938D03*
Y2038D03*
Y2088D03*
Y2138D03*
Y2188D03*
Y2288D03*
Y2338D03*
Y2388D03*
Y2438D03*
Y2538D03*
Y2588D03*
Y2638D03*
Y2688D03*
Y2788D03*
Y2838D03*
Y2888D03*
Y2938D03*
Y3038D03*
Y3088D03*
Y3138D03*
Y3188D03*
X912Y1288D03*
Y1338D03*
Y1388D03*
Y1438D03*
Y1538D03*
Y1588D03*
Y1638D03*
Y1688D03*
Y1788D03*
Y1838D03*
Y1888D03*
Y1938D03*
Y2038D03*
Y2088D03*
Y2138D03*
Y2188D03*
Y2288D03*
Y2338D03*
Y2388D03*
Y2438D03*
Y2538D03*
Y2588D03*
Y2638D03*
Y2688D03*
Y2788D03*
Y2838D03*
Y2888D03*
Y2938D03*
Y3038D03*
Y3088D03*
Y3138D03*
Y3188D03*
X1723Y1300D03*
Y1350D03*
Y1400D03*
Y1450D03*
Y1550D03*
Y1600D03*
Y1650D03*
Y1700D03*
Y1800D03*
Y1850D03*
Y1900D03*
Y1950D03*
Y2050D03*
Y2100D03*
Y2150D03*
Y2200D03*
Y2300D03*
Y2350D03*
Y2400D03*
Y2450D03*
Y2550D03*
Y2600D03*
Y2650D03*
Y2700D03*
X1736Y2800D03*
Y2850D03*
Y2900D03*
Y2950D03*
Y3050D03*
Y3100D03*
Y3150D03*
Y3200D03*
X1932Y1300D03*
Y1350D03*
Y1400D03*
Y1450D03*
Y1550D03*
Y1600D03*
Y1650D03*
Y1700D03*
Y1800D03*
Y1850D03*
Y1900D03*
Y1950D03*
Y2050D03*
Y2100D03*
Y2150D03*
Y2200D03*
Y2300D03*
Y2350D03*
Y2400D03*
Y2450D03*
Y2550D03*
Y2600D03*
Y2650D03*
Y2700D03*
X1944Y2800D03*
Y2850D03*
Y2900D03*
Y2950D03*
Y3050D03*
Y3100D03*
Y3150D03*
Y3200D03*
X3395Y1317D03*
Y1367D03*
Y1417D03*
Y1467D03*
Y1561D03*
Y1611D03*
Y1661D03*
Y1711D03*
Y1803D03*
Y1853D03*
Y1903D03*
Y1953D03*
Y2047D03*
Y2097D03*
Y2147D03*
Y2197D03*
Y2290D03*
Y2340D03*
Y2390D03*
Y2440D03*
Y2532D03*
Y2582D03*
Y2632D03*
Y2682D03*
Y2773D03*
Y2823D03*
Y2873D03*
Y2923D03*
Y3015D03*
Y3065D03*
Y3115D03*
Y3165D03*
X3604Y1317D03*
Y1367D03*
Y1417D03*
Y1467D03*
Y1561D03*
Y1611D03*
Y1661D03*
Y1711D03*
Y1803D03*
Y1853D03*
Y1903D03*
Y1953D03*
Y2047D03*
Y2097D03*
Y2147D03*
Y2197D03*
Y2290D03*
Y2340D03*
Y2390D03*
Y2440D03*
Y2532D03*
Y2582D03*
Y2632D03*
Y2682D03*
Y2773D03*
Y2823D03*
Y2873D03*
Y2923D03*
Y3015D03*
Y3065D03*
Y3115D03*
Y3165D03*
X4422Y1327D03*
Y1377D03*
Y1427D03*
Y1477D03*
Y1571D03*
Y1621D03*
Y1671D03*
Y1721D03*
Y1816D03*
Y1866D03*
Y1916D03*
Y1966D03*
Y2059D03*
Y2109D03*
Y2159D03*
Y2209D03*
Y2305D03*
Y2355D03*
Y2405D03*
Y2455D03*
Y2547D03*
Y2597D03*
Y2647D03*
Y2697D03*
Y2792D03*
Y2842D03*
Y2892D03*
Y2942D03*
Y3038D03*
Y3088D03*
Y3138D03*
Y3188D03*
X4631Y1327D03*
Y1377D03*
Y1427D03*
Y1477D03*
Y1571D03*
Y1621D03*
Y1671D03*
Y1721D03*
Y1816D03*
Y1866D03*
Y1916D03*
Y1966D03*
Y2059D03*
Y2109D03*
Y2159D03*
Y2209D03*
Y2305D03*
Y2355D03*
Y2405D03*
Y2455D03*
Y2547D03*
Y2597D03*
Y2647D03*
Y2697D03*
Y2792D03*
Y2842D03*
Y2892D03*
Y2942D03*
Y3038D03*
Y3088D03*
Y3138D03*
Y3188D03*
D02*
D107*
X5365Y523D03*
Y657D03*
D02*
D109*
X2626Y2937D03*
Y3007D03*
X2626Y3080D03*
Y3150D03*
X2786Y2939D03*
Y3009D03*
X2786Y3082D03*
Y3152D03*
X3316Y2390D03*
Y2460D03*
Y2633D03*
Y2703D03*
X3317Y2148D03*
Y2218D03*
X3318Y1418D03*
Y1488D03*
X3319Y1661D03*
Y1731D03*
Y1903D03*
Y1973D03*
X3320Y2873D03*
Y2943D03*
Y3115D03*
Y3185D03*
X4704Y2285D03*
Y2355D03*
Y2527D03*
Y2597D03*
Y2772D03*
Y2842D03*
X4705Y1551D03*
Y1621D03*
Y1796D03*
Y1866D03*
Y3016D03*
Y3086D03*
X4707Y1308D03*
Y1378D03*
Y2038D03*
Y2108D03*
D02*
D126*
X153Y3748D03*
X303D03*
X453D03*
X603D03*
X753D03*
X903D03*
X1053D03*
X1202D03*
X1453D03*
X1603D03*
X1753D03*
X1903D03*
X2053D03*
X2203D03*
X2353D03*
X2503D03*
X2853D03*
X3003D03*
X3153D03*
X3303D03*
X3453D03*
X3603D03*
X3753D03*
X3903D03*
X4153D03*
X4303D03*
X4453D03*
X4603D03*
X4753D03*
X4903D03*
X5053D03*
X5203D03*
X5603D03*
X5753D03*
D02*
D138*
X560Y1300D03*
Y1388D03*
Y1450D03*
Y1550D03*
Y1638D03*
Y1700D03*
Y1800D03*
Y1888D03*
Y1950D03*
Y2050D03*
Y2138D03*
Y2200D03*
Y2300D03*
Y2388D03*
Y2450D03*
Y2550D03*
Y2638D03*
Y2700D03*
Y2800D03*
Y2888D03*
Y2950D03*
Y3050D03*
Y3138D03*
Y3200D03*
X630Y1300D03*
Y1388D03*
Y1450D03*
Y1550D03*
Y1638D03*
Y1700D03*
Y1800D03*
Y1888D03*
Y1950D03*
Y2050D03*
Y2138D03*
Y2200D03*
Y2300D03*
Y2388D03*
Y2450D03*
Y2550D03*
Y2638D03*
Y2700D03*
Y2800D03*
Y2888D03*
Y2950D03*
Y3050D03*
Y3138D03*
Y3200D03*
X998Y1300D03*
Y1400D03*
Y1463D03*
Y1550D03*
Y1650D03*
Y1713D03*
Y1800D03*
Y1900D03*
Y1963D03*
Y2050D03*
Y2150D03*
Y2213D03*
Y2300D03*
Y2400D03*
Y2463D03*
Y2550D03*
Y2650D03*
Y2713D03*
Y2800D03*
Y2900D03*
Y2963D03*
Y3050D03*
Y3138D03*
Y3200D03*
X1067Y1300D03*
Y1400D03*
Y1463D03*
Y1550D03*
Y1650D03*
Y1713D03*
Y1800D03*
Y1900D03*
Y1963D03*
Y2050D03*
Y2150D03*
Y2213D03*
Y2300D03*
Y2400D03*
Y2463D03*
Y2550D03*
Y2650D03*
Y2713D03*
Y2800D03*
Y2900D03*
Y2963D03*
Y3050D03*
Y3138D03*
Y3200D03*
X1568Y1275D03*
Y1338D03*
Y1438D03*
Y1525D03*
Y1588D03*
Y1688D03*
Y1775D03*
Y1838D03*
Y1938D03*
Y2025D03*
Y2088D03*
Y2188D03*
Y2275D03*
Y2338D03*
Y2438D03*
Y2525D03*
Y2588D03*
Y2688D03*
X1580Y2775D03*
Y2838D03*
Y2938D03*
Y3025D03*
Y3088D03*
Y3188D03*
X1638Y1275D03*
Y1338D03*
Y1438D03*
Y1525D03*
Y1588D03*
Y1688D03*
Y1775D03*
Y1838D03*
Y1938D03*
Y2025D03*
Y2088D03*
Y2188D03*
Y2275D03*
Y2338D03*
Y2438D03*
Y2525D03*
Y2588D03*
Y2688D03*
X1650Y2775D03*
Y2838D03*
Y2938D03*
Y3025D03*
Y3088D03*
Y3188D03*
X2005Y1288D03*
Y1350D03*
Y1438D03*
Y1538D03*
Y1600D03*
Y1688D03*
Y1788D03*
Y1850D03*
Y1938D03*
Y2038D03*
Y2100D03*
Y2188D03*
Y2288D03*
Y2350D03*
Y2438D03*
Y2538D03*
Y2600D03*
Y2688D03*
X2018Y2788D03*
Y2850D03*
Y2938D03*
Y3038D03*
Y3100D03*
Y3188D03*
X2075Y1288D03*
Y1350D03*
Y1438D03*
Y1538D03*
Y1600D03*
Y1688D03*
Y1788D03*
Y1850D03*
Y1938D03*
Y2038D03*
Y2100D03*
Y2188D03*
Y2288D03*
Y2350D03*
Y2438D03*
Y2538D03*
Y2600D03*
Y2688D03*
X2088Y2788D03*
Y2850D03*
Y2938D03*
Y3038D03*
Y3100D03*
Y3188D03*
X3678Y1360D03*
Y1424D03*
Y1489D03*
X3679Y1604D03*
Y1669D03*
Y1734D03*
X3680Y1843D03*
Y1912D03*
Y1981D03*
Y2089D03*
Y2155D03*
Y2222D03*
Y2333D03*
Y2397D03*
Y2464D03*
Y2575D03*
Y2641D03*
Y2706D03*
Y2814D03*
Y2879D03*
Y2944D03*
Y3058D03*
Y3124D03*
Y3189D03*
X3748Y1360D03*
Y1424D03*
Y1489D03*
X3749Y1604D03*
Y1669D03*
Y1734D03*
X3750Y1843D03*
Y1912D03*
Y1981D03*
Y2089D03*
Y2155D03*
Y2222D03*
Y2333D03*
Y2397D03*
Y2464D03*
Y2575D03*
Y2641D03*
Y2706D03*
Y2814D03*
Y2879D03*
Y2944D03*
Y3058D03*
Y3124D03*
Y3189D03*
X4273Y2522D03*
Y2590D03*
Y2658D03*
Y3013D03*
Y3080D03*
Y3148D03*
X4274Y2032D03*
Y2099D03*
Y2168D03*
Y2280D03*
Y2348D03*
Y2415D03*
Y2766D03*
Y2834D03*
Y2902D03*
X4276Y1302D03*
Y1369D03*
Y1436D03*
Y1544D03*
Y1614D03*
Y1682D03*
Y1791D03*
Y1858D03*
Y1926D03*
X4343Y2522D03*
Y2590D03*
Y2658D03*
Y3013D03*
Y3080D03*
Y3148D03*
X4344Y2032D03*
Y2099D03*
Y2168D03*
Y2280D03*
Y2348D03*
Y2415D03*
Y2766D03*
Y2834D03*
Y2902D03*
X4346Y1302D03*
Y1369D03*
Y1436D03*
Y1544D03*
Y1614D03*
Y1682D03*
Y1791D03*
Y1858D03*
Y1926D03*
X0Y0D02*
M02*
