%FSLAX23Y23*%
%MOIN*%
G04 EasyPC Gerber Version 17.0 Build 3379 *
%ADD10C,0.00500*%
%ADD20C,0.02000*%
%ADD70C,0.03200*%
%ADD19C,0.05600*%
%ADD13C,0.06000*%
%ADD76C,0.10000*%
%ADD12C,0.27500*%
X0Y0D02*
D02*
D10*
X58Y3353D02*
Y58D01*
X740*
Y153*
X1178*
Y58*
X5848*
Y3353*
X4603*
Y1077*
X3428*
Y3353*
X1903*
Y3254*
G75*
G02X1955Y3243I25J-11*
G01*
G75*
G02X1903Y3231I-28*
G01*
Y1073*
X733*
Y3353*
X58*
X129Y278D02*
G75*
G02X427I149D01*
G01*
G75*
G02X129I-149*
G01*
Y3203D02*
G75*
G02X427I149D01*
G01*
G75*
G02X129I-149*
G01*
X480Y1418D02*
G75*
G02X535I28D01*
G01*
G75*
G02X480I-28*
G01*
Y1668D02*
G75*
G02X535I28D01*
G01*
G75*
G02X480I-28*
G01*
Y1918D02*
G75*
G02X535I28D01*
G01*
G75*
G02X480I-28*
G01*
Y2168D02*
G75*
G02X535I28D01*
G01*
G75*
G02X480I-28*
G01*
Y2418D02*
G75*
G02X535I28D01*
G01*
G75*
G02X480I-28*
G01*
Y2668D02*
G75*
G02X535I28D01*
G01*
G75*
G02X480I-28*
G01*
Y2918D02*
G75*
G02X535I28D01*
G01*
G75*
G02X480I-28*
G01*
Y3168D02*
G75*
G02X535I28D01*
G01*
G75*
G02X480I-28*
G01*
X484Y1298D02*
G75*
G02X531I23D01*
G01*
G75*
G02X484I-23*
G01*
Y1553D02*
G75*
G02X531I23D01*
G01*
G75*
G02X484I-23*
G01*
Y1803D02*
G75*
G02X531I23D01*
G01*
G75*
G02X484I-23*
G01*
Y2053D02*
G75*
G02X531I23D01*
G01*
G75*
G02X484I-23*
G01*
Y2297D02*
G75*
G02X531I23D01*
G01*
G75*
G02X484I-23*
G01*
Y2553D02*
G75*
G02X531I23D01*
G01*
G75*
G02X484I-23*
G01*
Y2803D02*
G75*
G02X531I23D01*
G01*
G75*
G02X484I-23*
G01*
Y3048D02*
G75*
G02X531I23D01*
G01*
G75*
G02X484I-23*
G01*
X654Y1478D02*
G75*
G02X701I23D01*
G01*
G75*
G02X654I-23*
G01*
Y1728D02*
G75*
G02X701I23D01*
G01*
G75*
G02X654I-23*
G01*
Y1978D02*
G75*
G02X701I23D01*
G01*
G75*
G02X654I-23*
G01*
Y2228D02*
G75*
G02X701I23D01*
G01*
G75*
G02X654I-23*
G01*
Y2478D02*
G75*
G02X701I23D01*
G01*
G75*
G02X654I-23*
G01*
Y2728D02*
G75*
G02X701I23D01*
G01*
G75*
G02X654I-23*
G01*
Y2978D02*
G75*
G02X701I23D01*
G01*
G75*
G02X654I-23*
G01*
Y3228D02*
G75*
G02X701I23D01*
G01*
G75*
G02X654I-23*
G01*
X675Y1242D02*
G75*
G02X730I28D01*
G01*
G75*
G02X675I-28*
G01*
X1924Y2503D02*
G75*
G02X1971I23D01*
G01*
G75*
G02X1924I-23*
G01*
X1929Y1508D02*
G75*
G02X1976I23D01*
G01*
G75*
G02X1929I-23*
G01*
X1934Y1258D02*
G75*
G02X1981I23D01*
G01*
G75*
G02X1934I-23*
G01*
Y1758D02*
G75*
G02X1981I23D01*
G01*
G75*
G02X1934I-23*
G01*
Y2008D02*
G75*
G02X1981I23D01*
G01*
G75*
G02X1934I-23*
G01*
Y2258D02*
G75*
G02X1981I23D01*
G01*
G75*
G02X1934I-23*
G01*
Y2753D02*
G75*
G02X1981I23D01*
G01*
G75*
G02X1934I-23*
G01*
X1944Y3008D02*
G75*
G02X1991I23D01*
G01*
G75*
G02X1944I-23*
G01*
X2100Y1568D02*
G75*
G02X2155I28D01*
G01*
G75*
G02X2100I-28*
G01*
Y1817D02*
G75*
G02X2155I28D01*
G01*
G75*
G02X2100I-28*
G01*
Y2067D02*
G75*
G02X2155I28D01*
G01*
G75*
G02X2100I-28*
G01*
Y2317D02*
G75*
G02X2155I28D01*
G01*
G75*
G02X2100I-28*
G01*
Y2568D02*
G75*
G02X2155I28D01*
G01*
G75*
G02X2100I-28*
G01*
X2102Y1438D02*
G75*
G02X2149I23D01*
G01*
G75*
G02X2102I-23*
G01*
X2103Y458D02*
G75*
G02Y387J-36D01*
G01*
G75*
G02Y458J36*
G01*
Y1320D02*
G75*
G02X2158I28D01*
G01*
G75*
G02X2103I-28*
G01*
X2104Y1688D02*
G75*
G02X2151I23D01*
G01*
G75*
G02X2104I-23*
G01*
Y1938D02*
G75*
G02X2151I23D01*
G01*
G75*
G02X2104I-23*
G01*
Y2188D02*
G75*
G02X2151I23D01*
G01*
G75*
G02X2104I-23*
G01*
Y2688D02*
G75*
G02X2151I23D01*
G01*
G75*
G02X2104I-23*
G01*
X2107Y2438D02*
G75*
G02X2154I23D01*
G01*
G75*
G02X2107I-23*
G01*
X2110Y2818D02*
G75*
G02X2165I28D01*
G01*
G75*
G02X2110I-28*
G01*
Y3068D02*
G75*
G02X2165I28D01*
G01*
G75*
G02X2110I-28*
G01*
X2114Y2938D02*
G75*
G02X2161I23D01*
G01*
G75*
G02X2114I-23*
G01*
Y3188D02*
G75*
G02X2161I23D01*
G01*
G75*
G02X2114I-23*
G01*
X2403Y294D02*
G75*
G02Y211J-42D01*
G01*
G75*
G02Y294J42*
G01*
Y394D02*
G75*
G02Y311J-42D01*
G01*
G75*
G02Y394J42*
G01*
Y494D02*
G75*
G02Y411J-42D01*
G01*
G75*
G02Y494J42*
G01*
Y594D02*
G75*
G02Y511J-42D01*
G01*
G75*
G02Y594J42*
G01*
Y694D02*
G75*
G02Y611J-42D01*
G01*
G75*
G02Y694J42*
G01*
Y794D02*
G75*
G02Y711J-42D01*
G01*
G75*
G02Y794J42*
G01*
Y894D02*
G75*
G02Y811J-42D01*
G01*
G75*
G02Y894J42*
G01*
Y994D02*
G75*
G02Y911J-42D01*
G01*
G75*
G02Y994J42*
G01*
Y1094D02*
G75*
G02Y1011J-42D01*
G01*
G75*
G02Y1094J42*
G01*
Y1194D02*
G75*
G02Y1111J-42D01*
G01*
G75*
G02Y1194J42*
G01*
Y1294D02*
G75*
G02Y1211J-42D01*
G01*
G75*
G02Y1294J42*
G01*
Y1394D02*
G75*
G02Y1311J-42D01*
G01*
G75*
G02Y1394J42*
G01*
Y1494D02*
G75*
G02Y1411J-42D01*
G01*
G75*
G02Y1494J42*
G01*
Y1594D02*
G75*
G02Y1511J-42D01*
G01*
G75*
G02Y1594J42*
G01*
Y1694D02*
G75*
G02Y1611J-42D01*
G01*
G75*
G02Y1694J42*
G01*
Y1794D02*
G75*
G02Y1711J-42D01*
G01*
G75*
G02Y1794J42*
G01*
Y1894D02*
G75*
G02Y1811J-42D01*
G01*
G75*
G02Y1894J42*
G01*
Y1994D02*
G75*
G02Y1911J-42D01*
G01*
G75*
G02Y1994J42*
G01*
Y2094D02*
G75*
G02Y2011J-42D01*
G01*
G75*
G02Y2094J42*
G01*
Y2194D02*
G75*
G02Y2111J-42D01*
G01*
G75*
G02Y2194J42*
G01*
Y2294D02*
G75*
G02Y2211J-42D01*
G01*
G75*
G02Y2294J42*
G01*
Y2394D02*
G75*
G02Y2311J-42D01*
G01*
G75*
G02Y2394J42*
G01*
Y2494D02*
G75*
G02Y2411J-42D01*
G01*
G75*
G02Y2494J42*
G01*
Y2594D02*
G75*
G02Y2511J-42D01*
G01*
G75*
G02Y2594J42*
G01*
X2598Y2880D02*
G75*
G02X2653I28D01*
G01*
G75*
G02X2598I-28*
G01*
X2602Y3217D02*
G75*
G02X2649I23D01*
G01*
G75*
G02X2602I-23*
G01*
X2762Y3219D02*
G75*
G02X2809I23D01*
G01*
G75*
G02X2762I-23*
G01*
X3003Y290D02*
G75*
G02Y215J-38D01*
G01*
G75*
G02Y290J38*
G01*
Y394D02*
G75*
G02Y311J-42D01*
G01*
G75*
G02Y394J42*
G01*
Y494D02*
G75*
G02Y411J-42D01*
G01*
G75*
G02Y494J42*
G01*
Y594D02*
G75*
G02Y511J-42D01*
G01*
G75*
G02Y594J42*
G01*
Y694D02*
G75*
G02Y611J-42D01*
G01*
G75*
G02Y694J42*
G01*
Y794D02*
G75*
G02Y711J-42D01*
G01*
G75*
G02Y794J42*
G01*
Y894D02*
G75*
G02Y811J-42D01*
G01*
G75*
G02Y894J42*
G01*
Y994D02*
G75*
G02Y911J-42D01*
G01*
G75*
G02Y994J42*
G01*
Y1094D02*
G75*
G02Y1011J-42D01*
G01*
G75*
G02Y1094J42*
G01*
Y1194D02*
G75*
G02Y1111J-42D01*
G01*
G75*
G02Y1194J42*
G01*
Y1294D02*
G75*
G02Y1211J-42D01*
G01*
G75*
G02Y1294J42*
G01*
Y1394D02*
G75*
G02Y1311J-42D01*
G01*
G75*
G02Y1394J42*
G01*
Y1494D02*
G75*
G02Y1411J-42D01*
G01*
G75*
G02Y1494J42*
G01*
Y1594D02*
G75*
G02Y1511J-42D01*
G01*
G75*
G02Y1594J42*
G01*
Y1694D02*
G75*
G02Y1611J-42D01*
G01*
G75*
G02Y1694J42*
G01*
Y1794D02*
G75*
G02Y1711J-42D01*
G01*
G75*
G02Y1794J42*
G01*
Y1894D02*
G75*
G02Y1811J-42D01*
G01*
G75*
G02Y1894J42*
G01*
Y1994D02*
G75*
G02Y1911J-42D01*
G01*
G75*
G02Y1994J42*
G01*
Y2094D02*
G75*
G02Y2011J-42D01*
G01*
G75*
G02Y2094J42*
G01*
Y2194D02*
G75*
G02Y2111J-42D01*
G01*
G75*
G02Y2194J42*
G01*
Y2294D02*
G75*
G02Y2211J-42D01*
G01*
G75*
G02Y2294J42*
G01*
Y2394D02*
G75*
G02Y2311J-42D01*
G01*
G75*
G02Y2394J42*
G01*
Y2494D02*
G75*
G02Y2411J-42D01*
G01*
G75*
G02Y2494J42*
G01*
Y2594D02*
G75*
G02Y2511J-42D01*
G01*
G75*
G02Y2594J42*
G01*
X3314Y1368D02*
G75*
G02X3361I23D01*
G01*
G75*
G02X3314I-23*
G01*
Y1613D02*
G75*
G02X3361I23D01*
G01*
G75*
G02X3314I-23*
G01*
Y1853D02*
G75*
G02X3361I23D01*
G01*
G75*
G02X3314I-23*
G01*
Y2098D02*
G75*
G02X3361I23D01*
G01*
G75*
G02X3314I-23*
G01*
Y2338D02*
G75*
G02X3361I23D01*
G01*
G75*
G02X3314I-23*
G01*
Y2583D02*
G75*
G02X3361I23D01*
G01*
G75*
G02X3314I-23*
G01*
Y2823D02*
G75*
G02X3361I23D01*
G01*
G75*
G02X3314I-23*
G01*
Y3063D02*
G75*
G02X3361I23D01*
G01*
G75*
G02X3314I-23*
G01*
X4545Y231D02*
G75*
G02X4616I36D01*
G01*
G75*
G02X4545I-36*
G01*
X4576Y600D02*
G75*
G02X4655I40D01*
G01*
G75*
G02X4576I-40*
G01*
X4664Y1428D02*
G75*
G02X4711I23D01*
G01*
G75*
G02X4664I-23*
G01*
Y1673D02*
G75*
G02X4711I23D01*
G01*
G75*
G02X4664I-23*
G01*
Y1918D02*
G75*
G02X4711I23D01*
G01*
G75*
G02X4664I-23*
G01*
Y2158D02*
G75*
G02X4711I23D01*
G01*
G75*
G02X4664I-23*
G01*
Y2648D02*
G75*
G02X4711I23D01*
G01*
G75*
G02X4664I-23*
G01*
Y2893D02*
G75*
G02X4711I23D01*
G01*
G75*
G02X4664I-23*
G01*
Y3138D02*
G75*
G02X4711I23D01*
G01*
G75*
G02X4664I-23*
G01*
X4669Y2408D02*
G75*
G02X4716I23D01*
G01*
G75*
G02X4669I-23*
G01*
X4677Y522D02*
G75*
G02X4756I40D01*
G01*
G75*
G02X4677I-40*
G01*
X4679Y675D02*
G75*
G02X4758I40D01*
G01*
G75*
G02X4679I-40*
G01*
X4778Y599D02*
G75*
G02X4857I40D01*
G01*
G75*
G02X4778I-40*
G01*
X5426Y953D02*
G75*
G02X5505I40D01*
G01*
G75*
G02X5426I-40*
G01*
X5427Y2528D02*
G75*
G02X5498I36D01*
G01*
G75*
G02X5427I-36*
G01*
Y2683D02*
G75*
G02X5498I36D01*
G01*
G75*
G02X5427I-36*
G01*
X5430Y795D02*
G75*
G02X5509I40D01*
G01*
G75*
G02X5430I-40*
G01*
X5432Y873D02*
G75*
G02X5503I36D01*
G01*
G75*
G02X5432I-36*
G01*
Y1033D02*
G75*
G02X5503I36D01*
G01*
G75*
G02X5432I-36*
G01*
Y1268D02*
G75*
G02X5503I36D01*
G01*
G75*
G02X5432I-36*
G01*
X5444Y1423D02*
G75*
G02X5491I23D01*
G01*
G75*
G02X5444I-23*
G01*
X5449Y1739D02*
G75*
G02X5504I28D01*
G01*
G75*
G02X5449I-28*
G01*
X5479Y278D02*
G75*
G02X5777I149D01*
G01*
G75*
G02X5479I-149*
G01*
Y3203D02*
G75*
G02X5777I149D01*
G01*
G75*
G02X5479I-149*
G01*
X5563Y2369D02*
G75*
G02X5618I28D01*
G01*
G75*
G02X5563I-28*
G01*
X5564Y1503D02*
G75*
G02X5619I28D01*
G01*
G75*
G02X5564I-28*
G01*
X5564Y2213D02*
G75*
G02X5619I28D01*
G01*
G75*
G02X5564I-28*
G01*
Y2449D02*
G75*
G02X5619I28D01*
G01*
G75*
G02X5564I-28*
G01*
X5565Y1110D02*
G75*
G02X5620I28D01*
G01*
G75*
G02X5565I-28*
G01*
Y1188D02*
G75*
G02X5620I28D01*
G01*
G75*
G02X5565I-28*
G01*
Y1897D02*
G75*
G02X5620I28D01*
G01*
G75*
G02X5565I-28*
G01*
Y1976D02*
G75*
G02X5620I28D01*
G01*
G75*
G02X5565I-28*
G01*
X5565Y2054D02*
G75*
G02X5620I28D01*
G01*
G75*
G02X5565I-28*
G01*
Y2133D02*
G75*
G02X5620I28D01*
G01*
G75*
G02X5565I-28*
G01*
Y2291D02*
G75*
G02X5620I28D01*
G01*
G75*
G02X5565I-28*
G01*
Y2606D02*
G75*
G02X5620I28D01*
G01*
G75*
G02X5565I-28*
G01*
X5566Y1347D02*
G75*
G02X5621I28D01*
G01*
G75*
G02X5566I-28*
G01*
Y1818D02*
G75*
G02X5621I28D01*
G01*
G75*
G02X5566I-28*
G01*
X5599Y1583D02*
G75*
G02X5654I28D01*
G01*
G75*
G02X5599I-28*
G01*
Y1661D02*
G75*
G02X5654I28D01*
G01*
G75*
G02X5599I-28*
G01*
Y1740D02*
G75*
G02X5654I28D01*
G01*
G75*
G02X5599I-28*
G01*
X5635Y1110D02*
G75*
G02X5690I28D01*
G01*
G75*
G02X5635I-28*
G01*
Y1188D02*
G75*
G02X5690I28D01*
G01*
G75*
G02X5635I-28*
G01*
Y1425D02*
G75*
G02X5690I28D01*
G01*
G75*
G02X5635I-28*
G01*
Y1503D02*
G75*
G02X5690I28D01*
G01*
G75*
G02X5635I-28*
G01*
Y1897D02*
G75*
G02X5690I28D01*
G01*
G75*
G02X5635I-28*
G01*
Y1976D02*
G75*
G02X5690I28D01*
G01*
G75*
G02X5635I-28*
G01*
X5635Y2054D02*
G75*
G02X5690I28D01*
G01*
G75*
G02X5635I-28*
G01*
Y2133D02*
G75*
G02X5690I28D01*
G01*
G75*
G02X5635I-28*
G01*
Y2212D02*
G75*
G02X5690I28D01*
G01*
G75*
G02X5635I-28*
G01*
Y2291D02*
G75*
G02X5690I28D01*
G01*
G75*
G02X5635I-28*
G01*
Y2369D02*
G75*
G02X5690I28D01*
G01*
G75*
G02X5635I-28*
G01*
Y2448D02*
G75*
G02X5690I28D01*
G01*
G75*
G02X5635I-28*
G01*
Y2606D02*
G75*
G02X5690I28D01*
G01*
G75*
G02X5635I-28*
G01*
X5744Y795D02*
G75*
G02X5823I40D01*
G01*
G75*
G02X5744I-40*
G01*
X5751Y953D02*
G75*
G02X5830I40D01*
G01*
G75*
G02X5751I-40*
G01*
X5751Y1543D02*
G75*
G02X5806I28D01*
G01*
G75*
G02X5751I-28*
G01*
Y1617D02*
G75*
G02X5806I28D01*
G01*
G75*
G02X5751I-28*
G01*
X5752Y873D02*
G75*
G02X5823I36D01*
G01*
G75*
G02X5752I-36*
G01*
Y1033D02*
G75*
G02X5823I36D01*
G01*
G75*
G02X5752I-36*
G01*
Y1268D02*
G75*
G02X5823I36D01*
G01*
G75*
G02X5752I-36*
G01*
Y1348D02*
G75*
G02X5823I36D01*
G01*
G75*
G02X5752I-36*
G01*
X5752Y1700D02*
G75*
G02X5807I28D01*
G01*
G75*
G02X5752I-28*
G01*
X5757Y2528D02*
G75*
G02X5828I36D01*
G01*
G75*
G02X5757I-36*
G01*
Y2683D02*
G75*
G02X5828I36D01*
G01*
G75*
G02X5757I-36*
G01*
X58Y278D02*
G36*
Y231D01*
X136*
G75*
G02X129Y278I141J47*
G01*
X58*
G37*
X129D02*
G36*
G75*
G02X149Y353I149D01*
G01*
X58*
Y278*
X129*
G37*
X427D02*
G36*
G75*
G02X419Y231I-149D01*
G01*
X2367*
G75*
G02X2369Y278I35J22*
G01*
X427*
G37*
X2369D02*
G36*
G75*
G02X2403Y294I33J-25D01*
G01*
G75*
G02X2436Y278J-42*
G01*
X2975*
G75*
G02X3003Y290I28J-25*
G01*
G75*
G02X3030Y278J-38*
G01*
X5479*
G75*
G02X5499Y353I149*
G01*
X3044*
G75*
G02X3003Y311I-42*
G01*
G75*
G02X2961Y353J42*
G01*
X2444*
G75*
G02X2403Y311I-42*
G01*
G75*
G02X2361Y353J42*
G01*
X406*
G75*
G02X427Y278I-129J-75*
G01*
X2369*
G37*
X2436D02*
G36*
G75*
G02X2438Y231I-33J-25D01*
G01*
X2972*
G75*
G02X2975Y278I30J22*
G01*
X2436*
G37*
X3030D02*
G36*
G75*
G02X3033Y231I-28J-25D01*
G01*
X4545*
G75*
G02X4616I36*
G01*
X5486*
G75*
G02X5479Y278I141J47*
G01*
X3030*
G37*
X5777D02*
G36*
G75*
G02X5769Y231I-149D01*
G01*
X5848*
Y278*
X5777*
G37*
X5848D02*
G36*
Y353D01*
X5756*
G75*
G02X5777Y278I-129J-75*
G01*
X5848*
G37*
X58Y3203D02*
G36*
Y3168D01*
X133*
G75*
G02X129Y3203I145J35*
G01*
X58*
G37*
X129D02*
G36*
G75*
G02X131Y3228I149J0D01*
G01*
X58*
Y3203*
X129*
G37*
X427D02*
G36*
G75*
G02X422Y3168I-149D01*
G01*
X480*
G75*
G02X535I28*
G01*
X733*
Y3203*
X427*
G37*
X733D02*
G36*
Y3228D01*
X701*
G75*
G02X654I-23*
G01*
X424*
G75*
G02X427Y3203I-147J-25*
G01*
X733*
G37*
X1903D02*
G36*
Y3168D01*
X2125*
G75*
G02X2114Y3188I12J20*
G01*
G75*
G02X2119Y3203I23*
G01*
X1903*
G37*
X2119D02*
G36*
G75*
G02X2156I18J-15D01*
G01*
X2608*
G75*
G02X2602Y3217I18J15*
G01*
G75*
G02X2605Y3228I23*
G01*
X1951*
G75*
G02X1903Y3231I-23J15*
G01*
Y3203*
X2119*
G37*
X2156D02*
G36*
G75*
G02X2161Y3188I-18J-15D01*
G01*
G75*
G02X2150Y3168I-23*
G01*
X3428*
Y3203*
X2803*
G75*
G02X2769I-17J16*
G01*
X2644*
G75*
G02X2608I-18J15*
G01*
X2156*
G37*
X2769D02*
G36*
G75*
G02X2762Y3219I17J16D01*
G01*
G75*
G02X2764Y3228I23J0*
G01*
X2647*
G75*
G02X2649Y3217I-21J-10*
G01*
G75*
G02X2644Y3203I-23*
G01*
X2769*
G37*
X3428D02*
G36*
Y3228D01*
X2807*
G75*
G02X2809Y3219I-22J-9*
G01*
G75*
G02X2803Y3203I-23*
G01*
X3428*
G37*
X4603D02*
G36*
Y3168D01*
X5483*
G75*
G02X5479Y3203I145J35*
G01*
X4603*
G37*
X5479D02*
G36*
G75*
G02X5481Y3228I149J0D01*
G01*
X4603*
Y3203*
X5479*
G37*
X5777D02*
G36*
G75*
G02X5772Y3168I-149D01*
G01*
X5848*
Y3203*
X5777*
G37*
X5848D02*
G36*
Y3228D01*
X5774*
G75*
G02X5777Y3203I-147J-25*
G01*
X5848*
G37*
X58Y1418D02*
G36*
Y1298D01*
X484*
G75*
G02X531I23*
G01*
X733*
Y1418*
X535*
G75*
G02X480I-28*
G01*
X58*
G37*
X480D02*
G36*
G75*
G02X535I28D01*
G01*
X733*
Y1478*
X701*
G75*
G02X654I-23*
G01*
X58*
Y1418*
X480*
G37*
X1903D02*
G36*
Y1353D01*
X2361*
G75*
G02X2403Y1394I42*
G01*
G75*
G02X2444Y1353J-42*
G01*
X2961*
G75*
G02X3003Y1394I42*
G01*
G75*
G02X3044Y1353J-42*
G01*
X3319*
G75*
G02X3314Y1368I18J15*
G01*
G75*
G02X3361I23*
G01*
G75*
G02X3356Y1353I-23*
G01*
X3428*
Y1418*
X3025*
G75*
G02X3003Y1411I-22J35*
G01*
G75*
G02X2980Y1418J42*
G01*
X2425*
G75*
G02X2403Y1411I-22J35*
G01*
G75*
G02X2380Y1418J42*
G01*
X2137*
G75*
G02X2113I-12J20*
G01*
X1903*
G37*
X2113D02*
G36*
G75*
G02X2102Y1438I12J20D01*
G01*
G75*
G02X2149I23*
G01*
G75*
G02X2137Y1418I-23*
G01*
X2380*
G75*
G02X2369Y1478I22J35*
G01*
X1903*
Y1418*
X2113*
G37*
X2980D02*
G36*
G75*
G02X2969Y1478I22J35D01*
G01*
X2436*
G75*
G02X2425Y1418I-33J-25*
G01*
X2980*
G37*
X3428D02*
G36*
Y1478D01*
X3036*
G75*
G02X3025Y1418I-33J-25*
G01*
X3428*
G37*
X4603D02*
G36*
Y1353D01*
X5567*
G75*
G02X5621I27J-6*
G01*
X5752*
G75*
G02X5823I35J-5*
G01*
X5848*
Y1418*
X5689*
G75*
G02X5636I-26J8*
G01*
X5490*
G75*
G02X5445I-23J5*
G01*
X4709*
G75*
G02X4666I-21J10*
G01*
X4603*
G37*
X4666D02*
G36*
G75*
G02X4664Y1428I21J10D01*
G01*
G75*
G02X4711I23*
G01*
G75*
G02X4709Y1418I-23J0*
G01*
X5445*
G75*
G02X5444Y1423I23J5*
G01*
G75*
G02X5491I23*
G01*
G75*
G02X5490Y1418I-23J0*
G01*
X5636*
G75*
G02X5635Y1425I26J8*
G01*
G75*
G02X5690I28*
G01*
G75*
G02X5689Y1418I-28J0*
G01*
X5848*
Y1478*
X5673*
G75*
G02X5651I-11J25*
G01*
X5602*
G75*
G02X5580I-11J25*
G01*
X4603*
Y1418*
X4666*
G37*
X58Y1668D02*
G36*
Y1553D01*
X484*
G75*
G02X531I23*
G01*
X733*
Y1668*
X535*
G75*
G02X480I-28*
G01*
X58*
G37*
X480D02*
G36*
G75*
G02X535I28D01*
G01*
X733*
Y1728*
X701*
G75*
G02X654I-23*
G01*
X58*
Y1668*
X480*
G37*
X1903D02*
G36*
Y1613D01*
X2391*
G75*
G02X2364Y1668I11J40*
G01*
X2140*
G75*
G02X2115I-12J20*
G01*
X1903*
G37*
X2115D02*
G36*
G75*
G02X2104Y1688I12J20D01*
G01*
G75*
G02X2107Y1700I23J0*
G01*
X1903*
Y1668*
X2115*
G37*
X2364D02*
G36*
G75*
G02X2403Y1694I39J-15D01*
G01*
G75*
G02X2441Y1668J-42*
G01*
X2964*
G75*
G02X3003Y1694I39J-15*
G01*
G75*
G02X3041Y1668J-42*
G01*
X3428*
Y1700*
X2148*
G75*
G02X2151Y1688I-20J-12*
G01*
G75*
G02X2140Y1668I-23*
G01*
X2364*
G37*
X2441D02*
G36*
G75*
G02X2414Y1613I-39J-15D01*
G01*
X2991*
G75*
G02X2964Y1668I11J40*
G01*
X2441*
G37*
X3041D02*
G36*
G75*
G02X3014Y1613I-39J-15D01*
G01*
X3314*
G75*
G02X3361I23*
G01*
X3428*
Y1668*
X3041*
G37*
X4603D02*
G36*
Y1613D01*
X5751*
G75*
G02X5751Y1617I27J5*
G01*
G75*
G02X5806I28*
G01*
G75*
G02X5805Y1613I-28J0*
G01*
X5848*
Y1668*
X5653*
G75*
G02X5654Y1661I-27J-6*
G01*
G75*
G02X5599I-28*
G01*
G75*
G02X5599Y1668I28J0*
G01*
X4710*
G75*
G02X4665I-23J5*
G01*
X4603*
G37*
X4665D02*
G36*
G75*
G02X4664Y1673I23J5D01*
G01*
G75*
G02X4711I23*
G01*
G75*
G02X4710Y1668I-23J0*
G01*
X5599*
G75*
G02X5653I27J-6*
G01*
X5848*
Y1700*
X5807*
G75*
G02X5752I-28*
G01*
X4603*
Y1668*
X4665*
G37*
X58Y1918D02*
G36*
Y1803D01*
X484*
G75*
G02X531I23*
G01*
X733*
Y1918*
X535*
G75*
G02X480I-28*
G01*
X58*
G37*
X480D02*
G36*
G75*
G02X535I28D01*
G01*
X733*
Y1978*
X701*
G75*
G02X654I-23*
G01*
X58*
Y1918*
X480*
G37*
X1903D02*
G36*
Y1853D01*
X2361*
G75*
G02X2403Y1894I42*
G01*
G75*
G02X2444Y1853J-42*
G01*
X2961*
G75*
G02X3003Y1894I42*
G01*
G75*
G02X3044Y1853J-42*
G01*
X3314*
G75*
G02X3361I23*
G01*
X3428*
Y1918*
X3025*
G75*
G02X3003Y1911I-22J35*
G01*
G75*
G02X2980Y1918J42*
G01*
X2425*
G75*
G02X2403Y1911I-22J35*
G01*
G75*
G02X2380Y1918J42*
G01*
X2140*
G75*
G02X2115I-12J20*
G01*
X1903*
G37*
X2115D02*
G36*
G75*
G02X2104Y1938I12J20D01*
G01*
G75*
G02X2151I23*
G01*
G75*
G02X2140Y1918I-23*
G01*
X2380*
G75*
G02X2369Y1978I22J35*
G01*
X1903*
Y1918*
X2115*
G37*
X2980D02*
G36*
G75*
G02X2969Y1978I22J35D01*
G01*
X2436*
G75*
G02X2425Y1918I-33J-25*
G01*
X2980*
G37*
X3428D02*
G36*
Y1978D01*
X3036*
G75*
G02X3025Y1918I-33J-25*
G01*
X3428*
G37*
X4603D02*
G36*
Y1803D01*
X5571*
G75*
G02X5566Y1818I22J16*
G01*
G75*
G02X5621I28*
G01*
G75*
G02X5616Y1803I-28*
G01*
X5848*
Y1918*
X5681*
G75*
G02X5690Y1897I-18J-20*
G01*
G75*
G02X5635I-28*
G01*
G75*
G02X5644Y1918I28*
G01*
X5611*
G75*
G02X5620Y1897I-18J-20*
G01*
G75*
G02X5565I-28*
G01*
G75*
G02X5574Y1918I28*
G01*
X4711*
G75*
G02X4664I-23*
G01*
X4603*
G37*
X4664D02*
G36*
G75*
G02X4711I23D01*
G01*
X5574*
G75*
G02X5611I18J-20*
G01*
X5644*
G75*
G02X5681I18J-20*
G01*
X5848*
Y1978*
X5690*
G75*
G02X5690Y1976I-27J-2*
G01*
G75*
G02X5635I-28*
G01*
G75*
G02X5635Y1978I28J0*
G01*
X5620*
G75*
G02X5620Y1976I-27J-2*
G01*
G75*
G02X5565I-28*
G01*
G75*
G02X5565Y1978I28J0*
G01*
X4603*
Y1918*
X4664*
G37*
X58Y2168D02*
G36*
Y2053D01*
X484*
G75*
G02X531I23*
G01*
X733*
Y2168*
X535*
G75*
G02X480I-28*
G01*
X58*
G37*
X480D02*
G36*
G75*
G02X535I28D01*
G01*
X733*
Y2228*
X701*
G75*
G02X654I-23*
G01*
X58*
Y2168*
X480*
G37*
X1903D02*
G36*
Y2133D01*
X2366*
G75*
G02X2364Y2168I37J20*
G01*
X2140*
G75*
G02X2115I-12J20*
G01*
X1903*
G37*
X2115D02*
G36*
G75*
G02X2104Y2188I12J20D01*
G01*
G75*
G02X2151I23*
G01*
G75*
G02X2140Y2168I-23*
G01*
X2364*
G75*
G02X2403Y2194I39J-15*
G01*
G75*
G02X2441Y2168J-42*
G01*
X2964*
G75*
G02X3003Y2194I39J-15*
G01*
G75*
G02X3041Y2168J-42*
G01*
X3428*
Y2228*
X3036*
G75*
G02X3003Y2211I-33J25*
G01*
G75*
G02X2969Y2228J42*
G01*
X2436*
G75*
G02X2403Y2211I-33J25*
G01*
G75*
G02X2369Y2228J42*
G01*
X1903*
Y2168*
X2115*
G37*
X2441D02*
G36*
G75*
G02X2439Y2133I-39J-15D01*
G01*
X2966*
G75*
G02X2964Y2168I37J20*
G01*
X2441*
G37*
X3041D02*
G36*
G75*
G02X3039Y2133I-39J-15D01*
G01*
X3428*
Y2168*
X3041*
G37*
X4603D02*
G36*
Y2133D01*
X5565*
G75*
G02X5620I28*
G01*
X5635*
Y2133*
G75*
G02X5690I28*
G01*
Y2133*
X5848*
Y2168*
X4709*
G75*
G02X4711Y2158I-21J-10*
G01*
G75*
G02X4664I-23*
G01*
G75*
G02X4666Y2168I23J0*
G01*
X4603*
G37*
X4666D02*
G36*
G75*
G02X4709I21J-10D01*
G01*
X5848*
Y2228*
X5685*
G75*
G02X5690Y2212I-23J-16*
G01*
G75*
G02X5635I-28*
G01*
G75*
G02X5640Y2228I28J0*
G01*
X5615*
G75*
G02X5619Y2213I-23J-15*
G01*
G75*
G02X5564I-28*
G01*
G75*
G02X5569Y2228I28*
G01*
X4603*
Y2168*
X4666*
G37*
X58Y2418D02*
G36*
Y2297D01*
X484*
G75*
G02X531I23*
G01*
X733*
Y2418*
X535*
G75*
G02X480I-28*
G01*
X58*
G37*
X480D02*
G36*
G75*
G02X535I28D01*
G01*
X733*
Y2478*
X701*
G75*
G02X654I-23*
G01*
X58*
Y2418*
X480*
G37*
X1903D02*
G36*
Y2353D01*
X2361*
G75*
G02X2403Y2394I42*
G01*
G75*
G02X2444Y2353J-42*
G01*
X2961*
G75*
G02X3003Y2394I42*
G01*
G75*
G02X3044Y2353J-42*
G01*
X3319*
G75*
G02X3356I18J-15*
G01*
X3428*
Y2418*
X3025*
G75*
G02X3003Y2411I-22J35*
G01*
G75*
G02X2980Y2418J42*
G01*
X2425*
G75*
G02X2403Y2411I-22J35*
G01*
G75*
G02X2380Y2418J42*
G01*
X2142*
G75*
G02X2118I-12J20*
G01*
X1903*
G37*
X2118D02*
G36*
G75*
G02X2107Y2438I12J20D01*
G01*
G75*
G02X2109Y2449I23J0*
G01*
X1903*
Y2418*
X2118*
G37*
X2380D02*
G36*
G75*
G02X2361Y2449I22J35D01*
G01*
X2151*
G75*
G02X2154Y2438I-21J-11*
G01*
G75*
G02X2142Y2418I-23*
G01*
X2380*
G37*
X2980D02*
G36*
G75*
G02X2961Y2449I22J35D01*
G01*
X2444*
G75*
G02X2425Y2418I-41J4*
G01*
X2980*
G37*
X3428D02*
G36*
Y2449D01*
X3044*
G75*
G02X3025Y2418I-41J4*
G01*
X3428*
G37*
X4603D02*
G36*
Y2353D01*
X5568*
G75*
G02X5563Y2369I22J16*
G01*
G75*
G02X5618I28*
G01*
G75*
G02X5613Y2353I-28*
G01*
X5641*
G75*
G02X5635Y2369I22J17*
G01*
G75*
G02X5690I28*
G01*
G75*
G02X5684Y2353I-28*
G01*
X5848*
Y2418*
X4714*
G75*
G02X4716Y2408I-21J-10*
G01*
G75*
G02X4669I-23*
G01*
G75*
G02X4671Y2418I23J0*
G01*
X4603*
G37*
X4671D02*
G36*
G75*
G02X4714I21J-10D01*
G01*
X5848*
Y2449*
X5690*
Y2448*
G75*
G02X5635I-28*
G01*
Y2449*
X5619*
G75*
G02X5564I-28*
G01*
X4603*
Y2418*
X4671*
G37*
X58Y2668D02*
G36*
Y2553D01*
X484*
G75*
G02X531I23*
G01*
X733*
Y2668*
X535*
G75*
G02X480I-28*
G01*
X58*
G37*
X480D02*
G36*
G75*
G02X535I28D01*
G01*
X733*
Y2728*
X701*
G75*
G02X654I-23*
G01*
X58*
Y2668*
X480*
G37*
X1903D02*
G36*
Y2583D01*
X2104*
G75*
G02X2151I23J-15*
G01*
X2374*
G75*
G02X2403Y2594I29J-30*
G01*
G75*
G02X2431Y2583J-42*
G01*
X2974*
G75*
G02X3003Y2594I29J-30*
G01*
G75*
G02X3031Y2583J-42*
G01*
X3314*
G75*
G02X3361I23*
G01*
X3428*
Y2668*
X2140*
G75*
G02X2115I-12J20*
G01*
X1903*
G37*
X2115D02*
G36*
G75*
G02X2104Y2688I12J20D01*
G01*
G75*
G02X2151I23*
G01*
G75*
G02X2140Y2668I-23*
G01*
X3428*
Y2753*
X1981*
G75*
G02X1934I-23*
G01*
X1903*
Y2668*
X2115*
G37*
X4603D02*
G36*
Y2583D01*
X5578*
G75*
G02X5565Y2606I15J23*
G01*
G75*
G02X5620I28*
G01*
G75*
G02X5608Y2583I-28*
G01*
X5648*
G75*
G02X5635Y2606I15J23*
G01*
G75*
G02X5690I28*
G01*
G75*
G02X5677Y2583I-28*
G01*
X5848*
Y2668*
X5825*
G75*
G02X5760I-32J15*
G01*
X5495*
G75*
G02X5430I-32J15*
G01*
X4700*
G75*
G02X4711Y2648I-12J-20*
G01*
G75*
G02X4664I-23*
G01*
G75*
G02X4675Y2668I23*
G01*
X4603*
G37*
X4675D02*
G36*
G75*
G02X4700I12J-20D01*
G01*
X5430*
G75*
G02X5427Y2683I32J15*
G01*
G75*
G02X5498I36*
G01*
G75*
G02X5495Y2668I-36J0*
G01*
X5760*
G75*
G02X5757Y2683I32J15*
G01*
G75*
G02X5828I36*
G01*
G75*
G02X5825Y2668I-36J0*
G01*
X5848*
Y2880*
X4708*
G75*
G02X4667I-20J12*
G01*
X4603*
Y2668*
X4675*
G37*
X58Y2918D02*
G36*
Y2803D01*
X484*
G75*
G02X531I23*
G01*
X733*
Y2918*
X535*
G75*
G02X480I-28*
G01*
X58*
G37*
X480D02*
G36*
G75*
G02X535I28D01*
G01*
X733*
Y2978*
X701*
G75*
G02X654I-23*
G01*
X58*
Y2918*
X480*
G37*
X1903D02*
G36*
Y2880D01*
X2598*
G75*
G02X2653I28*
G01*
X3428*
Y2918*
X2150*
G75*
G02X2125I-12J20*
G01*
X1903*
G37*
X2125D02*
G36*
G75*
G02X2114Y2938I12J20D01*
G01*
G75*
G02X2161I23*
G01*
G75*
G02X2150Y2918I-23*
G01*
X3428*
Y3008*
X1991*
G75*
G02X1944I-23*
G01*
X1903*
Y2918*
X2125*
G37*
X58Y3168D02*
G36*
Y3138D01*
X143*
G75*
G02X133Y3168I134J65*
G01*
X58*
G37*
X422D02*
G36*
G75*
G02X412Y3138I-145J35D01*
G01*
X733*
Y3168*
X535*
G75*
G02X480I-28*
G01*
X422*
G37*
X1903D02*
G36*
Y3048D01*
X2119*
G75*
G02X2110Y3068I19J20*
G01*
G75*
G02X2165I28*
G01*
G75*
G02X2156Y3048I-28*
G01*
X3319*
G75*
G02X3314Y3063I18J15*
G01*
G75*
G02X3361I23*
G01*
G75*
G02X3356Y3048I-23*
G01*
X3428*
Y3168*
X2150*
G75*
G02X2125I-12J20*
G01*
X1903*
G37*
X4603D02*
G36*
Y3138D01*
X4664*
G75*
G02X4711I23*
G01*
X5493*
G75*
G02X5483Y3168I134J65*
G01*
X4603*
G37*
X5772D02*
G36*
G75*
G02X5762Y3138I-145J35D01*
G01*
X5848*
Y3168*
X5772*
G37*
X58Y1298D02*
G36*
Y1242D01*
X675*
G75*
G02X730I28*
G01*
X733*
Y1298*
X531*
G75*
G02X484I-23*
G01*
X58*
G37*
X1903D02*
G36*
Y1242D01*
X1939*
G75*
G02X1934Y1258I18J15*
G01*
G75*
G02X1981I23*
G01*
G75*
G02X1976Y1242I-23*
G01*
X2362*
G75*
G02X2403Y1294I40J10*
G01*
G75*
G02X2443Y1242J-42*
G01*
X2962*
G75*
G02X3003Y1294I40J10*
G01*
G75*
G02X3043Y1242J-42*
G01*
X3428*
Y1298*
X2146*
G75*
G02X2114I-16J23*
G01*
X1903*
G37*
X2114D02*
G36*
G75*
G02X2103Y1320I16J23D01*
G01*
G75*
G02X2158I28*
G01*
G75*
G02X2146Y1298I-28*
G01*
X3428*
Y1353*
X3356*
G75*
G02X3319I-18J15*
G01*
X3044*
G75*
G02X3003Y1311I-42*
G01*
G75*
G02X2961Y1353J42*
G01*
X2444*
G75*
G02X2403Y1311I-42*
G01*
G75*
G02X2361Y1353J42*
G01*
X1903*
Y1298*
X2114*
G37*
X4603D02*
G36*
Y1242D01*
X5442*
G75*
G02X5432Y1268I25J25*
G01*
G75*
G02X5449Y1298I36*
G01*
X4603*
G37*
X5449D02*
G36*
G75*
G02X5486I19J-30D01*
G01*
X5769*
G75*
G02X5806I19J-30*
G01*
X5848*
Y1353*
X5823*
G75*
G02X5823Y1348I-35J-5*
G01*
G75*
G02X5752I-36*
G01*
G75*
G02X5752Y1353I36J0*
G01*
X5621*
G75*
G02X5621Y1347I-27J-6*
G01*
G75*
G02X5566I-28*
G01*
G75*
G02X5567Y1353I27*
G01*
X4603*
Y1298*
X5449*
G37*
X5486D02*
G36*
G75*
G02X5503Y1268I-19J-30D01*
G01*
G75*
G02X5493Y1242I-36*
G01*
X5762*
G75*
G02X5752Y1268I25J25*
G01*
G75*
G02X5769Y1298I36*
G01*
X5486*
G37*
X5806D02*
G36*
G75*
G02X5823Y1268I-19J-30D01*
G01*
G75*
G02X5813Y1242I-36*
G01*
X5848*
Y1298*
X5806*
G37*
X58Y1553D02*
G36*
Y1478D01*
X654*
G75*
G02X701I23*
G01*
X733*
Y1553*
X531*
G75*
G02X484I-23*
G01*
X58*
G37*
X1903D02*
G36*
Y1508D01*
X1929*
G75*
G02X1976I23*
G01*
X3428*
Y1553*
X3044*
G75*
G02X3003Y1511I-42*
G01*
G75*
G02X2961Y1553J42*
G01*
X2444*
G75*
G02X2403Y1511I-42*
G01*
G75*
G02X2361Y1553J42*
G01*
X2151*
G75*
G02X2104I-23J15*
G01*
X1903*
G37*
X2104D02*
G36*
G75*
G02X2100Y1568I23J15D01*
G01*
G75*
G02X2104Y1583I28*
G01*
X1903*
Y1553*
X2104*
G37*
X2361D02*
G36*
G75*
G02X2374Y1583I42D01*
G01*
X2151*
G75*
G02X2155Y1568I-23J-15*
G01*
G75*
G02X2151Y1553I-28J0*
G01*
X2361*
G37*
X2961D02*
G36*
G75*
G02X2974Y1583I42D01*
G01*
X2431*
G75*
G02X2444Y1553I-29J-30*
G01*
X2961*
G37*
X3428D02*
G36*
Y1583D01*
X3031*
G75*
G02X3044Y1553I-29J-30*
G01*
X3428*
G37*
X4603D02*
G36*
Y1508D01*
X5564*
G75*
G02X5618I27J-5*
G01*
X5635*
G75*
G02X5689I27J-5*
G01*
X5848*
Y1553*
X5804*
G75*
G02X5806Y1543I-26J-10*
G01*
G75*
G02X5751I-28*
G01*
G75*
G02X5753Y1553I28*
G01*
X4603*
G37*
X5753D02*
G36*
G75*
G02X5804I26J-10D01*
G01*
X5848*
Y1583*
X5654*
G75*
G02X5599I-28*
G01*
X4603*
Y1553*
X5753*
G37*
X58Y1803D02*
G36*
Y1728D01*
X654*
G75*
G02X701I23*
G01*
X733*
Y1803*
X531*
G75*
G02X484I-23*
G01*
X58*
G37*
X1903D02*
G36*
Y1758D01*
X1934*
G75*
G02X1981I23*
G01*
X2361*
G75*
G02X2403Y1794I41J-5*
G01*
G75*
G02X2444Y1758J-42*
G01*
X2961*
G75*
G02X3003Y1794I41J-5*
G01*
G75*
G02X3044Y1758J-42*
G01*
X3428*
Y1803*
X2151*
G75*
G02X2104I-23J15*
G01*
X1903*
G37*
X2104D02*
G36*
G75*
G02X2100Y1817I23J15D01*
G01*
G75*
G02X2155I28*
G01*
G75*
G02X2151Y1803I-28J0*
G01*
X3428*
Y1853*
X3361*
G75*
G02X3314I-23*
G01*
X3044*
G75*
G02X3003Y1811I-42*
G01*
G75*
G02X2961Y1853J42*
G01*
X2444*
G75*
G02X2403Y1811I-42*
G01*
G75*
G02X2361Y1853J42*
G01*
X1903*
Y1803*
X2104*
G37*
X4603D02*
G36*
Y1758D01*
X5456*
G75*
G02X5496I20J-19*
G01*
X5605*
G75*
G02X5647I21J-18*
G01*
X5848*
Y1803*
X5616*
G75*
G02X5571I-22J16*
G01*
X4603*
G37*
X58Y2053D02*
G36*
Y1978D01*
X654*
G75*
G02X701I23*
G01*
X733*
Y2053*
X531*
G75*
G02X484I-23*
G01*
X58*
G37*
X1903D02*
G36*
Y2008D01*
X1934*
G75*
G02X1981I23*
G01*
X3428*
Y2053*
X3044*
G75*
G02X3003Y2011I-42*
G01*
G75*
G02X2961Y2053J42*
G01*
X2444*
G75*
G02X2403Y2011I-42*
G01*
G75*
G02X2361Y2053J42*
G01*
X2151*
G75*
G02X2104I-23J15*
G01*
X1903*
G37*
X2104D02*
G36*
G75*
G02X2100Y2067I23J15D01*
G01*
G75*
G02X2155I28*
G01*
G75*
G02X2151Y2053I-28J0*
G01*
X2361*
G75*
G02X2403Y2094I42*
G01*
G75*
G02X2444Y2053J-42*
G01*
X2961*
G75*
G02X3003Y2094I42*
G01*
G75*
G02X3044Y2053J-42*
G01*
X3428*
Y2098*
X3361*
G75*
G02X3314I-23*
G01*
X1903*
Y2053*
X2104*
G37*
X4603D02*
G36*
Y1978D01*
X5565*
G75*
G02X5620I27J-2*
G01*
X5635*
G75*
G02X5690I27J-2*
G01*
X5848*
Y2053*
X5690*
G75*
G02X5635I-27J2*
G01*
X5620*
G75*
G02X5566I-27J2*
G01*
X4603*
G37*
X5566D02*
G36*
G75*
G02X5565Y2054I27J2D01*
G01*
G75*
G02X5620I28*
G01*
G75*
G02X5620Y2053I-28J0*
G01*
X5635*
G75*
G02X5635Y2054I27J2*
G01*
G75*
G02X5690I28*
G01*
G75*
G02X5690Y2053I-28J0*
G01*
X5848*
Y2133*
X5690*
G75*
G02X5635I-28J0*
G01*
X5620*
G75*
G02X5565I-28*
G01*
X4603*
Y2053*
X5566*
G37*
X58Y2297D02*
G36*
Y2228D01*
X654*
G75*
G02X701I23*
G01*
X733*
Y2297*
X531*
G75*
G02X484I-23*
G01*
X58*
G37*
X1903D02*
G36*
Y2258D01*
X1934*
G75*
G02X1981I23*
G01*
X2361*
G75*
G02X2403Y2294I41J-5*
G01*
G75*
G02X2444Y2258J-42*
G01*
X2961*
G75*
G02X3003Y2294I41J-5*
G01*
G75*
G02X3044Y2258J-42*
G01*
X3428*
Y2297*
X2146*
G75*
G02X2109I-19J20*
G01*
X1903*
G37*
X2109D02*
G36*
G75*
G02X2100Y2317I19J20D01*
G01*
G75*
G02X2155I28*
G01*
G75*
G02X2146Y2297I-28*
G01*
X3428*
Y2353*
X3356*
G75*
G02X3361Y2338I-18J-15*
G01*
G75*
G02X3314I-23*
G01*
G75*
G02X3319Y2353I23*
G01*
X3044*
G75*
G02X3003Y2311I-42*
G01*
G75*
G02X2961Y2353J42*
G01*
X2444*
G75*
G02X2403Y2311I-42*
G01*
G75*
G02X2361Y2353J42*
G01*
X1903*
Y2297*
X2109*
G37*
X4603D02*
G36*
Y2228D01*
X5569*
G75*
G02X5615I23J-15*
G01*
X5640*
G75*
G02X5685I23J-16*
G01*
X5848*
Y2297*
X5689*
G75*
G02X5690Y2291I-27J-7*
G01*
G75*
G02X5635I-28*
G01*
G75*
G02X5636Y2297I28J0*
G01*
X5620*
G75*
G02X5620Y2291I-27J-6*
G01*
G75*
G02X5565I-28*
G01*
G75*
G02X5566Y2297I27J0*
G01*
X4603*
G37*
X5566D02*
G36*
G75*
G02X5620I27J-6D01*
G01*
X5636*
G75*
G02X5689I27J-7*
G01*
X5848*
Y2353*
X5684*
G75*
G02X5641I-22J17*
G01*
X5613*
G75*
G02X5568I-22J16*
G01*
X4603*
Y2297*
X5566*
G37*
X58Y2553D02*
G36*
Y2478D01*
X654*
G75*
G02X701I23*
G01*
X733*
Y2553*
X531*
G75*
G02X484I-23*
G01*
X58*
G37*
X1903D02*
G36*
Y2503D01*
X1924*
G75*
G02X1971I23*
G01*
X3428*
Y2553*
X3044*
G75*
G02X3003Y2511I-42*
G01*
G75*
G02X2961Y2553J42*
G01*
X2444*
G75*
G02X2403Y2511I-42*
G01*
G75*
G02X2361Y2553J42*
G01*
X2151*
G75*
G02X2104I-23J15*
G01*
X1903*
G37*
X2104D02*
G36*
G75*
G02X2100Y2568I23J15D01*
G01*
G75*
G02X2104Y2583I28J0*
G01*
X1903*
Y2553*
X2104*
G37*
X2361D02*
G36*
G75*
G02X2374Y2583I42D01*
G01*
X2151*
G75*
G02X2155Y2568I-23J-15*
G01*
G75*
G02X2151Y2553I-28J0*
G01*
X2361*
G37*
X2961D02*
G36*
G75*
G02X2974Y2583I42D01*
G01*
X2431*
G75*
G02X2444Y2553I-29J-30*
G01*
X2961*
G37*
X3428D02*
G36*
Y2583D01*
X3361*
G75*
G02X3314I-23*
G01*
X3031*
G75*
G02X3044Y2553I-29J-30*
G01*
X3428*
G37*
X4603D02*
G36*
Y2503D01*
X5437*
G75*
G02X5427Y2528I25J25*
G01*
G75*
G02X5437Y2553I36*
G01*
X4603*
G37*
X5437D02*
G36*
G75*
G02X5488I25J-25D01*
G01*
X5767*
G75*
G02X5818I25J-25*
G01*
X5848*
Y2583*
X5677*
G75*
G02X5648I-15J23*
G01*
X5608*
G75*
G02X5578I-15J23*
G01*
X4603*
Y2553*
X5437*
G37*
X5488D02*
G36*
G75*
G02X5498Y2528I-25J-25D01*
G01*
G75*
G02X5488Y2503I-36*
G01*
X5767*
G75*
G02X5757Y2528I25J25*
G01*
G75*
G02X5767Y2553I36*
G01*
X5488*
G37*
X5818D02*
G36*
G75*
G02X5828Y2528I-25J-25D01*
G01*
G75*
G02X5818Y2503I-36*
G01*
X5848*
Y2553*
X5818*
G37*
X58Y2803D02*
G36*
Y2728D01*
X654*
G75*
G02X701I23*
G01*
X733*
Y2803*
X531*
G75*
G02X484I-23*
G01*
X58*
G37*
X1903D02*
G36*
Y2753D01*
X1934*
G75*
G02X1981I23*
G01*
X3428*
Y2803*
X3350*
G75*
G02X3325I-12J20*
G01*
X2161*
G75*
G02X2114I-23J15*
G01*
X1903*
G37*
X2114D02*
G36*
G75*
G02X2110Y2818I23J15D01*
G01*
G75*
G02X2165I28*
G01*
G75*
G02X2161Y2803I-28J0*
G01*
X3325*
G75*
G02X3314Y2823I12J20*
G01*
G75*
G02X3361I23*
G01*
G75*
G02X3350Y2803I-23*
G01*
X3428*
Y2880*
X2653*
G75*
G02X2598I-28*
G01*
X1903*
Y2803*
X2114*
G37*
X58Y3048D02*
G36*
Y2978D01*
X654*
G75*
G02X701I23*
G01*
X733*
Y3048*
X531*
G75*
G02X484I-23*
G01*
X58*
G37*
X484D02*
G36*
G75*
G02X531I23D01*
G01*
X733*
Y3138*
X412*
G75*
G02X143I-134J65*
G01*
X58*
Y3048*
X484*
G37*
X1903D02*
G36*
Y3008D01*
X1944*
G75*
G02X1991I23*
G01*
X3428*
Y3048*
X3356*
G75*
G02X3319I-18J15*
G01*
X2156*
G75*
G02X2119I-19J20*
G01*
X1903*
G37*
X2369Y1478D02*
G36*
G75*
G02X2403Y1494I33J-25D01*
G01*
G75*
G02X2436Y1478J-42*
G01*
X2969*
G75*
G02X3003Y1494I33J-25*
G01*
G75*
G02X3036Y1478J-42*
G01*
X3428*
Y1508*
X1976*
G75*
G02X1929I-23*
G01*
X1903*
Y1478*
X2369*
G37*
X5580D02*
G36*
G75*
G02X5564Y1503I11J25D01*
G01*
G75*
G02X5564Y1508I28J0*
G01*
X4603*
Y1478*
X5580*
G37*
X5651D02*
G36*
G75*
G02X5635Y1503I11J25D01*
G01*
G75*
G02X5635Y1508I28J0*
G01*
X5618*
G75*
G02X5619Y1503I-27J-5*
G01*
G75*
G02X5602Y1478I-28*
G01*
X5651*
G37*
X5848D02*
G36*
Y1508D01*
X5689*
G75*
G02X5690Y1503I-27J-5*
G01*
G75*
G02X5673Y1478I-28*
G01*
X5848*
G37*
X1903Y1728D02*
G36*
Y1700D01*
X2107*
G75*
G02X2148I20J-12*
G01*
X3428*
Y1728*
X3036*
G75*
G02X3003Y1711I-33J25*
G01*
G75*
G02X2969Y1728J42*
G01*
X2436*
G75*
G02X2403Y1711I-33J25*
G01*
G75*
G02X2369Y1728J42*
G01*
X1903*
G37*
X2369D02*
G36*
G75*
G02X2361Y1758I33J25D01*
G01*
X1981*
G75*
G02X1934I-23*
G01*
X1903*
Y1728*
X2369*
G37*
X2969D02*
G36*
G75*
G02X2961Y1758I33J25D01*
G01*
X2444*
G75*
G02X2436Y1728I-41J-5*
G01*
X2969*
G37*
X3428D02*
G36*
Y1758D01*
X3044*
G75*
G02X3036Y1728I-41J-5*
G01*
X3428*
G37*
X4603D02*
G36*
Y1700D01*
X5752*
G75*
G02X5807I28*
G01*
X5848*
Y1728*
X5651*
G75*
G02X5602I-25J12*
G01*
X5502*
G75*
G02X5451I-25J11*
G01*
X4603*
G37*
X5451D02*
G36*
G75*
G02X5449Y1739I25J11D01*
G01*
G75*
G02X5456Y1758I28*
G01*
X4603*
Y1728*
X5451*
G37*
X5602D02*
G36*
G75*
G02X5599Y1740I25J12D01*
G01*
G75*
G02X5605Y1758I28*
G01*
X5496*
G75*
G02X5504Y1739I-20J-19*
G01*
G75*
G02X5502Y1728I-28J0*
G01*
X5602*
G37*
X5848D02*
G36*
Y1758D01*
X5647*
G75*
G02X5654Y1740I-21J-18*
G01*
G75*
G02X5651Y1728I-28J0*
G01*
X5848*
G37*
X2369Y1978D02*
G36*
G75*
G02X2403Y1994I33J-25D01*
G01*
G75*
G02X2436Y1978J-42*
G01*
X2969*
G75*
G02X3003Y1994I33J-25*
G01*
G75*
G02X3036Y1978J-42*
G01*
X3428*
Y2008*
X1981*
G75*
G02X1934I-23*
G01*
X1903*
Y1978*
X2369*
G37*
Y2228D02*
G36*
G75*
G02X2361Y2258I33J25D01*
G01*
X1981*
G75*
G02X1934I-23*
G01*
X1903*
Y2228*
X2369*
G37*
X2969D02*
G36*
G75*
G02X2961Y2258I33J25D01*
G01*
X2444*
G75*
G02X2436Y2228I-41J-5*
G01*
X2969*
G37*
X3428D02*
G36*
Y2258D01*
X3044*
G75*
G02X3036Y2228I-41J-5*
G01*
X3428*
G37*
X1903Y2478D02*
G36*
Y2449D01*
X2109*
G75*
G02X2151I21J-11*
G01*
X2361*
G75*
G02X2369Y2478I41J4*
G01*
X1903*
G37*
X2369D02*
G36*
G75*
G02X2403Y2494I33J-25D01*
G01*
G75*
G02X2436Y2478J-42*
G01*
X2969*
G75*
G02X3003Y2494I33J-25*
G01*
G75*
G02X3036Y2478J-42*
G01*
X3428*
Y2503*
X1971*
G75*
G02X1924I-23*
G01*
X1903*
Y2478*
X2369*
G37*
X2436D02*
G36*
G75*
G02X2444Y2449I-33J-25D01*
G01*
X2961*
G75*
G02X2969Y2478I41J4*
G01*
X2436*
G37*
X3036D02*
G36*
G75*
G02X3044Y2449I-33J-25D01*
G01*
X3428*
Y2478*
X3036*
G37*
X131Y3228D02*
G36*
G75*
G02X424I147J-25D01*
G01*
X654*
G75*
G02X701I23*
G01*
X733*
Y3353*
X58*
Y3228*
X131*
G37*
X2605D02*
G36*
G75*
G02X2647I21J-10D01*
G01*
X2764*
G75*
G02X2807I22J-9*
G01*
X3428*
Y3353*
X1903*
Y3254*
G75*
G02X1955Y3243I25J-11*
G01*
G75*
G02X1951Y3228I-28J0*
G01*
X2605*
G37*
X5481D02*
G36*
G75*
G02X5774I147J-25D01*
G01*
X5848*
Y3353*
X4603*
Y3228*
X5481*
G37*
X58Y1242D02*
G36*
Y1053D01*
X2361*
G75*
G02X2403Y1094I42*
G01*
G75*
G02X2444Y1053J-42*
G01*
X2961*
G75*
G02X3003Y1094I42*
G01*
G75*
G02X3044Y1053J-42*
G01*
X5438*
G75*
G02X5497I29J-20*
G01*
X5758*
G75*
G02X5817I29J-20*
G01*
X5848*
Y1110*
X5690*
G75*
G02X5635I-28*
G01*
X5620*
G75*
G02X5565I-28*
G01*
X4603*
Y1077*
X3428*
Y1153*
X3044*
G75*
G02X3003Y1111I-42*
G01*
G75*
G02X2961Y1153J42*
G01*
X2444*
G75*
G02X2403Y1111I-42*
G01*
G75*
G02X2361Y1153J42*
G01*
X1903*
Y1073*
X733*
Y1242*
X730*
G75*
G02X675I-28*
G01*
X58*
G37*
X1903D02*
G36*
Y1188D01*
X2381*
G75*
G02X2403Y1194I21J-36*
G01*
G75*
G02X2424Y1188J-42*
G01*
X2981*
G75*
G02X3003Y1194I21J-36*
G01*
G75*
G02X3024Y1188J-42*
G01*
X3428*
Y1242*
X3043*
G75*
G02X3003Y1211I-40J10*
G01*
G75*
G02X2962Y1242J42*
G01*
X2443*
G75*
G02X2403Y1211I-40J10*
G01*
G75*
G02X2362Y1242J42*
G01*
X1976*
G75*
G02X1939I-18J15*
G01*
X1903*
G37*
X4603D02*
G36*
Y1188D01*
X5565*
G75*
G02X5620I28*
G01*
X5635*
G75*
G02X5690I28*
G01*
X5848*
Y1242*
X5813*
G75*
G02X5762I-25J25*
G01*
X5493*
G75*
G02X5442I-25J25*
G01*
X4603*
G37*
Y2503D02*
G36*
Y2449D01*
X5564*
G75*
G02X5619I28*
G01*
X5635*
G75*
G02X5690I28J0*
G01*
X5848*
Y2503*
X5818*
G75*
G02X5767I-25J25*
G01*
X5488*
G75*
G02X5437I-25J25*
G01*
X4603*
G37*
X58Y423D02*
G36*
Y353D01*
X149*
G75*
G02X243Y423I129J-75*
G01*
X58*
G37*
X243D02*
G36*
G75*
G02X312I34J-145D01*
G01*
X2067*
G75*
G02X2103Y458I36*
G01*
G75*
G02X2138Y423J-36*
G01*
X2374*
G75*
G02X2403Y494I29J30*
G01*
G75*
G02X2431Y423J-42*
G01*
X2974*
G75*
G02X3003Y494I29J30*
G01*
G75*
G02X3031Y423J-42*
G01*
X5593*
G75*
G02X5662I34J-145*
G01*
X5848*
Y553*
X4742*
G75*
G02X4756Y522I-25J-30*
G01*
G75*
G02X4677I-40*
G01*
G75*
G02X4691Y553I40*
G01*
X3044*
G75*
G02X3003Y511I-42*
G01*
G75*
G02X2961Y553J42*
G01*
X2444*
G75*
G02X2403Y511I-42*
G01*
G75*
G02X2361Y553J42*
G01*
X58*
Y423*
X243*
G37*
X312D02*
G36*
G75*
G02X406Y353I-34J-145D01*
G01*
X2361*
G75*
G02X2403Y394I42*
G01*
G75*
G02X2444Y353J-42*
G01*
X2961*
G75*
G02X3003Y394I42*
G01*
G75*
G02X3044Y353J-42*
G01*
X5499*
G75*
G02X5593Y423I129J-75*
G01*
X3031*
G75*
G02X3003Y411I-29J30*
G01*
G75*
G02X2974Y423J42*
G01*
X2431*
G75*
G02X2403Y411I-29J30*
G01*
G75*
G02X2374Y423J42*
G01*
X2138*
G75*
G02X2103Y387I-36*
G01*
G75*
G02X2067Y423J36*
G01*
X312*
G37*
X5662D02*
G36*
G75*
G02X5756Y353I-34J-145D01*
G01*
X5848*
Y423*
X5662*
G37*
X2361Y553D02*
G36*
G75*
G02X2403Y594I42D01*
G01*
G75*
G02X2444Y553J-42*
G01*
X2961*
G75*
G02X3003Y594I42*
G01*
G75*
G02X3044Y553J-42*
G01*
X4691*
G75*
G02X4742I25J-30*
G01*
X5848*
Y600*
X4857*
G75*
G02X4857Y599I-39J-1*
G01*
G75*
G02X4778I-40*
G01*
G75*
G02X4778Y600I39*
G01*
X4655*
G75*
G02X4576I-40*
G01*
X58*
Y553*
X2361*
G37*
X58Y653D02*
G36*
Y600D01*
X4576*
G75*
G02X4655I40*
G01*
X4778*
G75*
G02X4857I39J-1*
G01*
X5848*
Y653*
X4751*
G75*
G02X4685I-33J22*
G01*
X3044*
G75*
G02X3003Y611I-42*
G01*
G75*
G02X2961Y653J42*
G01*
X2444*
G75*
G02X2403Y611I-42*
G01*
G75*
G02X2361Y653J42*
G01*
X58*
G37*
X2361D02*
G36*
G75*
G02X2403Y694I42D01*
G01*
G75*
G02X2444Y653J-42*
G01*
X2961*
G75*
G02X3003Y694I42*
G01*
G75*
G02X3044Y653J-42*
G01*
X4685*
G75*
G02X4679Y675I33J22*
G01*
G75*
G02X4758I40*
G01*
G75*
G02X4751Y653I-40*
G01*
X5848*
Y753*
X3044*
G75*
G02X3003Y711I-42*
G01*
G75*
G02X2961Y753J42*
G01*
X2444*
G75*
G02X2403Y711I-42*
G01*
G75*
G02X2361Y753J42*
G01*
X58*
Y653*
X2361*
G37*
Y753D02*
G36*
G75*
G02X2403Y794I42D01*
G01*
G75*
G02X2444Y753J-42*
G01*
X2961*
G75*
G02X3003Y794I42*
G01*
G75*
G02X3044Y753J-42*
G01*
X5848*
Y795*
X5823*
G75*
G02X5744I-40*
G01*
X5509*
G75*
G02X5430I-40*
G01*
X58*
Y753*
X2361*
G37*
X58Y853D02*
G36*
Y795D01*
X5430*
G75*
G02X5509I40*
G01*
X5744*
G75*
G02X5823I40*
G01*
X5848*
Y853*
X5817*
G75*
G02X5758I-29J20*
G01*
X5497*
G75*
G02X5438I-29J20*
G01*
X3044*
G75*
G02X3003Y811I-42*
G01*
G75*
G02X2961Y853J42*
G01*
X2444*
G75*
G02X2403Y811I-42*
G01*
G75*
G02X2361Y853J42*
G01*
X58*
G37*
X2361D02*
G36*
G75*
G02X2403Y894I42D01*
G01*
G75*
G02X2444Y853J-42*
G01*
X2961*
G75*
G02X3003Y894I42*
G01*
G75*
G02X3044Y853J-42*
G01*
X5438*
G75*
G02X5432Y873I29J20*
G01*
G75*
G02X5503I36*
G01*
G75*
G02X5497Y853I-36*
G01*
X5758*
G75*
G02X5752Y873I29J20*
G01*
G75*
G02X5823I36*
G01*
G75*
G02X5817Y853I-36*
G01*
X5848*
Y953*
X5830*
G75*
G02X5751I-40*
G01*
X5505*
G75*
G02X5426I-40*
G01*
X3044*
G75*
G02X3003Y911I-42*
G01*
G75*
G02X2961Y953J42*
G01*
X2444*
G75*
G02X2403Y911I-42*
G01*
G75*
G02X2361Y953J42*
G01*
X58*
Y853*
X2361*
G37*
Y953D02*
G36*
G75*
G02X2403Y994I42D01*
G01*
G75*
G02X2444Y953J-42*
G01*
X2961*
G75*
G02X3003Y994I42*
G01*
G75*
G02X3044Y953J-42*
G01*
X5426*
G75*
G02X5505I40*
G01*
X5751*
G75*
G02X5830I40*
G01*
X5848*
Y1053*
X5817*
G75*
G02X5823Y1033I-29J-20*
G01*
G75*
G02X5752I-36*
G01*
G75*
G02X5758Y1053I36*
G01*
X5497*
G75*
G02X5503Y1033I-29J-20*
G01*
G75*
G02X5432I-36*
G01*
G75*
G02X5438Y1053I36*
G01*
X3044*
G75*
G02X3003Y1011I-42*
G01*
G75*
G02X2961Y1053J42*
G01*
X2444*
G75*
G02X2403Y1011I-42*
G01*
G75*
G02X2361Y1053J42*
G01*
X58*
Y953*
X2361*
G37*
Y1153D02*
G36*
G75*
G02X2381Y1188I42D01*
G01*
X1903*
Y1153*
X2361*
G37*
X2961D02*
G36*
G75*
G02X2981Y1188I42D01*
G01*
X2424*
G75*
G02X2444Y1153I-21J-36*
G01*
X2961*
G37*
X3428D02*
G36*
Y1188D01*
X3024*
G75*
G02X3044Y1153I-21J-36*
G01*
X3428*
G37*
X4667Y2880D02*
G36*
G75*
G02X4664Y2893I20J12D01*
G01*
G75*
G02X4711I23*
G01*
G75*
G02X4708Y2880I-23*
G01*
X5848*
Y3138*
X5762*
G75*
G02X5493I-134J65*
G01*
X4711*
G75*
G02X4664I-23*
G01*
X4603*
Y2880*
X4667*
G37*
X1903Y1613D02*
G36*
Y1583D01*
X2104*
G75*
G02X2151I23J-15*
G01*
X2374*
G75*
G02X2403Y1594I29J-30*
G01*
G75*
G02X2431Y1583J-42*
G01*
X2974*
G75*
G02X3003Y1594I29J-30*
G01*
G75*
G02X3031Y1583J-42*
G01*
X3428*
Y1613*
X3361*
G75*
G02X3314I-23*
G01*
X3014*
G75*
G02X3003Y1611I-11J40*
G01*
G75*
G02X2991Y1613J42*
G01*
X2414*
G75*
G02X2403Y1611I-11J40*
G01*
G75*
G02X2391Y1613J42*
G01*
X1903*
G37*
X4603D02*
G36*
Y1583D01*
X5599*
G75*
G02X5654I28*
G01*
X5848*
Y1613*
X5805*
G75*
G02X5751I-27J5*
G01*
X4603*
G37*
X3314Y2098D02*
G36*
G75*
G02X3361I23D01*
G01*
X3428*
Y2133*
X3039*
G75*
G02X3003Y2111I-37J20*
G01*
G75*
G02X2966Y2133J42*
G01*
X2439*
G75*
G02X2403Y2111I-37J20*
G01*
G75*
G02X2366Y2133J42*
G01*
X1903*
Y2098*
X3314*
G37*
X58Y231D02*
G36*
Y58D01*
X740*
Y153*
X1178*
Y58*
X5848*
Y231*
X5769*
G75*
G02X5486I-141J47*
G01*
X4616*
G75*
G02X4545I-36*
G01*
X3033*
G75*
G02X3003Y215I-30J22*
G01*
G75*
G02X2972Y231J38*
G01*
X2438*
G75*
G02X2403Y211I-35J22*
G01*
G75*
G02X2367Y231J42*
G01*
X419*
G75*
G02X136I-141J47*
G01*
X58*
G37*
X5565Y1110D02*
G36*
G75*
G02X5620I28D01*
G01*
X5635*
G75*
G02X5690I28*
G01*
X5848*
Y1188*
X5690*
G75*
G02X5635I-28*
G01*
X5620*
G75*
G02X5565I-28*
G01*
X4603*
Y1110*
X5565*
G37*
X58Y3533D02*
X883D01*
Y1238*
X1675*
G75*
G02X1688Y1281I12J20*
G01*
G75*
G02X1700Y1238J-23*
G01*
X1753*
Y3533*
X3578*
Y1252*
X4453*
Y3533*
X5848*
Y3898*
X58*
Y3533*
X91Y3748D02*
G75*
G02X214I62D01*
G01*
G75*
G02X91I-62*
G01*
X241D02*
G75*
G02X364I62D01*
G01*
G75*
G02X241I-62*
G01*
X391D02*
G75*
G02X514I62D01*
G01*
G75*
G02X391I-62*
G01*
X541D02*
G75*
G02X664I62D01*
G01*
G75*
G02X541I-62*
G01*
X691D02*
G75*
G02X814I62D01*
G01*
G75*
G02X691I-62*
G01*
X841D02*
G75*
G02X964I62D01*
G01*
G75*
G02X841I-62*
G01*
X943Y2459D02*
G75*
G02Y2506J23D01*
G01*
G75*
G02Y2459J-23*
G01*
X948Y1459D02*
G75*
G02Y1506J23D01*
G01*
G75*
G02Y1459J-23*
G01*
Y1709D02*
G75*
G02Y1756J23D01*
G01*
G75*
G02Y1709J-23*
G01*
Y1959D02*
G75*
G02Y2006J23D01*
G01*
G75*
G02Y1959J-23*
G01*
Y2209D02*
G75*
G02Y2256J23D01*
G01*
G75*
G02Y2209J-23*
G01*
Y2709D02*
G75*
G02Y2756J23D01*
G01*
G75*
G02Y2709J-23*
G01*
Y2959D02*
G75*
G02Y3006J23D01*
G01*
G75*
G02Y2959J-23*
G01*
Y3209D02*
G75*
G02Y3256J23D01*
G01*
G75*
G02Y3209J-23*
G01*
X991Y3748D02*
G75*
G02X1114I62D01*
G01*
G75*
G02X991I-62*
G01*
X1117Y1405D02*
G75*
G02Y1460J28D01*
G01*
G75*
G02Y1405J-28*
G01*
Y1655D02*
G75*
G02Y1710J28D01*
G01*
G75*
G02Y1655J-28*
G01*
Y1905D02*
G75*
G02Y1960J28D01*
G01*
G75*
G02Y1905J-28*
G01*
Y2155D02*
G75*
G02Y2210J28D01*
G01*
G75*
G02Y2155J-28*
G01*
Y2405D02*
G75*
G02Y2460J28D01*
G01*
G75*
G02Y2405J-28*
G01*
Y2655D02*
G75*
G02Y2710J28D01*
G01*
G75*
G02Y2655J-28*
G01*
Y2905D02*
G75*
G02Y2960J28D01*
G01*
G75*
G02Y2905J-28*
G01*
Y3140D02*
G75*
G02Y3195J28D01*
G01*
G75*
G02Y3140J-28*
G01*
X1141Y3748D02*
G75*
G02X1264I62D01*
G01*
G75*
G02X1141I-62*
G01*
X1391D02*
G75*
G02X1514I62D01*
G01*
G75*
G02X1391I-62*
G01*
X1518Y1335D02*
G75*
G02Y1280J-28D01*
G01*
G75*
G02Y1335J28*
G01*
Y1583D02*
G75*
G02Y1528J-28D01*
G01*
G75*
G02Y1583J28*
G01*
Y1833D02*
G75*
G02Y1778J-28D01*
G01*
G75*
G02Y1833J28*
G01*
Y2083D02*
G75*
G02Y2028J-28D01*
G01*
G75*
G02Y2083J28*
G01*
Y2333D02*
G75*
G02Y2278J-28D01*
G01*
G75*
G02Y2333J28*
G01*
Y2583D02*
G75*
G02Y2528J-28D01*
G01*
G75*
G02Y2583J28*
G01*
X1530Y2833D02*
G75*
G02Y2778J-28D01*
G01*
G75*
G02Y2833J28*
G01*
Y3083D02*
G75*
G02Y3028J-28D01*
G01*
G75*
G02Y3083J28*
G01*
X1541Y3748D02*
G75*
G02X1664I62D01*
G01*
G75*
G02X1541I-62*
G01*
X1688Y1529D02*
G75*
G02Y1482J-23D01*
G01*
G75*
G02Y1529J23*
G01*
Y1779D02*
G75*
G02Y1732J-23D01*
G01*
G75*
G02Y1779J23*
G01*
Y2029D02*
G75*
G02Y1982J-23D01*
G01*
G75*
G02Y2029J23*
G01*
Y2279D02*
G75*
G02Y2232J-23D01*
G01*
G75*
G02Y2279J23*
G01*
Y2529D02*
G75*
G02Y2482J-23D01*
G01*
G75*
G02Y2529J23*
G01*
X1691Y3748D02*
G75*
G02X1814I62D01*
G01*
G75*
G02X1691I-62*
G01*
X1700Y2779D02*
G75*
G02Y2732J-23D01*
G01*
G75*
G02Y2779J23*
G01*
Y3029D02*
G75*
G02Y2982J-23D01*
G01*
G75*
G02Y3029J23*
G01*
X1841Y3748D02*
G75*
G02X1964I62D01*
G01*
G75*
G02X1841I-62*
G01*
X1991D02*
G75*
G02X2114I62D01*
G01*
G75*
G02X1991I-62*
G01*
X2141D02*
G75*
G02X2264I62D01*
G01*
G75*
G02X2141I-62*
G01*
X2291D02*
G75*
G02X2414I62D01*
G01*
G75*
G02X2291I-62*
G01*
X2441D02*
G75*
G02X2564I62D01*
G01*
G75*
G02X2441I-62*
G01*
X2791D02*
G75*
G02X2914I62D01*
G01*
G75*
G02X2791I-62*
G01*
X2941D02*
G75*
G02X3064I62D01*
G01*
G75*
G02X2941I-62*
G01*
X3091D02*
G75*
G02X3214I62D01*
G01*
G75*
G02X3091I-62*
G01*
X3241D02*
G75*
G02X3364I62D01*
G01*
G75*
G02X3241I-62*
G01*
X3391D02*
G75*
G02X3514I62D01*
G01*
G75*
G02X3391I-62*
G01*
X3541D02*
G75*
G02X3664I62D01*
G01*
G75*
G02X3541I-62*
G01*
X3624Y1543D02*
G75*
G02Y1488J-28D01*
G01*
G75*
G02Y1543J28*
G01*
X3627Y2028D02*
G75*
G02Y1973J-28D01*
G01*
G75*
G02Y2028J28*
G01*
X3629Y2995D02*
G75*
G02Y2940J-28D01*
G01*
G75*
G02Y2995J28*
G01*
X3631Y3237D02*
G75*
G02Y3182J-28D01*
G01*
G75*
G02Y3237J28*
G01*
X3644Y1780D02*
G75*
G02X3664Y1816I20J13D01*
G01*
G75*
G02Y1769J-23*
G01*
G75*
G02X3650Y1774I0J24*
G01*
G75*
G02X3627Y1731I-23J-15*
G01*
G75*
G02Y1786J28*
G01*
G75*
G02X3644Y1780J-27*
G01*
X3645Y2267D02*
G75*
G02X3663Y2305I18J15D01*
G01*
G75*
G02Y2258J-23*
G01*
G75*
G02X3650Y2262J23*
G01*
G75*
G02X3629Y2216I-21J-18*
G01*
G75*
G02Y2271J28*
G01*
G75*
G02X3645Y2267J-28*
G01*
X3645Y2509D02*
G75*
G02X3663Y2548I18J16D01*
G01*
G75*
G02Y2501J-23*
G01*
G75*
G02X3651Y2505J23*
G01*
G75*
G02X3631Y2459I-20J-19*
G01*
G75*
G02Y2514J28*
G01*
G75*
G02X3645Y2509J-27*
G01*
Y2749D02*
G75*
G02X3663Y2788I18J16D01*
G01*
G75*
G02Y2741J-23*
G01*
G75*
G02X3651Y2744J23*
G01*
G75*
G02X3631Y2698I-20J-19*
G01*
G75*
G02Y2753J28*
G01*
G75*
G02X3645Y2749J-27*
G01*
X3663Y1334D02*
G75*
G02Y1287J-23D01*
G01*
G75*
G02Y1334J23*
G01*
X3664Y2062D02*
G75*
G02Y2015J-23D01*
G01*
G75*
G02Y2062J23*
G01*
X3665Y1575D02*
G75*
G02Y1528J-23D01*
G01*
G75*
G02Y1575J23*
G01*
Y3029D02*
G75*
G02Y2982J-23D01*
G01*
G75*
G02Y3029J23*
G01*
X3691Y3748D02*
G75*
G02X3814I62D01*
G01*
G75*
G02X3691I-62*
G01*
X3797Y1388D02*
G75*
G02Y1333J-28D01*
G01*
G75*
G02Y1388J28*
G01*
X3798Y1480D02*
G75*
G02Y1433J-23D01*
G01*
G75*
G02Y1480J23*
G01*
X3799Y1631D02*
G75*
G02Y1576J-28D01*
G01*
G75*
G02Y1631J28*
G01*
Y1726D02*
G75*
G02Y1679J-23D01*
G01*
G75*
G02Y1726J23*
G01*
Y1970D02*
G75*
G02Y1923J-23D01*
G01*
G75*
G02Y1970J23*
G01*
Y2455D02*
G75*
G02Y2408J-23D01*
G01*
G75*
G02Y2455J23*
G01*
Y2602D02*
G75*
G02Y2547J-28D01*
G01*
G75*
G02Y2602J28*
G01*
Y2842D02*
G75*
G02Y2787J-28D01*
G01*
G75*
G02Y2842J28*
G01*
Y3085D02*
G75*
G02Y3030J-28D01*
G01*
G75*
G02Y3085J28*
G01*
X3800Y1871D02*
G75*
G02Y1816J-28D01*
G01*
G75*
G02Y1871J28*
G01*
Y2117D02*
G75*
G02Y2062J-28D01*
G01*
G75*
G02Y2117J28*
G01*
Y2361D02*
G75*
G02Y2306J-28D01*
G01*
G75*
G02Y2361J28*
G01*
Y2698D02*
G75*
G02Y2651J-23D01*
G01*
G75*
G02Y2698J23*
G01*
Y2935D02*
G75*
G02Y2888J-23D01*
G01*
G75*
G02Y2935J23*
G01*
Y3181D02*
G75*
G02Y3134J-23D01*
G01*
G75*
G02Y3181J23*
G01*
X3802Y2214D02*
G75*
G02Y2167J-23D01*
G01*
G75*
G02Y2214J23*
G01*
X3841Y3748D02*
G75*
G02X3964I62D01*
G01*
G75*
G02X3841I-62*
G01*
X4091D02*
G75*
G02X4214I62D01*
G01*
G75*
G02X4091I-62*
G01*
X4218Y1655D02*
G75*
G02Y1710J28D01*
G01*
G75*
G02Y1655J-28*
G01*
Y2387D02*
G75*
G02Y2442J28D01*
G01*
G75*
G02Y2387J-28*
G01*
X4220Y1409D02*
G75*
G02Y1464J28D01*
G01*
G75*
G02Y1409J-28*
G01*
Y1898D02*
G75*
G02Y1953J28D01*
G01*
G75*
G02Y1898J-28*
G01*
Y2140D02*
G75*
G02Y2195J28D01*
G01*
G75*
G02Y2140J-28*
G01*
Y2529D02*
G75*
G02Y2576J23D01*
G01*
G75*
G02Y2529J-23*
G01*
Y2631D02*
G75*
G02Y2686J28D01*
G01*
G75*
G02Y2631J-28*
G01*
Y3023D02*
G75*
G02Y3070J23D01*
G01*
G75*
G02Y3023J-23*
G01*
X4221Y1312D02*
G75*
G02Y1359J23D01*
G01*
G75*
G02Y1312J-23*
G01*
Y1554D02*
G75*
G02Y1601J23D01*
G01*
G75*
G02Y1554J-23*
G01*
Y2042D02*
G75*
G02Y2089J23D01*
G01*
G75*
G02Y2042J-23*
G01*
Y3120D02*
G75*
G02Y3175J28D01*
G01*
G75*
G02Y3120J-28*
G01*
X4222Y1801D02*
G75*
G02Y1848J23D01*
G01*
G75*
G02Y1801J-23*
G01*
Y2292D02*
G75*
G02Y2339J23D01*
G01*
G75*
G02Y2292J-23*
G01*
Y2778D02*
G75*
G02Y2825J23D01*
G01*
G75*
G02Y2778J-23*
G01*
Y2874D02*
G75*
G02Y2929J28D01*
G01*
G75*
G02Y2874J-28*
G01*
X4241Y3748D02*
G75*
G02X4364I62D01*
G01*
G75*
G02X4241I-62*
G01*
X4361Y2687D02*
G75*
G02Y2734J23D01*
G01*
G75*
G02Y2687J-23*
G01*
Y3176D02*
G75*
G02Y3223J23D01*
G01*
G75*
G02Y3176J-23*
G01*
X4362Y1464D02*
G75*
G02Y1511J23D01*
G01*
G75*
G02Y1464J-23*
G01*
Y2196D02*
G75*
G02Y2243J23D01*
G01*
G75*
G02Y2196J-23*
G01*
X4371Y2488D02*
G75*
G02X4394Y2530I23J15D01*
G01*
G75*
G02Y2475J-28*
G01*
G75*
G02X4382Y2478I0J27*
G01*
G75*
G02X4362Y2443I-21J-11*
G01*
G75*
G02Y2490J23*
G01*
G75*
G02X4371Y2488I0J-23*
G01*
X4374Y1996D02*
G75*
G02X4396Y2041I22J17D01*
G01*
G75*
G02Y1986J-28*
G01*
G75*
G02X4380Y1991I0J28*
G01*
G75*
G02X4361Y1953I-19J-14*
G01*
G75*
G02Y2000J23*
G01*
G75*
G02X4374Y1996J-23*
G01*
X4374Y2973D02*
G75*
G02X4394Y3019I20J19D01*
G01*
G75*
G02Y2964J-28*
G01*
G75*
G02X4380Y2968J27*
G01*
G75*
G02X4362Y2929I-18J-16*
G01*
G75*
G02Y2976J23*
G01*
G75*
G02X4374Y2973I0J-23*
G01*
X4376Y1753D02*
G75*
G02X4399Y1796I23J15D01*
G01*
G75*
G02Y1741J-28*
G01*
G75*
G02X4382Y1747J27*
G01*
G75*
G02X4362Y1711I-20J-13*
G01*
G75*
G02Y1758J23*
G01*
G75*
G02X4376Y1753J-23*
G01*
X4391Y3748D02*
G75*
G02X4514I62D01*
G01*
G75*
G02X4391I-62*
G01*
X4397Y1253D02*
G75*
G02Y1308J28D01*
G01*
G75*
G02Y1253J-28*
G01*
Y1499D02*
G75*
G02Y1554J28D01*
G01*
G75*
G02Y1499J-28*
G01*
X4398Y2230D02*
G75*
G02Y2285J28D01*
G01*
G75*
G02Y2230J-28*
G01*
X4399Y2717D02*
G75*
G02Y2772J28D01*
G01*
G75*
G02Y2717J-28*
G01*
X4541Y3748D02*
G75*
G02X4664I62D01*
G01*
G75*
G02X4541I-62*
G01*
X4691D02*
G75*
G02X4814I62D01*
G01*
G75*
G02X4691I-62*
G01*
X4841D02*
G75*
G02X4964I62D01*
G01*
G75*
G02X4841I-62*
G01*
X4991D02*
G75*
G02X5114I62D01*
G01*
G75*
G02X4991I-62*
G01*
X5141D02*
G75*
G02X5264I62D01*
G01*
G75*
G02X5141I-62*
G01*
X5541D02*
G75*
G02X5664I62D01*
G01*
G75*
G02X5541I-62*
G01*
X5695D02*
G75*
G02X5810I58D01*
G01*
G75*
G02X5695I-58*
G01*
X58D02*
G36*
Y3533D01*
X883*
Y3233*
X924*
G75*
G02X948Y3256I23*
G01*
G75*
G02X971Y3233J-23*
G01*
X1753*
Y3533*
X3578*
Y3233*
X3615*
G75*
G02X3631Y3237I16J-23*
G01*
G75*
G02X3646Y3233J-28*
G01*
X4453*
Y3533*
X5848*
Y3748*
X5810*
G75*
G02X5695I-58*
G01*
X5664*
G75*
G02X5541I-62*
G01*
X5264*
G75*
G02X5141I-62*
G01*
X5114*
G75*
G02X4991I-62*
G01*
X4964*
G75*
G02X4841I-62*
G01*
X4814*
G75*
G02X4691I-62*
G01*
X4664*
G75*
G02X4541I-62*
G01*
X4514*
G75*
G02X4391I-62*
G01*
X4364*
G75*
G02X4241I-62*
G01*
X4214*
G75*
G02X4091I-62*
G01*
X3964*
G75*
G02X3841I-62*
G01*
X3814*
G75*
G02X3691I-62*
G01*
X3664*
G75*
G02X3541I-62*
G01*
X3514*
G75*
G02X3391I-62*
G01*
X3364*
G75*
G02X3241I-62*
G01*
X3214*
G75*
G02X3091I-62*
G01*
X3064*
G75*
G02X2941I-62*
G01*
X2914*
G75*
G02X2791I-62*
G01*
X2564*
G75*
G02X2441I-62*
G01*
X2414*
G75*
G02X2291I-62*
G01*
X2264*
G75*
G02X2141I-62*
G01*
X2114*
G75*
G02X1991I-62*
G01*
X1964*
G75*
G02X1841I-62*
G01*
X1814*
G75*
G02X1691I-62*
G01*
X1664*
G75*
G02X1541I-62*
G01*
X1514*
G75*
G02X1391I-62*
G01*
X1264*
G75*
G02X1141I-62*
G01*
X1114*
G75*
G02X991I-62*
G01*
X964*
G75*
G02X841I-62*
G01*
X814*
G75*
G02X691I-62*
G01*
X664*
G75*
G02X541I-62*
G01*
X514*
G75*
G02X391I-62*
G01*
X364*
G75*
G02X241I-62*
G01*
X214*
G75*
G02X91I-62*
G01*
X58*
G37*
X91D02*
G36*
G75*
G02X214I62D01*
G01*
X241*
G75*
G02X364I62*
G01*
X391*
G75*
G02X514I62*
G01*
X541*
G75*
G02X664I62*
G01*
X691*
G75*
G02X814I62*
G01*
X841*
G75*
G02X964I62*
G01*
X991*
G75*
G02X1114I62*
G01*
X1141*
G75*
G02X1264I62*
G01*
X1391*
G75*
G02X1514I62*
G01*
X1541*
G75*
G02X1664I62*
G01*
X1691*
G75*
G02X1814I62*
G01*
X1841*
G75*
G02X1964I62*
G01*
X1991*
G75*
G02X2114I62*
G01*
X2141*
G75*
G02X2264I62*
G01*
X2291*
G75*
G02X2414I62*
G01*
X2441*
G75*
G02X2564I62*
G01*
X2791*
G75*
G02X2914I62*
G01*
X2941*
G75*
G02X3064I62*
G01*
X3091*
G75*
G02X3214I62*
G01*
X3241*
G75*
G02X3364I62*
G01*
X3391*
G75*
G02X3514I62*
G01*
X3541*
G75*
G02X3664I62*
G01*
X3691*
G75*
G02X3814I62*
G01*
X3841*
G75*
G02X3964I62*
G01*
X4091*
G75*
G02X4214I62*
G01*
X4241*
G75*
G02X4364I62*
G01*
X4391*
G75*
G02X4514I62*
G01*
X4541*
G75*
G02X4664I62*
G01*
X4691*
G75*
G02X4814I62*
G01*
X4841*
G75*
G02X4964I62*
G01*
X4991*
G75*
G02X5114I62*
G01*
X5141*
G75*
G02X5264I62*
G01*
X5541*
G75*
G02X5664I62*
G01*
X5695*
G75*
G02X5810I58*
G01*
X5848*
Y3898*
X58*
Y3748*
X91*
G37*
X883Y2483D02*
G36*
Y2433D01*
X1090*
G75*
G02X1117Y2460I28*
G01*
G75*
G02X1145Y2433J-28*
G01*
X1753*
Y2483*
X1694*
G75*
G02X1688Y2482I-7J23*
G01*
G75*
G02X1681Y2483J23*
G01*
X966*
G75*
G02X943Y2459I-23*
G01*
G75*
G02X919Y2483J23*
G01*
X883*
G37*
X919D02*
G36*
G75*
G02X943Y2506I23D01*
G01*
G75*
G02X966Y2483J-23*
G01*
X1681*
G75*
G02X1688Y2529I7J23*
G01*
G75*
G02X1694Y2483J-23*
G01*
X1753*
Y2555*
X1545*
G75*
G02X1518Y2528I-28*
G01*
G75*
G02X1490Y2555J28*
G01*
X883*
Y2483*
X919*
G37*
X3578D02*
G36*
Y2433D01*
X3776*
G75*
G02X3799Y2455I23J-1*
G01*
G75*
G02X3822Y2433J-23*
G01*
X4197*
G75*
G02X4218Y2442I21J-18*
G01*
G75*
G02X4240Y2433J-28*
G01*
X4453*
Y2483*
X4413*
G75*
G02X4394Y2475I-19J20*
G01*
G75*
G02X4382Y2478I0J27*
G01*
G75*
G02X4362Y2443I-21J-11*
G01*
G75*
G02X4345Y2483J23*
G01*
X3658*
G75*
G02X3631Y2459I-27J4*
G01*
G75*
G02X3603Y2483J28*
G01*
X3578*
G37*
X3603D02*
G36*
G75*
G02X3631Y2514I27J4D01*
G01*
G75*
G02X3645Y2509J-27*
G01*
G75*
G02X3663Y2548I18J16*
G01*
G75*
G02Y2501J-23*
G01*
G75*
G02X3651Y2505J23*
G01*
G75*
G02X3658Y2483I-20J-19*
G01*
X4345*
G75*
G02X4362Y2490I17J-16*
G01*
G75*
G02X4371Y2488I0J-23*
G01*
G75*
G02X4394Y2530I23J15*
G01*
G75*
G02X4413Y2483J-28*
G01*
X4453*
Y2555*
X4243*
G75*
G02X4220Y2529I-23J-3*
G01*
G75*
G02X4196Y2555J23*
G01*
X3818*
G75*
G02X3799Y2547I-19J20*
G01*
G75*
G02X3780Y2555J28*
G01*
X3578*
Y2483*
X3603*
G37*
X883Y1483D02*
G36*
Y1456D01*
X1104*
G75*
G02X1117Y1460I14J-24*
G01*
G75*
G02X1131Y1456J-28*
G01*
X1753*
Y1483*
X1694*
G75*
G02X1688Y1482I-7J23*
G01*
G75*
G02X1681Y1483J23*
G01*
X971*
G75*
G02X948Y1459I-23*
G01*
G75*
G02X924Y1483J23*
G01*
X883*
G37*
X924D02*
G36*
G75*
G02X948Y1506I23D01*
G01*
G75*
G02X971Y1483J-23*
G01*
X1681*
G75*
G02X1666Y1515I7J23*
G01*
X883*
Y1483*
X924*
G37*
X1753D02*
G36*
Y1515D01*
X1709*
G75*
G02X1694Y1483I-21J-10*
G01*
X1753*
G37*
X3578D02*
G36*
Y1456D01*
X3774*
G75*
G02X3798Y1480I23*
G01*
G75*
G02X3821Y1456J-23*
G01*
X4201*
G75*
G02X4220Y1464I19J-20*
G01*
G75*
G02X4239Y1456J-28*
G01*
X4453*
Y1483*
X4385*
G75*
G02X4362Y1464I-23J5*
G01*
G75*
G02X4339Y1483J23*
G01*
X3578*
G37*
X4339D02*
G36*
G75*
G02X4362Y1511I23J5D01*
G01*
G75*
G02X4385Y1483J-23*
G01*
X4453*
Y1515*
X4422*
G75*
G02X4397Y1499I-25J11*
G01*
G75*
G02X4372Y1515J28*
G01*
X3652*
G75*
G02X3624Y1488I-28*
G01*
G75*
G02X3597Y1515J28*
G01*
X3578*
Y1483*
X4339*
G37*
X883Y1733D02*
G36*
Y1683D01*
X1090*
G75*
G02X1117Y1710I28*
G01*
G75*
G02X1145Y1683J-28*
G01*
X1753*
Y1733*
X1694*
G75*
G02X1688Y1732I-7J23*
G01*
G75*
G02X1681Y1733J23*
G01*
X971*
G75*
G02X948Y1709I-23*
G01*
G75*
G02X924Y1733J23*
G01*
X883*
G37*
X924D02*
G36*
G75*
G02X948Y1756I23D01*
G01*
G75*
G02X971Y1733J-23*
G01*
X1681*
G75*
G02X1688Y1779I7J23*
G01*
G75*
G02X1694Y1733J-23*
G01*
X1753*
Y1805*
X1545*
G75*
G02X1518Y1778I-28*
G01*
G75*
G02X1490Y1805J28*
G01*
X883*
Y1733*
X924*
G37*
X3578D02*
G36*
Y1683D01*
X3786*
G75*
G02X3799Y1726I13J20*
G01*
G75*
G02X3812Y1683J-23*
G01*
X4191*
G75*
G02X4218Y1710I28J0*
G01*
G75*
G02X4246Y1683J-28*
G01*
X4453*
Y1733*
X4385*
G75*
G02X4362Y1711I-23J2*
G01*
G75*
G02X4338Y1733J23*
G01*
X3636*
G75*
G02X3627Y1731I-9J26*
G01*
G75*
G02X3618Y1733J28*
G01*
X3578*
G37*
X3618D02*
G36*
G75*
G02X3627Y1786I9J26D01*
G01*
G75*
G02X3644Y1780J-27*
G01*
G75*
G02X3645Y1805I20J13*
G01*
X3578*
Y1733*
X3618*
G37*
X4338D02*
G36*
G75*
G02X4362Y1758I23J2D01*
G01*
G75*
G02X4376Y1753J-23*
G01*
G75*
G02X4399Y1796I23J15*
G01*
G75*
G02Y1741J-28*
G01*
G75*
G02X4382Y1747J27*
G01*
G75*
G02X4385Y1733I-20J-13*
G01*
X4453*
Y1805*
X4235*
G75*
G02X4222Y1801I-13J20*
G01*
G75*
G02X4209Y1805J23*
G01*
X3684*
G75*
G02X3664Y1769I-20J-13*
G01*
G75*
G02X3650Y1774I0J24*
G01*
G75*
G02X3636Y1733I-23J-15*
G01*
X4338*
G37*
X883Y1983D02*
G36*
Y1933D01*
X1090*
G75*
G02X1117Y1960I28*
G01*
G75*
G02X1145Y1933J-28*
G01*
X1753*
Y1983*
X1694*
G75*
G02X1688Y1982I-7J23*
G01*
G75*
G02X1681Y1983J23*
G01*
X971*
G75*
G02X948Y1959I-23*
G01*
G75*
G02X924Y1983J23*
G01*
X883*
G37*
X924D02*
G36*
G75*
G02X948Y2006I23D01*
G01*
G75*
G02X971Y1983J-23*
G01*
X1681*
G75*
G02X1688Y2029I7J23*
G01*
G75*
G02X1694Y1983J-23*
G01*
X1753*
Y2055*
X1545*
G75*
G02X1518Y2028I-28*
G01*
G75*
G02X1490Y2055J28*
G01*
X883*
Y1983*
X924*
G37*
X3578D02*
G36*
Y1933D01*
X3780*
G75*
G02X3799Y1970I19J14*
G01*
G75*
G02X3818Y1933J-23*
G01*
X4193*
G75*
G02X4220Y1953I27J-7*
G01*
G75*
G02X4246Y1933J-28*
G01*
X4453*
Y1983*
X4383*
G75*
G02X4361Y1953I-23J-6*
G01*
G75*
G02X4338Y1983J23*
G01*
X3647*
G75*
G02X3627Y1973I-21J18*
G01*
G75*
G02X3606Y1983J28*
G01*
X3578*
G37*
X3606D02*
G36*
G75*
G02X3627Y2028I21J18D01*
G01*
G75*
G02X3647Y1983J-28*
G01*
X4338*
G75*
G02X4361Y2000I23J-6*
G01*
G75*
G02X4374Y1996J-23*
G01*
G75*
G02X4396Y2041I22J17*
G01*
G75*
G02Y1986J-28*
G01*
G75*
G02X4380Y1991I0J28*
G01*
G75*
G02X4383Y1983I-19J-14*
G01*
X4453*
Y2055*
X4242*
G75*
G02X4221Y2042I-21J10*
G01*
G75*
G02X4200Y2055J23*
G01*
X3680*
G75*
G02X3664Y2015I-16J-17*
G01*
G75*
G02X3648Y2055J23*
G01*
X3578*
Y1983*
X3606*
G37*
X883Y2233D02*
G36*
Y2183D01*
X1090*
G75*
G02X1117Y2210I28*
G01*
G75*
G02X1145Y2183J-28*
G01*
X1753*
Y2233*
X1694*
G75*
G02X1688Y2232I-7J23*
G01*
G75*
G02X1681Y2233J23*
G01*
X971*
G75*
G02X948Y2209I-23*
G01*
G75*
G02X924Y2233J23*
G01*
X883*
G37*
X924D02*
G36*
G75*
G02X948Y2256I23D01*
G01*
G75*
G02X971Y2233J-23*
G01*
X1681*
G75*
G02X1688Y2279I7J23*
G01*
G75*
G02X1694Y2233J-23*
G01*
X1753*
Y2305*
X1545*
G75*
G02X1518Y2278I-28*
G01*
G75*
G02X1490Y2305J28*
G01*
X883*
Y2233*
X924*
G37*
X3578D02*
G36*
Y2183D01*
X3779*
G75*
G02X3802Y2214I22J8*
G01*
G75*
G02X3824Y2183J-23*
G01*
X4196*
G75*
G02X4220Y2195I23J-15*
G01*
G75*
G02X4243Y2183J-28*
G01*
X4453*
Y2233*
X4409*
G75*
G02X4398Y2230I-11J25*
G01*
G75*
G02X4387Y2233J28*
G01*
X4381*
G75*
G02X4362Y2196I-19J-13*
G01*
G75*
G02X4343Y2233J23*
G01*
X3654*
G75*
G02X3629Y2216I-25J11*
G01*
G75*
G02X3604Y2233J28*
G01*
X3578*
G37*
X3604D02*
G36*
G75*
G02X3629Y2271I25J11D01*
G01*
G75*
G02X3645Y2267J-28*
G01*
G75*
G02X3663Y2305I18J15*
G01*
G75*
G02Y2258J-23*
G01*
G75*
G02X3650Y2262J23*
G01*
G75*
G02X3654Y2233I-21J-18*
G01*
X4343*
G75*
G02X4362Y2243I19J-13*
G01*
G75*
G02X4381Y2233J-23*
G01*
X4387*
G75*
G02X4398Y2285I11J25*
G01*
G75*
G02X4409Y2233J-28*
G01*
X4453*
Y2305*
X4243*
G75*
G02X4222Y2292I-21J10*
G01*
G75*
G02X4201Y2305J23*
G01*
X3578*
Y2233*
X3604*
G37*
X883Y2733D02*
G36*
Y2683D01*
X1090*
G75*
G02X1117Y2710I28*
G01*
G75*
G02X1145Y2683J-28*
G01*
X1753*
Y2733*
X1707*
G75*
G02X1700Y2732I-7J23*
G01*
G75*
G02X1693Y2733J23*
G01*
X971*
G75*
G02X948Y2709I-23*
G01*
G75*
G02X924Y2733J23*
G01*
X883*
G37*
X924D02*
G36*
G75*
G02X948Y2756I23D01*
G01*
G75*
G02X971Y2733J-23*
G01*
X1693*
G75*
G02X1700Y2779I7J23*
G01*
G75*
G02X1707Y2733J-23*
G01*
X1753*
Y2805*
X1558*
G75*
G02X1530Y2778I-28*
G01*
G75*
G02X1503Y2805J28*
G01*
X883*
Y2733*
X924*
G37*
X3578D02*
G36*
Y2683D01*
X3778*
G75*
G02X3800Y2698I22J-8*
G01*
G75*
G02X3822Y2683J-23*
G01*
X4207*
G75*
G02X4220Y2686I13J-24*
G01*
G75*
G02X4233Y2683J-28*
G01*
X4453*
Y2733*
X4424*
G75*
G02X4399Y2717I-25J12*
G01*
G75*
G02X4375Y2733J28*
G01*
X4369*
G75*
G02X4361Y2687I-9J-22*
G01*
G75*
G02X4352Y2733J23*
G01*
X3657*
G75*
G02X3631Y2698I-27J-7*
G01*
G75*
G02X3604Y2733J28*
G01*
X3578*
G37*
X3604D02*
G36*
G75*
G02X3631Y2753I27J-7D01*
G01*
G75*
G02X3645Y2749J-27*
G01*
G75*
G02X3663Y2788I18J16*
G01*
G75*
G02Y2741J-23*
G01*
G75*
G02X3651Y2744J23*
G01*
G75*
G02X3657Y2733I-20J-19*
G01*
X4352*
G75*
G02X4361Y2734I9J-22*
G01*
G75*
G02X4369Y2733J-23*
G01*
X4375*
G75*
G02X4399Y2772I25J12*
G01*
G75*
G02X4424Y2733J-28*
G01*
X4453*
Y2805*
X4245*
G75*
G02X4222Y2778I-23J-3*
G01*
G75*
G02X4199Y2805J23*
G01*
X3825*
G75*
G02X3799Y2787I-26J9*
G01*
G75*
G02X3773Y2805J28*
G01*
X3578*
Y2733*
X3604*
G37*
X883Y2983D02*
G36*
Y2933D01*
X1090*
G75*
G02X1117Y2960I28*
G01*
G75*
G02X1145Y2933J-28*
G01*
X1753*
Y2983*
X1707*
G75*
G02X1700Y2982I-7J23*
G01*
G75*
G02X1693Y2983J23*
G01*
X971*
G75*
G02X948Y2959I-23*
G01*
G75*
G02X924Y2983J23*
G01*
X883*
G37*
X924D02*
G36*
G75*
G02X948Y3006I23D01*
G01*
G75*
G02X971Y2983J-23*
G01*
X1693*
G75*
G02X1700Y3029I7J23*
G01*
G75*
G02X1707Y2983J-23*
G01*
X1753*
Y3055*
X1558*
G75*
G02X1530Y3028I-28*
G01*
G75*
G02X1503Y3055J28*
G01*
X883*
Y2983*
X924*
G37*
X3578D02*
G36*
Y2933D01*
X3789*
G75*
G02X3800Y2935I11J-21*
G01*
G75*
G02X3811Y2933J-23*
G01*
X4350*
G75*
G02X4362Y2976I12J20*
G01*
G75*
G02X4374Y2973I0J-23*
G01*
G75*
G02X4368Y2983I20J19*
G01*
X3671*
G75*
G02X3665Y2982I-6J23*
G01*
G75*
G02X3660Y2983J23*
G01*
X3653*
G75*
G02X3629Y2940I-23J-15*
G01*
G75*
G02X3606Y2983J28*
G01*
X3578*
G37*
X3606D02*
G36*
G75*
G02X3629Y2995I23J-15D01*
G01*
G75*
G02X3653Y2983J-28*
G01*
X3660*
G75*
G02X3665Y3029I6J23*
G01*
G75*
G02X3671Y2983J-23*
G01*
X4368*
G75*
G02X4394Y3019I26J9*
G01*
G75*
G02X4420Y2983J-28*
G01*
X4453*
Y3055*
X4241*
G75*
G02X4220Y3023I-22J-9*
G01*
G75*
G02X4198Y3055J23*
G01*
X3826*
G75*
G02X3799Y3030I-27J3*
G01*
G75*
G02X3772Y3055J28*
G01*
X3578*
Y2983*
X3606*
G37*
X4420D02*
G36*
G75*
G02X4394Y2964I-26J9D01*
G01*
G75*
G02X4380Y2968J27*
G01*
G75*
G02X4374Y2933I-18J-16*
G01*
X4453*
Y2983*
X4420*
G37*
X883Y3233D02*
G36*
Y3168D01*
X1090*
G75*
G02X1117Y3195I28*
G01*
G75*
G02X1145Y3168J-28*
G01*
X1753*
Y3233*
X971*
G75*
G02X948Y3209I-23*
G01*
G75*
G02X924Y3233J23*
G01*
X883*
G37*
X3578D02*
G36*
Y3200D01*
X3605*
G75*
G02X3615Y3233I26J10*
G01*
X3578*
G37*
X3646D02*
G36*
G75*
G02X3656Y3200I-16J-23D01*
G01*
X4337*
G75*
G02X4361Y3223I23*
G01*
G75*
G02X4384Y3200J-23*
G01*
X4453*
Y3233*
X3646*
G37*
X883Y1433D02*
G36*
Y1308D01*
X1490*
G75*
G02X1518Y1335I28*
G01*
G75*
G02X1545Y1308J-28*
G01*
X1753*
Y1433*
X1145*
G75*
G02X1117Y1405I-28*
G01*
G75*
G02X1090Y1433J28*
G01*
X883*
G37*
X1090D02*
G36*
G75*
G02X1104Y1456I28D01*
G01*
X883*
Y1433*
X1090*
G37*
X1753D02*
G36*
Y1456D01*
X1131*
G75*
G02X1145Y1433I-14J-24*
G01*
X1753*
G37*
X3578D02*
G36*
Y1360D01*
X3769*
G75*
G02X3797Y1388I28*
G01*
G75*
G02X3824Y1360J-28*
G01*
X4453*
Y1433*
X4247*
G75*
G02X4220Y1409I-27J4*
G01*
G75*
G02X4192Y1433J28*
G01*
X3578*
G37*
X4192D02*
G36*
G75*
G02X4201Y1456I27J4D01*
G01*
X3821*
G75*
G02X3798Y1433I-23*
G01*
G75*
G02X3774Y1456J23*
G01*
X3578*
Y1433*
X4192*
G37*
X4453D02*
G36*
Y1456D01*
X4239*
G75*
G02X4247Y1433I-19J-20*
G01*
X4453*
G37*
X883Y1683D02*
G36*
Y1555D01*
X1490*
G75*
G02X1518Y1583I28*
G01*
G75*
G02X1545Y1555J-28*
G01*
X1753*
Y1683*
X1145*
G75*
G02X1117Y1655I-28*
G01*
G75*
G02X1090Y1683J28*
G01*
X883*
G37*
X3578D02*
G36*
Y1604D01*
X3772*
G75*
G02X3799Y1631I28*
G01*
G75*
G02X3827Y1604J-28*
G01*
X4453*
Y1683*
X4246*
G75*
G02X4218Y1655I-28J0*
G01*
G75*
G02X4191Y1683J28*
G01*
X3812*
G75*
G02X3799Y1679I-13J20*
G01*
G75*
G02X3786Y1683J23*
G01*
X3578*
G37*
X883Y1933D02*
G36*
Y1805D01*
X1490*
G75*
G02X1518Y1833I28*
G01*
G75*
G02X1545Y1805J-28*
G01*
X1753*
Y1933*
X1145*
G75*
G02X1117Y1905I-28*
G01*
G75*
G02X1090Y1933J28*
G01*
X883*
G37*
X3578D02*
G36*
Y1843D01*
X3773*
G75*
G02X3800Y1871I28*
G01*
G75*
G02X3828Y1843J-28*
G01*
X4208*
G75*
G02X4222Y1848I14J-19*
G01*
G75*
G02X4236Y1843J-23*
G01*
X4453*
Y1933*
X4246*
G75*
G02X4220Y1898I-27J-7*
G01*
G75*
G02X4193Y1933J28*
G01*
X3818*
G75*
G02X3799Y1923I-19J14*
G01*
G75*
G02X3780Y1933J23*
G01*
X3578*
G37*
X883Y2183D02*
G36*
Y2055D01*
X1490*
G75*
G02X1518Y2083I28*
G01*
G75*
G02X1545Y2055J-28*
G01*
X1753*
Y2183*
X1145*
G75*
G02X1117Y2155I-28*
G01*
G75*
G02X1090Y2183J28*
G01*
X883*
G37*
X3578D02*
G36*
Y2089D01*
X3773*
G75*
G02X3800Y2117I28*
G01*
G75*
G02X3828Y2089J-28*
G01*
X4453*
Y2183*
X4243*
G75*
G02X4220Y2140I-23J-15*
G01*
G75*
G02X4196Y2183J28*
G01*
X3824*
G75*
G02X3802Y2167I-22J8*
G01*
G75*
G02X3779Y2183J23*
G01*
X3578*
G37*
X883Y2433D02*
G36*
Y2305D01*
X1490*
G75*
G02X1518Y2333I28*
G01*
G75*
G02X1545Y2305J-28*
G01*
X1753*
Y2433*
X1145*
G75*
G02X1117Y2405I-28*
G01*
G75*
G02X1090Y2433J28*
G01*
X883*
G37*
X3578D02*
G36*
Y2334D01*
X3773*
G75*
G02X3800Y2361I28*
G01*
G75*
G02X3828Y2334J-28*
G01*
X4208*
G75*
G02X4222Y2339I14J-19*
G01*
G75*
G02X4236Y2334J-23*
G01*
X4453*
Y2433*
X4240*
G75*
G02X4218Y2387I-21J-18*
G01*
G75*
G02X4197Y2433J28*
G01*
X3822*
G75*
G02X3799Y2408I-23J-1*
G01*
G75*
G02X3776Y2433J23*
G01*
X3578*
G37*
X883Y2683D02*
G36*
Y2555D01*
X1490*
G75*
G02X1518Y2583I28*
G01*
G75*
G02X1545Y2555J-28*
G01*
X1753*
Y2683*
X1145*
G75*
G02X1117Y2655I-28*
G01*
G75*
G02X1090Y2683J28*
G01*
X883*
G37*
X3578D02*
G36*
Y2555D01*
X3780*
G75*
G02X3799Y2602I19J20*
G01*
G75*
G02X3818Y2555J-28*
G01*
X4196*
G75*
G02X4220Y2576I23J-3*
G01*
G75*
G02X4243Y2555J-23*
G01*
X4453*
Y2683*
X4233*
G75*
G02X4220Y2631I-13J-24*
G01*
G75*
G02X4207Y2683J28*
G01*
X3822*
G75*
G02X3800Y2651I-22J-8*
G01*
G75*
G02X3778Y2683J23*
G01*
X3578*
G37*
X883Y2933D02*
G36*
Y2805D01*
X1503*
G75*
G02X1530Y2833I28*
G01*
G75*
G02X1558Y2805J-28*
G01*
X1753*
Y2933*
X1145*
G75*
G02X1117Y2905I-28*
G01*
G75*
G02X1090Y2933J28*
G01*
X883*
G37*
X3578D02*
G36*
Y2902D01*
X3779*
G75*
G02X3789Y2933I21J10*
G01*
X3578*
G37*
X3811D02*
G36*
G75*
G02X3822Y2902I-11J-21D01*
G01*
X4195*
G75*
G02X4222Y2929I28*
G01*
G75*
G02X4250Y2902J-28*
G01*
X4453*
Y2933*
X4374*
G75*
G02X4362Y2929I-12J20*
G01*
G75*
G02X4350Y2933J23*
G01*
X3811*
G37*
X883Y3168D02*
G36*
Y3055D01*
X1503*
G75*
G02X1530Y3083I28*
G01*
G75*
G02X1558Y3055J-28*
G01*
X1753*
Y3168*
X1145*
G75*
G02X1117Y3140I-28*
G01*
G75*
G02X1090Y3168J28*
G01*
X883*
G37*
X3578D02*
G36*
Y3055D01*
X3772*
G75*
G02X3799Y3085I27J3*
G01*
G75*
G02X3826Y3055J-28*
G01*
X4198*
G75*
G02X4220Y3070I22J-9*
G01*
G75*
G02X4241Y3055J-23*
G01*
X4453*
Y3168*
X4240*
G75*
G02X4221Y3120I-19J-20*
G01*
G75*
G02X4202Y3168J28*
G01*
X3822*
G75*
G02X3800Y3134I-21J-10*
G01*
G75*
G02X3779Y3168J23*
G01*
X3578*
G37*
X3779D02*
G36*
G75*
G02X3800Y3181I21J-10D01*
G01*
G75*
G02X3822Y3168J-23*
G01*
X4202*
G75*
G02X4221Y3175I19J-20*
G01*
G75*
G02X4240Y3168J-28*
G01*
X4453*
Y3200*
X4384*
G75*
G02X4361Y3176I-23*
G01*
G75*
G02X4337Y3200J23*
G01*
X3656*
G75*
G02X3631Y3182I-26J10*
G01*
G75*
G02X3605Y3200J28*
G01*
X3578*
Y3168*
X3779*
G37*
X883Y1308D02*
G36*
Y1238D01*
X1675*
G75*
G02X1688Y1281I12J20*
G01*
G75*
G02X1700Y1238J-23*
G01*
X1753*
Y1308*
X1545*
G75*
G02X1518Y1280I-28*
G01*
G75*
G02X1490Y1308J28*
G01*
X883*
G37*
X3578D02*
G36*
Y1252D01*
X4453*
Y1308*
X4402*
G75*
G02X4397Y1253I-5J-27*
G01*
G75*
G02X4392Y1308J28*
G01*
X3686*
G75*
G02X3663Y1287I-23J3*
G01*
G75*
G02X3640Y1308J23*
G01*
X3578*
G37*
X3640D02*
G36*
G75*
G02X3663Y1334I23J3D01*
G01*
G75*
G02X3686Y1308J-23*
G01*
X4392*
G75*
G02X4397Y1308I5J-27*
G01*
G75*
G02X4402Y1308J-28*
G01*
X4453*
Y1335*
X4244*
G75*
G02X4221Y1312I-23*
G01*
G75*
G02X4197Y1335J23*
G01*
X3808*
G75*
G02X3797Y1333I-12J25*
G01*
G75*
G02X3785Y1335J28*
G01*
X3578*
Y1308*
X3640*
G37*
X883Y1555D02*
G36*
Y1515D01*
X1666*
G75*
G02X1688Y1529I21J-10*
G01*
G75*
G02X1709Y1515J-23*
G01*
X1753*
Y1555*
X1545*
G75*
G02X1518Y1528I-28*
G01*
G75*
G02X1490Y1555J28*
G01*
X883*
G37*
X3578D02*
G36*
Y1515D01*
X3597*
G75*
G02X3624Y1543I28*
G01*
G75*
G02X3652Y1515J-28*
G01*
X4372*
G75*
G02X4397Y1554I25J11*
G01*
G75*
G02X4422Y1515J-28*
G01*
X4453*
Y1555*
X4228*
G75*
G02X4221Y1554I-7J23*
G01*
G75*
G02X4214Y1555J23*
G01*
X3689*
G75*
G02X3665Y1528I-23J-4*
G01*
G75*
G02X3642Y1555J23*
G01*
X3578*
G37*
X3642D02*
G36*
G75*
G02X3665Y1575I23J-4D01*
G01*
G75*
G02X3689Y1555J-23*
G01*
X4214*
G75*
G02X4221Y1601I7J23*
G01*
G75*
G02X4228Y1555J-23*
G01*
X4453*
Y1604*
X3827*
G75*
G02X3799Y1576I-28*
G01*
G75*
G02X3772Y1604J28*
G01*
X3578*
Y1555*
X3642*
G37*
X3645Y1805D02*
G36*
G75*
G02X3664Y1816I20J-13D01*
G01*
G75*
G02X3684Y1805J-23*
G01*
X4209*
G75*
G02X4208Y1843I13J20*
G01*
X3828*
G75*
G02X3800Y1816I-28*
G01*
G75*
G02X3773Y1843J28*
G01*
X3578*
Y1805*
X3645*
G37*
X4453D02*
G36*
Y1843D01*
X4236*
G75*
G02X4235Y1805I-14J-19*
G01*
X4453*
G37*
X3648Y2055D02*
G36*
G75*
G02X3664Y2062I16J-17D01*
G01*
G75*
G02X3680Y2055J-23*
G01*
X4200*
G75*
G02X4221Y2089I21J10*
G01*
G75*
G02X4242Y2055J-23*
G01*
X4453*
Y2089*
X3828*
G75*
G02X3800Y2062I-28*
G01*
G75*
G02X3773Y2089J28*
G01*
X3578*
Y2055*
X3648*
G37*
X4201Y2305D02*
G36*
G75*
G02X4208Y2334I21J10D01*
G01*
X3828*
G75*
G02X3800Y2306I-28*
G01*
G75*
G02X3773Y2334J28*
G01*
X3578*
Y2305*
X4201*
G37*
X4453D02*
G36*
Y2334D01*
X4236*
G75*
G02X4243Y2305I-14J-19*
G01*
X4453*
G37*
X3773Y2805D02*
G36*
G75*
G02X3799Y2842I26J9D01*
G01*
G75*
G02X3825Y2805J-28*
G01*
X4199*
G75*
G02X4222Y2825I23J-3*
G01*
G75*
G02X4245Y2805J-23*
G01*
X4453*
Y2902*
X4250*
G75*
G02X4222Y2874I-28*
G01*
G75*
G02X4195Y2902J28*
G01*
X3822*
G75*
G02X3800Y2888I-21J10*
G01*
G75*
G02X3779Y2902J23*
G01*
X3578*
Y2805*
X3773*
G37*
X3578Y1360D02*
G36*
Y1335D01*
X3785*
G75*
G02X3769Y1360I12J25*
G01*
X3578*
G37*
X3824D02*
G36*
G75*
G02X3808Y1335I-28D01*
G01*
X4197*
G75*
G02X4221Y1359I23*
G01*
G75*
G02X4244Y1335J-23*
G01*
X4453*
Y1360*
X3824*
G37*
X991Y75D02*
X997Y72D01*
X1003*
X1009Y75*
X1013Y81*
X1009Y88*
X1003Y91*
X997*
X1003D02*
X1009Y94D01*
X1013Y100*
X1009Y106*
X1003Y109*
X997*
X991Y106*
D02*
D12*
X278Y278D03*
Y3203D03*
X5628Y278D03*
Y3203D03*
D02*
D13*
X2403Y253D03*
Y353D03*
Y453D03*
Y553D03*
Y653D03*
Y753D03*
Y853D03*
Y953D03*
Y1053D03*
Y1153D03*
Y1252D03*
Y1353D03*
Y1453D03*
Y1553D03*
Y1653D03*
Y1753D03*
Y1853D03*
Y1953D03*
Y2053D03*
Y2153D03*
Y2253D03*
Y2353D03*
Y2453D03*
Y2553D03*
X3003Y253D03*
Y353D03*
Y453D03*
Y553D03*
Y653D03*
Y753D03*
Y853D03*
Y953D03*
Y1053D03*
Y1153D03*
Y1252D03*
Y1353D03*
Y1453D03*
Y1553D03*
Y1653D03*
Y1753D03*
Y1853D03*
Y1953D03*
Y2053D03*
Y2153D03*
Y2253D03*
Y2353D03*
Y2453D03*
Y2553D03*
D02*
D19*
X2103Y423D03*
X4581Y231D03*
X4615Y600D03*
X4717Y522D03*
X4718Y675D03*
X4817Y599D03*
X5463Y2528D03*
Y2683D03*
X5465Y953D03*
X5468Y873D03*
Y1033D03*
Y1268D03*
X5469Y795D03*
X5784D03*
X5788Y873D03*
Y1033D03*
Y1268D03*
Y1348D03*
X5790Y953D03*
X5793Y2528D03*
Y2683D03*
D02*
D70*
X507Y1298D03*
Y1418D03*
Y1553D03*
Y1668D03*
Y1803D03*
Y1918D03*
Y2053D03*
Y2168D03*
Y2297D03*
Y2418D03*
Y2553D03*
Y2668D03*
Y2803D03*
Y2918D03*
Y3048D03*
Y3168D03*
X678Y1478D03*
Y1728D03*
Y1978D03*
Y2228D03*
Y2478D03*
Y2728D03*
Y2978D03*
Y3228D03*
X703Y1242D03*
X943Y2483D03*
X948Y1483D03*
Y1733D03*
Y1983D03*
Y2233D03*
Y2733D03*
Y2983D03*
Y3233D03*
X1117Y1433D03*
Y1683D03*
Y1933D03*
Y2183D03*
Y2433D03*
Y2683D03*
Y2933D03*
Y3168D03*
X1518Y1308D03*
Y1555D03*
Y1805D03*
Y2055D03*
Y2305D03*
Y2555D03*
X1530Y2805D03*
Y3055D03*
X1688Y1258D03*
Y1505D03*
Y1755D03*
Y2005D03*
Y2255D03*
Y2505D03*
X1700Y2755D03*
Y3005D03*
X1928Y3243D03*
X1948Y2503D03*
X1953Y1508D03*
X1958Y1258D03*
Y1758D03*
Y2008D03*
Y2258D03*
Y2753D03*
X1968Y3008D03*
X2125Y1438D03*
X2128Y1568D03*
Y1688D03*
Y1817D03*
Y1938D03*
Y2067D03*
Y2188D03*
Y2317D03*
Y2568D03*
Y2688D03*
X2130Y1320D03*
Y2438D03*
X2138Y2818D03*
Y2938D03*
Y3068D03*
Y3188D03*
X2626Y2880D03*
Y3217D03*
X2786Y3219D03*
X3338Y1368D03*
Y1613D03*
Y1853D03*
Y2098D03*
Y2338D03*
Y2583D03*
Y2823D03*
Y3063D03*
X3624Y1515D03*
X3627Y1758D03*
Y2001D03*
X3629Y2244D03*
Y2968D03*
X3631Y2486D03*
Y2726D03*
Y3210D03*
X3663Y1310D03*
Y2281D03*
Y2525D03*
Y2764D03*
X3664Y1792D03*
Y2038D03*
X3665Y1551D03*
Y3005D03*
X3797Y1360D03*
X3798Y1456D03*
X3799Y1604D03*
Y1702D03*
Y1947D03*
Y2431D03*
Y2575D03*
Y2814D03*
Y3058D03*
X3800Y1843D03*
Y2089D03*
Y2334D03*
Y2675D03*
Y2912D03*
Y3158D03*
X3802Y2190D03*
X4218Y1682D03*
Y2415D03*
X4220Y1436D03*
Y1926D03*
Y2168D03*
Y2552D03*
Y2658D03*
Y3046D03*
X4221Y1335D03*
Y1578D03*
Y2065D03*
Y3148D03*
X4222Y1825D03*
Y2315D03*
Y2802D03*
Y2902D03*
X4361Y1977D03*
Y2711D03*
Y3200D03*
X4362Y1488D03*
Y1735D03*
Y2219D03*
Y2466D03*
Y2953D03*
X4394Y2502D03*
Y2992D03*
X4396Y2013D03*
X4397Y1280D03*
Y1526D03*
X4398Y2258D03*
X4399Y1768D03*
Y2744D03*
X4688Y1428D03*
Y1673D03*
Y1918D03*
Y2158D03*
Y2648D03*
Y2893D03*
Y3138D03*
X4693Y2408D03*
X5468Y1423D03*
X5476Y1739D03*
X5591Y2369D03*
X5591Y1503D03*
X5592Y2213D03*
Y2449D03*
X5592Y1110D03*
Y1188D03*
Y1897D03*
Y1976D03*
X5593Y2054D03*
Y2133D03*
Y2291D03*
Y2606D03*
X5594Y1347D03*
Y1818D03*
X5626Y1583D03*
Y1661D03*
Y1740D03*
X5662Y1110D03*
Y1188D03*
Y1425D03*
Y1503D03*
Y1897D03*
Y1976D03*
X5663Y2054D03*
Y2133D03*
Y2212D03*
Y2291D03*
Y2369D03*
Y2448D03*
Y2606D03*
X5778Y1543D03*
Y1617D03*
X5780Y1700D03*
D02*
D20*
X502Y1298D02*
X477D01*
X502Y1553D02*
X477D01*
X502Y1803D02*
X477D01*
X502Y2053D02*
X477D01*
X502Y2297D02*
X477D01*
X502Y2553D02*
X477D01*
X502Y2803D02*
X477D01*
X502Y3048D02*
X477D01*
X507Y1292D02*
Y1267D01*
Y1304D02*
Y1329D01*
Y1547D02*
Y1522D01*
Y1559D02*
Y1584D01*
Y1797D02*
Y1772D01*
Y1809D02*
Y1834D01*
Y2047D02*
Y2022D01*
Y2059D02*
Y2084D01*
Y2292D02*
Y2267D01*
Y2304D02*
Y2329D01*
Y2547D02*
Y2522D01*
Y2559D02*
Y2584D01*
Y2797D02*
Y2772D01*
Y2809D02*
Y2834D01*
Y3042D02*
Y3017D01*
Y3054D02*
Y3079D01*
X514Y1298D02*
X539D01*
X514Y1553D02*
X539D01*
X514Y1803D02*
X539D01*
X514Y2053D02*
X539D01*
X514Y2297D02*
X539D01*
X514Y2553D02*
X539D01*
X514Y2803D02*
X539D01*
X514Y3048D02*
X539D01*
X672Y1478D02*
X647D01*
X672Y1728D02*
X647D01*
X672Y1978D02*
X647D01*
X672Y2228D02*
X647D01*
X672Y2478D02*
X647D01*
X672Y2728D02*
X647D01*
X672Y2978D02*
X647D01*
X672Y3228D02*
X647D01*
X678Y1472D02*
Y1447D01*
Y1484D02*
Y1509D01*
Y1722D02*
Y1697D01*
Y1734D02*
Y1759D01*
Y1972D02*
Y1947D01*
Y1984D02*
Y2009D01*
Y2222D02*
Y2197D01*
Y2233D02*
Y2259D01*
Y2472D02*
Y2447D01*
Y2483D02*
Y2509D01*
Y2722D02*
Y2697D01*
Y2733D02*
Y2759D01*
Y2972D02*
Y2947D01*
Y2983D02*
Y3009D01*
Y3222D02*
Y3197D01*
Y3234D02*
Y3259D01*
X684Y1478D02*
X709D01*
X684Y1728D02*
X709D01*
X684Y1978D02*
X709D01*
X684Y2228D02*
X709D01*
X684Y2478D02*
X709D01*
X684Y2728D02*
X709D01*
X684Y2978D02*
X709D01*
X684Y3228D02*
X709D01*
X937Y2483D02*
X912D01*
X941Y1483D02*
X916D01*
X941Y1733D02*
X916D01*
X941Y1983D02*
X916D01*
X941Y2233D02*
X916D01*
X941Y2733D02*
X916D01*
X941Y2983D02*
X916D01*
X941Y3233D02*
X916D01*
X943Y2477D02*
Y2452D01*
Y2489D02*
Y2514D01*
X948Y1476D02*
Y1452D01*
Y1489D02*
Y1514D01*
Y1727D02*
Y1702D01*
Y1738D02*
Y1764D01*
Y1977D02*
Y1952D01*
Y1988D02*
Y2014D01*
Y2227D02*
Y2202D01*
Y2239D02*
Y2264D01*
Y2727D02*
Y2702D01*
Y2739D02*
Y2764D01*
Y2977D02*
Y2952D01*
Y2989D02*
Y3014D01*
Y3227D02*
Y3202D01*
Y3239D02*
Y3263D01*
X949Y2483D02*
X974D01*
X954Y1483D02*
X979D01*
X954Y1733D02*
X979D01*
X954Y1983D02*
X979D01*
X954Y2233D02*
X979D01*
X954Y2733D02*
X979D01*
X954Y2983D02*
X979D01*
X954Y3233D02*
X979D01*
X1682Y1258D02*
X1657D01*
X1682Y1505D02*
X1657D01*
X1682Y1755D02*
X1657D01*
X1682Y2005D02*
X1657D01*
X1682Y2255D02*
X1657D01*
X1682Y2505D02*
X1657D01*
X1688Y1264D02*
Y1289D01*
Y1499D02*
Y1474D01*
Y1511D02*
Y1536D01*
Y1749D02*
Y1724D01*
Y1761D02*
Y1786D01*
Y1999D02*
Y1974D01*
Y2011D02*
Y2036D01*
Y2249D02*
Y2224D01*
Y2261D02*
Y2286D01*
Y2499D02*
Y2474D01*
Y2511D02*
Y2536D01*
X1694Y1258D02*
X1719D01*
X1694Y1505D02*
X1719D01*
X1694Y1755D02*
X1719D01*
X1694Y2005D02*
X1719D01*
X1694Y2255D02*
X1719D01*
X1694Y2505D02*
X1719D01*
X1694Y2755D02*
X1669D01*
X1694Y3005D02*
X1669D01*
X1700Y2749D02*
Y2724D01*
Y2761D02*
Y2786D01*
Y2999D02*
Y2974D01*
Y3011D02*
Y3036D01*
X1706Y2755D02*
X1731D01*
X1706Y3005D02*
X1731D01*
X1941Y2503D02*
X1916D01*
X1947Y1508D02*
X1922D01*
X1948Y2497D02*
Y2472D01*
Y2509D02*
Y2534D01*
X1952Y1258D02*
X1927D01*
X1952Y1758D02*
X1927D01*
X1952Y2008D02*
X1927D01*
X1952Y2258D02*
X1927D01*
X1952Y2753D02*
X1927D01*
X1953Y1502D02*
Y1476D01*
Y1514D02*
Y1539D01*
X1954Y2503D02*
X1979D01*
X1958Y1252D02*
Y1227D01*
Y1264D02*
Y1289D01*
Y1752D02*
Y1727D01*
Y1764D02*
Y1788D01*
Y2002D02*
Y1977D01*
Y2014D02*
Y2038D01*
Y2252D02*
Y2227D01*
Y2264D02*
Y2288D01*
Y2747D02*
Y2722D01*
Y2759D02*
Y2784D01*
X1959Y1508D02*
X1984D01*
X1962Y3008D02*
X1937D01*
X1964Y1258D02*
X1988D01*
X1964Y1758D02*
X1988D01*
X1964Y2008D02*
X1988D01*
X1964Y2258D02*
X1988D01*
X1964Y2753D02*
X1988D01*
X1968Y3002D02*
Y2977D01*
Y3014D02*
Y3038D01*
X1974Y3008D02*
X1999D01*
X2085Y423D02*
X2060D01*
X2103Y405D02*
Y380D01*
Y441D02*
Y466D01*
X2119Y1438D02*
X2094D01*
X2121Y423D02*
X2146D01*
X2122Y1688D02*
X2097D01*
X2122Y1938D02*
X2097D01*
X2122Y2188D02*
X2097D01*
X2122Y2688D02*
X2097D01*
X2124Y2438D02*
X2099D01*
X2125Y1432D02*
Y1407D01*
Y1444D02*
Y1469D01*
X2128Y1682D02*
Y1657D01*
Y1694D02*
Y1719D01*
Y1932D02*
Y1907D01*
Y1944D02*
Y1969D01*
Y2182D02*
Y2157D01*
Y2194D02*
Y2219D01*
Y2682D02*
Y2657D01*
Y2693D02*
Y2719D01*
X2130Y2432D02*
Y2407D01*
Y2444D02*
Y2469D01*
X2131Y1438D02*
X2156D01*
X2132Y2938D02*
X2107D01*
X2132Y3188D02*
X2107D01*
X2134Y1688D02*
X2159D01*
X2134Y1938D02*
X2159D01*
X2134Y2188D02*
X2159D01*
X2134Y2688D02*
X2159D01*
X2136Y2438D02*
X2161D01*
X2138Y2932D02*
Y2907D01*
Y2943D02*
Y2969D01*
Y3182D02*
Y3157D01*
Y3193D02*
Y3219D01*
X2144Y2938D02*
X2169D01*
X2144Y3188D02*
X2169D01*
X2620Y3217D02*
X2595D01*
X2626Y3211D02*
Y3186D01*
Y3223D02*
Y3248D01*
X2632Y3217D02*
X2657D01*
X2780Y3219D02*
X2755D01*
X2786Y3213D02*
Y3188D01*
Y3225D02*
Y3250D01*
X2792Y3219D02*
X2817D01*
X2983Y253D02*
X2958D01*
X3003Y233D02*
Y207D01*
Y273D02*
Y297D01*
X3023Y253D02*
X3048D01*
X3332Y1368D02*
X3307D01*
X3332Y1613D02*
X3307D01*
X3332Y1853D02*
X3307D01*
X3332Y2098D02*
X3307D01*
X3332Y2338D02*
X3307D01*
X3332Y2583D02*
X3307D01*
X3332Y2823D02*
X3307D01*
X3332Y3063D02*
X3307D01*
X3338Y1361D02*
Y1337D01*
Y1374D02*
Y1399D01*
Y1607D02*
Y1582D01*
Y1619D02*
Y1644D01*
Y1847D02*
Y1822D01*
Y1859D02*
Y1884D01*
Y2092D02*
Y2067D01*
Y2104D02*
Y2128D01*
Y2332D02*
Y2307D01*
Y2344D02*
Y2369D01*
Y2577D02*
Y2552D01*
Y2588D02*
Y2614D01*
Y2817D02*
Y2792D01*
Y2829D02*
Y2854D01*
Y3057D02*
Y3032D01*
Y3068D02*
Y3094D01*
X3344Y1368D02*
X3369D01*
X3344Y1613D02*
X3369D01*
X3344Y1853D02*
X3369D01*
X3344Y2098D02*
X3369D01*
X3344Y2338D02*
X3369D01*
X3344Y2583D02*
X3369D01*
X3344Y2823D02*
X3369D01*
X3344Y3063D02*
X3369D01*
X3657Y1310D02*
X3632D01*
X3657Y2281D02*
X3632D01*
X3657Y2525D02*
X3632D01*
X3657Y2764D02*
X3632D01*
X3658Y2038D02*
X3633D01*
X3659Y1551D02*
X3634D01*
X3659Y3005D02*
X3634D01*
X3663Y1304D02*
Y1279D01*
Y1316D02*
Y1341D01*
Y2287D02*
Y2312D01*
Y2531D02*
Y2556D01*
Y2770D02*
Y2795D01*
X3664Y1786D02*
Y1761D01*
Y1798D02*
Y1823D01*
Y2032D02*
Y2007D01*
Y2044D02*
Y2069D01*
X3665Y1545D02*
Y1520D01*
Y1557D02*
Y1582D01*
Y2999D02*
Y2974D01*
Y3011D02*
Y3036D01*
X3669Y1310D02*
X3694D01*
X3669Y2281D02*
X3694D01*
X3669Y2525D02*
X3694D01*
X3669Y2764D02*
X3694D01*
X3670Y1792D02*
X3695D01*
X3670Y2038D02*
X3695D01*
X3671Y1551D02*
X3696D01*
X3671Y3005D02*
X3696D01*
X3792Y1456D02*
X3767D01*
X3793Y1702D02*
X3768D01*
X3793Y1947D02*
X3768D01*
X3793Y2431D02*
X3768D01*
X3794Y2675D02*
X3769D01*
X3794Y2912D02*
X3769D01*
X3794Y3158D02*
X3769D01*
X3796Y2190D02*
X3771D01*
X3798Y1450D02*
Y1425D01*
Y1462D02*
Y1487D01*
X3799Y1696D02*
Y1671D01*
Y1708D02*
Y1733D01*
Y1941D02*
Y1916D01*
Y1953D02*
Y1978D01*
Y2425D02*
Y2400D01*
Y2437D02*
Y2462D01*
X3800Y2669D02*
Y2644D01*
Y2681D02*
Y2706D01*
Y2906D02*
Y2881D01*
Y2918D02*
Y2943D01*
Y3152D02*
Y3127D01*
Y3164D02*
Y3189D01*
X3802Y2184D02*
Y2159D01*
Y2196D02*
Y2221D01*
X3804Y1456D02*
X3829D01*
X3805Y1702D02*
X3830D01*
X3805Y1947D02*
X3830D01*
X3805Y2431D02*
X3830D01*
X3806Y2675D02*
X3831D01*
X3806Y2912D02*
X3831D01*
X3806Y3158D02*
X3831D01*
X3808Y2190D02*
X3833D01*
X4214Y2552D02*
X4189D01*
X4214Y3046D02*
X4189D01*
X4215Y1335D02*
X4190D01*
X4215Y1578D02*
X4190D01*
X4215Y2065D02*
X4190D01*
X4216Y1825D02*
X4191D01*
X4216Y2315D02*
X4191D01*
X4216Y2802D02*
X4191D01*
X4220Y2546D02*
Y2521D01*
Y2558D02*
Y2583D01*
Y3040D02*
Y3015D01*
Y3052D02*
Y3077D01*
X4221Y1329D02*
Y1304D01*
Y1341D02*
Y1366D01*
Y1572D02*
Y1547D01*
Y1584D02*
Y1609D01*
Y2059D02*
Y2034D01*
Y2071D02*
Y2096D01*
X4222Y1819D02*
Y1794D01*
Y1831D02*
Y1856D01*
Y2309D02*
Y2284D01*
Y2321D02*
Y2346D01*
Y2796D02*
Y2771D01*
Y2808D02*
Y2833D01*
X4226Y2552D02*
X4251D01*
X4226Y3046D02*
X4251D01*
X4227Y1335D02*
X4252D01*
X4227Y1578D02*
X4252D01*
X4227Y2065D02*
X4252D01*
X4228Y1825D02*
X4253D01*
X4228Y2315D02*
X4253D01*
X4228Y2802D02*
X4253D01*
X4355Y1977D02*
X4330D01*
X4355Y2711D02*
X4330D01*
X4355Y3200D02*
X4330D01*
X4356Y1488D02*
X4331D01*
X4356Y1735D02*
X4331D01*
X4356Y2219D02*
X4331D01*
X4356Y2466D02*
X4331D01*
X4356Y2953D02*
X4331D01*
X4361Y1971D02*
Y1946D01*
Y1983D02*
Y2008D01*
Y2705D02*
Y2680D01*
Y2717D02*
Y2742D01*
Y3194D02*
Y3169D01*
Y3206D02*
Y3231D01*
X4362Y1482D02*
Y1457D01*
Y1494D02*
Y1519D01*
Y1729D02*
Y1704D01*
Y1741D02*
Y1766D01*
Y2213D02*
Y2188D01*
Y2225D02*
Y2250D01*
Y2460D02*
Y2435D01*
Y2947D02*
Y2922D01*
X4367Y1977D02*
X4392D01*
X4367Y3200D02*
X4392D01*
X4368Y1488D02*
X4393D01*
X4368Y2219D02*
X4393D01*
X4368Y2466D02*
X4393D01*
X4368Y2953D02*
X4393D01*
X4563Y231D02*
X4538D01*
X4581Y213D02*
Y188D01*
Y249D02*
Y274D01*
X4599Y231D02*
X4624D01*
X4682Y1428D02*
X4657D01*
X4682Y1673D02*
X4657D01*
X4682Y1918D02*
X4657D01*
X4682Y2158D02*
X4657D01*
X4682Y2648D02*
X4657D01*
X4682Y2893D02*
X4657D01*
X4682Y3138D02*
X4657D01*
X4687Y2408D02*
X4662D01*
X4688Y1422D02*
Y1397D01*
Y1434D02*
Y1459D01*
Y1666D02*
Y1641D01*
Y1679D02*
Y1704D01*
Y1911D02*
Y1887D01*
Y1924D02*
Y1949D01*
Y2152D02*
Y2127D01*
Y2163D02*
Y2188D01*
Y2642D02*
Y2617D01*
Y2654D02*
Y2679D01*
Y2887D02*
Y2862D01*
Y2899D02*
Y2924D01*
Y3132D02*
Y3107D01*
Y3143D02*
Y3168D01*
X4693Y2402D02*
Y2377D01*
Y2413D02*
Y2438D01*
X4694Y1428D02*
X4719D01*
X4694Y1673D02*
X4719D01*
X4694Y1918D02*
X4719D01*
X4694Y2158D02*
X4719D01*
X4694Y2648D02*
X4719D01*
X4694Y2893D02*
X4719D01*
X4694Y3138D02*
X4719D01*
X4699Y2408D02*
X4724D01*
X5444Y2528D02*
X5420D01*
X5444Y2683D02*
X5420D01*
X5449Y1268D02*
X5425D01*
X5455Y860D02*
X5437Y842D01*
X5455Y885D02*
X5437Y903D01*
X5455Y1020D02*
X5437Y1002D01*
X5455Y1045D02*
X5437Y1063D01*
X5462Y1423D02*
X5437D01*
X5463Y2510D02*
Y2485D01*
Y2546D02*
Y2570D01*
Y2665D02*
Y2640D01*
Y2701D02*
Y2726D01*
X5468Y1250D02*
Y1225D01*
Y1286D02*
Y1311D01*
Y1417D02*
Y1391D01*
Y1429D02*
Y1454D01*
X5474Y1423D02*
X5499D01*
X5480Y860D02*
X5498Y842D01*
X5480Y885D02*
X5498Y903D01*
X5480Y1020D02*
X5498Y1002D01*
X5480Y1045D02*
X5498Y1063D01*
X5481Y2528D02*
X5506D01*
X5481Y2683D02*
X5506D01*
X5486Y1268D02*
X5511D01*
X5713Y3748D02*
X5688D01*
X5753Y3708D02*
Y3683D01*
Y3788D02*
Y3813D01*
X5774Y2528D02*
X5750D01*
X5774Y2683D02*
X5750D01*
X5775Y860D02*
X5757Y842D01*
X5775Y885D02*
X5757Y903D01*
X5775Y1020D02*
X5757Y1002D01*
X5775Y1045D02*
X5757Y1063D01*
X5775Y1255D02*
X5757Y1237D01*
X5775Y1280D02*
X5757Y1298D01*
X5775Y1335D02*
X5757Y1317D01*
X5775Y1360D02*
X5757Y1378D01*
X5793Y2510D02*
Y2485D01*
Y2546D02*
Y2570D01*
Y2665D02*
Y2640D01*
Y2701D02*
Y2726D01*
Y3748D02*
X5818D01*
X5800Y860D02*
X5818Y842D01*
X5800Y885D02*
X5818Y903D01*
X5800Y1020D02*
X5818Y1002D01*
X5800Y1045D02*
X5818Y1063D01*
X5800Y1255D02*
X5818Y1237D01*
X5800Y1280D02*
X5818Y1298D01*
X5800Y1335D02*
X5818Y1317D01*
X5800Y1360D02*
X5818Y1378D01*
X5811Y2528D02*
X5836D01*
X5811Y2683D02*
X5836D01*
D02*
D76*
X153Y3748D03*
X303D03*
X453D03*
X603D03*
X753D03*
X903D03*
X1053D03*
X1202D03*
X1453D03*
X1603D03*
X1753D03*
X1903D03*
X2053D03*
X2203D03*
X2353D03*
X2503D03*
X2853D03*
X3003D03*
X3153D03*
X3303D03*
X3453D03*
X3603D03*
X3753D03*
X3903D03*
X4153D03*
X4303D03*
X4453D03*
X4603D03*
X4753D03*
X4903D03*
X5053D03*
X5203D03*
X5603D03*
X5753D03*
X0Y0D02*
M02*
