%FSLAX23Y23*%
%MOIN*%
G04 EasyPC Gerber Version 17.0 Build 3379 *
%ADD23C,0.00100*%
%ADD10C,0.00500*%
%ADD77C,0.00700*%
X0Y0D02*
D02*
D10*
X55Y3702D02*
X1303D01*
Y3943*
X55*
Y3702*
X477Y1320D02*
Y1290D01*
X460*
X455Y1293*
X453Y1298*
X455Y1303*
X460Y1305*
X477*
X460D02*
X453Y1320D01*
X433D02*
X423D01*
X428D02*
Y1290D01*
X433Y1295*
X398Y1313D02*
X395Y1308D01*
X390Y1305*
X385*
X380Y1308*
X378Y1313*
X380Y1318*
X385Y1320*
X390*
X395Y1318*
X398Y1313*
Y1305*
X395Y1298*
X390Y1293*
X385Y1290*
X477Y1395D02*
Y1365D01*
X460*
X455Y1368*
X453Y1373*
X455Y1378*
X460Y1380*
X477*
X460D02*
X453Y1395D01*
X433D02*
X423D01*
X428D02*
Y1365D01*
X433Y1370*
X398Y1393D02*
X393Y1395D01*
X385*
X380Y1393*
X378Y1388*
Y1385*
X380Y1380*
X385Y1378*
X398*
Y1365*
X378*
X453Y1465D02*
X455Y1468D01*
X460Y1470*
X468*
X473Y1468*
X475Y1465*
X477Y1460*
Y1450*
X475Y1445*
X473Y1443*
X468Y1440*
X460*
X455Y1443*
X453Y1445*
X430Y1455D02*
X425D01*
X420Y1453*
X418Y1448*
X420Y1443*
X425Y1440*
X430*
X435Y1443*
X438Y1448*
X435Y1453*
X430Y1455*
X435Y1458*
X438Y1463*
X435Y1468*
X430Y1470*
X425*
X420Y1468*
X418Y1463*
X420Y1458*
X425Y1455*
X477Y1570D02*
Y1540D01*
X460*
X455Y1543*
X453Y1548*
X455Y1553*
X460Y1555*
X477*
X460D02*
X453Y1570D01*
X433D02*
X423D01*
X428D02*
Y1540D01*
X433Y1545*
X385Y1570D02*
Y1540D01*
X398Y1560*
X378*
X477Y1645D02*
Y1615D01*
X460*
X455Y1618*
X453Y1623*
X455Y1628*
X460Y1630*
X477*
X460D02*
X453Y1645D01*
X433D02*
X423D01*
X428D02*
Y1615D01*
X433Y1620*
X395Y1643D02*
X390Y1645D01*
X385*
X380Y1643*
X378Y1638*
X380Y1633*
X385Y1630*
X390*
X385D02*
X380Y1628D01*
X378Y1623*
X380Y1618*
X385Y1615*
X390*
X395Y1618*
X453Y1715D02*
X455Y1718D01*
X460Y1720*
X468*
X473Y1718*
X475Y1715*
X477Y1710*
Y1700*
X475Y1695*
X473Y1692*
X468Y1690*
X460*
X455Y1692*
X453Y1695*
X438Y1720D02*
X418Y1690D01*
X438*
X477Y1820D02*
Y1790D01*
X460*
X455Y1793*
X453Y1798*
X455Y1803*
X460Y1805*
X477*
X460D02*
X453Y1820D01*
X433D02*
X423D01*
X428D02*
Y1790D01*
X433Y1795*
X378Y1820D02*
X398D01*
X380Y1803*
X378Y1798*
X380Y1793*
X385Y1790*
X393*
X398Y1793*
X477Y1895D02*
Y1865D01*
X460*
X455Y1868*
X453Y1873*
X455Y1878*
X460Y1880*
X477*
X460D02*
X453Y1895D01*
X433D02*
X423D01*
X428D02*
Y1865D01*
X433Y1870*
X393Y1895D02*
X383D01*
X388D02*
Y1865D01*
X393Y1870*
X453Y1965D02*
X455Y1968D01*
X460Y1970*
X468*
X473Y1968*
X475Y1965*
X477Y1960*
Y1950*
X475Y1945*
X473Y1942*
X468Y1940*
X460*
X455Y1942*
X453Y1945*
X438Y1963D02*
X435Y1958D01*
X430Y1955*
X425*
X420Y1958*
X418Y1963*
X420Y1968*
X425Y1970*
X430*
X435Y1968*
X438Y1963*
Y1955*
X435Y1948*
X430Y1942*
X425Y1940*
X477Y2070D02*
Y2040D01*
X460*
X455Y2043*
X453Y2047*
X455Y2053*
X460Y2055*
X477*
X460D02*
X453Y2070D01*
X433D02*
X423D01*
X428D02*
Y2040D01*
X433Y2045*
X395Y2067D02*
X390Y2070D01*
X385*
X380Y2067*
X378Y2063*
Y2047*
X380Y2043*
X385Y2040*
X390*
X395Y2043*
X398Y2047*
Y2063*
X395Y2067*
X380Y2043*
X477Y2145D02*
Y2115D01*
X460*
X455Y2118*
X453Y2123*
X455Y2128*
X460Y2130*
X477*
X460D02*
X453Y2145D01*
X430D02*
X425Y2143D01*
X420Y2138*
X418Y2130*
Y2123*
X420Y2118*
X425Y2115*
X430*
X435Y2118*
X438Y2123*
X435Y2128*
X430Y2130*
X425*
X420Y2128*
X418Y2123*
X453Y2215D02*
X455Y2217D01*
X460Y2220*
X468*
X473Y2217*
X475Y2215*
X477Y2210*
Y2200*
X475Y2195*
X473Y2192*
X468Y2190*
X460*
X455Y2192*
X453Y2195*
X438Y2217D02*
X433Y2220D01*
X425*
X420Y2217*
X418Y2213*
Y2210*
X420Y2205*
X425Y2203*
X438*
Y2190*
X418*
X477Y2308D02*
Y2278D01*
X460*
X455Y2280*
X453Y2285*
X455Y2290*
X460Y2293*
X477*
X460D02*
X453Y2308D01*
X430Y2293D02*
X425D01*
X420Y2290*
X418Y2285*
X420Y2280*
X425Y2278*
X430*
X435Y2280*
X438Y2285*
X435Y2290*
X430Y2293*
X435Y2295*
X438Y2300*
X435Y2305*
X430Y2308*
X425*
X420Y2305*
X418Y2300*
X420Y2295*
X425Y2293*
X477Y2395D02*
Y2365D01*
X460*
X455Y2368*
X453Y2373*
X455Y2378*
X460Y2380*
X477*
X460D02*
X453Y2395D01*
X438D02*
X418Y2365D01*
X438*
X453Y2465D02*
X455Y2467D01*
X460Y2470*
X468*
X473Y2467*
X475Y2465*
X477Y2460*
Y2450*
X475Y2445*
X473Y2442*
X468Y2440*
X460*
X455Y2442*
X453Y2445*
X425Y2470D02*
Y2440D01*
X438Y2460*
X418*
X477Y2570D02*
Y2540D01*
X460*
X455Y2543*
X453Y2547*
X455Y2553*
X460Y2555*
X477*
X460D02*
X453Y2570D01*
X438Y2563D02*
X435Y2558D01*
X430Y2555*
X425*
X420Y2558*
X418Y2563*
X420Y2568*
X425Y2570*
X430*
X435Y2568*
X438Y2563*
Y2555*
X435Y2547*
X430Y2543*
X425Y2540*
X477Y2645D02*
Y2615D01*
X460*
X455Y2618*
X453Y2623*
X455Y2628*
X460Y2630*
X477*
X460D02*
X453Y2645D01*
X438Y2643D02*
X433Y2645D01*
X425*
X420Y2643*
X418Y2638*
Y2635*
X420Y2630*
X425Y2628*
X438*
Y2615*
X418*
X453Y2715D02*
X455Y2718D01*
X460Y2720*
X468*
X473Y2718*
X475Y2715*
X477Y2710*
Y2700*
X475Y2695*
X473Y2693*
X468Y2690*
X460*
X455Y2693*
X453Y2695*
X435Y2718D02*
X430Y2720D01*
X425*
X420Y2718*
X418Y2713*
X420Y2708*
X425Y2705*
X430*
X425D02*
X420Y2703D01*
X418Y2698*
X420Y2693*
X425Y2690*
X430*
X435Y2693*
X477Y2820D02*
Y2790D01*
X460*
X455Y2793*
X453Y2798*
X455Y2803*
X460Y2805*
X477*
X460D02*
X453Y2820D01*
X425D02*
Y2790D01*
X438Y2810*
X418*
X477Y2895D02*
Y2865D01*
X460*
X455Y2868*
X453Y2873*
X455Y2878*
X460Y2880*
X477*
X460D02*
X453Y2895D01*
X435Y2893D02*
X430Y2895D01*
X425*
X420Y2893*
X418Y2888*
X420Y2883*
X425Y2880*
X430*
X425D02*
X420Y2878D01*
X418Y2873*
X420Y2868*
X425Y2865*
X430*
X435Y2868*
X453Y2953D02*
X455Y2955D01*
X460Y2958*
X468*
X473Y2955*
X475Y2953*
X477Y2948*
Y2938*
X475Y2933*
X473Y2930*
X468Y2928*
X460*
X455Y2930*
X453Y2933*
X418Y2958D02*
X438D01*
X420Y2940*
X418Y2935*
X420Y2930*
X425Y2928*
X433*
X438Y2930*
X477Y3058D02*
Y3028D01*
X460*
X455Y3030*
X453Y3035*
X455Y3040*
X460Y3043*
X477*
X460D02*
X453Y3058D01*
X418D02*
X438D01*
X420Y3040*
X418Y3035*
X420Y3030*
X425Y3028*
X433*
X438Y3030*
X490Y3145D02*
Y3115D01*
X473*
X468Y3118*
X465Y3123*
X468Y3128*
X473Y3130*
X490*
X473D02*
X465Y3145D01*
X445D02*
X435D01*
X440D02*
Y3115D01*
X445Y3120*
X534Y1274D02*
Y1327D01*
X656*
Y1274*
X534*
Y1361D02*
Y1414D01*
X656*
Y1361*
X534*
Y1424D02*
Y1476D01*
X656*
Y1424*
X534*
Y1524D02*
Y1577D01*
X656*
Y1524*
X534*
Y1611D02*
Y1664D01*
X656*
Y1611*
X534*
Y1674D02*
Y1727D01*
X656*
Y1674*
X534*
Y1774D02*
Y1827D01*
X656*
Y1774*
X534*
Y1861D02*
Y1914D01*
X656*
Y1861*
X534*
Y1924D02*
Y1977D01*
X656*
Y1924*
X534*
Y2024D02*
Y2077D01*
X656*
Y2024*
X534*
Y2111D02*
Y2164D01*
X656*
Y2111*
X534*
Y2174D02*
Y2227D01*
X656*
Y2174*
X534*
Y2274D02*
Y2327D01*
X656*
Y2274*
X534*
Y2361D02*
Y2414D01*
X656*
Y2361*
X534*
Y2424D02*
Y2477D01*
X656*
Y2424*
X534*
Y2524D02*
Y2577D01*
X656*
Y2524*
X534*
Y2611D02*
Y2664D01*
X656*
Y2611*
X534*
Y2674D02*
Y2727D01*
X656*
Y2674*
X534*
Y2774D02*
Y2827D01*
X656*
Y2774*
X534*
Y2861D02*
Y2914D01*
X656*
Y2861*
X534*
Y2924D02*
Y2977D01*
X656*
Y2924*
X534*
Y3024D02*
Y3077D01*
X656*
Y3024*
X534*
Y3111D02*
Y3164D01*
X656*
Y3111*
X534*
Y3174D02*
Y3227D01*
X656*
Y3174*
X534*
X598Y3267D02*
X600Y3270D01*
X605Y3272*
X613*
X618Y3270*
X620Y3267*
X623Y3262*
Y3252*
X620Y3247*
X618Y3245*
X613Y3242*
X605*
X600Y3245*
X598Y3247*
X578Y3272D02*
X568D01*
X573D02*
Y3242D01*
X578Y3247*
X668Y1267D02*
Y1458D01*
X948*
Y1267*
X822*
Y1282*
X793*
Y1267*
X668*
Y1517D02*
Y1708D01*
X948*
Y1517*
X822*
Y1532*
X793*
Y1517*
X668*
Y1767D02*
Y1958D01*
X948*
Y1767*
X822*
Y1782*
X793*
Y1767*
X668*
Y2017D02*
Y2208D01*
X948*
Y2017*
X822*
Y2032*
X793*
Y2017*
X668*
Y2267D02*
Y2458D01*
X948*
Y2267*
X822*
Y2282*
X793*
Y2267*
X668*
Y2517D02*
Y2708D01*
X948*
Y2517*
X822*
Y2532*
X793*
Y2517*
X668*
Y2767D02*
Y2958D01*
X948*
Y2767*
X822*
Y2782*
X793*
Y2767*
X668*
Y3017D02*
Y3208D01*
X948*
Y3017*
X822*
Y3032*
X793*
Y3017*
X668*
X709Y3657D02*
X706Y3660D01*
X701Y3662*
X696Y3660*
X694Y3657*
Y3632*
X689*
X694D02*
X704D01*
X664Y3662D02*
X654D01*
X659D02*
Y3632D01*
X664Y3637*
X858Y1225D02*
Y1248D01*
X855Y1252*
X850Y1255*
X840*
X835Y1252*
X833Y1248*
Y1225*
X810Y1240D02*
X805D01*
X800Y1238*
X798Y1233*
X800Y1228*
X805Y1225*
X810*
X815Y1228*
X818Y1233*
X815Y1238*
X810Y1240*
X815Y1242*
X818Y1248*
X815Y1252*
X810Y1255*
X805*
X800Y1252*
X798Y1248*
X800Y1242*
X805Y1240*
X858Y1475D02*
Y1498D01*
X855Y1503*
X850Y1505*
X840*
X835Y1503*
X833Y1498*
Y1475*
X818Y1505D02*
X798Y1475D01*
X818*
X858Y1725D02*
Y1748D01*
X855Y1753*
X850Y1755*
X840*
X835Y1753*
X833Y1748*
Y1725*
X818Y1748D02*
X815Y1743D01*
X810Y1740*
X805*
X800Y1743*
X798Y1748*
X800Y1753*
X805Y1755*
X810*
X815Y1753*
X818Y1748*
Y1740*
X815Y1733*
X810Y1728*
X805Y1725*
X858Y1975D02*
Y1998D01*
X855Y2003*
X850Y2005*
X840*
X835Y2003*
X833Y1998*
Y1975*
X818Y2003D02*
X813Y2005D01*
X805*
X800Y2003*
X798Y1998*
Y1995*
X800Y1990*
X805Y1988*
X818*
Y1975*
X798*
X858Y2225D02*
Y2248D01*
X855Y2253*
X850Y2255*
X840*
X835Y2253*
X833Y2248*
Y2225*
X805Y2255D02*
Y2225D01*
X818Y2245*
X798*
X858Y2475D02*
Y2498D01*
X855Y2503*
X850Y2505*
X840*
X835Y2503*
X833Y2498*
Y2475*
X815Y2503D02*
X810Y2505D01*
X805*
X800Y2503*
X798Y2498*
X800Y2493*
X805Y2490*
X810*
X805D02*
X800Y2488D01*
X798Y2483*
X800Y2478*
X805Y2475*
X810*
X815Y2478*
X858Y2725D02*
Y2748D01*
X855Y2753*
X850Y2755*
X840*
X835Y2753*
X833Y2748*
Y2725*
X798Y2755D02*
X818D01*
X800Y2738*
X798Y2733*
X800Y2728*
X805Y2725*
X813*
X818Y2728*
X858Y2975D02*
Y2998D01*
X855Y3003*
X850Y3005*
X840*
X835Y3003*
X833Y2998*
Y2975*
X813Y3005D02*
X803D01*
X808D02*
Y2975D01*
X813Y2980*
X937Y1263D02*
G75*
G03Y1278J8D01*
G01*
G75*
G03Y1263J-8*
G01*
G36*
G75*
G03Y1278J8*
G01*
G75*
G03Y1263J-8*
G01*
G37*
Y1513D02*
G75*
G03Y1528J8D01*
G01*
G75*
G03Y1513J-8*
G01*
G36*
G75*
G03Y1528J8*
G01*
G75*
G03Y1513J-8*
G01*
G37*
Y1763D02*
G75*
G03Y1778J8D01*
G01*
G75*
G03Y1763J-8*
G01*
G36*
G75*
G03Y1778J8*
G01*
G75*
G03Y1763J-8*
G01*
G37*
Y2013D02*
G75*
G03Y2028J8D01*
G01*
G75*
G03Y2013J-8*
G01*
G36*
G75*
G03Y2028J8*
G01*
G75*
G03Y2013J-8*
G01*
G37*
Y2263D02*
G75*
G03Y2278J8D01*
G01*
G75*
G03Y2263J-8*
G01*
G36*
G75*
G03Y2278J8*
G01*
G75*
G03Y2263J-8*
G01*
G37*
Y2513D02*
G75*
G03Y2528J8D01*
G01*
G75*
G03Y2513J-8*
G01*
G36*
G75*
G03Y2528J8*
G01*
G75*
G03Y2513J-8*
G01*
G37*
Y2763D02*
G75*
G03Y2778J8D01*
G01*
G75*
G03Y2763J-8*
G01*
G36*
G75*
G03Y2778J8*
G01*
G75*
G03Y2763J-8*
G01*
G37*
Y3013D02*
G75*
G03Y3028J8D01*
G01*
G75*
G03Y3013J-8*
G01*
G36*
G75*
G03Y3028J8*
G01*
G75*
G03Y3013J-8*
G01*
G37*
X971Y1274D02*
Y1327D01*
X1094*
Y1274*
X971*
Y1524D02*
Y1577D01*
X1094*
Y1524*
X971*
Y1774D02*
Y1827D01*
X1094*
Y1774*
X971*
Y2024D02*
Y2077D01*
X1094*
Y2024*
X971*
Y2274D02*
Y2327D01*
X1094*
Y2274*
X971*
Y2524D02*
Y2577D01*
X1094*
Y2524*
X971*
Y2774D02*
Y2827D01*
X1094*
Y2774*
X971*
Y3024D02*
Y3077D01*
X1094*
Y3024*
X971*
X1094Y1427D02*
Y1374D01*
X971*
Y1427*
X1094*
Y1489D02*
Y1436D01*
X971*
Y1489*
X1094*
Y1677D02*
Y1624D01*
X971*
Y1677*
X1094*
Y1739D02*
Y1686D01*
X971*
Y1739*
X1094*
Y1927D02*
Y1874D01*
X971*
Y1927*
X1094*
Y1989D02*
Y1936D01*
X971*
Y1989*
X1094*
Y2177D02*
Y2124D01*
X971*
Y2177*
X1094*
Y2239D02*
Y2186D01*
X971*
Y2239*
X1094*
Y2427D02*
Y2374D01*
X971*
Y2427*
X1094*
Y2489D02*
Y2436D01*
X971*
Y2489*
X1094*
Y2677D02*
Y2624D01*
X971*
Y2677*
X1094*
Y2739D02*
Y2686D01*
X971*
Y2739*
X1094*
Y2927D02*
Y2874D01*
X971*
Y2927*
X1094*
Y2989D02*
Y2936D01*
X971*
Y2989*
X1094*
Y3164D02*
Y3111D01*
X971*
Y3164*
X1094*
Y3227D02*
Y3174D01*
X971*
Y3227*
X1094*
X1240Y1320D02*
Y1290D01*
X1223*
X1218Y1293*
X1215Y1298*
X1218Y1303*
X1223Y1305*
X1240*
X1223D02*
X1215Y1320D01*
X1198Y1318D02*
X1192Y1320D01*
X1188*
X1183Y1318*
X1180Y1313*
X1183Y1308*
X1188Y1305*
X1192*
X1188D02*
X1183Y1303D01*
X1180Y1298*
X1183Y1293*
X1188Y1290*
X1192*
X1198Y1293*
X1140Y1320D02*
X1160D01*
X1143Y1303*
X1140Y1298*
X1143Y1293*
X1148Y1290*
X1155*
X1160Y1293*
X1240Y1420D02*
Y1390D01*
X1223*
X1218Y1393*
X1215Y1398*
X1218Y1403*
X1223Y1405*
X1240*
X1223D02*
X1215Y1420D01*
X1198Y1418D02*
X1192Y1420D01*
X1188*
X1183Y1418*
X1180Y1413*
X1183Y1408*
X1188Y1405*
X1192*
X1188D02*
X1183Y1403D01*
X1180Y1398*
X1183Y1393*
X1188Y1390*
X1192*
X1198Y1393*
X1155Y1420D02*
X1145D01*
X1150D02*
Y1390D01*
X1155Y1395*
X1215Y1478D02*
X1218Y1480D01*
X1223Y1483*
X1230*
X1235Y1480*
X1238Y1478*
X1240Y1473*
Y1463*
X1238Y1458*
X1235Y1455*
X1230Y1453*
X1223*
X1218Y1455*
X1215Y1458*
X1195Y1483D02*
X1185D01*
X1190D02*
Y1453D01*
X1195Y1458*
X1160Y1475D02*
X1158Y1470D01*
X1153Y1468*
X1148*
X1143Y1470*
X1140Y1475*
X1143Y1480*
X1148Y1483*
X1153*
X1158Y1480*
X1160Y1475*
Y1468*
X1158Y1460*
X1153Y1455*
X1148Y1453*
X1240Y1570D02*
Y1540D01*
X1223*
X1218Y1543*
X1215Y1548*
X1218Y1553*
X1223Y1555*
X1240*
X1223D02*
X1215Y1570D01*
X1198Y1568D02*
X1192Y1570D01*
X1188*
X1183Y1568*
X1180Y1563*
X1183Y1558*
X1188Y1555*
X1192*
X1188D02*
X1183Y1553D01*
X1180Y1548*
X1183Y1543*
X1188Y1540*
X1192*
X1198Y1543*
X1158Y1568D02*
X1153Y1570D01*
X1148*
X1143Y1568*
X1140Y1563*
Y1548*
X1143Y1543*
X1148Y1540*
X1153*
X1158Y1543*
X1160Y1548*
Y1563*
X1158Y1568*
X1143Y1543*
X1240Y1670D02*
Y1640D01*
X1223*
X1218Y1643*
X1215Y1648*
X1218Y1653*
X1223Y1655*
X1240*
X1223D02*
X1215Y1670D01*
X1180D02*
X1200D01*
X1183Y1653*
X1180Y1648*
X1183Y1643*
X1188Y1640*
X1195*
X1200Y1643*
X1153Y1670D02*
X1148Y1668D01*
X1143Y1663*
X1140Y1655*
Y1648*
X1143Y1643*
X1148Y1640*
X1153*
X1158Y1643*
X1160Y1648*
X1158Y1653*
X1153Y1655*
X1148*
X1143Y1653*
X1140Y1648*
X1215Y1728D02*
X1218Y1730D01*
X1223Y1733*
X1230*
X1235Y1730*
X1238Y1728*
X1240Y1722*
Y1713*
X1238Y1708*
X1235Y1705*
X1230Y1703*
X1223*
X1218Y1705*
X1215Y1708*
X1195Y1733D02*
X1185D01*
X1190D02*
Y1703D01*
X1195Y1708*
X1160Y1730D02*
X1155Y1733D01*
X1148*
X1143Y1730*
X1140Y1725*
Y1722*
X1143Y1718*
X1148Y1715*
X1160*
Y1703*
X1140*
X1240Y1820D02*
Y1790D01*
X1223*
X1218Y1793*
X1215Y1798*
X1218Y1803*
X1223Y1805*
X1240*
X1223D02*
X1215Y1820D01*
X1180D02*
X1200D01*
X1183Y1803*
X1180Y1798*
X1183Y1793*
X1188Y1790*
X1195*
X1200Y1793*
X1153Y1805D02*
X1148D01*
X1143Y1803*
X1140Y1798*
X1143Y1793*
X1148Y1790*
X1153*
X1158Y1793*
X1160Y1798*
X1158Y1803*
X1153Y1805*
X1158Y1808*
X1160Y1813*
X1158Y1817*
X1153Y1820*
X1148*
X1143Y1817*
X1140Y1813*
X1143Y1808*
X1148Y1805*
X1240Y1920D02*
Y1890D01*
X1223*
X1218Y1893*
X1215Y1898*
X1218Y1903*
X1223Y1905*
X1240*
X1223D02*
X1215Y1920D01*
X1180D02*
X1200D01*
X1183Y1903*
X1180Y1898*
X1183Y1893*
X1188Y1890*
X1195*
X1200Y1893*
X1160Y1920D02*
X1140Y1890D01*
X1160*
X1215Y1978D02*
X1218Y1980D01*
X1223Y1983*
X1230*
X1235Y1980*
X1238Y1978*
X1240Y1972*
Y1963*
X1238Y1958*
X1235Y1955*
X1230Y1953*
X1223*
X1218Y1955*
X1215Y1958*
X1195Y1983D02*
X1185D01*
X1190D02*
Y1953D01*
X1195Y1958*
X1148Y1983D02*
Y1953D01*
X1160Y1972*
X1140*
X1240Y2070D02*
Y2040D01*
X1223*
X1218Y2043*
X1215Y2047*
X1218Y2053*
X1223Y2055*
X1240*
X1223D02*
X1215Y2070D01*
X1180D02*
X1200D01*
X1183Y2053*
X1180Y2047*
X1183Y2043*
X1188Y2040*
X1195*
X1200Y2043*
X1160Y2063D02*
X1158Y2058D01*
X1153Y2055*
X1148*
X1143Y2058*
X1140Y2063*
X1143Y2067*
X1148Y2070*
X1153*
X1158Y2067*
X1160Y2063*
Y2055*
X1158Y2047*
X1153Y2043*
X1148Y2040*
X1240Y2170D02*
Y2140D01*
X1223*
X1218Y2143*
X1215Y2148*
X1218Y2153*
X1223Y2155*
X1240*
X1223D02*
X1215Y2170D01*
X1180D02*
X1200D01*
X1183Y2153*
X1180Y2148*
X1183Y2143*
X1188Y2140*
X1195*
X1200Y2143*
X1160Y2168D02*
X1155Y2170D01*
X1148*
X1143Y2168*
X1140Y2163*
Y2160*
X1143Y2155*
X1148Y2153*
X1160*
Y2140*
X1140*
X1215Y2228D02*
X1218Y2230D01*
X1223Y2233*
X1230*
X1235Y2230*
X1238Y2228*
X1240Y2223*
Y2213*
X1238Y2208*
X1235Y2205*
X1230Y2203*
X1223*
X1218Y2205*
X1215Y2208*
X1195Y2233D02*
X1185D01*
X1190D02*
Y2203D01*
X1195Y2208*
X1158Y2230D02*
X1153Y2233D01*
X1148*
X1143Y2230*
X1140Y2225*
X1143Y2220*
X1148Y2217*
X1153*
X1148D02*
X1143Y2215D01*
X1140Y2210*
X1143Y2205*
X1148Y2203*
X1153*
X1158Y2205*
X1240Y2320D02*
Y2290D01*
X1223*
X1218Y2293*
X1215Y2297*
X1218Y2303*
X1223Y2305*
X1240*
X1223D02*
X1215Y2320D01*
X1180D02*
X1200D01*
X1183Y2303*
X1180Y2297*
X1183Y2293*
X1188Y2290*
X1195*
X1200Y2293*
X1148Y2320D02*
Y2290D01*
X1160Y2310*
X1140*
X1240Y2420D02*
Y2390D01*
X1223*
X1218Y2393*
X1215Y2398*
X1218Y2403*
X1223Y2405*
X1240*
X1223D02*
X1215Y2420D01*
X1180D02*
X1200D01*
X1183Y2403*
X1180Y2398*
X1183Y2393*
X1188Y2390*
X1195*
X1200Y2393*
X1158Y2418D02*
X1153Y2420D01*
X1148*
X1143Y2418*
X1140Y2413*
X1143Y2408*
X1148Y2405*
X1153*
X1148D02*
X1143Y2403D01*
X1140Y2398*
X1143Y2393*
X1148Y2390*
X1153*
X1158Y2393*
X1215Y2478D02*
X1218Y2480D01*
X1223Y2483*
X1230*
X1235Y2480*
X1238Y2478*
X1240Y2473*
Y2463*
X1238Y2458*
X1235Y2455*
X1230Y2453*
X1223*
X1218Y2455*
X1215Y2458*
X1195Y2483D02*
X1185D01*
X1190D02*
Y2453D01*
X1195Y2458*
X1140Y2483D02*
X1160D01*
X1143Y2465*
X1140Y2460*
X1143Y2455*
X1148Y2453*
X1155*
X1160Y2455*
X1240Y2570D02*
Y2540D01*
X1223*
X1218Y2543*
X1215Y2547*
X1218Y2553*
X1223Y2555*
X1240*
X1223D02*
X1215Y2570D01*
X1180D02*
X1200D01*
X1183Y2553*
X1180Y2547*
X1183Y2543*
X1188Y2540*
X1195*
X1200Y2543*
X1140Y2570D02*
X1160D01*
X1143Y2553*
X1140Y2547*
X1143Y2543*
X1148Y2540*
X1155*
X1160Y2543*
X1240Y2658D02*
Y2628D01*
X1223*
X1218Y2630*
X1215Y2635*
X1218Y2640*
X1223Y2643*
X1240*
X1223D02*
X1215Y2658D01*
X1180D02*
X1200D01*
X1183Y2640*
X1180Y2635*
X1183Y2630*
X1188Y2628*
X1195*
X1200Y2630*
X1155Y2658D02*
X1145D01*
X1150D02*
Y2628D01*
X1155Y2633*
X1215Y2728D02*
X1218Y2730D01*
X1223Y2733*
X1230*
X1235Y2730*
X1238Y2728*
X1240Y2723*
Y2713*
X1238Y2708*
X1235Y2705*
X1230Y2703*
X1223*
X1218Y2705*
X1215Y2708*
X1195Y2733D02*
X1185D01*
X1190D02*
Y2703D01*
X1195Y2708*
X1155Y2733D02*
X1145D01*
X1150D02*
Y2703D01*
X1155Y2708*
X1240Y2820D02*
Y2790D01*
X1223*
X1218Y2793*
X1215Y2798*
X1218Y2803*
X1223Y2805*
X1240*
X1223D02*
X1215Y2820D01*
X1180D02*
X1200D01*
X1183Y2803*
X1180Y2798*
X1183Y2793*
X1188Y2790*
X1195*
X1200Y2793*
X1158Y2818D02*
X1153Y2820D01*
X1148*
X1143Y2818*
X1140Y2813*
Y2798*
X1143Y2793*
X1148Y2790*
X1153*
X1158Y2793*
X1160Y2798*
Y2813*
X1158Y2818*
X1143Y2793*
X1240Y2908D02*
Y2878D01*
X1223*
X1218Y2880*
X1215Y2885*
X1218Y2890*
X1223Y2893*
X1240*
X1223D02*
X1215Y2908D01*
X1195D02*
X1185D01*
X1190D02*
Y2878D01*
X1195Y2883*
X1153Y2908D02*
X1148Y2905D01*
X1143Y2900*
X1140Y2893*
Y2885*
X1143Y2880*
X1148Y2878*
X1153*
X1158Y2880*
X1160Y2885*
X1158Y2890*
X1153Y2893*
X1148*
X1143Y2890*
X1140Y2885*
X1215Y2978D02*
X1218Y2980D01*
X1223Y2983*
X1230*
X1235Y2980*
X1238Y2978*
X1240Y2973*
Y2963*
X1238Y2958*
X1235Y2955*
X1230Y2953*
X1223*
X1218Y2955*
X1215Y2958*
X1195Y2983D02*
X1185D01*
X1190D02*
Y2953D01*
X1195Y2958*
X1158Y2980D02*
X1153Y2983D01*
X1148*
X1143Y2980*
X1140Y2975*
Y2960*
X1143Y2955*
X1148Y2953*
X1153*
X1158Y2955*
X1160Y2960*
Y2975*
X1158Y2980*
X1143Y2955*
X1240Y3058D02*
Y3028D01*
X1223*
X1218Y3030*
X1215Y3035*
X1218Y3040*
X1223Y3043*
X1240*
X1223D02*
X1215Y3058D01*
X1195D02*
X1185D01*
X1190D02*
Y3028D01*
X1195Y3033*
X1153Y3043D02*
X1148D01*
X1143Y3040*
X1140Y3035*
X1143Y3030*
X1148Y3028*
X1153*
X1158Y3030*
X1160Y3035*
X1158Y3040*
X1153Y3043*
X1158Y3045*
X1160Y3050*
X1158Y3055*
X1153Y3058*
X1148*
X1143Y3055*
X1140Y3050*
X1143Y3045*
X1148Y3043*
X1240Y3158D02*
Y3128D01*
X1223*
X1218Y3130*
X1215Y3135*
X1218Y3140*
X1223Y3143*
X1240*
X1223D02*
X1215Y3158D01*
X1195D02*
X1185D01*
X1190D02*
Y3128D01*
X1195Y3133*
X1160Y3158D02*
X1140Y3128D01*
X1160*
X1215Y3215D02*
X1218Y3218D01*
X1223Y3220*
X1230*
X1235Y3218*
X1238Y3215*
X1240Y3210*
Y3200*
X1238Y3195*
X1235Y3193*
X1230Y3190*
X1223*
X1218Y3193*
X1215Y3195*
X1192Y3220D02*
X1188Y3218D01*
X1183Y3213*
X1180Y3205*
Y3198*
X1183Y3193*
X1188Y3190*
X1192*
X1198Y3193*
X1200Y3198*
X1198Y3203*
X1192Y3205*
X1188*
X1183Y3203*
X1180Y3198*
X1355Y3702D02*
X2603D01*
Y3943*
X1355*
Y3702*
X1478Y1278D02*
X1480Y1280D01*
X1485Y1283*
X1493*
X1498Y1280*
X1500Y1278*
X1503Y1273*
Y1263*
X1500Y1258*
X1498Y1255*
X1493Y1252*
X1485*
X1480Y1255*
X1478Y1258*
X1443Y1283D02*
X1463D01*
X1445Y1265*
X1443Y1260*
X1445Y1255*
X1450Y1252*
X1458*
X1463Y1255*
X1410Y1283D02*
Y1252D01*
X1423Y1273*
X1403*
X1503Y1370D02*
Y1340D01*
X1485*
X1480Y1343*
X1478Y1348*
X1480Y1353*
X1485Y1355*
X1503*
X1485D02*
X1478Y1370D01*
X1450D02*
Y1340D01*
X1463Y1360*
X1443*
X1415Y1355D02*
X1410D01*
X1405Y1353*
X1403Y1348*
X1405Y1343*
X1410Y1340*
X1415*
X1420Y1343*
X1423Y1348*
X1420Y1353*
X1415Y1355*
X1420Y1358*
X1423Y1363*
X1420Y1368*
X1415Y1370*
X1410*
X1405Y1368*
X1403Y1363*
X1405Y1358*
X1410Y1355*
X1503Y1458D02*
Y1428D01*
X1485*
X1480Y1430*
X1478Y1435*
X1480Y1440*
X1485Y1443*
X1503*
X1485D02*
X1478Y1458D01*
X1450D02*
Y1428D01*
X1463Y1448*
X1443*
X1423Y1458D02*
X1403Y1428D01*
X1423*
X1478Y1528D02*
X1480Y1530D01*
X1485Y1533*
X1493*
X1498Y1530*
X1500Y1528*
X1503Y1523*
Y1513*
X1500Y1508*
X1498Y1505*
X1493Y1503*
X1485*
X1480Y1505*
X1478Y1508*
X1443Y1533D02*
X1463D01*
X1445Y1515*
X1443Y1510*
X1445Y1505*
X1450Y1503*
X1458*
X1463Y1505*
X1420Y1530D02*
X1415Y1533D01*
X1410*
X1405Y1530*
X1403Y1525*
X1405Y1520*
X1410Y1518*
X1415*
X1410D02*
X1405Y1515D01*
X1403Y1510*
X1405Y1505*
X1410Y1503*
X1415*
X1420Y1505*
X1503Y1608D02*
Y1578D01*
X1485*
X1480Y1580*
X1478Y1585*
X1480Y1590*
X1485Y1593*
X1503*
X1485D02*
X1478Y1608D01*
X1450D02*
Y1578D01*
X1463Y1598*
X1443*
X1423Y1600D02*
X1420Y1595D01*
X1415Y1593*
X1410*
X1405Y1595*
X1403Y1600*
X1405Y1605*
X1410Y1608*
X1415*
X1420Y1605*
X1423Y1600*
Y1593*
X1420Y1585*
X1415Y1580*
X1410Y1578*
X1503Y1708D02*
Y1678D01*
X1485*
X1480Y1680*
X1478Y1685*
X1480Y1690*
X1485Y1692*
X1503*
X1485D02*
X1478Y1708D01*
X1450D02*
Y1678D01*
X1463Y1698*
X1443*
X1423Y1705D02*
X1418Y1708D01*
X1410*
X1405Y1705*
X1403Y1700*
Y1698*
X1405Y1692*
X1410Y1690*
X1423*
Y1678*
X1403*
X1478Y1778D02*
X1480Y1780D01*
X1485Y1783*
X1493*
X1498Y1780*
X1500Y1778*
X1503Y1773*
Y1763*
X1500Y1758*
X1498Y1755*
X1493Y1753*
X1485*
X1480Y1755*
X1478Y1758*
X1443Y1783D02*
X1463D01*
X1445Y1765*
X1443Y1760*
X1445Y1755*
X1450Y1753*
X1458*
X1463Y1755*
X1403Y1783D02*
X1423D01*
X1405Y1765*
X1403Y1760*
X1405Y1755*
X1410Y1753*
X1418*
X1423Y1755*
X1503Y1858D02*
Y1828D01*
X1485*
X1480Y1830*
X1478Y1835*
X1480Y1840*
X1485Y1843*
X1503*
X1485D02*
X1478Y1858D01*
X1450D02*
Y1828D01*
X1463Y1847*
X1443*
X1410Y1858D02*
Y1828D01*
X1423Y1847*
X1403*
X1503Y1945D02*
Y1915D01*
X1485*
X1480Y1918*
X1478Y1923*
X1480Y1928*
X1485Y1930*
X1503*
X1485D02*
X1478Y1945D01*
X1450D02*
Y1915D01*
X1463Y1935*
X1443*
X1420Y1942D02*
X1415Y1945D01*
X1410*
X1405Y1942*
X1403Y1938*
X1405Y1933*
X1410Y1930*
X1415*
X1410D02*
X1405Y1928D01*
X1403Y1923*
X1405Y1918*
X1410Y1915*
X1415*
X1420Y1918*
X1478Y2028D02*
X1480Y2030D01*
X1485Y2033*
X1493*
X1498Y2030*
X1500Y2028*
X1503Y2023*
Y2013*
X1500Y2008*
X1498Y2005*
X1493Y2003*
X1485*
X1480Y2005*
X1478Y2008*
X1443Y2033D02*
X1463D01*
X1445Y2015*
X1443Y2010*
X1445Y2005*
X1450Y2003*
X1458*
X1463Y2005*
X1418Y2033D02*
X1408D01*
X1413D02*
Y2003D01*
X1418Y2008*
X1503Y2108D02*
Y2078D01*
X1485*
X1480Y2080*
X1478Y2085*
X1480Y2090*
X1485Y2092*
X1503*
X1485D02*
X1478Y2108D01*
X1450D02*
Y2078D01*
X1463Y2098*
X1443*
X1403Y2108D02*
X1423D01*
X1405Y2090*
X1403Y2085*
X1405Y2080*
X1410Y2078*
X1418*
X1423Y2080*
X1503Y2208D02*
Y2178D01*
X1485*
X1480Y2180*
X1478Y2185*
X1480Y2190*
X1485Y2192*
X1503*
X1485D02*
X1478Y2208D01*
X1450D02*
Y2178D01*
X1463Y2197*
X1443*
X1418Y2208D02*
X1408D01*
X1413D02*
Y2178D01*
X1418Y2183*
X1478Y2278D02*
X1480Y2280D01*
X1485Y2283*
X1493*
X1498Y2280*
X1500Y2278*
X1503Y2273*
Y2263*
X1500Y2258*
X1498Y2255*
X1493Y2253*
X1485*
X1480Y2255*
X1478Y2258*
X1443Y2283D02*
X1463D01*
X1445Y2265*
X1443Y2260*
X1445Y2255*
X1450Y2253*
X1458*
X1463Y2255*
X1420Y2280D02*
X1415Y2283D01*
X1410*
X1405Y2280*
X1403Y2275*
Y2260*
X1405Y2255*
X1410Y2253*
X1415*
X1420Y2255*
X1423Y2260*
Y2275*
X1420Y2280*
X1405Y2255*
X1503Y2358D02*
Y2328D01*
X1485*
X1480Y2330*
X1478Y2335*
X1480Y2340*
X1485Y2342*
X1503*
X1485D02*
X1478Y2358D01*
X1450D02*
Y2328D01*
X1463Y2348*
X1443*
X1420Y2355D02*
X1415Y2358D01*
X1410*
X1405Y2355*
X1403Y2350*
Y2335*
X1405Y2330*
X1410Y2328*
X1415*
X1420Y2330*
X1423Y2335*
Y2350*
X1420Y2355*
X1405Y2330*
X1503Y2458D02*
Y2428D01*
X1485*
X1480Y2430*
X1478Y2435*
X1480Y2440*
X1485Y2442*
X1503*
X1485D02*
X1478Y2458D01*
X1460Y2455D02*
X1455Y2458D01*
X1450*
X1445Y2455*
X1443Y2450*
X1445Y2445*
X1450Y2442*
X1455*
X1450D02*
X1445Y2440D01*
X1443Y2435*
X1445Y2430*
X1450Y2428*
X1455*
X1460Y2430*
X1415Y2458D02*
X1410Y2455D01*
X1405Y2450*
X1403Y2442*
Y2435*
X1405Y2430*
X1410Y2428*
X1415*
X1420Y2430*
X1423Y2435*
X1420Y2440*
X1415Y2442*
X1410*
X1405Y2440*
X1403Y2435*
X1478Y2528D02*
X1480Y2530D01*
X1485Y2533*
X1493*
X1498Y2530*
X1500Y2528*
X1503Y2523*
Y2513*
X1500Y2508*
X1498Y2505*
X1493Y2503*
X1485*
X1480Y2505*
X1478Y2508*
X1458Y2533D02*
X1448D01*
X1453D02*
Y2503D01*
X1458Y2508*
X1415Y2533D02*
X1410Y2530D01*
X1405Y2525*
X1403Y2518*
Y2510*
X1405Y2505*
X1410Y2503*
X1415*
X1420Y2505*
X1423Y2510*
X1420Y2515*
X1415Y2518*
X1410*
X1405Y2515*
X1403Y2510*
X1503Y2608D02*
Y2578D01*
X1485*
X1480Y2580*
X1478Y2585*
X1480Y2590*
X1485Y2593*
X1503*
X1485D02*
X1478Y2608D01*
X1460Y2605D02*
X1455Y2608D01*
X1450*
X1445Y2605*
X1443Y2600*
X1445Y2595*
X1450Y2593*
X1455*
X1450D02*
X1445Y2590D01*
X1443Y2585*
X1445Y2580*
X1450Y2578*
X1455*
X1460Y2580*
X1415Y2593D02*
X1410D01*
X1405Y2590*
X1403Y2585*
X1405Y2580*
X1410Y2578*
X1415*
X1420Y2580*
X1423Y2585*
X1420Y2590*
X1415Y2593*
X1420Y2595*
X1423Y2600*
X1420Y2605*
X1415Y2608*
X1410*
X1405Y2605*
X1403Y2600*
X1405Y2595*
X1410Y2593*
X1503Y2708D02*
Y2678D01*
X1485*
X1480Y2680*
X1478Y2685*
X1480Y2690*
X1485Y2693*
X1503*
X1485D02*
X1478Y2708D01*
X1460Y2705D02*
X1455Y2708D01*
X1450*
X1445Y2705*
X1443Y2700*
X1445Y2695*
X1450Y2693*
X1455*
X1450D02*
X1445Y2690D01*
X1443Y2685*
X1445Y2680*
X1450Y2678*
X1455*
X1460Y2680*
X1423Y2708D02*
X1403Y2678D01*
X1423*
X1478Y2790D02*
X1480Y2793D01*
X1485Y2795*
X1493*
X1498Y2793*
X1500Y2790*
X1503Y2785*
Y2775*
X1500Y2770*
X1498Y2768*
X1493Y2765*
X1485*
X1480Y2768*
X1478Y2770*
X1458Y2795D02*
X1448D01*
X1453D02*
Y2765D01*
X1458Y2770*
X1415Y2780D02*
X1410D01*
X1405Y2778*
X1403Y2773*
X1405Y2768*
X1410Y2765*
X1415*
X1420Y2768*
X1423Y2773*
X1420Y2778*
X1415Y2780*
X1420Y2783*
X1423Y2788*
X1420Y2793*
X1415Y2795*
X1410*
X1405Y2793*
X1403Y2788*
X1405Y2783*
X1410Y2780*
X1503Y2858D02*
Y2828D01*
X1485*
X1480Y2830*
X1478Y2835*
X1480Y2840*
X1485Y2843*
X1503*
X1485D02*
X1478Y2858D01*
X1460Y2855D02*
X1455Y2858D01*
X1450*
X1445Y2855*
X1443Y2850*
X1445Y2845*
X1450Y2843*
X1455*
X1450D02*
X1445Y2840D01*
X1443Y2835*
X1445Y2830*
X1450Y2828*
X1455*
X1460Y2830*
X1423Y2850D02*
X1420Y2845D01*
X1415Y2843*
X1410*
X1405Y2845*
X1403Y2850*
X1405Y2855*
X1410Y2858*
X1415*
X1420Y2855*
X1423Y2850*
Y2843*
X1420Y2835*
X1415Y2830*
X1410Y2828*
X1503Y2958D02*
Y2928D01*
X1485*
X1480Y2930*
X1478Y2935*
X1480Y2940*
X1485Y2943*
X1503*
X1485D02*
X1478Y2958D01*
X1460Y2955D02*
X1455Y2958D01*
X1450*
X1445Y2955*
X1443Y2950*
X1445Y2945*
X1450Y2943*
X1455*
X1450D02*
X1445Y2940D01*
X1443Y2935*
X1445Y2930*
X1450Y2928*
X1455*
X1460Y2930*
X1423Y2955D02*
X1418Y2958D01*
X1410*
X1405Y2955*
X1403Y2950*
Y2948*
X1405Y2943*
X1410Y2940*
X1423*
Y2928*
X1403*
X1478Y3040D02*
X1480Y3043D01*
X1485Y3045*
X1493*
X1498Y3043*
X1500Y3040*
X1503Y3035*
Y3025*
X1500Y3020*
X1498Y3018*
X1493Y3015*
X1485*
X1480Y3018*
X1478Y3020*
X1458Y3045D02*
X1448D01*
X1453D02*
Y3015D01*
X1458Y3020*
X1423Y3045D02*
X1403Y3015D01*
X1423*
X1503Y3108D02*
Y3078D01*
X1485*
X1480Y3080*
X1478Y3085*
X1480Y3090*
X1485Y3093*
X1503*
X1485D02*
X1478Y3108D01*
X1460Y3105D02*
X1455Y3108D01*
X1450*
X1445Y3105*
X1443Y3100*
X1445Y3095*
X1450Y3093*
X1455*
X1450D02*
X1445Y3090D01*
X1443Y3085*
X1445Y3080*
X1450Y3078*
X1455*
X1460Y3080*
X1410Y3108D02*
Y3078D01*
X1423Y3098*
X1403*
X1503Y3208D02*
Y3178D01*
X1485*
X1480Y3180*
X1478Y3185*
X1480Y3190*
X1485Y3193*
X1503*
X1485D02*
X1478Y3208D01*
X1460Y3205D02*
X1455Y3208D01*
X1450*
X1445Y3205*
X1443Y3200*
X1445Y3195*
X1450Y3193*
X1455*
X1450D02*
X1445Y3190D01*
X1443Y3185*
X1445Y3180*
X1450Y3178*
X1455*
X1460Y3180*
X1420Y3205D02*
X1415Y3208D01*
X1410*
X1405Y3205*
X1403Y3200*
X1405Y3195*
X1410Y3193*
X1415*
X1410D02*
X1405Y3190D01*
X1403Y3185*
X1405Y3180*
X1410Y3178*
X1415*
X1420Y3180*
X1541Y1249D02*
Y1302D01*
X1664*
Y1249*
X1541*
Y1311D02*
Y1364D01*
X1664*
Y1311*
X1541*
Y1499D02*
Y1552D01*
X1664*
Y1499*
X1541*
Y1561D02*
Y1614D01*
X1664*
Y1561*
X1541*
Y1749D02*
Y1802D01*
X1664*
Y1749*
X1541*
Y1811D02*
Y1864D01*
X1664*
Y1811*
X1541*
Y1999D02*
Y2052D01*
X1664*
Y1999*
X1541*
Y2061D02*
Y2114D01*
X1664*
Y2061*
X1541*
Y2249D02*
Y2302D01*
X1664*
Y2249*
X1541*
Y2311D02*
Y2364D01*
X1664*
Y2311*
X1541*
Y2499D02*
Y2552D01*
X1664*
Y2499*
X1541*
Y2561D02*
Y2614D01*
X1664*
Y2561*
X1541*
X1554Y2749D02*
Y2802D01*
X1677*
Y2749*
X1554*
Y2811D02*
Y2864D01*
X1677*
Y2811*
X1554*
Y2999D02*
Y3052D01*
X1677*
Y2999*
X1554*
Y3061D02*
Y3114D01*
X1677*
Y3061*
X1554*
X1664Y1464D02*
Y1411D01*
X1541*
Y1464*
X1664*
Y1714D02*
Y1661D01*
X1541*
Y1714*
X1664*
Y1964D02*
Y1911D01*
X1541*
Y1964*
X1664*
Y2214D02*
Y2161D01*
X1541*
Y2214*
X1664*
Y2464D02*
Y2411D01*
X1541*
Y2464*
X1664*
Y2714D02*
Y2661D01*
X1541*
Y2714*
X1664*
X1677Y2964D02*
Y2911D01*
X1554*
Y2964*
X1677*
Y3214D02*
Y3161D01*
X1554*
Y3214*
X1677*
X1698Y1475D02*
G75*
G03Y1460J-8D01*
G01*
G75*
G03Y1475J8*
G01*
G36*
G75*
G03Y1460J-8*
G01*
G75*
G03Y1475J8*
G01*
G37*
Y1725D02*
G75*
G03Y1710J-8D01*
G01*
G75*
G03Y1725J8*
G01*
G36*
G75*
G03Y1710J-8*
G01*
G75*
G03Y1725J8*
G01*
G37*
Y1975D02*
G75*
G03Y1960J-8D01*
G01*
G75*
G03Y1975J8*
G01*
G36*
G75*
G03Y1960J-8*
G01*
G75*
G03Y1975J8*
G01*
G37*
Y2225D02*
G75*
G03Y2210J-8D01*
G01*
G75*
G03Y2225J8*
G01*
G36*
G75*
G03Y2210J-8*
G01*
G75*
G03Y2225J8*
G01*
G37*
Y2475D02*
G75*
G03Y2460J-8D01*
G01*
G75*
G03Y2475J8*
G01*
G36*
G75*
G03Y2460J-8*
G01*
G75*
G03Y2475J8*
G01*
G37*
Y2725D02*
G75*
G03Y2710J-8D01*
G01*
G75*
G03Y2725J8*
G01*
G36*
G75*
G03Y2710J-8*
G01*
G75*
G03Y2725J8*
G01*
G37*
X1711Y2975D02*
G75*
G03Y2960J-8D01*
G01*
G75*
G03Y2975J8*
G01*
G36*
G75*
G03Y2960J-8*
G01*
G75*
G03Y2975J8*
G01*
G37*
Y3225D02*
G75*
G03Y3210J-8D01*
G01*
G75*
G03Y3225J8*
G01*
G36*
G75*
G03Y3210J-8*
G01*
G75*
G03Y3225J8*
G01*
G37*
X1855Y1983D02*
Y2006D01*
X1852Y2011*
X1847Y2013*
X1837*
X1832Y2011*
X1830Y2006*
Y1983*
X1810Y2013D02*
X1800D01*
X1805D02*
Y1983D01*
X1810Y1988*
X1762Y2013D02*
Y1983D01*
X1775Y2003*
X1755*
X1855Y2482D02*
Y2505D01*
X1852Y2510*
X1847Y2512*
X1837*
X1832Y2510*
X1830Y2505*
Y2482*
X1810Y2512D02*
X1800D01*
X1805D02*
Y2482D01*
X1810Y2487*
X1755Y2512D02*
X1775D01*
X1757Y2495*
X1755Y2490*
X1757Y2485*
X1762Y2482*
X1770*
X1775Y2485*
X1856Y1736D02*
Y1758D01*
X1853Y1763*
X1848Y1766*
X1838*
X1833Y1763*
X1831Y1758*
Y1736*
X1811Y1766D02*
X1801D01*
X1806D02*
Y1736D01*
X1811Y1741*
X1776Y1763D02*
X1771Y1766D01*
X1763*
X1758Y1763*
X1756Y1758*
Y1756*
X1758Y1751*
X1763Y1748*
X1776*
Y1736*
X1756*
X1856Y2733D02*
Y2756D01*
X1853Y2761*
X1848Y2763*
X1838*
X1833Y2761*
X1831Y2756*
Y2733*
X1811Y2763D02*
X1801D01*
X1806D02*
Y2733D01*
X1811Y2738*
X1771Y2763D02*
X1761D01*
X1766D02*
Y2733D01*
X1771Y2738*
X1858Y1481D02*
Y1504D01*
X1856Y1509*
X1851Y1511*
X1841*
X1836Y1509*
X1833Y1504*
Y1481*
X1813Y1511D02*
X1803D01*
X1808D02*
Y1481D01*
X1813Y1486*
X1778Y1504D02*
X1776Y1499D01*
X1771Y1496*
X1766*
X1761Y1499*
X1758Y1504*
X1761Y1509*
X1766Y1511*
X1771*
X1776Y1509*
X1778Y1504*
Y1496*
X1776Y1489*
X1771Y1484*
X1766Y1481*
X1858Y2236D02*
Y2259D01*
X1856Y2264*
X1851Y2266*
X1841*
X1836Y2264*
X1833Y2259*
Y2236*
X1813Y2266D02*
X1803D01*
X1808D02*
Y2236D01*
X1813Y2241*
X1776Y2264D02*
X1771Y2266D01*
X1766*
X1761Y2264*
X1758Y2259*
X1761Y2254*
X1766Y2251*
X1771*
X1766D02*
X1761Y2249D01*
X1758Y2244*
X1761Y2239*
X1766Y2236*
X1771*
X1776Y2239*
X1865Y2983D02*
Y3005D01*
X1862Y3010*
X1857Y3013*
X1847*
X1842Y3010*
X1840Y3005*
Y2983*
X1820Y3013D02*
X1810D01*
X1815D02*
Y2983D01*
X1820Y2988*
X1782Y3010D02*
X1777Y3013D01*
X1772*
X1767Y3010*
X1765Y3005*
Y2990*
X1767Y2985*
X1772Y2983*
X1777*
X1782Y2985*
X1785Y2990*
Y3005*
X1782Y3010*
X1767Y2985*
X1866Y3234D02*
Y3256D01*
X1863Y3261*
X1858Y3264*
X1848*
X1843Y3261*
X1841Y3256*
Y3234*
X1818Y3264D02*
X1813Y3261D01*
X1808Y3256*
X1806Y3249*
Y3241*
X1808Y3236*
X1813Y3234*
X1818*
X1823Y3236*
X1826Y3241*
X1823Y3246*
X1818Y3249*
X1813*
X1808Y3246*
X1806Y3241*
X1968Y1471D02*
Y1279D01*
X1688*
Y1471*
X1813*
Y1456*
X1842*
Y1471*
X1968*
Y1721D02*
Y1529D01*
X1688*
Y1721*
X1813*
Y1706*
X1842*
Y1721*
X1968*
Y1971D02*
Y1779D01*
X1688*
Y1971*
X1813*
Y1956*
X1842*
Y1971*
X1968*
Y2221D02*
Y2029D01*
X1688*
Y2221*
X1813*
Y2206*
X1842*
Y2221*
X1968*
Y2471D02*
Y2279D01*
X1688*
Y2471*
X1813*
Y2456*
X1842*
Y2471*
X1968*
Y2721D02*
Y2529D01*
X1688*
Y2721*
X1813*
Y2706*
X1842*
Y2721*
X1968*
X1980Y2971D02*
Y2779D01*
X1700*
Y2971*
X1825*
Y2956*
X1855*
Y2971*
X1980*
Y3221D02*
Y3029D01*
X1700*
Y3221*
X1825*
Y3206*
X1855*
Y3221*
X1980*
X1990Y3651D02*
X1987Y3653D01*
X1982Y3656*
X1977Y3653*
X1975Y3651*
Y3626*
X1970*
X1975D02*
X1985D01*
X1947Y3653D02*
X1942Y3656D01*
X1937*
X1932Y3653*
X1930Y3648*
X1932Y3643*
X1937Y3641*
X1942*
X1937D02*
X1932Y3638D01*
X1930Y3633*
X1932Y3628*
X1937Y3626*
X1942*
X1947Y3628*
X2018Y378D02*
Y218D01*
X2088*
Y378*
X2018*
X2060Y418D02*
X2063Y415D01*
X2065Y410*
Y403*
X2063Y398*
X2060Y395*
X2055Y393*
X2045*
X2040Y395*
X2038Y398*
X2035Y403*
Y410*
X2038Y415*
X2040Y418*
X2063Y435D02*
X2065Y440D01*
Y445*
X2063Y450*
X2058Y453*
X2053Y450*
X2050Y445*
Y440*
Y445D02*
X2047Y450D01*
X2043Y453*
X2038Y450*
X2035Y445*
Y440*
X2038Y435*
X2063Y475D02*
X2065Y480D01*
Y485*
X2063Y490*
X2058Y493*
X2053Y490*
X2050Y485*
Y480*
Y485D02*
X2047Y490D01*
X2043Y493*
X2038Y490*
X2035Y485*
Y480*
X2038Y475*
X2102Y1314D02*
Y1261D01*
X1979*
Y1314*
X2102*
Y1377D02*
Y1324D01*
X1979*
Y1377*
X2102*
Y1464D02*
Y1411D01*
X1979*
Y1464*
X2102*
Y1564D02*
Y1511D01*
X1979*
Y1564*
X2102*
Y1627D02*
Y1574D01*
X1979*
Y1627*
X2102*
Y1714D02*
Y1661D01*
X1979*
Y1714*
X2102*
Y1814D02*
Y1761D01*
X1979*
Y1814*
X2102*
Y1877D02*
Y1824D01*
X1979*
Y1877*
X2102*
Y1964D02*
Y1911D01*
X1979*
Y1964*
X2102*
Y2064D02*
Y2011D01*
X1979*
Y2064*
X2102*
Y2127D02*
Y2074D01*
X1979*
Y2127*
X2102*
Y2214D02*
Y2161D01*
X1979*
Y2214*
X2102*
Y2314D02*
Y2261D01*
X1979*
Y2314*
X2102*
Y2377D02*
Y2324D01*
X1979*
Y2377*
X2102*
Y2464D02*
Y2411D01*
X1979*
Y2464*
X2102*
Y2564D02*
Y2511D01*
X1979*
Y2564*
X2102*
Y2627D02*
Y2574D01*
X1979*
Y2627*
X2102*
Y2714D02*
Y2661D01*
X1979*
Y2714*
X2102*
X2113Y378D02*
Y218D01*
X2183*
Y378*
X2113*
X2114Y2814D02*
Y2761D01*
X1991*
Y2814*
X2114*
Y2877D02*
Y2824D01*
X1991*
Y2877*
X2114*
Y2964D02*
Y2911D01*
X1991*
Y2964*
X2114*
Y3064D02*
Y3011D01*
X1991*
Y3064*
X2114*
Y3127D02*
Y3074D01*
X1991*
Y3127*
X2114*
Y3214D02*
Y3161D01*
X1991*
Y3214*
X2114*
X2161Y415D02*
X2164Y413D01*
X2166Y408*
Y400*
X2164Y395*
X2161Y393*
X2156Y390*
X2146*
X2141Y393*
X2139Y395*
X2136Y400*
Y408*
X2139Y413*
X2141Y415*
X2164Y433D02*
X2166Y438D01*
Y443*
X2164Y448*
X2159Y450*
X2154Y448*
X2151Y443*
Y438*
Y443D02*
X2149Y448D01*
X2144Y450*
X2139Y448*
X2136Y443*
Y438*
X2139Y433*
X2166Y483D02*
X2136D01*
X2156Y470*
Y490*
X2253Y1290D02*
X2255Y1293D01*
X2260Y1295*
X2268*
X2273Y1293*
X2275Y1290*
X2278Y1285*
Y1275*
X2275Y1270*
X2273Y1268*
X2268Y1265*
X2260*
X2255Y1268*
X2253Y1270*
X2235Y1293D02*
X2230Y1295D01*
X2225*
X2220Y1293*
X2217Y1288*
X2220Y1283*
X2225Y1280*
X2230*
X2225D02*
X2220Y1278D01*
X2217Y1273*
X2220Y1268*
X2225Y1265*
X2230*
X2235Y1268*
X2178Y1295D02*
X2197D01*
X2180Y1278*
X2178Y1273*
X2180Y1268*
X2185Y1265*
X2192*
X2197Y1268*
X2278Y1370D02*
Y1340D01*
X2260*
X2255Y1343*
X2253Y1348*
X2255Y1353*
X2260Y1355*
X2278*
X2260D02*
X2253Y1370D01*
X2238Y1363D02*
X2235Y1358D01*
X2230Y1355*
X2225*
X2220Y1358*
X2217Y1363*
X2220Y1368*
X2225Y1370*
X2230*
X2235Y1368*
X2238Y1363*
Y1355*
X2235Y1348*
X2230Y1343*
X2225Y1340*
X2185Y1370D02*
Y1340D01*
X2197Y1360*
X2178*
X2278Y1458D02*
Y1428D01*
X2260*
X2255Y1430*
X2253Y1435*
X2255Y1440*
X2260Y1443*
X2278*
X2260D02*
X2253Y1458D01*
X2238Y1450D02*
X2235Y1445D01*
X2230Y1443*
X2225*
X2220Y1445*
X2217Y1450*
X2220Y1455*
X2225Y1458*
X2230*
X2235Y1455*
X2238Y1450*
Y1443*
X2235Y1435*
X2230Y1430*
X2225Y1428*
X2195Y1455D02*
X2190Y1458D01*
X2185*
X2180Y1455*
X2178Y1450*
X2180Y1445*
X2185Y1443*
X2190*
X2185D02*
X2180Y1440D01*
X2178Y1435*
X2180Y1430*
X2185Y1428*
X2190*
X2195Y1430*
X2253Y1553D02*
X2255Y1555D01*
X2260Y1558*
X2268*
X2273Y1555*
X2275Y1553*
X2278Y1548*
Y1538*
X2275Y1533*
X2273Y1530*
X2268Y1528*
X2260*
X2255Y1530*
X2253Y1533*
X2235Y1555D02*
X2230Y1558D01*
X2225*
X2220Y1555*
X2217Y1550*
X2220Y1545*
X2225Y1543*
X2230*
X2225D02*
X2220Y1540D01*
X2217Y1535*
X2220Y1530*
X2225Y1528*
X2230*
X2235Y1530*
X2192Y1558D02*
X2183D01*
X2188D02*
Y1528D01*
X2192Y1533*
X2278Y1620D02*
Y1590D01*
X2260*
X2255Y1593*
X2253Y1598*
X2255Y1603*
X2260Y1605*
X2278*
X2260D02*
X2253Y1620D01*
X2238Y1613D02*
X2235Y1608D01*
X2230Y1605*
X2225*
X2220Y1608*
X2217Y1613*
X2220Y1618*
X2225Y1620*
X2230*
X2235Y1618*
X2238Y1613*
Y1605*
X2235Y1598*
X2230Y1593*
X2225Y1590*
X2178Y1620D02*
X2197D01*
X2180Y1603*
X2178Y1598*
X2180Y1593*
X2185Y1590*
X2192*
X2197Y1593*
X2278Y1708D02*
Y1678D01*
X2260*
X2255Y1680*
X2253Y1685*
X2255Y1690*
X2260Y1692*
X2278*
X2260D02*
X2253Y1708D01*
X2238Y1700D02*
X2235Y1695D01*
X2230Y1692*
X2225*
X2220Y1695*
X2217Y1700*
X2220Y1705*
X2225Y1708*
X2230*
X2235Y1705*
X2238Y1700*
Y1692*
X2235Y1685*
X2230Y1680*
X2225Y1678*
X2192Y1708D02*
X2183D01*
X2188D02*
Y1678D01*
X2192Y1683*
X2253Y1803D02*
X2255Y1805D01*
X2260Y1808*
X2268*
X2273Y1805*
X2275Y1803*
X2278Y1798*
Y1788*
X2275Y1783*
X2273Y1780*
X2268Y1778*
X2260*
X2255Y1780*
X2253Y1783*
X2235Y1805D02*
X2230Y1808D01*
X2225*
X2220Y1805*
X2217Y1800*
X2220Y1795*
X2225Y1793*
X2230*
X2225D02*
X2220Y1790D01*
X2217Y1785*
X2220Y1780*
X2225Y1778*
X2230*
X2235Y1780*
X2195Y1805D02*
X2190Y1808D01*
X2185*
X2180Y1805*
X2178Y1800*
Y1785*
X2180Y1780*
X2185Y1778*
X2190*
X2195Y1780*
X2197Y1785*
Y1800*
X2195Y1805*
X2180Y1780*
X2278Y1870D02*
Y1840D01*
X2260*
X2255Y1843*
X2253Y1847*
X2255Y1853*
X2260Y1855*
X2278*
X2260D02*
X2253Y1870D01*
X2238Y1863D02*
X2235Y1858D01*
X2230Y1855*
X2225*
X2220Y1858*
X2217Y1863*
X2220Y1868*
X2225Y1870*
X2230*
X2235Y1868*
X2238Y1863*
Y1855*
X2235Y1847*
X2230Y1843*
X2225Y1840*
X2195Y1868D02*
X2190Y1870D01*
X2185*
X2180Y1868*
X2178Y1863*
Y1847*
X2180Y1843*
X2185Y1840*
X2190*
X2195Y1843*
X2197Y1847*
Y1863*
X2195Y1868*
X2180Y1843*
X2278Y1958D02*
Y1928D01*
X2260*
X2255Y1930*
X2253Y1935*
X2255Y1940*
X2260Y1942*
X2278*
X2260D02*
X2253Y1958D01*
X2238Y1955D02*
X2233Y1958D01*
X2225*
X2220Y1955*
X2217Y1950*
Y1948*
X2220Y1942*
X2225Y1940*
X2238*
Y1928*
X2217*
X2190Y1958D02*
X2185Y1955D01*
X2180Y1950*
X2178Y1942*
Y1935*
X2180Y1930*
X2185Y1928*
X2190*
X2195Y1930*
X2197Y1935*
X2195Y1940*
X2190Y1942*
X2185*
X2180Y1940*
X2178Y1935*
X2253Y2053D02*
X2255Y2055D01*
X2260Y2058*
X2268*
X2273Y2055*
X2275Y2053*
X2278Y2047*
Y2038*
X2275Y2033*
X2273Y2030*
X2268Y2028*
X2260*
X2255Y2030*
X2253Y2033*
X2217Y2058D02*
X2238D01*
X2220Y2040*
X2217Y2035*
X2220Y2030*
X2225Y2028*
X2233*
X2238Y2030*
X2190Y2058D02*
X2185Y2055D01*
X2180Y2050*
X2178Y2043*
Y2035*
X2180Y2030*
X2185Y2028*
X2190*
X2195Y2030*
X2197Y2035*
X2195Y2040*
X2190Y2043*
X2185*
X2180Y2040*
X2178Y2035*
X2278Y2120D02*
Y2090D01*
X2260*
X2255Y2092*
X2253Y2098*
X2255Y2103*
X2260Y2105*
X2278*
X2260D02*
X2253Y2120D01*
X2238Y2118D02*
X2233Y2120D01*
X2225*
X2220Y2118*
X2217Y2113*
Y2110*
X2220Y2105*
X2225Y2103*
X2238*
Y2090*
X2217*
X2190Y2105D02*
X2185D01*
X2180Y2103*
X2178Y2098*
X2180Y2092*
X2185Y2090*
X2190*
X2195Y2092*
X2197Y2098*
X2195Y2103*
X2190Y2105*
X2195Y2108*
X2197Y2113*
X2195Y2118*
X2190Y2120*
X2185*
X2180Y2118*
X2178Y2113*
X2180Y2108*
X2185Y2105*
X2278Y2208D02*
Y2178D01*
X2260*
X2255Y2180*
X2253Y2185*
X2255Y2190*
X2260Y2192*
X2278*
X2260D02*
X2253Y2208D01*
X2238Y2205D02*
X2233Y2208D01*
X2225*
X2220Y2205*
X2217Y2200*
Y2197*
X2220Y2192*
X2225Y2190*
X2238*
Y2178*
X2217*
X2197Y2208D02*
X2178Y2178D01*
X2197*
X2253Y2303D02*
X2255Y2305D01*
X2260Y2308*
X2268*
X2273Y2305*
X2275Y2303*
X2278Y2297*
Y2288*
X2275Y2283*
X2273Y2280*
X2268Y2278*
X2260*
X2255Y2280*
X2253Y2283*
X2217Y2308D02*
X2238D01*
X2220Y2290*
X2217Y2285*
X2220Y2280*
X2225Y2278*
X2233*
X2238Y2280*
X2190Y2293D02*
X2185D01*
X2180Y2290*
X2178Y2285*
X2180Y2280*
X2185Y2278*
X2190*
X2195Y2280*
X2197Y2285*
X2195Y2290*
X2190Y2293*
X2195Y2295*
X2197Y2300*
X2195Y2305*
X2190Y2308*
X2185*
X2180Y2305*
X2178Y2300*
X2180Y2295*
X2185Y2293*
X2278Y2370D02*
Y2340D01*
X2260*
X2255Y2342*
X2253Y2348*
X2255Y2353*
X2260Y2355*
X2278*
X2260D02*
X2253Y2370D01*
X2238Y2368D02*
X2233Y2370D01*
X2225*
X2220Y2368*
X2217Y2363*
Y2360*
X2220Y2355*
X2225Y2353*
X2238*
Y2340*
X2217*
X2197Y2363D02*
X2195Y2358D01*
X2190Y2355*
X2185*
X2180Y2358*
X2178Y2363*
X2180Y2368*
X2185Y2370*
X2190*
X2195Y2368*
X2197Y2363*
Y2355*
X2195Y2348*
X2190Y2342*
X2185Y2340*
X2278Y2458D02*
Y2428D01*
X2260*
X2255Y2430*
X2253Y2435*
X2255Y2440*
X2260Y2442*
X2278*
X2260D02*
X2253Y2458D01*
X2238Y2455D02*
X2233Y2458D01*
X2225*
X2220Y2455*
X2217Y2450*
Y2447*
X2220Y2442*
X2225Y2440*
X2238*
Y2428*
X2217*
X2197Y2455D02*
X2192Y2458D01*
X2185*
X2180Y2455*
X2178Y2450*
Y2447*
X2180Y2442*
X2185Y2440*
X2197*
Y2428*
X2178*
X2253Y2540D02*
X2255Y2543D01*
X2260Y2545*
X2268*
X2273Y2543*
X2275Y2540*
X2278Y2535*
Y2525*
X2275Y2520*
X2273Y2518*
X2268Y2515*
X2260*
X2255Y2518*
X2253Y2520*
X2217Y2545D02*
X2238D01*
X2220Y2528*
X2217Y2523*
X2220Y2518*
X2225Y2515*
X2233*
X2238Y2518*
X2197Y2545D02*
X2178Y2515D01*
X2197*
X2278Y2620D02*
Y2590D01*
X2260*
X2255Y2593*
X2253Y2598*
X2255Y2603*
X2260Y2605*
X2278*
X2260D02*
X2253Y2620D01*
X2238Y2618D02*
X2233Y2620D01*
X2225*
X2220Y2618*
X2217Y2613*
Y2610*
X2220Y2605*
X2225Y2603*
X2238*
Y2590*
X2217*
X2185Y2620D02*
Y2590D01*
X2197Y2610*
X2178*
X2278Y2708D02*
Y2678D01*
X2260*
X2255Y2680*
X2253Y2685*
X2255Y2690*
X2260Y2693*
X2278*
X2260D02*
X2253Y2708D01*
X2238Y2705D02*
X2233Y2708D01*
X2225*
X2220Y2705*
X2217Y2700*
Y2698*
X2220Y2693*
X2225Y2690*
X2238*
Y2678*
X2217*
X2195Y2705D02*
X2190Y2708D01*
X2185*
X2180Y2705*
X2178Y2700*
X2180Y2695*
X2185Y2693*
X2190*
X2185D02*
X2180Y2690D01*
X2178Y2685*
X2180Y2680*
X2185Y2678*
X2190*
X2195Y2680*
X2253Y2803D02*
X2255Y2805D01*
X2260Y2808*
X2268*
X2273Y2805*
X2275Y2803*
X2278Y2798*
Y2788*
X2275Y2783*
X2273Y2780*
X2268Y2778*
X2260*
X2255Y2780*
X2253Y2783*
X2217Y2808D02*
X2238D01*
X2220Y2790*
X2217Y2785*
X2220Y2780*
X2225Y2778*
X2233*
X2238Y2780*
X2197Y2800D02*
X2195Y2795D01*
X2190Y2793*
X2185*
X2180Y2795*
X2178Y2800*
X2180Y2805*
X2185Y2808*
X2190*
X2195Y2805*
X2197Y2800*
Y2793*
X2195Y2785*
X2190Y2780*
X2185Y2778*
X2278Y2870D02*
Y2840D01*
X2260*
X2255Y2843*
X2253Y2848*
X2255Y2853*
X2260Y2855*
X2278*
X2260D02*
X2253Y2870D01*
X2238Y2868D02*
X2233Y2870D01*
X2225*
X2220Y2868*
X2217Y2863*
Y2860*
X2220Y2855*
X2225Y2853*
X2238*
Y2840*
X2217*
X2178Y2870D02*
X2197D01*
X2180Y2853*
X2178Y2848*
X2180Y2843*
X2185Y2840*
X2192*
X2197Y2843*
X2278Y2958D02*
Y2928D01*
X2260*
X2255Y2930*
X2253Y2935*
X2255Y2940*
X2260Y2943*
X2278*
X2260D02*
X2253Y2958D01*
X2238Y2955D02*
X2233Y2958D01*
X2225*
X2220Y2955*
X2217Y2950*
Y2948*
X2220Y2943*
X2225Y2940*
X2238*
Y2928*
X2217*
X2192Y2958D02*
X2183D01*
X2188D02*
Y2928D01*
X2192Y2933*
X2253Y3053D02*
X2255Y3055D01*
X2260Y3058*
X2268*
X2273Y3055*
X2275Y3053*
X2278Y3048*
Y3038*
X2275Y3033*
X2273Y3030*
X2268Y3028*
X2260*
X2255Y3030*
X2253Y3033*
X2217Y3058D02*
X2238D01*
X2220Y3040*
X2217Y3035*
X2220Y3030*
X2225Y3028*
X2233*
X2238Y3030*
X2197Y3055D02*
X2192Y3058D01*
X2185*
X2180Y3055*
X2178Y3050*
Y3048*
X2180Y3043*
X2185Y3040*
X2197*
Y3028*
X2178*
X2278Y3120D02*
Y3090D01*
X2260*
X2255Y3093*
X2253Y3098*
X2255Y3103*
X2260Y3105*
X2278*
X2260D02*
X2253Y3120D01*
X2238Y3118D02*
X2233Y3120D01*
X2225*
X2220Y3118*
X2217Y3113*
Y3110*
X2220Y3105*
X2225Y3103*
X2238*
Y3090*
X2217*
X2195Y3118D02*
X2190Y3120D01*
X2185*
X2180Y3118*
X2178Y3113*
Y3098*
X2180Y3093*
X2185Y3090*
X2190*
X2195Y3093*
X2197Y3098*
Y3113*
X2195Y3118*
X2180Y3093*
X2278Y3208D02*
Y3178D01*
X2260*
X2255Y3180*
X2253Y3185*
X2255Y3190*
X2260Y3193*
X2278*
X2260D02*
X2253Y3208D01*
X2225D02*
Y3178D01*
X2238Y3198*
X2217*
X2190Y3208D02*
X2185Y3205D01*
X2180Y3200*
X2178Y3193*
Y3185*
X2180Y3180*
X2185Y3178*
X2190*
X2195Y3180*
X2197Y3185*
X2195Y3190*
X2190Y3193*
X2185*
X2180Y3190*
X2178Y3185*
X2353Y2628D02*
G75*
G03Y2586J-21D01*
G01*
G75*
G03Y2628J21*
G01*
G36*
G75*
G03Y2586J-21*
G01*
G75*
G03Y2628J21*
G01*
G37*
X2587Y2928D02*
X2557D01*
Y2945*
X2560Y2950*
X2565Y2953*
X2570Y2950*
X2572Y2945*
Y2928*
Y2945D02*
X2587Y2953D01*
X2580Y2968D02*
X2575Y2970D01*
X2572Y2975*
Y2980*
X2575Y2985*
X2580Y2988*
X2585Y2985*
X2587Y2980*
Y2975*
X2585Y2970*
X2580Y2968*
X2572*
X2565Y2970*
X2560Y2975*
X2557Y2980*
X2585Y3008D02*
X2587Y3013D01*
Y3020*
X2585Y3025*
X2580Y3028*
X2577*
X2572Y3025*
X2570Y3020*
Y3008*
X2557*
Y3028*
X2587Y3091D02*
X2557D01*
Y3106*
X2560Y3111*
X2562Y3114*
X2567Y3116*
X2577*
X2582Y3114*
X2585Y3111*
X2587Y3106*
Y3091*
Y3136D02*
Y3146D01*
Y3141D02*
X2557D01*
X2562Y3136*
X2638Y3251D02*
X2641Y3256D01*
Y3261*
X2638Y3266*
X2633Y3269*
X2628Y3266*
X2626Y3261*
Y3256*
Y3261D02*
X2623Y3266D01*
X2618Y3269*
X2613Y3266*
X2611Y3261*
Y3256*
X2613Y3251*
X2641Y3291D02*
X2638Y3294D01*
X2636Y3291*
X2638Y3289*
X2641Y3291*
X2638Y3331D02*
X2641Y3336D01*
Y3341*
X2638Y3346*
X2633Y3349*
X2628Y3346*
X2626Y3341*
Y3336*
Y3341D02*
X2623Y3346D01*
X2618Y3349*
X2613Y3346*
X2611Y3341*
Y3336*
X2613Y3331*
X2611Y3369D02*
X2641Y3381D01*
X2611Y3394*
X2652Y2910D02*
X2599D01*
Y3033*
X2652*
Y2910*
X2653Y3053D02*
X2600D01*
Y3176*
X2653*
Y3053*
X2653Y3187D02*
X2601D01*
X2728Y2633D02*
Y2656D01*
X2726Y2661*
X2721Y2663*
X2711*
X2706Y2661*
X2703Y2656*
Y2633*
X2683Y2663D02*
X2673D01*
X2678D02*
Y2633D01*
X2683Y2638*
X2648Y2663D02*
X2628Y2633D01*
X2648*
X2755Y3702D02*
X4003D01*
Y3943*
X2755*
Y3702*
X2748Y2925D02*
X2718D01*
Y2943*
X2721Y2948*
X2726Y2950*
X2731Y2948*
X2733Y2943*
Y2925*
Y2943D02*
X2748Y2950D01*
X2741Y2965D02*
X2736Y2968D01*
X2733Y2973*
Y2978*
X2736Y2983*
X2741Y2985*
X2746Y2983*
X2748Y2978*
Y2973*
X2746Y2968*
X2741Y2965*
X2733*
X2726Y2968*
X2721Y2973*
X2718Y2978*
X2741Y3005D02*
X2736Y3008D01*
X2733Y3013*
Y3018*
X2736Y3023*
X2741Y3025*
X2746Y3023*
X2748Y3018*
Y3013*
X2746Y3008*
X2741Y3005*
X2733*
X2726Y3008*
X2721Y3013*
X2718Y3018*
X2749Y3091D02*
X2719D01*
Y3106*
X2722Y3111*
X2724Y3114*
X2729Y3116*
X2739*
X2744Y3114*
X2747Y3111*
X2749Y3106*
Y3091*
Y3151D02*
Y3131D01*
X2732Y3149*
X2727Y3151*
X2722Y3149*
X2719Y3144*
Y3136*
X2722Y3131*
X2798Y3251D02*
X2801Y3256D01*
Y3264*
X2798Y3269*
X2793Y3271*
X2791*
X2786Y3269*
X2783Y3264*
Y3251*
X2771*
Y3271*
Y3291D02*
X2801Y3304D01*
X2771Y3316*
X2812Y2913D02*
X2759D01*
Y3036*
X2812*
Y2913*
X2812Y3056D02*
X2759D01*
Y3179*
X2812*
Y3056*
X2813Y3189D02*
X2761D01*
X3058Y2608D02*
Y198D01*
X2348*
Y2608*
X2696*
Y2601*
X2709*
Y2608*
X3058*
X3275Y2374D02*
X3245D01*
Y2391*
X3247Y2396*
X3252Y2399*
X3257Y2396*
X3260Y2391*
Y2374*
Y2391D02*
X3275Y2399D01*
Y2414D02*
X3245Y2434D01*
Y2414*
X3272Y2456D02*
X3275Y2461D01*
Y2466*
X3272Y2471*
X3267Y2474*
X3252*
X3247Y2471*
X3245Y2466*
Y2461*
X3247Y2456*
X3252Y2454*
X3267*
X3272Y2456*
X3247Y2471*
X3275Y2620D02*
X3245D01*
Y2637*
X3247Y2642*
X3252Y2645*
X3257Y2642*
X3260Y2637*
Y2620*
Y2637D02*
X3275Y2645D01*
X3267Y2660D02*
X3262Y2662D01*
X3260Y2667*
Y2672*
X3262Y2677*
X3267Y2680*
X3272Y2677*
X3275Y2672*
Y2667*
X3272Y2662*
X3267Y2660*
X3260*
X3252Y2662*
X3247Y2667*
X3245Y2672*
X3275Y2707D02*
X3272Y2712D01*
X3267Y2717*
X3260Y2720*
X3252*
X3247Y2717*
X3245Y2712*
Y2707*
X3247Y2702*
X3252Y2700*
X3257Y2702*
X3260Y2707*
Y2712*
X3257Y2717*
X3252Y2720*
X3277Y2135D02*
X3247D01*
Y2153*
X3250Y2158*
X3255Y2160*
X3260Y2158*
X3262Y2153*
Y2135*
Y2153D02*
X3277Y2160D01*
Y2175D02*
X3247Y2195D01*
Y2175*
X3277Y2220D02*
Y2230D01*
Y2225D02*
X3247D01*
X3252Y2220*
X3280Y1649D02*
X3250D01*
Y1666*
X3252Y1671*
X3257Y1674*
X3262Y1671*
X3265Y1666*
Y1649*
Y1666D02*
X3280Y1674D01*
Y1689D02*
X3250Y1709D01*
Y1689*
X3277Y1731D02*
X3280Y1736D01*
Y1741*
X3277Y1746*
X3272Y1749*
X3267Y1746*
X3265Y1741*
Y1736*
Y1741D02*
X3262Y1746D01*
X3257Y1749*
X3252Y1746*
X3250Y1741*
Y1736*
X3252Y1731*
X3281Y1407D02*
X3251D01*
Y1424*
X3254Y1429*
X3259Y1432*
X3264Y1429*
X3266Y1424*
Y1407*
Y1424D02*
X3281Y1432D01*
Y1447D02*
X3251Y1467D01*
Y1447*
X3281Y1499D02*
X3251D01*
X3271Y1487*
Y1507*
X3281Y1892D02*
X3251D01*
Y1910*
X3254Y1915*
X3259Y1917*
X3264Y1915*
X3266Y1910*
Y1892*
Y1910D02*
X3281Y1917D01*
Y1932D02*
X3251Y1952D01*
Y1932*
X3281Y1992D02*
Y1972D01*
X3264Y1990*
X3259Y1992*
X3254Y1990*
X3251Y1985*
Y1977*
X3254Y1972*
X3281Y2862D02*
X3251D01*
Y2879*
X3254Y2884*
X3259Y2887*
X3264Y2884*
X3266Y2879*
Y2862*
Y2879D02*
X3281Y2887D01*
X3274Y2902D02*
X3269Y2904D01*
X3266Y2909*
Y2914*
X3269Y2919*
X3274Y2922*
X3279Y2919*
X3281Y2914*
Y2909*
X3279Y2904*
X3274Y2902*
X3266*
X3259Y2904*
X3254Y2909*
X3251Y2914*
X3266Y2949D02*
Y2954D01*
X3264Y2959*
X3259Y2962*
X3254Y2959*
X3251Y2954*
Y2949*
X3254Y2944*
X3259Y2942*
X3264Y2944*
X3266Y2949*
X3269Y2944*
X3274Y2942*
X3279Y2944*
X3281Y2949*
Y2954*
X3279Y2959*
X3274Y2962*
X3269Y2959*
X3266Y2954*
X3281Y3104D02*
X3251D01*
Y3121*
X3254Y3126*
X3259Y3129*
X3264Y3126*
X3266Y3121*
Y3104*
Y3121D02*
X3281Y3129D01*
X3274Y3144D02*
X3269Y3146D01*
X3266Y3151*
Y3156*
X3269Y3161*
X3274Y3164*
X3279Y3161*
X3281Y3156*
Y3151*
X3279Y3146*
X3274Y3144*
X3266*
X3259Y3146*
X3254Y3151*
X3251Y3156*
X3281Y3184D02*
X3251Y3204D01*
Y3184*
X3343Y2363D02*
X3290D01*
Y2486*
X3343*
Y2363*
Y2607D02*
X3290D01*
Y2730*
X3343*
Y2607*
X3344Y2121D02*
X3291D01*
Y2244*
X3344*
Y2121*
X3344Y1391D02*
X3291D01*
Y1514*
X3344*
Y1391*
X3345Y1635D02*
X3292D01*
Y1758*
X3345*
Y1635*
Y1877D02*
X3292D01*
Y2000*
X3345*
Y1877*
X3346Y2846D02*
X3293D01*
Y2969*
X3346*
Y2846*
Y3089D02*
X3293D01*
Y3212*
X3346*
Y3089*
X3370Y1492D02*
G75*
G03Y1476J-8D01*
G01*
G75*
G03Y1492J8*
G01*
G36*
G75*
G03Y1476J-8*
G01*
G75*
G03Y1492J8*
G01*
G37*
Y1736D02*
G75*
G03Y1721J-8D01*
G01*
G75*
G03Y1736J8*
G01*
G36*
G75*
G03Y1721J-8*
G01*
G75*
G03Y1736J8*
G01*
G37*
Y1978D02*
G75*
G03Y1963J-8D01*
G01*
G75*
G03Y1978J8*
G01*
G36*
G75*
G03Y1963J-8*
G01*
G75*
G03Y1978J8*
G01*
G37*
Y2222D02*
G75*
G03Y2207J-8D01*
G01*
G75*
G03Y2222J8*
G01*
G36*
G75*
G03Y2207J-8*
G01*
G75*
G03Y2222J8*
G01*
G37*
Y2465D02*
G75*
G03Y2450J-8D01*
G01*
G75*
G03Y2465J8*
G01*
G36*
G75*
G03Y2450J-8*
G01*
G75*
G03Y2465J8*
G01*
G37*
Y2707D02*
G75*
G03Y2692J-8D01*
G01*
G75*
G03Y2707J8*
G01*
G36*
G75*
G03Y2692J-8*
G01*
G75*
G03Y2707J8*
G01*
G37*
Y2948D02*
G75*
G03Y2933J-8D01*
G01*
G75*
G03Y2948J8*
G01*
G36*
G75*
G03Y2933J-8*
G01*
G75*
G03Y2948J8*
G01*
G37*
Y3190D02*
G75*
G03Y3175J-8D01*
G01*
G75*
G03Y3190J8*
G01*
G36*
G75*
G03Y3175J-8*
G01*
G75*
G03Y3190J8*
G01*
G37*
X3409Y3666D02*
X3407Y3668D01*
X3402Y3671*
X3397Y3668*
X3394Y3666*
Y3641*
X3389*
X3394D02*
X3404D01*
X3357Y3671D02*
Y3641D01*
X3369Y3661*
X3349*
X3546Y3199D02*
Y3221D01*
X3543Y3226*
X3538Y3229*
X3528*
X3523Y3226*
X3521Y3221*
Y3199*
X3501Y3229D02*
X3491D01*
X3496D02*
Y3199D01*
X3501Y3204*
X3458Y3214D02*
X3453D01*
X3448Y3211*
X3446Y3206*
X3448Y3201*
X3453Y3199*
X3458*
X3463Y3201*
X3466Y3206*
X3463Y3211*
X3458Y3214*
X3463Y3216*
X3466Y3221*
X3463Y3226*
X3458Y3229*
X3453*
X3448Y3226*
X3446Y3221*
X3448Y3216*
X3453Y3214*
X3547Y1743D02*
Y1766D01*
X3544Y1771*
X3539Y1773*
X3529*
X3524Y1771*
X3522Y1766*
Y1743*
X3487Y1773D02*
X3507D01*
X3489Y1756*
X3487Y1751*
X3489Y1746*
X3494Y1743*
X3502*
X3507Y1746*
X3454Y1773D02*
Y1743D01*
X3467Y1763*
X3447*
X3548Y1986D02*
Y2008D01*
X3546Y2013*
X3541Y2016*
X3531*
X3526Y2013*
X3523Y2008*
Y1986*
X3488Y2016D02*
X3508D01*
X3491Y1998*
X3488Y1993*
X3491Y1988*
X3496Y1986*
X3503*
X3508Y1988*
X3466Y2013D02*
X3461Y2016D01*
X3456*
X3451Y2013*
X3448Y2008*
X3451Y2003*
X3456Y2001*
X3461*
X3456D02*
X3451Y1998D01*
X3448Y1993*
X3451Y1988*
X3456Y1986*
X3461*
X3466Y1988*
X3548Y2954D02*
Y2977D01*
X3546Y2982*
X3541Y2984*
X3531*
X3526Y2982*
X3523Y2977*
Y2954*
X3503Y2984D02*
X3493D01*
X3498D02*
Y2954D01*
X3503Y2959*
X3461Y2984D02*
X3456Y2982D01*
X3451Y2977*
X3448Y2969*
Y2962*
X3451Y2957*
X3456Y2954*
X3461*
X3466Y2957*
X3468Y2962*
X3466Y2967*
X3461Y2969*
X3456*
X3451Y2967*
X3448Y2962*
X3549Y1499D02*
Y1521D01*
X3547Y1526*
X3542Y1529*
X3532*
X3527Y1526*
X3524Y1521*
Y1499*
X3489Y1529D02*
X3509D01*
X3492Y1511*
X3489Y1506*
X3492Y1501*
X3497Y1499*
X3504*
X3509Y1501*
X3469Y1526D02*
X3464Y1529D01*
X3457*
X3452Y1526*
X3449Y1521*
Y1519*
X3452Y1514*
X3457Y1511*
X3469*
Y1499*
X3449*
X3549Y2470D02*
Y2492D01*
X3547Y2497*
X3542Y2500*
X3532*
X3527Y2497*
X3524Y2492*
Y2470*
X3489Y2500D02*
X3509D01*
X3492Y2482*
X3489Y2477*
X3492Y2472*
X3497Y2470*
X3504*
X3509Y2472*
X3464Y2500D02*
X3454D01*
X3459D02*
Y2470D01*
X3464Y2475*
X3552Y2226D02*
Y2249D01*
X3549Y2254*
X3544Y2256*
X3534*
X3529Y2254*
X3527Y2249*
Y2226*
X3492Y2256D02*
X3512D01*
X3494Y2239*
X3492Y2234*
X3494Y2229*
X3499Y2226*
X3507*
X3512Y2229*
X3452Y2256D02*
X3472D01*
X3454Y2239*
X3452Y2234*
X3454Y2229*
X3459Y2226*
X3467*
X3472Y2229*
X3552Y2713D02*
Y2736D01*
X3549Y2741*
X3544Y2743*
X3534*
X3529Y2741*
X3527Y2736*
Y2713*
X3492Y2743D02*
X3512D01*
X3494Y2726*
X3492Y2721*
X3494Y2716*
X3499Y2713*
X3507*
X3512Y2716*
X3469Y2741D02*
X3464Y2743D01*
X3459*
X3454Y2741*
X3452Y2736*
Y2721*
X3454Y2716*
X3459Y2713*
X3464*
X3469Y2716*
X3472Y2721*
Y2736*
X3469Y2741*
X3454Y2716*
X3639Y1487D02*
Y1296D01*
X3359*
Y1487*
X3485*
Y1472*
X3514*
Y1487*
X3639*
Y1732D02*
Y1541D01*
X3359*
Y1732*
X3485*
Y1717*
X3514*
Y1732*
X3639*
Y1974D02*
Y1783D01*
X3359*
Y1974*
X3485*
Y1959*
X3514*
Y1974*
X3639*
Y2217D02*
Y2026D01*
X3359*
Y2217*
X3485*
Y2203*
X3514*
Y2217*
X3639*
Y2461D02*
Y2269D01*
X3359*
Y2461*
X3485*
Y2446*
X3514*
Y2461*
X3639*
Y2703D02*
Y2511D01*
X3359*
Y2703*
X3485*
Y2688*
X3514*
Y2703*
X3639*
Y2944D02*
Y2752D01*
X3359*
Y2944*
X3485*
Y2929*
X3514*
Y2944*
X3639*
Y3186D02*
Y2994D01*
X3359*
Y3186*
X3485*
Y3171*
X3514*
Y3186*
X3639*
X3651Y1462D02*
Y1515D01*
X3774*
Y1462*
X3651*
X3653Y1707D02*
Y1760D01*
X3776*
Y1707*
X3653*
X3654Y1954D02*
Y2007D01*
X3777*
Y1954*
X3654*
Y2195D02*
Y2248D01*
X3777*
Y2195*
X3654*
Y2437D02*
Y2490D01*
X3777*
Y2437*
X3654*
Y2679D02*
Y2732D01*
X3777*
Y2679*
X3654*
Y2918D02*
Y2971D01*
X3777*
Y2918*
X3654*
Y3162D02*
Y3215D01*
X3777*
Y3162*
X3654*
X3774Y1387D02*
Y1334D01*
X3651*
Y1387*
X3774*
Y1451D02*
Y1398D01*
X3651*
Y1451*
X3774*
X3776Y1630D02*
Y1577D01*
X3653*
Y1630*
X3776*
Y1695D02*
Y1642D01*
X3653*
Y1695*
X3776*
X3777Y1870D02*
Y1817D01*
X3654*
Y1870*
X3777*
Y1938D02*
Y1885D01*
X3654*
Y1938*
X3777*
Y2116D02*
Y2063D01*
X3654*
Y2116*
X3777*
Y2182D02*
Y2129D01*
X3654*
Y2182*
X3777*
Y2359D02*
Y2306D01*
X3654*
Y2359*
X3777*
Y2424D02*
Y2371D01*
X3654*
Y2424*
X3777*
Y2601D02*
Y2548D01*
X3654*
Y2601*
X3777*
Y2667D02*
Y2614D01*
X3654*
Y2667*
X3777*
Y2841D02*
Y2788D01*
X3654*
Y2841*
X3777*
Y2906D02*
Y2853D01*
X3654*
Y2906*
X3777*
Y3084D02*
Y3031D01*
X3654*
Y3084*
X3777*
Y3150D02*
Y3097D01*
X3654*
Y3150*
X3777*
X3940Y1383D02*
Y1353D01*
X3923*
X3918Y1355*
X3915Y1360*
X3918Y1365*
X3923Y1368*
X3940*
X3923D02*
X3915Y1383D01*
X3893D02*
X3888Y1380D01*
X3882Y1375*
X3880Y1368*
Y1360*
X3882Y1355*
X3888Y1353*
X3893*
X3898Y1355*
X3900Y1360*
X3898Y1365*
X3893Y1368*
X3888*
X3882Y1365*
X3880Y1360*
X3858Y1380D02*
X3853Y1383D01*
X3848*
X3843Y1380*
X3840Y1375*
Y1360*
X3843Y1355*
X3848Y1353*
X3853*
X3858Y1355*
X3860Y1360*
Y1375*
X3858Y1380*
X3843Y1355*
X3940Y1445D02*
Y1415D01*
X3923*
X3918Y1418*
X3915Y1423*
X3918Y1428*
X3923Y1430*
X3940*
X3923D02*
X3915Y1445D01*
X3893Y1430D02*
X3888D01*
X3882Y1428*
X3880Y1423*
X3882Y1418*
X3888Y1415*
X3893*
X3898Y1418*
X3900Y1423*
X3898Y1428*
X3893Y1430*
X3898Y1433*
X3900Y1438*
X3898Y1443*
X3893Y1445*
X3888*
X3882Y1443*
X3880Y1438*
X3882Y1433*
X3888Y1430*
X3853Y1445D02*
X3848Y1443D01*
X3843Y1438*
X3840Y1430*
Y1423*
X3843Y1418*
X3848Y1415*
X3853*
X3858Y1418*
X3860Y1423*
X3858Y1428*
X3853Y1430*
X3848*
X3843Y1428*
X3840Y1423*
X3915Y1503D02*
X3918Y1505D01*
X3923Y1508*
X3930*
X3935Y1505*
X3938Y1503*
X3940Y1498*
Y1488*
X3938Y1483*
X3935Y1480*
X3930Y1478*
X3923*
X3918Y1480*
X3915Y1483*
X3888Y1508D02*
Y1478D01*
X3900Y1498*
X3880*
X3840Y1508D02*
X3860D01*
X3843Y1490*
X3840Y1485*
X3843Y1480*
X3848Y1478*
X3855*
X3860Y1480*
X3940Y1620D02*
Y1590D01*
X3923*
X3918Y1593*
X3915Y1598*
X3918Y1603*
X3923Y1605*
X3940*
X3923D02*
X3915Y1620D01*
X3893Y1605D02*
X3888D01*
X3882Y1603*
X3880Y1598*
X3882Y1593*
X3888Y1590*
X3893*
X3898Y1593*
X3900Y1598*
X3898Y1603*
X3893Y1605*
X3898Y1608*
X3900Y1613*
X3898Y1618*
X3893Y1620*
X3888*
X3882Y1618*
X3880Y1613*
X3882Y1608*
X3888Y1605*
X3853D02*
X3848D01*
X3843Y1603*
X3840Y1598*
X3843Y1593*
X3848Y1590*
X3853*
X3858Y1593*
X3860Y1598*
X3858Y1603*
X3853Y1605*
X3858Y1608*
X3860Y1613*
X3858Y1618*
X3853Y1620*
X3848*
X3843Y1618*
X3840Y1613*
X3843Y1608*
X3848Y1605*
X3940Y1683D02*
Y1653D01*
X3923*
X3918Y1655*
X3915Y1660*
X3918Y1665*
X3923Y1668*
X3940*
X3923D02*
X3915Y1683D01*
X3893Y1668D02*
X3888D01*
X3882Y1665*
X3880Y1660*
X3882Y1655*
X3888Y1653*
X3893*
X3898Y1655*
X3900Y1660*
X3898Y1665*
X3893Y1668*
X3898Y1670*
X3900Y1675*
X3898Y1680*
X3893Y1683*
X3888*
X3882Y1680*
X3880Y1675*
X3882Y1670*
X3888Y1668*
X3860Y1683D02*
X3840Y1653D01*
X3860*
X3915Y1740D02*
X3918Y1743D01*
X3923Y1745*
X3930*
X3935Y1743*
X3938Y1740*
X3940Y1735*
Y1725*
X3938Y1720*
X3935Y1718*
X3930Y1715*
X3923*
X3918Y1718*
X3915Y1720*
X3888Y1745D02*
Y1715D01*
X3900Y1735*
X3880*
X3855Y1745D02*
X3845D01*
X3850D02*
Y1715D01*
X3855Y1720*
X3940Y1858D02*
Y1828D01*
X3923*
X3918Y1830*
X3915Y1835*
X3918Y1840*
X3923Y1843*
X3940*
X3923D02*
X3915Y1858D01*
X3893Y1843D02*
X3888D01*
X3882Y1840*
X3880Y1835*
X3882Y1830*
X3888Y1828*
X3893*
X3898Y1830*
X3900Y1835*
X3898Y1840*
X3893Y1843*
X3898Y1845*
X3900Y1850*
X3898Y1855*
X3893Y1858*
X3888*
X3882Y1855*
X3880Y1850*
X3882Y1845*
X3888Y1843*
X3860Y1850D02*
X3858Y1845D01*
X3853Y1843*
X3848*
X3843Y1845*
X3840Y1850*
X3843Y1855*
X3848Y1858*
X3853*
X3858Y1855*
X3860Y1850*
Y1843*
X3858Y1835*
X3853Y1830*
X3848Y1828*
X3940Y1933D02*
Y1903D01*
X3923*
X3918Y1905*
X3915Y1910*
X3918Y1915*
X3923Y1918*
X3940*
X3923D02*
X3915Y1933D01*
X3893Y1918D02*
X3888D01*
X3882Y1915*
X3880Y1910*
X3882Y1905*
X3888Y1903*
X3893*
X3898Y1905*
X3900Y1910*
X3898Y1915*
X3893Y1918*
X3898Y1920*
X3900Y1925*
X3898Y1930*
X3893Y1933*
X3888*
X3882Y1930*
X3880Y1925*
X3882Y1920*
X3888Y1918*
X3860Y1930D02*
X3855Y1933D01*
X3848*
X3843Y1930*
X3840Y1925*
Y1923*
X3843Y1918*
X3848Y1915*
X3860*
Y1903*
X3840*
X3915Y1990D02*
X3918Y1993D01*
X3923Y1995*
X3930*
X3935Y1993*
X3938Y1990*
X3940Y1985*
Y1975*
X3938Y1970*
X3935Y1968*
X3930Y1965*
X3923*
X3918Y1968*
X3915Y1970*
X3888Y1995D02*
Y1965D01*
X3900Y1985*
X3880*
X3858Y1993D02*
X3853Y1995D01*
X3848*
X3843Y1993*
X3840Y1988*
Y1972*
X3843Y1968*
X3848Y1965*
X3853*
X3858Y1968*
X3860Y1972*
Y1988*
X3858Y1993*
X3843Y1968*
X3940Y2108D02*
Y2078D01*
X3923*
X3918Y2080*
X3915Y2085*
X3918Y2090*
X3923Y2092*
X3940*
X3923D02*
X3915Y2108D01*
X3893Y2092D02*
X3888D01*
X3882Y2090*
X3880Y2085*
X3882Y2080*
X3888Y2078*
X3893*
X3898Y2080*
X3900Y2085*
X3898Y2090*
X3893Y2092*
X3898Y2095*
X3900Y2100*
X3898Y2105*
X3893Y2108*
X3888*
X3882Y2105*
X3880Y2100*
X3882Y2095*
X3888Y2092*
X3848Y2108D02*
Y2078D01*
X3860Y2098*
X3840*
X3940Y2170D02*
Y2140D01*
X3923*
X3918Y2143*
X3915Y2148*
X3918Y2153*
X3923Y2155*
X3940*
X3923D02*
X3915Y2170D01*
X3893Y2155D02*
X3888D01*
X3882Y2153*
X3880Y2148*
X3882Y2143*
X3888Y2140*
X3893*
X3898Y2143*
X3900Y2148*
X3898Y2153*
X3893Y2155*
X3898Y2158*
X3900Y2163*
X3898Y2168*
X3893Y2170*
X3888*
X3882Y2168*
X3880Y2163*
X3882Y2158*
X3888Y2155*
X3858Y2168D02*
X3853Y2170D01*
X3848*
X3843Y2168*
X3840Y2163*
X3843Y2158*
X3848Y2155*
X3853*
X3848D02*
X3843Y2153D01*
X3840Y2148*
X3843Y2143*
X3848Y2140*
X3853*
X3858Y2143*
X3915Y2228D02*
X3918Y2230D01*
X3923Y2233*
X3930*
X3935Y2230*
X3938Y2228*
X3940Y2223*
Y2213*
X3938Y2208*
X3935Y2205*
X3930Y2203*
X3923*
X3918Y2205*
X3915Y2208*
X3898Y2230D02*
X3893Y2233D01*
X3888*
X3882Y2230*
X3880Y2225*
X3882Y2220*
X3888Y2217*
X3893*
X3888D02*
X3882Y2215D01*
X3880Y2210*
X3882Y2205*
X3888Y2203*
X3893*
X3898Y2205*
X3853Y2233D02*
X3848Y2230D01*
X3843Y2225*
X3840Y2217*
Y2210*
X3843Y2205*
X3848Y2203*
X3853*
X3858Y2205*
X3860Y2210*
X3858Y2215*
X3853Y2217*
X3848*
X3843Y2215*
X3840Y2210*
X3940Y2345D02*
Y2315D01*
X3923*
X3918Y2317*
X3915Y2322*
X3918Y2328*
X3923Y2330*
X3940*
X3923D02*
X3915Y2345D01*
X3893Y2330D02*
X3888D01*
X3882Y2328*
X3880Y2322*
X3882Y2317*
X3888Y2315*
X3893*
X3898Y2317*
X3900Y2322*
X3898Y2328*
X3893Y2330*
X3898Y2333*
X3900Y2338*
X3898Y2342*
X3893Y2345*
X3888*
X3882Y2342*
X3880Y2338*
X3882Y2333*
X3888Y2330*
X3840Y2345D02*
X3860D01*
X3843Y2328*
X3840Y2322*
X3843Y2317*
X3848Y2315*
X3855*
X3860Y2317*
X3940Y2420D02*
Y2390D01*
X3923*
X3918Y2393*
X3915Y2398*
X3918Y2403*
X3923Y2405*
X3940*
X3923D02*
X3915Y2420D01*
X3893Y2405D02*
X3888D01*
X3882Y2403*
X3880Y2398*
X3882Y2393*
X3888Y2390*
X3893*
X3898Y2393*
X3900Y2398*
X3898Y2403*
X3893Y2405*
X3898Y2408*
X3900Y2413*
X3898Y2418*
X3893Y2420*
X3888*
X3882Y2418*
X3880Y2413*
X3882Y2408*
X3888Y2405*
X3855Y2420D02*
X3845D01*
X3850D02*
Y2390D01*
X3855Y2395*
X3915Y2478D02*
X3918Y2480D01*
X3923Y2483*
X3930*
X3935Y2480*
X3938Y2478*
X3940Y2473*
Y2463*
X3938Y2458*
X3935Y2455*
X3930Y2453*
X3923*
X3918Y2455*
X3915Y2458*
X3898Y2480D02*
X3893Y2483D01*
X3888*
X3882Y2480*
X3880Y2475*
X3882Y2470*
X3888Y2467*
X3893*
X3888D02*
X3882Y2465D01*
X3880Y2460*
X3882Y2455*
X3888Y2453*
X3893*
X3898Y2455*
X3853Y2467D02*
X3848D01*
X3843Y2465*
X3840Y2460*
X3843Y2455*
X3848Y2453*
X3853*
X3858Y2455*
X3860Y2460*
X3858Y2465*
X3853Y2467*
X3858Y2470*
X3860Y2475*
X3858Y2480*
X3853Y2483*
X3848*
X3843Y2480*
X3840Y2475*
X3843Y2470*
X3848Y2467*
X3940Y2595D02*
Y2565D01*
X3923*
X3918Y2568*
X3915Y2573*
X3918Y2578*
X3923Y2580*
X3940*
X3923D02*
X3915Y2595D01*
X3893Y2580D02*
X3888D01*
X3882Y2578*
X3880Y2573*
X3882Y2568*
X3888Y2565*
X3893*
X3898Y2568*
X3900Y2573*
X3898Y2578*
X3893Y2580*
X3898Y2583*
X3900Y2588*
X3898Y2593*
X3893Y2595*
X3888*
X3882Y2593*
X3880Y2588*
X3882Y2583*
X3888Y2580*
X3858Y2593D02*
X3853Y2595D01*
X3848*
X3843Y2593*
X3840Y2588*
Y2573*
X3843Y2568*
X3848Y2565*
X3853*
X3858Y2568*
X3860Y2573*
Y2588*
X3858Y2593*
X3843Y2568*
X3940Y2658D02*
Y2628D01*
X3923*
X3918Y2630*
X3915Y2635*
X3918Y2640*
X3923Y2643*
X3940*
X3923D02*
X3915Y2658D01*
X3900D02*
X3880Y2628D01*
X3900*
X3853Y2658D02*
X3848Y2655D01*
X3843Y2650*
X3840Y2643*
Y2635*
X3843Y2630*
X3848Y2628*
X3853*
X3858Y2630*
X3860Y2635*
X3858Y2640*
X3853Y2643*
X3848*
X3843Y2640*
X3840Y2635*
X3915Y2715D02*
X3918Y2718D01*
X3923Y2720*
X3930*
X3935Y2718*
X3938Y2715*
X3940Y2710*
Y2700*
X3938Y2695*
X3935Y2693*
X3930Y2690*
X3923*
X3918Y2693*
X3915Y2695*
X3898Y2718D02*
X3893Y2720D01*
X3888*
X3882Y2718*
X3880Y2713*
X3882Y2708*
X3888Y2705*
X3893*
X3888D02*
X3882Y2703D01*
X3880Y2698*
X3882Y2693*
X3888Y2690*
X3893*
X3898Y2693*
X3860Y2720D02*
X3840Y2690D01*
X3860*
X3940Y2833D02*
Y2803D01*
X3923*
X3918Y2805*
X3915Y2810*
X3918Y2815*
X3923Y2818*
X3940*
X3923D02*
X3915Y2833D01*
X3900D02*
X3880Y2803D01*
X3900*
X3853Y2818D02*
X3848D01*
X3843Y2815*
X3840Y2810*
X3843Y2805*
X3848Y2803*
X3853*
X3858Y2805*
X3860Y2810*
X3858Y2815*
X3853Y2818*
X3858Y2820*
X3860Y2825*
X3858Y2830*
X3853Y2833*
X3848*
X3843Y2830*
X3840Y2825*
X3843Y2820*
X3848Y2818*
X3940Y2895D02*
Y2865D01*
X3923*
X3918Y2868*
X3915Y2873*
X3918Y2878*
X3923Y2880*
X3940*
X3923D02*
X3915Y2895D01*
X3900D02*
X3880Y2865D01*
X3900*
X3860Y2895D02*
X3840Y2865D01*
X3860*
X3915Y2953D02*
X3918Y2955D01*
X3923Y2958*
X3930*
X3935Y2955*
X3938Y2953*
X3940Y2948*
Y2938*
X3938Y2933*
X3935Y2930*
X3930Y2928*
X3923*
X3918Y2930*
X3915Y2933*
X3898Y2955D02*
X3893Y2958D01*
X3888*
X3882Y2955*
X3880Y2950*
X3882Y2945*
X3888Y2943*
X3893*
X3888D02*
X3882Y2940D01*
X3880Y2935*
X3882Y2930*
X3888Y2928*
X3893*
X3898Y2930*
X3860Y2950D02*
X3858Y2945D01*
X3853Y2943*
X3848*
X3843Y2945*
X3840Y2950*
X3843Y2955*
X3848Y2958*
X3853*
X3858Y2955*
X3860Y2950*
Y2943*
X3858Y2935*
X3853Y2930*
X3848Y2928*
X3940Y3070D02*
Y3040D01*
X3923*
X3918Y3043*
X3915Y3048*
X3918Y3053*
X3923Y3055*
X3940*
X3923D02*
X3915Y3070D01*
X3900D02*
X3880Y3040D01*
X3900*
X3860Y3063D02*
X3858Y3058D01*
X3853Y3055*
X3848*
X3843Y3058*
X3840Y3063*
X3843Y3068*
X3848Y3070*
X3853*
X3858Y3068*
X3860Y3063*
Y3055*
X3858Y3048*
X3853Y3043*
X3848Y3040*
X3940Y3145D02*
Y3115D01*
X3923*
X3918Y3118*
X3915Y3123*
X3918Y3128*
X3923Y3130*
X3940*
X3923D02*
X3915Y3145D01*
X3900D02*
X3880Y3115D01*
X3900*
X3860Y3143D02*
X3855Y3145D01*
X3848*
X3843Y3143*
X3840Y3138*
Y3135*
X3843Y3130*
X3848Y3128*
X3860*
Y3115*
X3840*
X3915Y3203D02*
X3918Y3205D01*
X3923Y3208*
X3930*
X3935Y3205*
X3938Y3203*
X3940Y3198*
Y3188*
X3938Y3183*
X3935Y3180*
X3930Y3178*
X3923*
X3918Y3180*
X3915Y3183*
X3898Y3205D02*
X3893Y3208D01*
X3888*
X3882Y3205*
X3880Y3200*
X3882Y3195*
X3888Y3193*
X3893*
X3888D02*
X3882Y3190D01*
X3880Y3185*
X3882Y3180*
X3888Y3178*
X3893*
X3898Y3180*
X3860Y3205D02*
X3855Y3208D01*
X3848*
X3843Y3205*
X3840Y3200*
Y3198*
X3843Y3193*
X3848Y3190*
X3860*
Y3178*
X3840*
X4055Y3702D02*
X5303D01*
Y3943*
X4055*
Y3702*
X4165Y1315D02*
X4168Y1318D01*
X4173Y1320*
X4180*
X4185Y1318*
X4188Y1315*
X4190Y1310*
Y1300*
X4188Y1295*
X4185Y1293*
X4180Y1290*
X4173*
X4168Y1293*
X4165Y1295*
X4150Y1318D02*
X4145Y1320D01*
X4138*
X4133Y1318*
X4130Y1313*
Y1310*
X4133Y1305*
X4138Y1303*
X4150*
Y1290*
X4130*
X4108Y1318D02*
X4103Y1320D01*
X4098*
X4093Y1318*
X4090Y1313*
Y1298*
X4093Y1293*
X4098Y1290*
X4103*
X4108Y1293*
X4110Y1298*
Y1313*
X4108Y1318*
X4093Y1293*
X4190Y1383D02*
Y1353D01*
X4173*
X4168Y1355*
X4165Y1360*
X4168Y1365*
X4173Y1368*
X4190*
X4173D02*
X4165Y1383D01*
X4145D02*
X4135D01*
X4140D02*
Y1353D01*
X4145Y1358*
X4108Y1380D02*
X4103Y1383D01*
X4098*
X4093Y1380*
X4090Y1375*
Y1360*
X4093Y1355*
X4098Y1353*
X4103*
X4108Y1355*
X4110Y1360*
Y1375*
X4108Y1380*
X4093Y1355*
X4070Y1375D02*
X4068Y1370D01*
X4063Y1368*
X4058*
X4053Y1370*
X4050Y1375*
X4053Y1380*
X4058Y1383*
X4063*
X4068Y1380*
X4070Y1375*
Y1368*
X4068Y1360*
X4063Y1355*
X4058Y1353*
X4190Y1458D02*
Y1428D01*
X4173*
X4168Y1430*
X4165Y1435*
X4168Y1440*
X4173Y1443*
X4190*
X4173D02*
X4165Y1458D01*
X4145D02*
X4135D01*
X4140D02*
Y1428D01*
X4145Y1433*
X4108Y1455D02*
X4103Y1458D01*
X4098*
X4093Y1455*
X4090Y1450*
Y1435*
X4093Y1430*
X4098Y1428*
X4103*
X4108Y1430*
X4110Y1435*
Y1450*
X4108Y1455*
X4093Y1430*
X4070Y1455D02*
X4065Y1458D01*
X4058*
X4053Y1455*
X4050Y1450*
Y1448*
X4053Y1443*
X4058Y1440*
X4070*
Y1428*
X4050*
X4165Y1553D02*
X4168Y1555D01*
X4173Y1558*
X4180*
X4185Y1555*
X4188Y1553*
X4190Y1548*
Y1538*
X4188Y1533*
X4185Y1530*
X4180Y1528*
X4173*
X4168Y1530*
X4165Y1533*
X4138Y1558D02*
Y1528D01*
X4150Y1548*
X4130*
X4103Y1558D02*
X4098Y1555D01*
X4093Y1550*
X4090Y1543*
Y1535*
X4093Y1530*
X4098Y1528*
X4103*
X4108Y1530*
X4110Y1535*
X4108Y1540*
X4103Y1543*
X4098*
X4093Y1540*
X4090Y1535*
X4190Y1633D02*
Y1603D01*
X4173*
X4168Y1605*
X4165Y1610*
X4168Y1615*
X4173Y1618*
X4190*
X4173D02*
X4165Y1633D01*
X4145D02*
X4135D01*
X4140D02*
Y1603D01*
X4145Y1608*
X4108Y1630D02*
X4103Y1633D01*
X4098*
X4093Y1630*
X4090Y1625*
Y1610*
X4093Y1605*
X4098Y1603*
X4103*
X4108Y1605*
X4110Y1610*
Y1625*
X4108Y1630*
X4093Y1605*
X4058Y1633D02*
Y1603D01*
X4070Y1623*
X4050*
X4190Y1695D02*
Y1665D01*
X4173*
X4168Y1668*
X4165Y1673*
X4168Y1678*
X4173Y1680*
X4190*
X4173D02*
X4165Y1695D01*
X4145D02*
X4135D01*
X4140D02*
Y1665D01*
X4145Y1670*
X4108Y1692D02*
X4103Y1695D01*
X4098*
X4093Y1692*
X4090Y1688*
Y1673*
X4093Y1668*
X4098Y1665*
X4103*
X4108Y1668*
X4110Y1673*
Y1688*
X4108Y1692*
X4093Y1668*
X4068Y1692D02*
X4063Y1695D01*
X4058*
X4053Y1692*
X4050Y1688*
X4053Y1683*
X4058Y1680*
X4063*
X4058D02*
X4053Y1678D01*
X4050Y1673*
X4053Y1668*
X4058Y1665*
X4063*
X4068Y1668*
X4165Y1803D02*
X4168Y1805D01*
X4173Y1808*
X4180*
X4185Y1805*
X4188Y1803*
X4190Y1798*
Y1788*
X4188Y1783*
X4185Y1780*
X4180Y1778*
X4173*
X4168Y1780*
X4165Y1783*
X4138Y1808D02*
Y1778D01*
X4150Y1798*
X4130*
X4103Y1793D02*
X4098D01*
X4093Y1790*
X4090Y1785*
X4093Y1780*
X4098Y1778*
X4103*
X4108Y1780*
X4110Y1785*
X4108Y1790*
X4103Y1793*
X4108Y1795*
X4110Y1800*
X4108Y1805*
X4103Y1808*
X4098*
X4093Y1805*
X4090Y1800*
X4093Y1795*
X4098Y1793*
X4190Y1870D02*
Y1840D01*
X4173*
X4168Y1843*
X4165Y1847*
X4168Y1853*
X4173Y1855*
X4190*
X4173D02*
X4165Y1870D01*
X4145D02*
X4135D01*
X4140D02*
Y1840D01*
X4145Y1845*
X4108Y1868D02*
X4103Y1870D01*
X4098*
X4093Y1868*
X4090Y1863*
Y1847*
X4093Y1843*
X4098Y1840*
X4103*
X4108Y1843*
X4110Y1847*
Y1863*
X4108Y1868*
X4093Y1843*
X4050Y1870D02*
X4070D01*
X4053Y1853*
X4050Y1847*
X4053Y1843*
X4058Y1840*
X4065*
X4070Y1843*
X4190Y1945D02*
Y1915D01*
X4173*
X4168Y1918*
X4165Y1923*
X4168Y1928*
X4173Y1930*
X4190*
X4173D02*
X4165Y1945D01*
X4145D02*
X4135D01*
X4140D02*
Y1915D01*
X4145Y1920*
X4108Y1942D02*
X4103Y1945D01*
X4098*
X4093Y1942*
X4090Y1938*
Y1923*
X4093Y1918*
X4098Y1915*
X4103*
X4108Y1918*
X4110Y1923*
Y1938*
X4108Y1942*
X4093Y1918*
X4065Y1945D02*
X4055D01*
X4060D02*
Y1915D01*
X4065Y1920*
X4165Y2040D02*
X4168Y2043D01*
X4173Y2045*
X4180*
X4185Y2043*
X4188Y2040*
X4190Y2035*
Y2025*
X4188Y2020*
X4185Y2018*
X4180Y2015*
X4173*
X4168Y2018*
X4165Y2020*
X4138Y2045D02*
Y2015D01*
X4150Y2035*
X4130*
X4110Y2045D02*
X4090Y2015D01*
X4110*
X4190Y2120D02*
Y2090D01*
X4173*
X4168Y2092*
X4165Y2098*
X4168Y2103*
X4173Y2105*
X4190*
X4173D02*
X4165Y2120D01*
X4145D02*
X4135D01*
X4140D02*
Y2090D01*
X4145Y2095*
X4108Y2118D02*
X4103Y2120D01*
X4098*
X4093Y2118*
X4090Y2113*
Y2098*
X4093Y2092*
X4098Y2090*
X4103*
X4108Y2092*
X4110Y2098*
Y2113*
X4108Y2118*
X4093Y2092*
X4068Y2118D02*
X4063Y2120D01*
X4058*
X4053Y2118*
X4050Y2113*
Y2098*
X4053Y2092*
X4058Y2090*
X4063*
X4068Y2092*
X4070Y2098*
Y2113*
X4068Y2118*
X4053Y2092*
X4190Y2183D02*
Y2153D01*
X4173*
X4168Y2155*
X4165Y2160*
X4168Y2165*
X4173Y2168*
X4190*
X4173D02*
X4165Y2183D01*
X4143D02*
X4138Y2180D01*
X4133Y2175*
X4130Y2168*
Y2160*
X4133Y2155*
X4138Y2153*
X4143*
X4148Y2155*
X4150Y2160*
X4148Y2165*
X4143Y2168*
X4138*
X4133Y2165*
X4130Y2160*
X4103Y2183D02*
X4098Y2180D01*
X4093Y2175*
X4090Y2168*
Y2160*
X4093Y2155*
X4098Y2153*
X4103*
X4108Y2155*
X4110Y2160*
X4108Y2165*
X4103Y2168*
X4098*
X4093Y2165*
X4090Y2160*
X4165Y2290D02*
X4168Y2293D01*
X4173Y2295*
X4180*
X4185Y2293*
X4188Y2290*
X4190Y2285*
Y2275*
X4188Y2270*
X4185Y2268*
X4180Y2265*
X4173*
X4168Y2268*
X4165Y2270*
X4138Y2295D02*
Y2265D01*
X4150Y2285*
X4130*
X4110Y2288D02*
X4108Y2283D01*
X4103Y2280*
X4098*
X4093Y2283*
X4090Y2288*
X4093Y2293*
X4098Y2295*
X4103*
X4108Y2293*
X4110Y2288*
Y2280*
X4108Y2273*
X4103Y2268*
X4098Y2265*
X4190Y2370D02*
Y2340D01*
X4173*
X4168Y2342*
X4165Y2348*
X4168Y2353*
X4173Y2355*
X4190*
X4173D02*
X4165Y2370D01*
X4143D02*
X4138Y2368D01*
X4133Y2363*
X4130Y2355*
Y2348*
X4133Y2342*
X4138Y2340*
X4143*
X4148Y2342*
X4150Y2348*
X4148Y2353*
X4143Y2355*
X4138*
X4133Y2353*
X4130Y2348*
X4103Y2355D02*
X4098D01*
X4093Y2353*
X4090Y2348*
X4093Y2342*
X4098Y2340*
X4103*
X4108Y2342*
X4110Y2348*
X4108Y2353*
X4103Y2355*
X4108Y2358*
X4110Y2363*
X4108Y2368*
X4103Y2370*
X4098*
X4093Y2368*
X4090Y2363*
X4093Y2358*
X4098Y2355*
X4190Y2433D02*
Y2403D01*
X4173*
X4168Y2405*
X4165Y2410*
X4168Y2415*
X4173Y2418*
X4190*
X4173D02*
X4165Y2433D01*
X4143D02*
X4138Y2430D01*
X4133Y2425*
X4130Y2418*
Y2410*
X4133Y2405*
X4138Y2403*
X4143*
X4148Y2405*
X4150Y2410*
X4148Y2415*
X4143Y2418*
X4138*
X4133Y2415*
X4130Y2410*
X4110Y2433D02*
X4090Y2403D01*
X4110*
X4165Y2528D02*
X4168Y2530D01*
X4173Y2533*
X4180*
X4185Y2530*
X4188Y2528*
X4190Y2523*
Y2513*
X4188Y2508*
X4185Y2505*
X4180Y2503*
X4173*
X4168Y2505*
X4165Y2508*
X4138Y2533D02*
Y2503D01*
X4150Y2523*
X4130*
X4110Y2530D02*
X4105Y2533D01*
X4098*
X4093Y2530*
X4090Y2525*
Y2523*
X4093Y2518*
X4098Y2515*
X4110*
Y2503*
X4090*
X4190Y2608D02*
Y2578D01*
X4173*
X4168Y2580*
X4165Y2585*
X4168Y2590*
X4173Y2593*
X4190*
X4173D02*
X4165Y2608D01*
X4143D02*
X4138Y2605D01*
X4133Y2600*
X4130Y2593*
Y2585*
X4133Y2580*
X4138Y2578*
X4143*
X4148Y2580*
X4150Y2585*
X4148Y2590*
X4143Y2593*
X4138*
X4133Y2590*
X4130Y2585*
X4110Y2600D02*
X4108Y2595D01*
X4103Y2593*
X4098*
X4093Y2595*
X4090Y2600*
X4093Y2605*
X4098Y2608*
X4103*
X4108Y2605*
X4110Y2600*
Y2593*
X4108Y2585*
X4103Y2580*
X4098Y2578*
X4190Y2683D02*
Y2653D01*
X4173*
X4168Y2655*
X4165Y2660*
X4168Y2665*
X4173Y2668*
X4190*
X4173D02*
X4165Y2683D01*
X4143D02*
X4138Y2680D01*
X4133Y2675*
X4130Y2668*
Y2660*
X4133Y2655*
X4138Y2653*
X4143*
X4148Y2655*
X4150Y2660*
X4148Y2665*
X4143Y2668*
X4138*
X4133Y2665*
X4130Y2660*
X4110Y2680D02*
X4105Y2683D01*
X4098*
X4093Y2680*
X4090Y2675*
Y2673*
X4093Y2668*
X4098Y2665*
X4110*
Y2653*
X4090*
X4165Y2778D02*
X4168Y2780D01*
X4173Y2783*
X4180*
X4185Y2780*
X4188Y2778*
X4190Y2773*
Y2763*
X4188Y2758*
X4185Y2755*
X4180Y2753*
X4173*
X4168Y2755*
X4165Y2758*
X4138Y2783D02*
Y2753D01*
X4150Y2773*
X4130*
X4098Y2783D02*
Y2753D01*
X4110Y2773*
X4090*
X4190Y2845D02*
Y2815D01*
X4173*
X4168Y2818*
X4165Y2823*
X4168Y2828*
X4173Y2830*
X4190*
X4173D02*
X4165Y2845D01*
X4143D02*
X4138Y2843D01*
X4133Y2838*
X4130Y2830*
Y2823*
X4133Y2818*
X4138Y2815*
X4143*
X4148Y2818*
X4150Y2823*
X4148Y2828*
X4143Y2830*
X4138*
X4133Y2828*
X4130Y2823*
X4098Y2845D02*
Y2815D01*
X4110Y2835*
X4090*
X4190Y2920D02*
Y2890D01*
X4173*
X4168Y2893*
X4165Y2898*
X4168Y2903*
X4173Y2905*
X4190*
X4173D02*
X4165Y2920D01*
X4143D02*
X4138Y2918D01*
X4133Y2913*
X4130Y2905*
Y2898*
X4133Y2893*
X4138Y2890*
X4143*
X4148Y2893*
X4150Y2898*
X4148Y2903*
X4143Y2905*
X4138*
X4133Y2903*
X4130Y2898*
X4108Y2918D02*
X4103Y2920D01*
X4098*
X4093Y2918*
X4090Y2913*
X4093Y2908*
X4098Y2905*
X4103*
X4098D02*
X4093Y2903D01*
X4090Y2898*
X4093Y2893*
X4098Y2890*
X4103*
X4108Y2893*
X4165Y3015D02*
X4168Y3018D01*
X4173Y3020*
X4180*
X4185Y3018*
X4188Y3015*
X4190Y3010*
Y3000*
X4188Y2995*
X4185Y2993*
X4180Y2990*
X4173*
X4168Y2993*
X4165Y2995*
X4138Y3020D02*
Y2990D01*
X4150Y3010*
X4130*
X4108Y3018D02*
X4103Y3020D01*
X4098*
X4093Y3018*
X4090Y3013*
X4093Y3008*
X4098Y3005*
X4103*
X4098D02*
X4093Y3003D01*
X4090Y2998*
X4093Y2993*
X4098Y2990*
X4103*
X4108Y2993*
X4190Y3095D02*
Y3065D01*
X4173*
X4168Y3068*
X4165Y3073*
X4168Y3078*
X4173Y3080*
X4190*
X4173D02*
X4165Y3095D01*
X4143D02*
X4138Y3093D01*
X4133Y3088*
X4130Y3080*
Y3073*
X4133Y3068*
X4138Y3065*
X4143*
X4148Y3068*
X4150Y3073*
X4148Y3078*
X4143Y3080*
X4138*
X4133Y3078*
X4130Y3073*
X4090Y3095D02*
X4110D01*
X4093Y3078*
X4090Y3073*
X4093Y3068*
X4098Y3065*
X4105*
X4110Y3068*
X4190Y3170D02*
Y3140D01*
X4173*
X4168Y3143*
X4165Y3148*
X4168Y3153*
X4173Y3155*
X4190*
X4173D02*
X4165Y3170D01*
X4143D02*
X4138Y3168D01*
X4133Y3163*
X4130Y3155*
Y3148*
X4133Y3143*
X4138Y3140*
X4143*
X4148Y3143*
X4150Y3148*
X4148Y3153*
X4143Y3155*
X4138*
X4133Y3153*
X4130Y3148*
X4105Y3170D02*
X4095D01*
X4100D02*
Y3140D01*
X4105Y3145*
X4247Y2563D02*
Y2616D01*
X4370*
Y2563*
X4247*
Y2632D02*
Y2685D01*
X4370*
Y2632*
X4247*
Y3054D02*
Y3107D01*
X4370*
Y3054*
X4247*
Y3121D02*
Y3174D01*
X4370*
Y3121*
X4247*
X4248Y2073D02*
Y2126D01*
X4371*
Y2073*
X4248*
Y2141D02*
Y2194D01*
X4371*
Y2141*
X4248*
Y2321D02*
Y2374D01*
X4371*
Y2321*
X4248*
Y2388D02*
Y2441D01*
X4371*
Y2388*
X4248*
Y2808D02*
Y2861D01*
X4371*
Y2808*
X4248*
Y2875D02*
Y2928D01*
X4371*
Y2875*
X4248*
X4249Y1343D02*
Y1396D01*
X4372*
Y1343*
X4249*
Y1410D02*
Y1463D01*
X4372*
Y1410*
X4249*
Y1587D02*
Y1640D01*
X4372*
Y1587*
X4249*
Y1656D02*
Y1709D01*
X4372*
Y1656*
X4249*
Y1832D02*
Y1885D01*
X4372*
Y1832*
X4249*
Y1899D02*
Y1952D01*
X4372*
Y1899*
X4249*
X4370Y2549D02*
Y2496D01*
X4247*
Y2549*
X4370*
Y3039D02*
Y2986D01*
X4247*
Y3039*
X4370*
X4371Y2058D02*
Y2005D01*
X4248*
Y2058*
X4371*
Y2307D02*
Y2254D01*
X4248*
Y2307*
X4371*
Y2792D02*
Y2739D01*
X4248*
Y2792*
X4371*
X4372Y1328D02*
Y1275D01*
X4249*
Y1328*
X4372*
Y1570D02*
Y1517D01*
X4249*
Y1570*
X4372*
Y1817D02*
Y1764D01*
X4249*
Y1817*
X4372*
X4387Y1306D02*
Y1497D01*
X4667*
Y1306*
X4541*
Y1321*
X4512*
Y1306*
X4387*
Y1550D02*
Y1742D01*
X4667*
Y1550*
X4541*
Y1565*
X4512*
Y1550*
X4387*
Y1795D02*
Y1986D01*
X4667*
Y1795*
X4541*
Y1810*
X4512*
Y1795*
X4387*
Y2038D02*
Y2230D01*
X4667*
Y2038*
X4541*
Y2053*
X4512*
Y2038*
X4387*
Y2284D02*
Y2476D01*
X4667*
Y2284*
X4541*
Y2299*
X4512*
Y2284*
X4387*
Y2526D02*
Y2718D01*
X4667*
Y2526*
X4541*
Y2541*
X4512*
Y2526*
X4387*
Y2771D02*
Y2962D01*
X4667*
Y2771*
X4541*
Y2786*
X4512*
Y2771*
X4387*
Y3017D02*
Y3208D01*
X4667*
Y3017*
X4541*
Y3032*
X4512*
Y3017*
X4387*
X4452Y320D02*
X4454Y317D01*
X4457Y312*
Y305*
X4454Y300*
X4452Y297*
X4447Y295*
X4437*
X4432Y297*
X4429Y300*
X4427Y305*
Y312*
X4429Y317*
X4432Y320*
X4454Y335D02*
X4457Y340D01*
Y347*
X4454Y352*
X4449Y355*
X4447*
X4442Y352*
X4439Y347*
Y335*
X4427*
Y355*
X4457Y380D02*
Y390D01*
Y385D02*
X4427D01*
X4432Y380*
X4544Y256D02*
Y416D01*
X4474*
Y256*
X4544*
X4570Y1998D02*
Y2021D01*
X4568Y2026*
X4563Y2028*
X4553*
X4548Y2026*
X4545Y2021*
Y1998*
X4528Y2026D02*
X4523Y2028D01*
X4518*
X4513Y2026*
X4510Y2021*
X4513Y2016*
X4518Y2013*
X4523*
X4518D02*
X4513Y2011D01*
X4510Y2006*
X4513Y2001*
X4518Y1998*
X4523*
X4528Y2001*
X4488Y2026D02*
X4483Y2028D01*
X4478*
X4473Y2026*
X4470Y2021*
Y2006*
X4473Y2001*
X4478Y1998*
X4483*
X4488Y2001*
X4490Y2006*
Y2021*
X4488Y2026*
X4473Y2001*
X4572Y2245D02*
Y2268D01*
X4569Y2273*
X4564Y2275*
X4554*
X4549Y2273*
X4547Y2268*
Y2245*
X4512Y2275D02*
X4532D01*
X4514Y2258*
X4512Y2253*
X4514Y2248*
X4519Y2245*
X4527*
X4532Y2248*
X4484Y2275D02*
X4479Y2273D01*
X4474Y2268*
X4472Y2260*
Y2253*
X4474Y2248*
X4479Y2245*
X4484*
X4489Y2248*
X4492Y2253*
X4489Y2258*
X4484Y2260*
X4479*
X4474Y2258*
X4472Y2253*
X4572Y2979D02*
Y3001D01*
X4569Y3006*
X4564Y3009*
X4554*
X4549Y3006*
X4547Y3001*
Y2979*
X4512Y3009D02*
X4532D01*
X4514Y2991*
X4512Y2986*
X4514Y2981*
X4519Y2979*
X4527*
X4532Y2981*
X4492Y3001D02*
X4489Y2996D01*
X4484Y2994*
X4479*
X4474Y2996*
X4472Y3001*
X4474Y3006*
X4479Y3009*
X4484*
X4489Y3006*
X4492Y3001*
Y2994*
X4489Y2986*
X4484Y2981*
X4479Y2979*
X4574Y1510D02*
Y1533D01*
X4572Y1538*
X4567Y1540*
X4557*
X4552Y1538*
X4549Y1533*
Y1510*
X4532Y1538D02*
X4527Y1540D01*
X4522*
X4517Y1538*
X4514Y1533*
X4517Y1528*
X4522Y1525*
X4527*
X4522D02*
X4517Y1523D01*
X4514Y1518*
X4517Y1513*
X4522Y1510*
X4527*
X4532Y1513*
X4474Y1540D02*
X4494D01*
X4477Y1523*
X4474Y1518*
X4477Y1513*
X4482Y1510*
X4489*
X4494Y1513*
X4574Y2487D02*
Y2510D01*
X4572Y2515*
X4567Y2517*
X4557*
X4552Y2515*
X4549Y2510*
Y2487*
X4514Y2517D02*
X4534D01*
X4517Y2500*
X4514Y2495*
X4517Y2490*
X4522Y2487*
X4529*
X4534Y2490*
X4487Y2502D02*
X4482D01*
X4477Y2500*
X4474Y2495*
X4477Y2490*
X4482Y2487*
X4487*
X4492Y2490*
X4494Y2495*
X4492Y2500*
X4487Y2502*
X4492Y2505*
X4494Y2510*
X4492Y2515*
X4487Y2517*
X4482*
X4477Y2515*
X4474Y2510*
X4477Y2505*
X4482Y2502*
X4574Y2732D02*
Y2754D01*
X4572Y2759*
X4567Y2762*
X4557*
X4552Y2759*
X4549Y2754*
Y2732*
X4514Y2762D02*
X4534D01*
X4517Y2744*
X4514Y2739*
X4517Y2734*
X4522Y2732*
X4529*
X4534Y2734*
X4494Y2762D02*
X4474Y2732D01*
X4494*
X4579Y1263D02*
Y1285D01*
X4577Y1290*
X4572Y1293*
X4562*
X4557Y1290*
X4554Y1285*
Y1263*
X4537Y1290D02*
X4532Y1293D01*
X4527*
X4522Y1290*
X4519Y1285*
X4522Y1280*
X4527Y1278*
X4532*
X4527D02*
X4522Y1275D01*
X4519Y1270*
X4522Y1265*
X4527Y1263*
X4532*
X4537Y1265*
X4497Y1290D02*
X4492Y1293D01*
X4487*
X4482Y1290*
X4479Y1285*
X4482Y1280*
X4487Y1278*
X4492*
X4487D02*
X4482Y1275D01*
X4479Y1270*
X4482Y1265*
X4487Y1263*
X4492*
X4497Y1265*
X4579Y1758D02*
Y1781D01*
X4577Y1786*
X4572Y1788*
X4562*
X4557Y1786*
X4554Y1781*
Y1758*
X4537Y1786D02*
X4532Y1788D01*
X4527*
X4522Y1786*
X4519Y1781*
X4522Y1776*
X4527Y1773*
X4532*
X4527D02*
X4522Y1771D01*
X4519Y1766*
X4522Y1761*
X4527Y1758*
X4532*
X4537Y1761*
X4494Y1788D02*
X4484D01*
X4489D02*
Y1758D01*
X4494Y1763*
X4580Y398D02*
X4855D01*
Y548*
X4580*
Y398*
X4635Y210D02*
X4795D01*
Y280*
X4635*
Y210*
X4656Y1302D02*
G75*
G03Y1317J8D01*
G01*
G75*
G03Y1302J-8*
G01*
G36*
G75*
G03Y1317J8*
G01*
G75*
G03Y1302J-8*
G01*
G37*
Y1546D02*
G75*
G03Y1561J8D01*
G01*
G75*
G03Y1546J-8*
G01*
G36*
G75*
G03Y1561J8*
G01*
G75*
G03Y1546J-8*
G01*
G37*
Y1791D02*
G75*
G03Y1806J8D01*
G01*
G75*
G03Y1791J-8*
G01*
G36*
G75*
G03Y1806J8*
G01*
G75*
G03Y1791J-8*
G01*
G37*
Y2034D02*
G75*
G03Y2049J8D01*
G01*
G75*
G03Y2034J-8*
G01*
G36*
G75*
G03Y2049J8*
G01*
G75*
G03Y2034J-8*
G01*
G37*
Y2280D02*
G75*
G03Y2295J8D01*
G01*
G75*
G03Y2280J-8*
G01*
G36*
G75*
G03Y2295J8*
G01*
G75*
G03Y2280J-8*
G01*
G37*
Y2522D02*
G75*
G03Y2537J8D01*
G01*
G75*
G03Y2522J-8*
G01*
G36*
G75*
G03Y2537J8*
G01*
G75*
G03Y2522J-8*
G01*
G37*
Y2767D02*
G75*
G03Y2782J8D01*
G01*
G75*
G03Y2767J-8*
G01*
G36*
G75*
G03Y2782J8*
G01*
G75*
G03Y2767J-8*
G01*
G37*
Y3013D02*
G75*
G03Y3028J8D01*
G01*
G75*
G03Y3013J-8*
G01*
G36*
G75*
G03Y3028J8*
G01*
G75*
G03Y3013J-8*
G01*
G37*
X4677Y2382D02*
X4730D01*
Y2259*
X4677*
Y2382*
Y2624D02*
X4730D01*
Y2501*
X4677*
Y2624*
Y2868D02*
X4730D01*
Y2745*
X4677*
Y2868*
X4679Y1648D02*
X4732D01*
Y1525*
X4679*
Y1648*
Y1892D02*
X4732D01*
Y1769*
X4679*
Y1892*
Y3113D02*
X4732D01*
Y2990*
X4679*
Y3113*
X4681Y1404D02*
X4734D01*
Y1281*
X4681*
Y1404*
Y2134D02*
X4734D01*
Y2011*
X4681*
Y2134*
X4704Y3666D02*
X4702Y3668D01*
X4697Y3671*
X4692Y3668*
X4689Y3666*
Y3641*
X4684*
X4689D02*
X4699D01*
X4664Y3668D02*
X4659Y3671D01*
X4652*
X4647Y3668*
X4644Y3663*
Y3661*
X4647Y3656*
X4652Y3653*
X4664*
Y3641*
X4644*
X4737Y181D02*
X4740Y183D01*
X4745Y186*
X4752*
X4757Y183*
X4760Y181*
X4762Y176*
Y166*
X4760Y161*
X4757Y158*
X4752Y156*
X4745*
X4740Y158*
X4737Y161*
X4722Y183D02*
X4717Y186D01*
X4710*
X4705Y183*
X4702Y178*
Y176*
X4705Y171*
X4710Y168*
X4722*
Y156*
X4702*
X4662Y186D02*
X4682D01*
X4665Y168*
X4662Y163*
X4665Y158*
X4670Y156*
X4677*
X4682Y158*
X4770Y2516D02*
X4740D01*
Y2534*
X4742Y2539*
X4747Y2541*
X4752Y2539*
X4755Y2534*
Y2516*
Y2534D02*
X4770Y2541D01*
Y2561D02*
Y2571D01*
Y2566D02*
X4740D01*
X4745Y2561*
X4767Y2599D02*
X4770Y2604D01*
Y2609*
X4767Y2614*
X4762Y2616*
X4747*
X4742Y2614*
X4740Y2609*
Y2604*
X4742Y2599*
X4747Y2596*
X4762*
X4767Y2599*
X4742Y2614*
X4770Y2644D02*
X4767Y2649D01*
X4762Y2654*
X4755Y2656*
X4747*
X4742Y2654*
X4740Y2649*
Y2644*
X4742Y2639*
X4747Y2636*
X4752Y2639*
X4755Y2644*
Y2649*
X4752Y2654*
X4747Y2656*
X4770Y2757D02*
X4740D01*
Y2774*
X4742Y2779*
X4747Y2782*
X4752Y2779*
X4755Y2774*
Y2757*
Y2774D02*
X4770Y2782D01*
Y2802D02*
Y2812D01*
Y2807D02*
X4740D01*
X4745Y2802*
X4767Y2839D02*
X4770Y2844D01*
Y2849*
X4767Y2854*
X4762Y2857*
X4747*
X4742Y2854*
X4740Y2849*
Y2844*
X4742Y2839*
X4747Y2837*
X4762*
X4767Y2839*
X4742Y2854*
X4755Y2884D02*
Y2889D01*
X4752Y2894*
X4747Y2897*
X4742Y2894*
X4740Y2889*
Y2884*
X4742Y2879*
X4747Y2877*
X4752Y2879*
X4755Y2884*
X4757Y2879*
X4762Y2877*
X4767Y2879*
X4770Y2884*
Y2889*
X4767Y2894*
X4762Y2897*
X4757Y2894*
X4755Y2889*
X4772Y1519D02*
X4742D01*
Y1536*
X4745Y1541*
X4750Y1544*
X4755Y1541*
X4757Y1536*
Y1519*
Y1536D02*
X4772Y1544D01*
Y1564D02*
Y1574D01*
Y1569D02*
X4742D01*
X4747Y1564*
X4772Y1604D02*
Y1614D01*
Y1609D02*
X4742D01*
X4747Y1604*
X4770Y1641D02*
X4772Y1646D01*
Y1651*
X4770Y1656*
X4765Y1659*
X4760Y1656*
X4757Y1651*
Y1646*
Y1651D02*
X4755Y1656D01*
X4750Y1659*
X4745Y1656*
X4742Y1651*
Y1646*
X4745Y1641*
X4772Y2274D02*
X4742D01*
Y2291*
X4745Y2296*
X4750Y2299*
X4755Y2296*
X4757Y2291*
Y2274*
Y2291D02*
X4772Y2299D01*
Y2319D02*
Y2329D01*
Y2324D02*
X4742D01*
X4747Y2319*
X4772Y2359D02*
Y2369D01*
Y2364D02*
X4742D01*
X4747Y2359*
X4770Y2396D02*
X4772Y2401D01*
Y2406*
X4770Y2411*
X4765Y2414*
X4750*
X4745Y2411*
X4742Y2406*
Y2401*
X4745Y2396*
X4750Y2394*
X4765*
X4770Y2396*
X4745Y2411*
X4775Y2005D02*
X4745D01*
Y2023*
X4747Y2028*
X4752Y2030*
X4757Y2028*
X4760Y2023*
Y2005*
Y2023D02*
X4775Y2030D01*
Y2050D02*
Y2060D01*
Y2055D02*
X4745D01*
X4750Y2050*
X4775Y2090D02*
Y2100D01*
Y2095D02*
X4745D01*
X4750Y2090*
X4775Y2130D02*
Y2140D01*
Y2135D02*
X4745D01*
X4750Y2130*
X4775Y2999D02*
X4745D01*
Y3017*
X4747Y3022*
X4752Y3024*
X4757Y3022*
X4760Y3017*
Y2999*
Y3017D02*
X4775Y3024D01*
Y3044D02*
Y3054D01*
Y3049D02*
X4745D01*
X4750Y3044*
X4772Y3082D02*
X4775Y3087D01*
Y3092*
X4772Y3097*
X4767Y3099*
X4752*
X4747Y3097*
X4745Y3092*
Y3087*
X4747Y3082*
X4752Y3079*
X4767*
X4772Y3082*
X4747Y3097*
X4775Y3119D02*
X4745Y3139D01*
Y3119*
X4776Y1278D02*
X4746D01*
Y1295*
X4749Y1300*
X4754Y1303*
X4759Y1300*
X4761Y1295*
Y1278*
Y1295D02*
X4776Y1303D01*
Y1323D02*
Y1333D01*
Y1328D02*
X4746D01*
X4751Y1323*
X4776Y1363D02*
Y1373D01*
Y1368D02*
X4746D01*
X4751Y1363*
X4776Y1410D02*
X4746D01*
X4766Y1398*
Y1418*
X4776Y1760D02*
X4746D01*
Y1777*
X4749Y1782*
X4754Y1785*
X4759Y1782*
X4761Y1777*
Y1760*
Y1777D02*
X4776Y1785D01*
Y1805D02*
Y1815D01*
Y1810D02*
X4746D01*
X4751Y1805*
X4776Y1845D02*
Y1855D01*
Y1850D02*
X4746D01*
X4751Y1845*
X4776Y1900D02*
Y1880D01*
X4759Y1897*
X4754Y1900*
X4749Y1897*
X4746Y1892*
Y1885*
X4749Y1880*
X4983Y373D02*
Y396D01*
X4981Y401*
X4976Y403*
X4966*
X4961Y401*
X4958Y396*
Y373*
X4941Y401D02*
X4936Y403D01*
X4931*
X4926Y401*
X4923Y396*
X4926Y391*
X4931Y388*
X4936*
X4931D02*
X4926Y386D01*
X4923Y381*
X4926Y376*
X4931Y373*
X4936*
X4941Y376*
X4891Y403D02*
Y373D01*
X4903Y393*
X4883*
X5325Y700D02*
Y480D01*
X5405*
Y700*
X5325*
X5403Y1886D02*
Y1856D01*
X5385*
X5380Y1858*
X5378Y1863*
X5380Y1868*
X5385Y1871*
X5403*
X5385D02*
X5378Y1886D01*
X5358D02*
X5348D01*
X5353D02*
Y1856D01*
X5358Y1861*
X5318Y1886D02*
X5308D01*
X5313D02*
Y1856D01*
X5318Y1861*
X5283Y1883D02*
X5278Y1886D01*
X5270*
X5265Y1883*
X5263Y1878*
Y1876*
X5265Y1871*
X5270Y1868*
X5283*
Y1856*
X5263*
X5413Y1673D02*
Y1833D01*
X5343*
Y1673*
X5413*
X5458Y540D02*
X5428D01*
Y565*
X5443Y560D02*
Y540D01*
X5450Y580D02*
X5455Y583D01*
X5458Y588*
Y598*
X5455Y603*
X5450Y605*
X5445Y603*
X5443Y598*
Y588*
X5440Y583*
X5435Y580*
X5430Y583*
X5428Y588*
Y598*
X5430Y603*
X5435Y605*
X5458Y625D02*
Y635D01*
Y630D02*
X5428D01*
X5433Y625*
X5505Y3702D02*
X5853D01*
Y3943*
X5505*
Y3702*
X5615Y640D02*
X5618Y642D01*
X5620Y647*
X5618Y652*
X5615Y655*
X5590*
Y660*
Y655D02*
Y644D01*
X5620Y680D02*
X5590Y700D01*
Y680*
X5706Y3665D02*
X5704Y3667D01*
X5699Y3670*
X5694Y3667*
X5691Y3665*
Y3640*
X5686*
X5691D02*
X5701D01*
X5666Y3662D02*
X5664Y3657D01*
X5659Y3655*
X5654*
X5649Y3657*
X5646Y3662*
X5649Y3667*
X5654Y3670*
X5659*
X5664Y3667*
X5666Y3662*
Y3655*
X5664Y3647*
X5659Y3642*
X5654Y3640*
X5756Y740D02*
Y2740D01*
X5500*
Y740*
X5756*
D02*
D23*
X229Y1103D02*
Y1064D01*
X582*
Y1103*
X229*
X232Y1101D02*
X579D01*
Y1067*
X232*
Y1101*
X385Y690D02*
X424D01*
Y1042*
X385*
Y690*
X388Y692D02*
Y1039D01*
X422*
Y692*
X388*
X464Y690D02*
X503D01*
Y1042*
X464*
Y690*
X466Y692D02*
Y1039D01*
X500*
Y692*
X466*
X544Y1042D02*
Y690D01*
X897*
Y1042*
X544*
X547Y1039D02*
X894D01*
Y692*
X547*
Y1039*
X581Y1005D02*
Y726D01*
X860*
Y1005*
X581*
X584Y1003D02*
X857D01*
Y729*
X584*
Y1003*
X1190Y904D02*
X1189Y902D01*
X1188Y901*
X1187Y900*
X1187Y900*
X1189Y902*
X1190Y904*
X1193Y829D02*
X1193Y829D01*
X1193Y828*
X1193Y827*
X1193Y825*
X1195Y821*
X1196Y817*
X1196Y816*
X1195Y818*
X1193Y821*
X1193Y825*
X1193Y828*
X1193Y829*
X1193Y829*
Y830D02*
X1192Y829D01*
X1192Y828*
X1192Y825*
X1192Y821*
X1194Y817*
X1196Y815*
X1197Y815*
X1197Y815*
X1197Y815*
X1197Y818*
X1196Y821*
X1195Y825*
X1195Y827*
X1195Y827*
X1195Y829*
X1193Y830*
X1194Y861D02*
X1193Y857D01*
X1193Y853*
X1194Y848*
X1197Y845*
X1199Y842*
X1199Y842*
X1199*
X1198Y842*
X1194Y844*
X1190Y848*
X1190Y852*
X1191Y857*
X1194Y861*
X1197Y830D02*
X1197D01*
X1198Y830*
X1200Y828*
X1203Y826*
X1203Y824*
X1203Y822*
X1202Y818*
X1201Y816*
X1201Y819*
X1201Y823*
X1199Y827*
X1197Y829*
X1197Y830*
X1197Y830*
X1197Y831D02*
X1196Y831D01*
X1196Y830*
X1196Y829*
X1198Y826*
X1200Y823*
X1200Y819*
X1200Y815*
X1200Y815*
X1201Y815*
X1202Y815*
X1203Y818*
X1204Y822*
X1204Y824*
X1204Y826*
X1201Y829*
X1198Y831*
X1197Y831*
X1199Y867D02*
X1199Y867D01*
X1199Y867*
X1195Y864*
X1190Y858*
X1188Y853*
X1189Y847*
X1194Y843*
X1198Y841*
X1199Y841*
X1200Y841*
X1201Y842*
X1200Y843*
X1198Y846*
X1195Y850*
X1194Y854*
X1195Y859*
X1197Y863*
X1200Y866*
X1200Y866*
X1199Y867*
X1201Y910D02*
X1207Y909D01*
X1213Y905*
X1216Y900*
X1216Y894*
X1213Y889*
X1213Y889*
X1208Y886*
X1202Y883*
X1196Y883*
X1189Y883*
X1186Y885*
X1183Y886*
X1181Y889*
X1180Y892*
X1180Y895*
X1180Y898*
X1181Y901*
X1183Y904*
X1188Y907*
X1194Y909*
X1201Y910*
Y911D02*
X1194Y910D01*
X1187Y908*
X1182Y904*
X1180Y902*
X1179Y898*
X1178Y895*
X1179Y891*
X1180Y888*
X1182Y885*
X1185Y883*
X1188Y882*
X1196Y881*
X1203Y882*
X1209Y884*
X1214Y888*
X1217Y894*
X1217Y901*
X1214Y906*
X1207Y910*
X1201Y911*
X1202Y1039D02*
X1194Y1025D01*
X1186Y1008*
X1179Y992*
X1173Y979*
X1165Y942*
X1163Y904*
X1168Y863*
X1180Y822*
X1187Y805*
X1196Y786*
X1206Y767*
X1216Y751*
X1217Y749*
X1217Y749*
X1216Y749*
X1214Y751*
X1210Y758*
X1203Y768*
X1196Y782*
X1179Y820*
X1167Y857*
X1161Y893*
X1161Y927*
X1164Y948*
X1169Y968*
X1176Y988*
X1185Y1008*
X1192Y1021*
X1200Y1035*
X1202Y1039*
X1204Y906D02*
X1204D01*
X1207Y906*
X1210Y904*
X1212Y902*
X1213Y899*
X1213Y896*
X1212Y893*
X1210Y890*
X1208Y889*
X1210Y893*
X1210Y894*
X1209Y895*
X1208Y894*
X1207Y893*
X1206Y891*
X1204Y887*
X1201Y886*
X1199Y886*
X1199Y886*
X1200Y886*
X1200Y887*
X1200Y887*
X1199Y887*
X1198Y888*
X1196Y888*
X1194Y889*
X1190Y892*
X1187Y895*
X1186Y896*
X1186Y896*
X1185Y895*
X1185Y894*
X1186Y893*
X1188Y889*
X1190Y887*
X1190Y886*
X1189Y887*
X1185Y889*
X1183Y891*
X1183Y892*
X1182Y894*
X1183Y896*
X1184Y900*
X1187Y903*
X1188Y904*
X1188Y903*
X1186Y901*
X1185Y900*
X1186Y899*
X1186Y898*
X1187Y899*
X1189Y900*
X1190Y902*
X1193Y906*
X1193Y906*
X1194*
X1198Y905*
X1202Y904*
X1205Y902*
X1206Y900*
X1207Y898*
X1208Y897*
X1208Y896*
X1208Y896*
X1209Y896*
X1209Y896*
X1210Y896*
X1210Y897*
X1210Y898*
X1209Y902*
X1206Y905*
X1205Y906*
X1204Y906*
X1204Y907D02*
X1203Y907D01*
X1203Y907*
X1203Y906*
X1204Y905*
X1205Y904*
X1208Y901*
X1208Y899*
X1207Y901*
X1205Y903*
X1202Y905*
X1198Y906*
X1194Y907*
X1193*
X1192Y906*
X1190Y905*
X1191Y905*
Y905*
X1190Y906*
X1189Y906*
X1188Y906*
X1186Y904*
X1183Y901*
X1181Y897*
X1181Y894*
X1181Y892*
X1184Y888*
X1188Y886*
X1191Y885*
X1192Y886*
X1191Y887*
X1189Y890*
X1187Y894*
X1187Y894*
X1189Y891*
X1194Y888*
X1197Y887*
X1197Y886*
X1194Y886*
X1194Y885*
X1194Y884*
X1195Y884*
X1197Y884*
X1201Y885*
X1205Y886*
X1208Y891*
X1208Y892*
X1207Y889*
X1206Y888*
X1206Y888*
X1206Y887*
X1206Y887*
X1207Y887*
X1207Y887*
X1208Y887*
X1211Y889*
X1213Y892*
X1214Y896*
X1214Y900*
X1213Y902*
X1210Y905*
X1208Y907*
X1204Y907*
X1205Y842D02*
X1203Y841D01*
X1203Y841*
X1202Y840*
X1203Y840*
X1203Y839*
X1204Y839*
X1206Y840*
X1207Y840*
X1207Y841*
X1207*
Y841*
X1207Y841*
X1205Y842*
X1206Y869D02*
X1205Y869D01*
X1204Y868*
X1204Y868*
X1204Y867*
X1205Y867*
X1206Y867*
X1208Y867*
X1208Y868*
X1208Y868*
X1208*
Y868*
X1208Y869*
X1206Y869*
X1208Y865D02*
X1213Y864D01*
X1218Y861*
X1222Y857*
X1223Y853*
X1222Y850*
X1220Y847*
X1218Y844*
X1217Y843*
X1217Y842*
X1217Y843*
X1216Y843*
X1215Y843*
X1214Y843*
X1214Y842*
X1214Y841*
Y841*
X1214Y841*
X1215Y841*
X1214Y841*
X1212Y841*
X1209Y842*
X1202Y846*
X1199Y848*
X1197Y850*
X1196Y853*
X1196Y856*
X1197Y858*
X1199Y862*
X1203Y865*
X1208Y865*
Y867D02*
X1203Y866D01*
X1198Y863*
X1196Y859*
X1194Y856*
X1195Y852*
X1196Y849*
X1201Y845*
X1208Y841*
X1211Y840*
X1214Y839*
X1216Y840*
X1216Y841*
X1216Y842*
X1216Y841*
X1218Y841*
X1218Y841*
X1219Y841*
X1219Y842*
X1219Y842*
X1219Y842*
X1219Y843*
X1221Y846*
X1223Y850*
X1224Y853*
X1223Y858*
X1219Y862*
X1214Y866*
X1208Y867*
Y870D02*
X1217Y870D01*
X1224Y867*
X1229Y863*
X1232Y856*
X1232Y853*
X1232Y851*
X1231Y849*
X1229Y847*
X1225Y843*
X1220Y840*
X1214Y839*
X1208Y838*
X1202Y838*
X1198Y839*
X1194Y840*
X1191Y843*
X1188Y846*
X1187Y850*
X1187Y857*
X1191Y863*
X1198Y868*
X1208Y870*
X1211Y1053D02*
X1210Y1053D01*
X1210Y1053*
X1209Y1052*
X1207Y1048*
X1203Y1043*
X1199Y1036*
X1191Y1022*
X1184Y1009*
X1175Y988*
X1168Y968*
X1163Y948*
X1160Y927*
X1160Y893*
X1166Y857*
X1177Y819*
X1195Y781*
X1202Y767*
X1208Y757*
X1213Y750*
X1215Y748*
X1217Y747*
X1218Y748*
X1218Y748*
X1219Y749*
X1218Y750*
X1217Y752*
X1207Y768*
X1197Y786*
X1188Y805*
X1182Y822*
X1170Y864*
X1165Y904*
X1166Y942*
X1175Y979*
X1180Y992*
X1187Y1009*
X1196Y1025*
X1204Y1040*
X1207Y1044*
X1210Y1048*
X1211Y1051*
X1212Y1052*
X1212Y1052*
Y1053*
X1211Y1053*
X1211Y1053*
X1213Y872D02*
X1208Y872D01*
X1198Y869*
X1190Y864*
X1186Y857*
X1185Y849*
X1187Y846*
X1190Y842*
X1194Y839*
X1198Y838*
X1202Y837*
X1208Y837*
X1214Y837*
X1220Y839*
X1225Y842*
X1230Y846*
X1232Y849*
X1233Y851*
X1233Y856*
X1230Y863*
X1225Y868*
X1219Y871*
X1213Y872*
X1214Y809D02*
X1216Y808D01*
X1219Y805*
X1222Y803*
X1222Y803*
X1222*
X1219Y803*
X1216Y805*
X1216Y806*
X1214Y809*
X1214Y809*
X1214Y869D02*
X1213Y869D01*
X1212Y868*
X1212Y868*
X1212Y867*
X1213Y867*
X1214Y867*
X1215Y867*
X1216Y868*
X1216Y868*
X1216*
Y868*
X1216Y869*
X1214Y869*
X1217Y819D02*
X1217Y819D01*
X1215Y817*
X1214Y816*
X1214Y816*
X1216Y818*
X1217Y819*
X1218Y868D02*
X1218Y867D01*
X1218Y866*
X1220Y863*
X1223Y860*
X1225Y856*
X1225Y852*
X1224Y848*
X1223Y846*
X1222Y844*
X1222Y844*
X1223Y844*
X1224Y844*
X1225Y845*
X1227Y847*
X1229Y851*
X1230Y855*
X1229Y858*
X1227Y862*
X1224Y865*
X1221Y868*
X1218Y868*
X1219Y1063D02*
X1218Y1063D01*
X1216Y1061*
X1214Y1058*
X1212Y1055*
X1212Y1054*
X1211Y1054*
X1212Y1053*
X1212Y1053*
X1213Y1053*
X1213Y1054*
X1214Y1055*
X1217Y1058*
X1219Y1061*
X1220Y1062*
X1219Y1063*
X1219Y1063*
X1219Y867D02*
X1220Y866D01*
X1224Y864*
X1226Y861*
X1228Y858*
X1228Y855*
X1228Y851*
X1226Y848*
X1224Y846*
X1224Y846*
X1225Y848*
X1226Y856*
X1221Y864*
X1219Y866*
X1219Y867*
X1220Y823D02*
X1216Y821D01*
X1212Y819*
X1209Y815*
X1209Y810*
X1209Y807*
X1210Y805*
X1214Y802*
X1219Y801*
X1223Y800*
X1226Y800*
X1227Y801*
X1227Y802*
X1229Y802*
X1232Y801*
X1233Y802*
X1233Y803*
Y803*
X1234Y804*
X1235Y807*
X1236Y811*
X1235Y815*
X1233Y818*
X1228Y821*
X1224Y823*
X1220Y823*
X1220Y821D02*
X1223Y821D01*
X1228Y820*
X1232Y817*
X1234Y815*
X1235Y811*
X1233Y808*
X1232Y805*
X1232Y803*
X1232Y803*
X1232Y803*
X1230Y803*
X1227Y803*
X1226Y803*
X1226Y802*
X1226Y801*
X1226Y801*
X1226*
X1223Y801*
X1223Y801*
X1226Y801*
X1226Y803*
X1223Y804*
X1220Y806*
X1217Y808*
X1214Y811*
X1213Y811*
X1213Y811*
X1213Y810*
X1213Y808*
X1215Y805*
X1215Y805*
X1218Y803*
X1220Y802*
X1215Y803*
X1211Y806*
X1210Y808*
X1210Y810*
X1210Y814*
X1213Y818*
X1215Y819*
X1214Y819*
X1213Y816*
X1212Y814*
X1213Y814*
X1213Y813*
X1214Y814*
X1216Y816*
X1218Y818*
X1218Y820*
X1218Y821*
X1218Y821*
X1220Y821*
X1226Y1071D02*
X1226Y1071D01*
X1225Y1071*
X1224Y1070*
X1222Y1068*
X1220Y1066*
X1219Y1065*
X1219Y1064*
X1219Y1064*
X1220Y1064*
X1220Y1064*
X1221Y1064*
X1222Y1065*
X1224Y1067*
X1226Y1069*
X1227Y1070*
X1227Y1071*
X1227Y1071*
X1226Y1071*
X1229Y825D02*
X1235Y824D01*
X1239Y823*
X1243Y818*
X1243Y812*
X1241Y806*
X1237Y802*
X1232Y800*
X1225Y799*
X1219Y799*
X1214Y800*
X1211Y802*
X1208Y805*
X1207Y808*
X1207Y812*
X1208Y815*
X1210Y819*
X1213Y821*
X1217Y823*
X1223Y825*
X1229Y825*
X1229Y826D02*
X1223Y826D01*
X1216Y825*
X1212Y822*
X1209Y819*
X1207Y816*
X1206Y812*
X1206Y808*
X1207Y804*
X1210Y801*
X1213Y798*
X1218Y798*
X1225Y798*
X1232Y799*
X1237Y801*
X1243Y806*
X1245Y812*
X1244Y818*
X1240Y824*
X1235Y826*
X1229Y826*
X1232Y823D02*
X1231Y823D01*
Y822*
X1233Y819*
X1235Y816*
X1236Y813*
X1236Y809*
X1235Y806*
X1234Y804*
X1234Y804*
X1234Y803*
X1235Y803*
X1235Y803*
X1236Y804*
X1238Y805*
X1241Y809*
X1242Y813*
X1241Y817*
X1238Y820*
X1235Y823*
X1232Y823*
X1232Y822D02*
X1234Y822D01*
X1237Y819*
X1239Y816*
X1240Y813*
X1239Y810*
X1237Y806*
X1236Y806*
X1237Y809*
X1237Y813*
X1236Y817*
X1234Y820*
X1232Y822*
X1237Y842D02*
X1237Y842D01*
X1236Y840*
X1235Y838*
X1236Y836*
X1237Y835*
X1239Y832*
X1242Y829*
X1242Y829*
X1241Y829*
X1238Y832*
X1235Y834*
X1235Y838*
X1236Y840*
X1237Y842*
X1237Y842*
X1237Y843D02*
X1236Y843D01*
X1235Y841*
X1234Y838*
X1234Y834*
X1237Y831*
X1241Y828*
X1242Y828*
X1243Y828*
X1243Y828*
X1243Y829*
X1243Y830*
X1240Y833*
X1238Y835*
X1237Y837*
X1237Y838*
X1237Y840*
X1238Y841*
X1238Y842*
X1238Y843*
X1237Y843*
X1239Y1066D02*
X1239Y1065D01*
X1238Y1064*
X1236Y1061*
X1233Y1056*
X1229Y1051*
X1224Y1044*
X1218Y1034*
X1209Y1021*
X1201Y1005*
X1193Y988*
X1187Y973*
X1183Y961*
X1180Y948*
X1179Y942*
X1178Y937*
X1177Y932*
X1177Y928*
X1177Y924*
X1179Y920*
X1181Y918*
X1184Y917*
X1186Y918*
X1189Y918*
X1198Y919*
X1207Y920*
X1210Y920*
X1211Y921*
X1212Y921*
X1212Y922*
X1213Y922*
X1213Y925*
X1213Y932*
X1214Y942*
X1214Y953*
X1215Y974*
X1216Y990*
X1219Y1004*
X1224Y1021*
X1228Y1035*
X1233Y1045*
X1237Y1054*
X1241Y1060*
X1242Y1061*
Y1061*
X1241Y1056*
X1237Y1047*
X1228Y1020*
X1221Y994*
X1219Y984*
X1218Y975*
X1217Y964*
X1217Y947*
X1217Y936*
X1217Y926*
X1216Y919*
X1216Y917*
X1216Y917*
X1216Y916*
X1215Y916*
X1213Y916*
X1210Y915*
X1206Y916*
X1197Y916*
X1190Y915*
X1184Y913*
X1179Y913*
X1177Y914*
X1176Y916*
X1175Y921*
X1175Y930*
X1175Y940*
X1177Y950*
X1183Y971*
X1191Y993*
X1201Y1015*
X1214Y1035*
X1221Y1046*
X1230Y1056*
X1234Y1061*
X1237Y1064*
X1239Y1066*
X1239Y1066*
X1239Y1067D02*
X1238Y1067D01*
X1236Y1065*
X1233Y1062*
X1229Y1057*
X1220Y1047*
X1212Y1036*
X1200Y1016*
X1190Y994*
X1181Y971*
X1176Y950*
X1174Y940*
X1173Y930*
X1173Y921*
X1174Y915*
X1176Y913*
X1179Y911*
X1184Y912*
X1190Y913*
X1197Y915*
X1206Y914*
X1210Y914*
X1214Y914*
X1217Y916*
X1217Y916*
X1217Y917*
X1218Y919*
X1218Y926*
X1218Y936*
X1218Y947*
X1218Y964*
X1219Y975*
X1220Y984*
X1222Y993*
X1229Y1020*
X1239Y1047*
X1242Y1056*
X1244Y1061*
X1244Y1062*
X1243Y1063*
X1242Y1063*
X1241Y1062*
X1240Y1061*
X1236Y1054*
X1231Y1046*
X1227Y1035*
X1223Y1022*
X1218Y1004*
X1215Y990*
X1214Y974*
X1213Y953*
X1212Y942*
X1212Y932*
X1211Y925*
X1211Y923*
X1211Y922*
Y922*
X1211Y922*
X1210Y922*
X1207Y921*
X1198Y920*
X1189Y919*
X1183Y919*
X1182Y919*
X1180Y921*
X1179Y924*
X1178Y928*
X1179Y932*
X1179Y936*
X1180Y942*
X1181Y948*
X1184Y961*
X1188Y973*
X1194Y988*
X1202Y1004*
X1210Y1021*
X1219Y1034*
X1225Y1043*
X1230Y1050*
X1234Y1056*
X1237Y1060*
X1239Y1063*
X1240Y1065*
X1241Y1066*
X1240Y1067*
X1239Y1067*
X1241Y842D02*
X1241Y842D01*
X1242Y841*
X1243Y838*
X1245Y835*
X1245Y834*
X1243Y837*
X1241Y840*
X1240Y842*
Y842*
X1241Y842*
Y843D02*
X1239Y843D01*
X1239Y842*
X1239Y841*
X1240Y839*
X1242Y836*
X1244Y833*
X1245Y832*
X1246*
X1246Y833*
Y833*
X1246Y835*
X1245Y839*
X1243Y842*
X1242Y843*
X1241Y843*
X1242Y1089D02*
X1241Y1088D01*
X1241Y1088*
X1241Y1088*
X1239Y1086*
X1234Y1081*
X1229Y1076*
X1227Y1074*
X1227Y1074*
X1227Y1074*
X1227Y1073*
X1228Y1073*
X1228Y1073*
X1228Y1073*
X1229Y1074*
X1231Y1075*
X1236Y1080*
X1241Y1085*
X1242Y1087*
X1242Y1087*
X1243Y1088*
X1242Y1088*
X1242Y1089*
X1251Y1096D02*
X1251Y1096D01*
X1250Y1096*
X1249Y1095*
X1247Y1094*
X1247Y1093*
X1247Y1093*
X1247Y1092*
X1247Y1092*
X1247Y1091*
X1248Y1091*
X1251Y1094*
X1251Y1095*
X1252Y1095*
X1252Y1096*
Y1096*
X1252Y1096*
X1251Y1096*
X1251*
X1251Y820D02*
X1252Y818D01*
X1252Y813*
Y813*
X1252Y814*
X1251Y815*
X1250Y815*
X1248Y814*
X1247Y810*
X1245Y806*
X1242Y801*
X1238Y797*
X1234Y795*
X1229Y794*
X1221Y793*
X1214*
X1210Y793*
X1208Y791*
X1207Y788*
X1208Y784*
X1211Y778*
X1214Y772*
X1217Y769*
X1222Y766*
X1228Y766*
X1232Y768*
X1236Y769*
X1241Y772*
X1247Y776*
X1253Y779*
X1258Y783*
X1262Y785*
X1264Y787*
X1266Y794*
X1265Y801*
X1262Y809*
X1256Y816*
X1253Y819*
X1251Y820*
X1253Y817D02*
X1255Y815D01*
X1260Y808*
X1264Y801*
X1265Y794*
X1263Y788*
X1261Y786*
X1258Y784*
X1252Y780*
X1247Y777*
X1241Y773*
X1236Y771*
X1232Y769*
X1228Y768*
X1223Y767*
X1218Y770*
X1215Y773*
X1212Y778*
X1210Y784*
X1209Y788*
X1209Y790*
X1210Y792*
X1214Y792*
X1221Y792*
X1229Y792*
X1235Y794*
X1239Y796*
X1243Y800*
X1246Y805*
X1248Y810*
X1249Y813*
X1250Y814*
X1250Y814*
X1250Y814*
X1252Y811*
X1252Y809*
X1253Y809*
X1253Y808*
X1254Y809*
X1254Y809*
X1254Y810*
X1254Y810*
X1254Y813*
X1253Y817*
X1255Y805D02*
X1256Y805D01*
X1258Y803*
X1259Y799*
X1260Y795*
X1259Y792*
X1257Y790*
X1254Y788*
X1250Y785*
X1245Y782*
X1240Y779*
X1235Y776*
X1232Y774*
X1229Y773*
X1225Y772*
X1223Y773*
X1220Y775*
X1217Y779*
X1216Y782*
X1215Y785*
X1216Y786*
X1217Y786*
X1220Y787*
X1224Y787*
X1232Y787*
X1238Y790*
X1244Y793*
X1249Y799*
X1252Y803*
X1254Y805*
X1255Y805*
X1255Y807D02*
X1253Y806D01*
X1251Y804*
X1248Y800*
X1243Y794*
X1238Y791*
X1232Y789*
X1224Y788*
X1220Y788*
X1217Y788*
X1214Y785*
X1214Y782*
X1216Y778*
X1219Y774*
X1222Y772*
X1225Y771*
X1230Y772*
X1232Y773*
X1236Y775*
X1240Y777*
X1246Y781*
X1251Y784*
X1255Y787*
X1258Y789*
X1260Y791*
X1262Y795*
X1261Y800*
X1259Y803*
X1256Y806*
X1255Y807*
X1260Y1013D02*
X1260D01*
X1261Y1012*
X1261Y1009*
X1262Y1004*
X1263Y1000*
X1264Y996*
X1265Y992*
X1266Y989*
X1270Y982*
X1275Y977*
X1282Y971*
X1290Y967*
X1293Y965*
X1286Y968*
X1276Y975*
X1268Y983*
X1262Y994*
X1259Y1006*
X1259Y1011*
X1260Y1013*
X1263Y1070D02*
X1253Y1052D01*
X1244Y1032*
X1237Y1011*
X1232Y991*
X1230Y974*
X1229Y955*
X1230Y936*
X1231Y920*
X1238Y893*
X1247Y865*
X1260Y836*
X1277Y805*
X1280Y799*
X1283Y794*
X1285Y791*
X1286Y789*
X1286Y789*
X1285Y789*
X1285Y789*
X1283Y792*
X1279Y797*
X1276Y803*
X1267Y818*
X1258Y835*
X1247Y860*
X1238Y884*
X1232Y907*
X1228Y929*
X1226Y951*
X1228Y973*
X1231Y995*
X1238Y1018*
X1242Y1031*
X1249Y1045*
X1256Y1058*
X1263Y1070*
X1265Y997D02*
X1263Y1004D01*
X1263Y1009*
X1262Y1012*
X1261Y1014*
X1259Y1014*
X1257Y1012*
X1257Y1009*
X1258Y1006*
X1261Y994*
X1267Y983*
X1275Y974*
X1286Y967*
X1293Y964*
X1295Y963*
X1297Y963*
X1297Y963*
X1298Y963*
X1298Y964*
X1298Y964*
X1296Y965*
X1290Y968*
X1283Y973*
X1276Y978*
X1271Y983*
X1267Y989*
X1266Y993*
X1265Y997*
X1268Y1016D02*
X1268Y1016D01*
X1269Y1014*
X1271Y1009*
X1273Y1002*
X1277Y996*
X1283Y991*
X1289Y987*
X1306Y981*
X1330Y979*
X1337Y979*
X1344Y979*
X1351Y979*
X1361Y980*
X1373Y981*
X1390Y982*
X1411Y985*
X1438Y988*
X1469Y990*
X1496Y991*
X1517Y990*
X1534Y987*
X1538Y986*
X1537Y981*
X1537Y976*
X1536Y972*
X1536Y969*
X1535Y968*
X1534Y967*
X1532Y967*
X1528Y967*
X1521Y968*
X1511Y968*
X1501Y969*
X1487Y969*
X1475Y969*
X1464Y968*
X1453Y967*
X1440Y966*
X1429Y964*
X1421Y962*
X1418Y962*
X1417Y961*
X1418Y963*
X1421Y968*
X1422Y970*
X1422Y970*
X1422Y970*
X1422Y971*
X1421Y971*
X1421Y971*
X1420Y971*
X1417Y969*
X1412Y965*
X1409Y958*
X1409Y953*
X1408Y948*
X1408Y941*
X1408Y934*
X1409Y926*
X1409Y920*
X1408Y916*
X1407Y913*
X1406Y911*
X1404Y910*
X1401Y910*
X1396Y910*
X1392Y910*
X1388Y910*
X1386Y911*
X1385Y913*
X1384Y915*
X1383Y919*
X1383Y925*
X1383Y933*
X1383Y944*
X1383Y951*
X1382Y955*
X1381Y959*
X1379Y962*
X1376Y965*
X1374Y966*
X1373Y965*
X1373Y964*
X1374Y961*
X1374Y961*
X1374*
X1345Y961*
X1330Y962*
X1320Y963*
X1312Y964*
X1306Y965*
X1289Y971*
X1277Y980*
X1272Y986*
X1268Y991*
X1266Y998*
X1265Y1005*
X1265Y1011*
X1265Y1014*
X1266Y1015*
X1267Y1016*
X1268Y1016*
X1268Y1016*
X1268Y1102D02*
X1270Y1102D01*
X1274Y1100*
X1279Y1096*
X1272Y1089*
X1254Y1064*
X1239Y1035*
X1229Y1002*
X1223Y967*
X1223Y929*
X1232Y889*
X1248Y845*
X1273Y798*
X1276Y793*
X1278Y790*
X1279Y788*
X1279Y787*
X1279Y787*
X1277Y786*
X1271Y782*
X1262Y777*
X1251Y770*
X1249Y769*
X1239Y763*
X1231Y758*
X1224Y755*
X1222Y753*
X1221Y753*
X1221Y753*
X1220Y754*
X1217Y758*
X1212Y765*
X1207Y774*
X1196Y795*
X1187Y816*
X1182Y832*
X1177Y848*
X1173Y864*
X1170Y880*
X1168Y896*
X1167Y914*
X1168Y931*
X1170Y946*
X1178Y978*
X1192Y1011*
X1211Y1044*
X1233Y1073*
X1240Y1080*
X1249Y1088*
X1258Y1096*
X1265Y1101*
X1267Y1102*
X1268Y1102*
X1269Y1104D02*
X1266Y1103D01*
X1264Y1102*
X1257Y1097*
X1248Y1089*
X1239Y1081*
X1232Y1074*
X1210Y1044*
X1191Y1012*
X1177Y978*
X1168Y947*
X1167Y931*
X1166Y914*
X1167Y895*
X1168Y879*
X1171Y864*
X1175Y848*
X1180Y831*
X1186Y816*
X1195Y794*
X1206Y773*
X1211Y765*
X1216Y758*
X1219Y753*
X1221Y752*
X1222Y752*
X1223Y752*
X1225Y753*
X1231Y757*
X1241Y763*
X1252Y769*
X1254Y770*
X1263Y776*
X1272Y781*
X1278Y785*
X1279Y786*
X1280Y786*
X1280Y786*
X1280Y786*
X1280Y787*
Y787*
X1280Y787*
X1280Y788*
X1279Y791*
X1277Y794*
X1274Y798*
X1250Y846*
X1233Y889*
X1225Y929*
X1224Y967*
X1230Y1002*
X1240Y1035*
X1255Y1064*
X1273Y1088*
X1280Y1096*
X1281Y1097*
X1280Y1097*
X1274Y1101*
X1271Y1103*
X1269Y1104*
X1270Y1108D02*
X1270Y1108D01*
X1270Y1107*
X1270Y1107*
X1271Y1106*
X1275Y1102*
X1280Y1099*
X1282Y1097*
X1282Y1097*
X1282Y1097*
X1283Y1096*
X1284Y1096*
X1285Y1097*
X1285Y1099*
X1284Y1100*
X1283Y1101*
X1278Y1104*
X1273Y1107*
X1272Y1108*
X1270Y1108*
X1271Y1110D02*
X1273Y1109D01*
X1275Y1108*
X1281Y1105*
X1286Y1101*
X1288Y1099*
X1289Y1099*
X1288Y1098*
X1287Y1096*
X1284Y1092*
X1270Y1075*
X1258Y1055*
X1248Y1033*
X1240Y1011*
X1236Y996*
X1234Y981*
X1233Y966*
X1232Y949*
X1233Y931*
X1235Y916*
X1239Y900*
X1245Y882*
X1251Y863*
X1259Y846*
X1269Y826*
X1282Y803*
X1285Y798*
X1287Y793*
X1289Y789*
X1290Y788*
X1290Y788*
X1289Y788*
X1287Y786*
X1284Y784*
X1279Y781*
X1268Y774*
X1255Y766*
X1242Y759*
X1230Y752*
X1226Y749*
X1222Y747*
X1219Y746*
X1217Y745*
X1215Y745*
X1214Y746*
X1211Y749*
X1207Y755*
X1189Y787*
X1175Y821*
X1164Y855*
X1158Y888*
X1158Y903*
X1158Y920*
X1159Y936*
X1161Y951*
X1169Y978*
X1180Y1006*
X1195Y1034*
X1212Y1059*
X1227Y1077*
X1245Y1093*
X1253Y1100*
X1260Y1105*
X1267Y1108*
X1271Y1110*
Y1111D02*
X1266Y1110D01*
X1260Y1106*
X1252Y1101*
X1244Y1094*
X1226Y1078*
X1211Y1060*
X1194Y1034*
X1179Y1007*
X1168Y978*
X1160Y951*
X1158Y936*
X1157Y920*
X1156Y903*
X1157Y888*
X1163Y855*
X1173Y820*
X1188Y786*
X1206Y754*
X1210Y748*
X1213Y745*
X1215Y744*
X1218Y744*
X1219Y745*
X1222Y746*
X1226Y748*
X1231Y751*
X1243Y758*
X1256Y765*
X1269Y773*
X1280Y780*
X1285Y783*
X1288Y785*
X1290Y787*
X1291Y787*
X1291Y787*
X1291Y788*
X1291Y788*
X1291Y789*
X1290Y790*
X1289Y793*
X1286Y798*
X1283Y804*
X1270Y827*
X1260Y846*
X1253Y864*
X1246Y882*
X1240Y901*
X1237Y916*
X1235Y931*
X1234Y949*
X1234Y966*
X1235Y981*
X1237Y995*
X1241Y1010*
X1249Y1032*
X1259Y1054*
X1272Y1074*
X1285Y1091*
X1288Y1095*
X1289Y1097*
X1290Y1099*
X1289Y1100*
X1287Y1102*
X1282Y1106*
X1276Y1109*
X1271Y1111*
X1272Y1083D02*
X1271Y1083D01*
X1271Y1083*
X1270Y1082*
X1261Y1069*
X1251Y1053*
X1243Y1036*
X1236Y1018*
X1230Y995*
X1226Y973*
X1225Y951*
X1226Y929*
X1230Y906*
X1237Y883*
X1246Y859*
X1257Y834*
X1266Y817*
X1275Y802*
X1278Y796*
X1281Y791*
X1284Y788*
X1285Y788*
X1285Y787*
X1286Y788*
X1287Y789*
Y790*
X1286Y792*
X1284Y795*
X1281Y800*
X1278Y805*
X1262Y836*
X1249Y866*
X1239Y894*
X1233Y921*
X1231Y936*
X1231Y955*
X1231Y974*
X1233Y990*
X1239Y1013*
X1247Y1035*
X1257Y1057*
X1268Y1075*
X1271Y1079*
X1272Y1081*
X1272Y1082*
X1272Y1082*
X1272Y1083*
X1272Y1083*
X1273Y1016D02*
X1273Y1016D01*
X1274Y1015*
X1276Y1010*
X1280Y1003*
X1285Y996*
X1292Y991*
X1299Y987*
Y987*
X1300Y987*
X1300Y986*
X1290Y990*
X1283Y996*
X1278Y1001*
X1275Y1006*
X1273Y1011*
X1273Y1015*
X1273Y1016*
X1273Y1016*
X1273Y1018D02*
X1272Y1017D01*
X1272Y1015*
X1272Y1011*
X1274Y1005*
X1276Y1000*
X1282Y995*
X1290Y989*
X1298Y985*
X1305Y984*
X1305*
X1306Y984*
X1306Y985*
X1306Y985*
X1305Y986*
X1300Y988*
Y988*
X1300Y988*
X1293Y992*
X1286Y997*
X1281Y1004*
X1277Y1010*
X1275Y1015*
X1274Y1017*
X1274Y1017*
X1273Y1018*
X1274Y1021D02*
X1269Y1020D01*
X1262Y1018*
X1255Y1016*
X1254Y1016*
Y1016*
X1254Y1009*
X1256Y999*
X1259Y989*
X1264Y980*
X1270Y973*
X1283Y964*
X1299Y959*
X1319Y956*
X1346Y955*
X1366*
X1365Y951*
X1364Y942*
X1362Y923*
X1359Y895*
X1355Y858*
X1354Y846*
X1353Y833*
X1352Y821*
X1351Y812*
X1349Y792*
X1347Y772*
Y772*
X1346Y762*
X1345Y753*
X1344Y744*
X1344Y738*
X1343Y732*
X1343Y728*
X1343Y725*
X1344Y724*
X1345Y723*
X1346Y723*
X1350Y723*
X1361Y721*
X1376Y720*
X1393Y718*
X1409Y716*
X1421Y715*
Y715*
X1422Y715*
X1431Y714*
X1437Y713*
X1441Y714*
X1444Y716*
X1445Y719*
X1446Y725*
X1445Y732*
X1444Y743*
X1443Y755*
X1442Y771*
X1441Y786*
X1439Y801*
X1437Y837*
X1434Y865*
X1433Y888*
X1431Y907*
X1430Y916*
X1429Y926*
X1429Y935*
X1428Y942*
X1427Y952*
X1427Y955*
X1426Y958*
X1426Y959*
X1426Y959*
X1428Y959*
X1431Y959*
X1434Y960*
X1440Y960*
X1446Y960*
X1452Y961*
X1484Y962*
X1520Y961*
X1530Y960*
X1537Y960*
X1541Y960*
X1543Y961*
X1544Y962*
X1544Y963*
X1545Y966*
X1547Y973*
X1548Y982*
X1549Y989*
X1548Y991*
X1547Y992*
X1541Y994*
X1533Y995*
X1521Y997*
X1504Y998*
X1482Y997*
X1457Y995*
X1430Y993*
X1399Y989*
X1374Y987*
X1353Y985*
X1337Y985*
X1325Y985*
X1314Y987*
X1305Y989*
X1297Y993*
X1291Y997*
X1286Y1002*
X1282Y1007*
X1280Y1014*
X1279Y1018*
X1278Y1020*
X1276Y1021*
X1274Y1021*
X1274Y1019D02*
X1276Y1019D01*
X1277Y1019*
X1278Y1017*
X1279Y1014*
X1281Y1007*
X1285Y1001*
X1290Y996*
X1297Y992*
X1305Y988*
X1314Y986*
X1324Y984*
X1337Y984*
X1354Y984*
X1374Y985*
X1399Y988*
X1430Y991*
X1457Y994*
X1482Y996*
X1504Y996*
X1520Y996*
X1532Y994*
X1541Y993*
X1546Y991*
X1547Y990*
X1548Y989*
X1548Y986*
X1547Y983*
X1546Y978*
X1546Y974*
X1544Y966*
X1543Y963*
X1543Y962*
X1543Y962*
X1541Y962*
X1537Y962*
X1530Y962*
X1521Y962*
X1484Y964*
X1452Y962*
X1446Y962*
X1441Y961*
X1436Y961*
X1433Y961*
X1433Y961*
X1432Y961*
X1433*
Y962*
X1432Y962*
X1431Y962*
X1429Y962*
X1428Y962*
X1428Y961*
X1428Y961*
X1429Y960*
X1427Y960*
X1426Y960*
X1425Y959*
X1425Y957*
X1425Y955*
X1426Y952*
X1427Y942*
X1427Y935*
X1428Y926*
X1429Y916*
X1430Y907*
X1431Y888*
X1433Y865*
X1435Y836*
X1438Y801*
X1439Y786*
X1441Y770*
X1442Y755*
X1443Y743*
X1444Y732*
X1444Y725*
X1444Y719*
X1443Y716*
X1441Y715*
X1437Y715*
X1431Y715*
X1424Y716*
X1422Y716*
X1410Y717*
X1394Y719*
X1376Y721*
X1361Y723*
X1350Y724*
X1346Y724*
X1345Y725*
X1345Y725*
X1344Y726*
X1344Y728*
X1344Y732*
X1345Y738*
X1346Y744*
X1346Y753*
X1347Y762*
X1348Y772*
X1350Y792*
X1352Y812*
X1353Y821*
X1354Y833*
X1356Y845*
X1357Y858*
X1360Y895*
X1363Y923*
X1365Y942*
X1367Y951*
X1367Y953*
X1367Y951*
X1367Y948*
X1367Y944*
X1366Y939*
X1366Y933*
X1365Y926*
X1364Y913*
X1362Y895*
X1360Y873*
X1358Y848*
X1355Y820*
X1352Y790*
X1349Y758*
X1348Y749*
X1347Y742*
X1347Y737*
X1347Y733*
X1347Y728*
X1348Y726*
X1350Y725*
X1351Y725*
X1352Y725*
X1352Y726*
X1352Y728*
X1352Y728*
X1351Y730*
X1351Y734*
X1352Y742*
X1353Y752*
X1355Y767*
X1356Y785*
X1358Y805*
X1361Y827*
X1363Y848*
X1365Y868*
X1366Y887*
X1368Y903*
X1370Y922*
X1372Y941*
X1373Y958*
Y958*
X1374Y956*
X1374Y954*
X1373Y950*
X1373Y944*
X1372Y936*
X1370Y916*
X1368Y892*
X1366Y872*
X1364Y855*
X1363Y841*
X1361Y827*
X1360Y815*
X1359Y802*
X1358Y788*
X1356Y772*
X1355Y763*
X1354Y754*
X1354Y746*
X1353Y740*
X1352Y732*
X1352Y730*
X1352Y729*
X1352Y728*
X1353Y728*
X1353Y728*
X1353Y728*
X1354Y727*
X1357Y727*
X1366Y726*
X1382Y725*
X1400Y723*
X1409Y722*
X1415Y721*
X1420Y721*
X1422Y721*
X1422Y721*
X1423Y720*
X1425Y720*
X1430Y720*
X1435Y720*
X1436*
X1436Y720*
X1435Y735*
Y735*
X1435Y743*
X1434Y752*
X1433Y763*
X1432Y773*
X1431Y786*
X1430Y804*
X1428Y825*
X1426Y847*
X1425Y869*
X1423Y892*
X1421Y913*
X1420Y929*
X1419Y941*
X1418Y951*
X1418Y958*
X1418Y960*
X1418Y960*
X1419Y960*
X1421Y961*
X1429Y963*
X1440Y964*
X1453Y966*
X1464Y967*
X1475Y968*
X1487Y968*
X1500Y967*
X1511Y967*
X1521Y967*
X1528Y966*
X1531Y966*
X1534Y965*
X1536Y967*
X1537Y969*
X1537Y972*
X1538Y975*
X1539Y980*
X1539Y987*
X1540Y987*
X1539Y987*
X1534Y989*
X1517Y992*
X1496Y993*
X1469Y992*
X1437Y989*
X1411Y986*
X1389Y984*
X1373Y982*
X1361Y981*
X1351Y980*
X1344Y980*
X1337Y980*
X1330Y980*
X1307Y983*
X1290Y988*
X1283Y992*
X1278Y997*
X1275Y1003*
X1272Y1009*
X1270Y1015*
X1270Y1016*
X1270Y1017*
X1269Y1017*
X1269Y1017*
X1269*
X1268Y1017*
X1266Y1017*
X1265Y1016*
X1264Y1014*
X1264Y1011*
X1264Y1005*
X1265Y997*
X1266Y992*
X1269Y988*
X1272Y983*
X1276Y979*
X1288Y970*
X1306Y964*
X1312Y962*
X1320Y961*
X1330Y961*
X1345Y960*
X1373Y959*
X1373Y959*
X1373Y959*
X1367Y958*
X1364Y958*
X1363Y958*
X1363Y958*
X1362Y957*
X1363Y957*
X1363Y957*
X1364Y956*
X1366Y956*
X1346*
X1320Y957*
X1299Y960*
X1283Y966*
X1271Y974*
X1265Y981*
X1260Y990*
X1257Y999*
X1256Y1009*
X1256Y1015*
X1263Y1017*
X1269Y1019*
X1274Y1019*
X1274Y1105D02*
X1277Y1103D01*
X1282Y1100*
X1283Y1099*
X1284Y1098*
X1284Y1097*
X1283Y1097*
Y1097*
X1283Y1098*
X1283Y1098*
X1281Y1100*
X1276Y1103*
X1274Y1105*
X1282Y1095D02*
X1282Y1095D01*
X1282Y1095*
X1281Y1094*
X1278Y1092*
X1278Y1090*
X1279Y1090*
X1279Y1090*
X1280Y1090*
X1280Y1090*
X1281Y1091*
X1282Y1092*
X1283Y1094*
X1283Y1094*
X1283Y1094*
Y1094*
X1283Y1095*
X1283Y1095*
X1282*
X1302Y964D02*
X1301Y963D01*
X1300Y963*
X1300Y962*
X1300Y962*
X1301Y961*
X1302Y961*
X1303Y962*
X1304Y962*
X1304Y963*
X1304*
Y963*
X1304Y963*
X1302Y964*
X1307Y962D02*
X1306Y962D01*
X1305Y962*
X1305Y961*
X1305Y961*
X1306Y960*
X1307Y960*
X1309Y960*
X1309Y961*
X1309Y961*
X1309*
Y962*
X1309Y962*
X1307Y962*
X1310Y985D02*
X1308Y984D01*
X1308Y984*
X1308Y984*
X1308Y983*
X1308Y983*
X1310Y982*
X1312Y983*
X1313Y983*
X1313Y984*
X1313Y984*
X1312Y984*
X1310Y985*
X1315Y961D02*
X1314Y961D01*
X1313Y960*
X1313Y960*
X1313Y959*
X1314Y959*
X1315Y959*
X1316Y959*
X1317Y960*
X1317Y960*
X1317*
Y960*
X1317Y961*
X1315Y961*
X1316Y983D02*
X1315Y983D01*
X1315Y983*
X1315Y982*
X1315Y982*
X1315Y981*
X1318Y981*
X1321Y981*
X1321Y982*
X1322Y982*
X1321Y983*
X1321Y983*
X1321Y983*
X1316*
X1324Y960D02*
X1324Y959D01*
X1323Y959*
X1323Y958*
X1323Y958*
X1324Y958*
X1327Y958*
X1331Y958*
X1331Y958*
X1332Y958*
X1331Y959*
X1331Y959*
X1330Y960*
X1327Y960*
X1324Y960*
X1336Y982D02*
X1335Y982D01*
X1335Y982*
X1334Y981*
X1335Y981*
X1335Y980*
X1336Y980*
X1340Y980*
X1345Y980*
X1346Y980*
X1346Y981*
X1346Y981*
X1346Y982*
X1345Y982*
X1345Y982*
X1340Y982*
X1336Y982*
X1361Y726D02*
Y726D01*
X1358Y726*
X1357Y726*
X1357Y725*
X1357Y725*
X1357Y724*
X1359Y724*
X1362Y724*
X1362Y724*
X1362Y724*
Y724*
X1363Y725*
X1362Y726*
X1362Y726*
X1361Y726*
X1363Y983D02*
Y983D01*
X1358*
X1358Y983*
X1357Y983*
X1357Y982*
X1357Y982*
X1358Y981*
X1361Y981*
X1364Y981*
X1364Y982*
X1365Y982*
X1365Y982*
X1365Y983*
X1364Y983*
X1364Y983*
X1363Y983*
X1372Y814D02*
X1372Y813D01*
X1371Y811*
X1370Y810*
X1371Y813*
X1372Y814*
X1372Y816D02*
X1371Y815D01*
X1370Y814*
X1369Y809*
X1369Y808*
X1369Y807*
X1370Y807*
X1371Y808*
X1372Y810*
X1373Y813*
X1373Y814*
X1373Y815*
X1372Y816*
X1372Y957D02*
X1370Y941D01*
X1369Y922*
X1367Y903*
X1365Y887*
X1363Y869*
X1361Y848*
X1359Y827*
X1357Y806*
X1355Y785*
X1353Y767*
X1352Y752*
X1351Y742*
X1350Y734*
X1350Y729*
X1350Y728*
X1351Y727*
X1351Y726*
X1350Y727*
X1349Y727*
X1348Y729*
X1348Y733*
X1348Y737*
X1349Y742*
X1349Y749*
X1350Y758*
X1353Y790*
X1356Y820*
X1359Y848*
X1361Y873*
X1364Y895*
X1365Y913*
X1367Y926*
X1367Y933*
X1368Y939*
X1368Y944*
X1368Y948*
X1369Y951*
X1368Y954*
X1368Y956*
X1367Y957*
X1367*
X1372Y957*
X1373Y725D02*
X1371Y725D01*
X1371Y724*
X1371Y724*
X1371Y723*
X1371Y723*
X1373Y723*
X1375Y723*
X1376Y723*
X1376Y724*
X1375Y724*
X1375Y725*
X1373Y725*
X1375Y959D02*
X1375Y958D01*
X1377Y953*
X1378Y949*
X1379Y944*
X1379Y938*
X1378Y930*
X1378Y919*
X1378Y912*
X1380Y908*
X1383Y906*
X1385Y906*
X1389Y905*
X1398Y905*
X1407Y905*
X1410Y906*
X1411Y907*
X1413Y910*
X1414Y915*
X1414Y921*
X1413Y930*
X1413Y947*
X1416Y959*
X1416Y958*
X1417Y951*
X1417Y941*
X1418Y929*
X1420Y913*
X1421Y892*
X1423Y869*
X1425Y847*
X1427Y825*
X1428Y804*
X1430Y786*
X1431Y773*
X1432Y763*
X1433Y752*
X1433Y743*
X1434Y735*
Y735*
X1435Y721*
X1430Y721*
X1425Y721*
X1423Y722*
X1423Y722*
X1422Y722*
X1420Y722*
X1416Y723*
X1409Y723*
X1401Y724*
X1382Y726*
X1366Y728*
X1357Y728*
X1354Y729*
X1354Y729*
X1354Y730*
X1354Y732*
X1354Y740*
X1355Y746*
X1356Y754*
X1357Y763*
X1357Y772*
X1359Y788*
X1360Y802*
X1362Y814*
X1363Y827*
X1364Y841*
X1366Y855*
X1367Y872*
X1369Y892*
X1372Y916*
X1373Y936*
X1374Y943*
X1375Y950*
X1375Y954*
X1375Y956*
X1375Y959*
X1376Y985D02*
Y985D01*
X1372Y984*
X1371Y984*
X1371Y984*
X1371Y983*
X1372Y983*
X1374Y982*
X1376Y983*
X1377Y983*
X1377Y983*
Y983*
X1377Y983*
X1377Y984*
X1376Y984*
X1376Y985*
X1378Y814D02*
X1380Y814D01*
X1383Y812*
X1384Y811*
X1383Y811*
X1380Y812*
X1378Y813*
X1377Y814*
X1377Y814*
X1377*
X1378Y814*
Y816D02*
X1376Y815D01*
X1376Y814*
X1376Y813*
X1380Y810*
X1383Y809*
X1385Y809*
X1385Y810*
X1385Y811*
X1384Y813*
X1381Y815*
X1378Y816*
X1380Y845D02*
X1378Y842D01*
X1377Y837*
X1377Y834*
X1378Y832*
X1380Y829*
X1382Y827*
X1385Y824*
X1385Y823*
X1385Y823*
X1384Y824*
X1380Y825*
X1375Y830*
X1374Y835*
X1376Y840*
X1380Y845*
X1383Y782D02*
X1384Y780D01*
X1388Y777*
X1392Y775*
X1389Y776*
X1387Y776*
X1385Y778*
X1383Y780*
X1383Y782*
X1383Y986D02*
X1383Y986D01*
X1382Y985*
X1382Y985*
X1382Y984*
X1383Y984*
X1386Y984*
X1390Y984*
X1390Y984*
X1391Y985*
X1390Y985*
X1390Y986*
X1389Y986*
X1386Y986*
X1383Y986*
X1384Y806D02*
X1384Y806D01*
X1383Y805*
X1380Y803*
X1377Y801*
X1375Y799*
X1375Y800*
X1377Y802*
X1379Y804*
X1382Y806*
X1384Y806*
Y808D02*
X1381Y807D01*
X1378Y805*
X1376Y803*
X1374Y801*
X1373Y799*
X1373Y798*
X1373Y798*
X1374Y798*
X1374Y798*
X1375Y798*
X1377Y799*
X1381Y802*
X1384Y804*
X1385Y806*
X1385Y807*
X1384Y808*
Y884D02*
X1385Y882D01*
X1387Y879*
X1391Y876*
X1392Y876*
X1392*
X1388Y877*
X1386Y879*
X1384Y884*
X1384Y850D02*
X1384Y850D01*
Y850*
X1380Y847*
X1375Y842*
X1373Y835*
X1374Y829*
X1379Y824*
X1383Y822*
X1385Y822*
X1386Y822*
X1386Y823*
X1386Y825*
X1383Y828*
X1381Y830*
X1379Y832*
X1379Y834*
X1379Y837*
X1379Y842*
X1382Y845*
X1385Y849*
X1385Y849*
X1384Y850*
X1385Y893D02*
X1383Y890D01*
X1382Y886*
X1383Y882*
X1385Y878*
X1385Y878*
X1385Y878*
X1388Y876*
X1391Y875*
X1387Y875*
X1384Y876*
X1381Y878*
X1379Y881*
X1379Y884*
X1379Y887*
X1381Y891*
X1385Y893*
X1385Y724D02*
X1383Y723D01*
X1383Y723*
X1382Y723*
X1383Y722*
X1383Y722*
X1385Y721*
X1387Y722*
X1388Y722*
X1388Y723*
X1387Y723*
X1387Y723*
X1385Y724*
X1386Y793D02*
X1386Y793D01*
X1384Y790*
X1382Y788*
X1382Y789*
X1384Y791*
X1386Y793*
X1386Y893D02*
X1385Y891D01*
X1384Y888*
X1383Y886*
X1384Y890*
X1386Y893*
X1386Y893*
X1392Y848D02*
X1398Y847D01*
X1404Y843*
X1407Y838*
X1407Y833*
X1405Y830*
X1403Y827*
X1401Y825*
X1401Y824*
X1401Y824*
X1401Y824*
X1401Y823*
X1400Y823*
X1398Y823*
X1398Y823*
X1398Y824*
X1398Y824*
X1398Y825*
X1397Y825*
X1393Y826*
X1388Y828*
X1384Y830*
X1382Y833*
X1381Y838*
X1383Y843*
X1387Y847*
X1392Y848*
X1393Y851D02*
X1391Y851D01*
X1390Y851*
X1393Y851*
X1393Y896D02*
X1393Y896D01*
X1393Y895*
X1395Y894*
X1398Y893*
X1401Y891*
X1403Y888*
X1404Y885*
X1403Y880*
X1402Y878*
X1402Y877*
X1402Y877*
X1403Y877*
X1396Y875*
X1396Y876*
X1392Y878*
X1388Y880*
X1386Y882*
X1385Y884*
X1384Y886*
X1385Y888*
X1386Y890*
X1388Y895*
X1393Y896*
X1393Y875D02*
X1394D01*
X1394Y875*
X1393Y875*
X1395Y794D02*
X1401Y792D01*
X1403Y788*
X1401Y791*
X1395Y794*
X1395Y800D02*
X1389Y798D01*
X1382Y796*
X1378Y793*
X1376Y790*
X1374Y787*
X1374Y784*
X1374Y780*
X1375Y777*
X1377Y775*
X1380Y773*
X1383Y772*
X1385Y771*
X1388Y771*
X1393Y771*
X1398Y771*
X1403Y773*
X1407Y774*
X1410Y777*
X1412Y781*
X1413Y785*
X1413Y788*
X1411Y792*
X1409Y795*
X1405Y798*
X1401Y799*
X1395Y800*
X1395Y797D02*
X1391Y796D01*
X1388Y796*
X1385Y795*
X1382Y793*
X1378Y788*
X1377Y783*
X1378Y778*
X1384Y774*
X1393Y772*
X1402Y774*
X1407Y778*
X1410Y783*
X1410Y788*
X1407Y793*
X1405Y795*
X1403Y796*
X1400Y796*
X1395Y797*
Y798D02*
X1401Y798D01*
X1405Y797*
X1408Y794*
X1410Y792*
X1411Y788*
X1412Y785*
X1411Y781*
X1409Y778*
X1406Y775*
X1403Y774*
X1398Y773*
X1393Y772*
X1388Y772*
X1386Y772*
X1383Y773*
X1380Y774*
X1378Y776*
X1376Y778*
X1375Y781*
X1375Y784*
X1376Y787*
X1377Y790*
X1379Y792*
X1383Y795*
X1389Y797*
X1395Y798*
X1395Y896D02*
X1396D01*
X1399Y895*
X1402Y893*
X1405Y890*
X1405Y888*
X1405Y885*
X1405Y885*
X1405Y881*
X1404Y879*
X1404Y880*
X1405Y885*
X1405Y888*
X1402Y892*
X1398Y894*
X1395Y896*
X1396Y898D02*
X1388Y896D01*
X1387Y896*
X1387Y896*
X1381Y893*
X1378Y888*
X1377Y884*
X1378Y881*
X1380Y877*
X1383Y875*
X1388Y874*
X1394Y873*
X1400Y874*
X1405Y876*
X1408Y879*
X1410Y882*
X1411Y885*
X1411Y889*
X1409Y893*
X1406Y895*
X1402Y897*
X1396Y898*
X1397Y987D02*
X1397Y987D01*
X1396Y987*
X1396Y986*
X1396Y986*
X1397Y985*
X1399Y985*
X1402Y985*
X1403Y986*
X1403Y986*
X1403Y987*
X1402Y987*
X1402Y987*
X1397*
X1397Y852D02*
X1393Y852D01*
X1389Y852*
X1386Y851*
X1386Y851*
X1385Y850*
X1386Y850*
X1386Y849*
X1387Y849*
X1389Y849*
X1385Y847*
X1382Y844*
X1380Y838*
X1381Y832*
X1383Y829*
X1388Y826*
X1395Y824*
X1394Y823*
X1388Y823*
X1388*
Y823*
X1388*
X1388Y821*
X1388*
X1394Y821*
X1397Y821*
X1401Y822*
Y822*
X1402Y822*
X1403Y823*
X1403Y823*
X1403Y824*
X1403Y824*
X1402Y825*
X1404Y826*
X1406Y829*
X1408Y833*
X1408Y838*
X1404Y844*
X1399Y848*
X1393Y850*
X1396Y850*
X1397Y850*
X1398Y850*
X1398Y851*
X1399Y851*
X1399Y852*
X1398Y852*
X1397Y852*
X1397Y853D02*
X1404Y852D01*
X1409Y850*
X1412Y847*
X1414Y844*
X1416Y840*
X1416Y836*
X1415Y832*
X1412Y828*
X1409Y825*
X1405Y823*
X1400Y821*
X1395Y820*
X1390Y820*
X1385Y821*
X1378Y823*
X1374Y827*
X1372Y832*
X1372Y838*
X1373Y841*
X1377Y845*
X1381Y849*
X1385Y851*
X1391Y852*
X1397Y853*
X1397Y854D02*
X1390Y854D01*
X1385Y852*
X1380Y850*
X1376Y846*
X1372Y842*
X1370Y838*
X1370Y832*
X1373Y826*
X1378Y822*
X1385Y820*
X1389Y819*
X1395Y819*
X1401Y820*
X1406Y821*
X1410Y824*
X1414Y827*
X1416Y831*
X1417Y836*
X1417Y840*
X1416Y844*
X1413Y848*
X1409Y851*
X1404Y853*
X1397Y854*
Y899D02*
X1403Y898D01*
X1406Y897*
X1409Y895*
X1411Y892*
X1413Y888*
X1413Y884*
X1412Y881*
X1410Y878*
X1404Y874*
X1396Y872*
X1389Y872*
X1382Y874*
X1380Y876*
X1378Y878*
X1377Y881*
X1376Y885*
X1378Y891*
X1382Y895*
X1389Y898*
X1397Y899*
Y900D02*
X1388Y899D01*
X1381Y896*
X1377Y891*
X1375Y885*
X1376Y881*
X1377Y878*
X1379Y875*
X1382Y873*
X1388Y871*
X1396Y871*
X1404Y873*
X1411Y877*
X1413Y880*
X1414Y884*
X1414Y888*
X1413Y892*
X1410Y896*
X1407Y898*
X1403Y900*
X1397Y900*
X1398Y795D02*
X1401Y795D01*
X1403Y795*
X1404Y794*
X1406Y792*
X1409Y787*
X1409Y783*
X1407Y780*
X1404Y778*
X1405Y781*
X1405Y783*
X1405Y783*
X1405Y784*
X1404*
X1404Y783*
X1403Y783*
X1403Y781*
X1401Y779*
X1400Y777*
X1399Y777*
X1399Y776*
X1399Y775*
X1400Y775*
X1396Y774*
X1396Y775*
X1396Y775*
X1392Y776*
X1388Y778*
X1385Y781*
X1383Y784*
X1382Y785*
X1381Y785*
X1381Y785*
X1380Y784*
X1381Y782*
X1382Y780*
X1386Y776*
Y776*
X1386Y775*
X1388Y774*
X1391Y774*
X1384Y775*
X1380Y778*
X1378Y783*
X1379Y788*
X1383Y792*
X1384Y793*
X1383Y792*
X1381Y789*
X1380Y787*
X1381Y786*
X1381Y786*
X1382Y786*
X1385Y789*
X1387Y792*
X1387Y793*
X1387Y794*
X1387Y794*
X1388Y795*
X1388Y794*
X1393Y793*
X1397Y792*
X1400Y790*
X1402Y788*
X1403Y786*
X1403Y785*
X1403Y785*
X1404Y785*
X1404Y785*
X1404Y785*
X1405Y785*
X1405Y787*
X1404Y790*
X1402Y793*
X1398Y795*
X1399Y722D02*
Y722D01*
X1396Y722*
X1395Y722*
X1395Y721*
X1395Y721*
X1395Y720*
X1397Y720*
X1400Y720*
X1400Y720*
X1400Y720*
Y721*
X1401Y721*
X1400Y722*
X1400Y722*
X1399Y722*
X1400Y896D02*
X1406Y894D01*
X1408Y892*
X1410Y888*
X1409Y882*
X1405Y878*
X1406Y881*
X1407Y885*
X1406Y888*
X1406Y891*
X1403Y894*
X1400Y896*
X1401Y850D02*
X1401D01*
X1406Y849*
X1409Y846*
X1412Y842*
X1413Y838*
X1412Y834*
X1409Y830*
X1411Y835*
X1410Y841*
X1407Y845*
X1403Y849*
X1401Y850*
X1401Y851D02*
X1400Y851D01*
X1399Y851*
X1399Y850*
X1399Y850*
X1400Y849*
X1400Y849*
X1402Y848*
X1406Y844*
X1409Y839*
X1409Y833*
X1407Y828*
X1406Y826*
X1405Y826*
X1405Y825*
X1406Y825*
X1406Y825*
X1408Y826*
X1410Y828*
X1413Y833*
X1414Y838*
X1413Y842*
X1410Y847*
X1406Y850*
X1401Y851*
X1404Y781D02*
X1403Y778D01*
X1401Y777*
X1402Y778*
X1404Y781*
X1404Y806D02*
X1407Y806D01*
X1410Y804*
X1413Y801*
X1414Y798*
X1415Y795*
X1414Y796*
X1409Y801*
X1405Y804*
X1404Y806*
X1404Y806*
X1404Y806*
Y808D02*
X1403Y807D01*
X1402Y806*
X1403Y805*
X1404Y803*
X1408Y800*
X1413Y795*
X1414Y794*
X1415Y794*
X1415Y793*
X1416Y793*
X1416Y794*
X1417Y794*
X1416Y795*
X1416Y798*
X1414Y802*
X1411Y805*
X1408Y807*
X1404Y808*
X1408Y977D02*
X1396Y976D01*
X1387Y974*
X1380Y973*
X1375Y971*
X1372Y969*
X1372Y968*
X1373Y967*
X1375Y967*
X1380Y967*
X1386Y969*
X1390Y969*
X1395Y970*
X1400Y970*
X1405Y971*
X1414Y971*
X1419Y972*
X1421Y974*
X1422Y974*
X1422Y975*
X1422Y975*
X1420Y976*
X1416Y976*
X1413Y977*
X1408Y977*
X1408Y975D02*
X1413Y975D01*
X1416Y975*
X1420Y974*
X1420Y974*
X1419Y974*
X1417Y973*
X1414Y972*
X1405Y972*
X1400Y972*
X1395Y971*
X1390Y971*
X1386Y970*
X1380Y968*
X1375Y968*
X1373Y968*
X1373Y968*
X1373Y968*
X1375Y970*
X1380Y972*
X1387Y973*
X1396Y974*
X1408Y975*
X1410Y721D02*
X1408Y721D01*
X1408Y720*
X1407Y720*
X1407Y719*
X1408Y719*
X1410Y719*
X1412Y719*
X1412Y719*
X1413Y720*
X1412Y720*
X1412Y721*
X1410Y721*
Y989D02*
X1408Y988D01*
X1408Y988*
X1407Y988*
X1407Y987*
X1408Y987*
X1410Y986*
X1412Y987*
X1412Y987*
X1413Y988*
X1412Y988*
X1412Y988*
X1410Y989*
X1414Y817D02*
X1414D01*
X1414Y816*
X1412Y814*
X1408Y811*
X1405Y810*
X1404Y810*
X1403Y810*
X1404Y811*
X1406Y813*
X1409Y815*
X1412Y816*
X1414Y817*
X1414Y818D02*
X1412Y818D01*
X1409Y816*
X1405Y814*
X1403Y812*
X1402Y811*
X1402Y810*
X1402Y810*
X1403Y809*
X1405Y809*
X1409Y810*
X1413Y813*
X1415Y815*
X1415Y817*
X1414Y818*
X1417Y816D02*
X1417D01*
X1419Y815*
X1420Y812*
X1421Y806*
X1421Y801*
X1421Y800*
X1421Y800*
X1420Y800*
X1420Y802*
X1419Y806*
X1418Y811*
X1417Y814*
X1417Y816*
X1417Y816*
X1417Y778D02*
X1417Y776D01*
X1415Y772*
X1414Y769*
X1411Y767*
X1406Y764*
X1393Y762*
X1380Y765*
X1375Y768*
X1373Y771*
X1372Y774*
X1372Y774*
X1372Y774*
X1375Y772*
X1385Y766*
X1395Y765*
X1405Y767*
X1413Y774*
X1417Y778*
X1417Y818D02*
X1416Y817D01*
X1416Y817*
X1415Y814*
X1416Y810*
X1418Y806*
X1418Y802*
X1419Y800*
X1421Y799*
X1421Y799*
X1422Y800*
X1422Y801*
X1422Y806*
X1421Y812*
X1420Y816*
X1417Y818*
X1419Y782D02*
X1418Y781D01*
X1412Y775*
X1404Y768*
X1395Y766*
X1385Y767*
X1376Y773*
X1373Y775*
X1372Y776*
X1371*
X1370Y775*
X1370Y774*
X1372Y770*
X1375Y767*
X1379Y763*
X1393Y760*
X1407Y763*
X1411Y766*
X1415Y768*
X1417Y771*
X1418Y775*
X1419Y780*
X1419Y782*
X1419Y990D02*
X1419Y990D01*
X1418Y989*
X1418Y989*
X1419Y988*
X1419Y988*
X1422Y988*
X1424Y988*
X1425Y988*
X1425Y989*
X1425Y989*
X1425Y990*
X1424Y990*
X1419*
X1420Y970D02*
X1420Y969D01*
X1417Y964*
X1414Y958*
X1412Y950*
X1412Y941*
X1412Y930*
X1413Y921*
X1412Y915*
X1412Y910*
X1410Y908*
X1409Y907*
X1406Y907*
X1398Y906*
X1389Y906*
X1385Y907*
X1383Y907*
X1381Y909*
X1380Y912*
X1379Y919*
X1380Y930*
X1380Y938*
X1380Y944*
X1380Y949*
X1378Y953*
X1376Y958*
X1376Y960*
X1375Y962*
X1374Y963*
X1374Y964*
X1374Y965*
X1374*
X1376Y964*
X1378Y961*
X1380Y958*
X1381Y955*
X1382Y950*
X1382Y944*
X1382Y933*
X1382Y925*
X1382Y919*
X1382Y915*
X1383Y912*
X1385Y910*
X1388Y909*
X1392Y909*
X1396Y909*
X1401Y909*
X1404Y909*
X1407Y910*
X1409Y912*
X1410Y915*
X1410Y920*
X1410Y926*
X1410Y934*
X1409Y941*
X1410Y948*
X1410Y953*
X1411Y958*
X1413Y964*
X1417Y968*
X1420Y970*
X1420Y970*
X1422Y777D02*
X1421Y777D01*
X1420Y774*
X1420Y769*
X1421Y763*
X1422Y755*
X1422Y747*
X1422Y743*
X1422Y741*
X1420Y737*
X1418Y736*
X1415Y736*
X1413Y736*
X1409Y736*
X1405Y736*
X1398Y737*
X1391Y737*
X1383Y738*
X1378Y739*
X1374Y740*
X1369Y742*
X1367Y746*
X1366Y753*
X1367Y762*
X1368Y768*
X1368Y771*
X1367Y773*
X1366Y773*
X1365Y773*
X1364Y771*
X1364Y768*
X1362Y761*
X1361Y754*
X1361Y747*
X1362Y742*
X1364Y738*
X1368Y736*
X1375Y734*
X1385Y732*
X1392Y732*
X1399Y731*
X1406Y731*
X1411Y730*
X1416Y730*
X1420Y731*
X1423Y732*
X1425Y733*
X1427Y738*
X1428Y745*
X1427Y754*
X1426Y763*
X1425Y771*
X1424Y776*
X1423Y777*
X1422Y777*
X1422Y776D02*
X1422Y775D01*
X1423Y774*
X1424Y771*
X1425Y763*
X1426Y754*
X1426Y745*
X1426Y738*
X1424Y734*
X1422Y733*
X1419Y732*
X1416Y732*
X1411Y732*
X1406Y732*
X1399Y732*
X1392Y733*
X1385Y734*
X1375Y735*
X1369Y737*
X1365Y739*
X1363Y743*
X1362Y747*
X1363Y754*
X1363Y761*
X1365Y768*
X1366Y771*
X1366Y771*
X1366Y771*
X1367Y768*
X1366Y762*
X1365Y753*
X1365Y746*
X1369Y741*
X1374Y738*
X1378Y738*
X1383Y737*
X1390Y736*
X1398Y735*
X1404Y735*
X1409Y734*
X1413Y734*
X1415Y734*
X1419Y735*
X1421Y736*
X1423Y740*
X1424Y743*
X1424Y747*
X1423Y755*
X1422Y763*
X1422Y769*
X1422Y773*
X1422Y776*
X1423Y720D02*
X1421Y719D01*
X1421Y719*
X1420Y718*
X1420Y718*
X1421Y717*
X1422Y717*
X1424Y717*
X1425Y718*
X1425Y719*
X1425*
Y719*
X1424Y719*
X1423Y720*
X1431Y991D02*
X1431Y991D01*
X1430Y990*
X1430Y990*
X1430Y990*
X1431Y989*
X1434Y989*
X1436Y989*
X1437Y990*
X1437Y990*
X1437Y990*
X1437Y991*
X1436Y991*
X1431*
X1439Y964D02*
X1437Y963D01*
X1436Y963*
X1436Y962*
X1436Y962*
X1437Y961*
X1438Y961*
X1440Y962*
X1440Y962*
X1440Y963*
X1440*
Y963*
X1440Y963*
X1439Y964*
X1445Y993D02*
X1443Y992D01*
X1443Y992*
X1443Y992*
X1443Y991*
X1443Y991*
X1445Y990*
X1447Y991*
X1448Y991*
X1448Y992*
X1448Y992*
X1447Y992*
X1445Y993*
X1451Y965D02*
Y965D01*
X1446*
X1446Y965*
X1445Y964*
X1445Y964*
X1445Y963*
X1446Y963*
X1449Y963*
X1452Y963*
X1452Y963*
X1453Y963*
X1453Y964*
X1453Y964*
X1452Y965*
X1452Y965*
X1451Y965*
X1456Y994D02*
X1456Y993D01*
X1455Y993*
X1455Y993*
X1455Y992*
X1456Y992*
X1458Y992*
X1461Y992*
X1462Y992*
X1462Y993*
X1462Y993*
X1461Y993*
X1461Y994*
X1456*
X1463Y966D02*
X1462Y966D01*
X1462Y966*
X1462Y965*
X1462Y965*
X1462Y964*
X1465Y964*
X1468Y964*
X1468Y965*
X1469Y965*
X1468Y966*
X1468Y966*
X1468Y966*
X1463*
X1471Y995D02*
X1470Y995D01*
X1470Y995*
X1470Y994*
X1470Y994*
X1470Y993*
X1471Y993*
X1476Y993*
X1480Y993*
X1481Y993*
X1481Y994*
X1481Y994*
X1481Y995*
X1481Y995*
X1480Y995*
X1476Y995*
X1471Y995*
X1510Y966D02*
X1509Y966D01*
X1509Y966*
X1509Y965*
X1509Y965*
X1510Y964*
X1512Y964*
X1515Y964*
X1516Y965*
X1516Y965*
X1516Y966*
X1515Y966*
X1515Y966*
X1510*
X1515Y919D02*
X1515Y916D01*
X1517Y912*
X1521Y905*
X1525Y899*
X1529Y891*
X1534Y882*
X1539Y872*
X1544Y861*
X1549Y851*
X1553Y842*
X1556Y835*
X1563Y813*
X1568Y791*
X1570Y769*
X1570Y746*
X1569Y727*
X1566Y709*
X1561Y690*
X1554Y671*
X1543Y648*
X1529Y628*
X1542Y648*
X1553Y671*
X1561Y697*
X1567Y724*
X1569Y745*
X1568Y767*
X1566Y790*
X1561Y812*
X1558Y823*
X1553Y835*
X1547Y849*
X1541Y863*
X1534Y877*
X1527Y890*
X1520Y903*
X1513Y914*
X1513Y916*
X1512Y917*
X1513Y918*
X1515Y919*
X1516Y995D02*
X1514Y995D01*
X1514Y995*
X1514Y994*
X1514Y993*
X1514Y993*
X1516Y993*
X1518Y993*
X1519Y993*
X1519Y994*
X1519Y995*
X1518Y995*
X1516Y995*
X1517Y922D02*
X1516Y922D01*
X1514Y920*
X1512Y919*
X1511Y917*
X1511Y915*
X1512Y914*
X1519Y902*
X1526Y890*
X1533Y876*
X1540Y862*
X1546Y848*
X1552Y835*
X1556Y823*
X1560Y812*
X1564Y790*
X1567Y767*
X1567Y745*
X1566Y724*
X1559Y693*
X1549Y664*
X1535Y638*
X1518Y617*
X1511Y609*
X1510Y608*
X1511Y608*
X1518Y603*
X1523Y599*
X1528Y598*
X1530Y598*
X1530Y598*
X1531Y598*
X1531Y599*
X1531Y599*
X1530Y600*
X1529Y600*
X1525Y602*
X1521Y604*
X1517Y607*
X1516Y609*
X1516Y609*
X1516Y609*
X1516Y610*
X1517Y612*
X1522Y617*
X1532Y630*
X1541Y642*
X1549Y655*
X1555Y670*
X1562Y690*
X1567Y708*
X1570Y726*
X1572Y746*
X1571Y769*
X1569Y791*
X1564Y813*
X1557Y836*
X1554Y843*
X1550Y852*
X1546Y862*
X1540Y872*
X1535Y882*
X1530Y892*
X1526Y900*
X1522Y906*
X1518Y913*
X1516Y917*
X1516Y919*
X1517Y921*
X1517Y921*
X1518Y922*
X1518Y922*
X1517Y922*
X1517Y922*
X1517Y614D02*
X1516Y613D01*
X1515Y611*
X1514Y610*
X1514Y609*
X1515Y608*
X1516Y607*
X1520Y603*
X1526Y600*
X1524Y601*
X1518Y604*
X1512Y608*
X1517Y614*
X1529Y965D02*
X1528Y965D01*
X1527Y964*
X1527Y964*
X1527Y963*
X1528Y963*
X1529Y963*
X1530Y963*
X1531Y964*
X1531Y964*
X1531*
Y964*
X1531Y964*
X1529Y965*
X1542Y988D02*
X1543D01*
X1543Y987*
X1544Y984*
X1543Y979*
X1542Y972*
X1540Y967*
X1539Y965*
X1539Y965*
X1539Y965*
X1539Y965*
X1539Y966*
X1540Y970*
X1541Y977*
X1542Y984*
X1542Y988*
X1542Y988*
X1543Y990D02*
X1542Y989D01*
X1541Y988*
X1541Y986*
X1541Y984*
X1540Y977*
X1539Y971*
X1538Y966*
X1537Y965*
Y964*
X1538Y963*
X1538Y963*
X1539Y963*
X1541Y965*
X1542Y966*
X1543Y972*
X1544Y979*
X1545Y984*
X1545Y988*
X1543Y990*
X1549Y613D02*
X1549Y613D01*
X1548Y613*
X1547Y612*
X1545Y611*
X1545Y610*
X1545Y610*
X1544Y609*
X1545Y609*
X1545Y608*
X1546Y609*
X1548Y611*
X1549Y612*
X1550Y612*
X1550Y613*
Y613*
X1550Y613*
X1549Y613*
X1549*
X1554Y872D02*
X1553Y872D01*
X1553Y871*
X1553Y870*
X1554Y867*
X1556Y864*
X1557Y863*
X1557Y863*
X1558Y863*
X1559Y864*
X1558Y866*
X1557Y868*
X1556Y871*
X1555Y872*
X1554Y872*
X1555Y870D02*
X1555Y870D01*
X1556Y868*
X1557Y865*
X1556Y868*
X1555Y870*
X1557Y877D02*
X1556Y876D01*
X1556Y875*
X1558Y872*
X1561Y869*
X1561Y866*
X1561Y864*
X1561Y863*
X1562Y863*
X1563Y863*
X1564Y864*
X1565Y867*
X1564Y871*
X1562Y874*
X1559Y876*
X1558Y877*
X1557Y877*
X1557Y876D02*
X1558Y875D01*
X1561Y873*
X1563Y870*
X1563Y867*
X1562Y865*
X1562Y864*
X1562Y864*
X1562Y866*
X1562Y869*
X1559Y873*
X1557Y876*
X1557Y876*
X1562Y901D02*
X1560Y896D01*
X1561Y891*
X1563Y887*
X1566Y884*
X1562Y885*
X1558Y888*
X1558Y891*
X1558Y894*
X1559Y897*
X1561Y900*
X1562Y901*
X1570Y938D02*
X1575Y938D01*
X1580Y936*
X1583Y932*
X1586Y927*
X1588Y921*
X1589Y917*
X1588Y916*
X1587Y915*
X1584Y914*
X1577Y914*
X1567Y913*
X1561Y911*
X1556Y906*
X1552Y900*
X1549Y895*
X1548Y893*
X1548Y893*
X1548Y893*
X1547Y895*
X1546Y898*
X1547Y899*
X1548Y902*
X1551Y907*
X1555Y911*
X1559Y914*
X1564Y917*
X1569Y918*
X1575Y918*
X1580Y918*
X1583Y920*
X1583Y923*
X1582Y927*
X1579Y931*
X1576Y934*
X1572Y935*
X1569Y935*
X1566Y933*
X1562Y931*
X1557Y928*
X1552Y925*
X1543Y920*
X1540Y917*
X1538Y915*
X1536Y913*
X1536Y909*
X1537Y906*
X1540Y901*
X1542Y898*
X1543Y894*
X1544Y891*
X1543Y892*
X1540Y895*
X1535Y904*
X1533Y912*
X1533Y916*
X1537Y919*
X1539Y922*
X1543Y924*
X1547Y927*
X1553Y930*
X1558Y934*
X1563Y936*
X1567Y938*
X1570Y938*
X1571Y904D02*
X1571Y903D01*
X1571Y903*
X1575Y902*
X1578Y900*
X1581Y897*
X1582Y895*
Y896*
X1583Y895*
X1584Y894*
X1584Y895*
X1585Y896*
X1584Y899*
X1582Y902*
X1579Y904*
X1581Y904*
X1586Y901*
X1588Y897*
X1588Y892*
X1585Y888*
X1585Y888*
X1585Y889*
X1585Y893*
X1584Y893*
X1582Y890*
X1581Y887*
X1581Y886*
X1581Y886*
X1580Y886*
X1578Y886*
X1577Y885*
X1577Y884*
X1577Y884*
X1575Y884*
X1571Y886*
X1566Y888*
X1563Y892*
X1563Y895*
X1565Y899*
X1566Y902*
X1566Y903*
X1566Y903*
X1567Y904*
X1571Y904*
X1571Y906D02*
X1566Y905D01*
X1565Y904*
X1565Y904*
X1565Y903*
X1565*
X1565Y902*
X1564Y900*
X1562Y896*
X1563Y900*
X1564Y902*
X1564Y902*
X1564Y903*
X1563Y903*
X1562Y903*
X1562Y903*
X1560Y901*
X1558Y898*
X1556Y894*
X1556Y890*
X1557Y887*
X1562Y884*
X1567Y883*
X1568Y883*
X1569Y883*
X1569Y883*
X1569Y884*
X1569Y884*
X1568Y884*
X1567Y885*
X1564Y887*
X1562Y891*
X1562Y892*
X1562Y891*
X1565Y887*
X1570Y885*
X1574Y883*
X1577Y883*
X1578Y883*
X1579Y885*
X1579Y885*
X1580Y885*
X1581Y884*
X1582Y885*
X1582Y886*
X1582Y886*
X1582Y887*
X1583Y889*
X1583Y890*
X1583Y889*
X1583Y887*
X1583Y887*
X1584Y886*
X1584Y886*
X1585Y886*
X1586Y887*
X1589Y892*
X1589Y897*
X1586Y902*
X1581Y905*
X1577Y906*
X1571*
X1571Y634D02*
X1571Y634D01*
X1571Y634*
X1570Y634*
X1568Y632*
X1565Y629*
X1561Y625*
X1558Y622*
X1555Y619*
X1553Y617*
X1553Y616*
X1552Y616*
X1552Y615*
X1553Y615*
X1554Y615*
X1554Y615*
X1554Y616*
X1557Y618*
X1560Y621*
X1563Y624*
X1567Y628*
X1570Y631*
X1571Y633*
X1572Y633*
X1572Y634*
Y634*
X1571Y634*
X1573Y909D02*
X1564Y907D01*
X1557Y903*
X1554Y899*
X1554Y893*
X1554Y888*
X1556Y884*
X1559Y882*
X1564Y880*
X1568Y879*
X1573Y880*
X1578Y881*
X1584Y882*
X1590Y886*
X1592Y892*
X1592Y899*
X1588Y905*
X1585Y907*
X1582Y908*
X1577Y909*
X1573*
X1573Y907D02*
X1577Y907D01*
X1581Y907*
X1585Y905*
X1587Y904*
X1591Y898*
X1591Y892*
X1589Y887*
X1583Y883*
X1578Y882*
X1573Y881*
X1568Y881*
X1564Y881*
X1560Y883*
X1557Y885*
X1555Y888*
X1555Y893*
X1556Y898*
X1558Y902*
X1558Y902*
X1564Y905*
X1573Y907*
Y940D02*
X1570Y940D01*
X1566Y939*
X1562Y937*
X1558Y935*
X1552Y932*
X1547Y928*
X1542Y925*
X1538Y923*
X1536Y920*
X1532Y916*
X1531Y912*
X1533Y903*
X1539Y894*
X1543Y891*
X1544Y890*
X1544Y889*
X1544Y889*
X1545Y889*
X1545Y889*
X1546Y890*
Y891*
X1545Y894*
X1543Y898*
X1541Y902*
X1538Y906*
X1537Y910*
X1538Y912*
X1539Y915*
X1541Y916*
X1544Y919*
X1553Y924*
X1558Y927*
X1562Y930*
X1566Y932*
X1569Y934*
X1572Y934*
X1575Y933*
X1578Y930*
X1581Y927*
X1582Y923*
X1582Y921*
X1580Y920*
X1575Y919*
X1569Y919*
X1563Y918*
X1559Y915*
X1554Y912*
X1550Y907*
X1547Y903*
X1545Y900*
X1545Y898*
X1546Y894*
X1547Y892*
X1548Y892*
X1549Y892*
X1550Y894*
X1553Y899*
X1557Y906*
X1561Y909*
X1568Y912*
X1577Y913*
X1584Y913*
X1588Y914*
X1589Y915*
X1590Y917*
X1590Y921*
X1587Y927*
X1584Y933*
X1581Y937*
X1577Y939*
X1573Y940*
X1574Y858D02*
X1572Y853D01*
X1573Y847*
X1577Y842*
X1582Y839*
X1577Y841*
X1573Y843*
X1571Y845*
X1570Y849*
X1570Y852*
X1574Y858*
X1575Y903D02*
X1578Y903D01*
X1581Y901*
X1583Y898*
X1584Y896*
X1584Y896*
X1582Y898*
X1581Y900*
Y899*
X1578Y902*
X1575Y903*
X1577Y863D02*
X1576Y863D01*
X1575Y862*
X1573Y860*
X1570Y856*
X1568Y852*
X1570Y845*
X1572Y842*
X1576Y839*
X1581Y837*
X1584Y837*
X1585Y837*
X1586Y837*
X1585Y838*
X1585Y838*
X1583Y840*
X1577Y843*
X1574Y849*
X1574Y854*
X1576Y860*
X1577Y861*
X1577Y862*
X1577Y862*
X1577Y863*
X1577Y953D02*
X1578Y952D01*
X1580Y949*
X1583Y944*
X1587Y938*
X1600Y912*
X1611Y886*
X1620Y859*
X1627Y830*
X1628Y822*
X1628Y814*
X1629Y803*
X1629Y789*
X1629Y774*
X1628Y764*
X1627Y756*
X1625Y747*
X1619Y726*
X1610Y706*
X1601Y686*
X1590Y667*
X1578Y650*
X1565Y634*
X1552Y620*
X1538Y608*
X1532Y604*
X1530Y603*
X1530Y603*
X1530Y603*
X1529Y603*
X1528Y604*
X1524Y606*
X1519Y610*
X1526Y617*
X1541Y636*
X1554Y659*
X1564Y685*
X1572Y714*
X1573Y723*
X1574Y731*
X1575Y741*
X1575Y754*
X1574Y774*
X1572Y792*
X1568Y811*
X1562Y831*
X1559Y840*
X1554Y850*
X1549Y861*
X1544Y872*
X1539Y883*
X1533Y893*
X1528Y902*
X1523Y910*
X1520Y915*
X1519Y917*
X1518Y918*
X1519Y918*
X1520Y919*
X1523Y921*
X1527Y924*
X1536Y929*
X1547Y936*
X1558Y942*
X1568Y948*
X1574Y952*
X1577Y953*
X1577Y953*
X1577Y955D02*
X1577Y955D01*
X1576Y954*
X1574Y953*
X1567Y949*
X1557Y944*
X1546Y937*
X1536Y931*
X1526Y925*
X1520Y921*
X1518Y919*
X1517Y919*
X1517Y919*
X1517Y918*
X1517Y918*
X1517Y917*
X1519Y915*
X1522Y909*
X1527Y902*
X1532Y893*
X1537Y883*
X1543Y872*
X1548Y860*
X1553Y849*
X1557Y839*
X1561Y830*
X1567Y810*
X1571Y792*
X1573Y774*
X1574Y754*
X1574Y741*
X1573Y732*
X1572Y723*
X1570Y714*
X1563Y686*
X1553Y660*
X1540Y637*
X1525Y618*
X1517Y610*
X1517Y609*
X1517Y609*
X1523Y605*
X1527Y603*
X1529Y602*
X1530Y602*
X1530Y602*
X1531Y602*
X1533Y603*
X1538Y607*
X1553Y619*
X1566Y633*
X1579Y649*
X1591Y666*
X1602Y685*
X1612Y705*
X1620Y726*
X1626Y747*
X1628Y756*
X1630Y763*
X1630Y774*
X1630Y789*
X1630Y803*
X1630Y814*
X1629Y822*
X1628Y830*
X1621Y859*
X1613Y886*
X1602Y913*
X1588Y938*
X1584Y945*
X1581Y950*
X1579Y953*
X1578Y954*
X1578Y954*
X1578Y955*
X1577Y955*
X1579Y644D02*
X1579Y644D01*
X1578Y643*
X1577Y643*
X1575Y640*
X1573Y638*
X1572Y637*
X1572Y636*
X1572Y636*
X1573Y636*
X1573Y636*
X1574Y636*
X1575Y637*
X1577Y639*
X1579Y642*
X1580Y642*
X1580Y643*
X1580Y643*
X1579Y644*
X1581Y957D02*
X1581Y957D01*
X1582Y956*
X1584Y954*
X1587Y949*
X1591Y943*
X1599Y930*
X1606Y915*
X1619Y886*
X1628Y857*
X1633Y828*
X1636Y798*
X1636Y787*
X1636Y779*
X1636Y771*
X1634Y764*
X1629Y739*
X1620Y713*
X1608Y688*
X1592Y662*
X1592Y662*
X1604Y683*
X1615Y706*
X1624Y729*
X1630Y750*
X1633Y769*
X1634Y790*
X1633Y813*
X1630Y837*
X1622Y867*
X1612Y897*
X1598Y927*
X1581Y955*
X1581Y957*
X1580Y957*
X1581Y957*
Y959D02*
X1580Y958D01*
X1579Y957*
X1579Y956*
X1580Y955*
X1597Y926*
X1611Y897*
X1621Y867*
X1628Y837*
X1632Y813*
X1633Y790*
X1632Y769*
X1629Y750*
X1623Y729*
X1614Y706*
X1603Y683*
X1591Y662*
X1588Y657*
X1585Y654*
X1584Y651*
X1584Y650*
X1584Y650*
X1584Y650*
X1584Y649*
X1585Y650*
X1585Y650*
X1586Y651*
X1588Y653*
X1593Y661*
X1593Y661*
X1609Y687*
X1621Y713*
X1630Y738*
X1636Y763*
X1637Y771*
X1637Y779*
X1637Y787*
X1637Y798*
X1635Y828*
X1629Y858*
X1620Y886*
X1608Y916*
X1600Y930*
X1592Y944*
X1588Y950*
X1585Y954*
X1583Y957*
X1582Y958*
X1581Y959*
X1582Y1023D02*
X1581Y1022D01*
X1580Y1020*
X1580Y1018*
X1581Y1015*
X1582Y1014*
X1583Y1014*
X1585Y1015*
X1585Y1017*
X1584Y1021*
X1582Y1023*
X1582Y1023*
X1582Y1022D02*
X1582Y1021D01*
X1583Y1021*
X1584Y1017*
X1584Y1015*
X1583Y1015*
X1583Y1015*
X1583Y1016*
X1582Y1018*
X1581Y1020*
X1582Y1021*
X1582Y1022*
X1582Y961D02*
X1584Y960D01*
X1586Y958*
X1589Y953*
X1607Y922*
X1621Y890*
X1631Y857*
X1638Y821*
X1639Y806*
X1639Y788*
X1638Y770*
X1636Y756*
X1631Y734*
X1623Y711*
X1612Y689*
X1600Y668*
X1586Y648*
X1571Y630*
X1556Y615*
X1539Y602*
X1532Y598*
X1527Y597*
X1522Y598*
X1516Y601*
X1511Y605*
X1510Y607*
X1509Y608*
X1510Y609*
X1511Y611*
X1516Y617*
X1527Y630*
X1537Y645*
X1545Y661*
X1552Y678*
X1558Y696*
X1562Y715*
X1565Y734*
X1566Y753*
X1565Y775*
X1561Y797*
X1555Y819*
X1547Y842*
X1538Y862*
X1528Y882*
X1519Y899*
X1511Y911*
X1510Y914*
X1509Y917*
X1510Y919*
X1512Y922*
X1518Y925*
X1527Y931*
X1537Y937*
X1549Y944*
X1560Y950*
X1570Y955*
X1577Y959*
X1579Y960*
X1580Y961*
X1582Y961*
X1583Y962D02*
X1580Y962D01*
X1579Y961*
X1576Y960*
X1569Y957*
X1559Y951*
X1548Y945*
X1537Y938*
X1526Y932*
X1517Y926*
X1512Y923*
X1509Y920*
X1508Y917*
X1508Y914*
X1510Y910*
X1517Y899*
X1527Y881*
X1537Y861*
X1546Y842*
X1554Y819*
X1560Y797*
X1563Y775*
X1564Y753*
X1564Y734*
X1561Y715*
X1557Y696*
X1551Y678*
X1544Y661*
X1535Y645*
X1526Y631*
X1515Y618*
X1510Y612*
X1508Y610*
X1508Y608*
X1508Y606*
X1510Y604*
X1515Y600*
X1521Y596*
X1527Y595*
X1533Y597*
X1540Y601*
X1557Y614*
X1572Y629*
X1587Y647*
X1601Y667*
X1613Y689*
X1624Y711*
X1632Y733*
X1638Y756*
X1640Y770*
X1641Y788*
X1640Y806*
X1639Y822*
X1632Y857*
X1622Y890*
X1608Y923*
X1590Y954*
X1587Y959*
X1585Y961*
X1583Y962*
X1583Y649D02*
X1583Y649D01*
X1582Y649*
X1581Y648*
X1579Y645*
X1579Y644*
X1579Y644*
X1580Y644*
X1580Y644*
X1580Y644*
X1581Y645*
X1583Y646*
X1583Y647*
X1584Y648*
X1584Y648*
Y648*
X1584Y649*
X1583Y649*
X1583*
X1584Y1070D02*
X1585Y1070D01*
X1585Y1070*
X1584Y1068*
X1583Y1067*
X1583Y1064*
X1583Y1061*
X1583Y1061*
X1583*
X1582Y1061*
X1582Y1063*
X1582Y1065*
X1582Y1067*
X1583Y1069*
X1584Y1070*
X1584Y864D02*
X1580Y863D01*
X1578Y860*
X1575Y857*
X1574Y854*
X1574Y850*
X1576Y847*
X1580Y843*
X1584Y841*
X1589Y839*
X1594Y839*
X1597Y838*
X1597Y838*
X1598Y838*
X1598Y839*
X1598Y839*
X1598Y839*
X1598Y840*
X1597Y840*
X1597Y841*
X1600Y843*
X1602Y847*
X1603Y851*
X1602Y855*
X1600Y859*
X1595Y862*
X1590Y864*
X1584Y864*
X1585Y862D02*
X1589Y862D01*
X1592Y862*
X1595Y861*
X1597Y860*
X1599Y858*
X1601Y854*
X1602Y851*
X1601Y848*
X1599Y844*
X1596Y841*
X1596Y840*
X1596Y840*
X1593Y840*
X1589Y841*
X1585Y842*
X1580Y844*
X1577Y847*
X1575Y851*
X1575Y853*
X1577Y857*
X1579Y860*
X1581Y862*
X1585Y862*
X1590Y868D02*
X1599Y867D01*
X1605Y864*
X1609Y860*
X1611Y854*
X1611Y851*
X1611Y849*
X1610Y846*
X1608Y844*
X1602Y839*
X1593Y836*
X1585Y835*
X1577Y837*
X1574Y839*
X1570Y841*
X1568Y843*
X1567Y845*
X1567Y847*
X1567Y850*
X1568Y857*
X1573Y863*
X1580Y867*
X1590Y868*
Y869D02*
X1580Y868D01*
X1572Y864*
X1567Y858*
X1565Y850*
X1566Y847*
X1566Y845*
X1567Y842*
X1569Y840*
X1573Y837*
X1576Y835*
X1585Y834*
X1594Y835*
X1602Y838*
X1609Y843*
X1611Y846*
X1612Y848*
X1613Y851*
X1612Y854*
X1610Y861*
X1606Y866*
X1599Y868*
X1590Y869*
X1590Y1060D02*
X1590Y1059D01*
X1590Y1058*
X1591Y1057*
X1591Y1054*
X1591Y1050*
X1591Y1043*
X1591Y1036*
X1592Y1030*
X1593Y1028*
X1593Y1027*
X1594Y1027*
X1595Y1027*
X1596Y1028*
X1596Y1031*
X1596Y1035*
X1596Y1042*
X1596Y1049*
X1596Y1054*
X1595Y1057*
X1594Y1058*
X1592Y1059*
X1590Y1060*
X1591Y1058D02*
X1591Y1058D01*
X1593Y1057*
X1594Y1056*
X1594Y1054*
X1595Y1049*
X1595Y1042*
X1595Y1035*
X1595Y1031*
X1594Y1029*
X1594Y1028*
X1594Y1029*
X1593Y1030*
X1592Y1036*
X1592Y1043*
X1592Y1050*
X1593Y1054*
X1592Y1058*
X1591Y1058*
X1592Y867D02*
X1591Y866D01*
X1595Y864*
X1600Y860*
X1603Y856*
X1604Y850*
X1603Y845*
X1602Y844*
X1602Y843*
X1603Y842*
X1604*
X1604Y843*
X1606Y845*
X1608Y848*
X1609Y853*
X1608Y857*
X1606Y860*
X1603Y863*
X1600Y865*
X1596Y866*
X1592Y867*
X1592Y867*
X1597Y864D02*
X1603Y861D01*
X1607Y856*
X1608Y853*
X1607Y849*
X1605Y845*
X1604Y844*
X1604Y844*
X1606Y850*
X1605Y856*
X1602Y861*
X1597Y864*
X1597Y820D02*
X1597Y819D01*
X1600Y818*
X1605Y816*
X1608Y813*
X1609Y809*
X1609Y805*
X1608Y803*
X1608Y802*
X1608Y802*
X1608Y802*
X1607Y802*
X1606Y801*
X1603Y800*
X1598Y802*
X1594Y804*
X1591Y807*
X1590Y809*
X1589Y810*
X1589Y810*
X1588Y809*
X1588Y808*
X1589Y805*
X1591Y802*
X1593Y800*
X1591Y800*
X1588Y802*
X1586Y806*
X1585Y811*
X1586Y815*
X1589Y817*
X1588Y814*
X1588Y813*
X1589Y812*
X1589Y812*
X1591Y815*
X1593Y817*
X1593Y818*
Y819*
X1595Y819*
X1596Y820*
X1597Y820*
X1599Y1016D02*
X1599Y1016D01*
X1600Y1016*
X1602Y1014*
X1607Y1007*
X1614Y998*
X1609Y991*
X1607Y988*
X1606Y985*
X1606Y982*
X1608Y981*
X1606Y982*
X1604Y983*
X1607Y988*
X1610Y993*
X1611Y995*
X1611Y996*
X1611Y997*
X1611Y997*
X1609Y1000*
X1605Y1006*
X1601Y1012*
X1599Y1015*
X1598Y1016*
X1599Y1016*
X1599Y1016*
Y1018D02*
X1598Y1018D01*
X1597Y1017*
X1598Y1015*
X1600Y1011*
X1604Y1005*
X1608Y999*
X1610Y997*
X1610Y996*
X1610Y996*
X1610Y995*
X1609Y994*
X1606Y989*
X1602Y983*
X1602Y983*
X1602Y983*
X1605Y980*
X1609Y979*
X1612Y979*
X1616Y980*
X1619Y984*
X1623Y989*
X1629Y987*
X1634Y985*
X1635Y985*
X1636Y985*
X1636Y985*
X1637Y985*
X1637Y986*
X1636Y986*
X1635Y987*
X1631Y989*
X1626Y991*
X1622Y991*
X1619Y989*
X1617Y985*
X1614Y982*
X1612Y981*
X1609Y981*
X1607Y983*
X1607Y984*
X1607Y985*
X1608Y987*
X1610Y991*
X1615Y997*
X1615Y998*
X1615Y998*
X1608Y1008*
X1603Y1015*
X1601Y1017*
X1600Y1017*
X1599Y1018*
X1601Y821D02*
X1608Y819D01*
X1613Y816*
X1615Y812*
X1615Y808*
X1612Y804*
X1610Y803*
X1611Y803*
X1612Y806*
X1613Y809*
X1612Y813*
X1609Y817*
X1605Y820*
X1601Y821*
X1600*
X1601Y821*
X1601Y822D02*
X1597Y822D01*
X1595Y820*
X1594Y820*
X1593Y820*
X1592Y820*
X1592Y819*
X1592Y819*
X1592Y818*
X1590Y815*
X1589Y814*
X1591Y817*
X1591Y818*
X1592Y818*
X1592Y818*
X1591Y819*
X1591Y819*
X1590Y819*
X1589Y819*
X1585Y816*
X1584Y811*
X1585Y806*
X1588Y801*
X1591Y799*
X1593Y799*
X1594Y799*
X1594Y800*
X1592Y803*
X1590Y806*
X1589Y807*
X1590Y807*
X1593Y803*
X1598Y800*
X1603Y799*
X1605Y799*
X1606Y800*
X1608Y801*
X1608Y801*
X1609Y800*
X1609Y800*
X1610Y801*
X1613Y803*
X1616Y808*
X1616Y813*
X1614Y817*
X1609Y820*
X1601Y822*
X1601Y819D02*
X1605Y818D01*
X1608Y816*
X1610Y813*
X1611Y809*
X1611Y807*
X1610Y805*
X1611Y810*
X1609Y814*
X1606Y817*
X1601Y819*
X1601Y889D02*
X1602Y889D01*
X1603Y887*
X1604Y884*
X1605Y881*
X1605Y879*
X1604Y878*
X1604Y877*
X1602Y877*
X1599Y878*
X1597Y879*
X1596Y880*
X1596Y882*
X1596Y887*
X1597Y889*
X1598Y888*
X1597Y886*
Y882*
X1599Y879*
X1602Y877*
X1604Y879*
X1604Y881*
X1603Y885*
X1602Y888*
X1601Y889*
X1601Y889*
X1601Y889*
X1602Y890D02*
X1600Y890D01*
X1600Y889*
X1600Y888*
X1602Y884*
X1603Y881*
X1603Y879*
X1602Y879*
X1600Y880*
X1599Y882*
X1599Y885*
X1599Y888*
X1598Y890*
X1597Y890*
X1596Y890*
X1595Y888*
X1594Y882*
X1595Y880*
X1596Y878*
X1599Y876*
X1602Y876*
X1604Y876*
X1605Y877*
X1606Y879*
X1606Y881*
X1606Y885*
X1604Y888*
X1603Y890*
X1602Y890*
X1605Y823D02*
X1609Y823D01*
X1612Y821*
X1615Y819*
X1617Y817*
X1618Y814*
X1618Y810*
X1617Y806*
X1615Y803*
X1611Y800*
X1606Y798*
X1601Y797*
X1598Y796*
X1594Y796*
X1591Y797*
X1586Y800*
X1583Y804*
X1581Y809*
X1583Y814*
X1585Y817*
X1588Y819*
X1591Y821*
X1596Y823*
X1605Y823*
X1605Y825D02*
X1596Y824D01*
X1591Y822*
X1587Y820*
X1584Y818*
X1581Y815*
X1580Y809*
X1581Y803*
X1585Y799*
X1590Y796*
X1594Y795*
X1598Y795*
X1602Y795*
X1606Y797*
X1612Y799*
X1616Y802*
X1619Y806*
X1619Y810*
X1619Y814*
X1618Y817*
X1616Y820*
X1612Y822*
X1609Y824*
X1605Y825*
X1609Y1103D02*
X1610Y1103D01*
X1611Y1102*
X1613Y1098*
X1616Y1095*
X1616Y1093*
X1617Y1092*
X1617Y1092*
X1616Y1092*
X1615Y1090*
X1612Y1086*
X1607Y1081*
X1603Y1074*
X1600Y1071*
X1598Y1069*
X1595Y1069*
X1589Y1070*
X1589Y1070*
X1590Y1070*
X1591Y1070*
X1595Y1069*
X1598Y1069*
X1599Y1070*
X1601Y1072*
X1602Y1074*
X1603Y1077*
X1608Y1082*
X1612Y1087*
X1614Y1090*
X1613Y1094*
X1611Y1097*
X1609Y1102*
X1609Y1103*
X1609Y1103*
Y1104D02*
X1608Y1103D01*
X1608Y1102*
X1610Y1097*
X1612Y1094*
X1612Y1091*
X1611Y1087*
X1607Y1083*
X1602Y1077*
X1601Y1075*
X1599Y1073*
X1598Y1071*
X1597Y1071*
X1595Y1070*
X1591Y1071*
X1587Y1071*
X1584Y1071*
X1582Y1070*
X1581Y1068*
X1580Y1062*
X1581Y1060*
X1583Y1060*
X1585Y1060*
X1584Y1062*
X1584Y1064*
X1584Y1066*
X1585Y1068*
X1585Y1068*
X1587Y1069*
X1589Y1068*
X1595Y1067*
X1598Y1068*
X1601Y1070*
X1604Y1074*
X1606Y1077*
X1608Y1080*
X1610Y1083*
X1613Y1086*
X1616Y1090*
X1617Y1091*
X1618Y1092*
X1618Y1092*
X1618Y1094*
X1617Y1095*
X1614Y1099*
X1612Y1103*
X1610Y1104*
X1609Y1104*
X1618Y1108D02*
X1620Y1107D01*
X1623Y1104*
X1625Y1101*
X1626Y1098*
X1626Y1098*
X1626*
X1625Y1098*
X1624Y1099*
X1622Y1102*
X1619Y1106*
X1617Y1108*
X1618Y1108*
Y1110D02*
X1616Y1109D01*
X1616Y1108*
X1616Y1107*
X1617Y1107*
X1618Y1105*
X1621Y1102*
X1625Y1097*
X1625Y1096*
X1626Y1097*
X1627Y1098*
X1626Y1102*
X1624Y1105*
X1621Y1108*
X1618Y1110*
X1619Y794D02*
X1621Y791D01*
X1623Y787*
X1623Y780*
X1623Y771*
X1621Y759*
X1618Y745*
X1613Y730*
X1608Y715*
X1601Y700*
X1593Y685*
X1585Y672*
X1576Y659*
X1568Y649*
X1563Y644*
X1560Y641*
X1559Y641*
X1560Y642*
X1560Y643*
X1562Y645*
X1564Y648*
X1566Y652*
X1573Y661*
X1581Y673*
X1588Y684*
X1595Y697*
X1602Y711*
X1608Y725*
X1612Y739*
X1616Y753*
X1619Y765*
X1620Y776*
X1619Y782*
X1618Y786*
X1614Y787*
X1608Y787*
X1601Y786*
X1595Y786*
X1589Y786*
X1587Y786*
X1586Y784*
X1585Y781*
X1585Y777*
X1585Y772*
X1585Y765*
X1584Y736*
X1580Y708*
X1576Y694*
X1572Y680*
X1570Y674*
X1568Y668*
X1567Y663*
X1565Y660*
X1562Y654*
X1559Y650*
X1557Y646*
X1557Y646*
X1558Y651*
X1560Y657*
X1563Y665*
X1572Y691*
X1578Y714*
X1581Y737*
X1581Y762*
X1581Y772*
X1582Y781*
X1582Y787*
X1582Y789*
X1582Y789*
X1583Y790*
X1585Y790*
X1588Y791*
X1592Y790*
X1602Y790*
X1610Y792*
X1619Y794*
X1619Y795D02*
X1619Y795D01*
X1610Y793*
X1601Y791*
X1592Y792*
X1588Y792*
X1585Y792*
X1581Y790*
X1581Y789*
X1581Y787*
X1580Y781*
X1580Y773*
X1580Y762*
X1579Y737*
X1576Y714*
X1571Y691*
X1562Y665*
X1559Y658*
X1557Y651*
X1556Y647*
X1555Y646*
X1555Y645*
X1555Y645*
X1555Y644*
X1556Y644*
X1557Y644*
X1558Y645*
X1560Y649*
X1563Y654*
X1566Y659*
X1568Y663*
X1570Y667*
X1572Y673*
X1574Y680*
X1578Y694*
X1581Y707*
X1585Y736*
X1586Y765*
X1586Y772*
X1586Y777*
X1586Y781*
X1587Y783*
X1588Y785*
X1589Y785*
X1595Y785*
X1601Y785*
X1608Y786*
X1614Y786*
X1617Y785*
X1618Y782*
X1618Y776*
X1617Y765*
X1615Y753*
X1611Y740*
X1606Y726*
X1601Y711*
X1594Y698*
X1587Y685*
X1580Y673*
X1572Y662*
X1565Y652*
X1563Y649*
X1561Y646*
X1559Y644*
X1558Y642*
X1558Y641*
X1558Y640*
X1558Y640*
X1559Y640*
X1559Y640*
X1561Y640*
X1564Y643*
X1569Y648*
X1578Y659*
X1586Y671*
X1594Y685*
X1602Y699*
X1609Y715*
X1615Y730*
X1619Y745*
X1622Y759*
X1624Y770*
X1625Y780*
X1624Y787*
X1622Y792*
X1619Y795*
X1619Y795*
X1621Y1112D02*
X1622Y1111D01*
X1624Y1109*
X1626Y1105*
X1629Y1100*
X1631Y1099*
X1631Y1098*
X1632Y1098*
X1633Y1099*
X1633Y1100*
X1633Y1100*
X1634Y1101*
X1634Y1100*
X1634Y1100*
X1635Y1099*
X1636Y1099*
X1638Y1099*
X1638Y1099*
X1639Y1099*
X1632Y1097*
X1627Y1096*
X1624Y1095*
X1622Y1097*
X1619Y1100*
X1617Y1104*
X1616Y1105*
X1616Y1105*
X1615Y1105*
X1614Y1104*
X1614Y1104*
X1615Y1102*
X1617Y1097*
X1621Y1092*
X1614Y1085*
X1611Y1081*
X1608Y1078*
X1606Y1074*
X1604Y1071*
X1602Y1067*
X1599Y1065*
X1595Y1065*
X1590Y1067*
X1587Y1067*
X1587Y1066*
X1586Y1065*
X1588Y1063*
X1592Y1061*
X1598Y1059*
Y1026*
X1593Y1025*
X1590Y1024*
X1588Y1023*
X1587Y1022*
X1586Y1020*
X1587Y1018*
X1587Y1017*
X1589Y1017*
X1591Y1017*
X1598Y1019*
X1601Y1018*
X1604Y1016*
X1608Y1011*
X1611Y1006*
X1614Y1003*
X1615Y1000*
X1616Y998*
X1616Y996*
X1613Y992*
X1610Y987*
X1610Y985*
X1610Y983*
X1611Y983*
X1613Y984*
X1615Y987*
X1618Y990*
X1620Y992*
X1622Y993*
X1625Y993*
X1628Y992*
X1629Y992*
X1633Y990*
X1640Y988*
X1647Y987*
X1655Y986*
X1665*
X1666Y980*
X1667Y975*
X1668Y973*
X1669Y972*
X1670Y972*
X1670Y973*
X1670Y976*
X1668Y983*
X1668Y987*
X1669Y988*
X1672Y990*
X1684Y999*
X1693Y1009*
X1697Y1014*
X1700Y1017*
X1703Y1017*
X1706Y1016*
X1709Y1016*
X1711Y1016*
X1712Y1018*
X1711Y1019*
X1707Y1021*
X1702Y1024*
X1703Y1038*
X1703Y1049*
X1704Y1052*
X1704Y1053*
X1704Y1053*
X1705Y1054*
X1707Y1054*
X1709Y1054*
X1711Y1050*
X1711Y1044*
X1711Y1037*
X1710Y1028*
X1710Y1027*
X1710Y1027*
X1715Y1025*
X1718Y1023*
X1720Y1021*
X1719Y1019*
X1718Y1015*
X1715Y1011*
X1712Y1008*
X1709Y1007*
X1706Y1008*
X1704Y1009*
X1702*
X1700Y1008*
X1698Y1004*
X1696Y1002*
X1693Y999*
X1689Y996*
X1685Y994*
X1681Y991*
X1678Y989*
X1677Y987*
X1676Y985*
X1677Y982*
X1678Y978*
X1678Y975*
X1678Y974*
X1677Y973*
X1675Y972*
X1671Y971*
X1667Y970*
X1664Y970*
X1661Y969*
X1659Y970*
X1659Y970*
X1659Y972*
X1659Y976*
X1658Y980*
X1657Y983*
X1655Y984*
X1652Y985*
X1651Y985*
X1650Y985*
X1650Y984*
X1649Y984*
X1650Y983*
X1650Y983*
X1650Y983*
X1651Y982*
X1651*
X1648Y982*
X1644Y983*
X1635Y984*
X1632Y985*
X1629Y985*
X1624Y987*
X1624Y988*
X1623Y987*
X1620Y982*
X1617Y978*
X1614Y976*
X1610Y976*
X1605Y978*
X1601Y980*
X1600Y982*
X1600Y982*
X1600Y983*
X1601Y985*
X1604Y990*
X1609Y996*
X1609Y996*
X1609Y997*
X1606Y1000*
X1602Y1004*
X1598Y1010*
X1595Y1014*
X1593Y1016*
X1591Y1016*
X1590Y1016*
X1590Y1016*
X1589Y1016*
X1589Y1015*
X1590Y1015*
X1590Y1014*
X1590Y1014*
X1586Y1013*
X1582Y1012*
X1580*
X1580Y1012*
X1579Y1012*
X1579Y1014*
X1578Y1018*
X1578Y1022*
X1579Y1024*
X1581Y1025*
X1587Y1026*
X1588Y1026*
X1587Y1026*
X1587Y1026*
X1586Y1025*
X1587Y1024*
X1587Y1024*
X1588Y1024*
X1589Y1025*
X1590Y1026*
X1590Y1028*
X1590Y1029*
X1590Y1033*
X1590Y1043*
X1589Y1056*
Y1056*
X1589Y1056*
X1583Y1058*
X1579Y1060*
X1578Y1060*
X1577Y1061*
X1578Y1064*
X1579Y1068*
X1580Y1072*
X1581Y1073*
X1581Y1073*
X1583Y1074*
X1586Y1074*
X1592Y1072*
X1594Y1071*
X1596Y1071*
X1597Y1073*
X1599Y1075*
X1602Y1080*
X1606Y1084*
X1610Y1088*
X1611Y1090*
X1611Y1090*
X1611Y1091*
X1611Y1092*
X1610Y1093*
X1608Y1097*
X1606Y1101*
X1605Y1103*
X1607Y1105*
X1610Y1108*
X1615Y1110*
X1619Y1112*
X1621Y1112*
X1621Y1113D02*
X1618Y1113D01*
X1614Y1112*
X1610Y1109*
X1606Y1106*
X1604Y1103*
X1604Y1100*
X1607Y1096*
X1609Y1093*
X1610Y1091*
X1610Y1091*
X1610*
X1610Y1091*
X1609Y1089*
X1605Y1085*
X1601Y1080*
X1597Y1076*
X1596Y1073*
X1595Y1072*
X1595Y1073*
X1593Y1073*
X1586Y1075*
X1583Y1075*
X1581Y1074*
X1580Y1073*
X1579Y1072*
X1578Y1068*
X1576Y1064*
X1576Y1061*
X1577Y1059*
X1578Y1058*
X1583Y1057*
X1588Y1055*
X1588Y1042*
X1589Y1033*
X1589Y1029*
X1589Y1028*
X1588Y1028*
X1587Y1028*
X1581Y1026*
X1578Y1024*
X1577Y1022*
X1577Y1018*
X1578Y1014*
X1578Y1012*
X1579Y1011*
X1580Y1010*
X1582*
X1587Y1011*
X1591Y1013*
X1592Y1014*
X1592Y1015*
X1591Y1015*
X1592Y1015*
X1594Y1013*
X1597Y1009*
X1601Y1004*
X1605Y999*
X1608Y996*
X1603Y990*
X1600Y985*
X1599Y984*
X1598Y982*
X1599Y981*
X1600Y979*
X1604Y977*
X1610Y975*
X1614Y975*
X1618Y977*
X1621Y981*
X1624Y986*
X1628Y984*
X1635Y982*
X1644Y981*
X1648Y981*
X1651*
X1652Y981*
X1653Y982*
X1653Y982*
X1653Y983*
X1652Y983*
X1652Y983*
X1654Y983*
X1656Y982*
X1657Y979*
X1657Y976*
X1658Y971*
X1658Y970*
X1657*
X1658Y969*
X1661Y968*
X1664Y968*
X1667Y969*
X1672Y970*
X1676Y971*
X1678Y972*
X1679Y973*
X1680Y975*
X1679Y978*
X1678Y983*
X1678Y986*
X1678Y986*
X1679Y988*
X1682Y990*
X1686Y993*
X1694Y998*
X1699Y1004*
X1701Y1007*
X1702Y1008*
X1703Y1008*
X1706Y1007*
X1709Y1006*
X1713Y1007*
X1716Y1010*
X1719Y1014*
X1721Y1018*
X1721Y1022*
X1719Y1024*
X1715Y1026*
X1711Y1028*
X1712Y1037*
X1712Y1044*
X1712Y1051*
X1710Y1055*
X1707Y1056*
X1705Y1055*
X1703Y1054*
X1702Y1053*
X1702Y1052*
X1702Y1049*
X1701Y1038*
X1701Y1024*
Y1023*
X1701Y1023*
X1706Y1020*
X1710Y1018*
X1710Y1017*
X1710Y1017*
X1709Y1017*
X1707Y1018*
X1703Y1019*
X1699Y1018*
X1696Y1015*
X1692Y1010*
X1683Y1000*
X1672Y991*
X1668Y989*
X1667Y987*
X1667Y983*
X1669Y976*
X1669Y974*
X1669Y974*
X1668Y976*
X1667Y980*
X1666Y987*
X1666Y987*
X1655*
X1647Y988*
X1640Y989*
X1634Y991*
X1630Y993*
X1628Y994*
X1625Y994*
X1621Y994*
X1619Y993*
X1617Y991*
X1614Y987*
X1612Y985*
X1611Y984*
X1611Y984*
X1611Y985*
X1611Y986*
X1614Y991*
X1617Y995*
X1617Y999*
X1616Y1001*
X1615Y1004*
X1612Y1007*
X1609Y1012*
X1605Y1017*
X1602Y1020*
X1600Y1020*
X1597Y1020*
X1594Y1019*
X1591Y1018*
X1589Y1018*
X1588Y1018*
X1588Y1018*
X1588Y1020*
X1588Y1021*
X1589Y1022*
X1593Y1024*
X1598Y1025*
X1599Y1025*
Y1060*
X1598Y1060*
X1593Y1062*
X1589Y1064*
X1588Y1065*
X1588Y1066*
X1588Y1066*
X1589Y1066*
X1595Y1064*
X1599Y1064*
X1603Y1066*
X1606Y1071*
X1607Y1074*
X1610Y1077*
X1612Y1081*
X1615Y1084*
X1622Y1091*
X1622Y1092*
X1622Y1092*
X1619Y1098*
X1616Y1103*
X1618Y1099*
X1621Y1096*
X1624Y1094*
X1627Y1094*
X1633Y1096*
X1639Y1098*
X1646Y1099*
X1653Y1098*
X1661Y1096*
X1668Y1095*
X1674Y1095*
X1677Y1096*
X1680Y1099*
X1681Y1101*
X1682Y1102*
X1683Y1102*
X1683Y1101*
X1682Y1100*
X1681Y1097*
X1679Y1093*
X1679Y1092*
X1678Y1091*
X1679Y1089*
X1680Y1088*
X1684Y1084*
X1686Y1081*
X1689Y1078*
X1692Y1074*
X1694Y1070*
X1699Y1064*
X1701Y1062*
X1701Y1061*
X1702Y1061*
X1705Y1062*
X1709Y1063*
X1713Y1064*
X1714Y1065*
X1715Y1064*
X1716Y1060*
X1717Y1057*
X1719Y1055*
X1721Y1055*
X1724Y1056*
X1726Y1059*
X1726Y1062*
X1726Y1065*
X1724Y1070*
X1722Y1073*
X1718*
X1713Y1071*
X1709Y1069*
X1708Y1069*
X1708*
X1708Y1069*
X1707Y1071*
X1704Y1076*
X1702Y1079*
X1700Y1082*
X1697Y1085*
X1694Y1088*
X1689Y1093*
X1691Y1097*
X1693Y1101*
X1694Y1104*
X1692Y1107*
X1688Y1109*
X1683Y1111*
X1679Y1111*
X1675Y1109*
X1673Y1105*
X1671Y1103*
X1671Y1103*
X1669Y1103*
X1667Y1103*
X1663Y1104*
X1657Y1104*
X1651Y1104*
X1645Y1104*
X1640Y1103*
X1635Y1102*
X1633Y1101*
X1632Y1101*
X1632Y1099*
X1632Y1099*
X1632Y1099*
X1632Y1099*
X1632Y1099*
X1632Y1099*
X1630Y1101*
X1627Y1106*
X1625Y1110*
X1623Y1112*
X1621Y1113*
X1622Y989D02*
X1618Y985D01*
X1617Y983*
X1618Y985*
X1620Y988*
X1622Y989*
X1623Y1067D02*
X1619Y1058D01*
X1617Y1047*
X1618Y1035*
X1621Y1024*
X1624Y1018*
X1628Y1012*
X1633Y1008*
X1638Y1005*
X1631Y1008*
X1627Y1011*
X1623Y1015*
X1617Y1028*
X1615Y1044*
X1618Y1056*
X1623Y1067*
X1629Y1077D02*
X1629Y1077D01*
X1624Y1072*
X1617Y1059*
X1614Y1044*
X1616Y1028*
X1622Y1014*
X1626Y1010*
X1631Y1007*
X1636Y1004*
X1640Y1003*
X1641Y1004*
X1642Y1004*
X1642Y1004*
X1641Y1005*
X1640Y1005*
X1639Y1006*
X1634Y1008*
X1629Y1013*
X1625Y1019*
X1622Y1025*
X1619Y1037*
X1619Y1049*
X1621Y1060*
X1626Y1070*
X1630Y1076*
X1630Y1076*
X1630Y1076*
X1629Y1077*
X1637Y1101D02*
Y1101D01*
X1637Y1101*
X1637Y1101*
X1643Y1078D02*
X1648Y1077D01*
X1654Y1074*
X1659Y1069*
X1662Y1063*
X1664Y1059*
X1665Y1055*
X1666Y1049*
X1666Y1042*
X1665Y1031*
X1664Y1023*
X1661Y1017*
X1656Y1012*
X1652Y1009*
X1648Y1007*
X1644Y1008*
X1639Y1010*
X1633Y1014*
X1628Y1019*
X1625Y1026*
X1622Y1034*
X1621Y1039*
X1621Y1043*
X1621Y1047*
X1622Y1051*
X1624Y1060*
X1627Y1066*
X1630Y1072*
X1634Y1075*
X1639Y1078*
X1643Y1078*
X1643Y1079D02*
X1638Y1079D01*
X1634Y1076*
X1629Y1072*
X1626Y1067*
X1623Y1060*
X1621Y1052*
X1620Y1047*
X1620Y1043*
X1620Y1039*
X1621Y1033*
X1624Y1025*
X1627Y1018*
X1632Y1013*
X1638Y1009*
X1644Y1007*
X1648Y1006*
X1653Y1007*
X1657Y1011*
X1662Y1016*
X1665Y1023*
X1667Y1031*
X1667Y1042*
X1667Y1050*
X1667Y1055*
X1665Y1059*
X1664Y1063*
X1660Y1070*
X1654Y1075*
X1649Y1078*
X1643Y1079*
X1649Y1083D02*
X1656Y1082D01*
X1662Y1078*
X1669Y1071*
X1674Y1060*
X1676Y1048*
X1675Y1035*
X1674Y1029*
X1673Y1023*
X1670Y1018*
X1668Y1014*
X1660Y1007*
X1650Y1003*
X1640Y1002*
X1631Y1005*
X1623Y1010*
X1617Y1019*
X1614Y1029*
X1613Y1041*
X1615Y1058*
X1621Y1071*
X1629Y1078*
X1640Y1082*
Y1082*
X1640Y1082*
X1638Y1082*
X1637Y1081*
X1637Y1081*
X1637Y1080*
X1638Y1080*
X1639Y1079*
X1641Y1080*
X1641Y1080*
X1641Y1079*
Y1080*
X1641Y1080*
X1641Y1080*
Y1081*
X1641*
X1641Y1081*
X1640Y1082*
X1644Y1083*
X1649Y1083*
X1650Y1084D02*
X1644Y1084D01*
X1637Y1083*
X1630Y1080*
X1625Y1077*
X1620Y1072*
X1614Y1058*
X1611Y1041*
X1613Y1029*
X1616Y1018*
X1622Y1010*
X1630Y1004*
X1640Y1001*
X1650Y1002*
X1660Y1006*
X1669Y1013*
X1672Y1018*
X1674Y1023*
X1676Y1029*
X1677Y1035*
X1677Y1048*
X1675Y1061*
X1670Y1072*
X1663Y1079*
X1657Y1083*
X1650Y1084*
X1652Y1082D02*
X1650Y1081D01*
X1650Y1081*
X1650Y1080*
X1651Y1079*
X1652Y1079*
X1654Y1078*
X1658Y1074*
X1662Y1069*
X1665Y1065*
X1669Y1051*
X1670Y1037*
X1669Y1030*
X1667Y1023*
X1664Y1017*
X1661Y1012*
X1660Y1011*
X1660Y1011*
X1660Y1011*
X1660Y1010*
X1660Y1010*
X1661Y1010*
X1661Y1010*
X1661Y1010*
X1661Y1010*
X1664Y1013*
X1669Y1019*
X1672Y1027*
X1675Y1038*
X1674Y1050*
X1672Y1062*
X1667Y1071*
X1663Y1075*
X1658Y1079*
X1653Y1081*
X1652Y1082*
X1653Y1080D02*
X1657Y1078D01*
X1662Y1074*
X1666Y1071*
X1671Y1061*
X1673Y1050*
X1673Y1038*
X1671Y1027*
X1669Y1022*
X1666Y1017*
X1669Y1026*
X1671Y1037*
X1670Y1052*
X1666Y1065*
X1663Y1070*
X1659Y1075*
X1655Y1079*
X1653Y1080*
X1661Y984D02*
X1663Y982D01*
X1664Y976*
X1664Y974*
X1663Y973*
X1663*
X1663Y973*
X1662Y975*
X1661Y980*
X1660Y982*
X1661Y983*
X1661Y984*
Y985D02*
X1660Y984D01*
X1659Y982*
X1660Y979*
X1661Y975*
X1662Y972*
X1663Y972*
X1664Y972*
X1665Y974*
X1665Y976*
X1664Y982*
X1663Y984*
X1661Y985*
X1662Y1102D02*
Y1101D01*
X1662Y1102*
X1660Y1101*
X1659Y1101*
X1659Y1100*
X1659Y1100*
X1660Y1099*
X1661Y1099*
X1663Y1099*
X1663Y1099*
X1664Y1099*
Y1100*
X1664Y1100*
X1664Y1100*
Y1100*
X1663*
X1663Y1101*
X1662Y1102*
X1674Y989D02*
X1674Y986D01*
X1674Y981*
X1675Y976*
X1675Y976*
X1674Y976*
X1674Y976*
X1674Y977*
X1672Y981*
X1671Y984*
X1670Y985*
X1671Y986*
X1671Y986*
X1672Y986*
X1674Y988*
X1674Y989*
X1676Y991D02*
X1675Y991D01*
X1675Y990*
X1673Y989*
X1671Y987*
X1670Y987*
X1670Y987*
X1669Y986*
X1669Y985*
X1669Y984*
X1671Y980*
X1672Y976*
X1673Y975*
X1674Y974*
X1676Y975*
X1676Y976*
X1676Y981*
X1675Y986*
X1676Y989*
X1676Y990*
X1676Y990*
X1676Y991*
X1676Y991*
X1678Y1105D02*
X1678Y1104D01*
X1677Y1102*
X1675Y1100*
X1672Y1098*
X1671Y1098*
X1672Y1099*
X1674Y1100*
X1676Y1103*
X1678Y1105*
X1679Y1110D02*
X1683Y1110D01*
X1688Y1108*
X1691Y1106*
X1692Y1104*
X1692Y1101*
X1690Y1098*
X1688Y1094*
X1687Y1093*
X1688Y1093*
X1693Y1087*
X1696Y1084*
X1699Y1081*
X1701Y1078*
X1703Y1075*
X1705Y1070*
X1706Y1069*
X1707Y1068*
X1708Y1068*
X1708Y1068*
X1709Y1068*
X1713Y1069*
X1719Y1071*
X1721Y1071*
X1723Y1070*
X1724Y1065*
X1725Y1061*
X1725Y1059*
X1725Y1058*
X1724Y1057*
X1721Y1056*
X1719Y1056*
X1718Y1057*
X1717Y1060*
X1716Y1064*
X1715Y1066*
X1712Y1066*
X1708Y1064*
X1705Y1063*
X1702Y1062*
X1702Y1062*
X1701Y1063*
X1700Y1065*
X1695Y1071*
X1693Y1075*
X1690Y1079*
X1687Y1082*
X1685Y1085*
X1681Y1089*
X1680Y1090*
X1680Y1091*
X1680Y1091*
X1680Y1093*
X1682Y1097*
X1683Y1099*
X1684Y1101*
X1684Y1103*
X1682Y1103*
X1680Y1102*
X1678Y1100*
X1676Y1097*
X1673Y1096*
X1669Y1096*
X1661Y1098*
X1655Y1099*
X1649Y1100*
X1644Y1100*
X1639Y1099*
Y1100*
X1639Y1100*
X1639Y1100*
Y1100*
X1639*
X1638Y1101*
X1638Y1102*
X1643Y1102*
X1643Y1102*
X1642Y1102*
X1642Y1101*
X1643Y1101*
X1643Y1101*
X1647Y1101*
X1652Y1101*
X1652Y1101*
X1653Y1101*
X1653Y1102*
X1652Y1102*
X1652Y1102*
X1651Y1103*
X1645*
X1645Y1103*
X1651Y1103*
X1657Y1103*
X1662Y1103*
X1667Y1102*
X1669Y1101*
X1671Y1101*
X1672Y1103*
X1674Y1105*
X1676Y1108*
X1679Y1110*
X1681Y1108D02*
X1678Y1107D01*
X1675Y1103*
X1673Y1101*
X1672Y1100*
X1670Y1100*
X1668Y1100*
X1664Y1100*
X1664Y1100*
X1664Y1099*
X1664Y1099*
X1664*
X1668Y1098*
X1672Y1097*
X1676Y1099*
X1678Y1101*
X1679Y1104*
X1680Y1105*
X1681Y1105*
X1682Y1105*
X1685Y1104*
X1686Y1103*
X1686Y1102*
X1686Y1100*
X1684Y1097*
X1681Y1091*
X1681Y1091*
X1681Y1090*
X1687Y1085*
X1689Y1082*
X1692Y1079*
X1695Y1075*
X1697Y1072*
X1699Y1067*
X1701Y1065*
X1703Y1064*
X1705Y1065*
Y1067*
X1704Y1069*
X1701Y1074*
X1696Y1081*
X1691Y1087*
X1688Y1090*
X1687Y1093*
X1687Y1096*
X1690Y1100*
X1690Y1101*
X1690Y1103*
X1689Y1104*
X1687Y1106*
X1683Y1108*
X1681Y1108*
X1682Y1062D02*
X1682Y1061D01*
X1682Y1060*
X1681Y1056*
X1682Y1047*
X1681Y1034*
X1681Y1029*
X1681Y1025*
X1680Y1021*
X1680Y1020*
X1680Y1020*
X1681Y1019*
X1681Y1019*
X1682Y1020*
X1682Y1021*
X1684Y1024*
X1685Y1027*
X1686Y1032*
X1686Y1037*
X1686Y1043*
X1686Y1053*
X1685Y1057*
X1685Y1060*
X1684Y1061*
X1683Y1062*
X1682Y1062*
X1683Y1106D02*
X1686Y1105D01*
X1688Y1103*
X1689Y1102*
X1689Y1102*
X1688Y1101*
X1686Y1097*
X1685Y1093*
X1687Y1090*
X1690Y1086*
X1695Y1080*
X1700Y1073*
X1703Y1068*
X1704Y1066*
X1704Y1066*
X1703Y1065*
X1702Y1065*
X1700Y1068*
X1698Y1072*
X1696Y1076*
X1693Y1080*
X1690Y1083*
X1688Y1086*
X1682Y1091*
X1685Y1096*
X1687Y1100*
X1687Y1102*
X1687Y1104*
X1685Y1105*
X1683Y1106*
X1683Y1060D02*
X1683Y1059D01*
X1684Y1057*
X1685Y1053*
X1685Y1043*
X1685Y1037*
X1684Y1032*
X1684Y1028*
X1683Y1025*
X1681Y1021*
X1681Y1021*
Y1021*
X1682Y1025*
X1682Y1029*
X1683Y1034*
X1683Y1047*
X1683Y1056*
X1683Y1060*
X1687Y1069D02*
X1686Y1068D01*
X1686Y1068*
X1686Y1067*
X1687Y1066*
X1689Y1061*
X1691Y1057*
X1692Y1054*
X1693Y1050*
X1693Y1044*
X1692Y1036*
X1692Y1030*
X1690Y1025*
X1687Y1020*
X1685Y1016*
X1685Y1015*
X1685Y1014*
X1685Y1014*
X1686Y1014*
X1687Y1015*
X1690Y1018*
X1693Y1022*
X1695Y1029*
X1696Y1038*
X1697Y1049*
X1697Y1055*
X1696Y1058*
X1695Y1061*
X1692Y1064*
X1689Y1068*
X1688Y1068*
X1687Y1069*
X1688Y1067D02*
X1688Y1067D01*
X1691Y1063*
X1694Y1060*
X1695Y1058*
X1695Y1055*
X1695Y1049*
X1695Y1038*
X1694Y1029*
X1692Y1023*
X1690Y1019*
X1687Y1016*
X1686Y1016*
X1686Y1016*
X1688Y1019*
X1691Y1025*
X1693Y1030*
X1694Y1036*
X1694Y1044*
X1694Y1050*
X1693Y1054*
X1692Y1058*
X1690Y1062*
X1688Y1066*
X1688Y1067*
X1707Y1051D02*
X1707Y1051D01*
X1707Y1049*
X1708Y1045*
X1707Y1038*
X1707Y1025*
Y1025*
X1705Y1026*
X1705Y1027*
X1704Y1028*
X1705Y1029*
X1705Y1032*
X1705Y1041*
X1706Y1046*
X1706Y1049*
X1707Y1051*
X1707Y1051*
Y1052D02*
X1705Y1051D01*
X1705Y1049*
X1704Y1046*
X1704Y1041*
X1704Y1032*
X1703Y1029*
X1703Y1028*
X1703Y1026*
X1704Y1025*
X1708Y1023*
X1712Y1020*
X1713Y1019*
X1713Y1017*
X1712Y1015*
X1710Y1013*
X1709Y1013*
X1709Y1013*
X1707Y1014*
X1704Y1016*
X1702Y1016*
X1701Y1016*
X1700Y1016*
X1698Y1014*
X1694Y1007*
X1688Y998*
X1688Y998*
X1689Y998*
X1689Y998*
X1689Y998*
X1696Y1005*
X1699Y1009*
X1702Y1011*
X1703Y1012*
X1704Y1012*
X1706Y1010*
X1710Y1010*
X1712Y1011*
X1715Y1014*
X1717Y1018*
X1717Y1019*
X1718Y1019*
X1718Y1020*
X1717Y1020*
X1717Y1021*
X1716Y1021*
X1713Y1023*
X1708Y1025*
X1709Y1038*
X1709Y1045*
X1709Y1049*
X1708Y1051*
X1708Y1052*
X1707Y1052*
X1709Y1024D02*
X1712Y1022D01*
X1715Y1020*
X1716Y1020*
X1716Y1020*
X1716Y1019*
X1716Y1018*
X1714Y1015*
X1712Y1012*
X1709Y1011*
X1707Y1011*
X1705Y1013*
X1703Y1013*
X1701Y1012*
X1698Y1010*
X1695Y1006*
X1694Y1005*
X1695Y1006*
X1699Y1013*
X1701Y1015*
X1702Y1015*
X1702Y1015*
X1703Y1014*
X1706Y1013*
X1708Y1012*
X1710Y1011*
X1711Y1012*
X1713Y1014*
X1714Y1017*
X1714Y1019*
X1712Y1021*
X1709Y1024*
X1709Y1024*
X1719Y1069D02*
X1718Y1068D01*
X1717Y1066*
X1718Y1064*
X1718Y1060*
X1719Y1059*
X1721Y1058*
X1722Y1059*
X1723Y1060*
Y1061*
X1723*
X1722Y1066*
X1721Y1069*
X1720Y1069*
X1719Y1069*
X1719Y1068D02*
X1719Y1068D01*
X1720Y1068*
X1721Y1066*
X1722Y1060*
X1721Y1060*
X1721Y1060*
X1720Y1061*
X1719Y1064*
X1719Y1066*
X1719Y1068*
X1719Y1068*
X2039Y750D02*
Y814D01*
X2051Y814*
X2059Y813*
X2063Y813*
X2067Y812*
X2069Y811*
X2075Y806*
X2078Y798*
X2078Y792*
X2076Y787*
X2073Y783*
X2067Y781*
X2065Y780*
X2067Y779*
X2070Y778*
X2073Y775*
X2076Y769*
X2081Y759*
X2085Y750*
X2077*
X2072Y760*
X2068Y768*
X2066Y772*
X2063Y775*
X2061Y776*
X2057Y777*
X2052Y777*
X2048Y777*
Y750*
X2039*
X2061Y784D02*
X2065Y786D01*
X2068Y789*
X2069Y791*
X2069Y795*
X2069Y799*
X2068Y801*
X2065Y805*
X2061Y806*
X2058Y807*
X2054Y807*
X2048*
Y784*
X2053*
X2058Y784*
X2061Y784*
X2105Y750D02*
X2101Y752D01*
X2098Y755*
X2094Y762*
X2092Y772*
X2094Y786*
X2100Y795*
X2105Y798*
X2111Y799*
X2117Y798*
X2122Y796*
X2126Y793*
X2129Y789*
X2132Y780*
X2132Y769*
X2128Y757*
X2120Y750*
X2113Y749*
X2105Y750*
X2116Y816D02*
X2109Y825D01*
X2104Y832*
X2100Y838*
X2094Y844*
X2091Y847*
X2087Y851*
X2082Y856*
X2077Y860*
X2069Y867*
X2064Y872*
X2061Y874*
X2061Y876*
X2062Y877*
X2066Y881*
X2073Y887*
X2082Y894*
X2088Y899*
X2092Y902*
X2094Y903*
X2096Y904*
X2098*
X2100Y898*
X2104Y889*
X2108Y880*
X2112Y872*
X2114Y868*
X2116Y866*
X2118Y866*
X2120Y868*
X2123Y873*
X2126Y880*
X2130Y889*
X2134Y898*
X2140Y909*
X2145Y920*
X2150Y930*
X2156Y940*
X2163Y950*
X2168Y959*
X2173Y965*
X2176Y969*
X2180Y973*
X2184Y977*
X2188Y981*
X2191Y984*
X2194Y986*
X2197Y988*
X2198Y988*
X2197Y988*
X2196Y987*
X2195Y986*
X2195Y986*
X2198Y988*
X2199Y987*
X2200Y982*
X2200Y976*
X2199Y967*
X2198Y956*
Y945*
X2199Y932*
X2200Y926*
X2199Y922*
X2198Y920*
X2195Y918*
X2186Y910*
X2179Y902*
X2172Y895*
X2165Y886*
X2142Y853*
X2125Y822*
X2122Y816*
X2121Y813*
X2119Y812*
X2116Y816*
X2117Y757D02*
X2121Y760D01*
X2123Y764*
X2124Y768*
X2124Y774*
X2124Y779*
X2123Y783*
X2119Y790*
X2112Y792*
X2106Y791*
X2102Y787*
X2100Y782*
X2100Y774*
X2100Y767*
X2102Y761*
X2105Y758*
X2109Y756*
X2113Y755*
X2117Y757*
X2124Y694D02*
X2113Y696D01*
X2103Y697*
X2093Y699*
X2084Y702*
X2058Y713*
X2035Y728*
X2014Y746*
X1996Y768*
X1978Y802*
X1969Y841*
X1968Y845*
X1968Y849*
X1968Y854*
X1968Y862*
X1968Y871*
X1968Y878*
X1969Y883*
X1970Y890*
X1982Y931*
X2004Y967*
X2033Y996*
X2070Y1018*
X2119Y1030*
X2169Y1028*
X2192Y1021*
X2214Y1012*
X2234Y1000*
X2252Y985*
X2267Y968*
X2281Y948*
X2291Y927*
X2299Y905*
X2304Y852*
X2293Y801*
X2273Y764*
X2244Y733*
X2209Y711*
X2169Y697*
X2152Y695*
X2135Y694*
X2128Y694*
X2124Y694*
X2144Y750D02*
Y814D01*
X2152*
Y788*
X2177*
Y814*
X2185*
Y750*
X2177*
X2177Y765*
X2177Y781*
X2153*
X2153Y765*
X2152Y750*
X2144*
X2152Y706D02*
X2186Y713D01*
X2217Y728*
X2244Y749*
X2266Y775*
X2283Y808*
X2291Y843*
X2291Y878*
X2283Y914*
X2272Y937*
X2258Y959*
X2240Y977*
X2219Y993*
X2213Y997*
X2206Y1001*
X2198Y1004*
X2191Y1007*
X2147Y1017*
X2103Y1013*
X2062Y998*
X2026Y971*
X2003Y942*
X1987Y908*
X1981Y871*
X1983Y833*
X1993Y799*
X2012Y768*
X2015Y763*
X2018Y760*
X2021Y756*
X2025Y752*
X2047Y734*
X2071Y720*
X2097Y710*
X2125Y706*
X2131Y705*
X2138Y705*
X2146Y706*
X2152Y706*
X2208Y750D02*
X2201Y752D01*
X2198Y753*
Y761*
X2202Y759*
X2211Y756*
X2218Y756*
X2225Y758*
X2229Y762*
X2230Y768*
X2228Y774*
X2224Y777*
X2216Y779*
X2207Y782*
X2202Y785*
X2198Y790*
X2197Y797*
X2199Y803*
X2202Y809*
X2209Y813*
X2218Y815*
X2231Y812*
X2234Y812*
Y807*
X2234Y805*
X2234Y804*
X2233Y804*
X2231Y805*
X2222Y808*
X2215Y808*
X2209Y805*
X2205Y801*
X2205Y796*
X2206Y792*
X2210Y789*
X2218Y787*
X2225Y785*
X2230Y782*
X2234Y779*
X2236Y775*
X2237Y772*
X2237Y767*
X2237Y762*
X2236Y759*
X2231Y753*
X2223Y750*
X2216Y749*
X2208Y750*
X5491Y799D02*
Y787D01*
X5480Y798*
X5477Y799*
X5474Y798*
X5473Y795*
Y790*
X5474Y787*
X5490Y2665D02*
X5491Y2668D01*
Y2673*
X5490Y2676*
X5487Y2677*
X5485*
X5482Y2676*
X5480Y2673*
Y2665*
X5473*
Y2677*
X5490Y2691D02*
X5491Y2694D01*
Y2698*
X5490Y2701*
X5487Y2702*
X5477*
X5474Y2701*
X5473Y2698*
Y2694*
X5474Y2691*
X5477Y2690*
X5487*
X5490Y2691*
X5474Y2701*
X5783Y794D02*
Y800D01*
Y797D02*
X5764D01*
X5767Y794*
X5783Y2673D02*
X5764D01*
X5776Y2665*
Y2677*
X5783Y2694D02*
X5781Y2698D01*
X5778Y2701*
X5773Y2702*
X5769*
X5765Y2701*
X5764Y2698*
Y2694*
X5765Y2691*
X5769Y2690*
X5772Y2691*
X5773Y2694*
Y2698*
X5772Y2701*
X5769Y2702*
D02*
D77*
X550Y373D02*
Y390D01*
X555Y399*
X559Y403*
X568Y408*
X577*
X585Y403*
X590Y399*
X594Y390*
Y373*
X590Y364*
X585Y359*
X577Y355*
X568*
X559Y359*
X555Y364*
X550Y373*
X620Y390D02*
Y342D01*
Y368D02*
X625Y359D01*
X634Y355*
X642*
X651Y359*
X655Y368*
Y377*
X651Y386*
X642Y390*
X634*
X625Y386*
X620Y377*
Y368*
X725Y359D02*
X721Y355D01*
X712*
X704*
X695Y359*
X690Y368*
Y381*
X695Y386*
X704Y390*
X712*
X721Y386*
X725Y381*
Y377*
X721Y373*
X712Y368*
X704*
X695Y373*
X690Y377*
X760Y355D02*
Y390D01*
Y377D02*
X765Y386D01*
X774Y390*
X782*
X791Y386*
X795Y377*
Y355*
X839Y390D02*
X857D01*
X848Y399D02*
Y359D01*
X852Y355*
X857*
X861Y359*
X935D02*
X931Y355D01*
X922*
X914*
X905Y359*
X900Y368*
Y381*
X905Y386*
X914Y390*
X922*
X931Y386*
X935Y381*
Y377*
X931Y373*
X922Y368*
X914*
X905Y373*
X900Y377*
X970Y355D02*
Y408D01*
Y373D02*
X984D01*
X1005Y390*
X984Y373D02*
X1005Y355D01*
X1040D02*
Y408D01*
Y377D02*
X1045Y386D01*
X1054Y390*
X1062*
X1071Y386*
X1075Y377*
Y355*
X1110D02*
Y390D01*
Y377D02*
X1115Y386D01*
X1124Y390*
X1132*
X1141Y386*
X1145Y377*
Y355*
X1198D02*
Y390D01*
Y403D02*
X1250Y386*
X1259Y390D01*
X1272*
X1281Y386*
X1285Y377*
Y364*
X1281Y359*
X1272Y355*
X1264*
X1255Y359*
X1250Y364*
Y368*
X1255Y373*
X1264Y377*
X1272*
X1281Y373*
X1285Y368*
Y364D02*
Y355D01*
X572Y187D02*
Y240D01*
X550D02*
X594D01*
X638Y187D02*
Y222D01*
Y235D02*
X690Y200*
X695Y191D01*
X704Y187*
X712*
X721Y191*
X725Y200*
Y209*
X721Y218*
X712Y222*
X704*
X695Y218*
X690Y209*
Y200*
X830Y205D02*
X865D01*
X1001Y209D02*
X1014D01*
Y205*
X1010Y196*
X1005Y191*
X997Y187*
X988*
X979Y191*
X975Y196*
X970Y205*
Y222*
X975Y231*
X979Y235*
X988Y240*
X997*
X1005Y235*
X1010Y231*
X1014Y222*
X1040Y187D02*
Y240D01*
X1071*
X1080Y235*
X1084Y226*
X1080Y218*
X1071Y213*
X1040*
X1124Y187D02*
X1141D01*
X1132D02*
Y240D01*
X1124D02*
X1141D01*
X1180Y205D02*
Y222D01*
X1185Y231*
X1189Y235*
X1198Y240*
X1207*
X1215Y235*
X1220Y231*
X1224Y222*
Y205*
X1220Y196*
X1215Y191*
X1207Y187*
X1198*
X1189Y191*
X1185Y196*
X1180Y205*
X1351Y213D02*
X1360Y209D01*
X1364Y200*
X1360Y191*
X1351Y187*
X1320*
Y240*
X1351*
X1360Y235*
X1364Y226*
X1360Y218*
X1351Y213*
X1320*
X1390Y200D02*
X1395Y191D01*
X1404Y187*
X1412*
X1421Y191*
X1425Y200*
Y209*
X1421Y218*
X1412Y222*
X1404*
X1395Y218*
X1390Y209*
Y200*
X1460Y218D02*
X1469Y222D01*
X1482*
X1491Y218*
X1495Y209*
Y196*
X1491Y191*
X1482Y187*
X1474*
X1465Y191*
X1460Y196*
Y200*
X1465Y205*
X1474Y209*
X1482*
X1491Y205*
X1495Y200*
Y196D02*
Y187D01*
X1530D02*
Y222D01*
Y209D02*
X1535Y218D01*
X1544Y222*
X1552*
X1561Y218*
X1635Y209D02*
X1631Y218D01*
X1622Y222*
X1614*
X1605Y218*
X1600Y209*
Y200*
X1605Y191*
X1614Y187*
X1622*
X1631Y191*
X1635Y200*
Y187D02*
Y240D01*
X1740D02*
X1762Y187D01*
X1784Y240*
X1819Y187D02*
X1837D01*
X1828D02*
Y240D01*
X1819Y231*
X1885Y187D02*
X1889Y191D01*
X1885Y196*
X1880Y191*
X1885Y187*
X1959D02*
X1977D01*
X1968D02*
Y240D01*
X1959Y231*
X0Y0D02*
M02*
