%FSLAX23Y23*%
%MOIN*%
G04 EasyPC Gerber Version 17.0 Build 3379 *
%ADD89R,0.05512X0.02559*%
%ADD93R,0.03937X0.04291*%
%ADD81R,0.04488X0.06496*%
%ADD79R,0.05500X0.06000*%
%ADD71R,0.05512X0.03504*%
%ADD137R,0.04291X0.03937*%
%ADD91R,0.06300X0.06300*%
%ADD10C,0.00500*%
%ADD11C,0.01000*%
%ADD20C,0.02000*%
%ADD21C,0.03000*%
%ADD70C,0.03200*%
%ADD19C,0.05600*%
%ADD13C,0.06000*%
%ADD76C,0.10000*%
%ADD12C,0.27500*%
%ADD84R,0.06000X0.05500*%
%ADD82R,0.11811X0.06496*%
X0Y0D02*
D02*
D10*
X797Y72D02*
X809D01*
X803D02*
Y109D01*
X797Y103*
X3752Y426D02*
X5253D01*
Y798*
X3752*
Y426*
X4650Y596D02*
G75*
G02X4580Y600I-35J4D01*
G01*
G75*
G02X4650Y605I36*
G01*
Y638*
X4784*
Y610*
G75*
G02X4853Y599I34J-11*
G01*
G75*
G02X4784Y588I-36*
G01*
Y558*
X4650*
Y596*
X4681Y522D02*
G75*
G02X4752I36D01*
G01*
G75*
G02X4681I-36*
G01*
X4683Y675D02*
G75*
G02X4754I36D01*
G01*
G75*
G02X4683I-36*
G01*
X3752Y598D02*
G36*
Y522D01*
X4681*
G75*
G02X4752I36*
G01*
X5253*
Y598*
X4853*
G75*
G02X4784Y588I-35J1*
G01*
Y558*
X4650*
Y596*
G75*
G02X4580Y598I-35J4*
G01*
X3752*
G37*
X4580D02*
G36*
G75*
G02X4580Y600I35J2D01*
G01*
G75*
G02X4650Y605I36*
G01*
Y638*
X4784*
Y610*
G75*
G02X4853Y599I34J-11*
G01*
G75*
G02Y598I-36J0*
G01*
X5253*
Y675*
X4754*
G75*
G02X4683I-36*
G01*
X3752*
Y598*
X4580*
G37*
X3752Y522D02*
G36*
Y426D01*
X5253*
Y522*
X4752*
G75*
G02X4681I-36*
G01*
X3752*
G37*
X4683Y675D02*
G36*
G75*
G02X4754I36D01*
G01*
X5253*
Y798*
X3752*
Y675*
X4683*
G37*
D02*
D11*
X153Y3748D02*
Y3678D01*
X282Y3548*
X1153*
X1163Y3538*
Y3088*
X1123Y3048*
X1070*
X1067Y3050*
X303Y3748D02*
Y3678D01*
X413Y3568*
X1163*
X1183Y3548*
Y2848*
X1138Y2803*
X1070*
X1067Y2800*
X453Y3748D02*
Y3679D01*
X544Y3588*
X1173*
X1202Y3558*
Y2593*
X1163Y2553*
X1070*
X1067Y2550*
X560Y1300D02*
X510D01*
X507Y1298*
X560Y1388D02*
X538D01*
X507Y1418*
X560Y1450D02*
X540D01*
X507Y1418*
X560Y1550D02*
X510D01*
X507Y1553*
X560Y1638D02*
X538D01*
X507Y1668*
X560Y1700D02*
X555D01*
X553Y1698*
X538*
X507Y1668*
X560Y1800D02*
X510D01*
X507Y1803*
X560Y1888D02*
X558D01*
X553Y1893*
X532*
X507Y1918*
X560Y1950D02*
X540D01*
X507Y1918*
X560Y2050D02*
X510D01*
X507Y2053*
X560Y2138D02*
X538D01*
X507Y2168*
X560Y2200D02*
X540D01*
X507Y2168*
X560Y2300D02*
X555D01*
X553Y2297*
X507*
X560Y2388D02*
X538D01*
X507Y2418*
X560Y2450D02*
X558Y2447D01*
X538*
X507Y2418*
X560Y2550D02*
X510D01*
X507Y2553*
X560Y2638D02*
X538D01*
X507Y2668*
X560Y2700D02*
X540D01*
X507Y2668*
X560Y2800D02*
X510D01*
X507Y2803*
X560Y2888D02*
X538D01*
X507Y2918*
X560Y2950D02*
X540D01*
X507Y2918*
X560Y3050D02*
X555D01*
X553Y3048*
X507*
X560Y3138D02*
X538D01*
X507Y3168*
X560Y3200D02*
X555D01*
X553Y3198*
X538*
X507Y3168*
X603Y3748D02*
Y3679D01*
X674Y3608*
X1183*
X1223Y3568*
Y2342*
X1183Y2303*
X1070*
X1067Y2300*
X630Y1388D02*
Y1355D01*
X618Y1343*
X488*
X463Y1318*
Y1075*
X490Y1048*
X1963*
X2258Y1343*
Y1683*
X2328Y1753*
X2403*
X630Y1450D02*
X650D01*
X678Y1478*
X630Y1700D02*
X650D01*
X678Y1728*
X630Y1888D02*
Y1855D01*
X618Y1843*
X458*
X413Y1798*
Y1052*
X467Y998*
X1983*
X2313Y1328*
Y1518*
X2348Y1553*
X2403*
X630Y1950D02*
X650D01*
X678Y1978*
X630Y2200D02*
X650D01*
X678Y2228*
X630Y2388D02*
Y2355D01*
X618Y2342*
X423*
X363Y2283*
Y1035*
X450Y948*
X2003*
X2408Y1353*
X2403*
X630Y2450D02*
X650D01*
X678Y2478*
X630Y2638D02*
Y2600D01*
X623Y2593*
X388*
X338Y2543*
Y1026*
X441Y923*
X2013*
X2342Y1252*
X2403*
X630Y2700D02*
X650D01*
X678Y2728*
X630Y2950D02*
X650D01*
X678Y2978*
X630Y3138D02*
Y3105D01*
X618Y3093*
X488*
X468Y3073*
Y2963*
X288Y2783*
Y1006*
X421Y873*
X2043*
Y877*
X2217Y1053*
X2403*
X630Y3200D02*
X650D01*
X678Y3228*
X703Y1288D02*
Y1243D01*
X703Y1242*
X703Y1338D02*
X668D01*
X630Y1300*
X703Y1388D02*
X630D01*
X703Y1438D02*
X643D01*
X630Y1450*
X703Y1538D02*
X693D01*
X658Y1503*
X578*
X558Y1483*
Y1453*
X560Y1450*
X703Y1588D02*
X668D01*
X630Y1550*
X703Y1638D02*
X630D01*
X703Y1688D02*
X643D01*
X630Y1700*
X703Y1788D02*
X703D01*
X698Y1783*
X688*
X658Y1753*
X583*
X563Y1733*
Y1703*
X560Y1700*
X703Y1838D02*
X668D01*
X630Y1800*
X703Y1888D02*
X630D01*
X703Y1938D02*
X643D01*
X630Y1950*
X703Y2038D02*
Y2033D01*
X703Y2033*
X683*
X653Y2003*
X578*
X558Y1983*
Y1953*
X560Y1950*
X703Y2088D02*
X668D01*
X630Y2050*
X703Y2138D02*
X630D01*
X703Y2188D02*
X643D01*
X630Y2200*
X703Y2288D02*
X688D01*
X653Y2253*
X578*
X558Y2233*
Y2203*
X560Y2200*
X703Y2338D02*
X668D01*
X630Y2300*
X703Y2388D02*
X630D01*
X703Y2438D02*
X643D01*
X630Y2450*
X703Y2538D02*
X688D01*
X653Y2503*
X583*
X563Y2483*
Y2453*
X560Y2450*
X703Y2588D02*
X698D01*
X693Y2583*
X663*
X630Y2550*
X703Y2638D02*
X630D01*
X703Y2688D02*
X643D01*
X630Y2700*
X703Y2788D02*
X693D01*
X653Y2748*
X578*
X563Y2733*
Y2703*
X560Y2700*
X703Y2838D02*
X703D01*
X698Y2833*
X663*
X630Y2800*
X703Y2888D02*
X630D01*
X703Y2938D02*
X643D01*
X630Y2950*
X703Y3038D02*
X688D01*
X653Y3003*
X583*
X563Y2983*
Y2953*
X560Y2950*
X703Y3088D02*
X698D01*
X693Y3083*
X663*
X630Y3050*
X703Y3138D02*
X630D01*
X703Y3188D02*
X643D01*
X630Y3200*
X753Y3748D02*
Y3684D01*
X809Y3628*
X1192*
X1242Y3578*
Y2098*
X1198Y2053*
X1070*
X1067Y2050*
X903Y3748D02*
Y3684D01*
X939Y3648*
X1202*
X1263Y3588*
Y1843*
X1223Y1803*
X1070*
X1067Y1800*
X912Y1338D02*
Y1333D01*
X913Y1333*
X965*
X998Y1300*
X912Y1388D02*
X953D01*
X958Y1393*
Y1453*
X968Y1463*
X998*
X912Y1588D02*
X960D01*
X998Y1550*
X912Y1638D02*
X953D01*
X958Y1643*
Y1703*
X968Y1713*
X998*
X912Y1838D02*
X960D01*
X998Y1800*
X912Y1888D02*
X948D01*
X958Y1898*
Y1948*
X973Y1963*
X998*
X912Y2088D02*
X960D01*
X998Y2050*
X912Y2138D02*
X953D01*
X958Y2143*
Y2203*
X968Y2213*
X998*
X912Y2338D02*
X960D01*
X998Y2300*
X912Y2388D02*
X953D01*
X958Y2393*
Y2453*
X968Y2463*
X998*
X912Y2588D02*
X960D01*
X998Y2550*
X912Y2638D02*
X948D01*
X958Y2648*
Y2698*
X973Y2713*
X998*
X912Y2838D02*
X960D01*
X998Y2800*
X912Y2888D02*
X953D01*
X958Y2893*
Y2953*
X968Y2963*
X998*
X912Y3088D02*
X960D01*
X998Y3050*
X912Y3138D02*
X953D01*
X958Y3143*
Y3188*
X968Y3198*
X995*
X998Y3200*
Y1400D02*
Y1358D01*
X1008Y1348*
X1058*
X1067Y1338*
Y1300*
X998Y1463D02*
X968D01*
X948Y1483*
X998Y1650D02*
Y1608D01*
X1008Y1598*
X1058*
X1067Y1588*
Y1550*
X998Y1713D02*
X968D01*
X948Y1733*
X998Y1900D02*
Y1863D01*
X1008Y1853*
X1058*
X1067Y1843*
Y1800*
X998Y1963D02*
X968D01*
X948Y1983*
X998Y2150D02*
Y2108D01*
X1008Y2098*
X1058*
X1067Y2088*
Y2050*
X998Y2213D02*
X968D01*
X948Y2233*
X998Y2400D02*
Y2358D01*
X1008Y2348*
X1058*
X1067Y2338*
Y2300*
X998Y2463D02*
X963D01*
X943Y2483*
X998Y2650D02*
Y2613D01*
X1008Y2603*
X1058*
X1067Y2593*
Y2550*
X998Y2713D02*
X968D01*
X948Y2733*
X998Y2900D02*
Y2863D01*
X1008Y2853*
X1063*
X1067Y2848*
Y2800*
X998Y2963D02*
X968D01*
X948Y2983*
X998Y3138D02*
Y3103D01*
X1008Y3093*
X1058*
X1067Y3083*
Y3050*
X998Y3200D02*
X980D01*
X948Y3233*
X1053Y3748D02*
Y3684D01*
X1069Y3668*
X1213*
X1283Y3598*
Y1588*
X1245Y1550*
X1067*
Y1400D02*
X1085D01*
X1117Y1433*
X1067Y1463D02*
X1088D01*
X1117Y1433*
X1067Y1650D02*
X1070D01*
X1073Y1648*
X1083*
X1117Y1683*
X1067Y1713D02*
X1088D01*
X1117Y1683*
X1067Y1900D02*
X1085D01*
X1117Y1933*
X1067Y1963D02*
X1088D01*
X1117Y1933*
X1067Y2150D02*
X1085D01*
X1117Y2183*
X1067Y2213D02*
X1088D01*
X1117Y2183*
X1067Y2400D02*
X1085D01*
X1117Y2433*
X1067Y2463D02*
X1088D01*
X1117Y2433*
X1067Y2650D02*
X1085D01*
X1117Y2683*
X1067Y2713D02*
X1088D01*
X1117Y2683*
X1067Y2900D02*
X1085D01*
X1117Y2933*
X1067Y2963D02*
X1088D01*
X1117Y2933*
X1067Y3138D02*
X1088D01*
X1117Y3168*
X1067Y3200D02*
X1085D01*
X1117Y3168*
X1202Y3748D02*
Y3743D01*
X1303Y3643*
Y1343*
X1260Y1300*
X1067*
X1453Y3748D02*
X1448D01*
Y3738*
X1353Y3643*
Y1493*
X1408Y1438*
X1568*
Y1275D02*
X1550D01*
X1518Y1308*
X1568Y1338D02*
Y1343D01*
X1553*
X1518Y1308*
X1568Y1525D02*
X1548D01*
X1518Y1555*
X1568Y1588D02*
X1550D01*
X1518Y1555*
X1568Y1775D02*
X1548D01*
X1518Y1805*
X1568Y1838D02*
X1550D01*
X1518Y1805*
X1568Y2025D02*
X1548D01*
X1518Y2055*
X1568Y2088D02*
X1550D01*
X1518Y2055*
X1568Y2275D02*
X1548D01*
X1518Y2305*
X1568Y2338D02*
X1550D01*
X1518Y2305*
X1568Y2525D02*
X1563Y2530D01*
X1543*
X1518Y2555*
X1568Y2588D02*
X1550D01*
X1518Y2555*
X1568Y2688D02*
X1503D01*
X1453Y2738*
Y3553*
X1488Y3588*
X2138*
X2203Y3653*
Y3748*
X1580Y2775D02*
X1560D01*
X1530Y2805*
X1580Y2838D02*
X1563D01*
X1530Y2805*
X1580Y3025D02*
X1560D01*
X1530Y3055*
X1580Y3088D02*
X1578D01*
X1575Y3090*
X1565*
X1530Y3055*
X1603Y3748D02*
Y3688D01*
X1583Y3668*
X1448*
X1373Y3593*
Y1738*
X1423Y1688*
X1568*
X1638Y1275D02*
X1670D01*
X1688Y1258*
X1638Y1338D02*
Y1380D01*
X1628Y1390*
X1578*
X1568Y1400*
Y1438*
X1638Y1525D02*
X1668D01*
X1688Y1505*
X1638Y1588D02*
Y1625D01*
X1628Y1635*
X1578*
X1568Y1645*
Y1688*
X1638Y1775D02*
X1668D01*
X1688Y1755*
X1638Y1838D02*
Y1880D01*
X1628Y1890*
X1578*
X1568Y1900*
Y1938*
X1638Y2025D02*
X1668D01*
X1688Y2005*
X1638Y2088D02*
Y2130D01*
X1628Y2140*
X1578*
X1568Y2150*
Y2188*
X1638Y2275D02*
X1668D01*
X1688Y2255*
X1638Y2338D02*
Y2380D01*
X1628Y2390*
X1578*
X1568Y2400*
Y2438*
X1638Y2525D02*
X1668D01*
X1688Y2505*
X1638Y2588D02*
Y2630D01*
X1628Y2640*
X1578*
X1568Y2650*
Y2688*
X1650Y2775D02*
X1680D01*
X1700Y2755*
X1650Y2838D02*
Y2880D01*
X1640Y2890*
X1590*
X1580Y2900*
Y2938*
X1650Y3025D02*
X1680D01*
X1700Y3005*
X1650Y3088D02*
Y3130D01*
X1640Y3140*
X1590*
X1580Y3150*
Y3188*
X1723Y1350D02*
X1683D01*
X1678Y1345*
Y1285*
X1668Y1275*
X1638*
X1723Y1400D02*
X1675D01*
X1638Y1438*
X1723Y1600D02*
X1683D01*
X1678Y1595*
Y1535*
X1668Y1525*
X1638*
X1723Y1650D02*
X1675D01*
X1638Y1688*
X1723Y1850D02*
X1683D01*
X1678Y1845*
Y1785*
X1668Y1775*
X1638*
X1723Y1900D02*
X1675D01*
X1638Y1938*
X1723Y2100D02*
X1688D01*
X1678Y2090*
Y2035*
X1668Y2025*
X1638*
X1723Y2150D02*
X1675D01*
X1638Y2188*
X1723Y2350D02*
X1683D01*
X1678Y2345*
Y2290*
X1663Y2275*
X1638*
X1723Y2400D02*
X1675D01*
X1638Y2438*
X1723Y2600D02*
X1683D01*
X1678Y2595*
Y2535*
X1668Y2525*
X1638*
X1723Y2650D02*
X1675D01*
X1638Y2688*
X1736Y2850D02*
X1700D01*
X1690Y2840*
Y2785*
X1680Y2775*
X1650*
X1736Y2900D02*
X1730D01*
X1725Y2905*
X1683*
X1650Y2938*
X1736Y3100D02*
X1695D01*
X1690Y3095*
Y3040*
X1675Y3025*
X1650*
X1736Y3150D02*
X1688D01*
X1650Y3188*
X1753Y3748D02*
Y3685D01*
X1715Y3648*
X1458*
X1393Y3583*
Y1983*
X1438Y1938*
X1568*
X1903Y3748D02*
Y3685D01*
X1845Y3628*
X1468*
X1413Y3572*
Y2233*
X1458Y2188*
X1568*
X1932Y1300D02*
X1993D01*
X2005Y1288*
X1932Y1350D02*
X2005D01*
X1932Y1400D02*
X1968D01*
X2005Y1438*
X1932Y1450D02*
X1935D01*
X1938Y1453*
X1942*
X1978Y1488*
X2063*
X2078Y1503*
Y1535*
X2075Y1538*
X1932Y1550D02*
X1993D01*
X2005Y1538*
X1932Y1600D02*
X2005D01*
X1932Y1650D02*
X1968D01*
X2005Y1688*
X1932Y1700D02*
Y1702D01*
X1933Y1703*
X1948*
X1983Y1738*
X2058*
X2078Y1758*
Y1785*
X2075Y1788*
X1932Y1800D02*
Y1798D01*
X1933Y1798*
X1995*
X2005Y1788*
X1932Y1850D02*
X2005D01*
X1932Y1900D02*
X1968D01*
X2005Y1938*
X1932Y1950D02*
X1935D01*
X1938Y1953*
X1948*
X1983Y1988*
X2063*
X2078Y2003*
Y2035*
X2075Y2038*
X1932Y2050D02*
Y2048D01*
X1933Y2047*
X1995*
X2005Y2038*
X1932Y2100D02*
X2005D01*
X1932Y2150D02*
X1968D01*
X2005Y2188*
X1932Y2200D02*
Y2202D01*
X1938Y2208*
X1953*
X1983Y2238*
X2063*
X2078Y2253*
Y2285*
X2075Y2288*
X1932Y2300D02*
X1993D01*
X2005Y2288*
X1932Y2350D02*
X2005D01*
X1932Y2400D02*
X1968D01*
X2005Y2438*
X1932Y2450D02*
X1940D01*
X1978Y2488*
X2053*
X2072Y2508*
Y2535*
X2075Y2538*
X1932Y2550D02*
X1993D01*
X2005Y2538*
X1932Y2600D02*
X2005D01*
X1932Y2650D02*
X1968D01*
X2005Y2688*
X1932Y2700D02*
Y2702D01*
X1933Y2703*
X1953*
X1988Y2738*
X2067*
X2088Y2758*
Y2788*
X1944Y2800D02*
X2005D01*
X2018Y2788*
X1944Y2850D02*
X2018D01*
X1944Y2900D02*
X1945D01*
X1950Y2905*
X1985*
X2018Y2938*
X1944Y2950D02*
X1955D01*
X1993Y2988*
X2067*
X2088Y3008*
Y3038*
X1944Y3100D02*
X2018D01*
X1944Y3150D02*
X1945D01*
X1950Y3155*
X1985*
X2018Y3188*
X1944Y3200D02*
Y3226D01*
X1928Y3243*
X2005Y1288D02*
X2003D01*
X1998Y1283*
X1983*
X1958Y1258*
X2005Y1538D02*
X1983D01*
X1953Y1508*
X2005Y1788D02*
X1988D01*
X1958Y1758*
X2005Y2038D02*
X1988D01*
X1958Y2008*
X2005Y2100D02*
Y2115D01*
X2008Y2118*
Y2133*
X2018Y2143*
X2358*
X2368Y2153*
X2403*
X2005Y2288D02*
X1988D01*
X1958Y2258*
X2005Y2538D02*
X1983D01*
X1948Y2503*
X2018Y2788D02*
X1993D01*
X1958Y2753*
X2018Y3038D02*
X1998D01*
X1968Y3008*
X2053Y343D02*
Y358D01*
Y3748D02*
Y3685D01*
X1975Y3608*
X1478*
X1433Y3563*
Y2493*
X1488Y2438*
X1568*
X2075Y1288D02*
X2098D01*
X2130Y1320*
X2075Y1350D02*
Y1353D01*
X2098*
X2130Y1320*
X2075Y1438D02*
X2125D01*
X2075Y1538D02*
X2098D01*
X2128Y1568*
X2075Y1600D02*
X2095D01*
X2128Y1568*
X2075Y1688D02*
X2128D01*
X2075Y1788D02*
X2098D01*
X2128Y1817*
X2075Y1850D02*
X2078Y1847D01*
X2098*
X2128Y1817*
X2075Y1938D02*
X2128D01*
X2075Y2038D02*
X2098D01*
X2128Y2067*
X2075Y2100D02*
X2080D01*
X2083Y2098*
X2098*
X2128Y2067*
X2075Y2188D02*
X2128D01*
X2075Y2288D02*
X2098D01*
X2128Y2317*
X2075Y2350D02*
X2095D01*
X2128Y2317*
X2075Y2438D02*
X2130D01*
X2075Y2538D02*
X2098D01*
X2128Y2568*
X2075Y2600D02*
X2095D01*
X2128Y2568*
X2075Y2688D02*
X2128D01*
X2088Y2788D02*
X2108D01*
X2138Y2818*
X2088Y2850D02*
X2105D01*
X2138Y2818*
X2088Y2938D02*
X2138D01*
X2088Y3038D02*
X2108D01*
X2138Y3068*
X2088Y3100D02*
X2105D01*
X2138Y3068*
X2088Y3188D02*
X2138D01*
X2148Y343D02*
Y348D01*
X2353Y3748D02*
Y3683D01*
X2238Y3568*
X1498*
X1473Y3543*
Y2978*
X1513Y2938*
X1580*
X2403Y1153D02*
X2283D01*
X2028Y898*
X434*
X313Y1019*
Y2773*
X388Y2848*
X623*
X632Y2858*
Y2885*
X630Y2888*
X2403Y1453D02*
X2353D01*
X2338Y1438*
Y1318*
X1993Y973*
X458*
X388Y1043*
Y2033*
X453Y2098*
X623*
X632Y2108*
Y2135*
X630Y2138*
X2403Y1653D02*
X2338D01*
X2288Y1603*
Y1338*
X1972Y1023*
X476*
X438Y1061*
Y1553*
X477Y1593*
X618*
X632Y1608*
Y1635*
X630Y1638*
X2403Y1853D02*
X2297D01*
X2233Y1788*
Y1443*
X2183Y1393*
X2023*
X2008Y1378*
Y1353*
X2005Y1350*
X2403Y1953D02*
X2297D01*
X2208Y1863*
Y1683*
X2168Y1643*
X2023*
X2008Y1628*
Y1603*
X2005Y1600*
X2403Y2053D02*
X2363D01*
X2203Y1893*
X2023*
X2008Y1878*
Y1853*
X2005Y1850*
X2403Y2253D02*
X2363D01*
X2223Y2393*
X2018*
X2008Y2383*
Y2353*
X2005Y2350*
X2403Y2353D02*
X2303D01*
X2233Y2422*
Y2583*
X2172Y2643*
X2018*
X2008Y2633*
Y2603*
X2005Y2600*
X2403Y2453D02*
X2308D01*
X2258Y2503*
Y2838*
X2203Y2893*
X2033*
X2018Y2878*
Y2850*
X2403Y2553D02*
X2322D01*
X2288Y2588*
Y3098*
X2243Y3143*
X2038*
X2018Y3123*
Y3100*
X2503Y3748D02*
Y3685D01*
X2365Y3548*
X1508*
X1493Y3533*
Y3228*
X1533Y3188*
X1580*
X2626Y2937D02*
Y2880D01*
X2626Y3080D02*
Y3007D01*
X2626Y3007*
X2626Y3150D02*
Y3209D01*
X2627Y3217*
X2626*
X2786Y2939D02*
Y2787D01*
X2703Y2704*
Y303*
X2652Y252*
X2553*
X2403Y253*
X2786Y3082D02*
Y3080D01*
X2784Y3079*
Y3010*
X2786Y3009*
X2786Y3152D02*
X2786D01*
Y3219*
X2853Y3748D02*
Y3698D01*
X2998Y3553*
X3813*
X3848Y3518*
Y3049*
X3798Y2999*
X3720*
X3680Y3039*
Y3058*
X3003Y1053D02*
X3173D01*
X3358Y868*
X4843*
X4983Y1007*
Y2983*
X4947Y3018*
X4706*
X4705Y3016*
X3003Y1153D02*
X3108D01*
X3363Y898*
X4840*
X4963Y1020*
Y2723*
X4913Y2773*
X4705*
X4704Y2772*
X3003Y1252D02*
X3048D01*
X3382Y918*
X4828*
X4943Y1032*
Y2463*
X4878Y2528*
X4704*
X4704Y2527*
X3003Y1353D02*
X3038D01*
X3063Y1328*
Y1273*
X3393Y943*
X4819*
X4923Y1046*
Y2233*
X4872Y2283*
X4706*
X4704Y2285*
X3003Y1453D02*
X3063D01*
X3093Y1423*
Y1283*
X3408Y968*
X4810*
X4903Y1060*
Y1983*
X4853Y2033*
X4713*
X4707Y2038*
X3003Y1553D02*
X3093D01*
X3123Y1523*
Y1288*
X3418Y993*
X4800*
X4883Y1075*
Y1758*
X4848Y1793*
X4713*
X4710Y1796*
X4705*
X3003Y1653D02*
X3103D01*
X3153Y1603*
Y1298*
X3432Y1018*
X4793*
X4863Y1088*
Y1513*
X4822Y1553*
X4706*
X4705Y1551*
X3003Y3748D02*
Y3690D01*
X3120Y3572*
X3828*
X3873Y3528*
Y2808*
X3823Y2758*
X3717*
X3680Y2794*
Y2814*
X3153Y3748D02*
Y3684D01*
X3244Y3593*
X3843*
X3893Y3543*
Y2570*
X3840Y2517*
X3719*
X3680Y2556*
Y2575*
X3303Y3748D02*
Y3685D01*
X3375Y3613*
X3858*
X3913Y3558*
Y2332*
X3856Y2276*
X3718*
X3680Y2314*
Y2333*
X3316Y2460D02*
X3310D01*
X3308Y2458*
X3263*
X3238Y2433*
Y2388*
X3103Y2253*
X3003*
X3316Y2703D02*
X3238D01*
X3203Y2668*
Y2418*
X3138Y2353*
X3003*
X3317Y2218D02*
X3193D01*
X3128Y2153*
X3003*
X3318Y1488D02*
X3218D01*
X3213Y1493*
Y1778*
X3138Y1853*
X3003*
X3319Y1731D02*
X3316D01*
X3313Y1728*
X3257*
X3238Y1748*
Y1873*
X3158Y1953*
X3003*
X3319Y1973D02*
X3207D01*
X3128Y2053*
X3003*
X3320Y2943D02*
X3313D01*
X3313Y2943*
X3203*
X3168Y2908*
Y2503*
X3118Y2453*
X3003*
X3320Y3185D02*
X3175D01*
X3138Y3148*
Y2588*
X3103Y2553*
X3003*
X3395Y1367D02*
X3338D01*
X3338Y1368*
X3395Y1417D02*
X3388D01*
X3388Y1418*
X3318*
X3395Y1611D02*
X3394D01*
X3393Y1613*
X3338*
X3395Y1661D02*
X3319D01*
X3319Y1661*
X3395Y1853D02*
X3388D01*
X3388Y1853*
X3338*
X3395Y1903D02*
X3319D01*
X3319Y1903*
X3395Y2097D02*
X3388D01*
X3388Y2098*
X3338*
X3395Y2147D02*
X3318D01*
X3317Y2148*
X3395Y2340D02*
X3390D01*
X3388Y2338*
X3338*
X3395Y2390D02*
X3395D01*
X3393Y2388*
X3318*
X3316Y2390*
X3395Y2582D02*
X3393D01*
X3393Y2583*
X3338*
X3395Y2632D02*
X3388D01*
X3388Y2633*
X3317*
X3316Y2633*
X3395Y2823D02*
X3388D01*
X3388Y2823*
X3338*
X3395Y2873D02*
X3320D01*
X3320Y2873*
X3395Y3065D02*
X3395D01*
X3393Y3063*
X3338*
X3395Y3115D02*
X3320D01*
X3320Y3115*
X3453Y3748D02*
Y3685D01*
X3505Y3632*
X3873*
X3933Y3572*
Y2082*
X3884Y2033*
X3722*
X3680Y2074*
Y2089*
X3603Y3748D02*
Y3680D01*
X3630Y3653*
X3888*
X3953Y3588*
Y1836*
X3904Y1787*
X3724*
X3680Y1831*
Y1843*
X3604Y1317D02*
X3612D01*
X3613Y1315*
X3658*
X3663Y1310*
X3604Y1367D02*
X3608D01*
X3608Y1367*
X3672*
X3678Y1360*
X3604Y1417D02*
X3613D01*
X3613Y1417*
X3670*
X3678Y1424*
X3604Y1467D02*
Y1495D01*
X3624Y1515*
X3604Y1561D02*
X3604D01*
X3606Y1560*
X3657*
X3665Y1551*
X3604Y1611D02*
X3608D01*
X3608Y1611*
X3672*
X3679Y1604*
X3604Y1661D02*
X3611D01*
X3611Y1661*
X3672*
X3679Y1669*
X3604Y1711D02*
Y1719D01*
X3607Y1722*
Y1739*
X3627Y1758*
X3604Y1803D02*
X3653D01*
X3664Y1792*
X3604Y1853D02*
X3670D01*
X3680Y1843*
X3604Y1903D02*
X3618D01*
X3619Y1905*
X3673*
X3680Y1912*
X3604Y1953D02*
Y1955D01*
X3604Y1956*
Y1978*
X3627Y2001*
X3604Y2047D02*
X3656D01*
X3664Y2038*
X3604Y2097D02*
X3673D01*
X3680Y2089*
X3604Y2147D02*
X3608D01*
X3611Y2149*
X3674*
X3680Y2155*
X3604Y2197D02*
Y2219D01*
X3629Y2244*
X3604Y2290D02*
X3604D01*
X3604Y2290*
X3654*
X3663Y2281*
X3604Y2340D02*
X3607D01*
X3608Y2341*
X3672*
X3680Y2333*
X3604Y2390D02*
X3624D01*
X3626Y2391*
X3674*
X3680Y2397*
X3604Y2440D02*
Y2441D01*
X3606Y2442*
Y2461*
X3631Y2486*
X3604Y2532D02*
X3606D01*
X3608Y2530*
X3658*
X3663Y2525*
X3604Y2582D02*
X3609D01*
X3609Y2582*
X3673*
X3680Y2575*
X3604Y2632D02*
X3606D01*
X3607Y2633*
X3673*
X3680Y2641*
X3604Y2682D02*
Y2699D01*
X3631Y2726*
X3604Y2773D02*
X3608D01*
X3609Y2772*
X3655*
X3663Y2764*
X3604Y2823D02*
X3611D01*
X3611Y2823*
X3672*
X3680Y2814*
X3604Y2873D02*
X3619D01*
X3621Y2874*
X3675*
X3680Y2879*
X3604Y2923D02*
Y2942D01*
X3629Y2968*
X3604Y3015D02*
X3656D01*
X3665Y3005*
X3604Y3065D02*
X3617D01*
X3618Y3064*
X3674*
X3680Y3058*
X3604Y3115D02*
X3672D01*
X3680Y3124*
X3604Y3165D02*
Y3183D01*
X3631Y3210*
X3678Y1489D02*
X3650D01*
X3624Y1515*
X3679Y1734D02*
X3652D01*
X3627Y1758*
X3680Y1981D02*
X3647D01*
X3627Y2001*
X3680Y2222D02*
X3652D01*
X3629Y2244*
X3680Y2464D02*
X3653D01*
X3631Y2486*
X3680Y2706D02*
X3650D01*
X3631Y2726*
X3680Y2944D02*
X3677D01*
X3675Y2945*
X3652*
X3629Y2968*
X3680Y3189D02*
X3675D01*
X3674Y3190*
X3650*
X3631Y3210*
X3748Y1360D02*
X3797D01*
X3748Y1424D02*
X3765D01*
X3798Y1456*
X3748Y1489D02*
X3765D01*
X3798Y1456*
X3749Y1604D02*
X3799D01*
X3749Y1669D02*
X3753D01*
X3754Y1667*
X3764*
X3799Y1702*
X3749Y1734D02*
X3768D01*
X3799Y1702*
X3750Y1843D02*
X3800D01*
X3750Y1912D02*
X3764D01*
X3799Y1947*
X3750Y1981D02*
X3765D01*
X3799Y1947*
X3750Y2089D02*
X3800D01*
X3750Y2155D02*
X3760D01*
X3763Y2158*
X3769*
X3802Y2190*
X3750Y2222D02*
X3770D01*
X3802Y2190*
X3750Y2333D02*
Y2333D01*
X3752Y2334*
X3800*
X3750Y2397D02*
X3765D01*
X3799Y2431*
X3750Y2464D02*
X3767D01*
X3799Y2431*
X3750Y2575D02*
X3799D01*
X3750Y2641D02*
X3759D01*
X3763Y2645*
X3770*
X3800Y2675*
X3750Y2706D02*
X3769D01*
X3800Y2675*
X3750Y2814D02*
X3799D01*
X3750Y2879D02*
Y2879D01*
X3752Y2880*
X3769*
X3800Y2912*
X3750Y2944D02*
Y2944D01*
X3752Y2943*
X3769*
X3800Y2912*
X3750Y3058D02*
X3799D01*
X3750Y3124D02*
X3767D01*
X3800Y3158*
X3750Y3189D02*
X3769D01*
X3800Y3158*
X3753Y3748D02*
Y3688D01*
X3763Y3678*
X3898*
X3977Y3598*
Y1595*
X3926Y1544*
X3724*
X3679Y1589*
Y1604*
X3903Y3748D02*
X4001Y3649D01*
Y1354*
X3950Y1303*
X3720*
X3678Y1345*
Y1360*
X4153Y3748D02*
X4148D01*
X4046Y3646*
Y1550*
X4109Y1488*
X4314*
X4346Y1456*
Y1436*
X4221Y1578D02*
X4253Y1545D01*
X4274*
X4276Y1544*
X4273Y2522D02*
X4250D01*
X4220Y2552*
X4273Y2590D02*
X4257D01*
X4220Y2552*
X4273Y2658D02*
X4220D01*
X4273Y3013D02*
X4253D01*
X4220Y3046*
X4273Y3080D02*
X4253D01*
X4220Y3046*
X4273Y3148D02*
X4221D01*
X4274Y2032D02*
X4255D01*
X4221Y2065*
X4274Y2099D02*
X4255D01*
X4221Y2065*
X4274Y2168D02*
X4220D01*
X4274Y2280D02*
X4257D01*
X4222Y2315*
X4274Y2348D02*
X4255D01*
X4222Y2315*
X4274Y2415D02*
X4218D01*
X4274Y2766D02*
X4258D01*
X4222Y2802*
X4274Y2834D02*
X4255D01*
X4222Y2802*
X4274Y2902D02*
X4222D01*
X4276Y1302D02*
X4255D01*
X4221Y1335*
X4276Y1369D02*
X4255D01*
X4221Y1335*
X4276Y1436D02*
X4220D01*
X4276Y1614D02*
X4257D01*
X4221Y1578*
X4276Y1682D02*
X4218D01*
X4276Y1791D02*
X4256D01*
X4222Y1825*
X4276Y1858D02*
X4256D01*
X4222Y1825*
X4276Y1926D02*
X4220D01*
X4303Y3748D02*
Y3689D01*
X4291Y3678*
X4153*
X4073Y3598*
Y1793*
X4128Y1737*
X4291*
X4346Y1682*
X4343Y2522D02*
X4374D01*
X4394Y2502*
X4343Y3013D02*
X4373D01*
X4394Y2992*
X4344Y2032D02*
X4377D01*
X4396Y2013*
X4344Y2280D02*
X4376D01*
X4398Y2258*
X4344Y2766D02*
X4378D01*
X4399Y2744*
X4346Y1302D02*
X4376D01*
X4397Y1280*
X4346Y1544D02*
X4379D01*
X4397Y1526*
X4346Y1791D02*
X4348D01*
X4349Y1790*
X4378*
X4399Y1768*
X4422Y1327D02*
Y1306D01*
X4397Y1280*
X4422Y1377D02*
X4414D01*
X4414Y1377*
X4353*
X4346Y1369*
X4422Y1427D02*
X4356D01*
X4346Y1436*
X4422Y1477D02*
Y1477D01*
X4421Y1479*
X4371*
X4362Y1488*
X4422Y1571D02*
X4417D01*
X4417Y1571*
Y1546*
X4397Y1526*
X4422Y1621D02*
X4406D01*
X4404Y1620*
X4352*
X4346Y1614*
X4422Y1671D02*
X4420D01*
X4419Y1672*
X4356*
X4346Y1682*
X4422Y1721D02*
X4375D01*
X4362Y1735*
X4422Y1816D02*
Y1791D01*
X4399Y1768*
X4422Y1866D02*
X4353D01*
X4346Y1858*
X4422Y1916D02*
X4418D01*
X4418Y1916*
X4356*
X4346Y1926*
X4422Y1966D02*
X4372D01*
X4361Y1977*
X4422Y2059D02*
Y2040D01*
X4396Y2013*
X4422Y2109D02*
X4354D01*
X4344Y2099*
X4422Y2159D02*
X4353D01*
X4344Y2168*
X4422Y2209D02*
X4372D01*
X4362Y2219*
X4422Y2305D02*
Y2282D01*
X4398Y2258*
X4422Y2355D02*
X4352D01*
X4344Y2348*
X4422Y2405D02*
X4419D01*
X4419Y2405*
X4354*
X4344Y2415*
X4422Y2455D02*
X4373D01*
X4362Y2466*
X4422Y2547D02*
Y2530D01*
X4394Y2502*
X4422Y2597D02*
X4351D01*
X4343Y2590*
X4422Y2647D02*
X4354D01*
X4343Y2658*
X4422Y2697D02*
X4374D01*
X4361Y2711*
X4422Y2792D02*
Y2767D01*
X4399Y2744*
X4422Y2842D02*
X4352D01*
X4344Y2834*
X4422Y2892D02*
X4354D01*
X4344Y2902*
X4422Y2942D02*
X4373D01*
X4362Y2953*
X4422Y3038D02*
Y3019D01*
X4394Y2992*
X4422Y3088D02*
X4351D01*
X4343Y3080*
X4422Y3138D02*
X4353D01*
X4343Y3148*
X4422Y3188D02*
X4373D01*
X4361Y3200*
X4453Y3748D02*
Y3690D01*
X4420Y3658*
X4163*
X4095Y3590*
Y2034*
X4151Y1978*
X4308*
X4346Y1941*
Y1926*
X4603Y3748D02*
Y3689D01*
X4551Y3638*
X4173*
X4118Y3583*
Y2281*
X4176Y2223*
X4308*
X4344Y2187*
Y2168*
X4631Y1377D02*
X4707D01*
X4707Y1378*
X4631Y1427D02*
Y1428D01*
X4688*
X4631Y1621D02*
X4705D01*
X4705Y1621*
X4631Y1671D02*
X4686D01*
X4688Y1673*
X4631Y1866D02*
Y1866D01*
X4633Y1868*
X4703*
X4705Y1866*
X4631Y1916D02*
X4686D01*
X4688Y1918*
X4631Y2109D02*
X4706D01*
X4707Y2108*
X4631Y2159D02*
X4686D01*
X4688Y2158*
X4631Y2355D02*
X4704D01*
X4704Y2355*
X4631Y2405D02*
X4690D01*
X4693Y2408*
X4631Y2597D02*
X4704D01*
X4704Y2597*
X4631Y2647D02*
X4687D01*
X4688Y2648*
X4631Y2842D02*
X4704D01*
X4704Y2842*
X4631Y2892D02*
X4687D01*
X4688Y2893*
X4631Y3088D02*
X4704D01*
X4705Y3086*
X4631Y3138D02*
X4687D01*
X4688Y3138*
X4707Y1308D02*
X4788D01*
X4838Y1258*
Y1097*
X4782Y1042*
X3443*
X3183Y1303*
Y1708*
X3138Y1753*
X3003*
X4753Y3748D02*
Y3693D01*
X4677Y3618*
X4183*
X4143Y3578*
Y2576*
X4252Y2466*
X4312*
X4344Y2434*
Y2415*
X4903Y3748D02*
Y3697D01*
X4803Y3598*
X4193*
X4165Y3570*
Y2758*
X4217Y2706*
X4311*
X4343Y2673*
Y2658*
X5053Y3748D02*
Y3700D01*
X4930Y3578*
X4213*
X4189Y3554*
Y2997*
X4228Y2958*
X4288*
X4344Y2902*
X5203Y3748D02*
Y3714D01*
X5046Y3558*
X4223*
X4210Y3545*
Y3241*
X4258Y3192*
X4317*
X4343Y3166*
Y3148*
X5418Y1543D02*
X5417D01*
X5378Y1583*
Y1708*
X5469Y795D02*
Y795D01*
X5476Y1739D02*
Y1740D01*
X5539*
Y1110D02*
Y1110D01*
X5592*
X5539Y1188D02*
Y1188D01*
X5592*
X5539Y1346D02*
Y1347D01*
X5594*
X5539Y1503D02*
Y1503D01*
X5591*
X5539Y1818D02*
X5398D01*
X5378Y1798*
X5539Y1897D02*
X5592D01*
X5592Y1897*
X5539Y1976D02*
X5592D01*
X5592Y1976*
X5591Y2369D02*
X5564D01*
Y2369*
X5539*
X5592Y2213D02*
X5566D01*
Y2212*
X5539*
X5592Y2449D02*
X5566D01*
Y2448*
X5539*
X5593Y2054D02*
X5566D01*
Y2054*
X5539*
X5593Y2133D02*
X5566D01*
Y2133*
X5539*
X5593Y2291D02*
X5564D01*
Y2291*
X5539*
X5593Y2606D02*
X5566D01*
Y2606*
X5539*
X5594Y1818D02*
X5715D01*
Y1818*
X5716*
X5626Y1583D02*
X5672D01*
Y1582*
X5716*
X5626Y1661D02*
X5672D01*
Y1661*
X5716*
X5626Y1740D02*
Y1740D01*
X5716*
X5663Y2054D02*
X5716D01*
X5663Y2133D02*
X5716D01*
X5663Y2212D02*
X5716D01*
X5663Y2291D02*
X5716D01*
X5663Y2369D02*
X5716D01*
X5663Y2448D02*
X5716D01*
X5663Y2606D02*
X5716D01*
Y795D02*
X5784D01*
X5784Y795*
X5716Y1110D02*
Y1110D01*
X5662*
X5716Y1188D02*
Y1188D01*
X5662*
X5716Y1425D02*
X5710D01*
X5710Y1425*
X5662*
X5716Y1503D02*
Y1503D01*
X5662*
X5716Y1897D02*
X5662D01*
X5662Y1897*
X5716Y1976D02*
X5662D01*
X5662Y1976*
X5778Y1543D02*
X5418D01*
X5778Y1617D02*
X5606D01*
X5587Y1599*
Y1590*
X5580Y1583*
X5539*
X5539Y1582*
X5780Y1700D02*
X5609D01*
X5590Y1681*
Y1669*
X5581Y1660*
X5539*
X5539Y1661*
D02*
D12*
X278Y278D03*
Y3203D03*
X5628Y278D03*
Y3203D03*
D02*
D13*
X2403Y253D03*
Y353D03*
Y453D03*
Y553D03*
Y653D03*
Y753D03*
Y853D03*
Y953D03*
Y1053D03*
Y1153D03*
Y1252D03*
Y1353D03*
Y1453D03*
Y1553D03*
Y1653D03*
Y1753D03*
Y1853D03*
Y1953D03*
Y2053D03*
Y2153D03*
Y2253D03*
Y2353D03*
Y2453D03*
Y2553D03*
X3003Y253D03*
Y353D03*
Y453D03*
Y553D03*
Y653D03*
Y753D03*
Y853D03*
Y953D03*
Y1053D03*
Y1153D03*
Y1252D03*
Y1353D03*
Y1453D03*
Y1553D03*
Y1653D03*
Y1753D03*
Y1853D03*
Y1953D03*
Y2053D03*
Y2153D03*
Y2253D03*
Y2353D03*
Y2453D03*
Y2553D03*
D02*
D19*
X2103Y423D03*
X4581Y231D03*
X4615Y600D03*
X4717Y522D03*
X4718Y675D03*
X4817Y599D03*
X5463Y2528D03*
Y2683D03*
X5465Y953D03*
X5468Y873D03*
Y1033D03*
Y1268D03*
X5469Y795D03*
X5784D03*
X5788Y873D03*
Y1033D03*
Y1268D03*
Y1348D03*
X5790Y953D03*
X5793Y2528D03*
Y2683D03*
D02*
D70*
X507Y1298D03*
Y1418D03*
Y1553D03*
Y1668D03*
Y1803D03*
Y1918D03*
Y2053D03*
Y2168D03*
Y2297D03*
Y2418D03*
Y2553D03*
Y2668D03*
Y2803D03*
Y2918D03*
Y3048D03*
Y3168D03*
X678Y1478D03*
Y1728D03*
Y1978D03*
Y2228D03*
Y2478D03*
Y2728D03*
Y2978D03*
Y3228D03*
X703Y1242D03*
X943Y2483D03*
X948Y1483D03*
Y1733D03*
Y1983D03*
Y2233D03*
Y2733D03*
Y2983D03*
Y3233D03*
X1117Y1433D03*
Y1683D03*
Y1933D03*
Y2183D03*
Y2433D03*
Y2683D03*
Y2933D03*
Y3168D03*
X1518Y1308D03*
Y1555D03*
Y1805D03*
Y2055D03*
Y2305D03*
Y2555D03*
X1530Y2805D03*
Y3055D03*
X1688Y1258D03*
Y1505D03*
Y1755D03*
Y2005D03*
Y2255D03*
Y2505D03*
X1700Y2755D03*
Y3005D03*
X1928Y3243D03*
X1948Y2503D03*
X1953Y1508D03*
X1958Y1258D03*
Y1758D03*
Y2008D03*
Y2258D03*
Y2753D03*
X1968Y3008D03*
X2125Y1438D03*
X2128Y1568D03*
Y1688D03*
Y1817D03*
Y1938D03*
Y2067D03*
Y2188D03*
Y2317D03*
Y2568D03*
Y2688D03*
X2130Y1320D03*
Y2438D03*
X2138Y2818D03*
Y2938D03*
Y3068D03*
Y3188D03*
X2626Y2880D03*
Y3217D03*
X2786Y3219D03*
X3338Y1368D03*
Y1613D03*
Y1853D03*
Y2098D03*
Y2338D03*
Y2583D03*
Y2823D03*
Y3063D03*
X3624Y1515D03*
X3627Y1758D03*
Y2001D03*
X3629Y2244D03*
Y2968D03*
X3631Y2486D03*
Y2726D03*
Y3210D03*
X3663Y1310D03*
Y2281D03*
Y2525D03*
Y2764D03*
X3664Y1792D03*
Y2038D03*
X3665Y1551D03*
Y3005D03*
X3797Y1360D03*
X3798Y1456D03*
X3799Y1604D03*
Y1702D03*
Y1947D03*
Y2431D03*
Y2575D03*
Y2814D03*
Y3058D03*
X3800Y1843D03*
Y2089D03*
Y2334D03*
Y2675D03*
Y2912D03*
Y3158D03*
X3802Y2190D03*
X4218Y1682D03*
Y2415D03*
X4220Y1436D03*
Y1926D03*
Y2168D03*
Y2552D03*
Y2658D03*
Y3046D03*
X4221Y1335D03*
Y1578D03*
Y2065D03*
Y3148D03*
X4222Y1825D03*
Y2315D03*
Y2802D03*
Y2902D03*
X4361Y1977D03*
Y2711D03*
Y3200D03*
X4362Y1488D03*
Y1735D03*
Y2219D03*
Y2466D03*
Y2953D03*
X4394Y2502D03*
Y2992D03*
X4396Y2013D03*
X4397Y1280D03*
Y1526D03*
X4398Y2258D03*
X4399Y1768D03*
Y2744D03*
X4688Y1428D03*
Y1673D03*
Y1918D03*
Y2158D03*
Y2648D03*
Y2893D03*
Y3138D03*
X4693Y2408D03*
X5468Y1423D03*
X5476Y1739D03*
X5591Y2369D03*
X5591Y1503D03*
X5592Y2213D03*
Y2449D03*
X5592Y1110D03*
Y1188D03*
Y1897D03*
Y1976D03*
X5593Y2054D03*
Y2133D03*
Y2291D03*
Y2606D03*
X5594Y1347D03*
Y1818D03*
X5626Y1583D03*
Y1661D03*
Y1740D03*
X5662Y1110D03*
Y1188D03*
Y1425D03*
Y1503D03*
Y1897D03*
Y1976D03*
X5663Y2054D03*
Y2133D03*
Y2212D03*
Y2291D03*
Y2369D03*
Y2448D03*
Y2606D03*
X5778Y1543D03*
Y1617D03*
X5780Y1700D03*
D02*
D71*
X5539Y795D03*
Y873D03*
Y952D03*
Y1031D03*
Y1110D03*
Y1188D03*
Y1267D03*
Y1346D03*
Y1425D03*
Y1503D03*
Y1582D03*
Y1661D03*
Y1740D03*
Y1818D03*
Y1897D03*
Y1976D03*
Y2054D03*
Y2133D03*
Y2212D03*
Y2291D03*
Y2369D03*
Y2448D03*
Y2527D03*
Y2606D03*
Y2684D03*
X5716Y795D03*
Y873D03*
Y952D03*
Y1031D03*
Y1110D03*
Y1188D03*
Y1267D03*
Y1346D03*
Y1425D03*
Y1503D03*
Y1582D03*
Y1661D03*
Y1740D03*
Y1818D03*
Y1897D03*
Y1976D03*
Y2054D03*
Y2133D03*
Y2212D03*
Y2291D03*
Y2369D03*
Y2448D03*
Y2527D03*
Y2606D03*
Y2684D03*
D02*
D20*
X4509Y401D02*
Y426D01*
X4597Y600D02*
X4572D01*
X4615Y582D02*
Y557D01*
Y618D02*
Y643D01*
X4692Y573D02*
X4670Y551D01*
X4692Y624D02*
X4670Y646D01*
X4699Y522D02*
X4674D01*
X4700Y675D02*
X4675D01*
X4717Y504D02*
Y479D01*
X4718Y693D02*
Y718D01*
X4735Y522D02*
X4760D01*
X4736Y675D02*
X4761D01*
X4742Y573D02*
X4764Y551D01*
X4742Y624D02*
X4764Y646D01*
X4817Y581D02*
Y556D01*
Y617D02*
Y642D01*
X4835Y599D02*
X4860D01*
X5539Y795D02*
X5469D01*
D02*
D21*
X1944Y3050D02*
X2005D01*
X2018Y3038*
X2053Y253D02*
X2054D01*
X2054Y253*
X2147*
X2148Y253*
X2053Y358D02*
Y373D01*
X2103Y423*
X2148Y253D02*
X2403D01*
X2148Y348D02*
Y378D01*
X2103Y423*
X4509Y291D02*
X4520D01*
X4581Y231*
X4509Y291D02*
X4569D01*
X4626Y348*
X4670Y245D02*
X4595D01*
X4581Y231*
X4670Y245D02*
X4670D01*
X4621Y293*
Y343*
X4626Y348*
X4717D02*
X4716D01*
Y453*
X4760Y245D02*
Y156D01*
X4736Y132*
X2092*
X2053Y171*
Y252*
X2053Y253*
X4760Y245D02*
Y250D01*
X4806Y296*
Y347*
X4808Y348*
X5365Y523D02*
Y390D01*
X5328Y353*
X4812*
X4808Y348*
X5465Y953D02*
X5403D01*
X5365Y915*
Y657*
X5539Y795D02*
X5716D01*
X5539Y873D02*
X5716D01*
X5539D02*
X5468D01*
X5468Y873*
X5539Y952D02*
X5716D01*
X5539D02*
X5465D01*
X5465Y953*
X5539Y1031D02*
Y1033D01*
X5716*
Y1031*
X5539D02*
X5469D01*
X5468Y1033*
X5539Y1267D02*
X5538D01*
X5538Y1268*
X5468*
X5539Y1425D02*
X5470D01*
X5468Y1423*
X5539Y2527D02*
X5463D01*
X5463Y2528*
X5539Y2684D02*
Y2683D01*
X5716*
Y2684*
X5539D02*
X5534D01*
X5533Y2683*
X5463*
X5716Y873D02*
X5787D01*
X5788Y873*
X5716Y952D02*
X5790D01*
X5790Y953*
X5716Y1031D02*
X5786D01*
X5788Y1033*
X5716Y1267D02*
Y1268D01*
X5539*
Y1267*
X5716D02*
X5787D01*
X5788Y1268*
X5716Y1346D02*
X5786D01*
X5788Y1348*
X5716Y2527D02*
X5539D01*
X5716D02*
X5792D01*
X5793Y2528*
X5716Y2684D02*
X5791D01*
X5793Y2683*
D02*
D76*
X153Y3748D03*
X303D03*
X453D03*
X603D03*
X753D03*
X903D03*
X1053D03*
X1202D03*
X1453D03*
X1603D03*
X1753D03*
X1903D03*
X2053D03*
X2203D03*
X2353D03*
X2503D03*
X2853D03*
X3003D03*
X3153D03*
X3303D03*
X3453D03*
X3603D03*
X3753D03*
X3903D03*
X4153D03*
X4303D03*
X4453D03*
X4603D03*
X4753D03*
X4903D03*
X5053D03*
X5203D03*
X5603D03*
X5753D03*
D02*
D79*
X2053Y253D03*
Y343D03*
X2148Y253D03*
Y343D03*
X4509Y291D03*
Y381D03*
X5378Y1708D03*
Y1798D03*
D02*
D81*
X4626Y348D03*
X4717D03*
X4808D03*
D02*
D82*
X4717Y598D03*
D02*
D84*
X4670Y245D03*
X4760D03*
D02*
D89*
X703Y1288D03*
Y1338D03*
Y1388D03*
Y1438D03*
Y1538D03*
Y1588D03*
Y1638D03*
Y1688D03*
Y1788D03*
Y1838D03*
Y1888D03*
Y1938D03*
Y2038D03*
Y2088D03*
Y2138D03*
Y2188D03*
Y2288D03*
Y2338D03*
Y2388D03*
Y2438D03*
Y2538D03*
Y2588D03*
Y2638D03*
Y2688D03*
Y2788D03*
Y2838D03*
Y2888D03*
Y2938D03*
Y3038D03*
Y3088D03*
Y3138D03*
Y3188D03*
X912Y1288D03*
Y1338D03*
Y1388D03*
Y1438D03*
Y1538D03*
Y1588D03*
Y1638D03*
Y1688D03*
Y1788D03*
Y1838D03*
Y1888D03*
Y1938D03*
Y2038D03*
Y2088D03*
Y2138D03*
Y2188D03*
Y2288D03*
Y2338D03*
Y2388D03*
Y2438D03*
Y2538D03*
Y2588D03*
Y2638D03*
Y2688D03*
Y2788D03*
Y2838D03*
Y2888D03*
Y2938D03*
Y3038D03*
Y3088D03*
Y3138D03*
Y3188D03*
X1723Y1300D03*
Y1350D03*
Y1400D03*
Y1450D03*
Y1550D03*
Y1600D03*
Y1650D03*
Y1700D03*
Y1800D03*
Y1850D03*
Y1900D03*
Y1950D03*
Y2050D03*
Y2100D03*
Y2150D03*
Y2200D03*
Y2300D03*
Y2350D03*
Y2400D03*
Y2450D03*
Y2550D03*
Y2600D03*
Y2650D03*
Y2700D03*
X1736Y2800D03*
Y2850D03*
Y2900D03*
Y2950D03*
Y3050D03*
Y3100D03*
Y3150D03*
Y3200D03*
X1932Y1300D03*
Y1350D03*
Y1400D03*
Y1450D03*
Y1550D03*
Y1600D03*
Y1650D03*
Y1700D03*
Y1800D03*
Y1850D03*
Y1900D03*
Y1950D03*
Y2050D03*
Y2100D03*
Y2150D03*
Y2200D03*
Y2300D03*
Y2350D03*
Y2400D03*
Y2450D03*
Y2550D03*
Y2600D03*
Y2650D03*
Y2700D03*
X1944Y2800D03*
Y2850D03*
Y2900D03*
Y2950D03*
Y3050D03*
Y3100D03*
Y3150D03*
Y3200D03*
X3395Y1317D03*
Y1367D03*
Y1417D03*
Y1467D03*
Y1561D03*
Y1611D03*
Y1661D03*
Y1711D03*
Y1803D03*
Y1853D03*
Y1903D03*
Y1953D03*
Y2047D03*
Y2097D03*
Y2147D03*
Y2197D03*
Y2290D03*
Y2340D03*
Y2390D03*
Y2440D03*
Y2532D03*
Y2582D03*
Y2632D03*
Y2682D03*
Y2773D03*
Y2823D03*
Y2873D03*
Y2923D03*
Y3015D03*
Y3065D03*
Y3115D03*
Y3165D03*
X3604Y1317D03*
Y1367D03*
Y1417D03*
Y1467D03*
Y1561D03*
Y1611D03*
Y1661D03*
Y1711D03*
Y1803D03*
Y1853D03*
Y1903D03*
Y1953D03*
Y2047D03*
Y2097D03*
Y2147D03*
Y2197D03*
Y2290D03*
Y2340D03*
Y2390D03*
Y2440D03*
Y2532D03*
Y2582D03*
Y2632D03*
Y2682D03*
Y2773D03*
Y2823D03*
Y2873D03*
Y2923D03*
Y3015D03*
Y3065D03*
Y3115D03*
Y3165D03*
X4422Y1327D03*
Y1377D03*
Y1427D03*
Y1477D03*
Y1571D03*
Y1621D03*
Y1671D03*
Y1721D03*
Y1816D03*
Y1866D03*
Y1916D03*
Y1966D03*
Y2059D03*
Y2109D03*
Y2159D03*
Y2209D03*
Y2305D03*
Y2355D03*
Y2405D03*
Y2455D03*
Y2547D03*
Y2597D03*
Y2647D03*
Y2697D03*
Y2792D03*
Y2842D03*
Y2892D03*
Y2942D03*
Y3038D03*
Y3088D03*
Y3138D03*
Y3188D03*
X4631Y1327D03*
Y1377D03*
Y1427D03*
Y1477D03*
Y1571D03*
Y1621D03*
Y1671D03*
Y1721D03*
Y1816D03*
Y1866D03*
Y1916D03*
Y1966D03*
Y2059D03*
Y2109D03*
Y2159D03*
Y2209D03*
Y2305D03*
Y2355D03*
Y2405D03*
Y2455D03*
Y2547D03*
Y2597D03*
Y2647D03*
Y2697D03*
Y2792D03*
Y2842D03*
Y2892D03*
Y2942D03*
Y3038D03*
Y3088D03*
Y3138D03*
Y3188D03*
D02*
D91*
X5365Y523D03*
Y657D03*
D02*
D93*
X2626Y2937D03*
Y3007D03*
X2626Y3080D03*
Y3150D03*
X2786Y2939D03*
Y3009D03*
X2786Y3082D03*
Y3152D03*
X3316Y2390D03*
Y2460D03*
Y2633D03*
Y2703D03*
X3317Y2148D03*
Y2218D03*
X3318Y1418D03*
Y1488D03*
X3319Y1661D03*
Y1731D03*
Y1903D03*
Y1973D03*
X3320Y2873D03*
Y2943D03*
Y3115D03*
Y3185D03*
X4704Y2285D03*
Y2355D03*
Y2527D03*
Y2597D03*
Y2772D03*
Y2842D03*
X4705Y1551D03*
Y1621D03*
Y1796D03*
Y1866D03*
Y3016D03*
Y3086D03*
X4707Y1308D03*
Y1378D03*
Y2038D03*
Y2108D03*
D02*
D137*
X560Y1300D03*
Y1388D03*
Y1450D03*
Y1550D03*
Y1638D03*
Y1700D03*
Y1800D03*
Y1888D03*
Y1950D03*
Y2050D03*
Y2138D03*
Y2200D03*
Y2300D03*
Y2388D03*
Y2450D03*
Y2550D03*
Y2638D03*
Y2700D03*
Y2800D03*
Y2888D03*
Y2950D03*
Y3050D03*
Y3138D03*
Y3200D03*
X630Y1300D03*
Y1388D03*
Y1450D03*
Y1550D03*
Y1638D03*
Y1700D03*
Y1800D03*
Y1888D03*
Y1950D03*
Y2050D03*
Y2138D03*
Y2200D03*
Y2300D03*
Y2388D03*
Y2450D03*
Y2550D03*
Y2638D03*
Y2700D03*
Y2800D03*
Y2888D03*
Y2950D03*
Y3050D03*
Y3138D03*
Y3200D03*
X998Y1300D03*
Y1400D03*
Y1463D03*
Y1550D03*
Y1650D03*
Y1713D03*
Y1800D03*
Y1900D03*
Y1963D03*
Y2050D03*
Y2150D03*
Y2213D03*
Y2300D03*
Y2400D03*
Y2463D03*
Y2550D03*
Y2650D03*
Y2713D03*
Y2800D03*
Y2900D03*
Y2963D03*
Y3050D03*
Y3138D03*
Y3200D03*
X1067Y1300D03*
Y1400D03*
Y1463D03*
Y1550D03*
Y1650D03*
Y1713D03*
Y1800D03*
Y1900D03*
Y1963D03*
Y2050D03*
Y2150D03*
Y2213D03*
Y2300D03*
Y2400D03*
Y2463D03*
Y2550D03*
Y2650D03*
Y2713D03*
Y2800D03*
Y2900D03*
Y2963D03*
Y3050D03*
Y3138D03*
Y3200D03*
X1568Y1275D03*
Y1338D03*
Y1438D03*
Y1525D03*
Y1588D03*
Y1688D03*
Y1775D03*
Y1838D03*
Y1938D03*
Y2025D03*
Y2088D03*
Y2188D03*
Y2275D03*
Y2338D03*
Y2438D03*
Y2525D03*
Y2588D03*
Y2688D03*
X1580Y2775D03*
Y2838D03*
Y2938D03*
Y3025D03*
Y3088D03*
Y3188D03*
X1638Y1275D03*
Y1338D03*
Y1438D03*
Y1525D03*
Y1588D03*
Y1688D03*
Y1775D03*
Y1838D03*
Y1938D03*
Y2025D03*
Y2088D03*
Y2188D03*
Y2275D03*
Y2338D03*
Y2438D03*
Y2525D03*
Y2588D03*
Y2688D03*
X1650Y2775D03*
Y2838D03*
Y2938D03*
Y3025D03*
Y3088D03*
Y3188D03*
X2005Y1288D03*
Y1350D03*
Y1438D03*
Y1538D03*
Y1600D03*
Y1688D03*
Y1788D03*
Y1850D03*
Y1938D03*
Y2038D03*
Y2100D03*
Y2188D03*
Y2288D03*
Y2350D03*
Y2438D03*
Y2538D03*
Y2600D03*
Y2688D03*
X2018Y2788D03*
Y2850D03*
Y2938D03*
Y3038D03*
Y3100D03*
Y3188D03*
X2075Y1288D03*
Y1350D03*
Y1438D03*
Y1538D03*
Y1600D03*
Y1688D03*
Y1788D03*
Y1850D03*
Y1938D03*
Y2038D03*
Y2100D03*
Y2188D03*
Y2288D03*
Y2350D03*
Y2438D03*
Y2538D03*
Y2600D03*
Y2688D03*
X2088Y2788D03*
Y2850D03*
Y2938D03*
Y3038D03*
Y3100D03*
Y3188D03*
X3678Y1360D03*
Y1424D03*
Y1489D03*
X3679Y1604D03*
Y1669D03*
Y1734D03*
X3680Y1843D03*
Y1912D03*
Y1981D03*
Y2089D03*
Y2155D03*
Y2222D03*
Y2333D03*
Y2397D03*
Y2464D03*
Y2575D03*
Y2641D03*
Y2706D03*
Y2814D03*
Y2879D03*
Y2944D03*
Y3058D03*
Y3124D03*
Y3189D03*
X3748Y1360D03*
Y1424D03*
Y1489D03*
X3749Y1604D03*
Y1669D03*
Y1734D03*
X3750Y1843D03*
Y1912D03*
Y1981D03*
Y2089D03*
Y2155D03*
Y2222D03*
Y2333D03*
Y2397D03*
Y2464D03*
Y2575D03*
Y2641D03*
Y2706D03*
Y2814D03*
Y2879D03*
Y2944D03*
Y3058D03*
Y3124D03*
Y3189D03*
X4273Y2522D03*
Y2590D03*
Y2658D03*
Y3013D03*
Y3080D03*
Y3148D03*
X4274Y2032D03*
Y2099D03*
Y2168D03*
Y2280D03*
Y2348D03*
Y2415D03*
Y2766D03*
Y2834D03*
Y2902D03*
X4276Y1302D03*
Y1369D03*
Y1436D03*
Y1544D03*
Y1614D03*
Y1682D03*
Y1791D03*
Y1858D03*
Y1926D03*
X4343Y2522D03*
Y2590D03*
Y2658D03*
Y3013D03*
Y3080D03*
Y3148D03*
X4344Y2032D03*
Y2099D03*
Y2168D03*
Y2280D03*
Y2348D03*
Y2415D03*
Y2766D03*
Y2834D03*
Y2902D03*
X4346Y1302D03*
Y1369D03*
Y1436D03*
Y1544D03*
Y1614D03*
Y1682D03*
Y1791D03*
Y1858D03*
Y1926D03*
X0Y0D02*
M02*
