%FSLAX23Y23*%
%MOIN*%
G04 EasyPC Gerber Version 17.0 Build 3379 *
%ADD26R,0.06112X0.04104*%
%ADD10C,0.00500*%
%ADD27C,0.06600*%
%ADD126C,0.10600*%
%ADD25C,0.28100*%
X0Y0D02*
D02*
D10*
X3Y3D02*
X5903D01*
Y3953*
X3*
Y3*
D02*
D25*
X278Y278D03*
Y3203D03*
X5628Y278D03*
Y3203D03*
D02*
D26*
X5539Y795D03*
Y873D03*
Y952D03*
Y1031D03*
Y1110D03*
Y1188D03*
Y1267D03*
Y1346D03*
Y1425D03*
Y1503D03*
Y1582D03*
Y1661D03*
Y1740D03*
Y1818D03*
Y1897D03*
Y1976D03*
Y2054D03*
Y2133D03*
Y2212D03*
Y2291D03*
Y2369D03*
Y2448D03*
Y2527D03*
Y2606D03*
Y2684D03*
X5716Y795D03*
Y873D03*
Y952D03*
Y1031D03*
Y1110D03*
Y1188D03*
Y1267D03*
Y1346D03*
Y1425D03*
Y1503D03*
Y1582D03*
Y1661D03*
Y1740D03*
Y1818D03*
Y1897D03*
Y1976D03*
Y2054D03*
Y2133D03*
Y2212D03*
Y2291D03*
Y2369D03*
Y2448D03*
Y2527D03*
Y2606D03*
Y2684D03*
D02*
D27*
X2403Y253D03*
Y353D03*
Y453D03*
Y553D03*
Y653D03*
Y753D03*
Y853D03*
Y953D03*
Y1053D03*
Y1153D03*
Y1252D03*
Y1353D03*
Y1453D03*
Y1553D03*
Y1653D03*
Y1753D03*
Y1853D03*
Y1953D03*
Y2053D03*
Y2153D03*
Y2253D03*
Y2353D03*
Y2453D03*
Y2553D03*
X3003Y253D03*
Y353D03*
Y453D03*
Y553D03*
Y653D03*
Y753D03*
Y853D03*
Y953D03*
Y1053D03*
Y1153D03*
Y1252D03*
Y1353D03*
Y1453D03*
Y1553D03*
Y1653D03*
Y1753D03*
Y1853D03*
Y1953D03*
Y2053D03*
Y2153D03*
Y2253D03*
Y2353D03*
Y2453D03*
Y2553D03*
D02*
D126*
X153Y3748D03*
X303D03*
X453D03*
X603D03*
X753D03*
X903D03*
X1053D03*
X1202D03*
X1453D03*
X1603D03*
X1753D03*
X1903D03*
X2053D03*
X2203D03*
X2353D03*
X2503D03*
X2853D03*
X3003D03*
X3153D03*
X3303D03*
X3453D03*
X3603D03*
X3753D03*
X3903D03*
X4153D03*
X4303D03*
X4453D03*
X4603D03*
X4753D03*
X4903D03*
X5053D03*
X5203D03*
X5603D03*
X5753D03*
X0Y0D02*
M02*
