%FSLAX23Y23*%
%MOIN*%
G04 EasyPC Gerber Version 17.0 Build 3379 *
%ADD17R,0.01054X0.06388*%
%ADD15R,0.01900X0.05900*%
%ADD16R,0.01959X0.04715*%
%ADD11R,0.01959X0.04912*%
%ADD26R,0.03337X0.03691*%
%ADD12R,0.04900X0.05400*%
%ADD20R,0.04900X0.12900*%
%ADD19R,0.06400X0.12000*%
%ADD24R,0.09243X0.12392*%
%ADD21R,0.10306X0.10306*%
%ADD27R,0.12400X0.12400*%
%ADD22R,0.14557X0.21054*%
%ADD13R,0.05700X0.05700*%
%ADD10R,0.04912X0.02904*%
%ADD25R,0.03691X0.03337*%
%ADD14R,0.05400X0.04900*%
%ADD71R,0.11211X0.05699*%
%ADD23R,0.09600X0.05700*%
%ADD18R,0.15935X0.11211*%
%ADD70R,0.25778X0.25778*%
X0Y0D02*
D02*
D10*
X5540Y795D03*
Y873D03*
Y952D03*
Y1031D03*
Y1110D03*
Y1188D03*
Y1267D03*
Y1346D03*
Y1425D03*
Y1503D03*
Y1582D03*
Y1661D03*
Y1740D03*
Y1818D03*
Y1897D03*
Y1976D03*
Y2055D03*
Y2133D03*
Y2212D03*
Y2291D03*
Y2370D03*
Y2448D03*
Y2527D03*
Y2606D03*
Y2685D03*
X5718Y795D03*
Y873D03*
Y952D03*
Y1031D03*
Y1110D03*
Y1188D03*
Y1267D03*
Y1346D03*
Y1425D03*
Y1503D03*
Y1582D03*
Y1661D03*
Y1740D03*
Y1818D03*
Y1897D03*
Y1976D03*
Y2055D03*
Y2133D03*
Y2212D03*
Y2291D03*
Y2370D03*
Y2448D03*
Y2527D03*
Y2606D03*
Y2685D03*
D02*
D11*
X1866Y2548D03*
Y2757D03*
X1916Y2548D03*
Y2757D03*
X1966Y2548D03*
Y2757D03*
X2016Y2548D03*
Y2757D03*
X4222Y3038D03*
Y3247D03*
X4272Y3038D03*
Y3247D03*
X4322Y3038D03*
Y3247D03*
X4372Y3038D03*
Y3247D03*
X4463Y3038D03*
Y3247D03*
X4513Y3038D03*
Y3247D03*
X4563Y3038D03*
Y3247D03*
X4613Y3038D03*
Y3247D03*
X4702Y3038D03*
Y3247D03*
X4752Y3038D03*
Y3247D03*
X4802Y3038D03*
Y3247D03*
X4852Y3038D03*
Y3247D03*
X4942Y3038D03*
Y3247D03*
X4992Y3038D03*
Y3247D03*
X5042Y3038D03*
Y3247D03*
X5092Y3038D03*
Y3247D03*
D02*
D12*
X1854Y2870D03*
Y2960D03*
X1954Y2870D03*
Y2960D03*
X2003Y930D03*
Y1020D03*
X2012Y1313D03*
Y1403D03*
X2054Y2870D03*
Y2960D03*
X2103Y842D03*
Y932D03*
X2154Y2870D03*
Y2960D03*
X2239Y1676D03*
Y1766D03*
X2331Y1675D03*
Y1765D03*
X2754Y1032D03*
Y1122D03*
Y1228D03*
Y1318D03*
X2756Y839D03*
Y929D03*
X4321Y510D03*
Y600D03*
X4563Y215D03*
Y305D03*
X4650Y215D03*
Y305D03*
X4780Y442D03*
Y532D03*
Y622D03*
Y712D03*
X4880Y442D03*
Y532D03*
D02*
D13*
X3034Y664D03*
Y798D03*
X4304Y3617D03*
X4438D03*
X5506Y3477D03*
Y3611D03*
D02*
D14*
X232Y3725D03*
X322D03*
X1665Y2868D03*
X1755D03*
X4040Y533D03*
X4130D03*
X4230Y687D03*
X4320D03*
X4842Y889D03*
X4932D03*
X5034Y889D03*
X5124D03*
D02*
D15*
X1465Y931D03*
Y1312D03*
X1515Y931D03*
Y1312D03*
X1565Y931D03*
Y1312D03*
X1615Y931D03*
Y1312D03*
X1665Y931D03*
Y1312D03*
X1715Y931D03*
Y1312D03*
X1765Y931D03*
Y1312D03*
X1815Y931D03*
Y1312D03*
X1865Y931D03*
Y1312D03*
X1915Y931D03*
Y1312D03*
D02*
D16*
X2866Y1978D03*
Y2373D03*
X2916Y1978D03*
Y2373D03*
X2966Y1978D03*
Y2373D03*
X3016Y1978D03*
Y2373D03*
X3066Y1978D03*
Y2373D03*
X3116Y1978D03*
Y2373D03*
X3166Y1978D03*
Y2373D03*
X3216Y1978D03*
Y2373D03*
X3266Y1978D03*
Y2373D03*
D02*
D17*
X4412Y449D03*
Y683D03*
X4438Y449D03*
Y683D03*
X4464Y449D03*
Y683D03*
X4489Y449D03*
Y683D03*
X4515Y449D03*
Y683D03*
X4540Y449D03*
Y683D03*
X4566Y449D03*
Y683D03*
X4592Y449D03*
Y683D03*
X4617Y449D03*
Y683D03*
X4643Y449D03*
Y683D03*
D02*
D18*
X4528Y566D03*
D02*
D19*
X4121Y201D03*
Y376D03*
X4321Y201D03*
Y376D03*
D02*
D70*
X4312Y962D03*
D02*
D71*
X4621Y871D03*
Y1052D03*
D02*
D20*
X3710Y533D03*
X3935D03*
D02*
D21*
X3373Y623D03*
Y825D03*
D02*
D22*
X3589Y879D03*
X3981D03*
D02*
D23*
X3170Y666D03*
Y800D03*
D02*
D24*
X5474Y2904D03*
X5742D03*
D02*
D25*
X162Y3819D03*
X232D03*
X4322Y3324D03*
Y3391D03*
X4392Y3324D03*
Y3391D03*
X4563Y3324D03*
Y3391D03*
X4633Y3324D03*
Y3391D03*
X4802Y3324D03*
Y3391D03*
X4872Y3324D03*
Y3391D03*
X5042Y3324D03*
Y3391D03*
X5112Y3324D03*
Y3391D03*
D02*
D26*
X3329Y2049D03*
Y2119D03*
X4221Y3321D03*
Y3391D03*
X4260Y2858D03*
Y2928D03*
X4323Y2858D03*
Y2928D03*
X4386Y2858D03*
Y2928D03*
X4460Y3321D03*
Y3391D03*
X4500Y2858D03*
Y2928D03*
X4564Y2858D03*
Y2928D03*
X4628Y2858D03*
Y2928D03*
X4701Y3321D03*
Y3391D03*
X4736Y2862D03*
Y2932D03*
X4801Y2862D03*
Y2932D03*
X4865Y2862D03*
Y2932D03*
X4942Y3321D03*
Y3391D03*
X4976Y2863D03*
Y2933D03*
X5042Y2863D03*
Y2933D03*
X5108Y2863D03*
Y2933D03*
D02*
D27*
X4121Y2238D03*
X5341D03*
X0Y0D02*
M02*
