%FSLAX23Y23*%
%MOIN*%
G04 EasyPC Gerber Version 17.0 Build 3379 *
%ADD74O,0.06000X0.06000*%
%ADD73O,0.07000X0.07000*%
%ADD77R,0.06000X0.06000*%
%ADD75R,0.07000X0.07000*%
%ADD28C,0.00500*%
%ADD29C,0.02000*%
%ADD81C,0.03200*%
%ADD82C,0.05000*%
%ADD80C,0.05600*%
%ADD78C,0.10000*%
%ADD79C,0.11811*%
%ADD76C,0.24409*%
%ADD72C,0.27500*%
X0Y0D02*
D02*
D28*
X2454Y58D02*
Y152D01*
X2868*
Y58*
X5849*
Y3898*
X5350*
Y3061*
X4201*
Y3014*
G75*
G02X4261Y2982I21J-32*
G01*
G75*
G02X4201Y2949I-39*
G01*
Y2852*
X2691*
Y3898*
X59*
Y58*
X2454*
X83Y3819D02*
G75*
G02X134I26D01*
G01*
G75*
G02X83I-26*
G01*
X132Y278D02*
G75*
G02X426I147D01*
G01*
G75*
G02X132I-147*
G01*
Y3203D02*
G75*
G02X426I147D01*
G01*
G75*
G02X132I-147*
G01*
X226Y3646D02*
X331D01*
Y3541*
X226*
Y3646*
X239Y3533D02*
X318D01*
Y3454*
X239*
Y3533*
X612Y605D02*
G75*
G02Y868J132D01*
G01*
G75*
G02Y605J-132*
G01*
Y2889D02*
G75*
G02Y3152J132D01*
G01*
G75*
G02Y2889J-132*
G01*
X1515Y1403D02*
G75*
G02X1616I51D01*
G01*
G75*
G02X1515I-51*
G01*
X1536Y2868D02*
G75*
G02X1637I51D01*
G01*
G75*
G02X1536I-51*
G01*
X1649Y1244D02*
G75*
G02X1700I26D01*
G01*
G75*
G02X1649I-26*
G01*
X1785D02*
G75*
G02X1836I26D01*
G01*
G75*
G02X1785I-26*
G01*
X1815Y1403D02*
G75*
G02X1916I51D01*
G01*
G75*
G02X1815I-51*
G01*
X2036Y2548D02*
G75*
G02X2137I51D01*
G01*
G75*
G02X2036I-51*
G01*
X2051Y756D02*
G75*
G02X2152I51D01*
G01*
G75*
G02X2051I-51*
G01*
X2103Y2795D02*
G75*
G02X2204I51D01*
G01*
G75*
G02X2103I-51*
G01*
X2105Y1315D02*
G75*
G02X2156I26D01*
G01*
G75*
G02X2105I-26*
G01*
X2179Y975D02*
G75*
G02X2230I26D01*
G01*
G75*
G02X2179I-26*
G01*
X2187Y1590D02*
G75*
G02X2288I51D01*
G01*
G75*
G02X2187I-51*
G01*
X2211Y2613D02*
G75*
G02X2262I26D01*
G01*
G75*
G02X2211I-26*
G01*
X2212Y2752D02*
G75*
G02X2263I26D01*
G01*
G75*
G02X2212I-26*
G01*
X2362Y882D02*
G75*
G02X2413I26D01*
G01*
G75*
G02X2362I-26*
G01*
Y1578D02*
G75*
G02X2413I26D01*
G01*
G75*
G02X2362I-26*
G01*
X2447Y972D02*
X2536D01*
Y883*
X2447*
Y972*
X2481Y1271D02*
G75*
G02Y1384I10J57D01*
G01*
G75*
G02X2491Y1472I10J43*
G01*
G75*
G02X2501Y1384J-44*
G01*
G75*
G02X2548Y1338I-10J-57*
G01*
G75*
G02X2591Y1372I43J-10*
G01*
G75*
G02Y1283J-44*
G01*
G75*
G02X2548Y1318J44*
G01*
G75*
G02X2501Y1271I-57J10*
G01*
G75*
G02X2491Y1183I-10J-43*
G01*
G75*
G02X2481Y1271J44*
G01*
Y2071D02*
G75*
G02Y2184I10J57D01*
G01*
G75*
G02X2491Y2272I10J43*
G01*
G75*
G02X2501Y2184J-44*
G01*
G75*
G02X2548Y2138I-10J-57*
G01*
G75*
G02X2591Y2172I43J-10*
G01*
G75*
G02Y2083J-44*
G01*
G75*
G02X2548Y2118J44*
G01*
G75*
G02X2501Y2071I-57J10*
G01*
G75*
G02X2491Y1983I-10J-43*
G01*
G75*
G02X2481Y2071J44*
G01*
Y2771D02*
G75*
G02X2491Y2885I10J57D01*
G01*
G75*
G02X2548Y2838J-58*
G01*
G75*
G02X2591Y2872I43J-10*
G01*
G75*
G02Y2783J-44*
G01*
G75*
G02X2548Y2818J44*
G01*
G75*
G02X2501Y2771I-57J10*
G01*
G75*
G02X2491Y2683I-10J-43*
G01*
G75*
G02X2481Y2771J44*
G01*
X2491Y1072D02*
G75*
G02Y983J-44D01*
G01*
G75*
G02Y1072J44*
G01*
Y1672D02*
G75*
G02Y1583J-44D01*
G01*
G75*
G02Y1672J44*
G01*
Y1772D02*
G75*
G02Y1683J-44D01*
G01*
G75*
G02Y1772J44*
G01*
Y1972D02*
G75*
G02Y1883J-44D01*
G01*
G75*
G02Y1972J44*
G01*
Y2472D02*
G75*
G02Y2383J-44D01*
G01*
G75*
G02Y2472J44*
G01*
Y2672D02*
G75*
G02Y2583J-44D01*
G01*
G75*
G02Y2672J44*
G01*
X2534Y1118D02*
G75*
G02X2491Y1083I-43J10D01*
G01*
G75*
G02Y1172J44*
G01*
G75*
G02X2534Y1138J-44*
G01*
G75*
G02X2581Y1184I57J-10*
G01*
G75*
G02X2591Y1272I10J43*
G01*
G75*
G02X2601Y1184J-44*
G01*
G75*
G02Y1071I-10J-57*
G01*
G75*
G02X2591Y983I-10J-43*
G01*
G75*
G02X2581Y1071J44*
G01*
G75*
G02X2534Y1118I10J57*
G01*
Y1518D02*
G75*
G02X2491Y1483I-43J10D01*
G01*
G75*
G02Y1572J44*
G01*
G75*
G02X2534Y1538J-44*
G01*
G75*
G02X2591Y1585I57J-10*
G01*
G75*
G02X2601Y1471J-58*
G01*
G75*
G02X2591Y1383I-10J-43*
G01*
G75*
G02X2581Y1471J44*
G01*
G75*
G02X2534Y1518I10J57*
G01*
Y1818D02*
G75*
G02X2491Y1783I-43J10D01*
G01*
G75*
G02Y1872J44*
G01*
G75*
G02X2534Y1838J-44*
G01*
G75*
G02X2581Y1884I57J-10*
G01*
G75*
G02X2591Y1972I10J43*
G01*
G75*
G02X2601Y1884J-44*
G01*
G75*
G02Y1771I-10J-57*
G01*
G75*
G02X2591Y1683I-10J-43*
G01*
G75*
G02X2581Y1771J44*
G01*
G75*
G02X2534Y1818I10J57*
G01*
Y2318D02*
G75*
G02X2491Y2283I-43J10D01*
G01*
G75*
G02Y2372J44*
G01*
G75*
G02X2534Y2338J-44*
G01*
G75*
G02X2581Y2384I57J-10*
G01*
G75*
G02Y2471I10J43*
G01*
G75*
G02X2534Y2518I10J57*
G01*
G75*
G02X2491Y2483I-43J10*
G01*
G75*
G02Y2572J44*
G01*
G75*
G02X2534Y2538J-44*
G01*
G75*
G02X2581Y2584I57J-10*
G01*
G75*
G02X2591Y2672I10J43*
G01*
G75*
G02X2601Y2584J-44*
G01*
G75*
G02Y2471I-10J-57*
G01*
G75*
G02Y2384I-10J-43*
G01*
G75*
G02Y2271I-10J-57*
G01*
G75*
G02X2591Y2183I-10J-43*
G01*
G75*
G02X2581Y2271J44*
G01*
G75*
G02X2534Y2318I10J57*
G01*
X2542Y605D02*
G75*
G02Y868J132D01*
G01*
G75*
G02Y605J-132*
G01*
Y2889D02*
G75*
G02Y3152J132D01*
G01*
G75*
G02Y2889J-132*
G01*
X2591Y883D02*
G75*
G02Y972J44D01*
G01*
G75*
G02Y883J-44*
G01*
Y1588D02*
G75*
G02Y1667J40D01*
G01*
G75*
G02Y1588J-40*
G01*
Y1983D02*
G75*
G02Y2072J44D01*
G01*
G75*
G02Y1983J-44*
G01*
Y2683D02*
G75*
G02Y2772J44D01*
G01*
G75*
G02Y2683J-44*
G01*
X2705Y768D02*
G75*
G02X2806I51D01*
G01*
G75*
G02X2705I-51*
G01*
X2719Y1882D02*
G75*
G02X2770I26D01*
G01*
G75*
G02X2719I-26*
G01*
X2832Y1266D02*
G75*
G02Y1367J51D01*
G01*
G75*
G02Y1266J-51*
G01*
X2935Y2644D02*
G75*
G02Y2507J-69D01*
G01*
G75*
G02Y2644J69*
G01*
X3035Y542D02*
G75*
G02Y617J38D01*
G01*
G75*
G02Y542J-38*
G01*
X3120Y578D02*
G75*
G02X3221I51D01*
G01*
G75*
G02X3120I-51*
G01*
X3230Y2644D02*
G75*
G02Y2507J-69D01*
G01*
G75*
G02Y2644J69*
G01*
X3290Y1978D02*
G75*
G02X3367I39D01*
G01*
G75*
G02X3290I-39*
G01*
X3323Y508D02*
G75*
G02X3424I51D01*
G01*
G75*
G02X3323I-51*
G01*
X3352Y2119D02*
G75*
G02X3403I26D01*
G01*
G75*
G02X3352I-26*
G01*
X3516Y805D02*
G75*
G02X3567I26D01*
G01*
G75*
G02X3516I-26*
G01*
Y879D02*
G75*
G02X3567I26D01*
G01*
G75*
G02X3516I-26*
G01*
X3518Y952D02*
G75*
G02X3569I26D01*
G01*
G75*
G02X3518I-26*
G01*
X3564Y743D02*
G75*
G02X3615I26D01*
G01*
G75*
G02X3564I-26*
G01*
X3595Y2645D02*
G75*
G02Y2508J-69D01*
G01*
G75*
G02Y2645J69*
G01*
X3596Y880D02*
G75*
G02X3647I26D01*
G01*
G75*
G02X3596I-26*
G01*
X3598Y806D02*
G75*
G02X3649I26D01*
G01*
G75*
G02X3598I-26*
G01*
X3600Y952D02*
G75*
G02X3651I26D01*
G01*
G75*
G02X3600I-26*
G01*
X3635Y583D02*
G75*
G02Y482J-51D01*
G01*
G75*
G02Y583J51*
G01*
X3891Y2645D02*
G75*
G02Y2508J-69D01*
G01*
G75*
G02Y2645J69*
G01*
X3912Y804D02*
G75*
G02X3963I26D01*
G01*
G75*
G02X3912I-26*
G01*
X3915Y954D02*
G75*
G02X3966I26D01*
G01*
G75*
G02X3915I-26*
G01*
X3917Y879D02*
G75*
G02X3968I26D01*
G01*
G75*
G02X3917I-26*
G01*
X3953Y200D02*
G75*
G02X4054I51D01*
G01*
G75*
G02X3953I-51*
G01*
X3956Y376D02*
G75*
G02X4057I51D01*
G01*
G75*
G02X3956I-51*
G01*
X3991Y805D02*
G75*
G02X4042I26D01*
G01*
G75*
G02X3991I-26*
G01*
X3992Y880D02*
G75*
G02X4043I26D01*
G01*
G75*
G02X3992I-26*
G01*
X3993Y954D02*
G75*
G02X4044I26D01*
G01*
G75*
G02X3993I-26*
G01*
X4175Y600D02*
G75*
G02X4276I51D01*
G01*
G75*
G02X4175I-51*
G01*
X4179Y854D02*
G75*
G02X4230I26D01*
G01*
G75*
G02X4179I-26*
G01*
Y957D02*
G75*
G02X4230I26D01*
G01*
G75*
G02X4179I-26*
G01*
Y1070D02*
G75*
G02X4230I26D01*
G01*
G75*
G02X4179I-26*
G01*
X4232Y1017D02*
G75*
G02X4283I26D01*
G01*
G75*
G02X4232I-26*
G01*
X4234Y906D02*
G75*
G02X4285I26D01*
G01*
G75*
G02X4234I-26*
G01*
Y2809D02*
G75*
G02X4285I26D01*
G01*
G75*
G02X4234I-26*
G01*
X4286Y962D02*
G75*
G02X4337I26D01*
G01*
G75*
G02X4286I-26*
G01*
Y1071D02*
G75*
G02X4337I26D01*
G01*
G75*
G02X4286I-26*
G01*
X4289Y855D02*
G75*
G02X4340I26D01*
G01*
G75*
G02X4289I-26*
G01*
X4316Y2809D02*
G75*
G02X4393I39D01*
G01*
G75*
G02X4316I-39*
G01*
X4346Y906D02*
G75*
G02X4397I26D01*
G01*
G75*
G02X4346I-26*
G01*
Y1016D02*
G75*
G02X4397I26D01*
G01*
G75*
G02X4346I-26*
G01*
Y2982D02*
G75*
G02X4397I26D01*
G01*
G75*
G02X4346I-26*
G01*
X4395Y854D02*
G75*
G02X4446I26D01*
G01*
G75*
G02X4395I-26*
G01*
Y962D02*
G75*
G02X4446I26D01*
G01*
G75*
G02X4395I-26*
G01*
X4396Y1072D02*
G75*
G02X4447I26D01*
G01*
G75*
G02X4396I-26*
G01*
X4424Y2980D02*
G75*
G02X4501I39D01*
G01*
G75*
G02X4424I-39*
G01*
X4436Y302D02*
G75*
G02X4505Y282I32J-20D01*
G01*
G75*
G02X4437Y261I-38*
G01*
G75*
G02X4368Y281I-32J20*
G01*
G75*
G02X4436Y302I38*
G01*
X4437Y567D02*
G75*
G02X4502Y633I40J26D01*
G01*
G75*
G02X4552Y633I26J-40*
G01*
G75*
G02X4619Y568I27J-39*
G01*
G75*
G02X4554Y501I-39J-28*
G01*
G75*
G02X4501Y501I-26J40*
G01*
G75*
G02X4437Y567I-25J41*
G01*
X4475Y2811D02*
G75*
G02X4526I26D01*
G01*
G75*
G02X4475I-26*
G01*
X4537Y774D02*
G75*
G02X4638I51D01*
G01*
G75*
G02X4537I-51*
G01*
X4558Y2809D02*
G75*
G02X4635I39D01*
G01*
G75*
G02X4558I-39*
G01*
X4587Y2982D02*
G75*
G02X4638I26D01*
G01*
G75*
G02X4587I-26*
G01*
X4649Y467D02*
G75*
G02X4750I51D01*
G01*
G75*
G02X4649I-51*
G01*
X4664Y2982D02*
G75*
G02X4741I39D01*
G01*
G75*
G02X4664I-39*
G01*
X4711Y2814D02*
G75*
G02X4762I26D01*
G01*
G75*
G02X4711I-26*
G01*
X4794Y2813D02*
G75*
G02X4871I39D01*
G01*
G75*
G02X4794I-39*
G01*
X4817Y807D02*
G75*
G02X4868I26D01*
G01*
G75*
G02X4817I-26*
G01*
X4827Y2982D02*
G75*
G02X4878I26D01*
G01*
G75*
G02X4827I-26*
G01*
X4904D02*
G75*
G02X4981I39D01*
G01*
G75*
G02X4904I-39*
G01*
X4950Y2816D02*
G75*
G02X5001I26D01*
G01*
G75*
G02X4950I-26*
G01*
X5037Y2814D02*
G75*
G02X5114I39D01*
G01*
G75*
G02X5037I-39*
G01*
X5066Y2982D02*
G75*
G02X5117I26D01*
G01*
G75*
G02X5066I-26*
G01*
X5086Y810D02*
G75*
G02X5163I39D01*
G01*
G75*
G02X5086I-39*
G01*
X5268Y1561D02*
G75*
G02Y1601I16J20D01*
G01*
G75*
G02Y1641I16J20*
G01*
G75*
G02X5269Y1682I16J20*
G01*
G75*
G02X5284Y1728I15J21*
G01*
G75*
G02X5299Y1682J-26*
G01*
G75*
G02X5300Y1641I-15J-21*
G01*
G75*
G02Y1601I-16J-20*
G01*
G75*
G02Y1561I-16J-20*
G01*
G75*
G02X5284Y1516I-16J-20*
G01*
G75*
G02X5268Y1561J26*
G01*
X5314Y2125D02*
G75*
G02X5415I51D01*
G01*
G75*
G02X5314I-51*
G01*
X5403Y2685D02*
G75*
G02X5504I51D01*
G01*
G75*
G02X5403I-51*
G01*
X5405Y2527D02*
G75*
G02X5506I51D01*
G01*
G75*
G02X5405I-51*
G01*
X5410Y1425D02*
G75*
G02X5511I51D01*
G01*
G75*
G02X5410I-51*
G01*
X5412Y1267D02*
G75*
G02X5513I51D01*
G01*
G75*
G02X5412I-51*
G01*
X5441Y920D02*
G75*
G02X5444Y984I21J31D01*
G01*
G75*
G02X5412Y1031I19J47*
G01*
G75*
G02X5513I51*
G01*
G75*
G02X5480Y983I-51*
G01*
G75*
G02X5482Y920I-19J-32*
G01*
G75*
G02X5512Y874I-21J-46*
G01*
G75*
G02X5411I-51*
G01*
G75*
G02X5441Y920I51*
G01*
X5444Y3740D02*
G75*
G02X5563I59D01*
G01*
G75*
G02X5444I-59*
G01*
X5448Y1504D02*
G75*
G02X5499I26D01*
G01*
G75*
G02X5448I-26*
G01*
Y1740D02*
G75*
G02X5499I26D01*
G01*
G75*
G02X5448I-26*
G01*
X5450Y1818D02*
G75*
G02X5501I26D01*
G01*
G75*
G02X5450I-26*
G01*
Y1897D02*
G75*
G02X5501I26D01*
G01*
G75*
G02X5450I-26*
G01*
X5451Y1110D02*
G75*
G02X5502I26D01*
G01*
G75*
G02X5451I-26*
G01*
X5452Y1187D02*
G75*
G02X5503I26D01*
G01*
G75*
G02X5452I-26*
G01*
X5482Y278D02*
G75*
G02X5776I147D01*
G01*
G75*
G02X5482I-147*
G01*
Y3203D02*
G75*
G02X5776I147D01*
G01*
G75*
G02X5482I-147*
G01*
X5579Y2527D02*
G75*
G02X5680I51D01*
G01*
G75*
G02X5579I-51*
G01*
Y2685D02*
G75*
G02X5680I51D01*
G01*
G75*
G02X5579I-51*
G01*
X5581Y3740D02*
G75*
G02X5726I73D01*
G01*
G75*
G02X5581I-73*
G01*
X5600Y1310D02*
G75*
G02X5584Y1347I35J37D01*
G01*
G75*
G02X5685I51*
G01*
G75*
G02X5661Y1303I-51*
G01*
G75*
G02X5677Y1267I-35J-37*
G01*
G75*
G02X5576I-51*
G01*
G75*
G02X5600Y1310I51*
G01*
X5609Y920D02*
G75*
G02Y984I19J32D01*
G01*
G75*
G02X5578Y1031I19J47*
G01*
G75*
G02X5679I51*
G01*
G75*
G02X5648Y984I-51*
G01*
G75*
G02Y920I-19J-32*
G01*
G75*
G02X5679Y874I-19J-47*
G01*
G75*
G02X5578I-51*
G01*
G75*
G02X5609Y920I51*
G01*
X5638Y1110D02*
G75*
G02X5689I26D01*
G01*
G75*
G02X5638I-26*
G01*
Y1188D02*
G75*
G02X5689I26D01*
G01*
G75*
G02X5638I-26*
G01*
Y1425D02*
G75*
G02X5689I26D01*
G01*
G75*
G02X5638I-26*
G01*
Y1504D02*
G75*
G02X5689I26D01*
G01*
G75*
G02X5638I-26*
G01*
Y1818D02*
G75*
G02X5689I26D01*
G01*
G75*
G02X5638I-26*
G01*
Y1897D02*
G75*
G02X5689I26D01*
G01*
G75*
G02X5638I-26*
G01*
Y1976D02*
G75*
G02X5689I26D01*
G01*
G75*
G02X5638I-26*
G01*
X5736Y718D02*
G75*
G02X5811I38D01*
G01*
G75*
G02X5736I-38*
G01*
X5763Y795D02*
G75*
G02X5838I38D01*
G01*
G75*
G02X5763I-38*
G01*
X5773Y2785D02*
G75*
G02X5705Y2806I-31J21D01*
G01*
G75*
G02X5773Y2826I38*
G01*
G75*
G02X5842Y2806I31J-21*
G01*
G75*
G02X5773Y2785I-38*
G01*
X59Y3819D02*
G36*
Y3593D01*
X226*
Y3646*
X331*
Y3593*
X2691*
Y3819*
X134*
G75*
G02X83I-26*
G01*
X59*
G37*
X83D02*
G36*
G75*
G02X134I26D01*
G01*
X2691*
Y3898*
X59*
Y3819*
X83*
G37*
X59Y278D02*
G36*
Y200D01*
X154*
G75*
G02X132Y278I125J78*
G01*
X59*
G37*
X132D02*
G36*
G75*
G02X169Y376I147D01*
G01*
X59*
Y278*
X132*
G37*
X426D02*
G36*
G75*
G02X403Y200I-147J0D01*
G01*
X3953*
G75*
G02X4054I51*
G01*
X5504*
G75*
G02X5482Y278I125J78*
G01*
X4505*
G75*
G02X4437Y261I-37J4*
G01*
G75*
G02X4368Y278I-32J20*
G01*
X426*
G37*
X4368D02*
G36*
G75*
G02X4368Y281I37J3D01*
G01*
G75*
G02X4436Y302I38*
G01*
G75*
G02X4505Y282I32J-20*
G01*
G75*
G02X4505Y278I-38*
G01*
X5482*
G75*
G02X5519Y376I147*
G01*
X4057*
G75*
G02X3956I-51*
G01*
X388*
G75*
G02X426Y278I-110J-98*
G01*
X4368*
G37*
X5776D02*
G36*
G75*
G02X5753Y200I-147J0D01*
G01*
X5849*
Y278*
X5776*
G37*
X5849D02*
G36*
Y376D01*
X5738*
G75*
G02X5776Y278I-110J-98*
G01*
X5849*
G37*
X59Y3203D02*
G36*
Y3020D01*
X481*
G75*
G02X612Y3152I132*
G01*
G75*
G02X744Y3020J-132*
G01*
X2410*
G75*
G02X2542Y3152I132*
G01*
G75*
G02X2673Y3020J-132*
G01*
X2691*
Y3203*
X426*
G75*
G02X132I-147*
G01*
X59*
G37*
X132D02*
G36*
G75*
G02X426I147D01*
G01*
X2691*
Y3493*
X318*
Y3454*
X239*
Y3493*
X59*
Y3203*
X132*
G37*
X5350D02*
G36*
Y3061D01*
X4201*
Y3014*
G75*
G02X4261Y2982I21J-32*
G01*
X4346*
G75*
G02X4397I26*
G01*
X4424*
G75*
G02X4501I38J-1*
G01*
X4587*
G75*
G02X4638I26*
G01*
X4664*
G75*
G02X4741I39*
G01*
X4827*
G75*
G02X4878I26*
G01*
X4904*
G75*
G02X4981I39*
G01*
X5066*
G75*
G02X5117I26*
G01*
X5849*
Y3203*
X5776*
G75*
G02X5482I-147*
G01*
X5350*
G37*
X5482D02*
G36*
G75*
G02X5776I147D01*
G01*
X5849*
Y3740*
X5726*
G75*
G02X5581I-73*
G01*
X5563*
G75*
G02X5444I-59*
G01*
X5350*
Y3203*
X5482*
G37*
X59Y3593D02*
G36*
Y3493D01*
X239*
Y3533*
X318*
Y3493*
X2691*
Y3593*
X331*
Y3541*
X226*
Y3593*
X59*
G37*
Y737D02*
G36*
Y579D01*
X2998*
G75*
G02X3035Y617I38*
G01*
G75*
G02X3073Y579J-38*
G01*
X3120*
G75*
G02X3220I50J-1*
G01*
X3615*
G75*
G02X3635Y583I20J-46*
G01*
G75*
G02X3656Y579I0J-51*
G01*
X4180*
G75*
G02X4175Y600I46J21*
G01*
G75*
G02X4276I51*
G01*
G75*
G02X4271Y579I-51J0*
G01*
X4431*
G75*
G02X4502Y633I45J14*
G01*
G75*
G02X4552Y633I26J-40*
G01*
G75*
G02X4624Y579I27J-39*
G01*
X5849*
Y737*
X5806*
G75*
G02X5811Y718I-32J-19*
G01*
G75*
G02X5736I-38*
G01*
G75*
G02X5741Y737I38J0*
G01*
X4622*
G75*
G02X4553I-34J37*
G01*
X3614*
G75*
G02X3564I-25J6*
G01*
X2796*
G75*
G02X2716I-40J31*
G01*
X2673*
G75*
G02X2542Y605I-132*
G01*
G75*
G02X2410Y737J132*
G01*
X2148*
G75*
G02X2055I-47J19*
G01*
X744*
G75*
G02X612Y605I-132*
G01*
G75*
G02X481Y737J132*
G01*
X59*
G37*
X481D02*
G36*
G75*
G02X500Y805I132D01*
G01*
X59*
Y737*
X481*
G37*
X2055D02*
G36*
G75*
G02X2051Y756I47J19D01*
G01*
G75*
G02X2088Y805I51*
G01*
X725*
G75*
G02X744Y737I-113J-68*
G01*
X2055*
G37*
X2410D02*
G36*
G75*
G02X2429Y805I132D01*
G01*
X2115*
G75*
G02X2152Y756I-13J-49*
G01*
G75*
G02X2148Y737I-51J0*
G01*
X2410*
G37*
X2716D02*
G36*
G75*
G02X2705Y768I40J31D01*
G01*
G75*
G02X2722Y805I51*
G01*
X2654*
G75*
G02X2673Y737I-113J-68*
G01*
X2716*
G37*
X3564D02*
G36*
G75*
G02X3564Y743I25J6D01*
G01*
G75*
G02X3615I26*
G01*
G75*
G02X3614Y737I-26J0*
G01*
X4553*
G75*
G02X4537Y774I34J37*
G01*
G75*
G02X4547Y805I51*
G01*
X4042*
G75*
G02X3991I-26*
G01*
X3963*
G75*
G02X3963Y804I-25J-1*
G01*
G75*
G02X3912I-26*
G01*
G75*
G02X3912Y805I25J0*
G01*
X3649*
G75*
G02X3598I-25J1*
G01*
X3567*
G75*
G02X3516I-26*
G01*
X2790*
G75*
G02X2806Y768I-34J-37*
G01*
G75*
G02X2796Y737I-51*
G01*
X3564*
G37*
X5741D02*
G36*
G75*
G02X5806I32J-19D01*
G01*
X5849*
Y805*
X5837*
G75*
G02X5838Y795I-36J-10*
G01*
G75*
G02X5763I-38*
G01*
G75*
G02X5765Y805I38J0*
G01*
X5163*
G75*
G02X5086I-38J5*
G01*
X4868*
G75*
G02X4817I-25J2*
G01*
X4627*
G75*
G02X4638Y774I-40J-31*
G01*
G75*
G02X4622Y737I-51*
G01*
X5741*
G37*
X59Y3020D02*
G36*
Y2982D01*
X487*
G75*
G02X481Y3020I126J39*
G01*
X59*
G37*
X744D02*
G36*
G75*
G02X738Y2982I-132D01*
G01*
X2416*
G75*
G02X2410Y3020I126J39*
G01*
X744*
G37*
X2673D02*
G36*
G75*
G02X2667Y2982I-132D01*
G01*
X2691*
Y3020*
X2673*
G37*
X59Y1403D02*
G36*
Y1315D01*
X2105*
G75*
G02X2156I26*
G01*
X2435*
G75*
G02X2481Y1384I56J12*
G01*
G75*
G02X2454Y1403I10J43*
G01*
X1916*
G75*
G02X1815I-51*
G01*
X1616*
G75*
G02X1515I-51*
G01*
X59*
G37*
X1515D02*
G36*
G75*
G02X1616I51D01*
G01*
X1815*
G75*
G02X1916I51*
G01*
X2454*
G75*
G02X2491Y1472I37J25*
G01*
G75*
G02X2528Y1403J-44*
G01*
X2554*
G75*
G02X2581Y1471I37J25*
G01*
G75*
G02X2534Y1518I10J57*
G01*
G75*
G02X2491Y1483I-43J10*
G01*
G75*
G02X2453Y1504J44*
G01*
X59*
Y1403*
X1515*
G37*
X2528D02*
G36*
G75*
G02X2501Y1384I-37J25D01*
G01*
G75*
G02X2548Y1338I-10J-57*
G01*
G75*
G02X2591Y1372I43J-10*
G01*
G75*
G02X2634Y1315J-44*
G01*
X2781*
G75*
G02X2832Y1367I50J1*
G01*
G75*
G02X2882Y1315J-51*
G01*
X5449*
G75*
G02X5476I13J-49*
G01*
X5595*
G75*
G02X5584Y1347I40J31*
G01*
G75*
G02X5685I51*
G01*
G75*
G02X5675Y1315I-51*
G01*
X5849*
Y1403*
X5676*
G75*
G02X5652I-12J22*
G01*
X5505*
G75*
G02X5415I-45J22*
G01*
X2628*
G75*
G02X2591Y1383I-37J25*
G01*
G75*
G02X2554Y1403J44*
G01*
X2528*
G37*
X5415D02*
G36*
G75*
G02X5410Y1425I45J22D01*
G01*
G75*
G02X5511I51*
G01*
G75*
G02X5505Y1403I-51*
G01*
X5652*
G75*
G02X5638Y1425I12J22*
G01*
G75*
G02X5689I26*
G01*
G75*
G02X5676Y1403I-26*
G01*
X5849*
Y1504*
X5689*
G75*
G02X5638I-26*
G01*
X5499*
G75*
G02X5448I-26*
G01*
X2643*
G75*
G02X2601Y1471I-52J24*
G01*
G75*
G02X2628Y1403I-10J-43*
G01*
X5415*
G37*
X59Y2868D02*
G36*
Y2795D01*
X2103*
G75*
G02X2204I51*
G01*
X2444*
G75*
G02X2450Y2868I47J33*
G01*
X1637*
G75*
G02X1536I-51*
G01*
X59*
G37*
X1536D02*
G36*
G75*
G02X1637I51D01*
G01*
X2450*
G75*
G02X2491Y2885I41J-40*
G01*
G75*
G02X2548Y2838J-58*
G01*
G75*
G02X2591Y2872I43J-10*
G01*
G75*
G02X2610Y2868J-44*
G01*
X2691*
Y2982*
X2667*
G75*
G02X2542Y2889I-126J39*
G01*
G75*
G02X2416Y2982J132*
G01*
X738*
G75*
G02X612Y2889I-126J39*
G01*
G75*
G02X487Y2982J132*
G01*
X59*
Y2868*
X1536*
G37*
X2610D02*
G36*
G75*
G02X2621Y2795I-19J-40D01*
G01*
X4238*
G75*
G02X4234Y2809I21J14*
G01*
G75*
G02X4285I26*
G01*
G75*
G02X4281Y2795I-26*
G01*
X4319*
G75*
G02X4316Y2809I36J14*
G01*
G75*
G02X4393I39*
G01*
G75*
G02X4390Y2795I-39*
G01*
X4480*
G75*
G02X4475Y2811I20J15*
G01*
G75*
G02X4526I26*
G01*
G75*
G02X4521Y2795I-26*
G01*
X4561*
G75*
G02X4558Y2809I36J14*
G01*
G75*
G02X4635I39*
G01*
G75*
G02X4632Y2795I-39*
G01*
X4720*
G75*
G02X4711Y2814I17J19*
G01*
G75*
G02X4762I26*
G01*
G75*
G02X4753Y2795I-26*
G01*
X4798*
G75*
G02X4794Y2813I34J18*
G01*
G75*
G02X4871I39*
G01*
G75*
G02X4866Y2795I-39J0*
G01*
X4961*
G75*
G02X4950Y2816I15J20*
G01*
G75*
G02X5001I26*
G01*
G75*
G02X4991Y2795I-26*
G01*
X5042*
G75*
G02X5037Y2814I33J19*
G01*
G75*
G02X5114I39*
G01*
G75*
G02X5109Y2795I-39J0*
G01*
X5706*
G75*
G02X5705Y2806I36J10*
G01*
G75*
G02X5773Y2826I38*
G01*
G75*
G02X5842Y2806I31J-21*
G01*
G75*
G02X5841Y2795I-38*
G01*
X5849*
Y2982*
X5117*
G75*
G02X5066I-26*
G01*
X4981*
G75*
G02X4904I-39*
G01*
X4878*
G75*
G02X4827I-26*
G01*
X4741*
G75*
G02X4664I-39*
G01*
X4638*
G75*
G02X4587I-26*
G01*
X4501*
G75*
G02X4501Y2980I-38J-1*
G01*
G75*
G02X4424I-39*
G01*
G75*
G02X4424Y2982I38J0*
G01*
X4397*
G75*
G02X4346I-26*
G01*
X4261*
G75*
G02X4201Y2949I-39*
G01*
Y2852*
X2691*
Y2868*
X2610*
G37*
X59Y1244D02*
G36*
Y1187D01*
X2473*
G75*
G02X2450Y1244I18J41*
G01*
X1836*
G75*
G02X1785I-26*
G01*
X1700*
G75*
G02X1649I-26*
G01*
X59*
G37*
X1649D02*
G36*
G75*
G02X1700I26D01*
G01*
X1785*
G75*
G02X1836I26*
G01*
X2450*
G75*
G02X2481Y1271I41J-17*
G01*
G75*
G02X2435Y1315I10J57*
G01*
X2156*
G75*
G02X2105I-26*
G01*
X59*
Y1244*
X1649*
G37*
X2532D02*
G36*
G75*
G02X2509Y1187I-41J-17D01*
G01*
X2573*
G75*
G02X2550Y1244I18J41*
G01*
X2532*
G37*
X2550D02*
G36*
G75*
G02X2591Y1272I41J-17D01*
G01*
G75*
G02X2632Y1244J-44*
G01*
X5417*
G75*
G02X5412Y1267I45J22*
G01*
G75*
G02X5449Y1315I51*
G01*
X2882*
G75*
G02X2832Y1266I-50J1*
G01*
G75*
G02X2781Y1315J51*
G01*
X2634*
G75*
G02X2591Y1283I-43J12*
G01*
G75*
G02X2548Y1318J44*
G01*
G75*
G02X2501Y1271I-57J10*
G01*
G75*
G02X2532Y1244I-10J-43*
G01*
X2550*
G37*
X2632D02*
G36*
G75*
G02X2609Y1187I-41J-17D01*
G01*
X5452*
G75*
G02X5503I26*
G01*
X5638*
G75*
G02X5638Y1188I25J1*
G01*
G75*
G02X5689I26*
G01*
G75*
G02X5689Y1187I-26J0*
G01*
X5849*
Y1244*
X5671*
G75*
G02X5581I-45J22*
G01*
X5508*
G75*
G02X5417I-45J22*
G01*
X2632*
G37*
X5581D02*
G36*
G75*
G02X5576Y1267I45J22D01*
G01*
G75*
G02X5600Y1310I51*
G01*
G75*
G02X5595Y1315I35J37*
G01*
X5476*
G75*
G02X5513Y1267I-13J-49*
G01*
G75*
G02X5508Y1244I-51*
G01*
X5581*
G37*
X5849D02*
G36*
Y1315D01*
X5675*
G75*
G02X5661Y1303I-40J31*
G01*
G75*
G02X5677Y1267I-35J-37*
G01*
G75*
G02X5671Y1244I-51*
G01*
X5849*
G37*
X59Y2548D02*
G36*
Y2428D01*
X2447*
G75*
G02X2491Y2472I44*
G01*
G75*
G02X2536Y2428J-44*
G01*
X2547*
G75*
G02X2581Y2471I44*
G01*
G75*
G02X2534Y2518I10J57*
G01*
G75*
G02X2491Y2483I-43J10*
G01*
G75*
G02X2452Y2548J44*
G01*
X2137*
G75*
G02X2036I-51*
G01*
X59*
G37*
X2036D02*
G36*
G75*
G02X2137I51D01*
G01*
X2452*
G75*
G02X2491Y2572I39J-21*
G01*
G75*
G02X2534Y2538J-44*
G01*
G75*
G02X2581Y2584I57J-10*
G01*
G75*
G02X2549Y2613I10J43*
G01*
X2533*
G75*
G02X2491Y2583I-42J14*
G01*
G75*
G02X2449Y2613J44*
G01*
X2262*
G75*
G02X2211I-26*
G01*
X59*
Y2548*
X2036*
G37*
X2645D02*
G36*
G75*
G02X2601Y2471I-54J-21D01*
G01*
G75*
G02X2636Y2428I-10J-43*
G01*
X5849*
Y2548*
X5676*
G75*
G02X5680Y2527I-46J-21*
G01*
G75*
G02X5579I-51*
G01*
G75*
G02X5584Y2548I51*
G01*
X5501*
G75*
G02X5506Y2527I-46J-21*
G01*
G75*
G02X5405I-51*
G01*
G75*
G02X5409Y2548I51*
G01*
X3953*
G75*
G02X3891Y2508I-63J28*
G01*
G75*
G02X3828Y2548J69*
G01*
X3658*
G75*
G02X3595Y2508I-63J28*
G01*
G75*
G02X3533Y2548J69*
G01*
X3293*
G75*
G02X3230Y2507I-63J27*
G01*
G75*
G02X3167Y2548J69*
G01*
X2998*
G75*
G02X2935Y2507I-63J27*
G01*
G75*
G02X2872Y2548J69*
G01*
X2645*
G37*
X2872D02*
G36*
G75*
G02X2878Y2613I63J27D01*
G01*
X2633*
G75*
G02X2601Y2584I-42J14*
G01*
G75*
G02X2645Y2548I-10J-57*
G01*
X2872*
G37*
X3167D02*
G36*
G75*
G02X3173Y2613I63J27D01*
G01*
X2992*
G75*
G02X2998Y2548I-57J-38*
G01*
X3167*
G37*
X3533D02*
G36*
G75*
G02X3537Y2613I63J28D01*
G01*
X3287*
G75*
G02X3293Y2548I-57J-38*
G01*
X3533*
G37*
X3828D02*
G36*
G75*
G02X3833Y2613I63J28D01*
G01*
X3653*
G75*
G02X3658Y2548I-58J-37*
G01*
X3828*
G37*
X5409D02*
G36*
G75*
G02X5501I46J-21D01*
G01*
X5584*
G75*
G02X5676I46J-21*
G01*
X5849*
Y2613*
X3948*
G75*
G02X3953Y2548I-58J-37*
G01*
X5409*
G37*
X59Y2795D02*
G36*
Y2752D01*
X2127*
G75*
G02X2103Y2795I26J43*
G01*
X59*
G37*
X2204D02*
G36*
G75*
G02X2180Y2752I-51D01*
G01*
X2212*
G75*
G02X2263I26*
G01*
X2454*
G75*
G02X2481Y2771I37J-24*
G01*
G75*
G02X2444Y2795I10J57*
G01*
X2204*
G37*
X2621D02*
G36*
G75*
G02X2591Y2783I-30J33D01*
G01*
G75*
G02X2548Y2818J44*
G01*
G75*
G02X2501Y2771I-57J10*
G01*
G75*
G02X2528Y2752I-10J-43*
G01*
X2554*
G75*
G02X2591Y2772I37J-24*
G01*
G75*
G02X2628Y2752J-44*
G01*
X5849*
Y2795*
X5841*
G75*
G02X5773Y2785I-36J10*
G01*
G75*
G02X5706Y2795I-31J21*
G01*
X5109*
G75*
G02X5042I-33J19*
G01*
X4991*
G75*
G02X4961I-15J20*
G01*
X4866*
G75*
G02X4798I-34J18*
G01*
X4753*
G75*
G02X4720I-17J19*
G01*
X4632*
G75*
G02X4561I-36J14*
G01*
X4521*
G75*
G02X4480I-20J15*
G01*
X4390*
G75*
G02X4319I-36J14*
G01*
X4281*
G75*
G02X4238I-21J14*
G01*
X2621*
G37*
X59Y975D02*
G36*
Y928D01*
X2447*
Y972*
X2536*
Y928*
X2547*
G75*
G02X2591Y972I44*
G01*
G75*
G02X2636Y928J-44*
G01*
X3537*
G75*
G02X3518Y952I7J25*
G01*
G75*
G02X3531Y975I26*
G01*
X2230*
G75*
G02X2179I-26*
G01*
X59*
G37*
X2179D02*
G36*
G75*
G02X2230I26D01*
G01*
X3531*
G75*
G02X3555I12J-22*
G01*
X3613*
G75*
G02X3638I12J-22*
G01*
X3926*
G75*
G02X3954I14J-21*
G01*
X4005*
G75*
G02X4033I14J-21*
G01*
X4186*
G75*
G02X4223I19J-17*
G01*
X4290*
G75*
G02X4334I22J-12*
G01*
X4398*
G75*
G02X4443I22J-12*
G01*
X5432*
G75*
G02X5444Y984I29J-24*
G01*
G75*
G02X5412Y1028I19J47*
G01*
X4395*
G75*
G02X4397Y1016I-23J-12*
G01*
G75*
G02X4346I-26*
G01*
G75*
G02X4349Y1028I26*
G01*
X4280*
G75*
G02X4283Y1017I-23J-10*
G01*
G75*
G02X4232I-26*
G01*
G75*
G02X4234Y1028I26*
G01*
X2636*
G75*
G02X2591Y983I-44*
G01*
G75*
G02X2547Y1028J44*
G01*
X2536*
G75*
G02X2491Y983I-44*
G01*
G75*
G02X2447Y1028J44*
G01*
X59*
Y975*
X2179*
G37*
X3555D02*
G36*
G75*
G02X3569Y952I-12J-22D01*
G01*
G75*
G02X3550Y928I-26*
G01*
X3619*
G75*
G02X3600Y952I7J25*
G01*
G75*
G02X3613Y975I26*
G01*
X3555*
G37*
X3638D02*
G36*
G75*
G02X3651Y952I-12J-22D01*
G01*
G75*
G02X3632Y928I-26*
G01*
X4246*
G75*
G02X4273I14J-22*
G01*
X4358*
G75*
G02X4386I14J-22*
G01*
X5432*
G75*
G02X5432Y975I29J23*
G01*
X4443*
G75*
G02X4446Y962I-22J-12*
G01*
G75*
G02X4395I-26*
G01*
G75*
G02X4398Y975I26*
G01*
X4334*
G75*
G02X4337Y962I-22J-12*
G01*
G75*
G02X4286I-26*
G01*
G75*
G02X4290Y975I26*
G01*
X4223*
G75*
G02X4230Y957I-19J-17*
G01*
G75*
G02X4179I-26*
G01*
G75*
G02X4186Y975I26*
G01*
X4033*
G75*
G02X4044Y954I-14J-21*
G01*
G75*
G02X3993I-26*
G01*
G75*
G02X4005Y975I26*
G01*
X3954*
G75*
G02X3966Y954I-14J-21*
G01*
G75*
G02X3915I-26*
G01*
G75*
G02X3926Y975I26*
G01*
X3638*
G37*
X5490D02*
G36*
G75*
G02X5491Y928I-29J-24D01*
G01*
X5600*
G75*
G02X5599Y975I28J25*
G01*
X5490*
G37*
X5599D02*
G36*
G75*
G02X5609Y984I30J-22D01*
G01*
G75*
G02X5578Y1028I19J47*
G01*
X5513*
G75*
G02X5480Y983I-50J3*
G01*
G75*
G02X5490Y975I-19J-32*
G01*
X5599*
G37*
X5659D02*
G36*
G75*
G02X5657Y928I-30J-22D01*
G01*
X5849*
Y975*
X5659*
G37*
X5849D02*
G36*
Y1028D01*
X5679*
G75*
G02X5648Y984I-50J3*
G01*
G75*
G02X5659Y975I-19J-32*
G01*
X5849*
G37*
X59Y1590D02*
G36*
Y1504D01*
X2453*
G75*
G02X2491Y1572I38J24*
G01*
G75*
G02X2534Y1538J-44*
G01*
G75*
G02X2591Y1585I57J-10*
G01*
G75*
G02X2643Y1504J-58*
G01*
X5448*
G75*
G02X5499I26*
G01*
X5638*
G75*
G02X5689I26*
G01*
X5849*
Y1590*
X5308*
G75*
G02X5300Y1561I-24J-9*
G01*
G75*
G02X5284Y1516I-16J-20*
G01*
G75*
G02X5268Y1561J26*
G01*
G75*
G02X5260Y1590I16J20*
G01*
X2603*
G75*
G02X2591Y1588I-12J38*
G01*
G75*
G02X2579Y1590J40*
G01*
X2515*
G75*
G02X2491Y1583I-24J38*
G01*
G75*
G02X2467Y1590J44*
G01*
X2410*
G75*
G02X2413Y1578I-22J-13*
G01*
G75*
G02X2362I-26*
G01*
G75*
G02X2365Y1590I26*
G01*
X2288*
G75*
G02X2187I-51*
G01*
X59*
G37*
X2187D02*
G36*
G75*
G02X2288I51D01*
G01*
X2365*
G75*
G02X2410I22J-13*
G01*
X2467*
G75*
G02X2491Y1672I24J38*
G01*
G75*
G02X2515Y1590J-44*
G01*
X2579*
G75*
G02X2591Y1667I12J38*
G01*
G75*
G02X2603Y1590J-40*
G01*
X5260*
G75*
G02X5268Y1601I24J-9*
G01*
G75*
G02Y1641I16J20*
G01*
G75*
G02X5269Y1682I16J20*
G01*
G75*
G02X5281Y1728I15J21*
G01*
X2636*
G75*
G02X2591Y1683I-44*
G01*
G75*
G02X2547Y1728J44*
G01*
X2536*
G75*
G02X2491Y1683I-44*
G01*
G75*
G02X2447Y1728J44*
G01*
X59*
Y1590*
X2187*
G37*
X5849D02*
G36*
Y1728D01*
X5496*
G75*
G02X5451I-22J12*
G01*
X5287*
G75*
G02X5299Y1682I-3J-25*
G01*
G75*
G02X5300Y1641I-15J-21*
G01*
G75*
G02Y1601I-16J-20*
G01*
G75*
G02X5308Y1590I-16J-20*
G01*
X5849*
G37*
X2211Y2613D02*
G36*
G75*
G02X2262I26D01*
G01*
X2449*
G75*
G02X2491Y2672I42J14*
G01*
G75*
G02X2533Y2613J-44*
G01*
X2549*
G75*
G02X2591Y2672I42J14*
G01*
G75*
G02X2633Y2613J-44*
G01*
X2878*
G75*
G02X2935Y2644I57J-38*
G01*
G75*
G02X2992Y2613J-69*
G01*
X3173*
G75*
G02X3230Y2644I57J-38*
G01*
G75*
G02X3287Y2613J-69*
G01*
X3537*
G75*
G02X3595Y2645I58J-37*
G01*
G75*
G02X3653Y2613J-69*
G01*
X3833*
G75*
G02X3891Y2645I58J-37*
G01*
G75*
G02X3948Y2613J-69*
G01*
X5849*
Y2685*
X5680*
G75*
G02X5579I-51*
G01*
X5504*
G75*
G02X5403I-51*
G01*
X2602*
G75*
G02X2591Y2683I-11J43*
G01*
G75*
G02X2580Y2685J44*
G01*
X2502*
G75*
G02X2491Y2683I-11J43*
G01*
G75*
G02X2480Y2685J44*
G01*
X59*
Y2613*
X2211*
G37*
X59Y2752D02*
G36*
Y2685D01*
X2480*
G75*
G02X2454Y2752I11J43*
G01*
X2263*
G75*
G02X2212I-26*
G01*
X2180*
G75*
G02X2127I-26J43*
G01*
X59*
G37*
X2528D02*
G36*
G75*
G02X2502Y2685I-37J-24D01*
G01*
X2580*
G75*
G02X2554Y2752I11J43*
G01*
X2528*
G37*
X2628D02*
G36*
G75*
G02X2602Y2685I-37J-24D01*
G01*
X5403*
G75*
G02X5504I51*
G01*
X5579*
G75*
G02X5680I51*
G01*
X5849*
Y2752*
X2628*
G37*
X59Y882D02*
G36*
Y854D01*
X552*
G75*
G02X612Y868I61J-117*
G01*
G75*
G02X673Y854J-132*
G01*
X2481*
G75*
G02X2542Y868I61J-117*
G01*
G75*
G02X2602Y854J-132*
G01*
X3537*
G75*
G02X3516Y879I5J25*
G01*
G75*
G02X3517Y882I26J0*
G01*
X2413*
G75*
G02X2362I-26*
G01*
X59*
G37*
X2362D02*
G36*
G75*
G02X2413I26D01*
G01*
X3517*
G75*
G02X3567I25J-4*
G01*
X3596*
G75*
G02X3647I25J-2*
G01*
X3917*
G75*
G02X3968I25J-4*
G01*
X3992*
G75*
G02X4043I25J-2*
G01*
X4250*
G75*
G02X4234Y906I9J24*
G01*
G75*
G02X4246Y928I26*
G01*
X3632*
G75*
G02X3619I-7J25*
G01*
X3550*
G75*
G02X3537I-7J25*
G01*
X2636*
G75*
G02X2591Y883I-44*
G01*
G75*
G02X2547Y928J44*
G01*
X2536*
Y883*
X2447*
Y928*
X59*
Y882*
X2362*
G37*
X3567D02*
G36*
G75*
G02X3567Y879I-25J-4D01*
G01*
G75*
G02X3547Y854I-26*
G01*
X3937*
G75*
G02X3917Y879I5J25*
G01*
G75*
G02X3917Y882I26J0*
G01*
X3647*
G75*
G02X3647Y880I-25J-2*
G01*
G75*
G02X3596I-26*
G01*
G75*
G02X3596Y882I25J0*
G01*
X3567*
G37*
X3968D02*
G36*
G75*
G02X3968Y879I-25J-4D01*
G01*
G75*
G02X3948Y854I-26*
G01*
X4179*
G75*
G02X4230I26*
G01*
X4289*
G75*
G02X4289Y855I25J1*
G01*
G75*
G02X4340I26*
G01*
G75*
G02X4340Y854I-26J0*
G01*
X4395*
G75*
G02X4446I26*
G01*
X5415*
G75*
G02X5411Y874I46J20*
G01*
G75*
G02X5412Y882I51J0*
G01*
X4381*
G75*
G02X4362I-9J24*
G01*
X4269*
G75*
G02X4250I-9J24*
G01*
X4043*
G75*
G02X4043Y880I-25J-2*
G01*
G75*
G02X3992I-26*
G01*
G75*
G02X3992Y882I25J0*
G01*
X3968*
G37*
X4362D02*
G36*
G75*
G02X4346Y906I9J24D01*
G01*
G75*
G02X4358Y928I26*
G01*
X4273*
G75*
G02X4285Y906I-14J-22*
G01*
G75*
G02X4269Y882I-26*
G01*
X4362*
G37*
X5412D02*
G36*
G75*
G02X5441Y920I50J-9D01*
G01*
G75*
G02X5432Y928I21J31*
G01*
X4386*
G75*
G02X4397Y906I-14J-22*
G01*
G75*
G02X4381Y882I-26*
G01*
X5412*
G37*
X5511D02*
G36*
G75*
G02X5512Y874I-50J-9D01*
G01*
G75*
G02X5508Y854I-51J0*
G01*
X5582*
G75*
G02X5578Y874I46J20*
G01*
G75*
G02X5579Y882I50J0*
G01*
X5511*
G37*
X5579D02*
G36*
G75*
G02X5609Y920I50J-9D01*
G01*
G75*
G02X5600Y928I19J32*
G01*
X5491*
G75*
G02X5482Y920I-29J23*
G01*
G75*
G02X5511Y882I-21J-46*
G01*
X5579*
G37*
X5678D02*
G36*
G75*
G02X5679Y874I-50J-9D01*
G01*
G75*
G02X5675Y854I-51J0*
G01*
X5849*
Y882*
X5678*
G37*
X5849D02*
G36*
Y928D01*
X5657*
G75*
G02X5648Y920I-28J25*
G01*
G75*
G02X5678Y882I-19J-47*
G01*
X5849*
G37*
X59Y2128D02*
G36*
Y2028D01*
X2447*
G75*
G02X2481Y2071I44*
G01*
G75*
G02X2434Y2128I10J57*
G01*
X59*
G37*
X2434D02*
G36*
G75*
G02X2481Y2184I58D01*
G01*
G75*
G02X2491Y2272I10J43*
G01*
G75*
G02X2501Y2184J-44*
G01*
G75*
G02X2548Y2138I-10J-57*
G01*
G75*
G02X2591Y2172I43J-10*
G01*
G75*
G02X2636Y2128J-44*
G01*
X3353*
G75*
G02X3401I24J-8*
G01*
X5314*
G75*
G02X5414I50J-2*
G01*
X5849*
Y2428*
X2636*
G75*
G02X2601Y2384I-44*
G01*
G75*
G02Y2271I-10J-57*
G01*
G75*
G02X2591Y2183I-10J-43*
G01*
G75*
G02X2581Y2271J44*
G01*
G75*
G02X2534Y2318I10J57*
G01*
G75*
G02X2491Y2283I-43J10*
G01*
G75*
G02Y2372J44*
G01*
G75*
G02X2534Y2338J-44*
G01*
G75*
G02X2581Y2384I57J-10*
G01*
G75*
G02X2547Y2428I10J43*
G01*
X2536*
G75*
G02X2491Y2383I-44*
G01*
G75*
G02X2447Y2428J44*
G01*
X59*
Y2128*
X2434*
G37*
X2636D02*
G36*
G75*
G02X2591Y2083I-44D01*
G01*
G75*
G02X2548Y2118J44*
G01*
G75*
G02X2501Y2071I-57J10*
G01*
G75*
G02X2536Y2028I-10J-43*
G01*
X2547*
G75*
G02X2591Y2072I44*
G01*
G75*
G02X2636Y2028J-44*
G01*
X5849*
Y2128*
X5414*
G75*
G02X5415Y2125I-50J-2*
G01*
G75*
G02X5314I-51*
G01*
G75*
G02X5314Y2128I50J0*
G01*
X3401*
G75*
G02X3403Y2119I-24J-8*
G01*
G75*
G02X3352I-26*
G01*
G75*
G02X3353Y2128I26J0*
G01*
X2636*
G37*
X2447Y1028D02*
G36*
G75*
G02X2476Y1070I44D01*
G01*
X59*
Y1028*
X2447*
G37*
X2547D02*
G36*
G75*
G02X2576Y1070I44D01*
G01*
X2506*
G75*
G02X2536Y1028I-15J-42*
G01*
X2547*
G37*
X4234D02*
G36*
G75*
G02X4280I23J-10D01*
G01*
X4349*
G75*
G02X4395I23J-12*
G01*
X5412*
G75*
G02X5412Y1031I50J3*
G01*
G75*
G02X5430Y1070I51*
G01*
X4447*
G75*
G02X4396I-25J2*
G01*
X4337*
G75*
G02X4286I-25J1*
G01*
X4230*
G75*
G02X4179I-26*
G01*
X2606*
G75*
G02X2636Y1028I-15J-42*
G01*
X4234*
G37*
X5578D02*
G36*
G75*
G02X5578Y1031I50J3D01*
G01*
G75*
G02X5596Y1070I51*
G01*
X5495*
G75*
G02X5513Y1031I-32J-39*
G01*
G75*
G02X5513Y1028I-51J0*
G01*
X5578*
G37*
X5849D02*
G36*
Y1070D01*
X5661*
G75*
G02X5679Y1031I-32J-39*
G01*
G75*
G02X5679Y1028I-51J0*
G01*
X5849*
G37*
X2447Y1728D02*
G36*
G75*
G02X2491Y1772I44D01*
G01*
G75*
G02X2536Y1728J-44*
G01*
X2547*
G75*
G02X2581Y1771I44*
G01*
G75*
G02X2534Y1818I10J57*
G01*
G75*
G02X2491Y1783I-43J10*
G01*
G75*
G02X2448Y1818J44*
G01*
X59*
Y1728*
X2447*
G37*
X5281D02*
G36*
G75*
G02X5284Y1728I3J-25D01*
G01*
G75*
G02X5287Y1728J-25*
G01*
X5451*
G75*
G02X5448Y1740I22J12*
G01*
G75*
G02X5499I26*
G01*
G75*
G02X5496Y1728I-26J0*
G01*
X5849*
Y1818*
X5689*
G75*
G02X5638I-26*
G01*
X5501*
G75*
G02X5450I-26*
G01*
X2648*
G75*
G02X2601Y1771I-57J9*
G01*
G75*
G02X2636Y1728I-10J-43*
G01*
X5281*
G37*
X59Y1928D02*
G36*
Y1882D01*
X2572*
G75*
G02X2581Y1884I19J-54*
G01*
G75*
G02X2547Y1928I10J43*
G01*
X2536*
G75*
G02X2491Y1883I-44*
G01*
G75*
G02X2447Y1928J44*
G01*
X59*
G37*
X2447D02*
G36*
G75*
G02X2491Y1972I44D01*
G01*
G75*
G02X2536Y1928J-44*
G01*
X2547*
G75*
G02X2591Y1972I44*
G01*
G75*
G02X2636Y1928J-44*
G01*
X5849*
Y1978*
X5689*
G75*
G02X5689Y1976I-25J-2*
G01*
G75*
G02X5638I-26*
G01*
G75*
G02X5638Y1978I25J0*
G01*
X3367*
G75*
G02X3290I-39*
G01*
X59*
Y1928*
X2447*
G37*
X2636D02*
G36*
G75*
G02X2601Y1884I-44D01*
G01*
G75*
G02X2610Y1882I-10J-57*
G01*
X2719*
G75*
G02X2770I26*
G01*
X5454*
G75*
G02X5450Y1897I21J15*
G01*
G75*
G02X5501I26*
G01*
G75*
G02X5496Y1882I-26*
G01*
X5643*
G75*
G02X5638Y1897I21J15*
G01*
G75*
G02X5689I26*
G01*
G75*
G02X5684Y1882I-26*
G01*
X5849*
Y1928*
X2636*
G37*
X59Y2028D02*
G36*
Y1978D01*
X3290*
G75*
G02X3367I39*
G01*
X5638*
G75*
G02X5689I25J-2*
G01*
X5849*
Y2028*
X2636*
G75*
G02X2591Y1983I-44*
G01*
G75*
G02X2547Y2028J44*
G01*
X2536*
G75*
G02X2491Y1983I-44*
G01*
G75*
G02X2447Y2028J44*
G01*
X59*
G37*
Y1882D02*
G36*
Y1818D01*
X2448*
G75*
G02X2491Y1872I44J9*
G01*
G75*
G02X2534Y1838J-44*
G01*
G75*
G02X2572Y1882I57J-10*
G01*
X59*
G37*
X2610D02*
G36*
G75*
G02X2648Y1818I-19J-54D01*
G01*
X5450*
G75*
G02X5501I26*
G01*
X5638*
G75*
G02X5689I26*
G01*
X5849*
Y1882*
X5684*
G75*
G02X5643I-21J15*
G01*
X5496*
G75*
G02X5454I-21J15*
G01*
X2770*
G75*
G02X2719I-26*
G01*
X2610*
G37*
X59Y579D02*
G36*
Y508D01*
X3323*
G75*
G02X3424I51*
G01*
X3592*
G75*
G02X3615Y579I44J25*
G01*
X3220*
G75*
G02X3221Y578I-50J-1*
G01*
G75*
G02X3120I-51*
G01*
G75*
G02X3120Y579I50J0*
G01*
X3073*
G75*
G02X3035Y542I-38*
G01*
G75*
G02X2998Y579J38*
G01*
X59*
G37*
X3656D02*
G36*
G75*
G02X3679Y508I-20J-46D01*
G01*
X4443*
G75*
G02X4437Y567I33J34*
G01*
G75*
G02X4431Y579I40J26*
G01*
X4271*
G75*
G02X4180I-46J21*
G01*
X3656*
G37*
X4624D02*
G36*
G75*
G02X4619Y568I-45J15D01*
G01*
G75*
G02X4615Y508I-39J-28*
G01*
X4671*
G75*
G02X4729I29J-41*
G01*
X5849*
Y579*
X4624*
G37*
X59Y508D02*
G36*
Y376D01*
X169*
G75*
G02X388I110J-98*
G01*
X3956*
G75*
G02X4057I51*
G01*
X5519*
G75*
G02X5738I110J-98*
G01*
X5849*
Y508*
X4729*
G75*
G02X4750Y467I-29J-41*
G01*
G75*
G02X4649I-51*
G01*
G75*
G02X4671Y508I51*
G01*
X4615*
G75*
G02X4554Y501I-35J32*
G01*
G75*
G02X4501Y501I-26J40*
G01*
G75*
G02X4443Y508I-25J41*
G01*
X3679*
G75*
G02X3635Y482I-44J25*
G01*
G75*
G02X3592Y508J51*
G01*
X3424*
G75*
G02X3323I-51*
G01*
X59*
G37*
X500Y805D02*
G36*
G75*
G02X552Y854I113J-68D01*
G01*
X59*
Y805*
X500*
G37*
X2088D02*
G36*
G75*
G02X2115I13J-49D01*
G01*
X2429*
G75*
G02X2481Y854I113J-68*
G01*
X673*
G75*
G02X725Y805I-61J-117*
G01*
X2088*
G37*
X2722D02*
G36*
G75*
G02X2790I34J-37D01*
G01*
X3516*
G75*
G02X3567I26*
G01*
X3598*
G75*
G02X3598Y806I25J1*
G01*
G75*
G02X3649I26*
G01*
G75*
G02X3649Y805I-26J0*
G01*
X3912*
G75*
G02X3963I25J-1*
G01*
X3991*
G75*
G02X4042I26*
G01*
X4547*
G75*
G02X4627I40J-31*
G01*
X4817*
G75*
G02X4817Y807I25J2*
G01*
G75*
G02X4868I26*
G01*
G75*
G02X4868Y805I-26J0*
G01*
X5086*
G75*
G02X5086Y810I38J5*
G01*
G75*
G02X5163I39*
G01*
G75*
G02X5163Y805I-39J0*
G01*
X5765*
G75*
G02X5837I36J-10*
G01*
X5849*
Y854*
X5675*
G75*
G02X5582I-46J20*
G01*
X5508*
G75*
G02X5415I-46J20*
G01*
X4446*
G75*
G02X4395I-26*
G01*
X4340*
G75*
G02X4289I-25J1*
G01*
X4230*
G75*
G02X4179I-26*
G01*
X3948*
G75*
G02X3937I-5J25*
G01*
X3547*
G75*
G02X3537I-5J25*
G01*
X2602*
G75*
G02X2654Y805I-61J-117*
G01*
X2722*
G37*
X59Y200D02*
G36*
Y58D01*
X2454*
Y152*
X2868*
Y58*
X5849*
Y200*
X5753*
G75*
G02X5504I-125J78*
G01*
X4054*
G75*
G02X3953I-51*
G01*
X403*
G75*
G02X154I-125J78*
G01*
X59*
G37*
X2476Y1070D02*
G36*
G75*
G02X2491Y1072I15J-42D01*
G01*
G75*
G02X2506Y1070J-44*
G01*
X2576*
G75*
G02X2581Y1071I15J-42*
G01*
G75*
G02X2534Y1118I10J57*
G01*
G75*
G02X2491Y1083I-43J10*
G01*
G75*
G02X2450Y1110J44*
G01*
X59*
Y1070*
X2476*
G37*
X4179D02*
G36*
G75*
G02X4230I26D01*
G01*
X4286*
G75*
G02X4286Y1071I25J1*
G01*
G75*
G02X4337I26*
G01*
G75*
G02X4337Y1070I-26J0*
G01*
X4396*
G75*
G02X4396Y1072I25J2*
G01*
G75*
G02X4447I26*
G01*
G75*
G02X4447Y1070I-26J0*
G01*
X5430*
G75*
G02X5495I32J-39*
G01*
X5596*
G75*
G02X5661I32J-39*
G01*
X5849*
Y1110*
X5689*
G75*
G02X5638I-26*
G01*
X5502*
G75*
G02X5451I-26*
G01*
X2646*
G75*
G02X2601Y1071I-55J18*
G01*
G75*
G02X2606Y1070I-10J-43*
G01*
X4179*
G37*
X5444Y3740D02*
G36*
G75*
G02X5563I59D01*
G01*
X5581*
G75*
G02X5726I73*
G01*
X5849*
Y3898*
X5350*
Y3740*
X5444*
G37*
X2450Y1110D02*
G36*
G75*
G02X2491Y1172I41J18D01*
G01*
G75*
G02X2534Y1138J-44*
G01*
G75*
G02X2581Y1184I57J-10*
G01*
G75*
G02X2573Y1187I10J43*
G01*
X2509*
G75*
G02X2491Y1183I-18J41*
G01*
G75*
G02X2473Y1187J44*
G01*
X59*
Y1110*
X2450*
G37*
X5451D02*
G36*
G75*
G02X5502I26D01*
G01*
X5638*
G75*
G02X5689I26*
G01*
X5849*
Y1187*
X5689*
G75*
G02X5638I-25J1*
G01*
X5503*
G75*
G02X5452I-26*
G01*
X2609*
G75*
G02X2601Y1184I-18J41*
G01*
G75*
G02X2646Y1110I-10J-57*
G01*
X5451*
G37*
X2697Y90D02*
X2702Y87D01*
X2707*
X2712Y90*
X2715Y95*
X2712Y100*
X2707Y102*
X2702*
X2707D02*
X2712Y105D01*
X2715Y110*
X2712Y115*
X2707Y117*
X2702*
X2697Y115*
X4206Y3898D02*
Y3219D01*
X5153*
Y3898*
X4206*
X4234Y3321D02*
G75*
G02X4311I39D01*
G01*
G75*
G02X4234I-39*
G01*
X4244Y3740D02*
G75*
G02X4363I59D01*
G01*
G75*
G02X4244I-59*
G01*
X4245Y3391D02*
G75*
G02X4296I26D01*
G01*
G75*
G02X4245I-26*
G01*
X4381Y3740D02*
G75*
G02X4526I73D01*
G01*
G75*
G02X4381I-73*
G01*
X4474Y3321D02*
G75*
G02X4551I39D01*
G01*
G75*
G02X4474I-39*
G01*
X4484Y3617D02*
G75*
G02X4535I26D01*
G01*
G75*
G02X4484I-26*
G01*
X4486Y3391D02*
G75*
G02X4537I26D01*
G01*
G75*
G02X4486I-26*
G01*
X4544Y3740D02*
G75*
G02X4663I59D01*
G01*
G75*
G02X4544I-59*
G01*
X4694D02*
G75*
G02X4813I59D01*
G01*
G75*
G02X4694I-59*
G01*
X4714Y3321D02*
G75*
G02X4791I39D01*
G01*
G75*
G02X4714I-39*
G01*
X4727Y3391D02*
G75*
G02X4778I26D01*
G01*
G75*
G02X4727I-26*
G01*
X4844Y3740D02*
G75*
G02X4963I59D01*
G01*
G75*
G02X4844I-59*
G01*
X4954Y3321D02*
G75*
G02X5031I39D01*
G01*
G75*
G02X4954I-39*
G01*
X4965Y3391D02*
G75*
G02X5016I26D01*
G01*
G75*
G02X4965I-26*
G01*
X4994Y3740D02*
G75*
G02X5113I59D01*
G01*
G75*
G02X4994I-59*
G01*
X4206Y3321D02*
G36*
Y3219D01*
X5153*
Y3321*
X5031*
G75*
G02X4954I-39*
G01*
X4791*
G75*
G02X4714I-39*
G01*
X4551*
G75*
G02X4474I-39*
G01*
X4311*
G75*
G02X4234I-39*
G01*
X4206*
G37*
X4234D02*
G36*
G75*
G02X4311I39D01*
G01*
X4474*
G75*
G02X4551I39*
G01*
X4714*
G75*
G02X4791I39*
G01*
X4954*
G75*
G02X5031I39*
G01*
X5153*
Y3391*
X5016*
G75*
G02X4965I-26*
G01*
X4778*
G75*
G02X4727I-26*
G01*
X4537*
G75*
G02X4486I-26*
G01*
X4296*
G75*
G02X4245I-26*
G01*
X4206*
Y3321*
X4234*
G37*
X4206Y3740D02*
G36*
Y3617D01*
X4484*
G75*
G02X4535I26*
G01*
X5153*
Y3740*
X5113*
G75*
G02X4994I-59*
G01*
X4963*
G75*
G02X4844I-59*
G01*
X4813*
G75*
G02X4694I-59*
G01*
X4663*
G75*
G02X4544I-59*
G01*
X4526*
G75*
G02X4381I-73*
G01*
X4363*
G75*
G02X4244I-59*
G01*
X4206*
G37*
X4244D02*
G36*
G75*
G02X4363I59D01*
G01*
X4381*
G75*
G02X4526I73*
G01*
X4544*
G75*
G02X4663I59*
G01*
X4694*
G75*
G02X4813I59*
G01*
X4844*
G75*
G02X4963I59*
G01*
X4994*
G75*
G02X5113I59*
G01*
X5153*
Y3898*
X4206*
Y3740*
X4244*
G37*
X4245Y3391D02*
G36*
G75*
G02X4296I26D01*
G01*
X4486*
G75*
G02X4537I26*
G01*
X4727*
G75*
G02X4778I26*
G01*
X4965*
G75*
G02X5016I26*
G01*
X5153*
Y3617*
X4535*
G75*
G02X4484I-26*
G01*
X4206*
Y3391*
X4245*
G37*
D02*
D29*
X255Y3570D02*
X218Y3533D01*
X255Y3616D02*
X218Y3653D01*
X301Y3570D02*
X338Y3533D01*
X301Y3616D02*
X338Y3653D01*
X1547Y1403D02*
X1507D01*
X1565Y1385D02*
Y1345D01*
Y1421D02*
Y1461D01*
X1568Y2868D02*
X1528D01*
X1583Y1403D02*
X1623D01*
X1586Y2850D02*
Y2810D01*
Y2886D02*
Y2926D01*
X1604Y2868D02*
X1644D01*
X1848Y1403D02*
X1808D01*
X1866Y1385D02*
Y1345D01*
Y1421D02*
Y1461D01*
X1884Y1403D02*
X1924D01*
X2069Y2548D02*
X2029D01*
X2084Y756D02*
X2044D01*
X2087Y2530D02*
Y2490D01*
Y2566D02*
Y2606D01*
X2102Y738D02*
Y698D01*
Y774D02*
Y814D01*
X2105Y2548D02*
X2145D01*
X2120Y756D02*
X2160D01*
X2136Y2795D02*
X2096D01*
X2154Y2777D02*
Y2737D01*
Y2813D02*
Y2853D01*
X2172Y2795D02*
X2212D01*
X2220Y1590D02*
X2180D01*
X2238Y1572D02*
Y1532D01*
Y1608D02*
Y1648D01*
X2256Y1590D02*
X2296D01*
X2473Y1310D02*
X2445Y1282D01*
X2473Y1345D02*
X2445Y1374D01*
X2473Y2110D02*
X2445Y2082D01*
X2473Y2145D02*
X2445Y2174D01*
X2473Y2810D02*
X2445Y2782D01*
X2473Y2845D02*
X2445Y2874D01*
X2509Y1310D02*
X2537Y1282D01*
X2509Y1345D02*
X2537Y1374D01*
X2509Y2110D02*
X2537Y2082D01*
X2509Y2145D02*
X2537Y2174D01*
X2509Y2810D02*
X2537Y2782D01*
X2509Y2845D02*
X2537Y2874D01*
X2573Y1110D02*
X2545Y1082D01*
X2573Y1145D02*
X2545Y1174D01*
X2573Y1510D02*
X2545Y1482D01*
X2573Y1545D02*
X2545Y1574D01*
X2573Y1810D02*
X2545Y1782D01*
X2573Y1845D02*
X2545Y1874D01*
X2573Y2310D02*
X2545Y2282D01*
X2573Y2345D02*
X2545Y2374D01*
X2573Y2510D02*
X2545Y2482D01*
X2573Y2545D02*
X2545Y2574D01*
X2609Y1110D02*
X2637Y1082D01*
X2609Y1145D02*
X2637Y1174D01*
X2609Y1510D02*
X2637Y1482D01*
X2609Y1545D02*
X2637Y1574D01*
X2609Y1810D02*
X2637Y1782D01*
X2609Y1845D02*
X2637Y1874D01*
X2609Y2310D02*
X2637Y2282D01*
X2609Y2345D02*
X2637Y2374D01*
X2609Y2510D02*
X2637Y2482D01*
X2609Y2545D02*
X2637Y2574D01*
X2738Y768D02*
X2698D01*
X2756Y750D02*
Y710D01*
Y786D02*
Y826D01*
X2774Y768D02*
X2814D01*
X2814Y1317D02*
X2774D01*
X2832Y1299D02*
Y1259D01*
Y1335D02*
Y1375D01*
X2850Y1317D02*
X2890D01*
X3152Y578D02*
X3112D01*
X3170Y560D02*
Y520D01*
Y596D02*
Y636D01*
X3188Y578D02*
X3228D01*
X3323Y1978D02*
X3283D01*
X3329Y1972D02*
Y1932D01*
Y1984D02*
Y2024D01*
X3335Y1978D02*
X3375D01*
X3355Y508D02*
X3315D01*
X3373Y490D02*
Y450D01*
Y526D02*
Y566D01*
X3391Y508D02*
X3431D01*
X3617Y533D02*
X3577D01*
X3635Y515D02*
Y475D01*
Y551D02*
Y591D01*
X3653Y533D02*
X3693D01*
X3986Y200D02*
X3946D01*
X3988Y376D02*
X3948D01*
X4004Y182D02*
Y142D01*
Y218D02*
Y258D01*
X4006Y358D02*
Y318D01*
Y394D02*
Y434D01*
X4022Y200D02*
X4062D01*
X4024Y376D02*
X4064D01*
X4208Y600D02*
X4168D01*
X4222Y2976D02*
Y2936D01*
Y2988D02*
Y3028D01*
X4226Y582D02*
Y542D01*
Y618D02*
Y658D01*
X4228Y2982D02*
X4268D01*
X4244Y600D02*
X4284D01*
X4268Y3317D02*
X4239Y3288D01*
X4268Y3325D02*
X4239Y3354D01*
X4276Y3317D02*
X4305Y3288D01*
X4276Y3325D02*
X4305Y3354D01*
X4348Y2809D02*
X4308D01*
X4354Y2803D02*
Y2763D01*
Y2815D02*
Y2855D01*
X4360Y2809D02*
X4400D01*
X4414Y3740D02*
X4374D01*
X4454Y3700D02*
Y3660D01*
Y3780D02*
Y3820D01*
X4457Y2980D02*
X4417D01*
X4462Y542D02*
X4422D01*
X4462Y593D02*
X4422D01*
X4463Y2974D02*
Y2934D01*
Y2986D02*
Y3026D01*
X4469Y2980D02*
X4509D01*
X4477Y527D02*
Y487D01*
Y608D02*
Y648D01*
X4494Y3740D02*
X4534D01*
X4509Y3317D02*
X4480Y3288D01*
X4509Y3325D02*
X4480Y3354D01*
X4517Y3317D02*
X4545Y3288D01*
X4517Y3325D02*
X4545Y3354D01*
X4528Y525D02*
Y485D01*
Y608D02*
Y648D01*
X4569Y774D02*
X4529D01*
X4579Y609D02*
Y649D01*
X4580Y525D02*
Y485D01*
X4587Y756D02*
Y716D01*
Y792D02*
Y832D01*
X4591Y2809D02*
X4551D01*
X4594Y594D02*
X4634D01*
X4595Y540D02*
X4635D01*
X4597Y2803D02*
Y2763D01*
Y2815D02*
Y2855D01*
X4603Y2809D02*
X4643D01*
X4605Y774D02*
X4645D01*
X4682Y467D02*
X4642D01*
X4697Y2982D02*
X4657D01*
X4700Y449D02*
Y409D01*
Y485D02*
Y525D01*
X4703Y2976D02*
Y2936D01*
Y2988D02*
Y3028D01*
X4709Y2982D02*
X4749D01*
X4718Y467D02*
X4758D01*
X4748Y3317D02*
X4720Y3288D01*
X4748Y3325D02*
X4720Y3354D01*
X4757Y3317D02*
X4785Y3288D01*
X4757Y3325D02*
X4785Y3354D01*
X4826Y2813D02*
X4786D01*
X4832Y2807D02*
Y2767D01*
Y2819D02*
Y2859D01*
X4838Y2813D02*
X4878D01*
X4936Y2982D02*
X4896D01*
X4942Y2976D02*
Y2936D01*
Y2988D02*
Y3028D01*
X4948Y2982D02*
X4988D01*
X4988Y3317D02*
X4960Y3288D01*
X4988Y3325D02*
X4960Y3354D01*
X4996Y3317D02*
X5025Y3288D01*
X4996Y3325D02*
X5025Y3354D01*
X5070Y2814D02*
X5030D01*
X5076Y2808D02*
Y2768D01*
Y2820D02*
Y2860D01*
X5082Y2814D02*
X5122D01*
X5118Y810D02*
X5078D01*
X5124Y804D02*
Y764D01*
Y816D02*
Y856D01*
X5130Y810D02*
X5170D01*
X5346Y2125D02*
X5306D01*
X5364Y2107D02*
Y2067D01*
Y2143D02*
Y2183D01*
X5382Y2125D02*
X5422D01*
X5436Y2685D02*
X5396D01*
X5437Y2527D02*
X5397D01*
X5447Y1413D02*
X5419Y1384D01*
X5447Y1438D02*
X5419Y1466D01*
X5449Y861D02*
X5420Y833D01*
X5449Y886D02*
X5420Y915D01*
X5450Y1018D02*
X5422Y990D01*
X5450Y1044D02*
X5422Y1072D01*
X5450Y1254D02*
X5422Y1226D01*
X5450Y1279D02*
X5422Y1308D01*
X5454Y2667D02*
Y2627D01*
Y2703D02*
Y2743D01*
X5455Y2509D02*
Y2469D01*
Y2545D02*
Y2585D01*
X5472Y2685D02*
X5512D01*
X5473Y1413D02*
X5501Y1384D01*
X5473Y1438D02*
X5501Y1466D01*
X5473Y2527D02*
X5513D01*
X5474Y861D02*
X5502Y833D01*
X5474Y886D02*
X5502Y915D01*
X5475Y1018D02*
X5504Y990D01*
X5475Y1044D02*
X5504Y1072D01*
X5475Y1254D02*
X5504Y1226D01*
X5475Y1279D02*
X5504Y1308D01*
X5608Y1267D02*
X5568D01*
X5612Y2527D02*
X5572D01*
X5612Y2685D02*
X5572D01*
X5614Y3740D02*
X5574D01*
X5616Y861D02*
X5588Y833D01*
X5616Y886D02*
X5588Y915D01*
X5616Y1018D02*
X5588Y990D01*
X5616Y1044D02*
X5588Y1072D01*
X5617Y1347D02*
X5577D01*
X5626Y1249D02*
Y1209D01*
X5630Y2509D02*
Y2469D01*
Y2545D02*
Y2585D01*
Y2667D02*
Y2627D01*
Y2703D02*
Y2743D01*
X5635Y1365D02*
Y1405D01*
X5641Y861D02*
X5670Y833D01*
X5641Y886D02*
X5670Y915D01*
X5641Y1018D02*
X5670Y990D01*
X5641Y1044D02*
X5670Y1072D01*
X5644Y1267D02*
X5684D01*
X5648Y2527D02*
X5688D01*
X5648Y2685D02*
X5688D01*
X5653Y1347D02*
X5693D01*
X5654Y3700D02*
Y3660D01*
Y3780D02*
Y3820D01*
X5694Y3740D02*
X5734D01*
D02*
D72*
X279Y278D03*
Y3203D03*
X5629Y278D03*
Y3203D03*
D02*
D73*
X2491Y1028D03*
Y1128D03*
Y1228D03*
Y1328D03*
Y1428D03*
Y1528D03*
Y1628D03*
Y1728D03*
Y1828D03*
Y1928D03*
Y2028D03*
Y2128D03*
Y2228D03*
Y2328D03*
Y2428D03*
Y2528D03*
Y2628D03*
Y2728D03*
Y2828D03*
X2591Y928D03*
Y1028D03*
Y1128D03*
Y1228D03*
Y1328D03*
Y1428D03*
Y1528D03*
Y1728D03*
Y1828D03*
Y1928D03*
Y2028D03*
Y2128D03*
Y2228D03*
Y2328D03*
Y2428D03*
Y2528D03*
Y2628D03*
Y2728D03*
Y2828D03*
D02*
D74*
Y1628D03*
D02*
D75*
X2491Y928D03*
D02*
D76*
X612Y737D03*
Y3020D03*
X2542Y737D03*
Y3020D03*
D02*
D77*
X278Y3493D03*
Y3593D03*
D02*
D78*
X2943Y3738D03*
X3093D03*
X3243D03*
X3606Y3739D03*
X3756D03*
X3906D03*
X4304Y3740D03*
X4454D03*
X4604D03*
X4754D03*
X4904D03*
X5054D03*
X5504D03*
X5654D03*
D02*
D79*
X2935Y2575D03*
Y3363D03*
X3230Y2575D03*
Y3225D03*
Y3500D03*
X3595Y2577D03*
Y3364D03*
X3891Y2577D03*
Y3226D03*
Y3502D03*
D02*
D80*
X1565Y1403D03*
X1586Y2868D03*
X1866Y1403D03*
X2087Y2548D03*
X2102Y756D03*
X2154Y2795D03*
X2238Y1590D03*
X2756Y768D03*
X2832Y1317D03*
X3035Y579D03*
X3170Y578D03*
X3373Y508D03*
X3635Y533D03*
X4004Y200D03*
X4006Y376D03*
X4226Y600D03*
X4406Y281D03*
X4468Y282D03*
X4587Y774D03*
X4700Y467D03*
X5364Y2125D03*
X5454Y2685D03*
X5455Y2527D03*
X5460Y1425D03*
X5461Y874D03*
Y951D03*
X5463Y1031D03*
Y1267D03*
X5626D03*
X5629Y874D03*
Y952D03*
Y1031D03*
X5630Y2527D03*
Y2685D03*
X5635Y1347D03*
X5742Y2806D03*
X5773Y718D03*
X5801Y795D03*
X5805Y2806D03*
D02*
D81*
X109Y3819D03*
X1675Y1244D03*
X1811D03*
X2130Y1315D03*
X2204Y975D03*
X2236Y2613D03*
X2238Y2752D03*
X2387Y882D03*
Y1578D03*
X2744Y1882D03*
X3329Y1978D03*
X3377Y2119D03*
X3542Y805D03*
Y879D03*
X3543Y952D03*
X3589Y743D03*
X3622Y880D03*
X3623Y806D03*
X3626Y952D03*
X3938Y804D03*
X3940Y954D03*
X3943Y879D03*
X4016Y805D03*
X4017Y880D03*
X4019Y954D03*
X4205Y854D03*
Y957D03*
Y1070D03*
X4222Y2982D03*
X4257Y1017D03*
X4260Y906D03*
Y2809D03*
X4271Y3391D03*
X4272Y3321D03*
X4312Y962D03*
Y1071D03*
X4314Y855D03*
X4354Y2809D03*
X4372Y906D03*
Y1016D03*
Y2982D03*
X4421Y854D03*
Y962D03*
X4422Y1072D03*
X4463Y2980D03*
X4500Y2811D03*
X4509Y3617D03*
X4512Y3391D03*
X4513Y3321D03*
X4597Y2809D03*
X4613Y2982D03*
X4703D03*
X4736Y2814D03*
X4753Y3321D03*
Y3391D03*
X4832Y2813D03*
X4842Y807D03*
X4852Y2982D03*
X4942D03*
X4976Y2816D03*
X4991Y3391D03*
X4992Y3321D03*
X5076Y2814D03*
X5092Y2982D03*
X5124Y810D03*
X5284Y1541D03*
Y1581D03*
Y1621D03*
Y1661D03*
Y1702D03*
X5474Y1504D03*
Y1740D03*
X5475Y1818D03*
Y1897D03*
X5476Y1110D03*
X5478Y1187D03*
X5664Y1110D03*
Y1188D03*
Y1425D03*
Y1504D03*
Y1818D03*
Y1897D03*
Y1976D03*
D02*
D82*
X4477Y542D03*
Y593D03*
X4528Y540D03*
Y593D03*
X4579Y594D03*
X4580Y540D03*
X0Y0D02*
M02*
