%FSLAX23Y23*%
%MOIN*%
G04 EasyPC Gerber Version 17.0 Build 3379 *
%ADD151O,0.06600X0.06600*%
%ADD150O,0.07600X0.07600*%
%ADD159R,0.02254X0.07588*%
%ADD156R,0.03100X0.07100*%
%ADD158R,0.03159X0.05915*%
%ADD104R,0.03159X0.06112*%
%ADD117R,0.04537X0.04891*%
%ADD103R,0.06100X0.06600*%
%ADD164R,0.06100X0.14100*%
%ADD161R,0.07600X0.13200*%
%ADD168R,0.10443X0.13592*%
%ADD165R,0.11506X0.11506*%
%ADD170R,0.13600X0.13600*%
%ADD166R,0.15757X0.22254*%
%ADD154R,0.06600X0.06600*%
%ADD155R,0.06900X0.06900*%
%ADD152R,0.07600X0.07600*%
%ADD22C,0.00500*%
%ADD76R,0.06112X0.04104*%
%ADD169R,0.04891X0.04537*%
%ADD106R,0.06600X0.06100*%
%ADD163R,0.12411X0.06899*%
%ADD167R,0.10800X0.06900*%
%ADD160R,0.17135X0.12411*%
%ADD77C,0.10600*%
%ADD157C,0.12411*%
%ADD153C,0.25009*%
%ADD75C,0.28100*%
%ADD162R,0.26978X0.26978*%
X0Y0D02*
D02*
D22*
X4Y3D02*
X5904D01*
Y3953*
X4*
Y3*
D02*
D75*
X279Y278D03*
Y3203D03*
X5629Y278D03*
Y3203D03*
D02*
D76*
X5540Y795D03*
Y873D03*
Y952D03*
Y1031D03*
Y1110D03*
Y1188D03*
Y1267D03*
Y1346D03*
Y1425D03*
Y1503D03*
Y1582D03*
Y1661D03*
Y1740D03*
Y1818D03*
Y1897D03*
Y1976D03*
Y2055D03*
Y2133D03*
Y2212D03*
Y2291D03*
Y2370D03*
Y2448D03*
Y2527D03*
Y2606D03*
Y2685D03*
X5718Y795D03*
Y873D03*
Y952D03*
Y1031D03*
Y1110D03*
Y1188D03*
Y1267D03*
Y1346D03*
Y1425D03*
Y1503D03*
Y1582D03*
Y1661D03*
Y1740D03*
Y1818D03*
Y1897D03*
Y1976D03*
Y2055D03*
Y2133D03*
Y2212D03*
Y2291D03*
Y2370D03*
Y2448D03*
Y2527D03*
Y2606D03*
Y2685D03*
D02*
D77*
X2943Y3738D03*
X3093D03*
X3243D03*
X3606Y3739D03*
X3756D03*
X3906D03*
X4304Y3740D03*
X4454D03*
X4604D03*
X4754D03*
X4904D03*
X5054D03*
X5504D03*
X5654D03*
D02*
D103*
X1854Y2870D03*
Y2960D03*
X1954Y2870D03*
Y2960D03*
X2003Y930D03*
Y1020D03*
X2012Y1313D03*
Y1403D03*
X2054Y2870D03*
Y2960D03*
X2103Y842D03*
Y932D03*
X2154Y2870D03*
Y2960D03*
X2239Y1676D03*
Y1766D03*
X2331Y1675D03*
Y1765D03*
X2754Y1032D03*
Y1122D03*
Y1228D03*
Y1318D03*
X2756Y839D03*
Y929D03*
X4321Y510D03*
Y600D03*
X4563Y215D03*
Y305D03*
X4650Y215D03*
Y305D03*
X4780Y442D03*
Y532D03*
Y622D03*
Y712D03*
X4880Y442D03*
Y532D03*
D02*
D104*
X1866Y2548D03*
Y2757D03*
X1916Y2548D03*
Y2757D03*
X1966Y2548D03*
Y2757D03*
X2016Y2548D03*
Y2757D03*
X4222Y3038D03*
Y3247D03*
X4272Y3038D03*
Y3247D03*
X4322Y3038D03*
Y3247D03*
X4372Y3038D03*
Y3247D03*
X4463Y3038D03*
Y3247D03*
X4513Y3038D03*
Y3247D03*
X4563Y3038D03*
Y3247D03*
X4613Y3038D03*
Y3247D03*
X4702Y3038D03*
Y3247D03*
X4752Y3038D03*
Y3247D03*
X4802Y3038D03*
Y3247D03*
X4852Y3038D03*
Y3247D03*
X4942Y3038D03*
Y3247D03*
X4992Y3038D03*
Y3247D03*
X5042Y3038D03*
Y3247D03*
X5092Y3038D03*
Y3247D03*
D02*
D106*
X232Y3725D03*
X322D03*
X1665Y2868D03*
X1755D03*
X4040Y533D03*
X4130D03*
X4230Y687D03*
X4320D03*
X4842Y889D03*
X4932D03*
X5034Y889D03*
X5124D03*
D02*
D117*
X3329Y2049D03*
Y2119D03*
X4221Y3321D03*
Y3391D03*
X4260Y2858D03*
Y2928D03*
X4323Y2858D03*
Y2928D03*
X4386Y2858D03*
Y2928D03*
X4460Y3321D03*
Y3391D03*
X4500Y2858D03*
Y2928D03*
X4564Y2858D03*
Y2928D03*
X4628Y2858D03*
Y2928D03*
X4701Y3321D03*
Y3391D03*
X4736Y2862D03*
Y2932D03*
X4801Y2862D03*
Y2932D03*
X4865Y2862D03*
Y2932D03*
X4942Y3321D03*
Y3391D03*
X4976Y2863D03*
Y2933D03*
X5042Y2863D03*
Y2933D03*
X5108Y2863D03*
Y2933D03*
D02*
D150*
X2491Y1028D03*
Y1128D03*
Y1228D03*
Y1328D03*
Y1428D03*
Y1528D03*
Y1628D03*
Y1728D03*
Y1828D03*
Y1928D03*
Y2028D03*
Y2128D03*
Y2228D03*
Y2328D03*
Y2428D03*
Y2528D03*
Y2628D03*
Y2728D03*
Y2828D03*
X2591Y928D03*
Y1028D03*
Y1128D03*
Y1228D03*
Y1328D03*
Y1428D03*
Y1528D03*
Y1728D03*
Y1828D03*
Y1928D03*
Y2028D03*
Y2128D03*
Y2228D03*
Y2328D03*
Y2428D03*
Y2528D03*
Y2628D03*
Y2728D03*
Y2828D03*
D02*
D151*
Y1628D03*
D02*
D152*
X2491Y928D03*
D02*
D153*
X612Y737D03*
Y3020D03*
X2542Y737D03*
Y3020D03*
D02*
D154*
X278Y3493D03*
Y3593D03*
D02*
D155*
X3034Y664D03*
Y798D03*
X4304Y3617D03*
X4438D03*
X5506Y3477D03*
Y3611D03*
D02*
D156*
X1465Y931D03*
Y1312D03*
X1515Y931D03*
Y1312D03*
X1565Y931D03*
Y1312D03*
X1615Y931D03*
Y1312D03*
X1665Y931D03*
Y1312D03*
X1715Y931D03*
Y1312D03*
X1765Y931D03*
Y1312D03*
X1815Y931D03*
Y1312D03*
X1865Y931D03*
Y1312D03*
X1915Y931D03*
Y1312D03*
D02*
D157*
X2935Y2575D03*
Y3363D03*
X3230Y2575D03*
Y3225D03*
Y3500D03*
X3595Y2577D03*
Y3364D03*
X3891Y2577D03*
Y3226D03*
Y3502D03*
D02*
D158*
X2866Y1978D03*
Y2373D03*
X2916Y1978D03*
Y2373D03*
X2966Y1978D03*
Y2373D03*
X3016Y1978D03*
Y2373D03*
X3066Y1978D03*
Y2373D03*
X3116Y1978D03*
Y2373D03*
X3166Y1978D03*
Y2373D03*
X3216Y1978D03*
Y2373D03*
X3266Y1978D03*
Y2373D03*
D02*
D159*
X4412Y449D03*
Y683D03*
X4438Y449D03*
Y683D03*
X4464Y449D03*
Y683D03*
X4489Y449D03*
Y683D03*
X4515Y449D03*
Y683D03*
X4540Y449D03*
Y683D03*
X4566Y449D03*
Y683D03*
X4592Y449D03*
Y683D03*
X4617Y449D03*
Y683D03*
X4643Y449D03*
Y683D03*
D02*
D160*
X4528Y566D03*
D02*
D161*
X4121Y201D03*
Y376D03*
X4321Y201D03*
Y376D03*
D02*
D162*
X4312Y962D03*
D02*
D163*
X4621Y871D03*
Y1052D03*
D02*
D164*
X3710Y533D03*
X3935D03*
D02*
D165*
X3373Y623D03*
Y825D03*
D02*
D166*
X3589Y879D03*
X3981D03*
D02*
D167*
X3170Y666D03*
Y800D03*
D02*
D168*
X5474Y2904D03*
X5742D03*
D02*
D169*
X162Y3819D03*
X232D03*
X4322Y3324D03*
Y3391D03*
X4392Y3324D03*
Y3391D03*
X4563Y3324D03*
Y3391D03*
X4633Y3324D03*
Y3391D03*
X4802Y3324D03*
Y3391D03*
X4872Y3324D03*
Y3391D03*
X5042Y3324D03*
Y3391D03*
X5112Y3324D03*
Y3391D03*
D02*
D170*
X4121Y2238D03*
X5341D03*
X0Y0D02*
M02*
