%FSLAX23Y23*%
%MOIN*%
G04 EasyPC Gerber Version 17.0 Build 3379 *
%ADD74O,0.06000X0.06000*%
%ADD73O,0.07000X0.07000*%
%ADD77R,0.06000X0.06000*%
%ADD75R,0.07000X0.07000*%
%ADD28C,0.00500*%
%ADD83C,0.01000*%
%ADD85C,0.01500*%
%ADD81C,0.03200*%
%ADD82C,0.05000*%
%ADD80C,0.05600*%
%ADD86C,0.06000*%
%ADD84C,0.07000*%
%ADD78C,0.10000*%
%ADD79C,0.11811*%
%ADD76C,0.24409*%
%ADD72C,0.27500*%
X0Y0D02*
D02*
D28*
X2809Y87D02*
Y117D01*
X2797Y97*
X2817*
X3654Y713D02*
Y1252D01*
X3160*
Y713*
X3654*
G36*
Y1252*
X3160*
Y713*
X3654*
G37*
X3855Y1253D02*
Y719D01*
X4504*
Y894*
X5053*
Y1253*
X3855*
G36*
Y719*
X4504*
Y894*
X5053*
Y1253*
X3855*
G37*
X4655Y651D02*
X4276D01*
Y357*
X4278Y354*
X4655*
Y651*
G36*
X4276*
Y357*
X4278Y354*
X4655*
Y651*
G37*
D02*
D72*
X279Y278D03*
Y3203D03*
X5629Y278D03*
Y3203D03*
D02*
D73*
X2491Y1028D03*
Y1128D03*
Y1228D03*
Y1328D03*
Y1428D03*
Y1528D03*
Y1628D03*
Y1728D03*
Y1828D03*
Y1928D03*
Y2028D03*
Y2128D03*
Y2228D03*
Y2328D03*
Y2428D03*
Y2528D03*
Y2628D03*
Y2728D03*
Y2828D03*
X2591Y928D03*
Y1028D03*
Y1128D03*
Y1228D03*
Y1328D03*
Y1428D03*
Y1528D03*
Y1728D03*
Y1828D03*
Y1928D03*
Y2028D03*
Y2128D03*
Y2228D03*
Y2328D03*
Y2428D03*
Y2528D03*
Y2628D03*
Y2728D03*
Y2828D03*
D02*
D74*
Y1628D03*
D02*
D75*
X2491Y928D03*
D02*
D76*
X612Y737D03*
Y3020D03*
X2542Y737D03*
Y3020D03*
D02*
D77*
X278Y3493D03*
Y3593D03*
D02*
D78*
X2943Y3738D03*
X3093D03*
X3243D03*
X3606Y3739D03*
X3756D03*
X3906D03*
X4304Y3740D03*
X4454D03*
X4468Y282D02*
X4406Y281D01*
X4604Y3740D03*
X4754D03*
X4904D03*
X5054D03*
X5504D03*
X5654D03*
X5772Y2748D02*
Y720D01*
X5773Y719*
Y718*
X5342*
X4905Y281*
X4468Y282*
D02*
D79*
X2935Y2575D03*
Y3363D03*
X3230Y2575D03*
Y3225D03*
Y3500D03*
X3595Y2577D03*
Y3364D03*
X3891Y2577D03*
Y3226D03*
Y3502D03*
D02*
D80*
X1565Y1403D03*
X1586Y2868D03*
X1866Y1403D03*
X2087Y2548D03*
X2102Y756D03*
X2154Y2795D03*
X2238Y1590D03*
X2756Y768D03*
X2832Y1317D03*
X3035Y579D03*
X3170Y578D03*
X3373Y508D03*
X3635Y533D03*
X4004Y200D03*
X4006Y376D03*
X4226Y600D03*
X4406Y281D03*
X4468Y282D03*
X4587Y774D03*
X4700Y467D03*
X5364Y2125D03*
X5454Y2685D03*
X5455Y2527D03*
X5460Y1425D03*
X5461Y874D03*
Y951D03*
X5463Y1031D03*
Y1267D03*
X5626D03*
X5629Y874D03*
Y952D03*
Y1031D03*
X5630Y2527D03*
Y2685D03*
X5635Y1347D03*
X5742Y2806D03*
X5773Y718D03*
X5801Y795D03*
X5805Y2806D03*
D02*
D81*
X109Y3819D03*
X1675Y1244D03*
X1811D03*
X2130Y1315D03*
X2204Y975D03*
X2236Y2613D03*
X2238Y2752D03*
X2387Y882D03*
Y1578D03*
X2744Y1882D03*
X3329Y1978D03*
X3377Y2119D03*
X3542Y805D03*
Y879D03*
X3543Y952D03*
X3589Y743D03*
X3622Y880D03*
X3623Y806D03*
X3626Y952D03*
X3938Y804D03*
X3940Y954D03*
X3943Y879D03*
X4016Y805D03*
X4017Y880D03*
X4019Y954D03*
X4205Y854D03*
Y957D03*
Y1070D03*
X4222Y2982D03*
X4257Y1017D03*
X4260Y906D03*
Y2809D03*
X4271Y3391D03*
X4272Y3321D03*
X4312Y962D03*
Y1071D03*
X4314Y855D03*
X4354Y2809D03*
X4372Y906D03*
Y1016D03*
Y2982D03*
X4421Y854D03*
Y962D03*
X4422Y1072D03*
X4463Y2980D03*
X4500Y2811D03*
X4509Y3617D03*
X4512Y3391D03*
X4513Y3321D03*
X4597Y2809D03*
X4613Y2982D03*
X4703D03*
X4736Y2814D03*
X4753Y3321D03*
Y3391D03*
X4832Y2813D03*
X4842Y807D03*
X4852Y2982D03*
X4942D03*
X4976Y2816D03*
X4991Y3391D03*
X4992Y3321D03*
X5076Y2814D03*
X5092Y2982D03*
X5124Y810D03*
X5284Y1541D03*
Y1581D03*
Y1621D03*
Y1661D03*
Y1702D03*
X5474Y1504D03*
Y1740D03*
X5475Y1818D03*
Y1897D03*
X5476Y1110D03*
X5478Y1187D03*
X5664Y1110D03*
Y1188D03*
Y1425D03*
Y1504D03*
Y1818D03*
Y1897D03*
Y1976D03*
D02*
D82*
X4477Y542D03*
Y593D03*
X4528Y540D03*
Y593D03*
X4579Y594D03*
X4580Y540D03*
D02*
D83*
X1675Y1244D02*
X1811D01*
X2130Y1315D02*
Y1048D01*
X2204Y975*
X2236Y2613D02*
Y2751D01*
X2238Y2752*
X2387Y1578D02*
Y882D01*
X2491Y1228D02*
X2503D01*
X2552Y1178*
X2640*
X2667Y1206*
X2948*
X3075Y1333*
X5218*
X5363Y1188*
X5478*
Y1187*
X2491Y1628D02*
X2503D01*
X2551Y1580*
X5212*
X5252Y1620*
X5283*
X5284Y1621*
X2491Y1928D02*
X2495D01*
X2544Y1878*
X2650*
X2719Y1808*
X5303*
X5396Y1715*
Y1418*
X5431Y1383*
X5501*
X5620Y1501*
X5664*
Y1504*
X2491Y2028D02*
X2543Y1976D01*
X2665*
X2702Y1938*
Y1856*
X2721Y1837*
X5308*
X5474Y1671*
Y1504*
X2591Y1228D02*
Y1229D01*
X2944*
X3073Y1358*
X5229*
X5367Y1221*
X5550*
X5661Y1110*
X5664*
X2591Y1328D02*
Y1322D01*
X2547Y1278*
X2441*
X2420Y1257*
Y1113*
X2455Y1078*
X2632*
X2734Y1181*
X2954*
X3081Y1308*
X5206*
X5406Y1107*
X5476*
Y1110*
X2591Y1728D02*
Y1726D01*
X4861*
X4654Y1476D02*
X5151D01*
X5255Y1581*
X5284*
X4654Y1476D02*
X2553D01*
X2502Y1528*
X2491*
X4673Y1427D02*
X5156D01*
X5270Y1541*
X5284*
X4673Y1427D02*
X2592D01*
X2591Y1428*
X4839Y1627D02*
X5201D01*
X5234Y1661*
X5284*
X4839Y1627D02*
X2591D01*
Y1628*
X4861Y1726D02*
X5260D01*
X5284Y1702*
X5474Y1740D02*
X5448D01*
X5304Y1883*
X3095*
X3094Y1882*
X2744*
X5475Y1818D02*
X5460D01*
X5103Y2175*
X2904*
X2856Y2127*
X2591*
Y2128*
X5475Y1897D02*
X5463D01*
X4982Y2378*
X2540*
X2491Y2426*
Y2428*
X5664Y1188D02*
X5634D01*
X5503Y1319*
X5303*
X5244Y1378*
X2543*
X2494Y1428*
X2491*
Y1428*
X5664Y1425D02*
X5599D01*
X5528Y1354*
X5416*
X5369Y1402*
Y1699*
X5290Y1777*
X2543*
Y1778*
X2494Y1828*
X2491*
X5664Y1818D02*
Y1815D01*
X5629Y1780*
X5459*
X5209Y2029*
X2925*
X2923Y2028*
X2591*
X5664Y1897D02*
X5627Y1861D01*
X5459*
X5042Y2278*
X2540*
X2491Y2326*
Y2328*
X5664Y1976D02*
X5654D01*
X5202Y2427*
X3141*
X3141Y2428*
X2591*
D02*
D84*
X5742Y2806D02*
Y2778D01*
X5772Y2748*
X5773Y2747*
X5805Y2778*
Y2806*
D02*
D85*
X3589Y743D02*
X3642D01*
X3678Y689*
X4826*
X4842Y705*
Y807*
D02*
D86*
X2943Y3738D02*
Y3617D01*
X3056Y3503*
X3227*
X3230Y3500*
X3606Y3739D02*
Y3632D01*
X3730Y3507*
X3885*
X3891Y3502*
X0Y0D02*
M02*
