%FSLAX23Y23*%
%MOIN*%
G04 EasyPC Gerber Version 17.0 Build 3379 *
%ADD10C,0.00500*%
%ADD12C,0.10000*%
X0Y0D02*
D02*
D10*
X221Y3886D02*
X234D01*
X227D02*
Y3923D01*
X221D02*
X234D01*
X382Y3560D02*
Y3597D01*
X413*
X407Y3579D02*
X382D01*
Y3560D02*
X413D01*
X382Y3660D02*
Y3697D01*
X413*
X407Y3679D02*
X382D01*
Y3660D02*
X413D01*
X413Y351D02*
X410Y348D01*
X404Y345*
X394*
X388Y348*
X385Y351*
X382Y357*
Y370*
X385Y376*
X388Y379*
X394Y382*
X404*
X410Y379*
X413Y376*
Y3276D02*
X410Y3273D01*
X404Y3270*
X394*
X388Y3273*
X385Y3276*
X382Y3282*
Y3295*
X385Y3301*
X388Y3304*
X394Y3307*
X404*
X410Y3304*
X413Y3301*
X738Y823D02*
X744Y819D01*
X747Y813*
X744Y807*
X738Y804*
X716*
Y841*
X738*
X744Y838*
X747Y832*
X744Y826*
X738Y823*
X716*
X738Y3106D02*
X744Y3103D01*
X747Y3097*
X744Y3090*
X738Y3087*
X716*
Y3125*
X738*
X744Y3122*
X747Y3115*
X744Y3109*
X738Y3106*
X716*
X1406Y2950D02*
Y2987D01*
Y2969D02*
X1437D01*
Y2950D02*
Y2987D01*
X1668Y1470D02*
Y1507D01*
Y1488D02*
X1699D01*
Y1470D02*
Y1507D01*
X1690Y2935D02*
Y2972D01*
Y2954D02*
X1721D01*
Y2935D02*
Y2972D01*
X1787Y1311D02*
X1800D01*
X1794D02*
Y1349D01*
X1787D02*
X1800D01*
X1923Y1311D02*
X1936D01*
X1930D02*
Y1349D01*
X1923D02*
X1936D01*
X1969Y1470D02*
Y1507D01*
Y1488D02*
X2000D01*
Y1470D02*
Y1507D01*
X2190Y2615D02*
Y2653D01*
Y2634D02*
X2221D01*
Y2615D02*
Y2653D01*
X2205Y823D02*
Y861D01*
Y842D02*
X2236D01*
Y823D02*
Y861D01*
X2243Y1382D02*
X2255D01*
X2249D02*
Y1420D01*
X2243D02*
X2255D01*
X2257Y2862D02*
Y2900D01*
Y2881D02*
X2288D01*
Y2862D02*
Y2900D01*
X2317Y1042D02*
X2329D01*
X2323D02*
Y1079D01*
X2317D02*
X2329D01*
X2349Y2680D02*
X2362D01*
X2355D02*
Y2718D01*
X2349D02*
X2362D01*
X2341Y1657D02*
Y1694D01*
Y1676D02*
X2372D01*
Y1657D02*
Y1694D01*
X2350Y2819D02*
X2363D01*
X2357D02*
Y2856D01*
X2350D02*
X2363D01*
X2594Y995D02*
Y1032D01*
X2613*
X2619Y1029*
X2622Y1026*
X2625Y1020*
Y1007*
X2622Y1001*
X2619Y998*
X2613Y995*
X2594*
Y1095D02*
Y1132D01*
X2613*
X2619Y1129*
X2622Y1126*
X2625Y1120*
Y1107*
X2622Y1101*
X2619Y1098*
X2613Y1095*
X2594*
Y1195D02*
Y1232D01*
X2613*
X2619Y1229*
X2622Y1226*
X2625Y1220*
Y1207*
X2622Y1201*
X2619Y1198*
X2613Y1195*
X2594*
Y1295D02*
Y1332D01*
X2613*
X2619Y1329*
X2622Y1326*
X2625Y1320*
Y1307*
X2622Y1301*
X2619Y1298*
X2613Y1295*
X2594*
Y1395D02*
Y1432D01*
X2613*
X2619Y1429*
X2622Y1426*
X2625Y1420*
Y1407*
X2622Y1401*
X2619Y1398*
X2613Y1395*
X2594*
Y1495D02*
Y1532D01*
X2613*
X2619Y1529*
X2622Y1526*
X2625Y1520*
Y1507*
X2622Y1501*
X2619Y1498*
X2613Y1495*
X2594*
Y1595D02*
Y1632D01*
X2613*
X2619Y1629*
X2622Y1626*
X2625Y1620*
Y1607*
X2622Y1601*
X2619Y1598*
X2613Y1595*
X2594*
Y1695D02*
Y1732D01*
X2613*
X2619Y1729*
X2622Y1726*
X2625Y1720*
Y1707*
X2622Y1701*
X2619Y1698*
X2613Y1695*
X2594*
Y1795D02*
Y1832D01*
X2613*
X2619Y1829*
X2622Y1826*
X2625Y1820*
Y1807*
X2622Y1801*
X2619Y1798*
X2613Y1795*
X2594*
Y1895D02*
Y1932D01*
X2613*
X2619Y1929*
X2622Y1926*
X2625Y1920*
Y1907*
X2622Y1901*
X2619Y1898*
X2613Y1895*
X2594*
Y1995D02*
Y2032D01*
X2613*
X2619Y2029*
X2622Y2026*
X2625Y2020*
Y2007*
X2622Y2001*
X2619Y1998*
X2613Y1995*
X2594*
Y2095D02*
Y2132D01*
X2613*
X2619Y2129*
X2622Y2126*
X2625Y2120*
Y2107*
X2622Y2101*
X2619Y2098*
X2613Y2095*
X2594*
Y2195D02*
Y2232D01*
X2613*
X2619Y2229*
X2622Y2226*
X2625Y2220*
Y2207*
X2622Y2201*
X2619Y2198*
X2613Y2195*
X2594*
Y2295D02*
Y2332D01*
X2613*
X2619Y2329*
X2622Y2326*
X2625Y2320*
Y2307*
X2622Y2301*
X2619Y2298*
X2613Y2295*
X2594*
Y2395D02*
Y2432D01*
X2613*
X2619Y2429*
X2622Y2426*
X2625Y2420*
Y2407*
X2622Y2401*
X2619Y2398*
X2613Y2395*
X2594*
Y2495D02*
Y2532D01*
X2613*
X2619Y2529*
X2622Y2526*
X2625Y2520*
Y2507*
X2622Y2501*
X2619Y2498*
X2613Y2495*
X2594*
Y2595D02*
Y2632D01*
X2613*
X2619Y2629*
X2622Y2626*
X2625Y2620*
Y2607*
X2622Y2601*
X2619Y2598*
X2613Y2595*
X2594*
Y2695D02*
Y2732D01*
X2613*
X2619Y2729*
X2622Y2726*
X2625Y2720*
Y2707*
X2622Y2701*
X2619Y2698*
X2613Y2695*
X2594*
Y2795D02*
Y2832D01*
X2613*
X2619Y2829*
X2622Y2826*
X2625Y2820*
Y2807*
X2622Y2801*
X2619Y2798*
X2613Y2795*
X2594*
Y2895D02*
Y2932D01*
X2613*
X2619Y2929*
X2622Y2926*
X2625Y2920*
Y2907*
X2622Y2901*
X2619Y2898*
X2613Y2895*
X2594*
X2667Y823D02*
X2673Y819D01*
X2676Y813*
X2673Y807*
X2667Y804*
X2645*
Y841*
X2667*
X2673Y838*
X2676Y832*
X2673Y826*
X2667Y823*
X2645*
X2667Y3106D02*
X2673Y3103D01*
X2676Y3097*
X2673Y3090*
X2667Y3087*
X2645*
Y3125*
X2667*
X2673Y3122*
X2676Y3115*
X2673Y3109*
X2667Y3106*
X2645*
X2694Y995D02*
Y1032D01*
X2713*
X2719Y1029*
X2722Y1026*
X2725Y1020*
Y1007*
X2722Y1001*
X2719Y998*
X2713Y995*
X2694*
Y1095D02*
Y1132D01*
X2713*
X2719Y1129*
X2722Y1126*
X2725Y1120*
Y1107*
X2722Y1101*
X2719Y1098*
X2713Y1095*
X2694*
Y1195D02*
Y1232D01*
X2713*
X2719Y1229*
X2722Y1226*
X2725Y1220*
Y1207*
X2722Y1201*
X2719Y1198*
X2713Y1195*
X2694*
Y1295D02*
Y1332D01*
X2713*
X2719Y1329*
X2722Y1326*
X2725Y1320*
Y1307*
X2722Y1301*
X2719Y1298*
X2713Y1295*
X2694*
Y1395D02*
Y1432D01*
X2713*
X2719Y1429*
X2722Y1426*
X2725Y1420*
Y1407*
X2722Y1401*
X2719Y1398*
X2713Y1395*
X2694*
Y1495D02*
Y1532D01*
X2713*
X2719Y1529*
X2722Y1526*
X2725Y1520*
Y1507*
X2722Y1501*
X2719Y1498*
X2713Y1495*
X2694*
Y1595D02*
Y1632D01*
X2713*
X2719Y1629*
X2722Y1626*
X2725Y1620*
Y1607*
X2722Y1601*
X2719Y1598*
X2713Y1595*
X2694*
Y1695D02*
X2710Y1732D01*
X2725Y1695*
X2700Y1710D02*
X2719D01*
X2694Y1795D02*
Y1832D01*
X2713*
X2719Y1829*
X2722Y1826*
X2725Y1820*
Y1807*
X2722Y1801*
X2719Y1798*
X2713Y1795*
X2694*
Y1895D02*
Y1932D01*
X2713*
X2719Y1929*
X2722Y1926*
X2725Y1920*
Y1907*
X2722Y1901*
X2719Y1898*
X2713Y1895*
X2694*
Y1995D02*
Y2032D01*
X2713*
X2719Y2029*
X2722Y2026*
X2725Y2020*
Y2007*
X2722Y2001*
X2719Y1998*
X2713Y1995*
X2694*
Y2095D02*
Y2132D01*
X2713*
X2719Y2129*
X2722Y2126*
X2725Y2120*
Y2107*
X2722Y2101*
X2719Y2098*
X2713Y2095*
X2694*
Y2195D02*
Y2232D01*
X2713*
X2719Y2229*
X2722Y2226*
X2725Y2220*
Y2207*
X2722Y2201*
X2719Y2198*
X2713Y2195*
X2694*
Y2295D02*
Y2332D01*
X2713*
X2719Y2329*
X2722Y2326*
X2725Y2320*
Y2307*
X2722Y2301*
X2719Y2298*
X2713Y2295*
X2694*
Y2395D02*
Y2432D01*
X2713*
X2719Y2429*
X2722Y2426*
X2725Y2420*
Y2407*
X2722Y2401*
X2719Y2398*
X2713Y2395*
X2694*
Y2495D02*
Y2532D01*
X2713*
X2719Y2529*
X2722Y2526*
X2725Y2520*
Y2507*
X2722Y2501*
X2719Y2498*
X2713Y2495*
X2694*
Y2595D02*
Y2632D01*
X2713*
X2719Y2629*
X2722Y2626*
X2725Y2620*
Y2607*
X2722Y2601*
X2719Y2598*
X2713Y2595*
X2694*
Y2695D02*
Y2732D01*
X2713*
X2719Y2729*
X2722Y2726*
X2725Y2720*
Y2707*
X2722Y2701*
X2719Y2698*
X2713Y2695*
X2694*
Y2795D02*
Y2832D01*
X2713*
X2719Y2829*
X2722Y2826*
X2725Y2820*
Y2807*
X2722Y2801*
X2719Y2798*
X2713Y2795*
X2694*
Y2895D02*
Y2932D01*
X2713*
X2719Y2929*
X2722Y2926*
X2725Y2920*
Y2907*
X2722Y2901*
X2719Y2898*
X2713Y2895*
X2694*
X2857Y1949D02*
X2870D01*
X2863D02*
Y1986D01*
X2857D02*
X2870D01*
X3060Y2658D02*
X3070D01*
Y2655*
X3066Y2648*
X3063Y2645*
X3057Y2642*
X3051*
X3045Y2645*
X3041Y2648*
X3038Y2655*
Y2667*
X3041Y2673*
X3045Y2676*
X3051Y2680*
X3057*
X3063Y2676*
X3066Y2673*
X3070Y2667*
X3060Y3445D02*
X3070D01*
Y3442*
X3066Y3436*
X3063Y3433*
X3057Y3429*
X3051*
X3045Y3433*
X3041Y3436*
X3038Y3442*
Y3454*
X3041Y3461*
X3045Y3464*
X3051Y3467*
X3057*
X3063Y3464*
X3066Y3461*
X3070Y3454*
X3046Y3805D02*
Y3842D01*
X3077*
X3071Y3823D02*
X3046D01*
X3047Y1369D02*
Y1406D01*
Y1387D02*
X3078D01*
Y1369D02*
Y1406D01*
X3196Y3805D02*
Y3842D01*
X3227*
X3221Y3823D02*
X3196D01*
X3207Y582D02*
Y620D01*
Y601D02*
X3238D01*
Y582D02*
Y620D01*
X3319Y695D02*
Y732D01*
Y713D02*
X3350D01*
Y695D02*
Y732D01*
X3355Y2658D02*
X3365D01*
Y2655*
X3362Y2648*
X3359Y2645*
X3352Y2642*
X3346*
X3340Y2645*
X3337Y2648*
X3334Y2655*
Y2667*
X3337Y2673*
X3340Y2676*
X3346Y2680*
X3352*
X3359Y2676*
X3362Y2673*
X3365Y2667*
X3355Y3307D02*
X3365D01*
Y3304*
X3362Y3298*
X3359Y3295*
X3352Y3292*
X3346*
X3340Y3295*
X3337Y3298*
X3334Y3304*
Y3317*
X3337Y3323*
X3340Y3326*
X3346Y3329*
X3352*
X3359Y3326*
X3362Y3323*
X3365Y3317*
X3355Y3583D02*
X3365D01*
Y3580*
X3362Y3574*
X3359Y3570*
X3352Y3567*
X3346*
X3340Y3570*
X3337Y3574*
X3334Y3580*
Y3592*
X3337Y3599*
X3340Y3602*
X3346Y3605*
X3352*
X3359Y3602*
X3362Y3599*
X3365Y3592*
X3346Y3805D02*
Y3842D01*
X3377*
X3371Y3823D02*
X3346D01*
X3441Y2045D02*
X3454D01*
X3447D02*
Y2083D01*
X3441D02*
X3454D01*
X3464Y2441D02*
X3476D01*
X3470D02*
Y2478D01*
X3464D02*
X3476D01*
X3619Y319D02*
Y357D01*
Y338D02*
X3650D01*
Y319D02*
Y357D01*
X3619Y2325D02*
Y2362D01*
Y2343D02*
X3650D01*
Y2325D02*
Y2362D01*
X3720Y2659D02*
X3730D01*
Y2656*
X3727Y2650*
X3724Y2647*
X3717Y2644*
X3711*
X3705Y2647*
X3702Y2650*
X3699Y2656*
Y2669*
X3702Y2675*
X3705Y2678*
X3711Y2681*
X3717*
X3724Y2678*
X3727Y2675*
X3730Y2669*
X3720Y3447D02*
X3730D01*
Y3443*
X3727Y3437*
X3724Y3434*
X3717Y3431*
X3711*
X3705Y3434*
X3702Y3437*
X3699Y3443*
Y3456*
X3702Y3462*
X3705Y3465*
X3711Y3468*
X3717*
X3724Y3465*
X3727Y3462*
X3730Y3456*
X3709Y3806D02*
Y3844D01*
X3740*
X3734Y3825D02*
X3709D01*
X3859Y3806D02*
Y3844D01*
X3890*
X3884Y3825D02*
X3859D01*
X3978Y857D02*
X3990D01*
X3984D02*
Y894D01*
X3978D02*
X3990D01*
X4016Y2659D02*
X4025D01*
Y2656*
X4022Y2650*
X4019Y2647*
X4013Y2644*
X4006*
X4000Y2647*
X3997Y2650*
X3994Y2656*
Y2669*
X3997Y2675*
X4000Y2678*
X4006Y2681*
X4013*
X4019Y2678*
X4022Y2675*
X4025Y2669*
X4016Y3309D02*
X4025D01*
Y3306*
X4022Y3299*
X4019Y3296*
X4013Y3293*
X4006*
X4000Y3296*
X3997Y3299*
X3994Y3306*
Y3318*
X3997Y3324*
X4000Y3327*
X4006Y3331*
X4013*
X4019Y3327*
X4022Y3324*
X4025Y3318*
X4016Y3584D02*
X4025D01*
Y3581*
X4022Y3575*
X4019Y3572*
X4013Y3569*
X4006*
X4000Y3572*
X3997Y3575*
X3994Y3581*
Y3594*
X3997Y3600*
X4000Y3603*
X4006Y3606*
X4013*
X4019Y3603*
X4022Y3600*
X4025Y3594*
X4009Y3806D02*
Y3844D01*
X4040*
X4034Y3825D02*
X4009D01*
X4182Y620D02*
Y657D01*
Y638D02*
X4213D01*
Y620D02*
Y657D01*
X4252Y1804D02*
Y1842D01*
Y1823D02*
X4283D01*
Y1804D02*
Y1842D01*
X4263Y232D02*
Y269D01*
Y250D02*
X4294D01*
Y232D02*
Y269D01*
X4265Y408D02*
Y445D01*
Y426D02*
X4297D01*
Y408D02*
Y445D01*
X4332Y2040D02*
X4345D01*
X4338D02*
Y2078D01*
X4332D02*
X4345D01*
X4332Y2476D02*
X4345D01*
X4338D02*
Y2513D01*
X4332D02*
X4345D01*
X4332Y2917D02*
X4345D01*
X4338D02*
Y2955D01*
X4332D02*
X4345D01*
X4387Y700D02*
Y737D01*
Y718D02*
X4418D01*
Y700D02*
Y737D01*
X4398Y2041D02*
X4411D01*
X4405D02*
Y2079D01*
X4398D02*
X4411D01*
X4406Y2476D02*
X4418D01*
X4412D02*
Y2513D01*
X4406D02*
X4418D01*
X4406Y2917D02*
X4418D01*
X4412D02*
Y2955D01*
X4406D02*
X4418D01*
X4407Y3807D02*
Y3845D01*
X4438*
X4432Y3826D02*
X4407D01*
X4438Y2957D02*
X4451D01*
X4445D02*
Y2995D01*
X4438D02*
X4451D01*
X4441Y2074D02*
X4453D01*
X4447D02*
Y2111D01*
X4441D02*
X4453D01*
X4457Y2514D02*
X4469D01*
X4463D02*
Y2552D01*
X4457D02*
X4469D01*
X4458Y3409D02*
X4471D01*
X4464D02*
Y3447D01*
X4458D02*
X4471D01*
X4557Y3807D02*
Y3845D01*
X4588*
X4582Y3826D02*
X4557D01*
X4628Y766D02*
X4640D01*
X4634D02*
Y803D01*
X4628D02*
X4640D01*
X4630Y682D02*
X4643D01*
X4637D02*
Y720D01*
X4630D02*
X4643D01*
X4694Y681D02*
X4707D01*
X4700D02*
Y718D01*
X4694D02*
X4707D01*
X4694Y766D02*
X4707D01*
X4700D02*
Y803D01*
X4694D02*
X4707D01*
X4705Y3679D02*
X4718D01*
X4712D02*
Y3716D01*
X4705D02*
X4718D01*
X4707Y3807D02*
Y3845D01*
X4738*
X4732Y3826D02*
X4707D01*
X4744Y932D02*
Y970D01*
Y951D02*
X4775D01*
Y932D02*
Y970D01*
X4760Y767D02*
X4773D01*
X4767D02*
Y805D01*
X4760D02*
X4773D01*
X4762Y681D02*
X4774D01*
X4768D02*
Y718D01*
X4762D02*
X4774D01*
X4857Y625D02*
Y662D01*
Y643D02*
X4888D01*
Y625D02*
Y662D01*
X4857Y3807D02*
Y3845D01*
X4888*
X4882Y3826D02*
X4857D01*
X4982Y1316D02*
X4995D01*
X4989D02*
Y1354D01*
X4982D02*
X4995D01*
X5009Y965D02*
X5021D01*
X5015D02*
Y1003D01*
X5009D02*
X5021D01*
X5007Y3807D02*
Y3845D01*
X5038*
X5032Y3826D02*
X5007D01*
X5019Y1279D02*
X5031D01*
X5025D02*
Y1316D01*
X5019D02*
X5031D01*
X5019Y2871D02*
X5032D01*
X5025D02*
Y2908D01*
X5019D02*
X5032D01*
X5020Y2431D02*
X5032D01*
X5026D02*
Y2468D01*
X5020D02*
X5032D01*
X5023Y3315D02*
X5035D01*
X5029D02*
Y3352D01*
X5023D02*
X5035D01*
X5024Y1996D02*
X5036D01*
X5030D02*
Y2034D01*
X5024D02*
X5036D01*
X5056Y1241D02*
X5069D01*
X5062D02*
Y1279D01*
X5056D02*
X5069D01*
X5081Y2521D02*
X5093D01*
X5087D02*
Y2558D01*
X5081D02*
X5093D01*
X5083Y2960D02*
X5096D01*
X5090D02*
Y2997D01*
X5083D02*
X5096D01*
X5085Y2086D02*
X5097D01*
X5091D02*
Y2124D01*
X5085D02*
X5097D01*
X5090Y3403D02*
X5102D01*
X5096D02*
Y3440D01*
X5090D02*
X5102D01*
X5093Y1208D02*
X5106D01*
X5100D02*
Y1245D01*
X5093D02*
X5106D01*
X5136Y1175D02*
X5148D01*
X5142D02*
Y1213D01*
X5136D02*
X5148D01*
X5157Y3807D02*
Y3845D01*
X5188*
X5182Y3826D02*
X5157D01*
X5291Y968D02*
X5303D01*
X5297D02*
Y1005D01*
X5291D02*
X5303D01*
X5557Y2751D02*
Y2789D01*
Y2770D02*
X5588D01*
Y2751D02*
Y2789D01*
X5558Y2594D02*
Y2632D01*
Y2613D02*
X5590D01*
Y2594D02*
Y2632D01*
X5563Y1492D02*
Y1530D01*
Y1511D02*
X5595D01*
Y1492D02*
Y1530D01*
X5565Y941D02*
Y978D01*
Y959D02*
X5596D01*
Y941D02*
Y978D01*
X5565Y1018D02*
Y1055D01*
Y1037D02*
X5596D01*
Y1018D02*
Y1055D01*
X5566Y1098D02*
Y1135D01*
Y1117D02*
X5597D01*
Y1098D02*
Y1135D01*
X5566Y1334D02*
Y1371D01*
Y1352D02*
X5597D01*
Y1334D02*
Y1371D01*
X5586Y1571D02*
X5599D01*
X5593D02*
Y1608D01*
X5586D02*
X5599D01*
X5586Y1807D02*
X5599D01*
X5593D02*
Y1844D01*
X5586D02*
X5599D01*
X5588Y1885D02*
X5600D01*
X5594D02*
Y1923D01*
X5588D02*
X5600D01*
X5588Y1964D02*
X5600D01*
X5594D02*
Y2001D01*
X5588D02*
X5600D01*
X5589Y1176D02*
X5601D01*
X5595D02*
Y1214D01*
X5589D02*
X5601D01*
X5590Y1254D02*
X5603D01*
X5596D02*
Y1291D01*
X5590D02*
X5603D01*
X5607Y3807D02*
Y3845D01*
X5638*
X5632Y3826D02*
X5607D01*
X5729Y1334D02*
Y1371D01*
Y1352D02*
X5761D01*
Y1334D02*
Y1371D01*
X5763Y351D02*
X5760Y348D01*
X5754Y345*
X5744*
X5738Y348*
X5735Y351*
X5732Y357*
Y370*
X5735Y376*
X5738Y379*
X5744Y382*
X5754*
X5760Y379*
X5763Y376*
Y3276D02*
X5760Y3273D01*
X5754Y3270*
X5744*
X5738Y3273*
X5735Y3276*
X5732Y3282*
Y3295*
X5735Y3301*
X5738Y3304*
X5744Y3307*
X5754*
X5760Y3304*
X5763Y3301*
X5732Y941D02*
Y978D01*
Y959D02*
X5763D01*
Y941D02*
Y978D01*
X5732Y1019D02*
Y1057D01*
Y1038D02*
X5763D01*
Y1019D02*
Y1057D01*
X5732Y1098D02*
Y1135D01*
Y1117D02*
X5763D01*
Y1098D02*
Y1135D01*
X5733Y2594D02*
Y2632D01*
Y2613D02*
X5764D01*
Y2594D02*
Y2632D01*
X5733Y2751D02*
Y2789D01*
Y2770D02*
X5764D01*
Y2751D02*
Y2789D01*
X5738Y1414D02*
Y1451D01*
Y1432D02*
X5769D01*
Y1414D02*
Y1451D01*
X5757Y3807D02*
Y3845D01*
X5788*
X5782Y3826D02*
X5757D01*
X5776Y1176D02*
X5789D01*
X5782D02*
Y1214D01*
X5776D02*
X5789D01*
X5776Y1255D02*
X5789D01*
X5782D02*
Y1293D01*
X5776D02*
X5789D01*
X5776Y1492D02*
X5789D01*
X5782D02*
Y1530D01*
X5776D02*
X5789D01*
X5776Y1571D02*
X5789D01*
X5782D02*
Y1608D01*
X5776D02*
X5789D01*
X5776Y1885D02*
X5789D01*
X5782D02*
Y1923D01*
X5776D02*
X5789D01*
X5776Y1964D02*
X5789D01*
X5782D02*
Y2001D01*
X5776D02*
X5789D01*
X5776Y2043D02*
X5789D01*
X5782D02*
Y2080D01*
X5776D02*
X5789D01*
X5845Y2872D02*
Y2910D01*
Y2891D02*
X5877D01*
Y2872D02*
Y2910D01*
X5908Y862D02*
Y899D01*
Y881D02*
X5939D01*
Y862D02*
Y899D01*
X5908Y2872D02*
Y2910D01*
Y2891D02*
X5939D01*
Y2872D02*
Y2910D01*
X5909Y927D02*
Y964D01*
Y946D02*
X5940D01*
Y927D02*
Y964D01*
D02*
D12*
X112Y3827D03*
X282Y3501D03*
Y3601D03*
X282Y285D03*
Y3210D03*
X616Y744D03*
Y3028D03*
X1306Y2890D03*
X1568Y1410D03*
X1590Y2876D03*
X1678Y1252D03*
X1814D03*
X1869Y1410D03*
X2090Y2556D03*
X2105Y764D03*
X2134Y1323D03*
X2157Y2803D03*
X2207Y982D03*
X2240Y2621D03*
X2241Y1598D03*
Y2759D03*
X2494Y935D03*
Y1035D03*
Y1135D03*
Y1235D03*
Y1335D03*
Y1435D03*
Y1535D03*
Y1635D03*
Y1735D03*
Y1835D03*
Y1935D03*
Y2035D03*
Y2135D03*
Y2235D03*
Y2335D03*
Y2435D03*
Y2535D03*
Y2635D03*
Y2735D03*
Y2835D03*
X2545Y744D03*
Y3028D03*
X2594Y935D03*
Y1035D03*
Y1135D03*
Y1235D03*
Y1335D03*
Y1435D03*
Y1535D03*
Y1635D03*
Y1735D03*
Y1835D03*
Y1935D03*
Y2035D03*
Y2135D03*
Y2235D03*
Y2335D03*
Y2435D03*
Y2535D03*
Y2635D03*
Y2735D03*
Y2835D03*
X2748Y1890D03*
X2938Y2583D03*
Y3370D03*
X2946Y3745D03*
X2947Y1309D03*
X3096Y3745D03*
X3107Y523D03*
X3219Y635D03*
X3234Y2583D03*
Y3232D03*
Y3508D03*
X3246Y3745D03*
X3332Y1986D03*
X3354Y2381D03*
X3519Y260D03*
Y2265D03*
X3599Y2584D03*
Y3372D03*
X3609Y3747D03*
X3759D03*
X3868Y798D03*
X3894Y2584D03*
Y3234D03*
Y3509D03*
X3909Y3747D03*
X4082Y560D03*
X4152Y1745D03*
X4163Y172D03*
X4165Y348D03*
X4223Y1981D03*
Y2416D03*
Y2858D03*
X4287Y640D03*
X4289Y1982D03*
X4296Y2416D03*
Y2858D03*
X4307Y3748D03*
X4329Y2898D03*
X4331Y2014D03*
X4348Y2455D03*
X4349Y3350D03*
X4457Y3748D03*
X4519Y706D03*
X4521Y623D03*
X4585Y622D03*
Y706D03*
X4596Y3619D03*
X4607Y3748D03*
X4644Y873D03*
X4651Y708D03*
X4652Y622D03*
X4757Y565D03*
Y3748D03*
X4873Y1257D03*
X4899Y906D03*
X4907Y3748D03*
X4909Y1219D03*
X4910Y2811D03*
X4910Y2371D03*
X4914Y3255D03*
X4914Y1937D03*
X4947Y1182D03*
X4972Y2461D03*
X4974Y2900D03*
X4975Y2027D03*
X4980Y3344D03*
X4984Y1148D03*
X5027Y1116D03*
X5057Y3748D03*
X5181Y909D03*
X5457Y2692D03*
X5458Y2535D03*
X5463Y1433D03*
X5465Y881D03*
Y959D03*
X5466Y1038D03*
Y1274D03*
X5477Y1511D03*
Y1747D03*
X5478Y1826D03*
Y1905D03*
X5480Y1117D03*
X5481Y1194D03*
X5507Y3748D03*
X5629Y1274D03*
X5632Y285D03*
Y3210D03*
X5632Y881D03*
Y960D03*
Y1038D03*
X5633Y2535D03*
Y2692D03*
X5638Y1354D03*
X5657Y3748D03*
X5667Y1117D03*
Y1196D03*
Y1433D03*
Y1511D03*
Y1826D03*
Y1905D03*
Y1983D03*
X5745Y2813D03*
X5808Y803D03*
Y2813D03*
X5809Y867D03*
X0Y0D02*
M02*
