%FSLAX23Y23*%
%MOIN*%
G04 EasyPC Gerber Version 17.0 Build 3379 *
%ADD151O,0.06600X0.06600*%
%ADD150O,0.07600X0.07600*%
%ADD154R,0.06600X0.06600*%
%ADD152R,0.07600X0.07600*%
%ADD28C,0.00500*%
%ADD88C,0.10600*%
%ADD157C,0.12411*%
%ADD153C,0.25009*%
%ADD87C,0.28100*%
X0Y0D02*
D02*
D28*
X4Y3D02*
X5904D01*
Y3953*
X4*
Y3*
D02*
D87*
X279Y278D03*
Y3203D03*
X5629Y278D03*
Y3203D03*
D02*
D88*
X2943Y3738D03*
X3093D03*
X3243D03*
X3606Y3739D03*
X3756D03*
X3906D03*
X4304Y3740D03*
X4454D03*
X4604D03*
X4754D03*
X4904D03*
X5054D03*
X5504D03*
X5654D03*
D02*
D150*
X2491Y1028D03*
Y1128D03*
Y1228D03*
Y1328D03*
Y1428D03*
Y1528D03*
Y1628D03*
Y1728D03*
Y1828D03*
Y1928D03*
Y2028D03*
Y2128D03*
Y2228D03*
Y2328D03*
Y2428D03*
Y2528D03*
Y2628D03*
Y2728D03*
Y2828D03*
X2591Y928D03*
Y1028D03*
Y1128D03*
Y1228D03*
Y1328D03*
Y1428D03*
Y1528D03*
Y1728D03*
Y1828D03*
Y1928D03*
Y2028D03*
Y2128D03*
Y2228D03*
Y2328D03*
Y2428D03*
Y2528D03*
Y2628D03*
Y2728D03*
Y2828D03*
D02*
D151*
Y1628D03*
D02*
D152*
X2491Y928D03*
D02*
D153*
X612Y737D03*
Y3020D03*
X2542Y737D03*
Y3020D03*
D02*
D154*
X278Y3493D03*
Y3593D03*
D02*
D157*
X2935Y2575D03*
Y3363D03*
X3230Y2575D03*
Y3225D03*
Y3500D03*
X3595Y2577D03*
Y3364D03*
X3891Y2577D03*
Y3226D03*
Y3502D03*
X0Y0D02*
M02*
