%FSLAX23Y23*%
%MOIN*%
G04 EasyPC Gerber Version 17.0 Build 3379 *
%ADD71R,0.05512X0.03504*%
%ADD14R,0.06000X0.06000*%
%ADD10C,0.00500*%
%ADD11C,0.01000*%
%ADD22C,0.01500*%
%ADD20C,0.02000*%
%ADD21C,0.03000*%
%ADD70C,0.03200*%
%ADD19C,0.05600*%
%ADD13C,0.06000*%
%ADD17C,0.07000*%
%ADD15C,0.09000*%
%ADD16C,0.11000*%
%ADD18C,0.17500*%
%ADD12C,0.27500*%
X0Y0D02*
D02*
D10*
X3063Y58D02*
Y153D01*
X3498*
Y58*
X5848*
Y3898*
X2959*
G75*
G02X2903Y3796I-57J-35*
G01*
G75*
G02X2846Y3898J67*
G01*
X2759*
G75*
G02X2703Y3796I-57J-35*
G01*
G75*
G02X2646Y3898J67*
G01*
X2509*
G75*
G02X2453Y3796I-57J-35*
G01*
G75*
G02X2396Y3898J67*
G01*
X2309*
G75*
G02X2253Y3796I-57J-35*
G01*
G75*
G02X2196Y3898J67*
G01*
X2059*
G75*
G02X2003Y3796I-57J-35*
G01*
G75*
G02X1946Y3898J67*
G01*
X1859*
G75*
G02X1803Y3796I-57J-35*
G01*
G75*
G02X1746Y3898J67*
G01*
X1509*
G75*
G02X1453Y3796I-57J-35*
G01*
G75*
G02X1396Y3898J67*
G01*
X1309*
G75*
G02X1252Y3796I-57J-35*
G01*
G75*
G02X1196Y3898J67*
G01*
X959*
G75*
G02X903Y3796I-57J-35*
G01*
G75*
G02X846Y3898J67*
G01*
X759*
G75*
G02X703Y3796I-57J-35*
G01*
G75*
G02X646Y3898J67*
G01*
X58*
Y58*
X3063*
X69Y3468D02*
G75*
G02X126I29D01*
G01*
G75*
G02X69I-29*
G01*
X129Y278D02*
G75*
G02X427I149D01*
G01*
G75*
G02X129I-149*
G01*
Y3203D02*
G75*
G02X427I149D01*
G01*
G75*
G02X129I-149*
G01*
X230Y3728D02*
G75*
G02X285I28D01*
G01*
G75*
G02X230I-28*
G01*
X310Y928D02*
G75*
G02X365I28D01*
G01*
G75*
G02X310I-28*
G01*
X400D02*
G75*
G02X455I28D01*
G01*
G75*
G02X400I-28*
G01*
X476Y1910D02*
Y2171D01*
G75*
G02X465Y2192I17J22*
G01*
G75*
G02X520I28*
G01*
G75*
G02X509Y2171I-28*
G01*
Y1910*
G75*
G02X520Y1888I-17J-22*
G01*
G75*
G02X465I-28*
G01*
G75*
G02X476Y1910I28*
G01*
X500Y1823D02*
G75*
G02X555I28D01*
G01*
G75*
G02X500I-28*
G01*
X520Y1448D02*
G75*
G02X575I28D01*
G01*
G75*
G02X520I-28*
G01*
X526Y3425D02*
G75*
G02X495Y3453I-4J27D01*
G01*
G75*
G02X550I28*
G01*
G75*
G02X550Y3449I-28J0*
G01*
X579Y3419*
X873*
G75*
G02X884Y3414I0J-17*
G01*
X914Y3384*
G75*
G02X919Y3373I-12J-12*
G01*
Y3084*
X939Y3064*
X960*
G75*
G02X992Y3074I23J-17*
G01*
X1524*
G75*
G02X1551I13J-27*
G01*
X2177*
X2364Y3261*
G75*
G02X2383Y3269I19J-19*
G01*
X2773*
G75*
G02X2803Y3282I29J-27*
G01*
G75*
G02Y3203J-40*
G01*
G75*
G02X2773Y3216J40*
G01*
X2393*
X2206Y3029*
G75*
G02X2188Y3021I-19J19*
G01*
X1551*
G75*
G02X1524I-13J27*
G01*
X992*
G75*
G02X960Y3031I-10J27*
G01*
X933*
G75*
G02X921Y3036I0J17*
G01*
X891Y3066*
G75*
G02X886Y3078I12J12*
G01*
Y3366*
X866Y3386*
X573*
G75*
G02X561Y3391I0J17*
G01*
X526Y3425*
X558Y1983D02*
G75*
G02X637I40D01*
G01*
G75*
G02X558I-40*
G01*
X570Y3283D02*
G75*
G02X625I28D01*
G01*
G75*
G02X570I-28*
G01*
X615Y3471D02*
G75*
G02X580Y3498I-7J27D01*
G01*
G75*
G02X615Y3524I28*
G01*
X1149*
G75*
G02X1176I13J-27*
G01*
X1248*
G75*
G02X1266Y3516I0J-27*
G01*
X1633Y3149*
X2069*
G75*
G02X2103Y3167I33J-22*
G01*
G75*
G02Y3088J-40*
G01*
G75*
G02X2079Y3096J40*
G01*
X1623*
G75*
G02X1604Y3104I0J27*
G01*
X1237Y3471*
X1176*
G75*
G02X1149I-13J27*
G01*
X615*
X660Y1883D02*
G75*
G02X715I28D01*
G01*
G75*
G02X660I-28*
G01*
X665Y1558D02*
G75*
G02X720I28D01*
G01*
G75*
G02X665I-28*
G01*
Y2963D02*
G75*
G02X720I28D01*
G01*
G75*
G02X665I-28*
G01*
X703Y3596D02*
G75*
G02Y3729J67D01*
G01*
G75*
G02Y3596J-67*
G01*
X720Y2283D02*
G75*
G02X775I28D01*
G01*
G75*
G02X720I-28*
G01*
X728Y248D02*
G75*
G02X807I40D01*
G01*
G75*
G02X728I-40*
G01*
X760Y1868D02*
G75*
G02X815I28D01*
G01*
G75*
G02X760I-28*
G01*
X780Y583D02*
G75*
G02X835I28D01*
G01*
G75*
G02X780I-28*
G01*
X803Y3706D02*
G75*
G02Y3819J57D01*
G01*
G75*
G02Y3706J-57*
G01*
X833Y2083D02*
G75*
G02X888I28D01*
G01*
G75*
G02X833I-28*
G01*
X858Y2208D02*
G75*
G02X913I28D01*
G01*
G75*
G02X858I-28*
G01*
X865Y643D02*
G75*
G02X920I28D01*
G01*
G75*
G02X865I-28*
G01*
X870Y2438D02*
G75*
G02X925I28D01*
G01*
G75*
G02X870I-28*
G01*
Y2588D02*
G75*
G02X925I28D01*
G01*
G75*
G02X870I-28*
G01*
Y2733D02*
G75*
G02X925I28D01*
G01*
G75*
G02X870I-28*
G01*
X875Y2893D02*
G75*
G02X930I28D01*
G01*
G75*
G02X875I-28*
G01*
X880Y1373D02*
G75*
G02X935I28D01*
G01*
G75*
G02X880I-28*
G01*
X891Y1570D02*
Y1753D01*
G75*
G02X896Y1764I17J0*
G01*
X970Y1839*
G75*
G02X970Y1843I27J4*
G01*
G75*
G02X1025I28*
G01*
G75*
G02X994Y1815I-28*
G01*
X924Y1746*
Y1570*
G75*
G02X935Y1548I-17J-22*
G01*
G75*
G02X880I-28*
G01*
G75*
G02X891Y1570I28*
G01*
X903Y3596D02*
G75*
G02Y3729J67D01*
G01*
G75*
G02Y3596J-67*
G01*
X935Y3133D02*
G75*
G02X990I28D01*
G01*
G75*
G02X935I-28*
G01*
X940Y1223D02*
G75*
G02X995I28D01*
G01*
G75*
G02X940I-28*
G01*
X950Y583D02*
G75*
G02X1005I28D01*
G01*
G75*
G02X950I-28*
G01*
X970Y1763D02*
G75*
G02X1025I28D01*
G01*
G75*
G02X970I-28*
G01*
X988Y243D02*
G75*
G02X1067I40D01*
G01*
G75*
G02X988I-40*
G01*
X1030Y1942D02*
G75*
G02X1085I28D01*
G01*
G75*
G02X1030I-28*
G01*
X1110Y2168D02*
G75*
G02X1165I28D01*
G01*
G75*
G02X1110I-28*
G01*
X1135Y3288D02*
G75*
G02X1190I28D01*
G01*
G75*
G02X1135I-28*
G01*
X1178Y1460D02*
G75*
G02X1233I28D01*
G01*
G75*
G02X1178I-28*
G01*
Y1548D02*
G75*
G02X1233I28D01*
G01*
G75*
G02X1178I-28*
G01*
Y1635D02*
G75*
G02X1233I28D01*
G01*
G75*
G02X1178I-28*
G01*
Y1722D02*
G75*
G02X1233I28D01*
G01*
G75*
G02X1178I-28*
G01*
Y1810D02*
G75*
G02X1233I28D01*
G01*
G75*
G02X1178I-28*
G01*
X1220Y2963D02*
G75*
G02X1275I28D01*
G01*
G75*
G02X1220I-28*
G01*
X1232Y333D02*
G75*
G02X1313I41D01*
G01*
G75*
G02X1232I-41*
G01*
X1252Y3596D02*
G75*
G02Y3729J67D01*
G01*
G75*
G02Y3596J-67*
G01*
X1265Y1460D02*
G75*
G02X1320I28D01*
G01*
G75*
G02X1265I-28*
G01*
Y1548D02*
G75*
G02X1320I28D01*
G01*
G75*
G02X1265I-28*
G01*
Y1635D02*
G75*
G02X1320I28D01*
G01*
G75*
G02X1265I-28*
G01*
Y1722D02*
G75*
G02X1320I28D01*
G01*
G75*
G02X1265I-28*
G01*
Y1810D02*
G75*
G02X1320I28D01*
G01*
G75*
G02X1265I-28*
G01*
X1283Y2258D02*
G75*
G02X1338I28D01*
G01*
G75*
G02X1283I-28*
G01*
X1296Y2025D02*
X1326Y2054D01*
G75*
G02X1338Y2059I12J-12*
G01*
X1368*
G75*
G02X1418Y2043I22J-17*
G01*
G75*
G02X1368Y2026I-28*
G01*
X1344*
X1320Y2001*
G75*
G02X1320Y1998I-27J-4*
G01*
G75*
G02X1265I-28*
G01*
G75*
G02X1296Y2025I28*
G01*
X1353Y1460D02*
G75*
G02X1408I28D01*
G01*
G75*
G02X1353I-28*
G01*
Y1548D02*
G75*
G02X1408I28D01*
G01*
G75*
G02X1353I-28*
G01*
Y1635D02*
G75*
G02X1408I28D01*
G01*
G75*
G02X1353I-28*
G01*
Y1722D02*
G75*
G02X1408I28D01*
G01*
G75*
G02X1353I-28*
G01*
Y1810D02*
G75*
G02X1408I28D01*
G01*
G75*
G02X1353I-28*
G01*
Y3706D02*
G75*
G02Y3819J57D01*
G01*
G75*
G02Y3706J-57*
G01*
X1363Y2258D02*
G75*
G02X1418I28D01*
G01*
G75*
G02X1363I-28*
G01*
X1380Y1218D02*
G75*
G02X1435I28D01*
G01*
G75*
G02X1380I-28*
G01*
X1430Y2438D02*
G75*
G02X1485I28D01*
G01*
G75*
G02X1430I-28*
G01*
Y2588D02*
G75*
G02X1485I28D01*
G01*
G75*
G02X1430I-28*
G01*
Y2733D02*
G75*
G02X1485I28D01*
G01*
G75*
G02X1430I-28*
G01*
X1435Y2898D02*
G75*
G02X1490I28D01*
G01*
G75*
G02X1435I-28*
G01*
X1440Y1460D02*
G75*
G02X1495I28D01*
G01*
G75*
G02X1440I-28*
G01*
Y1548D02*
G75*
G02X1495I28D01*
G01*
G75*
G02X1440I-28*
G01*
Y1635D02*
G75*
G02X1495I28D01*
G01*
G75*
G02X1440I-28*
G01*
Y1722D02*
G75*
G02X1495I28D01*
G01*
G75*
G02X1440I-28*
G01*
Y1810D02*
G75*
G02X1495I28D01*
G01*
G75*
G02X1440I-28*
G01*
X1443Y2258D02*
G75*
G02X1498I28D01*
G01*
G75*
G02X1443I-28*
G01*
X1453Y3596D02*
G75*
G02Y3729J67D01*
G01*
G75*
G02Y3596J-67*
G01*
X1490Y3138D02*
G75*
G02X1545I28D01*
G01*
G75*
G02X1490I-28*
G01*
X1525Y1548D02*
G75*
G02X1580I28D01*
G01*
G75*
G02X1525I-28*
G01*
X1528Y1460D02*
G75*
G02X1583I28D01*
G01*
G75*
G02X1528I-28*
G01*
Y1635D02*
G75*
G02X1583I28D01*
G01*
G75*
G02X1528I-28*
G01*
Y1722D02*
G75*
G02X1583I28D01*
G01*
G75*
G02X1528I-28*
G01*
Y1810D02*
G75*
G02X1583I28D01*
G01*
G75*
G02X1528I-28*
G01*
X1613Y2168D02*
G75*
G02X1668I28D01*
G01*
G75*
G02X1613I-28*
G01*
X1728Y248D02*
G75*
G02X1807I40D01*
G01*
G75*
G02X1728I-40*
G01*
X1755Y2103D02*
G75*
G02X1810I28D01*
G01*
G75*
G02X1755I-28*
G01*
X1770Y1523D02*
G75*
G02X1825I28D01*
G01*
G75*
G02X1770I-28*
G01*
Y1713D02*
G75*
G02X1825I28D01*
G01*
G75*
G02X1770I-28*
G01*
Y1863D02*
G75*
G02X1825I28D01*
G01*
G75*
G02X1770I-28*
G01*
X1775Y588D02*
G75*
G02X1830I28D01*
G01*
G75*
G02X1775I-28*
G01*
X1803Y3596D02*
G75*
G02Y3729J67D01*
G01*
G75*
G02Y3596J-67*
G01*
X1860Y1523D02*
G75*
G02X1915I28D01*
G01*
G75*
G02X1860I-28*
G01*
X1865Y648D02*
G75*
G02X1920I28D01*
G01*
G75*
G02X1865I-28*
G01*
X1903Y3706D02*
G75*
G02Y3819J57D01*
G01*
G75*
G02Y3706J-57*
G01*
X1920Y1653D02*
G75*
G02X1975I28D01*
G01*
G75*
G02X1920I-28*
G01*
Y1803D02*
G75*
G02X1975I28D01*
G01*
G75*
G02X1920I-28*
G01*
X1950Y588D02*
G75*
G02X2005I28D01*
G01*
G75*
G02X1950I-28*
G01*
X1978Y248D02*
G75*
G02X2057I40D01*
G01*
G75*
G02X1978I-40*
G01*
X2003Y3596D02*
G75*
G02Y3729J67D01*
G01*
G75*
G02Y3596J-67*
G01*
X2223Y2918D02*
G75*
G02Y2997J40D01*
G01*
G75*
G02Y2918J-40*
G01*
X2232Y338D02*
G75*
G02X2313I41D01*
G01*
G75*
G02X2232I-41*
G01*
X2253Y3596D02*
G75*
G02Y3729J67D01*
G01*
G75*
G02Y3596J-67*
G01*
X2343Y1238D02*
G75*
G02X2422I40D01*
G01*
G75*
G02X2343I-40*
G01*
X2353Y3706D02*
G75*
G02Y3819J57D01*
G01*
G75*
G02Y3706J-57*
G01*
X2453Y3596D02*
G75*
G02Y3729J67D01*
G01*
G75*
G02Y3596J-67*
G01*
X2602Y1328D02*
G75*
G02X2683I41D01*
G01*
G75*
G02X2602I-41*
G01*
X2703Y3596D02*
G75*
G02Y3729J67D01*
G01*
G75*
G02Y3596J-67*
G01*
X2768Y1372D02*
G75*
G02Y1293J-40D01*
G01*
G75*
G02Y1372J40*
G01*
Y3072D02*
G75*
G02Y2993J-40D01*
G01*
G75*
G02Y3072J40*
G01*
X2803Y3706D02*
G75*
G02Y3819J57D01*
G01*
G75*
G02Y3706J-57*
G01*
X2831Y258D02*
G75*
G02X2914I42D01*
G01*
G75*
G02X2831I-42*
G01*
Y858D02*
G75*
G02X2914I42D01*
G01*
G75*
G02X2831I-42*
G01*
X2903Y3596D02*
G75*
G02Y3729J67D01*
G01*
G75*
G02Y3596J-67*
G01*
X2928Y3373D02*
G75*
G02Y3452J40D01*
G01*
G75*
G02Y3373J-40*
G01*
X2931Y258D02*
G75*
G02X3014I42D01*
G01*
G75*
G02X2931I-42*
G01*
Y858D02*
G75*
G02X3014I42D01*
G01*
G75*
G02X2931I-42*
G01*
X2968Y1372D02*
G75*
G02Y1293J-40D01*
G01*
G75*
G02Y1372J40*
G01*
X3031Y258D02*
G75*
G02X3114I42D01*
G01*
G75*
G02X3031I-42*
G01*
Y858D02*
G75*
G02X3114I42D01*
G01*
G75*
G02X3031I-42*
G01*
X3131Y258D02*
G75*
G02X3214I42D01*
G01*
G75*
G02X3131I-42*
G01*
Y858D02*
G75*
G02X3214I42D01*
G01*
G75*
G02X3131I-42*
G01*
X3180Y3581D02*
G75*
G02X3378I99D01*
G01*
G75*
G02X3180I-99*
G01*
X3231Y258D02*
G75*
G02X3314I42D01*
G01*
G75*
G02X3231I-42*
G01*
Y858D02*
G75*
G02X3314I42D01*
G01*
G75*
G02X3231I-42*
G01*
X3315Y2178D02*
G75*
G02X3370I28D01*
G01*
G75*
G02X3315I-28*
G01*
Y2543D02*
G75*
G02X3370I28D01*
G01*
G75*
G02X3315I-28*
G01*
X3331Y258D02*
G75*
G02X3414I42D01*
G01*
G75*
G02X3331I-42*
G01*
Y858D02*
G75*
G02X3414I42D01*
G01*
G75*
G02X3331I-42*
G01*
X3421Y1401D02*
G75*
G02X3410Y1423I17J22D01*
G01*
G75*
G02X3465I28*
G01*
G75*
G02X3454Y1401I-28*
G01*
Y1259*
X3554Y1159*
X3993*
G75*
G02X4004Y1154I0J-17*
G01*
X4084Y1074*
G75*
G02X4089Y1063I-12J-12*
G01*
Y896*
G75*
G02X4114Y858I-17J-38*
G01*
G75*
G02X4031I-42*
G01*
G75*
G02X4056Y896I42*
G01*
Y1056*
X3986Y1126*
X3548*
G75*
G02X3536Y1131I0J17*
G01*
X3426Y1241*
G75*
G02X3421Y1252I12J12*
G01*
Y1401*
X3431Y258D02*
G75*
G02X3514I42D01*
G01*
G75*
G02X3431I-42*
G01*
Y858D02*
G75*
G02X3514I42D01*
G01*
G75*
G02X3431I-42*
G01*
X3500Y1413D02*
G75*
G02X3555I28D01*
G01*
G75*
G02X3500I-28*
G01*
X3508Y3531D02*
G75*
G02X3601I46D01*
G01*
G75*
G02X3508I-46*
G01*
X3529Y2217D02*
G75*
G02X3586I29D01*
G01*
G75*
G02X3529I-29*
G01*
X3531Y258D02*
G75*
G02X3614I42D01*
G01*
G75*
G02X3531I-42*
G01*
Y858D02*
G75*
G02X3614I42D01*
G01*
G75*
G02X3531I-42*
G01*
X3562Y3631D02*
G75*
G02X3655I46D01*
G01*
G75*
G02X3562I-46*
G01*
X3565Y1558D02*
G75*
G02X3620I28D01*
G01*
G75*
G02X3565I-28*
G01*
X3578Y2678D02*
G75*
G02X3570Y2698I19J20D01*
G01*
G75*
G02X3625I28*
G01*
G75*
G02X3618Y2679I-28*
G01*
G75*
G02X3622Y2668I-15J-11*
G01*
Y2295*
X3635Y2282*
X3638*
G75*
G02X3642Y2285I20J-19*
G01*
G75*
G02X3663Y2335I16J23*
G01*
X3669Y2340*
Y3335*
X3665Y3338*
X3640*
Y3318*
X3557*
Y3401*
X3613*
X3698Y3485*
Y3500*
G75*
G02X3616Y3531I-35J31*
G01*
G75*
G02X3698Y3561I46*
G01*
Y3588*
G75*
G02X3670Y3631I19J42*
G01*
G75*
G02X3763I46*
G01*
G75*
G02X3736Y3588I-46*
G01*
Y3561*
G75*
G02X3806I35J-31*
G01*
Y3588*
G75*
G02X3778Y3631I19J42*
G01*
G75*
G02X3871I46*
G01*
G75*
G02X3844Y3588I-46*
G01*
Y3561*
G75*
G02X3925Y3531I35J-31*
G01*
G75*
G02X3844Y3500I-46*
G01*
Y3399*
X3869*
Y3316*
X3786*
Y3399*
X3806*
Y3500*
G75*
G02X3736I-35J31*
G01*
Y3477*
G75*
G02X3730Y3464I-19*
G01*
X3643Y3377*
X3673*
G75*
G02X3686Y3371I0J-19*
G01*
X3701Y3356*
G75*
G02X3707Y3343I-13J-13*
G01*
Y2360*
G75*
G02X3750Y2358I21J-18*
G01*
G75*
G02X3800Y2342I23J-16*
G01*
G75*
G02X3789Y2321I-28*
G01*
Y2288*
G75*
G02X3784Y2276I-17J0*
G01*
X3774Y2266*
Y2238*
G75*
G02X3820Y2217I19J-20*
G01*
G75*
G02X3809Y2196I-28*
G01*
Y2103*
G75*
G02X3804Y2091I-17J0*
G01*
X3749Y2036*
Y1835*
G75*
G02X3760Y1813I-17J-22*
G01*
G75*
G02X3708Y1801I-28*
G01*
G75*
G02X3660Y1797I-25J11*
G01*
G75*
G02X3610Y1813I-23J16*
G01*
G75*
G02X3621Y1835I28*
G01*
Y2023*
G75*
G02X3626Y2034I17J0*
G01*
X3711Y2119*
Y2207*
G75*
G02X3667Y2237I-19J20*
G01*
G75*
G02X3638Y2244I-9J26*
G01*
X3628*
G75*
G02X3614Y2249I0J19*
G01*
X3589Y2274*
G75*
G02X3584Y2288I13J13*
G01*
Y2660*
G75*
G02X3578Y2673I14J13*
G01*
Y2678*
X3595Y1683D02*
G75*
G02X3650I28D01*
G01*
G75*
G02X3595I-28*
G01*
X3631Y258D02*
G75*
G02X3714I42D01*
G01*
G75*
G02X3631I-42*
G01*
Y858D02*
G75*
G02X3714I42D01*
G01*
G75*
G02X3631I-42*
G01*
X3640Y3218D02*
X3557D01*
Y3301*
X3640*
Y3218*
X3731Y258D02*
G75*
G02X3814I42D01*
G01*
G75*
G02X3731I-42*
G01*
Y858D02*
G75*
G02X3814I42D01*
G01*
G75*
G02X3731I-42*
G01*
X3820Y1828D02*
G75*
G02X3875I28D01*
G01*
G75*
G02X3820I-28*
G01*
X3831Y258D02*
G75*
G02X3914I42D01*
G01*
G75*
G02X3831I-42*
G01*
Y858D02*
G75*
G02X3914I42D01*
G01*
G75*
G02X3831I-42*
G01*
X3869Y3216D02*
X3786D01*
Y3299*
X3869*
Y3216*
X3886Y3631D02*
G75*
G02X3979I46D01*
G01*
G75*
G02X3886I-46*
G01*
X3931Y258D02*
G75*
G02X4014I42D01*
G01*
G75*
G02X3931I-42*
G01*
Y858D02*
G75*
G02X4014I42D01*
G01*
G75*
G02X3931I-42*
G01*
X3940Y3531D02*
G75*
G02X4033I46D01*
G01*
G75*
G02X3940I-46*
G01*
X3980Y1813D02*
G75*
G02X4035I28D01*
G01*
G75*
G02X3980I-28*
G01*
X4000Y2033D02*
G75*
G02X4055I28D01*
G01*
G75*
G02X4000I-28*
G01*
X4031Y258D02*
G75*
G02X4114I42D01*
G01*
G75*
G02X4031I-42*
G01*
X4113Y2181D02*
G75*
G02X4168I28D01*
G01*
G75*
G02X4113I-28*
G01*
Y2546D02*
G75*
G02X4168I28D01*
G01*
G75*
G02X4113I-28*
G01*
X4131Y258D02*
G75*
G02X4214I42D01*
G01*
G75*
G02X4131I-42*
G01*
X4156Y896D02*
Y1363D01*
G75*
G02X4161Y1374I17J0*
G01*
X4200Y1414*
G75*
G02X4200Y1418I27J4*
G01*
G75*
G02X4255I28*
G01*
G75*
G02X4224Y1390I-28*
G01*
X4189Y1356*
Y896*
G75*
G02X4214Y858I-17J-38*
G01*
G75*
G02X4131I-42*
G01*
G75*
G02X4156Y896I42*
G01*
X4164Y3581D02*
G75*
G02X4362I99D01*
G01*
G75*
G02X4164I-99*
G01*
X4231Y258D02*
G75*
G02X4314I42D01*
G01*
G75*
G02X4231I-42*
G01*
Y858D02*
G75*
G02X4314I42D01*
G01*
G75*
G02X4231I-42*
G01*
X4293Y1411D02*
G75*
G02X4348I28D01*
G01*
G75*
G02X4293I-28*
G01*
X4327Y2221D02*
G75*
G02X4384I29D01*
G01*
G75*
G02X4327I-29*
G01*
X4331Y258D02*
G75*
G02X4414I42D01*
G01*
G75*
G02X4331I-42*
G01*
Y858D02*
G75*
G02X4414I42D01*
G01*
G75*
G02X4331I-42*
G01*
X4353Y1556D02*
G75*
G02X4408I28D01*
G01*
G75*
G02X4353I-28*
G01*
X4388Y1686D02*
G75*
G02X4443I28D01*
G01*
G75*
G02X4388I-28*
G01*
X4414Y1838D02*
Y1871D01*
G75*
G02X4418Y1882I17J0*
G01*
X4484Y1947*
Y2220*
G75*
G02X4438Y2241I-19J20*
G01*
G75*
G02X4484Y2261I28*
G01*
Y2314*
G75*
G02X4473Y2336I17J22*
G01*
G75*
G02X4523Y2351I28*
G01*
G75*
G02X4573Y2336I23J-16*
G01*
G75*
G02X4559Y2312I-28*
G01*
Y2284*
G75*
G02X4566Y2295I26J-9*
G01*
Y2305*
G75*
G02X4572Y2319I19*
G01*
X4599Y2346*
G75*
G02X4613Y2352I13J-13*
G01*
X4835*
X4914Y2430*
Y2671*
G75*
G02X4912Y2691I19J12*
G01*
Y3322*
G75*
G02X4918Y3337I21J0*
G01*
X4953Y3372*
G75*
G02X4968Y3379I15J-14*
G01*
X4980*
Y3399*
X5063*
Y3382*
X5085*
X5132Y3428*
Y3500*
G75*
G02X5050Y3531I-35J31*
G01*
G75*
G02X5132Y3561I46*
G01*
Y3588*
G75*
G02X5104Y3631I19J42*
G01*
G75*
G02X5197I46*
G01*
G75*
G02X5170Y3588I-46*
G01*
Y3561*
G75*
G02X5238Y3563I35J-31*
G01*
Y3589*
G75*
G02X5212Y3631I21J42*
G01*
G75*
G02X5305I46*
G01*
G75*
G02X5279Y3589I-46*
G01*
Y3563*
G75*
G02X5359Y3531I33J-32*
G01*
G75*
G02X5279Y3498I-46*
G01*
Y3399*
X5299*
Y3316*
X5216*
Y3399*
X5238*
Y3498*
G75*
G02X5170Y3500I-33J32*
G01*
Y3421*
G75*
G02X5164Y3407I-19*
G01*
X5106Y3349*
G75*
G02X5093Y3344I-13J13*
G01*
X5063*
Y3316*
X4980*
Y3337*
X4976*
X4953Y3314*
Y2691*
G75*
G02X4952Y2671I-21J-8*
G01*
Y2422*
G75*
G02X4946Y2409I-19*
G01*
X4856Y2319*
G75*
G02X4843Y2313I-13J13*
G01*
X4620*
X4604Y2297*
Y2295*
G75*
G02X4608Y2291I-19J-20*
G01*
G75*
G02X4650Y2295I22J-16*
G01*
X4863*
X5004Y2435*
Y2683*
G75*
G02X4995Y2703I19J20*
G01*
G75*
G02X5050I28*
G01*
G75*
G02X5042Y2683I-28*
G01*
Y2428*
G75*
G02X5036Y2414I-19*
G01*
X4884Y2262*
G75*
G02X4871Y2257I-13J13*
G01*
X4650*
G75*
G02X4608Y2260I-20J19*
G01*
G75*
G02X4559Y2267I-23J16*
G01*
Y2238*
G75*
G02X4558Y2232I-16J0*
G01*
G75*
G02X4608Y2216I22J-16*
G01*
G75*
G02X4597Y2194I-28*
G01*
Y1871*
G75*
G02X4592Y1859I-17J0*
G01*
X4552Y1819*
G75*
G02X4503Y1800I-27J-4*
G01*
G75*
G02X4455Y1804I-23J16*
G01*
G75*
G02X4403Y1816I-25J11*
G01*
G75*
G02X4414Y1838I28*
G01*
X4431Y258D02*
G75*
G02X4514I42D01*
G01*
G75*
G02X4431I-42*
G01*
Y858D02*
G75*
G02X4514I42D01*
G01*
G75*
G02X4431I-42*
G01*
X4531Y258D02*
G75*
G02X4614I42D01*
G01*
G75*
G02X4531I-42*
G01*
Y858D02*
G75*
G02X4614I42D01*
G01*
G75*
G02X4531I-42*
G01*
X4613Y1816D02*
G75*
G02X4668I28D01*
G01*
G75*
G02X4613I-28*
G01*
X4614Y3581D02*
G75*
G02X4812I99D01*
G01*
G75*
G02X4614I-99*
G01*
X4631Y258D02*
G75*
G02X4714I42D01*
G01*
G75*
G02X4631I-42*
G01*
Y858D02*
G75*
G02X4714I42D01*
G01*
G75*
G02X4631I-42*
G01*
X4731Y258D02*
G75*
G02X4814I42D01*
G01*
G75*
G02X4731I-42*
G01*
Y858D02*
G75*
G02X4814I42D01*
G01*
G75*
G02X4731I-42*
G01*
X4773Y1811D02*
G75*
G02X4828I28D01*
G01*
G75*
G02X4773I-28*
G01*
X4793Y2026D02*
G75*
G02X4848I28D01*
G01*
G75*
G02X4793I-28*
G01*
X4831Y258D02*
G75*
G02X4914I42D01*
G01*
G75*
G02X4831I-42*
G01*
Y858D02*
G75*
G02X4914I42D01*
G01*
G75*
G02X4831I-42*
G01*
X4931Y258D02*
G75*
G02X5014I42D01*
G01*
G75*
G02X4931I-42*
G01*
Y858D02*
G75*
G02X5014I42D01*
G01*
G75*
G02X4931I-42*
G01*
X4942Y3531D02*
G75*
G02X5035I46D01*
G01*
G75*
G02X4942I-46*
G01*
X4996Y3631D02*
G75*
G02X5089I46D01*
G01*
G75*
G02X4996I-46*
G01*
X5031Y258D02*
G75*
G02X5114I42D01*
G01*
G75*
G02X5031I-42*
G01*
Y858D02*
G75*
G02X5114I42D01*
G01*
G75*
G02X5031I-42*
G01*
X5063Y3216D02*
X4980D01*
Y3299*
X5063*
Y3216*
X5130Y258D02*
G75*
G02X5215I43D01*
G01*
G75*
G02X5130I-43*
G01*
X5131Y858D02*
G75*
G02X5214I42D01*
G01*
G75*
G02X5131I-42*
G01*
X5299Y3216D02*
X5216D01*
Y3299*
X5299*
Y3216*
X5320Y3631D02*
G75*
G02X5413I46D01*
G01*
G75*
G02X5320I-46*
G01*
X5363Y472D02*
G75*
G02Y553J41D01*
G01*
G75*
G02Y472J-41*
G01*
X5374Y3531D02*
G75*
G02X5467I46D01*
G01*
G75*
G02X5374I-46*
G01*
X5435Y1760D02*
Y1839D01*
G75*
G02X5440Y1852I18J0*
G01*
X5458Y1870*
G75*
G02X5470Y1875I13J-13*
G01*
X5499*
Y1926*
X5578*
Y1919*
G75*
G02X5611Y1875I17J-22*
G01*
X5646*
G75*
G02X5677Y1920I17J22*
G01*
Y1926*
X5756*
Y1868*
X5723*
X5728Y1863*
G75*
G02X5735Y1849I-12J-14*
G01*
Y1847*
X5756*
Y1799*
G75*
G02X5802Y1780I19J-20*
G01*
G75*
G02X5769Y1753I-28*
G01*
G75*
G02X5769Y1752I-12J-13*
G01*
X5788Y1734*
G75*
G02X5793Y1721I-13J-13*
G01*
Y1720*
G75*
G02X5772Y1672I-18J-21*
G01*
X5788Y1656*
G75*
G02X5793Y1644I-13J-13*
G01*
Y1642*
G75*
G02X5775Y1594I-18J-21*
G01*
X5788Y1581*
G75*
G02X5793Y1569I-13J-13*
G01*
Y1563*
G75*
G02X5802Y1542I-18J-21*
G01*
G75*
G02X5756Y1523I-28*
G01*
Y1474*
X5677*
Y1480*
G75*
G02X5635Y1503I-15J23*
G01*
G75*
G02X5677Y1526I28*
G01*
Y1532*
X5749*
G75*
G02X5749Y1553I26J10*
G01*
X5677*
Y1611*
X5749*
G75*
G02X5750Y1632I26J10*
G01*
X5677*
Y1690*
X5749*
G75*
G02X5750Y1710I26J10*
G01*
X5677*
Y1762*
X5658*
X5623Y1727*
G75*
G02X5610Y1721I-13J13*
G01*
X5578*
Y1710*
X5499*
Y1769*
X5578*
Y1758*
X5603*
X5637Y1792*
G75*
G02X5650Y1798I13J-13*
G01*
X5677*
Y1839*
X5578*
Y1789*
X5499*
Y1792*
G75*
G02X5471Y1793I-14J24*
G01*
Y1761*
G75*
G02X5481Y1740I-18J-21*
G01*
G75*
G02X5426I-28*
G01*
G75*
G02X5435Y1760I27*
G01*
X5438Y195D02*
G75*
G02Y140J-28D01*
G01*
G75*
G02Y195J28*
G01*
Y286D02*
G75*
G02Y229J-29D01*
G01*
G75*
G02Y286J29*
G01*
X5463Y577D02*
G75*
G02Y658J41D01*
G01*
G75*
G02Y577J-41*
G01*
X5479Y278D02*
G75*
G02X5777I149D01*
G01*
G75*
G02X5479I-149*
G01*
Y3203D02*
G75*
G02X5777I149D01*
G01*
G75*
G02X5479I-149*
G01*
X5487Y1446D02*
X5499D01*
Y1454*
X5578*
Y1396*
X5499*
Y1403*
X5492*
G75*
G02X5445Y1423I-19J19*
G01*
G75*
G02X5487Y1446I28*
G01*
X5487Y1244D02*
G75*
G02X5445Y1268I-15J23D01*
G01*
G75*
G02X5487Y1291I28*
G01*
X5499*
Y1296*
X5578*
Y1289*
X5677*
Y1296*
X5755*
G75*
G02X5822Y1268I27J-29*
G01*
G75*
G02X5756Y1239I-40*
G01*
Y1238*
X5677*
Y1246*
X5578*
Y1238*
X5499*
Y1244*
X5487*
X5495Y924D02*
G75*
G02X5428Y953I-27J28D01*
G01*
G75*
G02X5496Y980I40*
G01*
X5499*
Y981*
X5532*
G75*
G02X5545I6J-29*
G01*
X5578*
Y979*
X5677*
Y981*
X5710*
G75*
G02X5723I6J-29*
G01*
X5755*
G75*
G02X5822Y953I27J-29*
G01*
G75*
G02X5756Y924I-40*
G01*
Y923*
X5723*
G75*
G02X5710I-6J29*
G01*
X5677*
Y926*
X5578*
Y923*
X5545*
G75*
G02X5532I-6J29*
G01*
X5499*
Y924*
X5495*
X5499Y821D02*
Y824D01*
X5532*
G75*
G02X5545I6J-29*
G01*
X5578*
Y821*
X5677*
Y824*
X5710*
G75*
G02X5723I6J-29*
G01*
X5756*
Y821*
G75*
G02X5822Y793I27J-29*
G01*
G75*
G02X5754Y766I-40*
G01*
X5723*
G75*
G02X5710I-6J29*
G01*
X5677*
Y768*
X5578*
Y766*
X5545*
G75*
G02X5532I-6J29*
G01*
X5501*
G75*
G02X5433Y793I-29J27*
G01*
G75*
G02X5499Y821I40*
G01*
Y901D02*
Y902D01*
X5578*
Y895*
X5677*
Y902*
X5756*
Y901*
G75*
G02X5822Y873I27J-29*
G01*
G75*
G02X5755Y844I-40*
G01*
X5677*
Y852*
X5578*
Y844*
X5500*
G75*
G02X5433Y873I-28J28*
G01*
G75*
G02X5499Y901I40*
G01*
Y1004D02*
G75*
G02X5433Y1033I-27J29D01*
G01*
G75*
G02X5501Y1060I40*
G01*
X5578*
Y1052*
X5677*
Y1060*
X5754*
G75*
G02X5822Y1033I28J-27*
G01*
G75*
G02X5756Y1004I-40*
G01*
Y1002*
X5677*
Y1009*
X5578*
Y1002*
X5499*
Y1004*
Y2499D02*
G75*
G02X5433Y2528I-27J29D01*
G01*
G75*
G02X5500Y2556I40*
G01*
X5578*
Y2548*
X5677*
Y2556*
X5755*
G75*
G02X5822Y2528I27J-28*
G01*
G75*
G02X5756Y2499I-40*
G01*
Y2498*
X5677*
Y2505*
X5578*
Y2498*
X5499*
Y2499*
Y2711D02*
Y2713D01*
X5578*
Y2706*
X5677*
Y2713*
X5756*
Y2711*
G75*
G02X5822Y2683I27J-29*
G01*
G75*
G02X5754Y2655I-40*
G01*
X5677*
Y2663*
X5578*
Y2655*
X5501*
G75*
G02X5433Y2683I-29J27*
G01*
G75*
G02X5499Y2711I40*
G01*
X5578Y1088D02*
Y1081D01*
X5499*
Y1139*
X5578*
Y1131*
G75*
G02X5622Y1109I17J-22*
G01*
G75*
G02X5578Y1088I-28*
G01*
Y1165D02*
Y1159D01*
X5499*
Y1217*
X5578*
Y1211*
G75*
G02X5620Y1188I15J-23*
G01*
G75*
G02X5578Y1165I-28*
G01*
Y1322D02*
Y1317D01*
X5499*
Y1375*
X5578*
Y1368*
G75*
G02X5620Y1345I15J-23*
G01*
G75*
G02X5578Y1322I-28*
G01*
Y1482D02*
Y1474D01*
X5499*
Y1532*
X5578*
Y1523*
G75*
G02X5623Y1503I18J-21*
G01*
G75*
G02X5578Y1482I-28*
G01*
Y1564D02*
Y1553D01*
X5499*
Y1611*
X5578*
Y1600*
X5607*
G75*
G02X5655Y1582I21J-18*
G01*
G75*
G02X5607Y1564I-28*
G01*
X5578*
Y1643D02*
Y1632D01*
X5499*
Y1690*
X5578*
Y1679*
X5608*
G75*
G02X5657Y1661I21J-18*
G01*
G75*
G02X5608Y1643I-28*
G01*
X5578*
Y1953D02*
Y1947D01*
X5499*
Y2005*
X5578*
Y1998*
G75*
G02X5620Y1976I15J-23*
G01*
G75*
G02X5578Y1953I-28*
G01*
Y2031D02*
Y2025D01*
X5499*
Y2083*
X5578*
Y2077*
G75*
G02X5620Y2054I15J-23*
G01*
G75*
G02X5578Y2031I-28*
G01*
Y2110D02*
Y2104D01*
X5499*
Y2162*
X5578*
Y2156*
G75*
G02X5620Y2133I15J-23*
G01*
G75*
G02X5578Y2110I-28*
G01*
Y2189D02*
Y2183D01*
X5499*
Y2241*
X5578*
Y2236*
G75*
G02X5619Y2213I14J-24*
G01*
G75*
G02X5578Y2189I-28*
G01*
Y2268D02*
Y2262D01*
X5499*
Y2320*
X5578*
Y2314*
G75*
G02X5620Y2291I15J-23*
G01*
G75*
G02X5578Y2268I-28*
G01*
Y2344D02*
Y2340D01*
X5499*
Y2398*
X5578*
Y2393*
G75*
G02X5618Y2369I13J-24*
G01*
G75*
G02X5578Y2344I-28*
G01*
Y2425D02*
Y2419D01*
X5499*
Y2477*
X5578*
Y2472*
G75*
G02X5619Y2449I14J-24*
G01*
G75*
G02X5578Y2425I-28*
G01*
Y2583D02*
Y2577D01*
X5499*
Y2635*
X5578*
Y2629*
G75*
G02X5620Y2606I15J-23*
G01*
G75*
G02X5578Y2583I-28*
G01*
X5598Y3581D02*
G75*
G02X5796I99D01*
G01*
G75*
G02X5598I-99*
G01*
X5677Y1086D02*
G75*
G02X5635Y1110I-15J23D01*
G01*
G75*
G02X5677Y1133I28*
G01*
Y1139*
X5756*
Y1081*
X5677*
Y1086*
Y1165D02*
G75*
G02X5635Y1188I-15J23D01*
G01*
G75*
G02X5677Y1211I28*
G01*
Y1217*
X5756*
Y1159*
X5677*
Y1165*
Y1401D02*
G75*
G02X5635Y1425I-15J23D01*
G01*
G75*
G02X5677Y1448I28*
G01*
Y1454*
X5756*
Y1396*
X5677*
Y1401*
Y1953D02*
G75*
G02X5635Y1976I-15J23D01*
G01*
G75*
G02X5677Y1999I28*
G01*
Y2005*
X5756*
Y1947*
X5677*
Y1953*
Y2031D02*
G75*
G02X5635Y2054I-15J23D01*
G01*
G75*
G02X5677Y2078I28*
G01*
Y2083*
X5756*
Y2025*
X5677*
Y2031*
Y2110D02*
G75*
G02X5635Y2133I-15J23D01*
G01*
G75*
G02X5677Y2156I28*
G01*
Y2162*
X5756*
Y2104*
X5677*
Y2110*
Y2189D02*
G75*
G02X5635Y2212I-15J23D01*
G01*
G75*
G02X5677Y2235I28*
G01*
Y2241*
X5756*
Y2183*
X5677*
Y2189*
Y2268D02*
G75*
G02X5635Y2291I-15J23D01*
G01*
G75*
G02X5677Y2314I28*
G01*
Y2320*
X5756*
Y2262*
X5677*
Y2268*
Y2346D02*
G75*
G02X5635Y2369I-15J23D01*
G01*
G75*
G02X5677Y2393I28*
G01*
Y2398*
X5756*
Y2340*
X5677*
Y2346*
Y2425D02*
G75*
G02X5635Y2448I-15J23D01*
G01*
G75*
G02X5677Y2471I28*
G01*
Y2477*
X5756*
Y2419*
X5677*
Y2425*
Y2583D02*
G75*
G02X5635Y2606I-15J23D01*
G01*
G75*
G02X5677Y2629I28*
G01*
Y2635*
X5756*
Y2577*
X5677*
Y2583*
X5754Y1375D02*
G75*
G02X5822Y1348I29J-27D01*
G01*
G75*
G02X5756Y1319I-40*
G01*
Y1317*
X5677*
Y1375*
X5754*
X58Y3468D02*
G36*
Y3413D01*
X539*
X526Y3425*
G75*
G02X495Y3453I-4J27*
G01*
G75*
G02X499Y3468I28J0*
G01*
X126*
G75*
G02X69I-29*
G01*
X58*
G37*
X69D02*
G36*
G75*
G02X126I29D01*
G01*
X499*
G75*
G02X546I23J-15*
G01*
X1240*
X1237Y3471*
X1176*
G75*
G02X1149I-13J27*
G01*
X615*
G75*
G02X580Y3498I-7J27*
G01*
G75*
G02X615Y3524I28*
G01*
X1149*
G75*
G02X1176I13J-27*
G01*
X1248*
G75*
G02X1266Y3516I0J-27*
G01*
X1315Y3468*
X3680*
X3698Y3485*
Y3500*
G75*
G02X3616Y3531I-35J31*
G01*
X3601*
G75*
G02X3508I-46*
G01*
X3364*
G75*
G02X3193I-85J50*
G01*
X58*
Y3468*
X69*
G37*
X546D02*
G36*
G75*
G02X550Y3453I-23J-15D01*
G01*
G75*
G02X550Y3449I-28J0*
G01*
X579Y3419*
X873*
G75*
G02X884Y3414I0J-17*
G01*
X886Y3413*
X1295*
X1240Y3468*
X546*
G37*
X1315D02*
G36*
X1370Y3413D01*
X2888*
G75*
G02X2928Y3452I40*
G01*
G75*
G02X2967Y3413J-40*
G01*
X3625*
X3680Y3468*
X1315*
G37*
X3844D02*
G36*
Y3413D01*
X5116*
X5132Y3428*
Y3468*
X3844*
G37*
X5132D02*
G36*
Y3500D01*
G75*
G02X5050Y3531I-35J31*
G01*
X5035*
G75*
G02X4942I-46*
G01*
X4798*
G75*
G02X4627I-85J50*
G01*
X4348*
G75*
G02X4177I-85J50*
G01*
X4033*
G75*
G02X3940I-46*
G01*
X3925*
G75*
G02X3844Y3500I-46*
G01*
Y3468*
X5132*
G37*
X5279D02*
G36*
Y3413D01*
X5848*
Y3468*
X5279*
G37*
X5848D02*
G36*
Y3531D01*
X5782*
G75*
G02X5611I-85J50*
G01*
X5467*
G75*
G02X5374I-46*
G01*
X5359*
G75*
G02X5279Y3498I-46*
G01*
Y3468*
X5848*
G37*
X58Y278D02*
G36*
Y168D01*
X177*
G75*
G02X129Y278I101J110*
G01*
X58*
G37*
X129D02*
G36*
G75*
G02X139Y333I149J0D01*
G01*
X58*
Y278*
X129*
G37*
X427D02*
G36*
G75*
G02X378Y168I-149D01*
G01*
X5410*
G75*
G02X5438Y195I28*
G01*
G75*
G02X5465Y168J-28*
G01*
X5527*
G75*
G02X5479Y278I101J110*
G01*
X5458*
G75*
G02X5438Y229I-20J-20*
G01*
G75*
G02X5417Y278J29*
G01*
X5210*
G75*
G02X5215Y258I-38J-20*
G01*
G75*
G02X5130I-43*
G01*
G75*
G02X5135Y278I43*
G01*
X5109*
G75*
G02X5114Y258I-36J-20*
G01*
G75*
G02X5031I-42*
G01*
G75*
G02X5036Y278I42*
G01*
X5009*
G75*
G02X5014Y258I-36J-20*
G01*
G75*
G02X4931I-42*
G01*
G75*
G02X4936Y278I42*
G01*
X4909*
G75*
G02X4914Y258I-36J-20*
G01*
G75*
G02X4831I-42*
G01*
G75*
G02X4836Y278I42*
G01*
X4809*
G75*
G02X4814Y258I-36J-20*
G01*
G75*
G02X4731I-42*
G01*
G75*
G02X4736Y278I42*
G01*
X4709*
G75*
G02X4714Y258I-36J-20*
G01*
G75*
G02X4631I-42*
G01*
G75*
G02X4636Y278I42*
G01*
X4609*
G75*
G02X4614Y258I-36J-20*
G01*
G75*
G02X4531I-42*
G01*
G75*
G02X4536Y278I42*
G01*
X4509*
G75*
G02X4514Y258I-36J-20*
G01*
G75*
G02X4431I-42*
G01*
G75*
G02X4436Y278I42*
G01*
X4409*
G75*
G02X4414Y258I-36J-20*
G01*
G75*
G02X4331I-42*
G01*
G75*
G02X4336Y278I42*
G01*
X4309*
G75*
G02X4314Y258I-36J-20*
G01*
G75*
G02X4231I-42*
G01*
G75*
G02X4236Y278I42*
G01*
X4209*
G75*
G02X4214Y258I-36J-20*
G01*
G75*
G02X4131I-42*
G01*
G75*
G02X4136Y278I42*
G01*
X4109*
G75*
G02X4114Y258I-36J-20*
G01*
G75*
G02X4031I-42*
G01*
G75*
G02X4036Y278I42*
G01*
X4009*
G75*
G02X4014Y258I-36J-20*
G01*
G75*
G02X3931I-42*
G01*
G75*
G02X3936Y278I42*
G01*
X3909*
G75*
G02X3914Y258I-36J-20*
G01*
G75*
G02X3831I-42*
G01*
G75*
G02X3836Y278I42*
G01*
X3809*
G75*
G02X3814Y258I-36J-20*
G01*
G75*
G02X3731I-42*
G01*
G75*
G02X3736Y278I42*
G01*
X3709*
G75*
G02X3714Y258I-36J-20*
G01*
G75*
G02X3631I-42*
G01*
G75*
G02X3636Y278I42*
G01*
X3609*
G75*
G02X3614Y258I-36J-20*
G01*
G75*
G02X3531I-42*
G01*
G75*
G02X3536Y278I42*
G01*
X3509*
G75*
G02X3514Y258I-36J-20*
G01*
G75*
G02X3431I-42*
G01*
G75*
G02X3436Y278I42*
G01*
X3409*
G75*
G02X3414Y258I-36J-20*
G01*
G75*
G02X3331I-42*
G01*
G75*
G02X3336Y278I42*
G01*
X3309*
G75*
G02X3314Y258I-36J-20*
G01*
G75*
G02X3231I-42*
G01*
G75*
G02X3236Y278I42*
G01*
X3209*
G75*
G02X3214Y258I-36J-20*
G01*
G75*
G02X3131I-42*
G01*
G75*
G02X3136Y278I42*
G01*
X3109*
G75*
G02X3114Y258I-36J-20*
G01*
G75*
G02X3031I-42*
G01*
G75*
G02X3036Y278I42*
G01*
X3009*
G75*
G02X3014Y258I-36J-20*
G01*
G75*
G02X2931I-42*
G01*
G75*
G02X2936Y278I42*
G01*
X2909*
G75*
G02X2914Y258I-36J-20*
G01*
G75*
G02X2831I-42*
G01*
G75*
G02X2836Y278I42*
G01*
X2043*
G75*
G02X2057Y248I-26J-30*
G01*
G75*
G02X1978I-40*
G01*
G75*
G02X1992Y278I40*
G01*
X1793*
G75*
G02X1807Y248I-26J-30*
G01*
G75*
G02X1728I-40*
G01*
G75*
G02X1742Y278I40*
G01*
X1046*
G75*
G02X1067Y243I-18J-35*
G01*
G75*
G02X988I-40*
G01*
G75*
G02X1009Y278I40*
G01*
X793*
G75*
G02X807Y248I-26J-30*
G01*
G75*
G02X728I-40*
G01*
G75*
G02X742Y278I40*
G01*
X427*
G37*
X742D02*
G36*
G75*
G02X793I26J-30D01*
G01*
X1009*
G75*
G02X1046I18J-35*
G01*
X1742*
G75*
G02X1793I26J-30*
G01*
X1992*
G75*
G02X2043I26J-30*
G01*
X2836*
G75*
G02X2909I36J-20*
G01*
X2936*
G75*
G02X3009I36J-20*
G01*
X3036*
G75*
G02X3109I36J-20*
G01*
X3136*
G75*
G02X3209I36J-20*
G01*
X3236*
G75*
G02X3309I36J-20*
G01*
X3336*
G75*
G02X3409I36J-20*
G01*
X3436*
G75*
G02X3509I36J-20*
G01*
X3536*
G75*
G02X3609I36J-20*
G01*
X3636*
G75*
G02X3709I36J-20*
G01*
X3736*
G75*
G02X3809I36J-20*
G01*
X3836*
G75*
G02X3909I36J-20*
G01*
X3936*
G75*
G02X4009I36J-20*
G01*
X4036*
G75*
G02X4109I36J-20*
G01*
X4136*
G75*
G02X4209I36J-20*
G01*
X4236*
G75*
G02X4309I36J-20*
G01*
X4336*
G75*
G02X4409I36J-20*
G01*
X4436*
G75*
G02X4509I36J-20*
G01*
X4536*
G75*
G02X4609I36J-20*
G01*
X4636*
G75*
G02X4709I36J-20*
G01*
X4736*
G75*
G02X4809I36J-20*
G01*
X4836*
G75*
G02X4909I36J-20*
G01*
X4936*
G75*
G02X5009I36J-20*
G01*
X5036*
G75*
G02X5109I36J-20*
G01*
X5135*
G75*
G02X5210I38J-20*
G01*
X5417*
G75*
G02X5438Y286I20J-20*
G01*
G75*
G02X5458Y278J-29*
G01*
X5479*
G75*
G02X5489Y333I149J0*
G01*
X2313*
G75*
G02X2232I-40J5*
G01*
X1313*
G75*
G02X1232I-41*
G01*
X416*
G75*
G02X427Y278I-138J-55*
G01*
X742*
G37*
X5777D02*
G36*
G75*
G02X5728Y168I-149D01*
G01*
X5848*
Y278*
X5777*
G37*
X5848D02*
G36*
Y333D01*
X5766*
G75*
G02X5777Y278I-138J-55*
G01*
X5848*
G37*
X58Y3203D02*
G36*
Y3133D01*
X146*
G75*
G02X129Y3203I132J70*
G01*
X58*
G37*
X129D02*
G36*
G75*
G02X152Y3283I149D01*
G01*
X58*
Y3203*
X129*
G37*
X427D02*
G36*
G75*
G02X409Y3133I-149J0D01*
G01*
X886*
Y3203*
X427*
G37*
X886D02*
G36*
Y3283D01*
X625*
G75*
G02X570I-28*
G01*
X403*
G75*
G02X427Y3203I-126J-80*
G01*
X886*
G37*
X919D02*
G36*
Y3133D01*
X935*
G75*
G02X990I28*
G01*
X1490*
G75*
G02X1490Y3138I27J5*
G01*
G75*
G02X1545I28*
G01*
G75*
G02X1545Y3133I-28J0*
G01*
X1575*
X1505Y3203*
X919*
G37*
X1505D02*
G36*
X1425Y3283D01*
X1190*
G75*
G02X1135I-27J5*
G01*
X919*
Y3203*
X1505*
G37*
X1580D02*
G36*
X1633Y3149D01*
X2069*
G75*
G02X2103Y3167I33J-22*
G01*
G75*
G02X2142Y3133J-40*
G01*
X2235*
X2305Y3203*
X1580*
G37*
X2305D02*
G36*
X2364Y3261D01*
G75*
G02X2383Y3269I19J-19*
G01*
X2773*
G75*
G02X2803Y3282I29J-27*
G01*
G75*
G02Y3203J-40*
G01*
G75*
G02X2773Y3216J40*
G01*
X2393*
X2380Y3203*
X3669*
Y3283*
X3640*
Y3218*
X3557*
Y3283*
X1500*
X1580Y3203*
X2305*
G37*
X2380D02*
G36*
X2310Y3133D01*
X3669*
Y3203*
X2380*
G37*
X3707D02*
G36*
Y3133D01*
X4912*
Y3203*
X3707*
G37*
X4912D02*
G36*
Y3283D01*
X3869*
Y3216*
X3786*
Y3283*
X3707*
Y3203*
X4912*
G37*
X4953D02*
G36*
Y3133D01*
X5496*
G75*
G02X5479Y3203I132J70*
G01*
X4953*
G37*
X5479D02*
G36*
G75*
G02X5502Y3283I149D01*
G01*
X5299*
Y3216*
X5216*
Y3283*
X5063*
Y3216*
X4980*
Y3283*
X4953*
Y3203*
X5479*
G37*
X5777D02*
G36*
G75*
G02X5759Y3133I-149J0D01*
G01*
X5848*
Y3203*
X5777*
G37*
X5848D02*
G36*
Y3283D01*
X5753*
G75*
G02X5777Y3203I-126J-80*
G01*
X5848*
G37*
X58Y3728D02*
G36*
Y3631D01*
X644*
G75*
G02X688Y3728I58J32*
G01*
X285*
G75*
G02X230I-28*
G01*
X58*
G37*
X230D02*
G36*
G75*
G02X285I28D01*
G01*
X688*
G75*
G02X703Y3729I14J-65*
G01*
G75*
G02X717Y3728J-66*
G01*
X758*
G75*
G02X803Y3819I44J35*
G01*
G75*
G02X847Y3728J-57*
G01*
X888*
G75*
G02X903Y3729I14J-65*
G01*
G75*
G02X917Y3728J-66*
G01*
X1238*
G75*
G02X1252Y3729I14J-65*
G01*
G75*
G02X1267Y3728J-66*
G01*
X1308*
G75*
G02X1353Y3819I44J35*
G01*
G75*
G02X1397Y3728J-57*
G01*
X1438*
G75*
G02X1453Y3729I14J-65*
G01*
G75*
G02X1467Y3728J-66*
G01*
X1788*
G75*
G02X1803Y3729I14J-65*
G01*
G75*
G02X1817Y3728J-66*
G01*
X1858*
G75*
G02X1903Y3819I44J35*
G01*
G75*
G02X1947Y3728J-57*
G01*
X1988*
G75*
G02X2003Y3729I14J-65*
G01*
G75*
G02X2017Y3728J-66*
G01*
X2238*
G75*
G02X2253Y3729I14J-65*
G01*
G75*
G02X2267Y3728J-66*
G01*
X2308*
G75*
G02X2353Y3819I44J35*
G01*
G75*
G02X2397Y3728J-57*
G01*
X2438*
G75*
G02X2453Y3729I14J-65*
G01*
G75*
G02X2467Y3728J-66*
G01*
X2688*
G75*
G02X2703Y3729I14J-65*
G01*
G75*
G02X2717Y3728J-66*
G01*
X2758*
G75*
G02X2803Y3819I44J35*
G01*
G75*
G02X2847Y3728J-57*
G01*
X2888*
G75*
G02X2903Y3729I14J-65*
G01*
G75*
G02X2917Y3728J-66*
G01*
X5848*
Y3898*
X2959*
G75*
G02X2903Y3796I-57J-35*
G01*
G75*
G02X2846Y3898J67*
G01*
X2759*
G75*
G02X2703Y3796I-57J-35*
G01*
G75*
G02X2646Y3898J67*
G01*
X2509*
G75*
G02X2453Y3796I-57J-35*
G01*
G75*
G02X2396Y3898J67*
G01*
X2309*
G75*
G02X2253Y3796I-57J-35*
G01*
G75*
G02X2196Y3898J67*
G01*
X2059*
G75*
G02X2003Y3796I-57J-35*
G01*
G75*
G02X1946Y3898J67*
G01*
X1859*
G75*
G02X1803Y3796I-57J-35*
G01*
G75*
G02X1746Y3898J67*
G01*
X1509*
G75*
G02X1453Y3796I-57J-35*
G01*
G75*
G02X1396Y3898J67*
G01*
X1309*
G75*
G02X1252Y3796I-57J-35*
G01*
G75*
G02X1196Y3898J67*
G01*
X959*
G75*
G02X903Y3796I-57J-35*
G01*
G75*
G02X846Y3898J67*
G01*
X759*
G75*
G02X703Y3796I-57J-35*
G01*
G75*
G02X646Y3898J67*
G01*
X58*
Y3728*
X230*
G37*
X717D02*
G36*
G75*
G02X761Y3631I-14J-65D01*
G01*
X844*
G75*
G02X888Y3728I58J32*
G01*
X847*
G75*
G02X803Y3706I-44J35*
G01*
G75*
G02X758Y3728J57*
G01*
X717*
G37*
X917D02*
G36*
G75*
G02X961Y3631I-14J-65D01*
G01*
X1194*
G75*
G02X1238Y3728I58J32*
G01*
X917*
G37*
X1267D02*
G36*
G75*
G02X1311Y3631I-14J-65D01*
G01*
X1394*
G75*
G02X1438Y3728I58J32*
G01*
X1397*
G75*
G02X1353Y3706I-44J35*
G01*
G75*
G02X1308Y3728J57*
G01*
X1267*
G37*
X1467D02*
G36*
G75*
G02X1511Y3631I-14J-65D01*
G01*
X1744*
G75*
G02X1788Y3728I58J32*
G01*
X1467*
G37*
X1817D02*
G36*
G75*
G02X1861Y3631I-14J-65D01*
G01*
X1944*
G75*
G02X1988Y3728I58J32*
G01*
X1947*
G75*
G02X1903Y3706I-44J35*
G01*
G75*
G02X1858Y3728J57*
G01*
X1817*
G37*
X2017D02*
G36*
G75*
G02X2061Y3631I-14J-65D01*
G01*
X2194*
G75*
G02X2238Y3728I58J32*
G01*
X2017*
G37*
X2267D02*
G36*
G75*
G02X2311Y3631I-14J-65D01*
G01*
X2394*
G75*
G02X2438Y3728I58J32*
G01*
X2397*
G75*
G02X2353Y3706I-44J35*
G01*
G75*
G02X2308Y3728J57*
G01*
X2267*
G37*
X2467D02*
G36*
G75*
G02X2511Y3631I-14J-65D01*
G01*
X2644*
G75*
G02X2688Y3728I58J32*
G01*
X2467*
G37*
X2717D02*
G36*
G75*
G02X2761Y3631I-14J-65D01*
G01*
X2844*
G75*
G02X2888Y3728I58J32*
G01*
X2847*
G75*
G02X2803Y3706I-44J35*
G01*
G75*
G02X2758Y3728J57*
G01*
X2717*
G37*
X2917D02*
G36*
G75*
G02X2961Y3631I-14J-65D01*
G01*
X3193*
G75*
G02X3364I85J-50*
G01*
X3562*
G75*
G02X3655I46*
G01*
X3670*
G75*
G02X3763I46*
G01*
G75*
G02X3736Y3588I-46*
G01*
Y3561*
G75*
G02X3806I35J-31*
G01*
Y3588*
G75*
G02X3778Y3631I19J42*
G01*
G75*
G02X3871I46*
G01*
X3886*
G75*
G02X3979I46*
G01*
X4177*
G75*
G02X4348I85J-50*
G01*
X4627*
G75*
G02X4798I85J-50*
G01*
X4996*
G75*
G02X5089I46*
G01*
X5104*
G75*
G02X5197I46*
G01*
G75*
G02X5170Y3588I-46*
G01*
Y3561*
G75*
G02X5238Y3563I35J-31*
G01*
Y3589*
G75*
G02X5212Y3631I21J42*
G01*
G75*
G02X5305I46*
G01*
X5320*
G75*
G02X5413I46*
G01*
X5611*
G75*
G02X5782I85J-50*
G01*
X5848*
Y3728*
X2917*
G37*
X58Y928D02*
G36*
Y858D01*
X2831*
G75*
G02X2914I42*
G01*
X2931*
G75*
G02X3014I42*
G01*
X3031*
G75*
G02X3114I42*
G01*
X3131*
G75*
G02X3214I42*
G01*
X3231*
G75*
G02X3314I42*
G01*
X3331*
G75*
G02X3414I42*
G01*
X3431*
G75*
G02X3514I42*
G01*
X3531*
G75*
G02X3614I42*
G01*
X3631*
G75*
G02X3714I42*
G01*
X3731*
G75*
G02X3814I42*
G01*
X3831*
G75*
G02X3914I42*
G01*
X3931*
G75*
G02X4014I42*
G01*
X4031*
G75*
G02X4056Y896I42*
G01*
Y928*
X455*
G75*
G02X400I-28*
G01*
X365*
G75*
G02X310I-28*
G01*
X58*
G37*
X310D02*
G36*
G75*
G02X365I28D01*
G01*
X400*
G75*
G02X455I28*
G01*
X4056*
Y1033*
X58*
Y928*
X310*
G37*
X4089D02*
G36*
Y896D01*
G75*
G02X4114Y858I-17J-38*
G01*
X4131*
G75*
G02X4156Y896I42*
G01*
Y928*
X4089*
G37*
X4156D02*
G36*
Y1033D01*
X4089*
Y928*
X4156*
G37*
X4189D02*
G36*
Y896D01*
G75*
G02X4214Y858I-17J-38*
G01*
X4231*
G75*
G02X4314I42*
G01*
X4331*
G75*
G02X4414I42*
G01*
X4431*
G75*
G02X4514I42*
G01*
X4531*
G75*
G02X4614I42*
G01*
X4631*
G75*
G02X4714I42*
G01*
X4731*
G75*
G02X4814I42*
G01*
X4831*
G75*
G02X4914I42*
G01*
X4931*
G75*
G02X5014I42*
G01*
X5031*
G75*
G02X5114I42*
G01*
X5131*
G75*
G02X5214I42*
G01*
X5436*
G75*
G02X5433Y873I37J15*
G01*
G75*
G02X5499Y901I40*
G01*
Y902*
X5578*
Y895*
X5677*
Y902*
X5756*
Y901*
G75*
G02X5822Y873I27J-29*
G01*
G75*
G02X5819Y858I-40J0*
G01*
X5848*
Y928*
X5813*
G75*
G02X5756Y924I-31J25*
G01*
Y923*
X5723*
G75*
G02X5710I-6J29*
G01*
X5677*
Y926*
X5578*
Y923*
X5545*
G75*
G02X5532I-6J29*
G01*
X5499*
Y924*
X5495*
G75*
G02X5437Y928I-27J28*
G01*
X4189*
G37*
X5437D02*
G36*
G75*
G02X5428Y953I31J25D01*
G01*
G75*
G02X5496Y980I40*
G01*
X5499*
Y981*
X5532*
G75*
G02X5545I6J-29*
G01*
X5578*
Y979*
X5677*
Y981*
X5710*
G75*
G02X5723I6J-29*
G01*
X5755*
G75*
G02X5822Y953I27J-29*
G01*
G75*
G02X5813Y928I-40*
G01*
X5848*
Y1033*
X5822*
G75*
G02X5756Y1004I-40*
G01*
Y1002*
X5677*
Y1009*
X5578*
Y1002*
X5499*
Y1004*
G75*
G02X5433Y1033I-27J29*
G01*
X4189*
Y928*
X5437*
G37*
X58Y2040D02*
G36*
Y1983D01*
X476*
Y2040*
X58*
G37*
X476D02*
G36*
Y2083D01*
X58*
Y2040*
X476*
G37*
X509D02*
G36*
Y1983D01*
X558*
G75*
G02X637I40*
G01*
X1269*
G75*
G02X1265Y1998I23J15*
G01*
G75*
G02X1296Y2025I28*
G01*
X1312Y2040*
X509*
G37*
X1312D02*
G36*
X1326Y2054D01*
G75*
G02X1338Y2059I12J-12*
G01*
X1368*
G75*
G02X1418Y2043I22J-17*
G01*
G75*
G02X1417Y2040I-28J0*
G01*
X3632*
X3674Y2083*
X1801*
G75*
G02X1764I-19J20*
G01*
X888*
G75*
G02X833I-28*
G01*
X509*
Y2040*
X1312*
G37*
X1417D02*
G36*
G75*
G02X1368Y2026I-27J3D01*
G01*
X1344*
X1320Y2001*
G75*
G02X1320Y1998I-27J-4*
G01*
G75*
G02X1316Y1983I-28J0*
G01*
X3621*
Y2023*
G75*
G02X3626Y2034I17J0*
G01*
X3632Y2040*
X1417*
G37*
X3753D02*
G36*
X3749Y2036D01*
Y1983*
X4484*
Y2040*
X4054*
G75*
G02X4055Y2033I-26J-8*
G01*
G75*
G02X4000I-28*
G01*
G75*
G02X4001Y2040I27J0*
G01*
X3753*
G37*
X4001D02*
G36*
G75*
G02X4054I26J-8D01*
G01*
X4484*
Y2083*
X3796*
X3753Y2040*
X4001*
G37*
X4597D02*
G36*
Y1983D01*
X5499*
Y2005*
X5578*
Y1998*
G75*
G02X5620Y1983I15J-23*
G01*
X5636*
G75*
G02X5677Y1999I27J-7*
G01*
Y2005*
X5756*
Y1983*
X5848*
Y2040*
X5756*
Y2025*
X5677*
Y2031*
G75*
G02X5639Y2040I-15J23*
G01*
X5617*
G75*
G02X5578Y2031I-24J14*
G01*
Y2025*
X5499*
Y2040*
X4844*
G75*
G02X4848Y2026I-23J-14*
G01*
G75*
G02X4793I-28*
G01*
G75*
G02X4797Y2040I28J0*
G01*
X4597*
G37*
X4797D02*
G36*
G75*
G02X4844I23J-14D01*
G01*
X5499*
Y2083*
X4597*
Y2040*
X4797*
G37*
X5639D02*
G36*
G75*
G02X5635Y2054I23J14D01*
G01*
G75*
G02X5677Y2078I28*
G01*
Y2083*
X5578*
Y2077*
G75*
G02X5620Y2054I15J-23*
G01*
G75*
G02X5617Y2040I-28*
G01*
X5639*
G37*
X5848D02*
G36*
Y2083D01*
X5756*
Y2040*
X5848*
G37*
X58Y1823D02*
G36*
Y1763D01*
X894*
G75*
G02X896Y1764I13J-10*
G01*
X954Y1823*
X555*
G75*
G02X500I-28*
G01*
X58*
G37*
X500D02*
G36*
G75*
G02X555I28D01*
G01*
X954*
X970Y1839*
G75*
G02X970Y1843I27J4*
G01*
G75*
G02X1025I28*
G01*
G75*
G02X1016Y1823I-28*
G01*
X1181*
G75*
G02X1229I24J-13*
G01*
X1268*
G75*
G02X1317I24J-13*
G01*
X1356*
G75*
G02X1404I24J-13*
G01*
X1443*
G75*
G02X1492I24J-13*
G01*
X1531*
G75*
G02X1579I24J-13*
G01*
X1929*
G75*
G02X1966I19J-20*
G01*
X3612*
G75*
G02X3621Y1835I26J-10*
G01*
Y1883*
X1816*
G75*
G02X1825Y1863I-19J-20*
G01*
G75*
G02X1770I-28*
G01*
G75*
G02X1779Y1883I28*
G01*
X811*
G75*
G02X815Y1868I-23J-15*
G01*
G75*
G02X760I-28*
G01*
G75*
G02X764Y1883I28J0*
G01*
X715*
G75*
G02X660I-28*
G01*
X520*
G75*
G02X465I-27J5*
G01*
X58*
Y1823*
X500*
G37*
X1016D02*
G36*
G75*
G02X994Y1815I-19J20D01*
G01*
X941Y1763*
X970*
G75*
G02X1025I28*
G01*
X5435*
Y1823*
X4825*
G75*
G02X4828Y1811I-25J-12*
G01*
G75*
G02X4773I-28*
G01*
G75*
G02X4775Y1823I28*
G01*
X4667*
G75*
G02X4668Y1816I-27J-7*
G01*
G75*
G02X4613I-28*
G01*
G75*
G02X4614Y1823I28*
G01*
X4555*
X4552Y1819*
G75*
G02X4503Y1800I-27J-4*
G01*
G75*
G02X4455Y1804I-23J16*
G01*
G75*
G02X4403Y1816I-25J11*
G01*
G75*
G02X4404Y1823I28*
G01*
X4033*
G75*
G02X4035Y1813I-26J-10*
G01*
G75*
G02X3980I-28*
G01*
G75*
G02X3982Y1823I28J0*
G01*
X3875*
G75*
G02X3820I-27J5*
G01*
X3758*
G75*
G02X3760Y1813I-26J-10*
G01*
G75*
G02X3708Y1801I-28*
G01*
G75*
G02X3660Y1797I-25J11*
G01*
G75*
G02X3610Y1813I-23J16*
G01*
G75*
G02X3612Y1823I28J0*
G01*
X1966*
G75*
G02X1975Y1803I-19J-20*
G01*
G75*
G02X1920I-28*
G01*
G75*
G02X1929Y1823I28*
G01*
X1579*
G75*
G02X1583Y1810I-24J-12*
G01*
G75*
G02X1528I-28*
G01*
G75*
G02X1531Y1823I28J0*
G01*
X1492*
G75*
G02X1495Y1810I-24J-12*
G01*
G75*
G02X1440I-28*
G01*
G75*
G02X1443Y1823I28J0*
G01*
X1404*
G75*
G02X1408Y1810I-24J-12*
G01*
G75*
G02X1353I-28*
G01*
G75*
G02X1356Y1823I28J0*
G01*
X1317*
G75*
G02X1320Y1810I-24J-12*
G01*
G75*
G02X1265I-28*
G01*
G75*
G02X1268Y1823I28J0*
G01*
X1229*
G75*
G02X1233Y1810I-24J-12*
G01*
G75*
G02X1178I-28*
G01*
G75*
G02X1181Y1823I28J0*
G01*
X1016*
G37*
X3820D02*
G36*
G75*
G02X3820Y1828I27J5D01*
G01*
G75*
G02X3875I28*
G01*
G75*
G02X3875Y1823I-28J0*
G01*
X3982*
G75*
G02X4033I26J-10*
G01*
X4404*
G75*
G02X4414Y1838I27J-7*
G01*
Y1871*
G75*
G02X4418Y1882I17J0*
G01*
X4419Y1883*
X3749*
Y1835*
G75*
G02X3758Y1823I-17J-22*
G01*
X3820*
G37*
X4614D02*
G36*
G75*
G02X4667I27J-7D01*
G01*
X4775*
G75*
G02X4825I25J-12*
G01*
X5435*
Y1839*
G75*
G02X5440Y1852I18J0*
G01*
X5458Y1870*
G75*
G02X5470Y1875I13J-13*
G01*
X5499*
Y1883*
X4597*
Y1871*
G75*
G02X4592Y1859I-17J0*
G01*
X4555Y1823*
X4614*
G37*
X5756D02*
G36*
Y1799D01*
G75*
G02X5802Y1780I19J-20*
G01*
G75*
G02X5796Y1763I-28*
G01*
X5848*
Y1823*
X5756*
G37*
X5848D02*
G36*
Y1883D01*
X5756*
Y1868*
X5723*
X5728Y1863*
G75*
G02X5735Y1849I-12J-14*
G01*
Y1847*
X5756*
Y1823*
X5848*
G37*
X58Y1448D02*
G36*
Y1413D01*
X3412*
G75*
G02X3410Y1423I26J10*
G01*
G75*
G02X3426Y1448I28*
G01*
X1579*
G75*
G02X1531I-24J13*
G01*
X1492*
G75*
G02X1443I-24J13*
G01*
X1404*
G75*
G02X1356I-24J13*
G01*
X1317*
G75*
G02X1268I-24J13*
G01*
X1229*
G75*
G02X1181I-24J13*
G01*
X575*
G75*
G02X520I-28*
G01*
X58*
G37*
X520D02*
G36*
G75*
G02X575I28D01*
G01*
X1181*
G75*
G02X1178Y1460I24J12*
G01*
G75*
G02X1233I28*
G01*
G75*
G02X1229Y1448I-28J0*
G01*
X1268*
G75*
G02X1265Y1460I24J12*
G01*
G75*
G02X1320I28*
G01*
G75*
G02X1317Y1448I-28J0*
G01*
X1356*
G75*
G02X1353Y1460I24J12*
G01*
G75*
G02X1408I28*
G01*
G75*
G02X1404Y1448I-28J0*
G01*
X1443*
G75*
G02X1440Y1460I24J12*
G01*
G75*
G02X1495I28*
G01*
G75*
G02X1492Y1448I-28J0*
G01*
X1531*
G75*
G02X1528Y1460I24J12*
G01*
G75*
G02X1583I28*
G01*
G75*
G02X1579Y1448I-28J0*
G01*
X3426*
G75*
G02X3449I11J-25*
G01*
X5461*
G75*
G02X5487Y1446I11J-25*
G01*
X5499*
Y1454*
X5578*
Y1448*
X5647*
G75*
G02X5677Y1448I15J-23*
G01*
Y1454*
X5756*
Y1448*
X5848*
Y1523*
X5794*
G75*
G02X5756Y1523I-19J20*
G01*
Y1474*
X5677*
Y1480*
G75*
G02X5635Y1503I-15J23*
G01*
G75*
G02X5643Y1523I28*
G01*
X5614*
G75*
G02X5623Y1503I-19J-20*
G01*
G75*
G02X5578Y1482I-28*
G01*
Y1474*
X5499*
Y1523*
X1915*
G75*
G02X1860I-28*
G01*
X1825*
G75*
G02X1770I-28*
G01*
X1564*
G75*
G02X1541I-11J25*
G01*
X1479*
G75*
G02X1456I-11J25*
G01*
X1391*
G75*
G02X1369I-11J25*
G01*
X1304*
G75*
G02X1281I-11J25*
G01*
X1216*
G75*
G02X1194I-11J25*
G01*
X919*
G75*
G02X896I-11J25*
G01*
X58*
Y1448*
X520*
G37*
X3449D02*
G36*
G75*
G02X3465Y1423I-11J-25D01*
G01*
G75*
G02X3463Y1413I-28*
G01*
X3500*
G75*
G02X3555I28*
G01*
X4199*
X4200Y1414*
G75*
G02X4200Y1418I27J4*
G01*
G75*
G02X4255I28*
G01*
G75*
G02X4255Y1413I-28J0*
G01*
X4293*
G75*
G02X4348I27J-2*
G01*
X5447*
G75*
G02X5445Y1423I26J10*
G01*
G75*
G02X5461Y1448I28*
G01*
X3449*
G37*
X5578D02*
G36*
Y1413D01*
X5638*
G75*
G02X5635Y1425I25J12*
G01*
G75*
G02X5647Y1448I28*
G01*
X5578*
G37*
X5756D02*
G36*
Y1413D01*
X5848*
Y1448*
X5756*
G37*
X58Y1983D02*
G36*
Y1942D01*
X476*
Y1983*
X58*
G37*
X509D02*
G36*
Y1942D01*
X1030*
G75*
G02X1085I28*
G01*
X3621*
Y1983*
X1316*
G75*
G02X1269I-23J15*
G01*
X637*
G75*
G02X558I-40*
G01*
X509*
G37*
X3749D02*
G36*
Y1942D01*
X4479*
X4484Y1947*
Y1983*
X3749*
G37*
X4597D02*
G36*
Y1942D01*
X5848*
Y1983*
X5756*
Y1947*
X5677*
Y1953*
G75*
G02X5635Y1976I-15J23*
G01*
G75*
G02X5636Y1983I27J0*
G01*
X5620*
G75*
G02X5620Y1976I-27J-7*
G01*
G75*
G02X5578Y1953I-28*
G01*
Y1947*
X5499*
Y1983*
X4597*
G37*
X152Y3283D02*
G36*
G75*
G02X403I126J-80D01*
G01*
X570*
G75*
G02X625I28*
G01*
X886*
Y3366*
X866Y3386*
X573*
G75*
G02X561Y3391I0J17*
G01*
X539Y3413*
X58*
Y3283*
X152*
G37*
X1135D02*
G36*
G75*
G02X1135Y3288I27J5D01*
G01*
G75*
G02X1190I28*
G01*
G75*
G02X1190Y3283I-28J0*
G01*
X1425*
X1295Y3413*
X886*
X914Y3384*
G75*
G02X919Y3373I-12J-12*
G01*
Y3283*
X1135*
G37*
X3557D02*
G36*
Y3301D01*
X3640*
Y3283*
X3669*
Y3335*
X3665Y3338*
X3640*
Y3318*
X3557*
Y3401*
X3613*
X3625Y3413*
X2967*
G75*
G02X2928Y3373I-40*
G01*
G75*
G02X2888Y3413J40*
G01*
X1370*
X1500Y3283*
X3557*
G37*
X3786D02*
G36*
Y3299D01*
X3869*
Y3283*
X4912*
Y3322*
G75*
G02X4918Y3337I21J0*
G01*
X4953Y3372*
G75*
G02X4968Y3379I15J-14*
G01*
X4980*
Y3399*
X5063*
Y3382*
X5085*
X5116Y3413*
X3844*
Y3399*
X3869*
Y3316*
X3786*
Y3399*
X3806*
Y3500*
G75*
G02X3736I-35J31*
G01*
Y3477*
G75*
G02X3730Y3464I-19*
G01*
X3643Y3377*
X3673*
G75*
G02X3686Y3371I0J-19*
G01*
X3701Y3356*
G75*
G02X3707Y3343I-13J-13*
G01*
Y3283*
X3786*
G37*
X4980D02*
G36*
Y3299D01*
X5063*
Y3283*
X5216*
Y3299*
X5299*
Y3283*
X5502*
G75*
G02X5753I126J-80*
G01*
X5848*
Y3413*
X5279*
Y3399*
X5299*
Y3316*
X5216*
Y3399*
X5238*
Y3498*
G75*
G02X5170Y3500I-33J32*
G01*
Y3421*
G75*
G02X5164Y3407I-19*
G01*
X5106Y3349*
G75*
G02X5093Y3344I-13J13*
G01*
X5063*
Y3316*
X4980*
Y3337*
X4976*
X4953Y3314*
Y3283*
X4980*
G37*
X465Y1883D02*
G36*
G75*
G02X465Y1888I27J5D01*
G01*
G75*
G02X476Y1910I28*
G01*
Y1942*
X58*
Y1883*
X465*
G37*
X660D02*
G36*
G75*
G02X715I28D01*
G01*
X764*
G75*
G02X811I23J-15*
G01*
X1779*
G75*
G02X1816I19J-20*
G01*
X3621*
Y1942*
X1085*
G75*
G02X1030I-28*
G01*
X509*
Y1910*
G75*
G02X520Y1888I-17J-22*
G01*
G75*
G02X520Y1883I-28J0*
G01*
X660*
G37*
X4419D02*
G36*
X4479Y1942D01*
X3749*
Y1883*
X4419*
G37*
X5499D02*
G36*
Y1926D01*
X5578*
Y1919*
G75*
G02X5611Y1875I17J-22*
G01*
X5646*
G75*
G02X5677Y1920I17J22*
G01*
Y1926*
X5756*
Y1883*
X5848*
Y1942*
X4597*
Y1883*
X5499*
G37*
X58Y1558D02*
G36*
Y1523D01*
X896*
G75*
G02X880Y1548I11J25*
G01*
G75*
G02X882Y1558I28J0*
G01*
X720*
G75*
G02X665I-28*
G01*
X58*
G37*
X665D02*
G36*
G75*
G02X720I28D01*
G01*
X882*
G75*
G02X891Y1570I26J-10*
G01*
Y1635*
X58*
Y1558*
X665*
G37*
X933D02*
G36*
G75*
G02X935Y1548I-26J-10D01*
G01*
G75*
G02X919Y1523I-28*
G01*
X1194*
G75*
G02X1178Y1548I11J25*
G01*
G75*
G02X1179Y1558I28J0*
G01*
X933*
G37*
X1179D02*
G36*
G75*
G02X1231I26J-10D01*
G01*
X1267*
G75*
G02X1318I26J-10*
G01*
X1354*
G75*
G02X1406I26J-10*
G01*
X1442*
G75*
G02X1493I26J-10*
G01*
X1527*
G75*
G02X1578I26J-10*
G01*
X3565*
G75*
G02X3620I28*
G01*
X4353*
G75*
G02X4408I27J-2*
G01*
X5499*
Y1611*
X5578*
Y1600*
X5607*
G75*
G02X5655Y1582I21J-18*
G01*
G75*
G02X5640Y1558I-28*
G01*
X5677*
Y1611*
X5749*
G75*
G02X5750Y1632I26J10*
G01*
X5677*
Y1635*
X5638*
G75*
G02X5608Y1643I-9J26*
G01*
X5578*
Y1632*
X5499*
Y1635*
X1969*
G75*
G02X1926I-21J18*
G01*
X1583*
G75*
G02X1528I-28*
G01*
X1495*
G75*
G02X1440I-28*
G01*
X1408*
G75*
G02X1353I-28*
G01*
X1320*
G75*
G02X1265I-28*
G01*
X1233*
G75*
G02X1178I-28*
G01*
X924*
Y1570*
G75*
G02X933Y1558I-17J-22*
G01*
X1179*
G37*
X1231D02*
G36*
G75*
G02X1233Y1548I-26J-10D01*
G01*
G75*
G02X1216Y1523I-28*
G01*
X1281*
G75*
G02X1265Y1548I11J25*
G01*
G75*
G02X1267Y1558I28J0*
G01*
X1231*
G37*
X1318D02*
G36*
G75*
G02X1320Y1548I-26J-10D01*
G01*
G75*
G02X1304Y1523I-28*
G01*
X1369*
G75*
G02X1353Y1548I11J25*
G01*
G75*
G02X1354Y1558I28J0*
G01*
X1318*
G37*
X1406D02*
G36*
G75*
G02X1408Y1548I-26J-10D01*
G01*
G75*
G02X1391Y1523I-28*
G01*
X1456*
G75*
G02X1440Y1548I11J25*
G01*
G75*
G02X1442Y1558I28J0*
G01*
X1406*
G37*
X1493D02*
G36*
G75*
G02X1495Y1548I-26J-10D01*
G01*
G75*
G02X1479Y1523I-28*
G01*
X1541*
G75*
G02X1525Y1548I11J25*
G01*
G75*
G02X1527Y1558I28J0*
G01*
X1493*
G37*
X1578D02*
G36*
G75*
G02X1580Y1548I-26J-10D01*
G01*
G75*
G02X1564Y1523I-28*
G01*
X1770*
G75*
G02X1825I28*
G01*
X1860*
G75*
G02X1915I28*
G01*
X5499*
Y1532*
X5578*
Y1523*
G75*
G02X5614Y1523I18J-21*
G01*
X5643*
G75*
G02X5677Y1526I20J-19*
G01*
Y1532*
X5749*
G75*
G02X5749Y1553I26J10*
G01*
X5677*
Y1558*
X5640*
G75*
G02X5607Y1564I-12J25*
G01*
X5578*
Y1553*
X5499*
Y1558*
X4408*
G75*
G02X4408Y1556I-27J-2*
G01*
G75*
G02X4353I-28*
G01*
G75*
G02X4353Y1558I27J0*
G01*
X3620*
G75*
G02X3565I-28*
G01*
X1578*
G37*
X5798D02*
G36*
G75*
G02X5802Y1542I-23J-15D01*
G01*
G75*
G02X5794Y1523I-28*
G01*
X5848*
Y1558*
X5798*
G37*
X5848D02*
G36*
Y1635D01*
X5799*
G75*
G02X5775Y1594I-24J-14*
G01*
X5788Y1581*
G75*
G02X5793Y1569I-13J-13*
G01*
Y1563*
G75*
G02X5798Y1558I-18J-21*
G01*
X5848*
G37*
X58Y2963D02*
G36*
Y2893D01*
X875*
G75*
G02X930I28*
G01*
X1435*
G75*
G02X1435Y2898I27J5*
G01*
G75*
G02X1490I28*
G01*
G75*
G02X1490Y2893I-28J0*
G01*
X3669*
Y2963*
X2262*
G75*
G02X2223Y2918I-39J-5*
G01*
G75*
G02X2183Y2963J40*
G01*
X1275*
G75*
G02X1220I-28*
G01*
X720*
G75*
G02X665I-28*
G01*
X58*
G37*
X665D02*
G36*
G75*
G02X720I28D01*
G01*
X1220*
G75*
G02X1275I28*
G01*
X2183*
G75*
G02X2223Y2997I39J-5*
G01*
G75*
G02X2262Y2963J-40*
G01*
X3669*
Y3033*
X2807*
G75*
G02X2768Y2993I-40*
G01*
G75*
G02X2728Y3033J40*
G01*
X2210*
X2206Y3029*
G75*
G02X2188Y3021I-19J19*
G01*
X1551*
G75*
G02X1524I-13J27*
G01*
X992*
G75*
G02X960Y3031I-10J27*
G01*
X933*
G75*
G02X926Y3033I0J17*
G01*
X58*
Y2963*
X665*
G37*
X3707D02*
G36*
Y2893D01*
X4912*
Y2963*
X3707*
G37*
X4912D02*
G36*
Y3033D01*
X3707*
Y2963*
X4912*
G37*
X4953D02*
G36*
Y2893D01*
X5848*
Y2963*
X4953*
G37*
X5848D02*
G36*
Y3033D01*
X4953*
Y2963*
X5848*
G37*
X58Y2283D02*
G36*
Y2208D01*
X469*
G75*
G02X516I23J-15*
G01*
X858*
G75*
G02X913I28*
G01*
X3531*
G75*
G02X3529Y2217I27J10*
G01*
G75*
G02X3586I29*
G01*
G75*
G02X3584Y2208I-29J0*
G01*
X3674*
G75*
G02X3667Y2237I19J20*
G01*
G75*
G02X3638Y2244I-9J26*
G01*
X3628*
G75*
G02X3614Y2249I0J19*
G01*
X3589Y2274*
G75*
G02X3584Y2283I13J13*
G01*
X1481*
G75*
G02X1498Y2258I-11J-25*
G01*
G75*
G02X1443I-28*
G01*
G75*
G02X1459Y2283I28*
G01*
X1401*
G75*
G02X1418Y2258I-11J-25*
G01*
G75*
G02X1363I-28*
G01*
G75*
G02X1379Y2283I28*
G01*
X1321*
G75*
G02X1338Y2258I-11J-25*
G01*
G75*
G02X1283I-28*
G01*
G75*
G02X1299Y2283I28*
G01*
X775*
G75*
G02X720I-28*
G01*
X58*
G37*
X720D02*
G36*
G75*
G02X775I28D01*
G01*
X1299*
G75*
G02X1321I11J-25*
G01*
X1379*
G75*
G02X1401I11J-25*
G01*
X1459*
G75*
G02X1481I11J-25*
G01*
X3584*
G75*
G02X3584Y2288I18J5*
G01*
Y2369*
X58*
Y2283*
X720*
G37*
X3788D02*
G36*
G75*
G02X3784Y2276I-16J5D01*
G01*
X3774Y2266*
Y2238*
G75*
G02X3820Y2217I19J-20*
G01*
G75*
G02X3818Y2208I-28*
G01*
X4135*
G75*
G02X4145I5J-27*
G01*
X4330*
G75*
G02X4327Y2221I25J13*
G01*
G75*
G02X4384I29*
G01*
G75*
G02X4380Y2208I-29*
G01*
X4484*
Y2220*
G75*
G02X4438Y2241I-19J20*
G01*
G75*
G02X4484Y2261I28*
G01*
Y2283*
X3788*
G37*
X4484D02*
G36*
Y2314D01*
G75*
G02X4473Y2336I17J22*
G01*
G75*
G02X4523Y2351I28*
G01*
G75*
G02X4573Y2336I23J-16*
G01*
G75*
G02X4559Y2312I-28*
G01*
Y2284*
G75*
G02X4566Y2295I26J-9*
G01*
Y2305*
G75*
G02X4572Y2319I19*
G01*
X4599Y2346*
G75*
G02X4613Y2352I13J-13*
G01*
X4835*
X4853Y2369*
X3778*
G75*
G02X3800Y2342I-6J-27*
G01*
G75*
G02X3789Y2321I-28*
G01*
Y2288*
G75*
G02X3788Y2283I-17J0*
G01*
X4484*
G37*
X4904D02*
G36*
X4884Y2262D01*
G75*
G02X4871Y2257I-13J13*
G01*
X4650*
G75*
G02X4608Y2260I-20J19*
G01*
G75*
G02X4559Y2267I-23J16*
G01*
Y2238*
G75*
G02X4558Y2232I-16J0*
G01*
G75*
G02X4608Y2216I22J-16*
G01*
G75*
G02X4606Y2208I-28J0*
G01*
X5499*
Y2241*
X5578*
Y2236*
G75*
G02X5619Y2213I14J-24*
G01*
G75*
G02X5619Y2208I-28J0*
G01*
X5635*
G75*
G02X5635Y2212I27J4*
G01*
G75*
G02X5677Y2235I28*
G01*
Y2241*
X5756*
Y2208*
X5848*
Y2283*
X5756*
Y2262*
X5677*
Y2268*
G75*
G02X5636Y2283I-15J23*
G01*
X5619*
G75*
G02X5578Y2268I-26J9*
G01*
Y2262*
X5499*
Y2283*
X4904*
G37*
X5499D02*
G36*
Y2320D01*
X5578*
Y2314*
G75*
G02X5620Y2291I15J-23*
G01*
G75*
G02X5619Y2283I-28*
G01*
X5636*
G75*
G02X5635Y2291I26J8*
G01*
G75*
G02X5677Y2314I28*
G01*
Y2320*
X5756*
Y2283*
X5848*
Y2369*
X5756*
Y2340*
X5677*
Y2346*
G75*
G02X5635Y2369I-15J23*
G01*
X5618*
G75*
G02X5578Y2344I-28J-1*
G01*
Y2340*
X5499*
Y2369*
X4991*
X4904Y2283*
X5499*
G37*
X58Y583D02*
G36*
Y513D01*
X5322*
G75*
G02X5363Y553I41*
G01*
G75*
G02X5403Y513J-41*
G01*
X5848*
Y583*
X5483*
G75*
G02X5463Y577I-20J35*
G01*
G75*
G02X5442Y583J41*
G01*
X2005*
G75*
G02X1950I-27J5*
G01*
X1830*
G75*
G02X1775I-27J5*
G01*
X1005*
G75*
G02X950I-28*
G01*
X835*
G75*
G02X780I-28*
G01*
X58*
G37*
X780D02*
G36*
G75*
G02X835I28D01*
G01*
X950*
G75*
G02X1005I28*
G01*
X1775*
G75*
G02X1775Y588I27J5*
G01*
G75*
G02X1830I28*
G01*
G75*
G02X1830Y583I-28J0*
G01*
X1950*
G75*
G02X1950Y588I27J5*
G01*
G75*
G02X2005I28*
G01*
G75*
G02X2005Y583I-28J0*
G01*
X5442*
G75*
G02X5431Y643I20J35*
G01*
X1920*
G75*
G02X1865I-27J5*
G01*
X920*
G75*
G02X865I-28*
G01*
X58*
Y583*
X780*
G37*
X5848D02*
G36*
Y643D01*
X5494*
G75*
G02X5483Y583I-32J-25*
G01*
X5848*
G37*
X476Y2083D02*
G36*
Y2133D01*
X58*
Y2083*
X476*
G37*
X833D02*
G36*
G75*
G02X888I28D01*
G01*
X1764*
G75*
G02X1755Y2103I19J20*
G01*
G75*
G02X1810I28*
G01*
G75*
G02X1801Y2083I-28*
G01*
X3674*
X3711Y2119*
Y2133*
X509*
Y2083*
X833*
G37*
X4484D02*
G36*
Y2133D01*
X3809*
Y2103*
G75*
G02X3804Y2091I-17J0*
G01*
X3796Y2083*
X4484*
G37*
X5499D02*
G36*
Y2083D01*
X5578*
Y2083*
X5677*
Y2083*
X5756*
Y2083*
X5848*
Y2133*
X5756*
Y2104*
X5677*
Y2110*
G75*
G02X5635Y2133I-15J23*
G01*
X5620*
Y2133*
G75*
G02X5578Y2110I-28*
G01*
Y2104*
X5499*
Y2133*
X4597*
Y2083*
X5499*
G37*
X58Y2208D02*
G36*
Y2168D01*
X476*
Y2171*
G75*
G02X465Y2192I17J22*
G01*
G75*
G02X469Y2208I28J0*
G01*
X58*
G37*
X516D02*
G36*
G75*
G02X520Y2192I-23J-15D01*
G01*
G75*
G02X509Y2171I-28*
G01*
Y2168*
X1110*
G75*
G02X1165I28*
G01*
X1613*
G75*
G02X1668I28*
G01*
X3317*
G75*
G02X3315Y2178I26J10*
G01*
G75*
G02X3370I28*
G01*
G75*
G02X3368Y2168I-28*
G01*
X3711*
Y2207*
G75*
G02X3674Y2208I-19J20*
G01*
X3584*
G75*
G02X3531I-27J10*
G01*
X913*
G75*
G02X858I-28*
G01*
X516*
G37*
X3818D02*
G36*
G75*
G02X3809Y2196I-26J10D01*
G01*
Y2168*
X4116*
G75*
G02X4113Y2181I24J13*
G01*
G75*
G02X4135Y2208I28*
G01*
X3818*
G37*
X4145D02*
G36*
G75*
G02X4168Y2181I-5J-27D01*
G01*
G75*
G02X4164Y2168I-28*
G01*
X4484*
Y2208*
X4380*
G75*
G02X4330I-25J13*
G01*
X4145*
G37*
X4606D02*
G36*
G75*
G02X4597Y2194I-26J8D01*
G01*
Y2168*
X5848*
Y2208*
X5756*
Y2183*
X5677*
Y2189*
G75*
G02X5635Y2208I-15J23*
G01*
X5619*
G75*
G02X5578Y2189I-27J5*
G01*
Y2183*
X5499*
Y2208*
X4606*
G37*
X865Y643D02*
G36*
G75*
G02X920I28D01*
G01*
X1865*
G75*
G02X1865Y648I27J5*
G01*
G75*
G02X1920I28*
G01*
G75*
G02X1920Y643I-28J0*
G01*
X5431*
G75*
G02X5463Y658I32J-25*
G01*
G75*
G02X5494Y643J-41*
G01*
X5848*
Y793*
X5822*
G75*
G02X5754Y766I-40*
G01*
X5723*
G75*
G02X5710I-6J29*
G01*
X5677*
Y768*
X5578*
Y766*
X5545*
G75*
G02X5532I-6J29*
G01*
X5501*
G75*
G02X5433Y793I-29J27*
G01*
X58*
Y643*
X865*
G37*
X58Y2438D02*
G36*
Y2369D01*
X3584*
Y2438*
X1485*
G75*
G02X1430I-28*
G01*
X925*
G75*
G02X870I-28*
G01*
X58*
G37*
X870D02*
G36*
G75*
G02X925I28D01*
G01*
X1430*
G75*
G02X1485I28*
G01*
X3584*
Y2543*
X3370*
G75*
G02X3315I-28*
G01*
X58*
Y2438*
X870*
G37*
X3707D02*
G36*
Y2360D01*
G75*
G02X3750Y2358I21J-18*
G01*
G75*
G02X3778Y2369I23J-16*
G01*
X4853*
X4914Y2430*
Y2438*
X3707*
G37*
X4914D02*
G36*
Y2543D01*
X4167*
G75*
G02X4113I-27J3*
G01*
X3707*
Y2438*
X4914*
G37*
X5042D02*
G36*
Y2428D01*
G75*
G02X5036Y2414I-19*
G01*
X4991Y2369*
X5499*
Y2398*
X5578*
Y2393*
G75*
G02X5618Y2369I13J-24*
G01*
X5635*
G75*
G02X5677Y2393I28*
G01*
Y2398*
X5756*
Y2369*
X5848*
Y2438*
X5756*
Y2419*
X5677*
Y2425*
G75*
G02X5637Y2438I-15J23*
G01*
X5617*
G75*
G02X5578Y2425I-25J11*
G01*
Y2419*
X5499*
Y2438*
X5042*
G37*
X5499D02*
G36*
Y2477D01*
X5578*
Y2472*
G75*
G02X5619Y2449I14J-24*
G01*
G75*
G02X5617Y2438I-28J0*
G01*
X5637*
G75*
G02X5635Y2448I25J11*
G01*
G75*
G02X5677Y2471I28*
G01*
Y2477*
X5756*
Y2438*
X5848*
Y2543*
X5819*
G75*
G02X5822Y2528I-37J-15*
G01*
G75*
G02X5756Y2499I-40*
G01*
Y2498*
X5677*
Y2505*
X5578*
Y2498*
X5499*
Y2499*
G75*
G02X5433Y2528I-27J29*
G01*
G75*
G02X5436Y2543I40J0*
G01*
X5042*
Y2438*
X5499*
G37*
X58Y2588D02*
G36*
Y2543D01*
X3315*
G75*
G02X3370I28*
G01*
X3584*
Y2588*
X1485*
G75*
G02X1430I-28*
G01*
X925*
G75*
G02X870I-28*
G01*
X58*
G37*
X870D02*
G36*
G75*
G02X925I28D01*
G01*
X1430*
G75*
G02X1485I28*
G01*
X3584*
Y2660*
G75*
G02X3578Y2673I14J13*
G01*
Y2678*
G75*
G02X3574Y2683I19J20*
G01*
X58*
Y2588*
X870*
G37*
X3707D02*
G36*
Y2543D01*
X4113*
G75*
G02X4113Y2546I27J3*
G01*
G75*
G02X4168I28*
G01*
G75*
G02X4167Y2543I-28J0*
G01*
X4914*
Y2588*
X3707*
G37*
X4914D02*
G36*
Y2671D01*
G75*
G02X4910Y2683I19J12*
G01*
X3707*
Y2588*
X4914*
G37*
X5042D02*
G36*
Y2543D01*
X5436*
G75*
G02X5500Y2556I37J-15*
G01*
X5578*
Y2548*
X5677*
Y2556*
X5755*
G75*
G02X5819Y2543I27J-28*
G01*
X5848*
Y2588*
X5756*
Y2577*
X5677*
Y2583*
G75*
G02X5642Y2588I-15J23*
G01*
X5614*
G75*
G02X5578Y2583I-21J18*
G01*
Y2577*
X5499*
Y2588*
X5042*
G37*
X5499D02*
G36*
Y2635D01*
X5578*
Y2629*
G75*
G02X5620Y2606I15J-23*
G01*
G75*
G02X5614Y2588I-28J0*
G01*
X5642*
G75*
G02X5635Y2606I21J18*
G01*
G75*
G02X5677Y2629I28*
G01*
Y2635*
X5756*
Y2588*
X5848*
Y2683*
X5822*
G75*
G02X5754Y2655I-40*
G01*
X5677*
Y2663*
X5578*
Y2655*
X5501*
G75*
G02X5433Y2683I-29J27*
G01*
X5042*
Y2588*
X5499*
G37*
X58Y2733D02*
G36*
Y2683D01*
X3574*
G75*
G02X3570Y2698I23J15*
G01*
G75*
G02X3625I28*
G01*
G75*
G02X3618Y2679I-28*
G01*
G75*
G02X3622Y2668I-15J-11*
G01*
Y2295*
X3635Y2282*
X3638*
G75*
G02X3642Y2285I20J-19*
G01*
G75*
G02X3663Y2335I16J23*
G01*
X3669Y2340*
Y2733*
X1485*
G75*
G02X1430I-28*
G01*
X925*
G75*
G02X870I-28*
G01*
X58*
G37*
X870D02*
G36*
G75*
G02X925I28D01*
G01*
X1430*
G75*
G02X1485I28*
G01*
X3669*
Y2893*
X1490*
G75*
G02X1435I-27J5*
G01*
X930*
G75*
G02X875I-28*
G01*
X58*
Y2733*
X870*
G37*
X3707D02*
G36*
Y2683D01*
X4910*
G75*
G02X4912Y2691I22*
G01*
Y2733*
X3707*
G37*
X4912D02*
G36*
Y2893D01*
X3707*
Y2733*
X4912*
G37*
X4953D02*
G36*
Y2691D01*
G75*
G02X4952Y2671I-21J-8*
G01*
Y2422*
G75*
G02X4946Y2409I-19*
G01*
X4856Y2319*
G75*
G02X4843Y2313I-13J13*
G01*
X4620*
X4604Y2297*
Y2295*
G75*
G02X4608Y2291I-19J-20*
G01*
G75*
G02X4650Y2295I22J-16*
G01*
X4863*
X5004Y2435*
Y2683*
G75*
G02X4995Y2703I19J20*
G01*
G75*
G02X5050I28*
G01*
G75*
G02X5042Y2683I-28*
G01*
Y2683*
X5433*
G75*
G02X5499Y2711I40*
G01*
Y2713*
X5578*
Y2706*
X5677*
Y2713*
X5756*
Y2711*
G75*
G02X5822Y2683I27J-29*
G01*
X5848*
Y2733*
X4953*
G37*
X5848D02*
G36*
Y2893D01*
X4953*
Y2733*
X5848*
G37*
X58Y1373D02*
G36*
Y1328D01*
X2602*
G75*
G02X2683I41*
G01*
X2728*
G75*
G02X2768Y1372I39J5*
G01*
G75*
G02X2807Y1328J-40*
G01*
X2928*
G75*
G02X2968Y1372I39J5*
G01*
G75*
G02X3007Y1328J-40*
G01*
X3421*
Y1373*
X935*
G75*
G02X880I-28*
G01*
X58*
G37*
X880D02*
G36*
G75*
G02X935I28D01*
G01*
X3421*
Y1401*
G75*
G02X3412Y1413I17J22*
G01*
X58*
Y1373*
X880*
G37*
X3454D02*
G36*
Y1328D01*
X4156*
Y1363*
G75*
G02X4159Y1373I17J0*
G01*
X3454*
G37*
X4159D02*
G36*
G75*
G02X4161Y1374I13J-10D01*
G01*
X4199Y1413*
X3555*
G75*
G02X3500I-28*
G01*
X3463*
G75*
G02X3454Y1401I-26J10*
G01*
Y1373*
X4159*
G37*
X4206D02*
G36*
X4189Y1356D01*
Y1328*
X5499*
Y1373*
X4206*
G37*
X5499D02*
G36*
Y1375D01*
X5578*
Y1368*
G75*
G02X5597Y1373I15J-23*
G01*
X5677*
Y1375*
X5754*
G75*
G02X5813Y1373I29J-27*
G01*
X5848*
Y1413*
X5756*
Y1396*
X5677*
Y1401*
G75*
G02X5638Y1413I-15J23*
G01*
X5578*
Y1396*
X5499*
Y1403*
X5492*
G75*
G02X5447Y1413I-19J19*
G01*
X4348*
G75*
G02X4348Y1411I-27J-2*
G01*
G75*
G02X4293I-28*
G01*
G75*
G02X4293Y1413I27J0*
G01*
X4255*
G75*
G02X4224Y1390I-27J5*
G01*
X4206Y1373*
X5499*
G37*
X5597D02*
G36*
G75*
G02X5620Y1345I-4J-27D01*
G01*
G75*
G02X5614Y1328I-28*
G01*
X5677*
Y1373*
X5597*
G37*
X5813D02*
G36*
G75*
G02X5822Y1348I-31J-25D01*
G01*
G75*
G02X5817Y1328I-40*
G01*
X5848*
Y1373*
X5813*
G37*
X58Y3133D02*
G36*
Y3033D01*
X926*
G75*
G02X921Y3036I7J15*
G01*
X891Y3066*
G75*
G02X886Y3078I12J12*
G01*
Y3133*
X409*
G75*
G02X146I-132J70*
G01*
X58*
G37*
X919D02*
G36*
Y3084D01*
X939Y3064*
X960*
G75*
G02X992Y3074I23J-17*
G01*
X1524*
G75*
G02X1551I13J-27*
G01*
X2177*
X2235Y3133*
X2142*
G75*
G02X2103Y3088I-39J-5*
G01*
G75*
G02X2079Y3096J40*
G01*
X1623*
G75*
G02X1604Y3104I0J27*
G01*
X1575Y3133*
X1545*
G75*
G02X1490I-27J5*
G01*
X990*
G75*
G02X935I-28*
G01*
X919*
G37*
X2310D02*
G36*
X2210Y3033D01*
X2728*
G75*
G02X2768Y3072I40*
G01*
G75*
G02X2807Y3033J-40*
G01*
X3669*
Y3133*
X2310*
G37*
X3707D02*
G36*
Y3033D01*
X4912*
Y3133*
X3707*
G37*
X4953D02*
G36*
Y3033D01*
X5848*
Y3133*
X5759*
G75*
G02X5496I-132J70*
G01*
X4953*
G37*
X58Y1223D02*
G36*
Y1188D01*
X3478*
X3444Y1223*
X2419*
G75*
G02X2346I-37J15*
G01*
X1435*
G75*
G02X1435Y1218I-27J-5*
G01*
G75*
G02X1380I-28*
G01*
G75*
G02X1380Y1223I28J0*
G01*
X995*
G75*
G02X940I-28*
G01*
X58*
G37*
X940D02*
G36*
G75*
G02X995I28D01*
G01*
X1380*
G75*
G02X1435I27J-5*
G01*
X2346*
G75*
G02X2343Y1238I37J15*
G01*
G75*
G02X2357Y1268I40*
G01*
X58*
Y1223*
X940*
G37*
X3444D02*
G36*
X3426Y1241D01*
G75*
G02X3421Y1252I12J12*
G01*
Y1268*
X2408*
G75*
G02X2422Y1238I-26J-30*
G01*
G75*
G02X2419Y1223I-40J0*
G01*
X3444*
G37*
X3491D02*
G36*
X3525Y1188D01*
X4156*
Y1223*
X3491*
G37*
X4156D02*
G36*
Y1268D01*
X3454*
Y1259*
X3491Y1223*
X4156*
G37*
X4189D02*
G36*
Y1188D01*
X5499*
Y1217*
X5578*
Y1211*
G75*
G02X5620Y1188I15J-23*
G01*
X5635*
G75*
G02X5677Y1211I28*
G01*
Y1217*
X5756*
Y1188*
X5848*
Y1223*
X4189*
G37*
X5848D02*
G36*
Y1268D01*
X5822*
G75*
G02X5756Y1239I-40*
G01*
Y1238*
X5677*
Y1246*
X5578*
Y1238*
X5499*
Y1244*
X5487*
G75*
G02X5445Y1268I-15J23*
G01*
X4189*
Y1223*
X5848*
G37*
X58Y1763D02*
G36*
Y1722D01*
X891*
Y1753*
G75*
G02X894Y1763I17J0*
G01*
X58*
G37*
X941D02*
G36*
X924Y1746D01*
Y1722*
X1178*
G75*
G02X1233I28*
G01*
X1265*
G75*
G02X1320I28*
G01*
X1353*
G75*
G02X1408I28*
G01*
X1440*
G75*
G02X1495I28*
G01*
X1528*
G75*
G02X1583I28*
G01*
X1772*
G75*
G02X1823I26J-10*
G01*
X5432*
G75*
G02X5426Y1740I22J17*
G01*
G75*
G02X5435Y1760I27*
G01*
Y1763*
X1025*
G75*
G02X970I-28*
G01*
X941*
G37*
X5796D02*
G36*
G75*
G02X5769Y1753I-22J17D01*
G01*
G75*
G02X5769Y1752I-12J-13*
G01*
X5788Y1734*
G75*
G02X5793Y1722I-13J-13*
G01*
X5848*
Y1763*
X5796*
G37*
X58Y2168D02*
G36*
Y2133D01*
X476*
Y2168*
X58*
G37*
X509D02*
G36*
Y2133D01*
X3711*
Y2168*
X3368*
G75*
G02X3317I-26J10*
G01*
X1668*
G75*
G02X1613I-28*
G01*
X1165*
G75*
G02X1110I-28*
G01*
X509*
G37*
X3809D02*
G36*
Y2133D01*
X4484*
Y2168*
X4164*
G75*
G02X4116I-24J13*
G01*
X3809*
G37*
X4597D02*
G36*
Y2133D01*
X5499*
Y2162*
X5578*
Y2156*
G75*
G02X5620Y2133I15J-23*
G01*
X5635*
G75*
G02X5677Y2156I28*
G01*
Y2162*
X5756*
Y2133*
X5848*
Y2168*
X4597*
G37*
X891Y1635D02*
G36*
Y1683D01*
X58*
Y1635*
X891*
G37*
X1178D02*
G36*
G75*
G02X1233I28D01*
G01*
X1265*
G75*
G02X1320I28*
G01*
X1353*
G75*
G02X1408I28*
G01*
X1440*
G75*
G02X1495I28*
G01*
X1528*
G75*
G02X1583I28*
G01*
X1926*
G75*
G02X1920Y1653I21J18*
G01*
G75*
G02X1975I28*
G01*
G75*
G02X1969Y1635I-28*
G01*
X5499*
Y1683*
X4442*
G75*
G02X4388I-27J3*
G01*
X3650*
G75*
G02X3595I-28*
G01*
X924*
Y1635*
X1178*
G37*
X5677D02*
G36*
Y1683D01*
X5646*
G75*
G02X5657Y1661I-17J-21*
G01*
G75*
G02X5638Y1635I-28*
G01*
X5677*
G37*
X5848D02*
G36*
Y1683D01*
X5796*
G75*
G02X5772Y1672I-21J17*
G01*
X5788Y1656*
G75*
G02X5793Y1644I-13J-13*
G01*
Y1642*
G75*
G02X5799Y1635I-18J-21*
G01*
X5848*
G37*
X58Y1722D02*
G36*
Y1683D01*
X891*
Y1722*
X58*
G37*
X924D02*
G36*
Y1683D01*
X3595*
G75*
G02X3650I28*
G01*
X4388*
G75*
G02X4388Y1686I27J3*
G01*
G75*
G02X4443I28*
G01*
G75*
G02X4442Y1683I-28J0*
G01*
X5499*
Y1690*
X5578*
Y1679*
X5608*
G75*
G02X5646Y1683I21J-18*
G01*
X5677*
Y1690*
X5749*
G75*
G02X5750Y1710I26J10*
G01*
X5677*
Y1762*
X5658*
X5623Y1727*
G75*
G02X5610Y1721I-13J13*
G01*
X5578*
Y1710*
X5499*
Y1769*
X5578*
Y1758*
X5603*
X5637Y1792*
G75*
G02X5650Y1798I13J-13*
G01*
X5677*
Y1839*
X5578*
Y1789*
X5499*
Y1792*
G75*
G02X5471Y1793I-14J24*
G01*
Y1761*
G75*
G02X5481Y1740I-18J-21*
G01*
G75*
G02X5432Y1722I-28*
G01*
X1823*
G75*
G02X1825Y1713I-26J-10*
G01*
G75*
G02X1770I-28*
G01*
G75*
G02X1772Y1722I28J0*
G01*
X1583*
G75*
G02X1528I-28*
G01*
X1495*
G75*
G02X1440I-28*
G01*
X1408*
G75*
G02X1353I-28*
G01*
X1320*
G75*
G02X1265I-28*
G01*
X1233*
G75*
G02X1178I-28*
G01*
X924*
G37*
X5793D02*
G36*
G75*
G02X5793Y1721I-18J-2D01*
G01*
Y1720*
G75*
G02X5796Y1683I-18J-21*
G01*
X5848*
Y1722*
X5793*
G37*
X139Y333D02*
G36*
G75*
G02X416I138J-55D01*
G01*
X1232*
G75*
G02X1313I41*
G01*
X2232*
G75*
G02X2232Y338I40J5*
G01*
G75*
G02X2313I41*
G01*
G75*
G02X2313Y333I-41J0*
G01*
X5489*
G75*
G02X5766I138J-55*
G01*
X5848*
Y513*
X5403*
G75*
G02X5363Y472I-41*
G01*
G75*
G02X5322Y513J41*
G01*
X58*
Y333*
X139*
G37*
X58Y1328D02*
G36*
Y1268D01*
X2357*
G75*
G02X2408I26J-30*
G01*
X3421*
Y1328*
X3007*
G75*
G02X2968Y1293I-39J5*
G01*
G75*
G02X2928Y1328J40*
G01*
X2807*
G75*
G02X2768Y1293I-39J5*
G01*
G75*
G02X2728Y1328J40*
G01*
X2683*
G75*
G02X2602I-41*
G01*
X58*
G37*
X3454D02*
G36*
Y1268D01*
X4156*
Y1328*
X3454*
G37*
X4189D02*
G36*
Y1268D01*
X5445*
G75*
G02X5487Y1291I28*
G01*
X5499*
Y1296*
X5578*
Y1289*
X5677*
Y1296*
X5755*
G75*
G02X5822Y1268I27J-29*
G01*
X5848*
Y1328*
X5817*
G75*
G02X5756Y1319I-34J20*
G01*
Y1317*
X5677*
Y1328*
X5614*
G75*
G02X5578Y1322I-21J18*
G01*
Y1317*
X5499*
Y1328*
X4189*
G37*
X58Y858D02*
G36*
Y793D01*
X5433*
G75*
G02X5499Y821I40*
G01*
Y824*
X5532*
G75*
G02X5545I6J-29*
G01*
X5578*
Y821*
X5677*
Y824*
X5710*
G75*
G02X5723I6J-29*
G01*
X5756*
Y821*
G75*
G02X5822Y793I27J-29*
G01*
X5848*
Y858*
X5819*
G75*
G02X5755Y844I-37J15*
G01*
X5677*
Y852*
X5578*
Y844*
X5500*
G75*
G02X5436Y858I-28J28*
G01*
X5214*
G75*
G02X5131I-42*
G01*
X5114*
G75*
G02X5031I-42*
G01*
X5014*
G75*
G02X4931I-42*
G01*
X4914*
G75*
G02X4831I-42*
G01*
X4814*
G75*
G02X4731I-42*
G01*
X4714*
G75*
G02X4631I-42*
G01*
X4614*
G75*
G02X4531I-42*
G01*
X4514*
G75*
G02X4431I-42*
G01*
X4414*
G75*
G02X4331I-42*
G01*
X4314*
G75*
G02X4231I-42*
G01*
X4214*
G75*
G02X4131I-42*
G01*
X4114*
G75*
G02X4031I-42*
G01*
X4014*
G75*
G02X3931I-42*
G01*
X3914*
G75*
G02X3831I-42*
G01*
X3814*
G75*
G02X3731I-42*
G01*
X3714*
G75*
G02X3631I-42*
G01*
X3614*
G75*
G02X3531I-42*
G01*
X3514*
G75*
G02X3431I-42*
G01*
X3414*
G75*
G02X3331I-42*
G01*
X3314*
G75*
G02X3231I-42*
G01*
X3214*
G75*
G02X3131I-42*
G01*
X3114*
G75*
G02X3031I-42*
G01*
X3014*
G75*
G02X2931I-42*
G01*
X2914*
G75*
G02X2831I-42*
G01*
X58*
G37*
Y3581D02*
G36*
Y3531D01*
X3193*
G75*
G02X3180Y3581I85J50*
G01*
X58*
G37*
X3180D02*
G36*
G75*
G02X3193Y3631I99D01*
G01*
X2961*
G75*
G02X2903Y3596I-58J32*
G01*
G75*
G02X2844Y3631J67*
G01*
X2761*
G75*
G02X2703Y3596I-58J32*
G01*
G75*
G02X2644Y3631J67*
G01*
X2511*
G75*
G02X2453Y3596I-58J32*
G01*
G75*
G02X2394Y3631J67*
G01*
X2311*
G75*
G02X2253Y3596I-58J32*
G01*
G75*
G02X2194Y3631J67*
G01*
X2061*
G75*
G02X2003Y3596I-58J32*
G01*
G75*
G02X1944Y3631J67*
G01*
X1861*
G75*
G02X1803Y3596I-58J32*
G01*
G75*
G02X1744Y3631J67*
G01*
X1511*
G75*
G02X1453Y3596I-58J32*
G01*
G75*
G02X1394Y3631J67*
G01*
X1311*
G75*
G02X1252Y3596I-58J32*
G01*
G75*
G02X1194Y3631J67*
G01*
X961*
G75*
G02X903Y3596I-58J32*
G01*
G75*
G02X844Y3631J67*
G01*
X761*
G75*
G02X703Y3596I-58J32*
G01*
G75*
G02X644Y3631J67*
G01*
X58*
Y3581*
X3180*
G37*
X3378D02*
G36*
G75*
G02X3364Y3531I-99J0D01*
G01*
X3508*
G75*
G02X3601I46*
G01*
X3616*
G75*
G02X3698Y3561I46*
G01*
Y3581*
X3378*
G37*
X3698D02*
G36*
Y3588D01*
G75*
G02X3670Y3631I19J42*
G01*
X3655*
G75*
G02X3562I-46*
G01*
X3364*
G75*
G02X3378Y3581I-85J-50*
G01*
X3698*
G37*
X3844D02*
G36*
Y3561D01*
G75*
G02X3925Y3531I35J-31*
G01*
X3940*
G75*
G02X4033I46*
G01*
X4177*
G75*
G02X4164Y3581I85J50*
G01*
X3844*
G37*
X4164D02*
G36*
G75*
G02X4177Y3631I99D01*
G01*
X3979*
G75*
G02X3886I-46*
G01*
X3871*
G75*
G02X3844Y3588I-46*
G01*
Y3581*
X4164*
G37*
X4362D02*
G36*
G75*
G02X4348Y3531I-99J0D01*
G01*
X4627*
G75*
G02X4614Y3581I85J50*
G01*
X4362*
G37*
X4614D02*
G36*
G75*
G02X4627Y3631I99D01*
G01*
X4348*
G75*
G02X4362Y3581I-85J-50*
G01*
X4614*
G37*
X4812D02*
G36*
G75*
G02X4798Y3531I-99J0D01*
G01*
X4942*
G75*
G02X5035I46*
G01*
X5050*
G75*
G02X5132Y3561I46*
G01*
Y3581*
X4812*
G37*
X5132D02*
G36*
Y3588D01*
G75*
G02X5104Y3631I19J42*
G01*
X5089*
G75*
G02X4996I-46*
G01*
X4798*
G75*
G02X4812Y3581I-85J-50*
G01*
X5132*
G37*
X5279D02*
G36*
Y3563D01*
G75*
G02X5359Y3531I33J-32*
G01*
X5374*
G75*
G02X5467I46*
G01*
X5611*
G75*
G02X5598Y3581I85J50*
G01*
X5279*
G37*
X5598D02*
G36*
G75*
G02X5611Y3631I99D01*
G01*
X5413*
G75*
G02X5320I-46*
G01*
X5305*
G75*
G02X5279Y3589I-46*
G01*
Y3581*
X5598*
G37*
X5796D02*
G36*
G75*
G02X5782Y3531I-99J0D01*
G01*
X5848*
Y3581*
X5796*
G37*
X5848D02*
G36*
Y3631D01*
X5782*
G75*
G02X5796Y3581I-85J-50*
G01*
X5848*
G37*
X58Y168D02*
G36*
Y58D01*
X3063*
Y153*
X3498*
Y58*
X5848*
Y168*
X5728*
G75*
G02X5527I-101J110*
G01*
X5465*
G75*
G02X5438Y140I-28*
G01*
G75*
G02X5410Y168J28*
G01*
X378*
G75*
G02X177I-101J110*
G01*
X58*
G37*
X4056Y1033D02*
G36*
Y1056D01*
X4002Y1110*
X58*
Y1033*
X4056*
G37*
X4156D02*
G36*
Y1110D01*
X4049*
X4084Y1074*
G75*
G02X4089Y1063I-12J-12*
G01*
Y1033*
X4156*
G37*
X5433D02*
G36*
G75*
G02X5501Y1060I40D01*
G01*
X5578*
Y1052*
X5677*
Y1060*
X5754*
G75*
G02X5822Y1033I28J-27*
G01*
X5848*
Y1110*
X5756*
Y1081*
X5677*
Y1086*
G75*
G02X5635Y1110I-15J23*
G01*
X5622*
Y1109*
G75*
G02X5578Y1088I-28*
G01*
Y1081*
X5499*
Y1110*
X4189*
Y1033*
X5433*
G37*
X4002Y1110D02*
G36*
X3986Y1126D01*
X3548*
G75*
G02X3536Y1131I0J17*
G01*
X3478Y1188*
X58*
Y1110*
X4002*
G37*
X4156D02*
G36*
Y1188D01*
X3525*
X3554Y1159*
X3993*
G75*
G02X4004Y1154I0J-17*
G01*
X4049Y1110*
X4156*
G37*
X5499D02*
G36*
Y1139D01*
X5578*
Y1131*
G75*
G02X5622Y1110I17J-22*
G01*
X5635*
G75*
G02X5677Y1133I28*
G01*
Y1139*
X5756*
Y1110*
X5848*
Y1188*
X5756*
Y1159*
X5677*
Y1165*
G75*
G02X5635Y1188I-15J23*
G01*
X5620*
Y1188*
G75*
G02X5578Y1165I-28*
G01*
Y1159*
X5499*
Y1188*
X4189*
Y1110*
X5499*
G37*
X3430Y72D02*
Y109D01*
X3415Y84*
X3440*
D02*
D11*
X87Y3468D02*
X67D01*
X98Y3457D02*
Y3437D01*
Y3478D02*
Y3499D01*
X109Y3468D02*
X129D01*
X493Y2192D02*
Y1888D01*
X908Y1548D02*
Y1753D01*
X998Y1843*
X983Y3048D02*
X933D01*
X903Y3078*
Y3373*
X873Y3403*
X573*
X523Y3453*
X1250Y333D02*
X1230D01*
X1273Y309D02*
Y289D01*
Y356D02*
Y376D01*
X1296Y333D02*
X1315D01*
X1390Y2043D02*
X1338D01*
X1293Y1998*
X2250Y338D02*
X2230D01*
X2273Y315D02*
Y295D01*
Y361D02*
Y381D01*
X2296Y338D02*
X2316D01*
X2620Y1328D02*
X2600D01*
X2643Y1305D02*
Y1285D01*
Y1351D02*
Y1371D01*
X2666Y1328D02*
X2686D01*
X3547Y2217D02*
X3527D01*
X3558Y2207D02*
Y2187D01*
Y2229D02*
Y2249D01*
X3568Y2217D02*
X3588D01*
X3683Y1813D02*
Y2033D01*
X3757Y2108*
Y2273*
X3773Y2288*
Y2342*
X3728D02*
Y2113D01*
X3638Y2023*
Y1813*
X3733D02*
Y2043D01*
X3793Y2103*
Y2217*
X4072Y858D02*
Y1063D01*
X3993Y1143*
X3548*
X3438Y1252*
Y1423*
X4173Y858D02*
Y1363D01*
X4228Y1418*
X4344Y2221D02*
X4324D01*
X4355Y2210D02*
Y2190D01*
Y2232D02*
Y2252D01*
X4366Y2221D02*
X4386D01*
X4430Y1816D02*
Y1871D01*
X4500Y1941*
Y2336*
X4525Y1816D02*
X4580Y1871D01*
Y2216*
X4545Y2336D02*
X4543D01*
Y2238*
X4532Y2228*
Y1868*
X4480Y1816*
X4585Y2276D02*
Y2285D01*
X5148Y258D02*
X5128D01*
X5173Y233D02*
Y213D01*
Y282D02*
Y303D01*
X5198Y258D02*
X5218D01*
X5340Y513D02*
X5319D01*
X5363Y489D02*
Y469D01*
Y536D02*
Y556D01*
X5386Y513D02*
X5406D01*
X5427Y258D02*
X5407D01*
X5438Y247D02*
Y227D01*
Y269D02*
Y289D01*
X5439Y618D02*
X5420D01*
X5449Y258D02*
X5468D01*
X5463Y595D02*
Y575D01*
Y641D02*
Y661D01*
X5486Y618D02*
X5506D01*
X5486Y1816D02*
Y1818D01*
X5539*
Y1740D02*
Y1740D01*
X5610*
X5650Y1780*
X5775*
Y1780*
X5591Y2369D02*
X5564D01*
Y2369*
X5539*
X5592Y2213D02*
X5566D01*
Y2212*
X5539*
X5592Y2449D02*
X5566D01*
Y2448*
X5539*
X5593Y1188D02*
X5566D01*
Y1188*
X5539*
X5593Y1345D02*
X5566D01*
Y1346*
X5539*
X5593Y1976D02*
X5566D01*
Y1976*
X5539*
X5593Y2054D02*
X5566D01*
Y2054*
X5539*
X5593Y2133D02*
X5566D01*
Y2133*
X5539*
X5593Y2291D02*
X5564D01*
Y2291*
X5539*
X5593Y2606D02*
X5566D01*
Y2606*
X5539*
X5594Y1109D02*
X5567D01*
Y1110*
X5539*
X5594Y1897D02*
X5567D01*
Y1897*
X5539*
X5595Y1503D02*
X5567D01*
Y1503*
X5539*
X5628Y1582D02*
X5583D01*
Y1582*
X5539*
X5629Y1661D02*
X5583D01*
Y1661*
X5539*
X5663Y1110D02*
X5716D01*
X5663Y1188D02*
X5716D01*
X5663Y1425D02*
X5716D01*
X5663Y1503D02*
X5716D01*
X5663Y1897D02*
X5716D01*
X5663Y1976D02*
X5716D01*
X5663Y2054D02*
X5716D01*
X5663Y2133D02*
X5716D01*
X5663Y2212D02*
X5716D01*
X5663Y2291D02*
X5716D01*
X5663Y2369D02*
X5716D01*
X5663Y2448D02*
X5716D01*
X5663Y2606D02*
X5716D01*
Y1346D02*
X5725D01*
X5725Y1345*
X5716Y1818D02*
Y1824D01*
X5715Y1826*
Y1849*
X5707Y1857*
X5470*
X5453Y1839*
Y1741*
X5453Y1741*
Y1740*
X5775Y1542D02*
Y1569D01*
X5762Y1581*
X5717*
X5716Y1582*
X5775Y1621D02*
Y1644D01*
X5759Y1660*
X5717*
X5716Y1661*
X5775Y1700D02*
Y1721D01*
X5756Y1740*
X5717*
X5716Y1740*
D02*
D12*
X278Y278D03*
Y3203D03*
X5628Y278D03*
Y3203D03*
D02*
D13*
X2873Y258D03*
Y858D03*
X2973Y258D03*
Y858D03*
X3073Y258D03*
Y858D03*
X3173Y258D03*
Y858D03*
X3273Y258D03*
Y858D03*
X3373Y258D03*
Y858D03*
X3473Y258D03*
Y858D03*
X3572Y258D03*
Y858D03*
X3673Y258D03*
Y858D03*
X3773Y258D03*
Y858D03*
X3873Y258D03*
Y858D03*
X3973Y258D03*
Y858D03*
X4072Y258D03*
Y858D03*
X4173Y258D03*
Y858D03*
X4273Y258D03*
Y858D03*
X4372Y258D03*
Y858D03*
X4473Y258D03*
Y858D03*
X4572Y258D03*
Y858D03*
X4673Y258D03*
Y858D03*
X4773Y258D03*
Y858D03*
X4872Y258D03*
Y858D03*
X4973Y258D03*
Y858D03*
X5072Y258D03*
Y858D03*
X5173Y258D03*
Y858D03*
D02*
D14*
X3599Y3259D03*
Y3359D03*
X3828Y3257D03*
Y3358D03*
X5021Y3258D03*
Y3358D03*
X5258Y3257D03*
Y3358D03*
D02*
D15*
X803Y3763D03*
X1353D03*
X1903D03*
X2353D03*
X2803D03*
D02*
D16*
X703Y3663D03*
Y3863D03*
X903Y3663D03*
Y3863D03*
X1252Y3663D03*
Y3863D03*
X1453Y3663D03*
Y3863D03*
X1803Y3663D03*
Y3863D03*
X2003Y3663D03*
Y3863D03*
X2253Y3663D03*
Y3863D03*
X2453Y3663D03*
Y3863D03*
X2703Y3663D03*
Y3863D03*
X2903Y3663D03*
Y3863D03*
D02*
D17*
X3555Y3531D03*
X3609Y3631D03*
X3663Y3531D03*
X3717Y3631D03*
X3771Y3531D03*
X3825Y3631D03*
X3879Y3531D03*
X3933Y3631D03*
X3987Y3531D03*
X4989D03*
X5043Y3631D03*
X5097Y3531D03*
X5151Y3631D03*
X5205Y3531D03*
X5259Y3631D03*
X5313Y3531D03*
X5367Y3631D03*
X5421Y3531D03*
D02*
D18*
X3279Y3581D03*
X4263D03*
X4713D03*
X5697D03*
D02*
D19*
X598Y1983D03*
X768Y248D03*
X1028Y243D03*
X1273Y333D03*
X1768Y248D03*
X2018D03*
X2103Y3128D03*
X2223Y2958D03*
X2273Y338D03*
X2383Y1238D03*
X2643Y1328D03*
X2768Y1333D03*
Y3033D03*
X2803Y3243D03*
X2928Y3413D03*
X2968Y1333D03*
X5363Y513D03*
X5463Y618D03*
X5468Y953D03*
X5473Y793D03*
Y873D03*
Y1033D03*
Y2528D03*
Y2683D03*
X5783Y793D03*
Y873D03*
Y953D03*
Y1033D03*
Y1268D03*
Y1348D03*
Y2528D03*
Y2683D03*
D02*
D70*
X98Y3468D03*
X258Y3728D03*
X338Y928D03*
X428D03*
X493Y1888D03*
Y2192D03*
X523Y3453D03*
X527Y1823D03*
X548Y1448D03*
X598Y3283D03*
X608Y3498D03*
X688Y1883D03*
X693Y1558D03*
Y2963D03*
X748Y2283D03*
X788Y1868D03*
X808Y583D03*
X860Y2083D03*
X885Y2208D03*
X892Y643D03*
X898Y2438D03*
Y2588D03*
Y2733D03*
X903Y2893D03*
X908Y1373D03*
Y1548D03*
X963Y3133D03*
X968Y1223D03*
X978Y583D03*
X983Y3048D03*
X998Y1763D03*
Y1843D03*
X1058Y1942D03*
X1138Y2168D03*
X1163Y3288D03*
Y3498D03*
X1205Y1460D03*
Y1548D03*
Y1635D03*
Y1722D03*
Y1810D03*
X1248Y2963D03*
X1293Y1460D03*
Y1548D03*
Y1635D03*
Y1722D03*
Y1810D03*
Y1998D03*
X1310Y2258D03*
X1380Y1460D03*
Y1548D03*
Y1635D03*
Y1722D03*
Y1810D03*
X1390Y2043D03*
Y2258D03*
X1408Y1218D03*
X1458Y2438D03*
Y2588D03*
Y2733D03*
X1463Y2898D03*
X1468Y1460D03*
Y1548D03*
Y1635D03*
Y1722D03*
Y1810D03*
X1470Y2258D03*
X1518Y3138D03*
X1538Y3048D03*
X1553Y1548D03*
X1555Y1460D03*
Y1635D03*
Y1722D03*
Y1810D03*
X1640Y2168D03*
X1783Y2103D03*
X1798Y1523D03*
Y1713D03*
Y1863D03*
X1803Y588D03*
X1888Y1523D03*
X1893Y648D03*
X1948Y1653D03*
Y1803D03*
X1978Y588D03*
X3343Y2178D03*
Y2543D03*
X3438Y1423D03*
X3528Y1413D03*
X3558Y2217D03*
X3593Y1558D03*
X3598Y2698D03*
X3623Y1683D03*
X3638Y1813D03*
X3658Y2263D03*
Y2308D03*
X3683Y1813D03*
X3693Y2228D03*
X3728Y2342D03*
X3733Y1813D03*
X3773Y2342D03*
X3793Y2217D03*
X3848Y1828D03*
X4008Y1813D03*
X4028Y2033D03*
X4140Y2181D03*
Y2546D03*
X4228Y1418D03*
X4320Y1411D03*
X4355Y2221D03*
X4380Y1556D03*
X4415Y1686D03*
X4430Y1816D03*
X4465Y2241D03*
X4480Y1816D03*
X4500Y2336D03*
X4525Y1816D03*
X4545Y2336D03*
X4580Y2216D03*
X4585Y2276D03*
X4630D03*
X4640Y1816D03*
X4800Y1811D03*
X4820Y2026D03*
X5023Y2703D03*
X5438Y168D03*
Y258D03*
X5453Y1740D03*
X5473Y1268D03*
Y1423D03*
X5486Y1816D03*
X5591Y2369D03*
X5592Y2213D03*
Y2449D03*
X5593Y1188D03*
Y1345D03*
Y1976D03*
Y2054D03*
Y2133D03*
Y2291D03*
Y2606D03*
X5594Y1109D03*
Y1897D03*
X5595Y1503D03*
X5628Y1582D03*
X5629Y1661D03*
X5663Y1110D03*
Y1188D03*
Y1425D03*
Y1503D03*
Y1897D03*
Y1976D03*
Y2054D03*
Y2133D03*
Y2212D03*
Y2291D03*
Y2369D03*
Y2448D03*
Y2606D03*
X5775Y1542D03*
Y1621D03*
Y1700D03*
Y1780D03*
D02*
D71*
X5539Y795D03*
Y873D03*
Y952D03*
Y1031D03*
Y1110D03*
Y1188D03*
Y1267D03*
Y1346D03*
Y1425D03*
Y1503D03*
Y1582D03*
Y1661D03*
Y1740D03*
Y1818D03*
Y1897D03*
Y1976D03*
Y2054D03*
Y2133D03*
Y2212D03*
Y2291D03*
Y2369D03*
Y2448D03*
Y2527D03*
Y2606D03*
Y2684D03*
X5716Y795D03*
Y873D03*
Y952D03*
Y1031D03*
Y1110D03*
Y1188D03*
Y1267D03*
Y1346D03*
Y1425D03*
Y1503D03*
Y1582D03*
Y1661D03*
Y1740D03*
Y1818D03*
Y1897D03*
Y1976D03*
Y2054D03*
Y2133D03*
Y2212D03*
Y2291D03*
Y2369D03*
Y2448D03*
Y2527D03*
Y2606D03*
Y2684D03*
D02*
D20*
X5473Y873D02*
Y873D01*
X5539*
X5473Y1033D02*
Y1031D01*
X5539*
X5473Y1268D02*
Y1267D01*
X5539*
X5473Y1423D02*
Y1425D01*
X5539*
X5473Y2528D02*
Y2527D01*
X5539*
Y873D02*
X5716D01*
X5539Y1267D02*
X5716D01*
X5539Y2527D02*
X5716D01*
X5539Y2684D02*
X5474D01*
X5473Y2683*
X5716Y873D02*
X5782D01*
X5783Y873*
X5716Y1031D02*
X5539D01*
X5716Y1267D02*
X5782D01*
X5783Y1268*
X5716Y2527D02*
X5782D01*
X5783Y2528*
X5716Y2684D02*
X5539D01*
X5725Y1345D02*
X5780D01*
X5783Y1348*
Y1033D02*
X5718D01*
X5716Y1031*
X5783Y2683D02*
Y2684D01*
X5716*
D02*
D21*
X608Y3498D02*
X1163D01*
X983Y3048D02*
X1538D01*
X2103Y3128D02*
Y3123D01*
X1623*
X1248Y3498*
X1163*
X2803Y3243D02*
X2383D01*
X2188Y3048*
X1538*
X5539Y795D02*
X5475D01*
X5473Y793*
X5539Y795D02*
X5716D01*
X5539Y952D02*
X5468D01*
X5468Y953*
X5716Y795D02*
X5780D01*
X5783Y793*
X5716Y952D02*
X5539D01*
X5716D02*
X5782D01*
X5783Y953*
D02*
D22*
X3658Y2263D02*
X3628D01*
X3603Y2288*
Y2668*
X3598Y2673*
Y2698*
X3658Y2308D02*
X3663D01*
X3688Y2333*
Y3343*
X3673Y3358*
X3600*
X3599Y3359*
X3717Y3631D02*
Y3477D01*
X3599Y3359*
X3825Y3631D02*
Y3360D01*
X3828Y3358*
X4585Y2285D02*
Y2305D01*
X4613Y2333*
X4843*
X4933Y2422*
Y2683*
X4630Y2276D02*
X4871D01*
X5023Y2428*
Y2703*
X5021Y3358D02*
X5021Y3358D01*
X4968*
X4933Y3322*
Y2683*
X5151Y3631D02*
Y3421D01*
X5093Y3363*
X5026*
X5021Y3358*
X5259Y3631D02*
Y3359D01*
X5258Y3358*
X0Y0D02*
M02*
