%FSLAX23Y23*%
%MOIN*%
G04 EasyPC Gerber Version 17.0 Build 3379 *
%ADD14R,0.06000X0.06000*%
%ADD10C,0.00500*%
%ADD11C,0.01000*%
%ADD70C,0.03200*%
%ADD19C,0.05600*%
%ADD13C,0.06000*%
%ADD17C,0.07000*%
%ADD15C,0.09000*%
%ADD16C,0.11000*%
%ADD18C,0.17500*%
%ADD12C,0.27500*%
X0Y0D02*
D02*
D10*
X324Y903D02*
G75*
G02X309Y928I14J25D01*
G01*
G75*
G02X366I29*
G01*
G75*
G02X351Y903I-29*
G01*
X416*
G75*
G02X400Y928I11J25*
G01*
G75*
G02X455I28*
G01*
G75*
G02X439Y903I-28*
G01*
X1513*
Y468*
X2268*
Y1002*
X5258*
Y2072*
X3233*
Y1583*
X704*
G75*
G02X720Y1558I-11J-25*
G01*
G75*
G02X665I-28*
G01*
G75*
G02X703Y1583I28*
G01*
Y1858*
G75*
G02X659Y1883I-15J24*
G01*
G75*
G02X703Y1907I29*
G01*
Y1913*
X506*
G75*
G02X521Y1888I-14J-25*
G01*
G75*
G02X464I-29*
G01*
G75*
G02X479Y1913I29*
G01*
X213*
Y903*
X324*
X500Y1823D02*
G75*
G02X555I28D01*
G01*
G75*
G02X500I-28*
G01*
X520Y1448D02*
G75*
G02X575I28D01*
G01*
G75*
G02X520I-28*
G01*
X879Y1373D02*
G75*
G02X936I29D01*
G01*
G75*
G02X879I-29*
G01*
Y1548D02*
G75*
G02X936I29D01*
G01*
G75*
G02X879I-29*
G01*
X940Y1223D02*
G75*
G02X995I28D01*
G01*
G75*
G02X940I-28*
G01*
X1178Y1460D02*
G75*
G02X1233I28D01*
G01*
G75*
G02X1178I-28*
G01*
Y1548D02*
G75*
G02X1233I28D01*
G01*
G75*
G02X1178I-28*
G01*
X1265Y1460D02*
G75*
G02X1320I28D01*
G01*
G75*
G02X1265I-28*
G01*
Y1548D02*
G75*
G02X1320I28D01*
G01*
G75*
G02X1265I-28*
G01*
X1353Y1460D02*
G75*
G02X1408I28D01*
G01*
G75*
G02X1353I-28*
G01*
Y1548D02*
G75*
G02X1408I28D01*
G01*
G75*
G02X1353I-28*
G01*
X1379Y1218D02*
G75*
G02X1436I29D01*
G01*
G75*
G02X1379I-29*
G01*
X1440Y1460D02*
G75*
G02X1495I28D01*
G01*
G75*
G02X1440I-28*
G01*
Y1548D02*
G75*
G02X1495I28D01*
G01*
G75*
G02X1440I-28*
G01*
X1525D02*
G75*
G02X1580I28D01*
G01*
G75*
G02X1525I-28*
G01*
X1528Y1460D02*
G75*
G02X1583I28D01*
G01*
G75*
G02X1528I-28*
G01*
X1769Y1523D02*
G75*
G02X1826I29D01*
G01*
G75*
G02X1769I-29*
G01*
X1774Y588D02*
G75*
G02X1831I29D01*
G01*
G75*
G02X1774I-29*
G01*
X1860Y1523D02*
G75*
G02X1915I28D01*
G01*
G75*
G02X1860I-28*
G01*
X1864Y648D02*
G75*
G02X1921I29D01*
G01*
G75*
G02X1864I-29*
G01*
X1949Y588D02*
G75*
G02X2006I29D01*
G01*
G75*
G02X1949I-29*
G01*
X2343Y1238D02*
G75*
G02X2422I40D01*
G01*
G75*
G02X2343I-40*
G01*
X2603Y1328D02*
G75*
G02X2682I40D01*
G01*
G75*
G02X2603I-40*
G01*
X2768Y1372D02*
G75*
G02Y1293J-40D01*
G01*
G75*
G02Y1372J40*
G01*
X2968D02*
G75*
G02Y1293J-40D01*
G01*
G75*
G02Y1372J40*
G01*
X3410Y1423D02*
G75*
G02X3465I28D01*
G01*
G75*
G02X3410I-28*
G01*
X3500Y1413D02*
G75*
G02X3555I28D01*
G01*
G75*
G02X3500I-28*
G01*
X3564Y1558D02*
G75*
G02X3621I29D01*
G01*
G75*
G02X3564I-29*
G01*
X3595Y1683D02*
G75*
G02X3650I28D01*
G01*
G75*
G02X3595I-28*
G01*
X3660Y1797D02*
G75*
G02X3610Y1813I-23J16D01*
G01*
G75*
G02X3660Y1828I28*
G01*
G75*
G02X3708Y1824I23J-16*
G01*
G75*
G02X3760Y1813I25J-11*
G01*
G75*
G02X3708Y1801I-28*
G01*
G75*
G02X3660Y1797I-25J11*
G01*
X3820Y1828D02*
G75*
G02X3875I28D01*
G01*
G75*
G02X3820I-28*
G01*
X3980Y1813D02*
G75*
G02X4035I28D01*
G01*
G75*
G02X3980I-28*
G01*
X3999Y2033D02*
G75*
G02X4056I29D01*
G01*
G75*
G02X3999I-29*
G01*
X4200Y1418D02*
G75*
G02X4255I28D01*
G01*
G75*
G02X4200I-28*
G01*
X4293Y1411D02*
G75*
G02X4348I28D01*
G01*
G75*
G02X4293I-28*
G01*
X4352Y1556D02*
G75*
G02X4409I29D01*
G01*
G75*
G02X4352I-29*
G01*
X4388Y1686D02*
G75*
G02X4443I28D01*
G01*
G75*
G02X4388I-28*
G01*
X4455Y1804D02*
G75*
G02X4403Y1816I-25J11D01*
G01*
G75*
G02X4455Y1827I28*
G01*
G75*
G02X4503Y1831I25J-11*
G01*
G75*
G02X4553Y1816I23J-16*
G01*
G75*
G02X4503Y1800I-28*
G01*
G75*
G02X4455Y1804I-23J16*
G01*
X4613Y1816D02*
G75*
G02X4668I28D01*
G01*
G75*
G02X4613I-28*
G01*
X4773Y1811D02*
G75*
G02X4828I28D01*
G01*
G75*
G02X4773I-28*
G01*
X4792Y2026D02*
G75*
G02X4849I29D01*
G01*
G75*
G02X4792I-29*
G01*
X213Y1823D02*
G36*
Y1448D01*
X520*
G75*
G02X575I28*
G01*
X1181*
G75*
G02X1178Y1460I24J12*
G01*
G75*
G02X1233I28*
G01*
G75*
G02X1229Y1448I-28J0*
G01*
X1268*
G75*
G02X1265Y1460I24J12*
G01*
G75*
G02X1320I28*
G01*
G75*
G02X1317Y1448I-28J0*
G01*
X1356*
G75*
G02X1353Y1460I24J12*
G01*
G75*
G02X1408I28*
G01*
G75*
G02X1404Y1448I-28J0*
G01*
X1443*
G75*
G02X1440Y1460I24J12*
G01*
G75*
G02X1495I28*
G01*
G75*
G02X1492Y1448I-28J0*
G01*
X1531*
G75*
G02X1528Y1460I24J12*
G01*
G75*
G02X1583I28*
G01*
G75*
G02X1579Y1448I-28J0*
G01*
X3426*
G75*
G02X3449I11J-25*
G01*
X5258*
Y1548*
X4407*
G75*
G02X4353I-27J8*
G01*
X3619*
G75*
G02X3566I-27J10*
G01*
X1899*
G75*
G02X1915Y1523I-11J-25*
G01*
G75*
G02X1860I-28*
G01*
G75*
G02X1876Y1548I28*
G01*
X1811*
G75*
G02X1826Y1523I-14J-25*
G01*
G75*
G02X1769I-29*
G01*
G75*
G02X1784Y1548I29*
G01*
X1580*
G75*
G02X1525I-28*
G01*
X1495*
G75*
G02X1440I-28*
G01*
X1408*
G75*
G02X1353I-28*
G01*
X1320*
G75*
G02X1265I-28*
G01*
X1233*
G75*
G02X1178I-28*
G01*
X936*
G75*
G02X879I-29*
G01*
X718*
G75*
G02X665Y1558I-26J10*
G01*
G75*
G02X703Y1583I28*
G01*
Y1823*
X555*
G75*
G02X500I-28*
G01*
X213*
G37*
X500D02*
G36*
G75*
G02X555I28D01*
G01*
X703*
Y1858*
G75*
G02X659Y1883I-15J24*
G01*
G75*
G02X703Y1907I29*
G01*
Y1913*
X506*
G75*
G02X521Y1888I-14J-25*
G01*
G75*
G02X464I-29*
G01*
G75*
G02X479Y1913I29*
G01*
X213*
Y1823*
X500*
G37*
X3233D02*
G36*
Y1683D01*
X3595*
G75*
G02X3650I28*
G01*
X4388*
G75*
G02X4388Y1686I27J3*
G01*
G75*
G02X4443I28*
G01*
G75*
G02X4442Y1683I-28J0*
G01*
X5258*
Y1823*
X4825*
G75*
G02X4828Y1811I-25J-12*
G01*
G75*
G02X4773I-28*
G01*
G75*
G02X4775Y1823I28*
G01*
X4667*
G75*
G02X4668Y1816I-27J-7*
G01*
G75*
G02X4613I-28*
G01*
G75*
G02X4614Y1823I28*
G01*
X4552*
G75*
G02X4553Y1816I-27J-7*
G01*
G75*
G02X4503Y1800I-28*
G01*
G75*
G02X4455Y1804I-23J16*
G01*
G75*
G02X4403Y1816I-25J11*
G01*
G75*
G02X4404Y1823I28*
G01*
X4033*
G75*
G02X4035Y1813I-26J-10*
G01*
G75*
G02X3980I-28*
G01*
G75*
G02X3982Y1823I28J0*
G01*
X3875*
G75*
G02X3820I-27J5*
G01*
X3758*
G75*
G02X3760Y1813I-26J-10*
G01*
G75*
G02X3708Y1801I-28*
G01*
G75*
G02X3660Y1797I-25J11*
G01*
G75*
G02X3610Y1813I-23J16*
G01*
G75*
G02X3612Y1823I28J0*
G01*
X3233*
G37*
X3612D02*
G36*
G75*
G02X3660Y1828I26J-10D01*
G01*
G75*
G02X3708Y1824I23J-16*
G01*
G75*
G02X3758Y1823I25J-11*
G01*
X3820*
G75*
G02X3820Y1828I27J5*
G01*
G75*
G02X3875I28*
G01*
G75*
G02X3875Y1823I-28J0*
G01*
X3982*
G75*
G02X4033I26J-10*
G01*
X4404*
G75*
G02X4455Y1827I27J-7*
G01*
G75*
G02X4503Y1831I25J-11*
G01*
G75*
G02X4552Y1823I23J-16*
G01*
X4614*
G75*
G02X4667I27J-7*
G01*
X4775*
G75*
G02X4825I25J-12*
G01*
X5258*
Y2033*
X4848*
G75*
G02X4849Y2026I-28J-7*
G01*
G75*
G02X4792I-29*
G01*
G75*
G02X4793Y2033I29J0*
G01*
X4056*
G75*
G02X3999I-29*
G01*
X3233*
Y1823*
X3612*
G37*
X213Y1448D02*
G36*
Y1413D01*
X3412*
G75*
G02X3410Y1423I26J10*
G01*
G75*
G02X3426Y1448I28*
G01*
X1579*
G75*
G02X1531I-24J13*
G01*
X1492*
G75*
G02X1443I-24J13*
G01*
X1404*
G75*
G02X1356I-24J13*
G01*
X1317*
G75*
G02X1268I-24J13*
G01*
X1229*
G75*
G02X1181I-24J13*
G01*
X575*
G75*
G02X520I-28*
G01*
X213*
G37*
X3449D02*
G36*
G75*
G02X3465Y1423I-11J-25D01*
G01*
G75*
G02X3463Y1413I-28*
G01*
X3500*
G75*
G02X3555I28*
G01*
X4200*
G75*
G02X4200Y1418I27J5*
G01*
G75*
G02X4255I28*
G01*
G75*
G02X4255Y1413I-28J0*
G01*
X4293*
G75*
G02X4348I27J-2*
G01*
X5258*
Y1448*
X3449*
G37*
X213Y1373D02*
G36*
Y1328D01*
X2603*
G75*
G02X2682I40*
G01*
X2728*
G75*
G02X2768Y1372I39J5*
G01*
G75*
G02X2807Y1328J-40*
G01*
X2928*
G75*
G02X2968Y1372I39J5*
G01*
G75*
G02X3007Y1328J-40*
G01*
X5258*
Y1373*
X936*
G75*
G02X879I-29*
G01*
X213*
G37*
X879D02*
G36*
G75*
G02X936I29D01*
G01*
X5258*
Y1413*
X4348*
G75*
G02X4348Y1411I-27J-2*
G01*
G75*
G02X4293I-28*
G01*
G75*
G02X4293Y1413I27J0*
G01*
X4255*
G75*
G02X4200I-27J5*
G01*
X3555*
G75*
G02X3500I-28*
G01*
X3463*
G75*
G02X3412I-26J10*
G01*
X213*
Y1373*
X879*
G37*
Y1548D02*
G36*
G75*
G02X936I29D01*
G01*
X1178*
G75*
G02X1233I28*
G01*
X1265*
G75*
G02X1320I28*
G01*
X1353*
G75*
G02X1408I28*
G01*
X1440*
G75*
G02X1495I28*
G01*
X1525*
G75*
G02X1580I28*
G01*
X1784*
G75*
G02X1811I14J-25*
G01*
X1876*
G75*
G02X1899I11J-25*
G01*
X3566*
G75*
G02X3564Y1558I27J10*
G01*
G75*
G02X3621I29*
G01*
G75*
G02X3619Y1548I-29J0*
G01*
X4353*
G75*
G02X4352Y1556I27J8*
G01*
G75*
G02X4409I29*
G01*
G75*
G02X4407Y1548I-29J0*
G01*
X5258*
Y1683*
X4442*
G75*
G02X4388I-27J3*
G01*
X3650*
G75*
G02X3595I-28*
G01*
X3233*
Y1583*
X704*
G75*
G02X720Y1558I-11J-25*
G01*
G75*
G02X718Y1548I-28*
G01*
X879*
G37*
X213Y1223D02*
G36*
Y903D01*
X324*
G75*
G02X309Y928I14J25*
G01*
G75*
G02X366I29*
G01*
G75*
G02X351Y903I-29*
G01*
X416*
G75*
G02X400Y928I11J25*
G01*
G75*
G02X455I28*
G01*
G75*
G02X439Y903I-28*
G01*
X1513*
Y648*
X1864*
G75*
G02X1921I29*
G01*
X2268*
Y1002*
X5258*
Y1223*
X2419*
G75*
G02X2346I-37J15*
G01*
X1436*
G75*
G02X1436Y1218I-28J-5*
G01*
G75*
G02X1379I-29*
G01*
G75*
G02X1379Y1223I29J0*
G01*
X995*
G75*
G02X940I-28*
G01*
X213*
G37*
X940D02*
G36*
G75*
G02X995I28D01*
G01*
X1379*
G75*
G02X1436I28J-5*
G01*
X2346*
G75*
G02X2343Y1238I37J15*
G01*
G75*
G02X2422I40*
G01*
G75*
G02X2419Y1223I-40J0*
G01*
X5258*
Y1328*
X3007*
G75*
G02X2968Y1293I-39J5*
G01*
G75*
G02X2928Y1328J40*
G01*
X2807*
G75*
G02X2768Y1293I-39J5*
G01*
G75*
G02X2728Y1328J40*
G01*
X2682*
G75*
G02X2603I-40*
G01*
X213*
Y1223*
X940*
G37*
X1513Y588D02*
G36*
Y468D01*
X2268*
Y588*
X2006*
G75*
G02X1949I-29*
G01*
X1831*
G75*
G02X1774I-29*
G01*
X1513*
G37*
X1774D02*
G36*
G75*
G02X1831I29D01*
G01*
X1949*
G75*
G02X2006I29*
G01*
X2268*
Y648*
X1921*
G75*
G02X1864I-29*
G01*
X1513*
Y588*
X1774*
G37*
X3999Y2033D02*
G36*
G75*
G02X4056I29D01*
G01*
X4793*
G75*
G02X4848I28J-7*
G01*
X5258*
Y2072*
X3233*
Y2033*
X3999*
G37*
X558Y1989D02*
G75*
G02X638Y1983I40J-6D01*
G01*
G75*
G02X604Y1942I-41*
G01*
X738*
Y1613*
X1189*
G75*
G02X1178Y1635I16J23*
G01*
G75*
G02X1233I28*
G01*
G75*
G02X1221Y1613I-28*
G01*
X1277*
G75*
G02X1265Y1635I16J23*
G01*
G75*
G02X1320I28*
G01*
G75*
G02X1308Y1613I-28*
G01*
X1364*
G75*
G02X1353Y1635I16J23*
G01*
G75*
G02X1408I28*
G01*
G75*
G02X1396Y1613I-28*
G01*
X1452*
G75*
G02X1440Y1635I16J23*
G01*
G75*
G02X1495I28*
G01*
G75*
G02X1483Y1613I-28*
G01*
X1539*
G75*
G02X1528Y1635I16J23*
G01*
G75*
G02X1583I28*
G01*
G75*
G02X1571Y1613I-28*
G01*
X2058*
Y2303*
X768*
G75*
G02X776Y2283I-20J-20*
G01*
G75*
G02X719I-29*
G01*
G75*
G02X727Y2303I29*
G01*
X558*
Y1989*
X760Y1868D02*
G75*
G02X815I28D01*
G01*
G75*
G02X760I-28*
G01*
X833Y2083D02*
G75*
G02X888I28D01*
G01*
G75*
G02X833I-28*
G01*
X857Y2208D02*
G75*
G02X914I29D01*
G01*
G75*
G02X857I-29*
G01*
X969Y1763D02*
G75*
G02X1026I29D01*
G01*
G75*
G02X969I-29*
G01*
X970Y1843D02*
G75*
G02X1025I28D01*
G01*
G75*
G02X970I-28*
G01*
X1029Y1942D02*
G75*
G02X1086I29D01*
G01*
G75*
G02X1029I-29*
G01*
X1110Y2168D02*
G75*
G02X1165I28D01*
G01*
G75*
G02X1110I-28*
G01*
X1178Y1722D02*
G75*
G02X1233I28D01*
G01*
G75*
G02X1178I-28*
G01*
Y1810D02*
G75*
G02X1233I28D01*
G01*
G75*
G02X1178I-28*
G01*
X1264Y1998D02*
G75*
G02X1321I29D01*
G01*
G75*
G02X1264I-29*
G01*
X1265Y1722D02*
G75*
G02X1320I28D01*
G01*
G75*
G02X1265I-28*
G01*
Y1810D02*
G75*
G02X1320I28D01*
G01*
G75*
G02X1265I-28*
G01*
X1283Y2258D02*
G75*
G02X1338I28D01*
G01*
G75*
G02X1283I-28*
G01*
X1353Y1722D02*
G75*
G02X1408I28D01*
G01*
G75*
G02X1353I-28*
G01*
Y1810D02*
G75*
G02X1408I28D01*
G01*
G75*
G02X1353I-28*
G01*
X1361Y2043D02*
G75*
G02X1419I29D01*
G01*
G75*
G02X1361I-29*
G01*
X1363Y2258D02*
G75*
G02X1418I28D01*
G01*
G75*
G02X1363I-28*
G01*
X1440Y1722D02*
G75*
G02X1495I28D01*
G01*
G75*
G02X1440I-28*
G01*
Y1810D02*
G75*
G02X1495I28D01*
G01*
G75*
G02X1440I-28*
G01*
X1443Y2258D02*
G75*
G02X1498I28D01*
G01*
G75*
G02X1443I-28*
G01*
X1528Y1722D02*
G75*
G02X1583I28D01*
G01*
G75*
G02X1528I-28*
G01*
Y1810D02*
G75*
G02X1583I28D01*
G01*
G75*
G02X1528I-28*
G01*
X1613Y2168D02*
G75*
G02X1668I28D01*
G01*
G75*
G02X1613I-28*
G01*
X1754Y2103D02*
G75*
G02X1811I29D01*
G01*
G75*
G02X1754I-29*
G01*
X1769Y1713D02*
G75*
G02X1826I29D01*
G01*
G75*
G02X1769I-29*
G01*
Y1863D02*
G75*
G02X1826I29D01*
G01*
G75*
G02X1769I-29*
G01*
X1920Y1653D02*
G75*
G02X1975I28D01*
G01*
G75*
G02X1920I-28*
G01*
Y1803D02*
G75*
G02X1975I28D01*
G01*
G75*
G02X1920I-28*
G01*
X738Y1868D02*
G36*
Y1810D01*
X1178*
G75*
G02X1233I28*
G01*
X1265*
G75*
G02X1320I28*
G01*
X1353*
G75*
G02X1408I28*
G01*
X1440*
G75*
G02X1495I28*
G01*
X1528*
G75*
G02X1583I28*
G01*
X1921*
G75*
G02X1974I26J-8*
G01*
X2058*
Y1868*
X1826*
G75*
G02X1826Y1863I-28J-5*
G01*
G75*
G02X1769I-29*
G01*
G75*
G02X1769Y1868I29J0*
G01*
X1009*
G75*
G02X1025Y1843I-11J-25*
G01*
G75*
G02X970I-28*
G01*
G75*
G02X986Y1868I28*
G01*
X815*
G75*
G02X760I-28*
G01*
X738*
G37*
X760D02*
G36*
G75*
G02X815I28D01*
G01*
X986*
G75*
G02X1009I11J-25*
G01*
X1769*
G75*
G02X1826I28J-5*
G01*
X2058*
Y1942*
X1086*
G75*
G02X1029I-29*
G01*
X604*
X738*
Y1868*
X760*
G37*
X558Y2083D02*
G36*
Y2043D01*
X1361*
G75*
G02X1419I29*
G01*
X2058*
Y2083*
X1803*
G75*
G02X1762I-20J20*
G01*
X888*
G75*
G02X833I-28*
G01*
X558*
G37*
X833D02*
G36*
G75*
G02X888I28D01*
G01*
X1762*
G75*
G02X1754Y2103I20J20*
G01*
G75*
G02X1811I29*
G01*
G75*
G02X1803Y2083I-29*
G01*
X2058*
Y2168*
X1668*
G75*
G02X1613I-28*
G01*
X1165*
G75*
G02X1110I-28*
G01*
X558*
Y2083*
X833*
G37*
X558Y2208D02*
G36*
Y2168D01*
X1110*
G75*
G02X1165I28*
G01*
X1613*
G75*
G02X1668I28*
G01*
X2058*
Y2208*
X914*
G75*
G02X857I-29*
G01*
X558*
G37*
X857D02*
G36*
G75*
G02X914I29D01*
G01*
X2058*
Y2258*
X1498*
G75*
G02X1443I-28*
G01*
X1418*
G75*
G02X1363I-28*
G01*
X1338*
G75*
G02X1283I-28*
G01*
X761*
G75*
G02X719Y2283I-14J25*
G01*
G75*
G02X727Y2303I29*
G01*
X558*
Y2208*
X857*
G37*
X738Y1763D02*
G36*
Y1722D01*
X1178*
G75*
G02X1233I28*
G01*
X1265*
G75*
G02X1320I28*
G01*
X1353*
G75*
G02X1408I28*
G01*
X1440*
G75*
G02X1495I28*
G01*
X1528*
G75*
G02X1583I28*
G01*
X1771*
G75*
G02X1824I27J-10*
G01*
X2058*
Y1763*
X1026*
G75*
G02X969I-29*
G01*
X738*
G37*
X969D02*
G36*
G75*
G02X1026I29D01*
G01*
X2058*
Y1810*
X1974*
G75*
G02X1975Y1803I-26J-8*
G01*
G75*
G02X1920I-28*
G01*
G75*
G02X1921Y1810I27J0*
G01*
X1583*
G75*
G02X1528I-28*
G01*
X1495*
G75*
G02X1440I-28*
G01*
X1408*
G75*
G02X1353I-28*
G01*
X1320*
G75*
G02X1265I-28*
G01*
X1233*
G75*
G02X1178I-28*
G01*
X738*
Y1763*
X969*
G37*
X1029Y1942D02*
G36*
G75*
G02X1086I29D01*
G01*
X2058*
Y1998*
X1321*
G75*
G02X1264I-29*
G01*
X635*
G75*
G02X638Y1983I-38J-15*
G01*
G75*
G02X604Y1942I-41*
G01*
X1029*
G37*
X738Y1722D02*
G36*
Y1613D01*
X1189*
G75*
G02X1178Y1635I16J23*
G01*
G75*
G02X1233I28*
G01*
G75*
G02X1221Y1613I-28*
G01*
X1277*
G75*
G02X1265Y1635I16J23*
G01*
G75*
G02X1320I28*
G01*
G75*
G02X1308Y1613I-28*
G01*
X1364*
G75*
G02X1353Y1635I16J23*
G01*
G75*
G02X1408I28*
G01*
G75*
G02X1396Y1613I-28*
G01*
X1452*
G75*
G02X1440Y1635I16J23*
G01*
G75*
G02X1495I28*
G01*
G75*
G02X1483Y1613I-28*
G01*
X1539*
G75*
G02X1528Y1635I16J23*
G01*
G75*
G02X1576Y1653I28*
G01*
X1920*
G75*
G02X1975I28*
G01*
X2058*
Y1722*
X1824*
G75*
G02X1826Y1713I-27J-10*
G01*
G75*
G02X1769I-29*
G01*
G75*
G02X1771Y1722I29J0*
G01*
X1583*
G75*
G02X1528I-28*
G01*
X1495*
G75*
G02X1440I-28*
G01*
X1408*
G75*
G02X1353I-28*
G01*
X1320*
G75*
G02X1265I-28*
G01*
X1233*
G75*
G02X1178I-28*
G01*
X738*
G37*
X1264Y1998D02*
G36*
G75*
G02X1321I29D01*
G01*
X2058*
Y2043*
X1419*
G75*
G02X1361I-29*
G01*
X558*
Y1989*
G75*
G02X635Y1998I40J-6*
G01*
X1264*
G37*
X1283Y2258D02*
G36*
G75*
G02X1338I28D01*
G01*
X1363*
G75*
G02X1418I28*
G01*
X1443*
G75*
G02X1498I28*
G01*
X2058*
Y2303*
X768*
G75*
G02X776Y2283I-20J-20*
G01*
G75*
G02X761Y2258I-29*
G01*
X1283*
G37*
X1576Y1653D02*
G36*
G75*
G02X1583Y1635I-21J-18D01*
G01*
G75*
G02X1571Y1613I-28*
G01*
X2058*
Y1653*
X1975*
G75*
G02X1920I-28*
G01*
X1576*
G37*
X3230Y72D02*
X3205D01*
X3227Y94*
X3230Y100*
X3227Y106*
X3221Y109*
X3211*
X3205Y106*
D02*
D11*
X330Y920D02*
X316Y906D01*
X330Y935D02*
X316Y949D01*
X345Y920D02*
X359Y906D01*
X345Y935D02*
X359Y949D01*
X485Y1880D02*
X471Y1866D01*
X485Y1895D02*
X471Y1909D01*
X500Y1880D02*
X514Y1866D01*
X500Y1895D02*
X514Y1909D01*
X581Y1999D02*
X567Y2013D01*
X614Y1966D02*
X628Y1952D01*
X614Y1999D02*
X628Y2013D01*
X676Y1883D02*
X656D01*
X688Y1872D02*
Y1852D01*
X737Y2283D02*
X717D01*
X748Y2272D02*
Y2252D01*
X759Y2283D02*
X779D01*
X874Y2208D02*
X854D01*
X885Y2197D02*
Y2177D01*
Y2219D02*
Y2239D01*
X896Y2208D02*
X916D01*
X897Y1373D02*
X876D01*
X897Y1548D02*
X876D01*
X908Y1361D02*
Y1341D01*
Y1384D02*
Y1404D01*
Y1537D02*
Y1516D01*
Y1559D02*
Y1579D01*
X919Y1373D02*
X939D01*
X919Y1548D02*
X939D01*
X987Y1763D02*
X967D01*
X998Y1752D02*
Y1732D01*
Y1774D02*
Y1794D01*
X1009Y1763D02*
X1029D01*
X1047Y1942D02*
X1027D01*
X1058Y1932D02*
Y1911D01*
Y1954D02*
Y1974D01*
X1069Y1942D02*
X1089D01*
X1282Y1998D02*
X1262D01*
X1293Y1986D02*
Y1966D01*
Y2009D02*
Y2029D01*
X1304Y1998D02*
X1324D01*
X1379Y2043D02*
X1359D01*
X1390Y2031D02*
Y2011D01*
Y2054D02*
Y2074D01*
X1397Y1218D02*
X1377D01*
X1401Y2043D02*
X1421D01*
X1408Y1207D02*
Y1187D01*
Y1229D02*
Y1249D01*
X1419Y1218D02*
X1438D01*
X1772Y2103D02*
X1752D01*
X1783Y2092D02*
Y2072D01*
Y2114D02*
Y2134D01*
X1786Y1523D02*
X1766D01*
X1786Y1713D02*
X1766D01*
X1786Y1863D02*
X1766D01*
X1791Y588D02*
X1772D01*
X1794Y2103D02*
X1813D01*
X1798Y1512D02*
Y1492D01*
Y1534D02*
Y1554D01*
Y1702D02*
Y1682D01*
Y1724D02*
Y1744D01*
Y1852D02*
Y1831D01*
Y1874D02*
Y1894D01*
X1803Y577D02*
Y556D01*
Y599D02*
Y619D01*
X1809Y1523D02*
X1829D01*
X1809Y1713D02*
X1829D01*
X1809Y1863D02*
X1829D01*
X1813Y588D02*
X1834D01*
X1881Y648D02*
X1861D01*
X1893Y636D02*
Y617D01*
Y659D02*
Y679D01*
X1904Y648D02*
X1924D01*
X1966Y588D02*
X1947D01*
X1978Y577D02*
Y556D01*
Y599D02*
Y619D01*
X1988Y588D02*
X2009D01*
X3582Y1558D02*
X3562D01*
X3593Y1547D02*
Y1527D01*
Y1569D02*
Y1589D01*
X3603Y1558D02*
X3624D01*
X4017Y2033D02*
X3997D01*
X4028Y2022D02*
Y2002D01*
Y2044D02*
Y2063D01*
X4038Y2033D02*
X4059D01*
X4369Y1556D02*
X4349D01*
X4380Y1545D02*
Y1525D01*
Y1567D02*
Y1587D01*
X4391Y1556D02*
X4411D01*
X4809Y2026D02*
X4789D01*
X4820Y2015D02*
Y1995D01*
Y2037D02*
Y2057D01*
X4831Y2026D02*
X4851D01*
D02*
D12*
X278Y278D03*
Y3203D03*
X5628Y278D03*
Y3203D03*
D02*
D13*
X2873Y258D03*
Y858D03*
X2973Y258D03*
Y858D03*
X3073Y258D03*
Y858D03*
X3173Y258D03*
Y858D03*
X3273Y258D03*
Y858D03*
X3373Y258D03*
Y858D03*
X3473Y258D03*
Y858D03*
X3572Y258D03*
Y858D03*
X3673Y258D03*
Y858D03*
X3773Y258D03*
Y858D03*
X3873Y258D03*
Y858D03*
X3973Y258D03*
Y858D03*
X4072Y258D03*
Y858D03*
X4173Y258D03*
Y858D03*
X4273Y258D03*
Y858D03*
X4372Y258D03*
Y858D03*
X4473Y258D03*
Y858D03*
X4572Y258D03*
Y858D03*
X4673Y258D03*
Y858D03*
X4773Y258D03*
Y858D03*
X4872Y258D03*
Y858D03*
X4973Y258D03*
Y858D03*
X5072Y258D03*
Y858D03*
X5173Y258D03*
Y858D03*
D02*
D14*
X3599Y3259D03*
Y3359D03*
X3828Y3257D03*
Y3358D03*
X5021Y3258D03*
Y3358D03*
X5258Y3257D03*
Y3358D03*
D02*
D15*
X803Y3763D03*
X1353D03*
X1903D03*
X2353D03*
X2803D03*
D02*
D16*
X703Y3663D03*
Y3863D03*
X903Y3663D03*
Y3863D03*
X1252Y3663D03*
Y3863D03*
X1453Y3663D03*
Y3863D03*
X1803Y3663D03*
Y3863D03*
X2003Y3663D03*
Y3863D03*
X2253Y3663D03*
Y3863D03*
X2453Y3663D03*
Y3863D03*
X2703Y3663D03*
Y3863D03*
X2903Y3663D03*
Y3863D03*
D02*
D17*
X3555Y3531D03*
X3609Y3631D03*
X3663Y3531D03*
X3717Y3631D03*
X3771Y3531D03*
X3825Y3631D03*
X3879Y3531D03*
X3933Y3631D03*
X3987Y3531D03*
X4989D03*
X5043Y3631D03*
X5097Y3531D03*
X5151Y3631D03*
X5205Y3531D03*
X5259Y3631D03*
X5313Y3531D03*
X5367Y3631D03*
X5421Y3531D03*
D02*
D18*
X3279Y3581D03*
X4263D03*
X4713D03*
X5697D03*
D02*
D19*
X598Y1983D03*
X768Y248D03*
X1028Y243D03*
X1273Y333D03*
X1768Y248D03*
X2018D03*
X2103Y3128D03*
X2223Y2958D03*
X2273Y338D03*
X2383Y1238D03*
X2643Y1328D03*
X2768Y1333D03*
Y3033D03*
X2803Y3243D03*
X2928Y3413D03*
X2968Y1333D03*
X5363Y513D03*
X5463Y618D03*
X5468Y953D03*
X5473Y793D03*
Y873D03*
Y1033D03*
Y2528D03*
Y2683D03*
X5783Y793D03*
Y873D03*
Y953D03*
Y1033D03*
Y1268D03*
Y1348D03*
Y2528D03*
Y2683D03*
D02*
D70*
X98Y3468D03*
X258Y3728D03*
X338Y928D03*
X428D03*
X493Y1888D03*
Y2192D03*
X523Y3453D03*
X527Y1823D03*
X548Y1448D03*
X598Y3283D03*
X608Y3498D03*
X688Y1883D03*
X693Y1558D03*
Y2963D03*
X748Y2283D03*
X788Y1868D03*
X808Y583D03*
X860Y2083D03*
X885Y2208D03*
X892Y643D03*
X898Y2438D03*
Y2588D03*
Y2733D03*
X903Y2893D03*
X908Y1373D03*
Y1548D03*
X963Y3133D03*
X968Y1223D03*
X978Y583D03*
X983Y3048D03*
X998Y1763D03*
Y1843D03*
X1058Y1942D03*
X1138Y2168D03*
X1163Y3288D03*
Y3498D03*
X1205Y1460D03*
Y1548D03*
Y1635D03*
Y1722D03*
Y1810D03*
X1248Y2963D03*
X1293Y1460D03*
Y1548D03*
Y1635D03*
Y1722D03*
Y1810D03*
Y1998D03*
X1310Y2258D03*
X1380Y1460D03*
Y1548D03*
Y1635D03*
Y1722D03*
Y1810D03*
X1390Y2043D03*
Y2258D03*
X1408Y1218D03*
X1458Y2438D03*
Y2588D03*
Y2733D03*
X1463Y2898D03*
X1468Y1460D03*
Y1548D03*
Y1635D03*
Y1722D03*
Y1810D03*
X1470Y2258D03*
X1518Y3138D03*
X1538Y3048D03*
X1553Y1548D03*
X1555Y1460D03*
Y1635D03*
Y1722D03*
Y1810D03*
X1640Y2168D03*
X1783Y2103D03*
X1798Y1523D03*
Y1713D03*
Y1863D03*
X1803Y588D03*
X1888Y1523D03*
X1893Y648D03*
X1948Y1653D03*
Y1803D03*
X1978Y588D03*
X3343Y2178D03*
Y2543D03*
X3438Y1423D03*
X3528Y1413D03*
X3558Y2217D03*
X3593Y1558D03*
X3598Y2698D03*
X3623Y1683D03*
X3638Y1813D03*
X3658Y2263D03*
Y2308D03*
X3683Y1813D03*
X3693Y2228D03*
X3728Y2342D03*
X3733Y1813D03*
X3773Y2342D03*
X3793Y2217D03*
X3848Y1828D03*
X4008Y1813D03*
X4028Y2033D03*
X4140Y2181D03*
Y2546D03*
X4228Y1418D03*
X4320Y1411D03*
X4355Y2221D03*
X4380Y1556D03*
X4415Y1686D03*
X4430Y1816D03*
X4465Y2241D03*
X4480Y1816D03*
X4500Y2336D03*
X4525Y1816D03*
X4545Y2336D03*
X4580Y2216D03*
X4585Y2276D03*
X4630D03*
X4640Y1816D03*
X4800Y1811D03*
X4820Y2026D03*
X5023Y2703D03*
X5438Y168D03*
Y258D03*
X5453Y1740D03*
X5473Y1268D03*
Y1423D03*
X5486Y1816D03*
X5591Y2369D03*
X5592Y2213D03*
Y2449D03*
X5593Y1188D03*
Y1345D03*
Y1976D03*
Y2054D03*
Y2133D03*
Y2291D03*
Y2606D03*
X5594Y1109D03*
Y1897D03*
X5595Y1503D03*
X5628Y1582D03*
X5629Y1661D03*
X5663Y1110D03*
Y1188D03*
Y1425D03*
Y1503D03*
Y1897D03*
Y1976D03*
Y2054D03*
Y2133D03*
Y2212D03*
Y2291D03*
Y2369D03*
Y2448D03*
Y2606D03*
X5775Y1542D03*
Y1621D03*
Y1700D03*
Y1780D03*
X0Y0D02*
M02*
