%FSLAX23Y23*%
%MOIN*%
G04 EasyPC Gerber Version 17.0 Build 3379 *
%ADD23C,0.00100*%
%ADD24C,0.00400*%
%ADD10C,0.00500*%
%ADD77C,0.00700*%
%ADD11C,0.01000*%
X0Y0D02*
D02*
D10*
X123Y3493D02*
X70D01*
Y3616*
X123*
Y3493*
X123Y3631D02*
X70D01*
Y3754*
X123*
Y3631*
X123Y3764D02*
X72D01*
X233Y3494D02*
X180D01*
Y3617*
X233*
Y3494*
X233Y3631D02*
X180D01*
Y3754*
X233*
Y3631*
X234Y3764D02*
X182D01*
X328Y1573D02*
Y1733D01*
X258*
Y1573*
X328*
X338Y3631D02*
X285D01*
Y3754*
X338*
Y3631*
X339Y3764D02*
X287D01*
X339Y3491D02*
X286D01*
Y3614*
X339*
Y3491*
X343Y1733D02*
Y1573D01*
X413*
Y1733*
X343*
X361Y1134D02*
G75*
G03X392I15D01*
G01*
G75*
G03X361I-15*
G01*
G36*
G75*
G03X392I15*
G01*
G75*
G03X361I-15*
G01*
G37*
X387Y3620D02*
X438D01*
X387Y3754D02*
X440D01*
Y3631*
X387*
Y3754*
X439Y3491D02*
X386D01*
Y3614*
X439*
Y3491*
X443Y1778D02*
G75*
G03Y1762J-8D01*
G01*
G75*
G03Y1778J8*
G01*
G36*
G75*
G03Y1762J-8*
G01*
G75*
G03Y1778J8*
G01*
G37*
X463Y1023D02*
X303D01*
Y953*
X463*
Y1023*
Y1108D02*
X303D01*
Y1038*
X463*
Y1108*
X523Y1134D02*
Y1561D01*
X242*
Y1134*
X523*
X525Y1246D02*
G75*
G03X537I6D01*
G01*
G75*
G03X525I-6*
G01*
G36*
G75*
G03X537I6*
G01*
G75*
G03X525I-6*
G01*
G37*
X543Y3631D02*
X490D01*
Y3754*
X543*
Y3631*
X544Y3764D02*
X492D01*
X544Y3491D02*
X491D01*
Y3614*
X544*
Y3491*
X550Y3014D02*
X710D01*
Y3084*
X550*
Y3014*
X553Y1788D02*
X713D01*
Y1858*
X553*
Y1788*
X573Y3262D02*
Y3102D01*
X643*
Y3262*
X573*
X620Y2406D02*
Y2566D01*
X550*
Y2406*
X620*
Y2580D02*
Y2740D01*
X550*
Y2580*
X620*
Y2752D02*
Y2912D01*
X550*
Y2752*
X620*
X623Y207D02*
Y368D01*
X553*
Y207*
X623*
X643Y3308D02*
Y3468D01*
X573*
Y3308*
X643*
X653Y3713D02*
Y3813D01*
X656Y3111D02*
G75*
G03X671I8D01*
G01*
G75*
G03X656I-8*
G01*
G36*
G75*
G03X671I8*
G01*
G75*
G03X656I-8*
G01*
G37*
X660Y3380D02*
X852D01*
Y3100*
X660*
Y3225*
X675*
Y3255*
X660*
Y3380*
X683Y3558D02*
Y3398D01*
X753*
Y3558*
X683*
X702Y2406D02*
Y2566D01*
X632*
Y2406*
X702*
Y2580D02*
Y2740D01*
X632*
Y2580*
X702*
Y2753D02*
Y2913D01*
X632*
Y2753*
X702*
X713Y207D02*
Y368D01*
X643*
Y207*
X713*
Y1773D02*
Y1582D01*
X433*
Y1773*
X558*
Y1758*
X587*
Y1773*
X713*
X723Y1278D02*
Y1438D01*
X653*
Y1278*
X723*
X733Y1843D02*
Y1683D01*
X803*
Y1843*
X733*
X756Y383D02*
X1031D01*
Y532*
X756*
Y383*
X792Y2924D02*
Y3084D01*
X722*
Y2924*
X792*
X803Y1513D02*
Y1673D01*
X733*
Y1513*
X803*
X813Y1728D02*
X973D01*
Y1798*
X813*
Y1728*
Y1808D02*
X973D01*
Y1878*
X813*
Y1808*
X825Y1913D02*
Y2072D01*
X755*
Y1913*
X825*
Y2083D02*
Y2243D01*
X755*
Y2083*
X825*
X838Y3398D02*
Y3558D01*
X768*
Y3398*
X838*
X843Y1908D02*
X1002D01*
Y1978*
X843*
Y1908*
Y1988D02*
X1002D01*
Y2058*
X843*
Y1988*
X853Y3613D02*
X753D01*
X853Y3913D02*
X753D01*
X875Y2924D02*
Y3084D01*
X805*
Y2924*
X875*
X875Y2475D02*
X715D01*
Y2405*
X875*
Y2475*
Y2625D02*
X715D01*
Y2555*
X875*
Y2625*
Y2771D02*
X715D01*
Y2701*
X875*
Y2771*
Y2913D02*
X715D01*
Y2843*
X875*
Y2913*
X937Y3099D02*
Y3259D01*
X867*
Y3099*
X937*
Y3273D02*
Y3433D01*
X867*
Y3273*
X937*
X953Y3713D02*
Y3813D01*
X957Y2924D02*
Y3084D01*
X887*
Y2924*
X957*
X1002Y1248D02*
Y1408D01*
X933*
Y1248*
X1002*
Y1423D02*
Y1583D01*
X933*
Y1423*
X1002*
X1053Y2138D02*
X892D01*
Y2067*
X1053*
Y2138*
X1105Y2067D02*
X1265D01*
Y2138*
X1105*
Y2067*
X1105Y3017D02*
X1265D01*
Y3087*
X1105*
Y3017*
X1106Y1394D02*
Y1897D01*
X1648*
Y1355*
X1146*
X1106Y1394*
X1129Y3263D02*
Y3103D01*
X1199*
Y3263*
X1129*
X1138Y207D02*
Y368D01*
X1067*
Y207*
X1138*
X1175Y2406D02*
Y2566D01*
X1105*
Y2406*
X1175*
Y2578D02*
Y2738D01*
X1105*
Y2578*
X1175*
Y2752D02*
Y2912D01*
X1105*
Y2752*
X1175*
X1199Y3312D02*
Y3472D01*
X1129*
Y3312*
X1199*
X1202Y3713D02*
Y3813D01*
X1213Y3113D02*
G75*
G03X1228I8D01*
G01*
G75*
G03X1213I-8*
G01*
G36*
G75*
G03X1228I8*
G01*
G75*
G03X1213I-8*
G01*
G37*
X1217Y3382D02*
X1408D01*
Y3103*
X1217*
Y3228*
X1232*
Y3257*
X1217*
Y3382*
X1223Y1183D02*
X1383D01*
Y1252*
X1223*
Y1183*
X1228Y207D02*
Y368D01*
X1158*
Y207*
X1228*
X1234Y3558D02*
Y3398D01*
X1304*
Y3558*
X1234*
X1259Y2406D02*
Y2566D01*
X1189*
Y2406*
X1259*
Y2580D02*
Y2740D01*
X1189*
Y2580*
X1259*
Y2753D02*
Y2913D01*
X1189*
Y2753*
X1259*
X1275Y2228D02*
Y2067D01*
X1345*
Y2228*
X1275*
X1348Y2927D02*
Y3087D01*
X1278*
Y2927*
X1348*
X1355Y2228D02*
Y2067D01*
X1425*
Y2228*
X1355*
X1388Y3398D02*
Y3558D01*
X1318*
Y3398*
X1388*
X1403Y3613D02*
X1303D01*
X1403Y3913D02*
X1303D01*
X1430Y2927D02*
Y3087D01*
X1360*
Y2927*
X1430*
X1432Y2475D02*
X1272D01*
Y2405*
X1432*
Y2475*
Y2624D02*
X1272D01*
Y2554*
X1432*
Y2624*
Y2772D02*
X1272D01*
Y2702*
X1432*
Y2772*
Y2914D02*
X1272D01*
Y2844*
X1432*
Y2914*
X1435Y2228D02*
Y2067D01*
X1505*
Y2228*
X1435*
X1492Y3103D02*
Y3263D01*
X1422*
Y3103*
X1492*
Y3277D02*
Y3437D01*
X1422*
Y3277*
X1492*
X1503Y3713D02*
Y3813D01*
X1512Y2927D02*
Y3087D01*
X1442*
Y2927*
X1512*
X1618Y211D02*
Y371D01*
X1548*
Y211*
X1618*
X1675Y2138D02*
X1515D01*
Y2067*
X1675*
Y2138*
X1688Y2228D02*
Y2067D01*
X1758*
Y2228*
X1688*
X1712Y211D02*
Y371D01*
X1642*
Y211*
X1712*
X1753Y3713D02*
Y3813D01*
X1755Y387D02*
X2030D01*
Y537*
X1755*
Y387*
X1923Y1498D02*
X1763D01*
Y1428*
X1923*
Y1498*
Y1688D02*
X1763D01*
Y1618*
X1923*
Y1688*
Y1838D02*
X1763D01*
Y1768*
X1923*
Y1838*
X1933Y3558D02*
X1773D01*
Y3488*
X1933*
Y3558*
X1953Y3613D02*
X1853D01*
X1953Y3913D02*
X1853D01*
X2053Y3713D02*
Y3813D01*
X2138Y213D02*
Y373D01*
X2067*
Y213*
X2138*
X2203Y3713D02*
Y3813D01*
X2217Y3003D02*
Y3163D01*
X2148*
Y3003*
X2217*
X2228Y213D02*
Y373D01*
X2158*
Y213*
X2228*
X2303Y3003D02*
Y3163D01*
X2233*
Y3003*
X2303*
X2383Y3558D02*
X2223D01*
Y3488*
X2383*
Y3558*
X2403Y3613D02*
X2303D01*
X2403Y3913D02*
X2303D01*
X2493Y1202D02*
Y1363D01*
X2422*
Y1202*
X2493*
X2503Y3713D02*
Y3813D01*
X2583Y1202D02*
Y1363D01*
X2513*
Y1202*
X2583*
X2603Y3163D02*
X2442D01*
Y3093*
X2603*
Y3163*
X2653Y3713D02*
Y3813D01*
X2783Y3163D02*
X2623D01*
Y3093*
X2783*
Y3163*
X2798Y207D02*
G75*
G03X2840I21D01*
G01*
G75*
G03X2798I-21*
G01*
G36*
G75*
G03X2840I21*
G01*
G75*
G03X2798I-21*
G01*
G37*
X2818Y913D02*
X5228D01*
Y203*
X2818*
Y551*
X2824*
Y564*
X2818*
Y913*
X2833Y3560D02*
X2673D01*
Y3490*
X2833*
Y3560*
X2848Y3368D02*
Y3208D01*
X2918*
Y3368*
X2848*
X2853Y3613D02*
X2753D01*
X2853Y3913D02*
X2753D01*
X2933Y3368D02*
Y3208D01*
X3003*
Y3368*
X2933*
X2953Y3713D02*
Y3813D01*
X3114Y1511D02*
Y2853D01*
X2221*
Y1511*
X3114*
X3373Y2103D02*
X3533D01*
Y2172*
X3373*
Y2103*
Y2183D02*
X3533D01*
Y2253*
X3373*
Y2183*
Y2283D02*
X3533D01*
Y2353*
X3373*
Y2283*
Y2383D02*
X3533D01*
Y2453*
X3373*
Y2383*
Y2467D02*
X3533D01*
Y2538*
X3373*
Y2467*
Y2547D02*
X3533D01*
Y2618*
X3373*
Y2547*
X3538Y1448D02*
Y2063D01*
X3338*
Y1448*
X3538*
X3576Y1930D02*
X3893D01*
Y1580*
X3576*
Y1753*
X3591*
Y1783*
X3576*
Y1930*
X3605Y2453D02*
X3870D01*
Y2103*
X3605*
Y2276*
X3620*
Y2306*
X3605*
Y2453*
X3628Y1378D02*
Y1538D01*
X3558*
Y1378*
X3628*
X3634Y3027D02*
Y3187D01*
X3564*
Y3027*
X3634*
X3673Y2730D02*
Y3010D01*
X3523*
Y2730*
X3673*
X3708Y1378D02*
Y1538D01*
X3638*
Y1378*
X3708*
X3861Y3025D02*
Y3185D01*
X3791*
Y3025*
X3861*
X3903Y2730D02*
Y3010D01*
X3753*
Y2730*
X3903*
X3908Y1828D02*
Y1668D01*
X3978*
Y1828*
X3908*
X3978Y1843D02*
Y2003D01*
X3908*
Y1843*
X3978*
X4063D02*
Y2003D01*
X3993*
Y1843*
X4063*
X4170Y2106D02*
X4330D01*
Y2176*
X4170*
Y2106*
Y2186D02*
X4330D01*
Y2256*
X4170*
Y2186*
Y2286D02*
X4330D01*
Y2356*
X4170*
Y2286*
Y2391D02*
X4330D01*
Y2461*
X4170*
Y2391*
Y2471D02*
X4330D01*
Y2541*
X4170*
Y2471*
Y2551D02*
X4330D01*
Y2621*
X4170*
Y2551*
X4330Y1446D02*
Y2061D01*
X4130*
Y1446*
X4330*
X4367Y1928D02*
X4684D01*
Y1578*
X4367*
Y1751*
X4382*
Y1781*
X4367*
Y1928*
X4392Y2446D02*
X4658D01*
Y2096*
X4392*
Y2269*
X4407*
Y2299*
X4392*
Y2446*
X4415Y1376D02*
Y1536D01*
X4345*
Y1376*
X4415*
X4495D02*
Y1536D01*
X4425*
Y1376*
X4495*
X4700Y1826D02*
Y1666D01*
X4770*
Y1826*
X4700*
X4770Y1841D02*
Y2001D01*
X4700*
Y1841*
X4770*
X4855D02*
Y2001D01*
X4785*
Y1841*
X4855*
X5058Y3023D02*
Y3183D01*
X4988*
Y3023*
X5058*
X5098Y2729D02*
Y3009D01*
X4947*
Y2729*
X5098*
X5293Y3023D02*
Y3183D01*
X5223*
Y3023*
X5293*
X5318Y133D02*
Y293D01*
X5248*
Y133*
X5318*
X5323Y798D02*
Y578D01*
X5403*
Y798*
X5323*
X5333Y2731D02*
Y3011D01*
X5183*
Y2731*
X5333*
X5408Y133D02*
Y293D01*
X5338*
Y133*
X5408*
X5413Y1673D02*
Y1833D01*
X5343*
Y1673*
X5413*
X5756Y740D02*
Y2740D01*
X5500*
Y740*
X5756*
D02*
D11*
X3437Y3906D02*
Y3946D01*
X3649Y3209D02*
Y3409D01*
X3549*
Y3209*
X3649*
X3878Y3208D02*
Y3408D01*
X3778*
Y3208*
X3878*
X4099Y3906D02*
Y3946D01*
X4327Y3481D02*
X3215D01*
G75*
G02X3165Y3531J50*
G01*
Y3943*
X4377*
Y3531*
G75*
G02X4327Y3481I-50*
G01*
X4871Y3906D02*
Y3946D01*
X5071Y3208D02*
Y3408D01*
X4971*
Y3208*
X5071*
X5308Y3208D02*
Y3408D01*
X5208*
Y3208*
X5308*
X5533Y3906D02*
Y3946D01*
X5761Y3481D02*
X4649D01*
G75*
G02X4599Y3531J50*
G01*
Y3943*
X5811*
Y3531*
G75*
G02X5761Y3481I-50*
G01*
D02*
D23*
X167Y578D02*
Y642D01*
X179Y642*
X187Y642*
X192Y641*
X195Y640*
X198Y639*
X203Y634*
X206Y627*
X206Y620*
X204Y615*
X201Y611*
X196Y609*
X193Y608*
X196Y607*
X198Y606*
X201Y603*
X204Y597*
X209Y587*
X214Y578*
X205*
X200Y588*
X196Y596*
X194Y600*
X192Y603*
X189Y604*
X185Y605*
X180Y606*
X176Y606*
Y578*
X167*
X189Y612D02*
X194Y614D01*
X196Y617*
X197Y619*
X198Y623*
X197Y627*
X197Y629*
X194Y633*
X190Y635*
X186Y635*
X182Y635*
X176*
Y612*
X181*
X186Y612*
X189Y612*
X233Y578D02*
X229Y580D01*
X226Y583*
X222Y590*
X220Y600*
X222Y614*
X228Y623*
X233Y626*
X239Y627*
X245Y626*
X251Y625*
X254Y621*
X257Y617*
X260Y608*
X260Y597*
X256Y585*
X248Y579*
X241Y577*
X233Y578*
X244Y644D02*
X237Y654D01*
X232Y660*
X228Y666*
X222Y672*
X219Y675*
X215Y679*
X210Y684*
X205Y688*
X197Y695*
X192Y700*
X189Y703*
X189Y704*
X190Y706*
X194Y709*
X201Y715*
X210Y722*
X216Y727*
X220Y730*
X223Y731*
X224Y732*
X226*
X228Y726*
X233Y717*
X237Y708*
X240Y700*
X242Y696*
X244Y694*
X247Y694*
X248Y696*
X251Y701*
X254Y708*
X258Y717*
X262Y726*
X268Y737*
X273Y748*
X278Y758*
X284Y768*
X291Y778*
X297Y787*
X301Y794*
X305Y797*
X308Y801*
X312Y805*
X316Y809*
X320Y812*
X323Y814*
X325Y816*
X326Y816*
X325Y816*
X324Y815*
X323Y814*
X323Y814*
X326Y816*
X328Y815*
X328Y811*
X328Y804*
X327Y795*
X327Y784*
Y773*
X328Y760*
X328Y754*
X327Y750*
X326Y748*
X323Y746*
X314Y738*
X307Y731*
X300Y723*
X293Y714*
X270Y681*
X254Y650*
X251Y644*
X249Y641*
X247Y640*
X244Y644*
X246Y585D02*
X249Y588D01*
X251Y592*
X252Y597*
X252Y602*
X252Y607*
X252Y611*
X247Y618*
X240Y621*
X234Y619*
X230Y615*
X229Y610*
X228Y603*
X228Y595*
X230Y590*
X233Y586*
X237Y584*
X241Y584*
X246Y585*
X253Y523D02*
X241Y524D01*
X231Y525*
X222Y528*
X212Y530*
X186Y541*
X163Y556*
X142Y574*
X125Y596*
X107Y631*
X97Y669*
X96Y673*
X96Y677*
X96Y682*
X96Y690*
X96Y699*
X96Y706*
X97Y712*
X98Y718*
X110Y759*
X132Y795*
X162Y824*
X198Y846*
X247Y858*
X297Y856*
X320Y849*
X342Y840*
X362Y828*
X380Y813*
X396Y796*
X409Y777*
X420Y755*
X427Y733*
X432Y680*
X421Y629*
X401Y592*
X372Y562*
X337Y539*
X297Y525*
X281Y523*
X263Y522*
X256Y522*
X253Y523*
X273Y578D02*
Y642D01*
X281*
Y616*
X305*
Y642*
X313*
Y578*
X305*
X305Y593*
X305Y609*
X281*
X281Y593*
X281Y578*
X273*
X280Y534D02*
X314Y541D01*
X345Y556*
X372Y577*
X395Y604*
X411Y636*
X419Y671*
X419Y707*
X411Y742*
X400Y765*
X386Y787*
X369Y805*
X348Y821*
X341Y825*
X334Y829*
X326Y832*
X319Y835*
X275Y845*
X231Y842*
X190Y826*
X154Y799*
X131Y770*
X116Y736*
X109Y699*
X111Y661*
X122Y627*
X140Y596*
X143Y591*
X146Y588*
X149Y584*
X153Y580*
X175Y562*
X199Y548*
X225Y538*
X253Y534*
X259Y534*
X266Y534*
X274Y534*
X280Y534*
X336Y578D02*
X330Y580D01*
X326Y581*
Y590*
X331Y587*
X339Y584*
X347Y584*
X353Y586*
X357Y590*
X358Y596*
X356Y602*
X352Y605*
X344Y607*
X335Y610*
X330Y613*
X326Y618*
X325Y625*
X327Y632*
X331Y637*
X337Y642*
X346Y643*
X360Y641*
X362Y640*
Y636*
X362Y633*
X362Y632*
X361Y632*
X359Y633*
X351Y636*
X343Y636*
X337Y634*
X334Y629*
X333Y624*
X335Y620*
X339Y617*
X346Y615*
X353Y613*
X358Y610*
X362Y607*
X364Y604*
X365Y601*
X365Y595*
X365Y590*
X364Y587*
X359Y581*
X352Y578*
X344Y577*
X336Y578*
X639Y971D02*
X637Y969D01*
X636Y967*
X635Y967*
X636Y967*
X637Y969*
X639Y971*
X642Y895D02*
X642Y895D01*
X642Y895*
X642Y893*
X642Y892*
X643Y887*
X645Y884*
X645Y883*
X643Y885*
X642Y888*
X641Y892*
X642Y895*
X642Y895*
X642Y895*
Y897D02*
X641Y896D01*
X640Y895*
X640Y891*
X641Y887*
X642Y884*
X644Y882*
X645Y881*
X646Y882*
X646Y882*
X646Y884*
X645Y888*
X643Y892*
X643Y893*
X643Y894*
X643Y896*
X642Y897*
X643Y928D02*
X641Y923D01*
X642Y919*
X643Y915*
X646Y911*
X648Y909*
X648Y909*
X648*
X647Y909*
X643Y911*
X639Y915*
X638Y919*
X639Y923*
X643Y928*
X646Y896D02*
X646D01*
X646Y896*
X649Y895*
X651Y893*
X652Y891*
X651Y889*
X650Y885*
X649Y883*
X650Y885*
X649Y890*
X647Y894*
X646Y896*
X646Y896*
X646Y896*
X646Y898D02*
X645Y897D01*
X644Y896*
X645Y895*
X646Y893*
X648Y890*
X648Y886*
X648Y882*
X648Y882*
X649Y881*
X650Y882*
X652Y885*
X653Y888*
X653Y891*
X653Y893*
X650Y896*
X647Y898*
X646Y898*
X647Y934D02*
X647Y934D01*
X647Y934*
X644Y931*
X639Y925*
X637Y919*
X638Y914*
X642Y910*
X646Y908*
X647Y907*
X649Y907*
X649Y908*
X649Y910*
X647Y912*
X644Y916*
X643Y921*
X643Y926*
X645Y930*
X648Y933*
X648Y933*
X647Y934*
X650Y976D02*
X655Y976D01*
X661Y972*
X665Y967*
X665Y961*
X661Y956*
X661Y956*
X657Y952*
X651Y950*
X644Y949*
X637Y950*
X634Y951*
X632Y953*
X630Y956*
X629Y958*
X628Y961*
X629Y965*
X630Y968*
X632Y970*
X636Y973*
X643Y975*
X650Y976*
Y978D02*
X643Y977D01*
X636Y975*
X631Y971*
X628Y968*
X627Y965*
X627Y961*
X627Y958*
X629Y955*
X631Y952*
X634Y950*
X637Y949*
X644Y948*
X651Y949*
X657Y951*
X662Y955*
X666Y961*
X666Y967*
X662Y973*
X656Y977*
X650Y978*
X651Y1106D02*
X643Y1091D01*
X634Y1075*
X627Y1059*
X622Y1046*
X613Y1009*
X612Y970*
X617Y930*
X629Y888*
X636Y871*
X645Y852*
X655Y834*
X665Y818*
X666Y815*
X665Y815*
X665Y816*
X663Y818*
X658Y824*
X652Y835*
X644Y848*
X627Y887*
X616Y924*
X610Y960*
X610Y994*
X613Y1014*
X617Y1034*
X624Y1054*
X633Y1075*
X640Y1088*
X649Y1102*
X651Y1106*
X653Y973D02*
X653D01*
X656Y972*
X658Y971*
X660Y968*
X662Y966*
X662Y963*
X661Y960*
X659Y957*
X657Y955*
X658Y960*
X658Y961*
X657Y961*
X657Y961*
X656Y960*
X655Y958*
X653Y954*
X649Y953*
X647Y952*
X648Y953*
X649Y953*
X649Y954*
X648Y954*
X648Y954*
X646Y954*
X645Y955*
X643Y956*
X639Y959*
X636Y962*
X635Y962*
X634Y963*
X634Y962*
X634Y961*
X634Y960*
X637Y956*
X639Y953*
X639Y953*
X637Y954*
X634Y956*
X632Y958*
X631Y959*
X631Y961*
X631Y963*
X633Y967*
X635Y970*
X637Y970*
X636Y970*
X634Y968*
X634Y967*
X634Y965*
X635Y965*
X636Y965*
X637Y966*
X639Y969*
X641Y972*
X642Y972*
X643*
X646Y972*
X650Y970*
X653Y969*
X655Y967*
X656Y965*
X657Y963*
X657Y963*
X657Y963*
X658Y962*
X658Y963*
X658Y963*
X658Y964*
X658Y965*
X657Y968*
X655Y971*
X653Y973*
X653Y973*
X653Y974D02*
X652Y974D01*
X651Y973*
X651Y973*
X652Y972*
X654Y970*
X656Y968*
X657Y966*
X656Y968*
X654Y970*
X651Y971*
X647Y973*
X643Y974*
X641*
X640Y973*
X639Y971*
X639Y972*
Y972*
X639Y973*
X638Y973*
X637Y972*
X634Y971*
X632Y968*
X630Y963*
X630Y961*
X630Y959*
X633Y955*
X637Y952*
X639Y952*
X640Y953*
X640Y954*
X638Y957*
X635Y960*
X635Y961*
X638Y958*
X642Y955*
X645Y953*
X645Y953*
X643Y952*
X642Y952*
X643Y951*
X643Y951*
X646Y951*
X650Y951*
X654Y953*
X656Y957*
X657Y959*
X656Y956*
X655Y955*
X655Y955*
X655Y954*
X655Y954*
X655Y953*
X656Y954*
X657Y954*
X660Y956*
X662Y959*
X663Y963*
X663Y966*
X661Y969*
X659Y972*
X656Y973*
X653Y974*
X654Y908D02*
X652Y908D01*
X651Y908*
X651Y907*
X651Y906*
X652Y906*
X653Y906*
X655Y906*
X655Y907*
X655Y907*
X655*
Y908*
X655Y908*
X654Y908*
X655Y936D02*
X653Y936D01*
X653Y935*
X652Y935*
X653Y934*
X653Y934*
X654Y934*
X656Y934*
X657Y934*
X657Y935*
X657*
Y935*
X657Y935*
X655Y936*
X656Y932D02*
X662Y931D01*
X667Y928*
X670Y924*
X671Y919*
X671Y917*
X668Y914*
X666Y911*
X666Y909*
X666Y909*
X665Y909*
X664Y910*
X663Y910*
X663Y909*
X663Y909*
X663Y908*
Y908*
X663Y908*
X663Y907*
X662Y907*
X660Y908*
X657Y909*
X650Y913*
X648Y915*
X646Y916*
X644Y919*
X644Y922*
X645Y925*
X648Y928*
X652Y931*
X656Y932*
Y933D02*
X651Y933D01*
X647Y929*
X644Y926*
X643Y922*
X643Y919*
X645Y916*
X650Y911*
X657Y908*
X660Y907*
X662Y906*
X664Y906*
X664Y907*
X664Y908*
X665Y908*
X667Y908*
X667Y908*
X667Y908*
X667Y909*
X667Y909*
X667Y909*
X668Y910*
X669Y913*
X672Y916*
X673Y919*
X671Y925*
X667Y929*
X662Y932*
X656Y933*
Y937D02*
X665Y937D01*
X673Y934*
X678Y929*
X680Y923*
X681Y920*
X680Y918*
X679Y916*
X677Y914*
X673Y910*
X668Y907*
X663Y905*
X656Y905*
X651Y905*
X647Y906*
X643Y907*
X639Y910*
X637Y913*
X635Y916*
X636Y924*
X640Y930*
X647Y935*
X656Y937*
X660Y1120D02*
X659Y1120D01*
X659Y1119*
X658Y1118*
X655Y1115*
X652Y1109*
X648Y1103*
X639Y1088*
X632Y1075*
X623Y1055*
X616Y1035*
X611Y1015*
X608Y994*
X608Y960*
X614Y924*
X626Y886*
X643Y848*
X651Y834*
X657Y824*
X662Y817*
X664Y815*
X665Y814*
X667Y814*
X667Y815*
X667Y815*
X667Y817*
X666Y818*
X656Y835*
X646Y853*
X637Y872*
X630Y889*
X618Y930*
X613Y970*
X615Y1009*
X623Y1045*
X629Y1059*
X636Y1075*
X645Y1092*
X653Y1106*
X656Y1111*
X658Y1115*
X660Y1118*
X660Y1119*
X660Y1119*
Y1119*
X660Y1120*
X660Y1120*
X661Y938D02*
X656Y938D01*
X646Y936*
X639Y931*
X635Y924*
X634Y916*
X636Y912*
X639Y909*
X642Y906*
X646Y904*
X651Y904*
X656Y903*
X663Y904*
X669Y906*
X674Y909*
X678Y913*
X680Y915*
X681Y918*
X682Y923*
X679Y930*
X674Y935*
X668Y937*
X661Y938*
X663Y876D02*
X664Y874D01*
X667Y871*
X671Y869*
X671Y869*
X671*
X668Y870*
X665Y872*
X665Y872*
X663Y875*
X663Y876*
X663Y936D02*
X661Y936D01*
X660Y935*
X660Y935*
X660Y934*
X661Y934*
X662Y934*
X664Y934*
X665Y934*
X665Y935*
X665*
Y935*
X664Y935*
X663Y936*
X665Y886D02*
X665Y886D01*
X664Y883*
X663Y882*
X663Y883*
X664Y885*
X665Y886*
X667Y935D02*
X666Y934D01*
X667Y933*
X669Y930*
X672Y926*
X673Y923*
X673Y919*
X672Y915*
X671Y912*
X671Y911*
X671Y911*
X672Y910*
X672Y911*
X673Y911*
X676Y914*
X677Y917*
X678Y921*
X678Y925*
X676Y929*
X673Y932*
X669Y934*
X667Y935*
X668Y1130D02*
X667Y1130D01*
X665Y1128*
X663Y1125*
X661Y1122*
X660Y1121*
X660Y1120*
X660Y1120*
X661Y1120*
X661Y1120*
X662Y1120*
X663Y1121*
X666Y1125*
X668Y1128*
X668Y1129*
X668Y1130*
X668Y1130*
X668Y933D02*
X669Y933D01*
X672Y931*
X675Y928*
X677Y925*
X677Y921*
X676Y918*
X674Y915*
X673Y912*
X673Y912*
X673Y914*
X674Y923*
X670Y931*
X668Y933*
X668Y933*
X668Y889D02*
X664Y888D01*
X661Y885*
X658Y882*
X657Y877*
X658Y874*
X659Y872*
X663Y869*
X667Y867*
X672Y867*
X675Y867*
X676Y868*
X676Y869*
X678Y868*
X680Y868*
X681Y868*
X682Y869*
Y870*
X682Y871*
X683Y874*
X684Y878*
X684Y882*
X681Y885*
X677Y888*
X672Y889*
X668Y889*
X668Y888D02*
X672Y888D01*
X677Y886*
X680Y884*
X683Y881*
X683Y878*
X682Y874*
X681Y871*
X681Y870*
X681Y869*
X680Y869*
X678Y870*
X676Y870*
X675Y869*
X675Y868*
X675Y868*
X675Y868*
X674*
X672Y868*
X671Y868*
X674Y868*
X674Y869*
X671Y871*
X668Y872*
X665Y875*
X663Y877*
X662Y878*
X661Y877*
X661Y877*
X662Y875*
X664Y872*
X664Y872*
X666Y869*
X669Y868*
X663Y870*
X660Y873*
X659Y874*
X659Y877*
X659Y881*
X661Y884*
X663Y886*
X663Y885*
X662Y883*
X661Y881*
X661Y880*
X662Y880*
X663Y880*
X665Y883*
X666Y885*
X667Y886*
X667Y887*
X666Y887*
X668Y888*
X675Y1138D02*
X674Y1138D01*
X674Y1138*
X673Y1137*
X670Y1135*
X668Y1132*
X668Y1132*
X668Y1131*
X668Y1131*
X668Y1130*
X669Y1130*
X669Y1131*
X670Y1131*
X673Y1134*
X675Y1136*
X675Y1137*
X675Y1137*
X675Y1138*
X675Y1138*
X678Y892D02*
X683Y891D01*
X687Y889*
X691Y885*
X692Y879*
X690Y873*
X685Y869*
X680Y867*
X674Y866*
X667Y866*
X663Y866*
X659Y869*
X657Y871*
X656Y875*
X655Y878*
X656Y882*
X658Y885*
X661Y888*
X665Y890*
X671Y891*
X678Y892*
X678Y893D02*
X671Y893D01*
X665Y891*
X661Y889*
X657Y886*
X655Y882*
X654Y879*
X654Y875*
X656Y871*
X658Y868*
X662Y865*
X667Y864*
X674Y865*
X681Y866*
X686Y868*
X691Y872*
X693Y879*
X692Y885*
X688Y890*
X684Y892*
X678Y893*
X681Y890D02*
X680Y890D01*
Y888*
X682Y886*
X684Y883*
X685Y880*
X684Y876*
X683Y872*
X683Y871*
X682Y870*
X683Y870*
X683Y870*
X684Y870*
X685Y870*
X686Y872*
X689Y876*
X690Y880*
X689Y884*
X686Y887*
X683Y889*
X681Y890*
X681Y889D02*
X683Y888D01*
X686Y886*
X688Y883*
X689Y880*
X688Y876*
X686Y873*
X685Y872*
X686Y876*
X686Y880*
X685Y884*
X683Y887*
X681Y889*
X685Y908D02*
X685Y908D01*
X685Y907*
X684Y905*
X684Y903*
X685Y901*
X688Y899*
X690Y896*
X690Y896*
X690Y896*
X687Y898*
X684Y901*
X684Y904*
X684Y907*
X685Y908*
X685Y908*
X686Y910D02*
X685Y910D01*
X683Y908*
X682Y905*
X683Y901*
X686Y897*
X689Y895*
X690Y894*
X691Y894*
X692Y895*
X692Y896*
X691Y897*
X689Y900*
X686Y902*
X685Y904*
X685Y905*
X686Y906*
X687Y908*
X687Y909*
X687Y909*
X686Y910*
X688Y1133D02*
X688Y1132D01*
X687Y1130*
X685Y1127*
X682Y1123*
X678Y1118*
X673Y1110*
X666Y1101*
X658Y1088*
X649Y1072*
X641Y1055*
X635Y1040*
X632Y1028*
X629Y1015*
X627Y1009*
X626Y1003*
X626Y999*
X626Y995*
X626Y990*
X627Y987*
X629Y984*
X632Y984*
X634Y984*
X638Y985*
X647Y986*
X656Y987*
X659Y987*
X660Y988*
X661Y988*
X661Y989*
X661Y989*
X661Y991*
X662Y998*
X662Y1008*
X663Y1020*
X664Y1041*
X665Y1056*
X668Y1071*
X673Y1088*
X677Y1101*
X681Y1112*
X685Y1120*
X690Y1127*
X691Y1128*
Y1128*
X689Y1123*
X686Y1114*
X676Y1087*
X669Y1060*
X667Y1051*
X666Y1042*
X666Y1031*
X666Y1014*
X665Y1003*
X665Y993*
X665Y986*
X665Y984*
X665Y983*
X665Y983*
X664Y983*
X662Y982*
X659Y982*
X654Y982*
X646Y983*
X638Y981*
X632Y980*
X628Y979*
X626Y980*
X624Y982*
X623Y988*
X623Y996*
X624Y1006*
X626Y1017*
X631Y1038*
X640Y1060*
X650Y1082*
X662Y1102*
X670Y1113*
X678Y1123*
X682Y1127*
X685Y1131*
X688Y1132*
X688Y1133*
X688Y1134D02*
X687Y1134D01*
X685Y1132*
X681Y1128*
X677Y1124*
X669Y1114*
X661Y1103*
X649Y1082*
X638Y1060*
X630Y1038*
X624Y1017*
X623Y1006*
X622Y996*
X622Y988*
X623Y982*
X625Y979*
X628Y978*
X632Y978*
X639Y980*
X646Y981*
X654Y981*
X659Y981*
X662Y981*
X666Y982*
X666Y983*
X666Y984*
X666Y986*
X667Y993*
X667Y1003*
X667Y1014*
X667Y1031*
X668Y1042*
X669Y1050*
X671Y1060*
X677Y1086*
X687Y1113*
X691Y1122*
X692Y1128*
X692Y1129*
X692Y1130*
X691Y1130*
X690Y1129*
X689Y1127*
X684Y1121*
X680Y1113*
X676Y1102*
X671Y1088*
X667Y1071*
X664Y1056*
X662Y1041*
X661Y1020*
X661Y1008*
X661Y998*
X660Y991*
X660Y989*
X660Y989*
Y989*
X659Y989*
X659Y988*
X656Y988*
X647Y987*
X637Y986*
X632Y985*
X630Y985*
X629Y987*
X627Y991*
X627Y995*
X627Y999*
X628Y1003*
X629Y1009*
X630Y1015*
X633Y1027*
X637Y1039*
X642Y1054*
X650Y1071*
X659Y1087*
X667Y1100*
X674Y1110*
X679Y1117*
X683Y1122*
X686Y1127*
X688Y1130*
X689Y1131*
X689Y1133*
X689Y1134*
X688Y1134*
X689Y909D02*
X690Y908D01*
X690Y908*
X692Y905*
X693Y902*
X693Y901*
X691Y903*
X690Y907*
X689Y908*
Y908*
X689Y909*
Y910D02*
X688Y910D01*
X687Y909*
X687Y908*
X688Y906*
X690Y903*
X693Y900*
X694Y899*
X694*
X695Y899*
Y900*
X695Y902*
X693Y905*
X691Y908*
X690Y909*
X689Y910*
X690Y1155D02*
X690Y1155D01*
X690Y1155*
X689Y1155*
X687Y1153*
X682Y1148*
X677Y1143*
X676Y1141*
X676Y1141*
X676Y1140*
X676Y1140*
X676Y1140*
X677Y1140*
X677Y1140*
X677Y1140*
X679Y1142*
X684Y1147*
X689Y1152*
X691Y1154*
X691Y1154*
X691Y1155*
X691Y1155*
X690Y1155*
X700Y1163D02*
X699Y1163D01*
X699Y1163*
X698Y1162*
X696Y1160*
X695Y1160*
X695Y1159*
X695Y1159*
X695Y1158*
X696Y1158*
X697Y1158*
X699Y1160*
X700Y1162*
X700Y1162*
X700Y1162*
Y1163*
X700Y1163*
X700Y1163*
X700*
X700Y887D02*
X700Y885D01*
X701Y880*
Y879*
X700Y881*
X699Y882*
X698Y882*
X697Y880*
X695Y877*
X693Y872*
X690Y868*
X687Y864*
X683Y862*
X677Y860*
X670Y860*
X663*
X659Y859*
X656Y858*
X656Y855*
X657Y850*
X659Y845*
X663Y839*
X666Y835*
X671Y833*
X677Y833*
X681Y834*
X685Y836*
X690Y839*
X696Y842*
X702Y846*
X707Y849*
X711Y852*
X713Y854*
X715Y860*
X714Y868*
X710Y876*
X704Y883*
X701Y885*
X700Y887*
X702Y883D02*
X703Y882D01*
X709Y875*
X712Y868*
X713Y860*
X712Y855*
X710Y853*
X706Y850*
X701Y847*
X695Y843*
X689Y840*
X684Y837*
X680Y835*
X677Y834*
X671Y834*
X667Y836*
X664Y840*
X661Y845*
X658Y851*
X657Y855*
X657Y857*
X659Y858*
X663Y859*
X670Y859*
X677Y859*
X683Y860*
X688Y863*
X692Y867*
X694Y872*
X696Y876*
X698Y880*
X699Y881*
X699Y881*
X699Y880*
X700Y878*
X701Y876*
X701Y875*
X702Y875*
X702Y875*
X703Y876*
X703Y876*
X703Y877*
X702Y880*
X702Y883*
X703Y872D02*
X704Y872D01*
X706Y869*
X708Y866*
X709Y862*
X707Y859*
X706Y857*
X703Y854*
X699Y852*
X694Y849*
X688Y845*
X684Y843*
X680Y841*
X678Y839*
X674Y839*
X671Y840*
X668Y842*
X666Y845*
X664Y849*
X664Y852*
X665Y852*
X666Y853*
X668Y853*
X672Y853*
X680Y854*
X687Y856*
X692Y860*
X698Y866*
X701Y870*
X702Y872*
X703Y872*
X703Y874D02*
X702Y873D01*
X700Y871*
X697Y867*
X692Y861*
X686Y857*
X680Y855*
X672Y855*
X668Y855*
X666Y854*
X663Y852*
X663Y849*
X665Y845*
X667Y841*
X671Y838*
X674Y837*
X678Y838*
X681Y840*
X685Y841*
X689Y844*
X695Y848*
X700Y851*
X703Y853*
X706Y856*
X708Y858*
X710Y862*
X709Y866*
X707Y870*
X705Y873*
X703Y874*
X708Y1080D02*
X709D01*
X709Y1078*
X710Y1076*
X711Y1071*
X711Y1067*
X713Y1062*
X714Y1058*
X715Y1055*
X718Y1049*
X724Y1043*
X730Y1038*
X738Y1034*
X742Y1032*
X735Y1035*
X724Y1042*
X716Y1050*
X711Y1061*
X708Y1073*
X707Y1078*
X708Y1080*
X712Y1137D02*
X702Y1119D01*
X693Y1099*
X686Y1078*
X681Y1057*
X679Y1041*
X678Y1022*
X678Y1003*
X680Y987*
X686Y960*
X696Y932*
X709Y902*
X725Y871*
X729Y866*
X731Y861*
X733Y858*
X734Y856*
X734Y856*
X734Y856*
X733Y856*
X731Y859*
X728Y864*
X724Y870*
X716Y885*
X707Y901*
X695Y926*
X686Y950*
X680Y973*
X676Y996*
X675Y1018*
X676Y1040*
X680Y1062*
X686Y1085*
X691Y1098*
X697Y1112*
X704Y1125*
X712Y1137*
X714Y1064D02*
X712Y1071D01*
X711Y1076*
X710Y1079*
X709Y1081*
X708Y1081*
X706Y1078*
X706Y1076*
X706Y1073*
X709Y1060*
X715Y1049*
X723Y1041*
X734Y1034*
X741Y1031*
X744Y1030*
X746Y1029*
X746Y1029*
X746Y1030*
X746Y1030*
X746Y1031*
X745Y1032*
X739Y1035*
X731Y1039*
X725Y1044*
X719Y1050*
X716Y1056*
X715Y1059*
X714Y1064*
X717Y1083D02*
X717Y1082D01*
X718Y1081*
X719Y1076*
X722Y1069*
X726Y1063*
X731Y1058*
X738Y1054*
X755Y1048*
X778Y1045*
X785Y1045*
X792Y1045*
X800Y1046*
X809Y1046*
X822Y1047*
X838Y1049*
X859Y1051*
X886Y1054*
X917Y1057*
X944Y1058*
X966Y1057*
X982Y1054*
X987Y1053*
X986Y1047*
X985Y1042*
X985Y1038*
X984Y1036*
X984Y1034*
X983Y1033*
X980Y1034*
X976Y1034*
X969Y1035*
X960Y1035*
X949Y1035*
X935Y1036*
X924Y1036*
X913Y1035*
X902Y1034*
X888Y1032*
X877Y1031*
X869Y1029*
X867Y1028*
X866Y1028*
X867Y1030*
X870Y1035*
X870Y1036*
X871Y1037*
X871Y1037*
X870Y1038*
X870Y1038*
X869Y1038*
X868Y1037*
X865Y1036*
X861Y1032*
X858Y1025*
X857Y1020*
X857Y1015*
X857Y1008*
X857Y1000*
X857Y992*
X857Y987*
X857Y982*
X856Y980*
X855Y978*
X853Y977*
X849Y977*
X845Y977*
X840Y977*
X837Y977*
X835Y978*
X833Y979*
X832Y982*
X832Y986*
X832Y992*
X832Y1000*
X832Y1010*
X832Y1017*
X831Y1022*
X830Y1025*
X828Y1029*
X825Y1032*
X823Y1033*
X822Y1032*
X821Y1031*
X822Y1027*
X823Y1027*
X822*
X794Y1028*
X779Y1029*
X768Y1029*
X761Y1030*
X755Y1032*
X738Y1038*
X725Y1047*
X720Y1052*
X717Y1058*
X715Y1064*
X714Y1072*
X714Y1077*
X714Y1080*
X714Y1082*
X715Y1082*
X717Y1083*
X717Y1083*
X717Y1169D02*
X719Y1168D01*
X722Y1166*
X727Y1163*
X721Y1156*
X702Y1131*
X688Y1102*
X677Y1069*
X671Y1033*
X672Y996*
X680Y955*
X697Y912*
X722Y864*
X724Y860*
X726Y857*
X727Y854*
X728Y854*
X727Y854*
X726Y853*
X720Y849*
X711Y844*
X700Y837*
X698Y836*
X688Y830*
X679Y825*
X673Y821*
X671Y820*
X670Y820*
X670Y820*
X669Y821*
X665Y825*
X661Y832*
X656Y841*
X645Y862*
X636Y883*
X630Y898*
X625Y915*
X621Y931*
X618Y946*
X617Y962*
X616Y980*
X617Y998*
X618Y1013*
X627Y1045*
X641Y1078*
X659Y1110*
X682Y1139*
X688Y1147*
X697Y1155*
X707Y1163*
X714Y1168*
X716Y1169*
X717Y1169*
X717Y1170D02*
X715Y1170D01*
X713Y1169*
X706Y1164*
X697Y1156*
X688Y1147*
X681Y1140*
X658Y1111*
X640Y1078*
X625Y1045*
X617Y1013*
X615Y998*
X615Y980*
X615Y962*
X617Y946*
X620Y931*
X624Y914*
X629Y898*
X634Y883*
X644Y861*
X655Y840*
X660Y831*
X664Y824*
X668Y820*
X669Y819*
X671Y819*
X672Y819*
X673Y820*
X680Y824*
X689Y829*
X700Y836*
X702Y837*
X712Y843*
X720Y848*
X726Y851*
X728Y853*
X729Y853*
X729Y853*
X729Y853*
X729Y853*
Y854*
X729Y854*
X729Y855*
X727Y857*
X725Y861*
X723Y865*
X698Y912*
X682Y956*
X673Y996*
X673Y1033*
X679Y1069*
X689Y1101*
X703Y1130*
X722Y1155*
X729Y1163*
X729Y1163*
X729Y1164*
X723Y1168*
X720Y1170*
X717Y1170*
X719Y1175D02*
X718Y1175D01*
X718Y1174*
X718Y1174*
X720Y1172*
X724Y1169*
X729Y1166*
X730Y1164*
X731Y1164*
X731Y1164*
X731Y1162*
X733Y1163*
X734Y1164*
X734Y1165*
X733Y1166*
X731Y1168*
X727Y1171*
X722Y1174*
X720Y1175*
X719Y1175*
X719Y1176D02*
X721Y1176D01*
X724Y1175*
X730Y1171*
X735Y1168*
X737Y1166*
X737Y1165*
X737Y1164*
X736Y1163*
X732Y1158*
X719Y1142*
X707Y1122*
X696Y1100*
X688Y1077*
X685Y1062*
X682Y1048*
X681Y1032*
X681Y1015*
X682Y998*
X684Y983*
X688Y967*
X693Y949*
X700Y930*
X708Y912*
X717Y893*
X730Y870*
X733Y864*
X736Y859*
X738Y856*
X738Y855*
X738Y855*
X738Y854*
X736Y853*
X732Y851*
X728Y848*
X717Y841*
X704Y833*
X691Y825*
X679Y819*
X674Y816*
X670Y814*
X667Y813*
X666Y812*
X664Y812*
X662Y813*
X660Y816*
X656Y821*
X638Y853*
X623Y887*
X613Y922*
X607Y955*
X606Y970*
X606Y987*
X608Y1003*
X610Y1017*
X617Y1045*
X629Y1073*
X644Y1101*
X661Y1126*
X676Y1144*
X693Y1160*
X702Y1167*
X709Y1172*
X715Y1175*
X719Y1176*
Y1178D02*
X715Y1176D01*
X708Y1173*
X701Y1168*
X692Y1161*
X675Y1145*
X660Y1127*
X642Y1101*
X628Y1074*
X616Y1045*
X609Y1017*
X606Y1003*
X605Y987*
X605Y970*
X606Y955*
X612Y921*
X622Y887*
X637Y853*
X655Y821*
X659Y815*
X661Y812*
X664Y810*
X666Y811*
X668Y811*
X671Y813*
X675Y815*
X680Y818*
X691Y824*
X705Y832*
X718Y840*
X729Y847*
X733Y849*
X737Y852*
X739Y853*
X739Y854*
X740Y854*
X740Y855*
X740Y855*
X740Y855*
X739Y856*
X737Y860*
X735Y865*
X731Y871*
X719Y894*
X709Y913*
X701Y931*
X695Y949*
X689Y967*
X685Y983*
X683Y998*
X682Y1015*
X682Y1032*
X684Y1047*
X686Y1062*
X690Y1077*
X698Y1099*
X708Y1121*
X720Y1141*
X733Y1158*
X737Y1162*
X738Y1164*
X738Y1165*
X738Y1167*
X736Y1169*
X730Y1173*
X724Y1176*
X719Y1178*
X720Y1150D02*
X720Y1149D01*
X720Y1149*
X719Y1148*
X709Y1136*
X700Y1120*
X691Y1102*
X685Y1085*
X679Y1062*
X675Y1040*
X674Y1018*
X675Y996*
X679Y973*
X685Y950*
X694Y926*
X706Y901*
X715Y884*
X723Y869*
X727Y863*
X730Y858*
X732Y855*
X733Y854*
X734Y854*
X734Y854*
X735Y855*
Y857*
X734Y858*
X733Y862*
X730Y866*
X727Y872*
X710Y903*
X697Y932*
X688Y960*
X681Y987*
X680Y1003*
X679Y1022*
X680Y1041*
X682Y1057*
X687Y1080*
X695Y1102*
X705Y1123*
X717Y1142*
X719Y1145*
X721Y1148*
X721Y1149*
X721Y1149*
X721Y1149*
X720Y1150*
X722Y1083D02*
X722Y1083D01*
X723Y1081*
X725Y1077*
X728Y1070*
X734Y1063*
X740Y1057*
X748Y1053*
Y1053*
X748Y1053*
X749Y1053*
X739Y1057*
X731Y1062*
X726Y1068*
X724Y1073*
X722Y1078*
X721Y1082*
X722Y1083*
X722Y1083*
X722Y1084D02*
X720Y1084D01*
X720Y1082*
X721Y1077*
X722Y1072*
X725Y1067*
X731Y1061*
X738Y1056*
X746Y1052*
X754Y1050*
X754*
X754Y1051*
X754Y1051*
X754Y1052*
X753Y1052*
X749Y1054*
Y1054*
X749Y1054*
X741Y1058*
X735Y1064*
X729Y1070*
X726Y1077*
X724Y1082*
X723Y1084*
X723Y1084*
X722Y1084*
X723Y1088D02*
X718Y1087D01*
X711Y1085*
X704Y1083*
X703Y1083*
Y1082*
X703Y1076*
X704Y1066*
X707Y1056*
X712Y1047*
X719Y1040*
X731Y1031*
X747Y1026*
X768Y1022*
X795Y1021*
X815*
X814Y1018*
X813Y1008*
X811Y990*
X808Y962*
X804Y924*
X803Y912*
X802Y899*
X800Y888*
X800Y878*
X798Y859*
X796Y838*
Y838*
X795Y829*
X794Y819*
X793Y811*
X792Y804*
X792Y799*
X792Y794*
X792Y792*
X793Y790*
X793Y790*
X795Y790*
X798Y789*
X809Y788*
X825Y786*
X842Y784*
X857Y783*
X870Y782*
Y781*
X871Y781*
X879Y780*
X885Y780*
X890Y780*
X893Y782*
X894Y786*
X894Y791*
X894Y799*
X893Y810*
X892Y822*
X891Y837*
X889Y853*
X888Y868*
X885Y903*
X883Y932*
X881Y955*
X880Y974*
X879Y983*
X878Y993*
X877Y1002*
X877Y1008*
X876Y1018*
X875Y1022*
X875Y1024*
X875Y1025*
X875Y1026*
X876Y1026*
X879Y1026*
X883Y1026*
X888Y1027*
X894Y1027*
X901Y1028*
X932Y1029*
X969Y1028*
X979Y1027*
X986Y1027*
X990Y1027*
X992Y1028*
X992Y1029*
X993Y1029*
X994Y1032*
X995Y1040*
X997Y1049*
X998Y1056*
X997Y1057*
X995Y1059*
X990Y1061*
X981Y1062*
X969Y1064*
X952Y1064*
X931Y1064*
X906Y1062*
X878Y1059*
X847Y1056*
X822Y1053*
X802Y1052*
X786Y1052*
X773Y1052*
X763Y1054*
X754Y1056*
X746Y1060*
X740Y1064*
X735Y1068*
X731Y1074*
X729Y1081*
X728Y1084*
X726Y1086*
X725Y1087*
X723Y1088*
X723Y1086D02*
X725Y1086D01*
X725Y1086*
X726Y1084*
X727Y1081*
X730Y1074*
X734Y1068*
X739Y1063*
X745Y1059*
X754Y1055*
X763Y1052*
X773Y1051*
X786Y1050*
X802Y1051*
X822Y1052*
X847Y1055*
X878Y1058*
X906Y1061*
X931Y1063*
X952Y1063*
X969Y1062*
X981Y1061*
X990Y1059*
X995Y1057*
X996Y1057*
X996Y1056*
X996Y1053*
X996Y1049*
X995Y1045*
X994Y1040*
X992Y1033*
X992Y1030*
X991Y1029*
X991Y1029*
X990Y1028*
X986Y1028*
X979Y1028*
X969Y1029*
X932Y1030*
X900Y1029*
X895Y1028*
X889Y1028*
X885Y1028*
X881Y1028*
X881Y1028*
X881Y1028*
X881*
Y1028*
X881Y1029*
X879Y1029*
X878Y1029*
X877Y1028*
X877Y1028*
X877Y1027*
X877Y1027*
X875Y1027*
X874Y1027*
X873Y1025*
X874Y1024*
X874Y1022*
X875Y1018*
X875Y1008*
X876Y1001*
X877Y993*
X877Y983*
X878Y973*
X880Y955*
X882Y932*
X884Y903*
X887Y868*
X888Y853*
X889Y837*
X890Y822*
X892Y809*
X892Y799*
X893Y791*
X893Y786*
X892Y783*
X889Y782*
X885Y781*
X880Y782*
X872Y783*
X871Y783*
X858Y784*
X842Y786*
X825Y788*
X809Y789*
X798Y791*
X795Y791*
X794Y791*
X793Y792*
X793Y792*
X793Y794*
X793Y798*
X793Y804*
X794Y811*
X795Y819*
X796Y829*
X797Y838*
X799Y859*
X801Y878*
X802Y888*
X803Y899*
X804Y912*
X805Y924*
X809Y962*
X812Y990*
X814Y1008*
X815Y1018*
X816Y1019*
X816Y1018*
X816Y1015*
X815Y1011*
X815Y1006*
X815Y1000*
X814Y993*
X813Y980*
X811Y962*
X809Y940*
X806Y915*
X803Y887*
X800Y856*
X797Y825*
X796Y816*
X796Y809*
X795Y804*
X795Y800*
X795Y795*
X797Y793*
X799Y792*
X800Y792*
X801Y792*
X801Y793*
X800Y794*
X800Y795*
X800Y796*
X800Y801*
X801Y808*
X802Y819*
X803Y834*
X805Y852*
X807Y872*
X809Y893*
X811Y915*
X813Y935*
X815Y954*
X817Y970*
X818Y989*
X820Y1007*
X822Y1025*
Y1025*
X822Y1023*
X822Y1021*
X822Y1016*
X821Y1010*
X821Y1002*
X819Y983*
X817Y959*
X815Y939*
X813Y922*
X811Y907*
X810Y894*
X809Y881*
X808Y868*
X806Y855*
X805Y839*
X804Y830*
X803Y821*
X802Y813*
X802Y807*
X801Y799*
X801Y796*
X801Y795*
X801Y795*
X801Y795*
X801Y794*
X802Y794*
X803Y794*
X805Y794*
X814Y793*
X831Y792*
X849Y790*
X857Y789*
X864Y788*
X869Y788*
X870Y787*
X871Y787*
X872Y787*
X874Y787*
X878Y787*
X884Y786*
X885*
X884Y787*
X884Y802*
Y802*
X883Y810*
X882Y819*
X882Y830*
X881Y840*
X880Y853*
X878Y871*
X877Y892*
X875Y914*
X873Y936*
X871Y959*
X870Y980*
X868Y996*
X867Y1008*
X867Y1018*
X866Y1024*
X866Y1026*
X866Y1027*
X867Y1027*
X869Y1028*
X877Y1029*
X888Y1031*
X902Y1033*
X913Y1034*
X924Y1034*
X935Y1034*
X949Y1034*
X960Y1034*
X969Y1033*
X976Y1033*
X980Y1032*
X983Y1032*
X985Y1034*
X985Y1036*
X986Y1038*
X987Y1042*
X987Y1047*
X988Y1053*
X988Y1054*
X988Y1054*
X983Y1055*
X966Y1058*
X944Y1059*
X917Y1058*
X886Y1056*
X859Y1053*
X838Y1050*
X822Y1049*
X809Y1048*
X800Y1047*
X792Y1047*
X785Y1047*
X779Y1047*
X755Y1049*
X738Y1055*
X732Y1059*
X727Y1064*
X723Y1069*
X720Y1076*
X719Y1081*
X718Y1083*
X718Y1083*
X718Y1084*
X717Y1084*
X717*
X716Y1084*
X715Y1084*
X713Y1082*
X712Y1081*
X712Y1077*
X712Y1072*
X714Y1064*
X715Y1059*
X717Y1054*
X720Y1050*
X724Y1046*
X737Y1037*
X754Y1030*
X761Y1029*
X768Y1028*
X779Y1027*
X794Y1027*
X822Y1026*
X822Y1025*
X821Y1025*
X815Y1025*
X813Y1025*
X812Y1025*
X811Y1025*
X811Y1024*
X811Y1024*
X812Y1023*
X813Y1023*
X814Y1023*
X795*
X768Y1024*
X748Y1027*
X732Y1032*
X720Y1041*
X713Y1048*
X709Y1056*
X705Y1066*
X704Y1076*
X704Y1082*
X711Y1084*
X718Y1085*
X723Y1086*
X723Y1172D02*
X726Y1170D01*
X730Y1167*
X732Y1165*
X733Y1165*
X732Y1164*
X732Y1164*
Y1164*
X732Y1164*
X731Y1165*
X730Y1166*
X725Y1170*
X723Y1172*
X731Y1162D02*
X731Y1162D01*
X730Y1161*
X729Y1161*
X727Y1158*
X727Y1157*
X727Y1157*
X728Y1157*
X728Y1157*
X729Y1157*
X729Y1157*
X731Y1159*
X732Y1160*
X732Y1161*
X732Y1161*
Y1161*
X732Y1162*
X731Y1162*
X731*
X751Y1030D02*
X749Y1030D01*
X748Y1030*
X748Y1029*
X748Y1029*
X749Y1028*
X750Y1028*
X752Y1028*
X753Y1029*
X752Y1029*
X753*
Y1030*
X752Y1030*
X751Y1030*
X756Y1029D02*
X754Y1029D01*
X754Y1028*
X753Y1028*
X754Y1027*
X754Y1027*
X755Y1027*
X757Y1027*
X758Y1028*
X758Y1028*
X758*
Y1028*
X758Y1029*
X756Y1029*
X759Y1051D02*
X757Y1051D01*
X757Y1051*
X756Y1050*
X756Y1050*
X757Y1049*
X759Y1049*
X761Y1049*
X761Y1050*
X761Y1050*
X761Y1051*
X761Y1051*
X759Y1051*
X764Y1028D02*
X762Y1028D01*
X762Y1027*
X761Y1027*
X761Y1026*
X762Y1026*
X763Y1025*
X765Y1026*
X766Y1026*
X766Y1027*
X766*
Y1027*
X765Y1027*
X764Y1028*
X764Y1050D02*
X764Y1050D01*
X763Y1049*
X763Y1049*
X764Y1048*
X764Y1048*
X767Y1048*
X769Y1048*
X770Y1048*
X770Y1049*
X770Y1049*
X770Y1050*
X769Y1050*
X764*
X773Y1026D02*
X772Y1026D01*
X772Y1026*
X772Y1025*
X772Y1025*
X772Y1025*
X776Y1024*
X779Y1025*
X780Y1025*
X780Y1025*
X780Y1026*
X780Y1026*
X779Y1026*
X776Y1026*
X773Y1026*
X785Y1049D02*
X784Y1048D01*
X783Y1048*
X783Y1048*
X783Y1047*
X784Y1047*
X784Y1047*
X789Y1047*
X794Y1047*
X794Y1047*
X795Y1047*
X795Y1048*
X795Y1048*
X794Y1048*
X793Y1049*
X789Y1049*
X785Y1049*
X810Y793D02*
Y793D01*
X806Y793*
X805Y792*
X805Y792*
X805Y791*
X806Y791*
X808Y791*
X811Y791*
X811Y791*
X811Y791*
Y791*
X811Y792*
X811Y792*
X811Y793*
X810Y793*
X812Y1050D02*
Y1050D01*
X807*
X806Y1050*
X806Y1050*
X806Y1049*
X806Y1048*
X806Y1048*
X809Y1048*
X812Y1048*
X813Y1048*
X813Y1048*
X813Y1049*
X813Y1050*
X813Y1050*
X812Y1050*
X812Y1050*
X820Y881D02*
X820Y880D01*
X819Y877*
X819Y877*
X820Y880*
X820Y881*
X820Y882D02*
X820Y882D01*
X818Y880*
X817Y876*
X817Y874*
X818Y874*
X819Y874*
X819Y875*
X820Y877*
X821Y880*
X822Y881*
X821Y882*
X820Y882*
X821Y1024D02*
X819Y1007D01*
X817Y989*
X815Y970*
X814Y954*
X812Y935*
X810Y915*
X808Y894*
X806Y872*
X804Y852*
X802Y834*
X800Y819*
X799Y809*
X799Y801*
X799Y796*
X799Y795*
X799Y794*
X800Y793*
X799Y793*
X797Y794*
X797Y795*
X797Y800*
X797Y804*
X797Y809*
X798Y816*
X799Y825*
X802Y856*
X805Y886*
X807Y915*
X810Y940*
X812Y962*
X814Y980*
X815Y993*
X816Y1000*
X816Y1005*
X817Y1011*
X817Y1015*
X817Y1018*
X817Y1021*
X816Y1023*
X815Y1024*
X815*
X821Y1024*
X822Y792D02*
X820Y791D01*
X820Y791*
X819Y791*
X819Y790*
X820Y790*
X822Y789*
X824Y790*
X824Y790*
X824Y791*
X824Y791*
X824Y791*
X822Y792*
X823Y1026D02*
X824Y1025D01*
X826Y1019*
X827Y1015*
X827Y1011*
X827Y1005*
X827Y997*
X827Y986*
X827Y979*
X828Y975*
X831Y973*
X834Y972*
X837Y972*
X847Y972*
X855Y972*
X858Y973*
X860Y973*
X862Y977*
X862Y981*
X863Y988*
X862Y997*
X862Y1014*
X865Y1026*
X865Y1024*
X865Y1018*
X866Y1008*
X867Y996*
X868Y980*
X870Y959*
X872Y936*
X874Y914*
X875Y892*
X877Y871*
X878Y853*
X880Y840*
X880Y830*
X881Y819*
X882Y809*
X882Y802*
Y802*
X883Y788*
X878Y788*
X874Y788*
X872Y788*
X871Y788*
X870Y789*
X869Y789*
X864Y789*
X857Y790*
X849Y791*
X831Y793*
X814Y794*
X806Y795*
X803Y796*
X802Y796*
X802Y796*
X802Y799*
X803Y807*
X803Y813*
X804Y821*
X805Y830*
X806Y839*
X808Y854*
X809Y868*
X810Y881*
X811Y894*
X813Y907*
X814Y922*
X816Y939*
X818Y959*
X820Y982*
X822Y1002*
X823Y1010*
X823Y1016*
X823Y1021*
X824Y1023*
X823Y1026*
X824Y1051D02*
Y1051D01*
X821Y1051*
X820Y1051*
X820Y1050*
X820Y1050*
X820Y1049*
X822Y1049*
X825Y1049*
X825Y1050*
X825Y1049*
Y1050*
X826Y1050*
X825Y1051*
X825Y1051*
X824Y1051*
X827Y881D02*
X829Y880D01*
X831Y879*
X832Y877*
X832Y877*
X829Y878*
X827Y880*
X826Y881*
X826Y881*
X826*
X827Y881*
Y882D02*
X825Y882D01*
X824Y881*
X825Y880*
X829Y877*
X831Y876*
X833Y876*
X834Y877*
X833Y878*
X832Y879*
X830Y881*
X827Y882*
X829Y912D02*
X827Y908D01*
X826Y904*
X826Y901*
X827Y898*
X828Y896*
X831Y893*
X833Y891*
X834Y890*
X833Y890*
X832Y890*
X828Y892*
X824Y896*
X823Y902*
X824Y907*
X829Y912*
X831Y849D02*
X833Y847D01*
X836Y844*
X840Y842*
X837Y842*
X835Y843*
X834Y845*
X832Y847*
X831Y849*
X832Y1052D02*
X831Y1052D01*
X831Y1052*
X831Y1051*
X831Y1051*
X832Y1051*
X835Y1051*
X838Y1051*
X839Y1051*
X839Y1051*
X839Y1052*
X839Y1052*
X838Y1052*
X835Y1053*
X832Y1052*
X832Y873D02*
X832Y873D01*
X832Y872*
X829Y870*
X825Y867*
X823Y866*
X824Y867*
X825Y869*
X828Y871*
X830Y873*
X832Y873*
Y874D02*
X830Y874D01*
X827Y872*
X824Y870*
X822Y867*
X822Y866*
X821Y865*
X822Y865*
X822Y864*
X823Y864*
X824Y865*
X826Y866*
X830Y869*
X832Y871*
X834Y873*
X833Y874*
X832Y874*
Y951D02*
X833Y948D01*
X836Y945*
X840Y943*
X841Y943*
X841*
X837Y943*
X834Y946*
X832Y951*
X833Y917D02*
X832Y917D01*
Y917*
X829Y914*
X823Y908*
X821Y902*
X823Y896*
X828Y891*
X832Y889*
X833Y889*
X835Y889*
X835Y890*
X835Y891*
X832Y894*
X829Y897*
X828Y899*
X827Y901*
X827Y904*
X828Y908*
X830Y912*
X833Y916*
X833Y916*
X833Y917*
X833Y960D02*
X831Y957D01*
X830Y953*
X831Y949*
X833Y945*
X834Y944*
X834Y944*
X837Y942*
X840Y942*
X836Y942*
X833Y943*
X830Y945*
X828Y948*
X827Y951*
X828Y954*
X830Y957*
X833Y960*
X834Y790D02*
X832Y790D01*
X831Y790*
X831Y789*
X831Y789*
X832Y788*
X834Y788*
X836Y788*
X836Y789*
X836Y789*
X836Y790*
X835Y790*
X834Y790*
X834Y860D02*
X834Y859D01*
X832Y856*
X831Y855*
X831Y855*
X833Y858*
X834Y860*
X834Y960D02*
X834Y958D01*
X832Y955*
X832Y953*
X832Y956*
X834Y959*
X834Y960*
X840Y915D02*
X847Y914D01*
X852Y910*
X855Y905*
X855Y900*
X854Y897*
X851Y894*
X849Y892*
X849Y891*
X850Y890*
X850Y890*
X850Y890*
X848Y890*
X846Y890*
X847Y890*
X847Y890*
X847Y891*
X846Y891*
X846Y891*
X841Y892*
X837Y894*
X833Y897*
X830Y900*
X829Y905*
X831Y910*
X835Y914*
X840Y915*
X841Y918D02*
X840Y917D01*
X839Y917*
X841Y918*
X842Y963D02*
X842Y963D01*
X842Y962*
X843Y961*
X846Y960*
X850Y958*
X852Y955*
X853Y951*
X852Y947*
X851Y945*
X851Y944*
X851Y944*
X851Y943*
X845Y942*
X845Y943*
X840Y944*
X837Y946*
X834Y949*
X833Y951*
X833Y953*
X833Y954*
X835Y957*
X837Y962*
X842Y963*
X842Y941D02*
X843D01*
X843Y941*
X842Y941*
X843Y861D02*
X850Y859D01*
X852Y855*
X849Y858*
X843Y861*
X844Y866D02*
X837Y865D01*
X831Y863*
X826Y860*
X824Y857*
X823Y854*
X822Y850*
X823Y847*
X824Y844*
X826Y842*
X828Y840*
X831Y838*
X834Y838*
X837Y837*
X841Y837*
X847Y838*
X852Y839*
X856Y841*
X859Y844*
X861Y847*
X862Y851*
X861Y855*
X860Y859*
X857Y862*
X854Y865*
X850Y866*
X844Y866*
X844Y863D02*
X840Y863D01*
X836Y863*
X833Y862*
X831Y860*
X826Y855*
X825Y849*
X827Y844*
X832Y841*
X842Y839*
X850Y841*
X856Y845*
X859Y849*
X859Y854*
X856Y859*
X854Y861*
X852Y863*
X848Y863*
X844Y863*
Y865D02*
X850Y865D01*
X853Y863*
X856Y861*
X859Y858*
X860Y855*
X860Y851*
X860Y848*
X858Y845*
X855Y842*
X852Y841*
X846Y839*
X841Y839*
X837Y839*
X834Y839*
X832Y840*
X829Y841*
X827Y843*
X825Y845*
X824Y848*
X824Y850*
X824Y853*
X825Y856*
X827Y859*
X832Y862*
X837Y864*
X844Y865*
X844Y962D02*
X844D01*
X847Y962*
X851Y960*
X853Y957*
X854Y955*
X854Y952*
X854Y951*
X853Y948*
X853Y946*
X853Y947*
X854Y951*
X853Y955*
X851Y958*
X847Y961*
X844Y962*
X844Y964D02*
X836Y963D01*
X836Y963*
X836Y963*
X830Y959*
X826Y954*
X826Y951*
X827Y947*
X829Y944*
X832Y942*
X837Y940*
X843Y940*
X848Y941*
X853Y943*
X857Y945*
X859Y948*
X860Y952*
X860Y955*
X858Y959*
X855Y962*
X850Y964*
X844Y964*
X846Y1054D02*
X845Y1054D01*
X845Y1053*
X845Y1053*
X845Y1052*
X845Y1052*
X848Y1052*
X851Y1052*
X851Y1052*
X852Y1053*
X851Y1053*
X851Y1054*
X850Y1054*
X846*
X846Y919D02*
X842Y919D01*
X838Y919*
X835Y918*
X834Y917*
X834Y917*
X834Y916*
X835Y916*
X835Y916*
X837Y916*
X833Y914*
X830Y910*
X828Y905*
X829Y899*
X832Y896*
X836Y893*
X844Y890*
X843Y890*
X837Y889*
X837*
Y889*
X837*
X837Y888*
X837*
X842Y888*
X846Y888*
X849Y889*
Y889*
X850Y889*
X851Y889*
X852Y890*
X852Y891*
X852Y891*
X851Y891*
X852Y893*
X855Y896*
X857Y899*
X857Y905*
X853Y911*
X848Y915*
X841Y916*
X844Y917*
X846Y917*
X847Y917*
X847Y917*
X847Y918*
X847Y918*
X847Y919*
X846Y919*
X846Y919D02*
X853Y918D01*
X857Y917*
X861Y914*
X863Y910*
X864Y906*
X864Y902*
X863Y899*
X861Y895*
X858Y892*
X854Y889*
X849Y888*
X844Y887*
X838Y887*
X833Y888*
X827Y890*
X823Y894*
X820Y899*
X820Y904*
X822Y908*
X825Y912*
X829Y916*
X834Y918*
X839Y919*
X846Y919*
X846Y921D02*
X839Y920D01*
X833Y919*
X828Y917*
X824Y913*
X821Y909*
X819Y905*
X819Y898*
X822Y893*
X826Y889*
X833Y886*
X838Y886*
X844Y886*
X849Y887*
X854Y888*
X859Y891*
X862Y894*
X864Y898*
X866Y902*
X866Y907*
X864Y911*
X862Y915*
X858Y918*
X853Y920*
X846Y921*
Y965D02*
X851Y965D01*
X855Y964*
X858Y962*
X860Y959*
X861Y955*
X861Y951*
X860Y947*
X858Y945*
X852Y941*
X845Y939*
X837Y939*
X831Y941*
X828Y943*
X826Y945*
X825Y948*
X825Y952*
X826Y957*
X831Y962*
X837Y964*
X846Y965*
Y967D02*
X837Y966D01*
X830Y963*
X825Y958*
X824Y952*
X824Y948*
X825Y944*
X827Y942*
X830Y940*
X837Y938*
X845Y938*
X853Y940*
X859Y944*
X861Y947*
X863Y951*
X863Y955*
X861Y959*
X859Y963*
X856Y965*
X851Y966*
X846Y967*
X846Y862D02*
X849Y862D01*
X851Y861*
X853Y860*
X855Y858*
X857Y854*
X857Y850*
X856Y847*
X853Y844*
X854Y848*
X854Y850*
X854Y850*
X853Y850*
X853*
X852Y850*
X852Y849*
X851Y848*
X850Y845*
X849Y844*
X848Y843*
X848Y843*
X848Y842*
X848Y842*
X845Y841*
X845Y842*
X845Y842*
X841Y843*
X837Y845*
X834Y848*
X831Y851*
X830Y851*
X830Y852*
X829Y851*
X829Y851*
X830Y849*
X831Y846*
X834Y842*
Y842*
X834Y842*
X837Y841*
X839Y841*
X833Y842*
X828Y845*
X826Y849*
X828Y854*
X832Y859*
X832Y859*
X832Y859*
X830Y856*
X829Y854*
X829Y853*
X830Y853*
X831Y853*
X833Y856*
X835Y859*
X836Y860*
X836Y860*
X836Y861*
X837Y861*
X837Y861*
X842Y860*
X845Y859*
X849Y857*
X851Y855*
X851Y853*
X852Y852*
X852Y851*
X852Y851*
X853Y851*
X853Y852*
X853Y852*
X854Y853*
X853Y857*
X850Y860*
X846Y862*
X848Y789D02*
Y789D01*
X844Y789*
X843Y788*
X843Y788*
X843Y787*
X844Y787*
X846Y787*
X849Y787*
X849Y787*
X849Y787*
Y787*
X849Y788*
X849Y788*
X849Y789*
X848Y789*
X848Y963D02*
X854Y961D01*
X857Y959*
X859Y955*
X858Y949*
X853Y944*
X855Y947*
X855Y952*
X855Y955*
X855Y957*
X852Y961*
X848Y963*
X850Y916D02*
X850D01*
X854Y915*
X858Y913*
X861Y909*
X862Y904*
X861Y900*
X858Y896*
X859Y902*
X858Y907*
X856Y912*
X851Y916*
X850Y916*
X850Y918D02*
X849Y918D01*
X848Y917*
X848Y917*
X848Y916*
X848Y916*
X849Y916*
X850Y915*
X855Y911*
X857Y905*
X858Y900*
X855Y894*
X854Y893*
X854Y892*
X854Y892*
X855Y891*
X855Y892*
X856Y893*
X858Y895*
X862Y900*
X863Y904*
X862Y909*
X859Y913*
X855Y917*
X850Y918*
X852Y847D02*
X851Y845D01*
X850Y843*
X851Y845*
X852Y847*
X853Y873D02*
X856Y872D01*
X859Y870*
X861Y868*
X863Y864*
X864Y862*
X862Y863*
X857Y868*
X854Y871*
X852Y873*
X852Y873*
X853Y873*
Y874D02*
X851Y874D01*
X851Y873*
X851Y872*
X853Y870*
X856Y867*
X861Y862*
X863Y861*
X864Y860*
X864Y860*
X864Y860*
X865Y860*
X865Y861*
X865Y862*
X864Y865*
X862Y868*
X859Y871*
X856Y874*
X853Y874*
X856Y1043D02*
X845Y1042D01*
X835Y1041*
X828Y1040*
X823Y1038*
X821Y1036*
X820Y1034*
X821Y1034*
X824Y1033*
X829Y1034*
X835Y1035*
X838Y1036*
X843Y1037*
X848Y1037*
X853Y1037*
X862Y1038*
X868Y1039*
X870Y1040*
X870Y1041*
X870Y1041*
X870Y1042*
X868Y1042*
X865Y1043*
X861Y1043*
X856Y1043*
X856Y1042D02*
X861Y1042D01*
X865Y1042*
X868Y1041*
X869Y1041*
X867Y1040*
X865Y1040*
X862Y1039*
X853Y1039*
X848Y1038*
X843Y1038*
X838Y1037*
X834Y1036*
X828Y1035*
X824Y1035*
X822Y1035*
X822Y1035*
X822Y1035*
X824Y1037*
X829Y1038*
X835Y1040*
X845Y1041*
X856Y1042*
X859Y788D02*
X857Y787D01*
X856Y787*
X856Y787*
X856Y786*
X856Y786*
X859Y785*
X861Y786*
X861Y786*
X861Y787*
X861Y787*
X860Y787*
X859Y788*
Y1055D02*
X857Y1055D01*
X856Y1055*
X856Y1054*
X856Y1054*
X856Y1053*
X859Y1053*
X861Y1053*
X861Y1054*
X861Y1054*
X861Y1055*
X860Y1055*
X859Y1055*
X863Y883D02*
X863D01*
X863Y883*
X860Y880*
X857Y878*
X854Y877*
X852Y877*
X852Y877*
X853Y878*
X855Y880*
X858Y882*
X861Y883*
X863Y883*
X863Y885D02*
X861Y884D01*
X857Y883*
X854Y881*
X852Y879*
X851Y878*
X851Y877*
X851Y876*
X852Y876*
X854Y876*
X858Y877*
X861Y879*
X864Y882*
X864Y883*
X863Y885*
X866Y883D02*
X866D01*
X867Y882*
X869Y878*
X869Y873*
X870Y868*
X869Y867*
X869Y867*
X869Y867*
X868Y869*
X868Y873*
X866Y877*
X865Y881*
X865Y883*
X866Y883*
X866Y845D02*
X865Y842D01*
X864Y839*
X862Y836*
X859Y833*
X855Y831*
X842Y828*
X829Y831*
X824Y834*
X821Y838*
X820Y841*
X820Y841*
X821Y841*
X824Y839*
X833Y833*
X843Y831*
X853Y834*
X862Y841*
X866Y845*
X866Y884D02*
X865Y884D01*
X864Y883*
X864Y881*
X865Y877*
X866Y872*
X867Y869*
X868Y867*
X869Y865*
X870Y866*
X870Y866*
X871Y868*
X871Y873*
X870Y879*
X868Y883*
X866Y884*
X868Y849D02*
X866Y847D01*
X861Y842*
X853Y835*
X843Y833*
X834Y834*
X825Y840*
X822Y842*
X821Y842*
X819*
X819Y841*
X819Y840*
X820Y837*
X823Y833*
X828Y830*
X842Y827*
X856Y830*
X860Y832*
X863Y835*
X865Y838*
X866Y842*
X867Y847*
X868Y849*
X868Y1056D02*
X867Y1056D01*
X867Y1056*
X867Y1055*
X867Y1055*
X868Y1055*
X870Y1054*
X873Y1055*
X874Y1055*
X874Y1055*
X874Y1056*
X873Y1056*
X873Y1056*
X868*
X869Y1036D02*
X869Y1035D01*
X866Y1031*
X863Y1024*
X861Y1017*
X860Y1008*
X861Y997*
X861Y988*
X861Y981*
X860Y977*
X859Y974*
X858Y974*
X855Y973*
X847Y973*
X838Y973*
X834Y974*
X832Y974*
X829Y976*
X828Y979*
X828Y986*
X828Y997*
X829Y1005*
X829Y1011*
X828Y1016*
X827Y1020*
X825Y1025*
X824Y1027*
X823Y1028*
X823Y1030*
X822Y1031*
X823Y1031*
X823*
X824Y1031*
X827Y1028*
X829Y1025*
X830Y1022*
X830Y1017*
X831Y1010*
X831Y1000*
X830Y992*
X831Y986*
X831Y982*
X832Y979*
X834Y977*
X837Y976*
X840Y976*
X845Y975*
X849Y976*
X853Y976*
X855Y977*
X857Y979*
X858Y982*
X859Y986*
X859Y992*
X858Y1000*
X858Y1008*
X858Y1015*
X859Y1020*
X859Y1024*
X862Y1031*
X866Y1035*
X869Y1036*
X869Y1036*
X870Y844D02*
X870Y843D01*
X869Y840*
X869Y835*
X870Y829*
X871Y822*
X871Y814*
X871Y810*
X871Y807*
X869Y804*
X867Y803*
X864Y802*
X861Y802*
X858Y802*
X853Y803*
X847Y803*
X839Y804*
X832Y805*
X826Y806*
X823Y806*
X818Y809*
X815Y813*
X815Y820*
X816Y829*
X817Y834*
X816Y838*
X815Y839*
X814Y840*
X814Y839*
X813Y838*
X812Y835*
X811Y828*
X810Y821*
X810Y814*
X811Y809*
X813Y805*
X817Y802*
X824Y801*
X834Y799*
X840Y798*
X847Y798*
X854Y797*
X860Y797*
X864Y797*
X868Y797*
X871Y798*
X873Y800*
X876Y804*
X876Y812*
X876Y821*
X875Y830*
X874Y838*
X872Y843*
X871Y844*
X870Y844*
X871Y842D02*
X871Y842D01*
X872Y840*
X872Y837*
X874Y830*
X875Y821*
X875Y812*
X874Y804*
X873Y801*
X871Y799*
X868Y799*
X864Y798*
X860Y798*
X854Y799*
X848Y799*
X840Y800*
X834Y800*
X824Y802*
X817Y804*
X814Y806*
X812Y809*
X811Y814*
X811Y820*
X812Y828*
X813Y835*
X814Y837*
X815Y838*
X815Y837*
X816Y834*
X815Y829*
X813Y820*
X814Y813*
X817Y808*
X823Y805*
X826Y804*
X832Y804*
X839Y803*
X847Y802*
X853Y802*
X858Y801*
X861Y801*
X864Y801*
X867Y802*
X869Y803*
X872Y807*
X872Y810*
X872Y814*
X872Y822*
X871Y830*
X870Y835*
X870Y840*
X871Y842*
X872Y786D02*
X870Y786D01*
X869Y786*
X869Y785*
X869Y784*
X870Y784*
X871Y784*
X873Y784*
X873Y785*
X873Y785*
X873*
Y786*
X873Y786*
X872Y786*
X880Y1058D02*
X879Y1058D01*
X879Y1057*
X879Y1057*
X879Y1056*
X879Y1056*
X882Y1056*
X885Y1056*
X885Y1056*
X886Y1057*
X886Y1057*
X885Y1058*
X885Y1058*
X880*
X887Y1030D02*
X886Y1030D01*
X885Y1030*
X885Y1029*
X885Y1029*
X886Y1028*
X887Y1028*
X888Y1028*
X889Y1029*
X889Y1029*
X889*
Y1030*
X889Y1030*
X887Y1030*
X894Y1059D02*
X892Y1059D01*
X892Y1059*
X891Y1058*
X892Y1058*
X892Y1057*
X894Y1057*
X896Y1057*
X896Y1058*
X897Y1058*
X896Y1059*
X896Y1059*
X894Y1059*
X900Y1032D02*
Y1031D01*
X895*
X894Y1031*
X894Y1031*
X894Y1031*
X894Y1030*
X894Y1030*
X897Y1030*
X900Y1030*
X901Y1030*
X901Y1030*
X901Y1031*
X901Y1031*
X901Y1031*
X900Y1031*
X900Y1032*
X905Y1060D02*
X904Y1060D01*
X904Y1060*
X904Y1059*
X904Y1059*
X904Y1059*
X907Y1058*
X910Y1059*
X910Y1059*
X911Y1059*
X910Y1060*
X910Y1060*
X910Y1060*
X905*
X911Y1033D02*
X911Y1033D01*
X910Y1032*
X910Y1032*
X910Y1031*
X911Y1031*
X914Y1031*
X916Y1031*
X917Y1031*
X917Y1032*
X917Y1032*
X917Y1033*
X916Y1033*
X911*
X920Y1062D02*
X919Y1062D01*
X918Y1061*
X918Y1061*
X918Y1060*
X919Y1060*
X919Y1060*
X924Y1060*
X929Y1060*
X930Y1060*
X930Y1060*
X930Y1061*
X930Y1061*
X929Y1062*
X928Y1062*
X924Y1062*
X920Y1062*
X958Y1033D02*
X958Y1033D01*
X958Y1032*
X957Y1032*
X958Y1031*
X958Y1031*
X961Y1031*
X964Y1031*
X964Y1031*
X964Y1032*
X964Y1032*
X964Y1033*
X963Y1033*
X958*
X963Y986D02*
X963Y983D01*
X965Y979*
X970Y972*
X973Y966*
X978Y958*
X983Y949*
X988Y938*
X993Y928*
X997Y918*
X1001Y909*
X1004Y902*
X1012Y879*
X1016Y858*
X1019Y836*
X1019Y813*
X1018Y793*
X1015Y775*
X1010Y757*
X1003Y737*
X992Y715*
X978Y695*
X991Y715*
X1002Y738*
X1010Y764*
X1016Y790*
X1017Y811*
X1017Y834*
X1014Y857*
X1010Y879*
X1006Y890*
X1002Y902*
X996Y916*
X990Y930*
X983Y944*
X976Y957*
X969Y970*
X962Y981*
X961Y983*
X961Y983*
X962Y984*
X963Y986*
X965Y1062D02*
X963Y1062D01*
X963Y1061*
X962Y1061*
X962Y1060*
X963Y1060*
X965Y1060*
X967Y1060*
X967Y1060*
X967Y1061*
X967Y1061*
X967Y1062*
X965Y1062*
X965Y989D02*
X965Y989D01*
X963Y987*
X961Y985*
X960Y984*
X960Y982*
X961Y980*
X968Y969*
X975Y957*
X982Y943*
X989Y929*
X995Y915*
X1000Y902*
X1005Y889*
X1008Y878*
X1013Y857*
X1015Y834*
X1016Y811*
X1014Y791*
X1008Y759*
X997Y731*
X984Y705*
X967Y684*
X959Y675*
X959Y675*
X960Y674*
X966Y670*
X972Y666*
X977Y665*
X978Y665*
X979Y665*
X979Y665*
X979Y666*
X979Y666*
X979Y666*
X977Y667*
X974Y668*
X969Y671*
X966Y674*
X965Y675*
X964Y676*
X964Y676*
X965Y677*
X966Y679*
X971Y684*
X981Y696*
X990Y709*
X997Y722*
X1004Y737*
X1011Y757*
X1016Y775*
X1019Y793*
X1020Y813*
X1020Y836*
X1018Y858*
X1013Y880*
X1006Y902*
X1003Y910*
X999Y919*
X994Y929*
X989Y939*
X984Y949*
X979Y959*
X974Y967*
X971Y973*
X967Y979*
X965Y983*
X965Y986*
X966Y988*
X966Y988*
X966Y988*
X966Y989*
X966Y989*
X965Y989*
X966Y680D02*
X965Y679D01*
X964Y677*
X963Y677*
X963Y676*
X963Y675*
X965Y673*
X969Y670*
X974Y667*
X973Y667*
X967Y671*
X961Y675*
X966Y680*
X978Y1032D02*
X976Y1031D01*
X975Y1031*
X975Y1030*
X975Y1030*
X976Y1029*
X977Y1029*
X979Y1030*
X980Y1030*
X980Y1031*
X980*
Y1031*
X979Y1031*
X978Y1032*
X991Y1055D02*
X991D01*
X992Y1054*
X992Y1051*
X992Y1046*
X991Y1039*
X989Y1034*
X988Y1032*
X988Y1031*
X987Y1031*
X987Y1031*
X988Y1033*
X989Y1037*
X990Y1044*
X991Y1050*
X991Y1055*
X991Y1055*
X992Y1056D02*
X990Y1056D01*
X990Y1055*
X990Y1053*
X989Y1050*
X988Y1044*
X987Y1037*
X986Y1033*
X986Y1032*
Y1031*
X986Y1030*
X987Y1030*
X988Y1030*
X989Y1031*
X990Y1033*
X992Y1039*
X993Y1046*
X993Y1051*
X993Y1054*
X992Y1056*
X997Y680D02*
X997Y680D01*
X997Y680*
X996Y679*
X994Y677*
X993Y677*
X993Y677*
X993Y676*
X993Y676*
X994Y675*
X995Y675*
X997Y677*
X998Y679*
X998Y679*
X998Y679*
Y680*
X998Y680*
X998Y680*
X997*
X1003Y939D02*
X1002Y938D01*
X1002Y938*
X1002Y937*
X1003Y934*
X1005Y931*
X1006Y930*
X1006Y930*
X1007Y930*
X1007Y931*
X1007Y932*
X1006Y935*
X1004Y937*
X1004Y938*
X1003Y939*
X1003Y937D02*
X1003Y937D01*
X1005Y934*
X1006Y932*
X1004Y934*
X1003Y937*
X1005Y944D02*
X1004Y943D01*
X1005Y942*
X1007Y939*
X1009Y936*
X1010Y933*
X1009Y931*
X1010Y930*
X1011Y930*
X1012Y930*
X1012Y931*
X1013Y934*
X1013Y937*
X1011Y941*
X1007Y943*
X1006Y944*
X1005Y944*
X1006Y943D02*
X1007Y942D01*
X1010Y940*
X1012Y937*
X1012Y934*
X1011Y932*
X1011Y931*
X1011Y931*
X1011Y933*
X1011Y936*
X1008Y940*
X1006Y942*
X1006Y943*
X1010Y967D02*
X1009Y962D01*
X1009Y958*
X1011Y954*
X1014Y951*
X1011Y952*
X1007Y955*
X1006Y957*
X1006Y961*
X1007Y964*
X1009Y967*
X1010Y967*
X1019Y1005D02*
X1024Y1005D01*
X1028Y1003*
X1032Y999*
X1035Y993*
X1037Y988*
X1037Y984*
X1037Y982*
X1036Y982*
X1032Y981*
X1026Y981*
X1016Y980*
X1009Y977*
X1004Y973*
X1000Y966*
X998Y962*
X997Y960*
X997Y960*
X997Y960*
X996Y961*
X995Y964*
X995Y966*
X996Y969*
X1000Y973*
X1004Y978*
X1008Y981*
X1012Y983*
X1017Y984*
X1023Y985*
X1029Y985*
X1032Y987*
X1032Y990*
X1030Y994*
X1028Y998*
X1025Y1001*
X1021Y1002*
X1017Y1002*
X1014Y1000*
X1010Y998*
X1005Y995*
X1001Y992*
X992Y986*
X989Y984*
X987Y982*
X985Y979*
X985Y976*
X986Y973*
X989Y968*
X991Y964*
X992Y961*
X993Y958*
X992Y958*
X989Y962*
X983Y970*
X981Y979*
X982Y982*
X985Y986*
X988Y988*
X991Y991*
X996Y994*
X1001Y997*
X1007Y1000*
X1011Y1003*
X1015Y1004*
X1019Y1005*
X1019Y971D02*
X1019Y970D01*
X1019Y970*
X1023Y969*
X1027Y967*
X1030Y964*
X1031Y962*
Y962*
X1032Y961*
X1032Y961*
X1033Y961*
X1034Y962*
X1033Y966*
X1031Y968*
X1027Y971*
X1030Y970*
X1034Y967*
X1036Y963*
X1037Y959*
X1034Y955*
X1033Y954*
X1033Y956*
X1034Y960*
X1033Y960*
X1031Y957*
X1030Y954*
X1029Y953*
X1029Y952*
X1029Y953*
X1027Y953*
X1026Y951*
X1026Y951*
X1025Y951*
X1023Y951*
X1020Y952*
X1015Y955*
X1012Y958*
X1011Y962*
X1013Y966*
X1014Y968*
X1015Y969*
X1014Y970*
X1015Y970*
X1019Y971*
X1020Y972D02*
X1015Y972D01*
X1013Y971*
X1013Y970*
X1013Y969*
X1013*
X1013Y969*
X1012Y967*
X1010Y962*
X1012Y967*
X1012Y969*
X1012Y969*
X1012Y970*
X1012Y970*
X1011Y970*
X1010Y969*
X1009Y968*
X1006Y964*
X1005Y961*
X1005Y957*
X1006Y954*
X1010Y951*
X1015Y949*
X1017Y949*
X1017Y950*
X1018Y950*
X1018Y950*
X1017Y951*
X1017Y951*
X1015Y952*
X1012Y954*
X1011Y958*
X1010Y959*
X1011Y958*
X1014Y954*
X1019Y951*
X1023Y950*
X1025Y949*
X1027Y950*
X1027Y951*
X1027Y952*
X1028Y951*
X1030Y951*
X1031Y952*
X1031Y953*
X1031Y953*
X1031Y954*
X1032Y956*
X1032Y956*
X1032Y956*
X1032Y954*
X1032Y953*
X1032Y953*
X1033Y953*
X1034Y953*
X1035Y954*
X1038Y959*
X1038Y964*
X1035Y968*
X1030Y971*
X1025Y972*
X1020*
X1020Y701D02*
X1019Y701D01*
X1019Y701*
X1018Y700*
X1016Y698*
X1013Y695*
X1010Y692*
X1006Y688*
X1003Y685*
X1002Y683*
X1001Y683*
X1001Y682*
X1001Y682*
X1002Y681*
X1002Y682*
X1002Y682*
X1003Y682*
X1005Y684*
X1008Y687*
X1012Y691*
X1015Y694*
X1018Y697*
X1020Y699*
X1020Y700*
X1021Y700*
Y701*
X1020Y701*
X1021Y975D02*
X1012Y973D01*
X1006Y969*
X1003Y965*
X1002Y959*
X1003Y954*
X1004Y951*
X1008Y948*
X1012Y947*
X1017Y946*
X1022Y946*
X1027Y947*
X1032Y949*
X1038Y953*
X1041Y959*
X1041Y965*
X1037Y971*
X1034Y973*
X1030Y975*
X1026Y975*
X1021*
X1021Y974D02*
X1026Y974D01*
X1030Y973*
X1033Y972*
X1036Y970*
X1039Y965*
X1040Y959*
X1037Y954*
X1032Y950*
X1027Y949*
X1022Y948*
X1017Y947*
X1013Y948*
X1008Y949*
X1006Y952*
X1004Y955*
X1004Y959*
X1004Y965*
X1006Y968*
X1006Y968*
X1013Y972*
X1021Y974*
Y1007D02*
X1018Y1007D01*
X1015Y1006*
X1011Y1004*
X1006Y1001*
X1001Y998*
X995Y995*
X991Y992*
X987Y989*
X984Y987*
X981Y983*
X980Y979*
X982Y970*
X988Y961*
X991Y957*
X992Y956*
X993Y956*
X993Y956*
X993Y956*
X994Y956*
X994Y957*
Y958*
X993Y961*
X992Y965*
X990Y969*
X987Y973*
X986Y976*
X986Y979*
X988Y981*
X989Y983*
X993Y985*
X1001Y991*
X1006Y994*
X1011Y997*
X1015Y999*
X1018Y1000*
X1021Y1001*
X1024Y1000*
X1027Y997*
X1029Y994*
X1031Y989*
X1030Y987*
X1028Y986*
X1023Y986*
X1017Y986*
X1012Y984*
X1007Y982*
X1003Y979*
X998Y974*
X995Y969*
X994Y967*
X993Y965*
X994Y961*
X996Y959*
X996Y958*
X997Y959*
X999Y961*
X1001Y966*
X1005Y972*
X1010Y976*
X1016Y978*
X1026Y979*
X1032Y980*
X1036Y980*
X1038Y982*
X1039Y983*
X1038Y988*
X1036Y994*
X1033Y999*
X1029Y1004*
X1026Y1006*
X1021Y1007*
X1022Y925D02*
X1021Y919D01*
X1022Y914*
X1025Y909*
X1031Y905*
X1025Y907*
X1022Y910*
X1019Y912*
X1018Y915*
X1018Y919*
X1022Y925*
X1024Y970D02*
X1027Y969D01*
X1030Y967*
X1032Y965*
X1032Y963*
X1032Y963*
X1031Y965*
X1030Y967*
Y966*
X1027Y968*
X1024Y970*
X1025Y930D02*
X1025Y929D01*
X1024Y928*
X1022Y926*
X1019Y923*
X1017Y919*
X1018Y911*
X1021Y909*
X1025Y906*
X1029Y904*
X1033Y903*
X1034Y903*
X1034Y904*
X1034Y905*
X1034Y905*
X1031Y906*
X1026Y910*
X1023Y915*
X1022Y921*
X1025Y927*
X1026Y928*
X1026Y929*
X1026Y929*
X1025Y930*
X1026Y1020D02*
X1026Y1019D01*
X1028Y1016*
X1032Y1011*
X1035Y1004*
X1049Y979*
X1060Y953*
X1069Y925*
X1075Y897*
X1076Y889*
X1077Y880*
X1077Y870*
X1078Y856*
X1077Y840*
X1077Y830*
X1076Y823*
X1074Y814*
X1067Y793*
X1059Y772*
X1049Y753*
X1039Y734*
X1027Y716*
X1014Y701*
X1000Y687*
X986Y675*
X981Y671*
X979Y670*
X978Y670*
X978Y670*
X978Y670*
X976Y671*
X972Y673*
X967Y676*
X975Y684*
X990Y703*
X1002Y726*
X1013Y752*
X1020Y780*
X1022Y790*
X1023Y798*
X1023Y808*
X1024Y821*
X1023Y841*
X1021Y859*
X1017Y877*
X1010Y898*
X1007Y906*
X1003Y917*
X998Y928*
X993Y939*
X987Y950*
X982Y960*
X977Y969*
X972Y976*
X968Y982*
X967Y984*
X967Y985*
X967Y985*
X969Y986*
X972Y988*
X976Y990*
X985Y996*
X996Y1003*
X1007Y1009*
X1016Y1015*
X1023Y1019*
X1025Y1020*
X1026Y1020*
X1026Y1021D02*
X1025Y1021D01*
X1025Y1021*
X1022Y1020*
X1015Y1016*
X1006Y1010*
X995Y1004*
X984Y997*
X975Y991*
X968Y987*
X966Y986*
X966Y986*
X966Y985*
X965Y985*
X966Y984*
X966Y984*
X967Y982*
X971Y976*
X975Y968*
X981Y959*
X986Y949*
X991Y938*
X997Y927*
X1002Y916*
X1006Y906*
X1009Y897*
X1015Y877*
X1019Y859*
X1022Y841*
X1022Y821*
X1022Y808*
X1022Y798*
X1021Y790*
X1019Y781*
X1011Y752*
X1001Y726*
X989Y704*
X974Y685*
X966Y677*
X965Y676*
X966Y676*
X971Y672*
X976Y670*
X977Y669*
X978Y668*
X979Y669*
X980Y669*
X982Y670*
X987Y674*
X1001Y686*
X1015Y700*
X1028Y716*
X1040Y733*
X1051Y752*
X1060Y772*
X1068Y792*
X1075Y813*
X1077Y822*
X1078Y830*
X1079Y840*
X1079Y856*
X1079Y870*
X1078Y881*
X1078Y889*
X1077Y897*
X1070Y926*
X1061Y953*
X1050Y980*
X1036Y1005*
X1033Y1011*
X1030Y1016*
X1027Y1020*
X1027Y1021*
X1026Y1021*
X1026Y1021*
X1026Y1021*
X1028Y710D02*
X1027Y710D01*
X1027Y710*
X1026Y709*
X1023Y707*
X1021Y705*
X1021Y704*
X1021Y703*
X1021Y703*
X1021Y702*
X1022Y703*
X1022Y703*
X1023Y704*
X1026Y706*
X1028Y708*
X1028Y709*
X1028Y710*
X1028Y710*
X1028Y710*
X1029Y1024D02*
X1030Y1024D01*
X1030Y1023*
X1033Y1020*
X1036Y1016*
X1039Y1010*
X1047Y996*
X1055Y982*
X1067Y953*
X1076Y924*
X1082Y895*
X1085Y865*
X1085Y854*
X1085Y846*
X1084Y838*
X1083Y830*
X1077Y805*
X1068Y780*
X1056Y755*
X1041Y729*
X1041Y729*
X1053Y749*
X1064Y772*
X1073Y795*
X1079Y817*
X1082Y836*
X1083Y857*
X1082Y880*
X1078Y904*
X1071Y934*
X1060Y964*
X1047Y994*
X1030Y1022*
X1029Y1024*
X1029Y1024*
X1029Y1024*
Y1025D02*
X1028Y1025D01*
X1028Y1024*
X1028Y1023*
X1029Y1021*
X1046Y993*
X1059Y964*
X1070Y933*
X1077Y904*
X1080Y879*
X1082Y857*
X1081Y836*
X1078Y817*
X1071Y795*
X1062Y772*
X1051Y749*
X1039Y729*
X1036Y724*
X1034Y720*
X1033Y718*
X1032Y717*
X1032Y717*
X1032Y716*
X1033Y716*
X1033Y716*
X1034Y717*
X1034Y718*
X1036Y720*
X1042Y728*
X1042Y728*
X1057Y754*
X1070Y779*
X1079Y805*
X1084Y830*
X1085Y838*
X1086Y845*
X1086Y854*
X1086Y865*
X1083Y895*
X1078Y924*
X1069Y953*
X1056Y982*
X1049Y997*
X1041Y1011*
X1037Y1017*
X1034Y1021*
X1031Y1024*
X1030Y1025*
X1029Y1025*
X1030Y1090D02*
X1029Y1089D01*
X1029Y1087*
X1029Y1084*
X1030Y1082*
X1031Y1081*
X1032Y1080*
X1033Y1081*
X1034Y1083*
X1032Y1088*
X1031Y1089*
X1030Y1090*
X1030Y1088D02*
X1030Y1088D01*
X1031Y1087*
X1032Y1083*
X1032Y1082*
X1032Y1082*
X1032Y1082*
X1031Y1082*
X1030Y1085*
X1030Y1087*
X1030Y1088*
X1030Y1088*
X1031Y1028D02*
X1032Y1027D01*
X1034Y1025*
X1037Y1020*
X1055Y989*
X1069Y957*
X1080Y923*
X1086Y888*
X1088Y873*
X1088Y855*
X1087Y837*
X1085Y823*
X1079Y801*
X1071Y778*
X1061Y756*
X1049Y735*
X1035Y715*
X1020Y697*
X1004Y681*
X988Y669*
X981Y665*
X976Y663*
X970Y664*
X964Y668*
X960Y672*
X958Y674*
X958Y675*
X958Y676*
X960Y678*
X965Y684*
X975Y697*
X985Y711*
X994Y727*
X1001Y745*
X1007Y763*
X1011Y782*
X1013Y801*
X1014Y820*
X1013Y842*
X1010Y864*
X1004Y886*
X995Y909*
X987Y929*
X977Y949*
X967Y966*
X960Y978*
X958Y981*
X958Y984*
X959Y986*
X961Y988*
X967Y992*
X975Y997*
X986Y1004*
X997Y1010*
X1009Y1017*
X1018Y1022*
X1026Y1026*
X1028Y1027*
X1029Y1027*
X1031Y1028*
X1031Y1029D02*
X1029Y1029D01*
X1027Y1028*
X1025Y1027*
X1018Y1023*
X1008Y1018*
X997Y1011*
X985Y1005*
X975Y998*
X966Y993*
X960Y989*
X958Y987*
X956Y984*
X957Y980*
X959Y977*
X966Y966*
X975Y948*
X985Y928*
X994Y908*
X1003Y886*
X1008Y864*
X1012Y842*
X1013Y820*
X1012Y801*
X1009Y782*
X1005Y763*
X1000Y745*
X992Y728*
X984Y712*
X974Y698*
X964Y685*
X959Y679*
X957Y676*
X956Y675*
X957Y673*
X959Y671*
X964Y667*
X970Y663*
X976Y662*
X981Y664*
X989Y668*
X1005Y680*
X1021Y696*
X1036Y714*
X1050Y734*
X1062Y755*
X1072Y778*
X1081Y800*
X1086Y823*
X1088Y837*
X1089Y855*
X1089Y873*
X1088Y888*
X1081Y924*
X1071Y957*
X1057Y989*
X1038Y1021*
X1035Y1025*
X1033Y1028*
X1031Y1029*
X1032Y716D02*
X1031Y715D01*
X1031Y715*
X1030Y714*
X1027Y712*
X1027Y711*
X1028Y710*
X1028Y710*
X1029Y710*
X1029Y711*
X1030Y711*
X1031Y713*
X1032Y714*
X1032Y715*
X1032Y715*
Y715*
X1032Y715*
X1032Y716*
X1032*
X1033Y1137D02*
X1034Y1137D01*
X1033Y1136*
X1032Y1135*
X1032Y1133*
X1031Y1130*
X1032Y1128*
X1032Y1128*
X1032*
X1031Y1128*
X1030Y1129*
X1030Y1131*
X1031Y1134*
X1032Y1136*
X1033Y1137*
X1033Y931D02*
X1029Y930D01*
X1026Y927*
X1024Y924*
X1023Y920*
X1023Y917*
X1025Y913*
X1028Y910*
X1033Y907*
X1038Y906*
X1042Y905*
X1045Y905*
X1046Y905*
X1046Y905*
X1047Y905*
X1047Y906*
X1047Y906*
X1046Y906*
X1046Y907*
X1046Y907*
X1048Y910*
X1051Y914*
X1052Y918*
X1051Y921*
X1048Y925*
X1044Y929*
X1038Y930*
X1033Y931*
X1033Y929D02*
X1038Y929D01*
X1041Y929*
X1043Y928*
X1045Y927*
X1047Y925*
X1050Y921*
X1051Y918*
X1050Y914*
X1047Y911*
X1045Y908*
X1044Y907*
X1045Y906*
X1042Y907*
X1038Y907*
X1033Y909*
X1029Y911*
X1026Y914*
X1024Y917*
X1024Y920*
X1025Y923*
X1027Y926*
X1030Y928*
X1033Y929*
X1039Y935D02*
X1047Y934D01*
X1054Y931*
X1058Y927*
X1060Y921*
X1060Y917*
X1059Y915*
X1058Y913*
X1056Y911*
X1050Y906*
X1042Y903*
X1033Y902*
X1025Y903*
X1022Y905*
X1019Y908*
X1017Y910*
X1016Y912*
X1015Y914*
X1015Y917*
X1017Y924*
X1022Y930*
X1029Y933*
X1039Y935*
Y936D02*
X1029Y935D01*
X1021Y931*
X1016Y925*
X1014Y917*
X1014Y914*
X1015Y911*
X1016Y909*
X1018Y907*
X1021Y904*
X1025Y902*
X1033Y901*
X1042Y902*
X1051Y905*
X1057Y910*
X1060Y912*
X1061Y915*
X1061Y917*
X1061Y921*
X1059Y927*
X1054Y932*
X1048Y935*
X1039Y936*
X1039Y1126D02*
X1038Y1126D01*
X1038Y1125*
X1039Y1123*
X1040Y1121*
X1040Y1117*
X1039Y1110*
X1040Y1102*
X1041Y1096*
X1041Y1095*
X1042Y1094*
X1043Y1094*
X1044Y1094*
X1044Y1095*
X1045Y1097*
X1045Y1102*
X1045Y1109*
X1045Y1116*
X1044Y1120*
X1044Y1123*
X1042Y1125*
X1040Y1126*
X1039Y1126*
X1040Y1125D02*
X1040Y1125D01*
X1042Y1124*
X1042Y1123*
X1043Y1120*
X1043Y1116*
X1043Y1109*
X1044Y1102*
X1043Y1098*
X1043Y1095*
X1043Y1095*
X1043Y1095*
X1042Y1097*
X1041Y1103*
X1041Y1110*
X1041Y1116*
X1041Y1121*
X1040Y1124*
X1040Y1125*
X1040Y934D02*
X1040Y932D01*
X1044Y931*
X1049Y927*
X1052Y922*
X1053Y917*
X1052Y912*
X1051Y910*
X1051Y909*
X1052Y909*
X1052*
X1053Y909*
X1055Y911*
X1057Y915*
X1058Y920*
X1057Y924*
X1055Y927*
X1052Y929*
X1048Y932*
X1044Y933*
X1041Y934*
X1040Y934*
X1045Y931D02*
X1052Y928D01*
X1056Y923*
X1057Y920*
X1056Y916*
X1054Y912*
X1053Y911*
X1053Y911*
X1054Y917*
X1053Y922*
X1050Y927*
X1045Y931*
X1046Y887D02*
X1045Y886D01*
X1049Y885*
X1054Y883*
X1057Y880*
X1058Y876*
X1057Y872*
X1057Y870*
X1057Y869*
X1056Y869*
X1057Y869*
X1056Y868*
X1054Y868*
X1051Y867*
X1047Y868*
X1042Y871*
X1040Y874*
X1039Y875*
X1038Y876*
X1037Y876*
X1037Y876*
X1036Y875*
X1037Y872*
X1040Y869*
X1041Y867*
X1040Y867*
X1037Y869*
X1034Y873*
X1034Y877*
X1035Y881*
X1038Y884*
X1036Y880*
X1037Y879*
X1037Y879*
X1038Y879*
X1040Y881*
X1041Y884*
X1042Y885*
Y886*
X1043Y886*
X1045Y887*
X1046Y887*
X1048Y1083D02*
X1048Y1083D01*
X1049Y1082*
X1051Y1080*
X1056Y1074*
X1062Y1064*
X1058Y1058*
X1056Y1055*
X1054Y1052*
X1055Y1049*
X1057Y1047*
X1055Y1048*
X1052Y1050*
X1056Y1055*
X1059Y1060*
X1060Y1061*
X1060Y1063*
X1060Y1063*
X1059Y1064*
X1058Y1066*
X1053Y1073*
X1049Y1079*
X1047Y1082*
X1047Y1083*
X1047Y1083*
X1048Y1083*
Y1084D02*
X1047Y1084D01*
X1046Y1084*
X1046Y1081*
X1048Y1078*
X1052Y1072*
X1057Y1066*
X1058Y1063*
X1059Y1063*
X1059Y1063*
X1058Y1062*
X1058Y1060*
X1055Y1056*
X1051Y1050*
X1051Y1050*
X1051Y1049*
X1054Y1047*
X1057Y1045*
X1061Y1045*
X1064Y1047*
X1068Y1051*
X1072Y1056*
X1077Y1054*
X1082Y1052*
X1084Y1052*
X1084Y1052*
X1085Y1052*
X1085Y1052*
X1085Y1053*
X1085Y1053*
X1084Y1054*
X1079Y1056*
X1074Y1057*
X1071Y1057*
X1068Y1056*
X1065Y1052*
X1063Y1049*
X1060Y1048*
X1058Y1048*
X1056Y1049*
X1055Y1050*
X1056Y1052*
X1057Y1054*
X1059Y1057*
X1064Y1064*
X1064Y1064*
X1064Y1065*
X1057Y1074*
X1052Y1081*
X1050Y1083*
X1049Y1084*
X1048Y1084*
X1049Y887D02*
X1057Y886D01*
X1062Y883*
X1064Y879*
X1063Y875*
X1061Y871*
X1059Y869*
X1059Y870*
X1061Y873*
X1061Y876*
X1060Y880*
X1057Y884*
X1053Y886*
X1049Y887*
X1048*
X1049Y887*
X1049Y889D02*
X1046Y889D01*
X1044Y887*
X1043Y887*
X1041Y887*
X1041Y887*
X1041Y886*
X1041Y885*
X1040Y885*
X1039Y882*
X1038Y881*
X1039Y884*
X1040Y884*
X1040Y885*
X1040Y885*
X1040Y886*
X1039Y886*
X1039Y886*
X1038Y885*
X1034Y882*
X1032Y877*
X1033Y872*
X1036Y868*
X1039Y866*
X1042Y865*
X1043Y866*
X1043Y867*
X1041Y870*
X1039Y872*
X1038Y874*
X1038Y873*
X1042Y870*
X1046Y867*
X1051Y866*
X1053Y866*
X1055Y866*
X1056Y867*
X1057Y867*
X1057Y867*
X1058Y867*
X1059Y868*
X1062Y870*
X1065Y874*
X1065Y879*
X1062Y884*
X1058Y887*
X1049Y889*
X1050Y886D02*
X1053Y885D01*
X1056Y883*
X1059Y879*
X1060Y876*
X1060Y874*
X1059Y872*
X1059Y876*
X1058Y880*
X1055Y884*
X1050Y886*
X1050Y956D02*
X1050Y956D01*
X1052Y954*
X1053Y951*
X1053Y948*
X1053Y945*
X1053Y944*
X1052Y944*
X1050Y944*
X1048Y944*
X1046Y945*
X1045Y947*
X1044Y949*
X1045Y954*
X1046Y956*
X1046Y955*
X1046Y952*
Y948*
X1048Y945*
X1050Y944*
X1052Y945*
X1053Y948*
X1051Y951*
X1050Y955*
X1050Y956*
X1050Y956*
X1050Y956*
X1050Y957D02*
X1049Y957D01*
X1049Y956*
X1049Y954*
X1050Y951*
X1051Y948*
X1051Y946*
X1050Y945*
X1049Y947*
X1047Y949*
X1047Y952*
X1047Y955*
X1047Y957*
X1046Y957*
X1045Y957*
X1044Y955*
X1043Y949*
X1044Y946*
X1045Y944*
X1047Y943*
X1050Y943*
X1053Y943*
X1054Y944*
X1055Y945*
X1055Y948*
X1054Y951*
X1053Y955*
X1051Y957*
X1050Y957*
X1053Y890D02*
X1057Y889D01*
X1060Y888*
X1063Y886*
X1065Y883*
X1066Y881*
X1066Y877*
X1066Y873*
X1064Y869*
X1060Y867*
X1054Y864*
X1050Y863*
X1046Y863*
X1043Y863*
X1039Y864*
X1034Y867*
X1031Y871*
X1030Y876*
X1031Y881*
X1033Y884*
X1036Y886*
X1040Y888*
X1044Y889*
X1053Y890*
X1053Y891D02*
X1044Y891D01*
X1040Y889*
X1036Y887*
X1032Y885*
X1030Y881*
X1029Y876*
X1030Y870*
X1033Y866*
X1039Y863*
X1043Y862*
X1046Y862*
X1050Y862*
X1055Y863*
X1061Y866*
X1065Y868*
X1067Y872*
X1068Y877*
X1067Y881*
X1066Y884*
X1064Y887*
X1061Y889*
X1058Y891*
X1053Y891*
X1058Y1170D02*
X1058Y1169D01*
X1059Y1168*
X1062Y1165*
X1064Y1161*
X1065Y1160*
X1065Y1159*
X1065Y1159*
X1065Y1159*
X1064Y1157*
X1060Y1153*
X1055Y1147*
X1051Y1141*
X1049Y1137*
X1046Y1135*
X1043Y1135*
X1038Y1136*
X1037Y1136*
X1038Y1136*
X1039Y1136*
X1044Y1136*
X1046Y1136*
X1048Y1137*
X1049Y1139*
X1050Y1141*
X1052Y1143*
X1057Y1149*
X1060Y1153*
X1062Y1157*
X1062Y1161*
X1060Y1164*
X1058Y1168*
X1057Y1170*
X1058Y1170*
Y1171D02*
X1056Y1170D01*
X1056Y1168*
X1059Y1163*
X1061Y1160*
X1061Y1157*
X1059Y1154*
X1056Y1150*
X1051Y1144*
X1049Y1142*
X1048Y1140*
X1047Y1138*
X1046Y1137*
X1044Y1137*
X1039Y1138*
X1035Y1138*
X1032Y1138*
X1031Y1137*
X1030Y1134*
X1029Y1129*
X1030Y1127*
X1032Y1126*
X1033Y1127*
X1033Y1129*
X1033Y1130*
X1033Y1133*
X1034Y1135*
X1034Y1135*
X1035Y1135*
X1037Y1135*
X1043Y1134*
X1047Y1134*
X1050Y1136*
X1052Y1140*
X1054Y1143*
X1057Y1147*
X1059Y1150*
X1061Y1152*
X1065Y1156*
X1066Y1158*
X1066Y1159*
X1067Y1159*
X1066Y1160*
X1065Y1162*
X1063Y1166*
X1060Y1169*
X1059Y1170*
X1058Y1171*
X1067Y1175D02*
X1069Y1174D01*
X1071Y1171*
X1074Y1168*
X1074Y1165*
X1074Y1164*
X1074*
X1074Y1165*
X1072Y1166*
X1070Y1169*
X1068Y1173*
X1066Y1175*
X1067Y1175*
Y1176D02*
X1065Y1176D01*
X1064Y1175*
X1065Y1174*
X1066Y1173*
X1067Y1172*
X1069Y1168*
X1073Y1164*
X1074Y1163*
X1075Y1163*
X1076Y1165*
X1075Y1168*
X1072Y1172*
X1069Y1175*
X1067Y1176*
X1067Y861D02*
X1069Y858D01*
X1071Y854*
X1072Y847*
X1071Y837*
X1070Y826*
X1067Y812*
X1062Y797*
X1056Y782*
X1049Y767*
X1042Y752*
X1034Y738*
X1025Y726*
X1017Y716*
X1012Y711*
X1008Y708*
X1008Y708*
X1008Y708*
X1009Y710*
X1010Y712*
X1012Y715*
X1015Y718*
X1021Y728*
X1029Y739*
X1037Y751*
X1044Y764*
X1050Y778*
X1056Y792*
X1061Y806*
X1065Y819*
X1067Y832*
X1068Y843*
X1068Y849*
X1066Y853*
X1062Y854*
X1056Y854*
X1050Y853*
X1044Y853*
X1038Y853*
X1036Y852*
X1034Y851*
X1034Y848*
X1033Y844*
X1033Y839*
X1034Y832*
X1033Y802*
X1028Y774*
X1025Y761*
X1021Y747*
X1019Y740*
X1017Y734*
X1015Y730*
X1014Y726*
X1011Y721*
X1008Y716*
X1005Y713*
X1005Y713*
X1007Y718*
X1009Y724*
X1012Y731*
X1021Y757*
X1026Y780*
X1029Y803*
X1030Y829*
X1030Y839*
X1030Y848*
X1031Y854*
X1031Y856*
X1031Y856*
X1032Y857*
X1033Y857*
X1036Y857*
X1041Y857*
X1050Y857*
X1059Y858*
X1067Y861*
X1068Y862D02*
X1067Y862D01*
X1059Y860*
X1050Y858*
X1041Y858*
X1036Y859*
X1033Y858*
X1030Y857*
X1030Y856*
X1029Y854*
X1029Y848*
X1029Y839*
X1029Y829*
X1028Y804*
X1025Y781*
X1019Y758*
X1011Y732*
X1008Y724*
X1006Y718*
X1004Y714*
X1004Y712*
X1004Y712*
X1004Y712*
X1004Y711*
X1005Y711*
X1005Y711*
X1006Y712*
X1009Y715*
X1012Y720*
X1015Y726*
X1016Y729*
X1018Y734*
X1020Y740*
X1022Y747*
X1026Y761*
X1030Y774*
X1034Y802*
X1035Y832*
X1035Y839*
X1035Y844*
X1035Y848*
X1036Y850*
X1037Y851*
X1038Y852*
X1044Y852*
X1050Y852*
X1057Y852*
X1062Y853*
X1065Y852*
X1067Y849*
X1067Y843*
X1066Y832*
X1063Y820*
X1060Y806*
X1055Y792*
X1049Y778*
X1043Y764*
X1036Y752*
X1028Y740*
X1020Y729*
X1014Y719*
X1011Y715*
X1009Y712*
X1008Y710*
X1007Y709*
X1006Y708*
X1006Y707*
X1007Y706*
X1007Y706*
X1008Y706*
X1009Y707*
X1013Y710*
X1017Y715*
X1026Y725*
X1035Y738*
X1043Y751*
X1051Y766*
X1057Y781*
X1063Y797*
X1068Y812*
X1071Y826*
X1073Y837*
X1073Y847*
X1072Y854*
X1070Y859*
X1068Y862*
X1068Y862*
X1069Y1179D02*
X1071Y1178D01*
X1072Y1176*
X1075Y1172*
X1078Y1167*
X1079Y1165*
X1080Y1165*
X1081Y1164*
X1082Y1165*
X1082Y1167*
X1082Y1167*
X1083Y1167*
X1083Y1167*
X1083Y1166*
X1084Y1166*
X1085Y1166*
X1087Y1166*
X1087Y1166*
X1087Y1166*
X1081Y1164*
X1076Y1162*
X1072Y1162*
X1070Y1164*
X1068Y1167*
X1066Y1171*
X1065Y1172*
X1064Y1172*
X1063Y1172*
X1063Y1171*
X1063Y1170*
X1064Y1169*
X1066Y1164*
X1069Y1159*
X1063Y1151*
X1060Y1148*
X1057Y1144*
X1055Y1141*
X1053Y1138*
X1050Y1134*
X1047Y1132*
X1044Y1132*
X1038Y1134*
X1036Y1134*
X1035Y1133*
X1035Y1132*
X1037Y1129*
X1041Y1128*
X1046Y1126*
Y1093*
X1041Y1092*
X1038Y1091*
X1036Y1090*
X1035Y1089*
X1035Y1087*
X1035Y1085*
X1036Y1084*
X1037Y1083*
X1039Y1084*
X1046Y1085*
X1050Y1085*
X1053Y1083*
X1056Y1078*
X1060Y1073*
X1062Y1070*
X1064Y1067*
X1065Y1065*
X1064Y1062*
X1062Y1058*
X1059Y1053*
X1058Y1052*
X1059Y1050*
X1060Y1050*
X1061Y1050*
X1064Y1053*
X1066Y1057*
X1068Y1059*
X1070Y1059*
X1073Y1059*
X1076Y1059*
X1078Y1058*
X1082Y1056*
X1088Y1055*
X1096Y1053*
X1103Y1053*
X1114*
X1115Y1047*
X1116Y1042*
X1116Y1040*
X1117Y1039*
X1118Y1039*
X1119Y1040*
X1119Y1043*
X1117Y1050*
X1117Y1053*
X1118Y1055*
X1121Y1057*
X1133Y1066*
X1142Y1076*
X1145Y1081*
X1149Y1083*
X1152Y1084*
X1155Y1083*
X1158Y1082*
X1160Y1083*
X1160Y1084*
X1160Y1086*
X1156Y1088*
X1151Y1091*
X1151Y1105*
X1152Y1115*
X1152Y1119*
X1152Y1120*
X1152Y1120*
X1154Y1121*
X1156Y1121*
X1158Y1120*
X1159Y1117*
X1160Y1111*
X1159Y1103*
X1158Y1094*
X1158Y1094*
X1159Y1094*
X1163Y1092*
X1167Y1090*
X1168Y1088*
X1168Y1085*
X1166Y1081*
X1164Y1077*
X1161Y1075*
X1158Y1074*
X1155Y1075*
X1152Y1076*
X1150*
X1149Y1074*
X1146Y1071*
X1144Y1069*
X1141Y1066*
X1138Y1063*
X1134Y1060*
X1130Y1058*
X1127Y1056*
X1125Y1054*
X1125Y1052*
X1126Y1049*
X1126Y1045*
X1127Y1042*
X1127Y1040*
X1126Y1040*
X1124Y1039*
X1120Y1038*
X1116Y1037*
X1112Y1036*
X1110Y1036*
X1108Y1037*
X1108Y1037*
X1107Y1038*
X1107Y1042*
X1107Y1046*
X1106Y1049*
X1104Y1051*
X1101Y1051*
X1099Y1051*
X1099Y1051*
X1098Y1051*
X1098Y1051*
X1098Y1050*
X1098Y1050*
X1099Y1050*
X1100Y1049*
X1100*
X1097Y1049*
X1093Y1049*
X1084Y1050*
X1080Y1051*
X1078Y1052*
X1073Y1054*
X1072Y1054*
X1072Y1054*
X1069Y1049*
X1066Y1045*
X1062Y1043*
X1058Y1043*
X1054Y1045*
X1050Y1047*
X1048Y1048*
X1048Y1049*
X1048Y1050*
X1049Y1051*
X1053Y1056*
X1058Y1063*
X1058Y1063*
X1057Y1063*
X1054Y1067*
X1051Y1071*
X1047Y1077*
X1043Y1081*
X1041Y1082*
X1040Y1083*
X1039Y1083*
X1038Y1083*
X1038Y1082*
X1038Y1082*
X1038Y1081*
X1039Y1081*
X1039Y1081*
X1035Y1079*
X1030Y1078*
X1029*
X1028Y1079*
X1028Y1079*
X1028Y1081*
X1027Y1085*
X1026Y1088*
X1027Y1090*
X1030Y1092*
X1036Y1093*
X1036Y1093*
X1036Y1093*
X1035Y1092*
X1035Y1092*
X1035Y1091*
X1036Y1091*
X1036Y1091*
X1037Y1091*
X1039Y1093*
X1039Y1095*
X1039Y1096*
X1039Y1100*
X1038Y1109*
X1038Y1122*
Y1123*
X1038Y1123*
X1032Y1125*
X1027Y1126*
X1026Y1127*
X1026Y1127*
X1026Y1131*
X1027Y1135*
X1029Y1138*
X1030Y1139*
X1030Y1140*
X1032Y1141*
X1035Y1141*
X1040Y1139*
X1043Y1138*
X1045Y1138*
X1046Y1139*
X1047Y1142*
X1050Y1146*
X1054Y1151*
X1058Y1155*
X1059Y1156*
X1060Y1157*
X1060Y1158*
X1060Y1159*
X1059Y1160*
X1056Y1164*
X1054Y1167*
X1054Y1170*
X1056Y1172*
X1059Y1175*
X1063Y1177*
X1067Y1178*
X1069Y1179*
X1069Y1180D02*
X1067Y1180D01*
X1063Y1178*
X1058Y1176*
X1055Y1173*
X1053Y1170*
X1053Y1167*
X1055Y1163*
X1058Y1159*
X1058Y1158*
X1059Y1158*
X1059*
X1058Y1157*
X1057Y1156*
X1054Y1152*
X1049Y1147*
X1046Y1142*
X1045Y1140*
X1044Y1139*
X1043Y1139*
X1041Y1140*
X1035Y1142*
X1032Y1142*
X1029Y1141*
X1028Y1140*
X1028Y1139*
X1026Y1135*
X1025Y1131*
X1025Y1127*
X1025Y1126*
X1027Y1125*
X1031Y1123*
X1037Y1122*
X1037Y1109*
X1037Y1099*
X1038Y1096*
X1038Y1095*
X1037Y1095*
X1035Y1094*
X1030Y1093*
X1026Y1091*
X1025Y1088*
X1025Y1085*
X1026Y1080*
X1027Y1079*
X1027Y1078*
X1029Y1077*
X1030*
X1035Y1078*
X1040Y1080*
X1040Y1081*
X1040Y1081*
X1040Y1082*
X1041Y1081*
X1042Y1080*
X1046Y1076*
X1050Y1070*
X1053Y1066*
X1056Y1063*
X1052Y1057*
X1048Y1052*
X1047Y1050*
X1047Y1049*
X1047Y1047*
X1049Y1046*
X1053Y1044*
X1058Y1042*
X1063Y1042*
X1066Y1044*
X1070Y1048*
X1073Y1053*
X1077Y1051*
X1084Y1049*
X1093Y1048*
X1097Y1048*
X1100*
X1101Y1048*
X1102Y1048*
X1102Y1049*
X1102Y1050*
X1101Y1050*
X1101Y1050*
X1103Y1050*
X1105Y1049*
X1106Y1046*
X1106Y1042*
X1106Y1038*
X1106Y1037*
X1106*
X1107Y1036*
X1110Y1035*
X1112Y1035*
X1116Y1036*
X1120Y1037*
X1124Y1038*
X1126Y1038*
X1128Y1040*
X1128Y1042*
X1128Y1045*
X1127Y1049*
X1126Y1053*
X1126Y1053*
X1128Y1055*
X1130Y1057*
X1135Y1059*
X1142Y1065*
X1147Y1070*
X1150Y1074*
X1151Y1075*
X1152Y1075*
X1154Y1074*
X1158Y1073*
X1162Y1074*
X1165Y1077*
X1168Y1081*
X1169Y1085*
X1170Y1088*
X1168Y1091*
X1164Y1093*
X1160Y1095*
X1160Y1103*
X1161Y1111*
X1160Y1117*
X1159Y1121*
X1156Y1122*
X1153Y1122*
X1151Y1121*
X1151Y1120*
X1151Y1119*
X1150Y1115*
X1150Y1105*
X1149Y1090*
Y1090*
X1150Y1090*
X1155Y1087*
X1159Y1085*
X1159Y1084*
X1159Y1084*
X1158Y1084*
X1155Y1084*
X1152Y1085*
X1148Y1085*
X1144Y1082*
X1141Y1077*
X1132Y1067*
X1120Y1058*
X1117Y1056*
X1116Y1053*
X1116Y1049*
X1117Y1042*
X1117Y1041*
X1117Y1041*
X1117Y1042*
X1116Y1047*
X1115Y1054*
X1115Y1054*
X1103*
X1096Y1055*
X1088Y1056*
X1082Y1058*
X1079Y1059*
X1077Y1060*
X1073Y1061*
X1070Y1060*
X1067Y1060*
X1065Y1058*
X1063Y1054*
X1060Y1051*
X1060Y1051*
X1060Y1051*
X1059Y1052*
X1060Y1053*
X1063Y1058*
X1065Y1062*
X1066Y1065*
X1065Y1068*
X1063Y1070*
X1061Y1074*
X1057Y1079*
X1054Y1084*
X1050Y1086*
X1048Y1087*
X1046Y1087*
X1043Y1086*
X1039Y1085*
X1037Y1085*
X1037Y1085*
X1036Y1085*
X1036Y1087*
X1037Y1088*
X1037Y1089*
X1041Y1090*
X1047Y1092*
X1048Y1092*
Y1127*
X1047Y1127*
X1041Y1129*
X1038Y1131*
X1036Y1132*
X1036Y1132*
X1037Y1133*
X1038Y1132*
X1043Y1131*
X1048Y1131*
X1051Y1133*
X1054Y1138*
X1056Y1140*
X1058Y1144*
X1061Y1147*
X1064Y1151*
X1071Y1158*
X1071Y1158*
X1071Y1159*
X1067Y1165*
X1065Y1169*
X1067Y1166*
X1069Y1163*
X1072Y1161*
X1076Y1161*
X1081Y1163*
X1088Y1165*
X1094Y1165*
X1101Y1165*
X1109Y1163*
X1117Y1162*
X1122Y1161*
X1126Y1163*
X1128Y1166*
X1130Y1168*
X1131Y1168*
X1131Y1168*
X1131Y1168*
X1131Y1167*
X1130Y1164*
X1128Y1160*
X1127Y1158*
X1127Y1157*
X1127Y1156*
X1129Y1154*
X1132Y1151*
X1135Y1148*
X1138Y1145*
X1141Y1141*
X1143Y1137*
X1147Y1131*
X1149Y1129*
X1150Y1128*
X1151Y1128*
X1154Y1128*
X1158Y1130*
X1161Y1131*
X1163Y1131*
X1164Y1130*
X1164Y1127*
X1165Y1123*
X1167Y1121*
X1170Y1121*
X1173Y1123*
X1175Y1126*
X1175Y1128*
X1174Y1132*
X1173Y1137*
X1171Y1139*
X1167*
X1161Y1137*
X1158Y1136*
X1156Y1136*
X1156*
X1156Y1136*
X1155Y1138*
X1152Y1142*
X1151Y1145*
X1148Y1149*
X1146Y1152*
X1143Y1155*
X1138Y1160*
X1140Y1164*
X1142Y1168*
X1142Y1171*
X1141Y1174*
X1137Y1176*
X1132Y1178*
X1128Y1178*
X1124Y1176*
X1121Y1172*
X1120Y1170*
X1119Y1169*
X1118Y1169*
X1116Y1170*
X1111Y1171*
X1106Y1171*
X1100Y1171*
X1094Y1171*
X1088Y1170*
X1084Y1169*
X1081Y1168*
X1080Y1167*
X1080Y1166*
X1081Y1166*
X1081Y1166*
X1081Y1166*
X1081Y1166*
X1080Y1166*
X1079Y1168*
X1076Y1173*
X1073Y1177*
X1071Y1179*
X1069Y1180*
X1071Y1056D02*
X1067Y1051D01*
X1065Y1050*
X1066Y1051*
X1069Y1054*
X1071Y1056*
X1071Y1134D02*
X1067Y1124D01*
X1066Y1113*
X1066Y1102*
X1069Y1091*
X1072Y1085*
X1077Y1079*
X1081Y1075*
X1086Y1072*
X1080Y1074*
X1075Y1078*
X1072Y1082*
X1066Y1095*
X1064Y1110*
X1066Y1123*
X1071Y1134*
X1077Y1144D02*
X1077Y1144D01*
X1073Y1139*
X1066Y1126*
X1063Y1110*
X1064Y1095*
X1071Y1081*
X1075Y1077*
X1079Y1073*
X1084Y1071*
X1089Y1070*
X1090Y1070*
X1090Y1071*
X1090Y1071*
X1090Y1072*
X1089Y1072*
X1087Y1073*
X1083Y1075*
X1078Y1080*
X1074Y1085*
X1070Y1092*
X1067Y1103*
X1067Y1116*
X1069Y1127*
X1074Y1137*
X1078Y1143*
X1078Y1143*
X1078Y1143*
X1077Y1144*
X1086Y1168D02*
Y1168D01*
X1086Y1168*
X1086Y1168*
X1092Y1145D02*
X1097Y1144D01*
X1102Y1141*
X1107Y1136*
X1111Y1130*
X1113Y1125*
X1114Y1121*
X1114Y1116*
X1114Y1109*
X1114Y1098*
X1112Y1090*
X1109Y1084*
X1105Y1078*
X1101Y1075*
X1097Y1074*
X1093Y1075*
X1087Y1077*
X1082Y1081*
X1077Y1086*
X1074Y1092*
X1071Y1100*
X1070Y1106*
X1070Y1110*
X1070Y1114*
X1070Y1118*
X1073Y1126*
X1075Y1133*
X1079Y1138*
X1083Y1142*
X1087Y1144*
X1092Y1145*
X1092Y1146D02*
X1087Y1146D01*
X1082Y1143*
X1078Y1139*
X1074Y1134*
X1071Y1127*
X1069Y1118*
X1068Y1114*
X1068Y1110*
X1069Y1106*
X1070Y1100*
X1072Y1092*
X1076Y1085*
X1081Y1080*
X1087Y1076*
X1092Y1073*
X1097Y1073*
X1101Y1074*
X1106Y1077*
X1110Y1083*
X1114Y1089*
X1115Y1098*
X1116Y1109*
X1116Y1116*
X1115Y1122*
X1114Y1126*
X1112Y1130*
X1108Y1137*
X1103Y1142*
X1097Y1145*
X1092Y1146*
X1098Y1150D02*
X1105Y1148D01*
X1111Y1145*
X1117Y1138*
X1122Y1127*
X1125Y1115*
X1124Y1102*
X1123Y1096*
X1121Y1090*
X1119Y1085*
X1116Y1081*
X1108Y1074*
X1099Y1070*
X1089Y1069*
X1079Y1071*
X1072Y1077*
X1066Y1085*
X1063Y1096*
X1061Y1108*
X1063Y1125*
X1070Y1138*
X1078Y1145*
X1089Y1149*
Y1148*
X1088Y1149*
X1086Y1148*
X1086Y1148*
X1085Y1147*
X1086Y1147*
X1086Y1146*
X1087Y1146*
X1089Y1146*
X1089Y1146*
X1090Y1146*
Y1147*
X1090Y1147*
X1090Y1147*
Y1147*
X1090*
X1090Y1148*
X1089Y1149*
X1093Y1150*
X1098Y1150*
X1098Y1151D02*
X1093Y1151D01*
X1085Y1150*
X1079Y1147*
X1073Y1143*
X1069Y1138*
X1062Y1125*
X1060Y1108*
X1061Y1096*
X1065Y1085*
X1071Y1076*
X1079Y1070*
X1088Y1068*
X1099Y1069*
X1109Y1073*
X1117Y1080*
X1120Y1084*
X1122Y1090*
X1124Y1096*
X1125Y1102*
X1126Y1115*
X1124Y1127*
X1119Y1138*
X1112Y1146*
X1105Y1150*
X1098Y1151*
X1100Y1148D02*
X1099Y1148D01*
X1098Y1147*
X1098Y1147*
X1100Y1146*
X1101Y1146*
X1103Y1145*
X1107Y1141*
X1111Y1136*
X1114Y1131*
X1118Y1118*
X1118Y1103*
X1117Y1096*
X1115Y1090*
X1113Y1084*
X1110Y1079*
X1109Y1078*
X1109Y1078*
X1109Y1077*
X1109Y1077*
X1109Y1077*
X1109Y1077*
X1109Y1077*
X1110Y1077*
X1110Y1077*
X1113Y1080*
X1118Y1086*
X1121Y1093*
X1123Y1105*
X1123Y1117*
X1120Y1128*
X1116Y1138*
X1112Y1142*
X1107Y1146*
X1102Y1148*
X1100Y1148*
X1102Y1147D02*
X1106Y1144D01*
X1111Y1141*
X1115Y1137*
X1119Y1128*
X1122Y1117*
X1122Y1105*
X1120Y1094*
X1117Y1089*
X1114Y1084*
X1118Y1093*
X1119Y1103*
X1119Y1118*
X1115Y1132*
X1112Y1137*
X1108Y1142*
X1103Y1146*
X1102Y1147*
X1110Y1050D02*
X1112Y1049D01*
X1112Y1043*
X1112Y1041*
X1112Y1040*
X1112*
X1111Y1040*
X1111Y1042*
X1110Y1046*
X1109Y1049*
X1109Y1050*
X1110Y1050*
Y1052D02*
X1108Y1051D01*
X1108Y1049*
X1108Y1046*
X1109Y1041*
X1111Y1039*
X1111Y1039*
X1112Y1039*
X1113Y1040*
X1114Y1043*
X1113Y1049*
X1112Y1051*
X1110Y1052*
X1111Y1169D02*
Y1168D01*
X1110Y1168*
X1109Y1168*
X1108Y1167*
X1108Y1167*
X1108Y1166*
X1109Y1166*
X1110Y1166*
X1112Y1166*
X1112Y1166*
X1112Y1166*
Y1167*
X1112Y1167*
X1112Y1167*
Y1167*
X1112*
X1112Y1168*
X1111Y1169*
X1123Y1055D02*
X1122Y1052D01*
X1123Y1048*
X1123Y1043*
X1123Y1042*
X1123Y1042*
X1123Y1043*
X1122Y1044*
X1121Y1047*
X1119Y1051*
X1119Y1052*
X1119Y1052*
X1119Y1052*
X1120Y1053*
X1123Y1055*
X1123Y1055*
X1124Y1058D02*
X1124Y1057D01*
X1123Y1057*
X1122Y1056*
X1119Y1054*
X1119Y1054*
X1118Y1053*
X1118Y1053*
X1118Y1052*
X1118Y1051*
X1119Y1047*
X1121Y1043*
X1122Y1042*
X1123Y1041*
X1124Y1042*
X1125Y1043*
X1124Y1048*
X1124Y1053*
X1124Y1056*
X1125Y1056*
X1125Y1057*
X1125Y1057*
X1124Y1058*
X1127Y1172D02*
X1126Y1171D01*
X1125Y1169*
X1123Y1166*
X1121Y1165*
X1120Y1165*
X1121Y1166*
X1123Y1167*
X1125Y1169*
X1127Y1172*
X1128Y1177D02*
X1132Y1177D01*
X1136Y1175*
X1140Y1173*
X1141Y1171*
X1141Y1168*
X1139Y1164*
X1136Y1160*
X1136Y1160*
X1136Y1159*
X1142Y1154*
X1145Y1151*
X1147Y1148*
X1149Y1145*
X1151Y1142*
X1154Y1137*
X1155Y1135*
X1155Y1135*
X1156Y1134*
X1157Y1134*
X1158Y1135*
X1162Y1136*
X1167Y1138*
X1170Y1138*
X1172Y1136*
X1173Y1132*
X1173Y1128*
X1174Y1126*
X1173Y1125*
X1172Y1124*
X1170Y1122*
X1168Y1123*
X1166Y1124*
X1165Y1127*
X1165Y1131*
X1163Y1133*
X1161Y1132*
X1157Y1131*
X1153Y1130*
X1151Y1129*
X1151Y1129*
X1150Y1130*
X1148Y1131*
X1144Y1138*
X1142Y1142*
X1139Y1145*
X1136Y1149*
X1133Y1152*
X1130Y1155*
X1129Y1157*
X1128Y1157*
X1128Y1158*
X1129Y1160*
X1131Y1164*
X1132Y1166*
X1133Y1168*
X1132Y1169*
X1131Y1170*
X1129Y1169*
X1127Y1167*
X1125Y1164*
X1122Y1163*
X1117Y1163*
X1110Y1164*
X1103Y1166*
X1098Y1167*
X1092Y1166*
X1087Y1166*
Y1167*
X1087Y1167*
X1087Y1167*
Y1167*
X1087*
X1087Y1168*
X1086Y1168*
X1091Y1169*
X1091Y1169*
X1091Y1169*
X1091Y1168*
X1091Y1168*
X1092Y1168*
X1096Y1167*
X1100Y1168*
X1101Y1168*
X1101Y1168*
X1101Y1169*
X1101Y1169*
X1100Y1169*
X1100Y1169*
X1094*
X1094Y1169*
X1100Y1170*
X1106Y1170*
X1111Y1169*
X1115Y1168*
X1118Y1168*
X1120Y1168*
X1121Y1169*
X1122Y1171*
X1125Y1175*
X1128Y1177*
X1129Y1175D02*
X1126Y1173D01*
X1124Y1170*
X1122Y1168*
X1120Y1167*
X1119Y1166*
X1117Y1166*
X1113Y1167*
X1112Y1166*
X1112Y1166*
X1112Y1166*
X1112*
X1117Y1164*
X1121Y1164*
X1124Y1165*
X1126Y1168*
X1128Y1170*
X1128Y1172*
X1129Y1172*
X1131Y1172*
X1133Y1171*
X1134Y1169*
X1135Y1169*
X1134Y1167*
X1132Y1164*
X1129Y1158*
X1129Y1157*
X1130Y1157*
X1135Y1152*
X1138Y1149*
X1141Y1146*
X1143Y1142*
X1145Y1139*
X1148Y1134*
X1150Y1131*
X1152Y1130*
X1154Y1132*
Y1133*
X1153Y1135*
X1149Y1141*
X1145Y1147*
X1140Y1153*
X1137Y1157*
X1135Y1160*
X1136Y1163*
X1138Y1167*
X1139Y1168*
X1139Y1170*
X1138Y1171*
X1136Y1172*
X1132Y1174*
X1129Y1175*
X1131Y1129D02*
X1131Y1128D01*
X1130Y1127*
X1130Y1122*
X1130Y1114*
X1130Y1101*
X1130Y1095*
X1129Y1092*
X1129Y1088*
X1129Y1087*
X1129Y1086*
X1129Y1086*
X1130Y1086*
X1130Y1086*
X1131Y1087*
X1133Y1091*
X1134Y1094*
X1134Y1099*
X1135Y1104*
X1135Y1109*
X1135Y1120*
X1134Y1124*
X1133Y1127*
X1132Y1128*
X1132Y1128*
X1131Y1129*
X1131Y1173D02*
X1135Y1171D01*
X1137Y1170*
X1138Y1169*
X1138Y1169*
X1137Y1167*
X1135Y1163*
X1134Y1160*
X1135Y1156*
X1139Y1152*
X1144Y1147*
X1148Y1140*
X1152Y1135*
X1152Y1133*
X1152Y1132*
X1152Y1132*
X1151Y1132*
X1149Y1135*
X1146Y1139*
X1144Y1143*
X1142Y1146*
X1139Y1150*
X1136Y1153*
X1131Y1158*
X1134Y1163*
X1135Y1166*
X1136Y1169*
X1135Y1170*
X1134Y1172*
X1131Y1173*
X1132Y1127D02*
X1132Y1126D01*
X1133Y1124*
X1133Y1120*
X1134Y1109*
X1134Y1104*
X1133Y1099*
X1132Y1094*
X1132Y1091*
X1130Y1088*
X1130Y1088*
Y1088*
X1130Y1092*
X1131Y1095*
X1131Y1101*
X1131Y1114*
X1131Y1122*
X1132Y1127*
X1136Y1135D02*
X1135Y1135D01*
X1135Y1134*
X1135Y1134*
X1135Y1132*
X1138Y1128*
X1140Y1124*
X1141Y1120*
X1141Y1116*
X1141Y1111*
X1141Y1103*
X1140Y1097*
X1138Y1092*
X1135Y1086*
X1133Y1083*
X1133Y1082*
X1133Y1081*
X1134Y1081*
X1135Y1081*
X1136Y1082*
X1139Y1084*
X1142Y1089*
X1144Y1095*
X1145Y1105*
X1145Y1116*
X1145Y1122*
X1145Y1125*
X1143Y1128*
X1141Y1131*
X1138Y1134*
X1136Y1135*
X1136Y1135*
X1136Y1134D02*
X1137Y1133D01*
X1140Y1130*
X1142Y1127*
X1143Y1125*
X1144Y1121*
X1144Y1116*
X1144Y1105*
X1142Y1096*
X1141Y1089*
X1138Y1085*
X1135Y1083*
X1135Y1082*
X1135Y1082*
X1136Y1086*
X1139Y1091*
X1141Y1097*
X1142Y1103*
X1143Y1111*
X1142Y1116*
X1142Y1121*
X1141Y1124*
X1139Y1128*
X1136Y1133*
X1136Y1134*
X1155Y1118D02*
X1156Y1118D01*
X1156Y1116*
X1156Y1111*
X1156Y1105*
X1156Y1092*
Y1092*
X1154Y1093*
X1153Y1094*
X1153Y1094*
X1153Y1096*
X1153Y1099*
X1154Y1107*
X1154Y1112*
X1155Y1116*
X1155Y1118*
X1155Y1118*
Y1119D02*
X1154Y1118D01*
X1153Y1116*
X1153Y1112*
X1153Y1107*
X1152Y1099*
X1152Y1096*
X1152Y1095*
X1152Y1093*
X1153Y1092*
X1157Y1089*
X1160Y1087*
X1162Y1085*
X1162Y1084*
X1160Y1082*
X1159Y1080*
X1158Y1079*
X1157Y1080*
X1155Y1081*
X1153Y1082*
X1150Y1083*
X1150Y1083*
X1149Y1082*
X1147Y1080*
X1142Y1074*
X1136Y1065*
X1136Y1065*
X1137Y1064*
X1137Y1064*
X1137Y1064*
X1144Y1072*
X1148Y1076*
X1150Y1078*
X1152Y1079*
X1152Y1078*
X1155Y1077*
X1158Y1077*
X1161Y1078*
X1164Y1081*
X1165Y1084*
X1166Y1086*
X1166Y1086*
X1166Y1086*
X1166Y1087*
X1166Y1087*
X1165Y1088*
X1161Y1090*
X1157Y1092*
X1157Y1105*
X1157Y1111*
X1157Y1116*
X1157Y1118*
X1156Y1119*
X1155Y1119*
X1157Y1090D02*
X1161Y1089D01*
X1164Y1087*
X1165Y1086*
X1165Y1086*
X1165Y1086*
X1164Y1085*
X1162Y1082*
X1160Y1079*
X1158Y1078*
X1155Y1078*
X1153Y1079*
X1152Y1080*
X1150Y1079*
X1147Y1077*
X1143Y1073*
X1142Y1072*
X1143Y1073*
X1148Y1079*
X1150Y1081*
X1150Y1082*
X1150Y1082*
X1152Y1081*
X1155Y1080*
X1157Y1078*
X1158Y1078*
X1160Y1079*
X1161Y1081*
X1163Y1083*
X1163Y1086*
X1161Y1088*
X1157Y1090*
X1157Y1090*
X1167Y1136D02*
X1166Y1135D01*
X1166Y1133*
X1166Y1131*
X1167Y1127*
X1168Y1126*
X1169Y1125*
X1171Y1125*
X1172Y1127*
Y1128*
X1171*
X1170Y1133*
X1169Y1135*
X1168Y1136*
X1167Y1136*
X1168Y1135D02*
X1168Y1135D01*
X1168Y1134*
X1169Y1133*
X1170Y1127*
X1170Y1126*
X1170Y1126*
X1168Y1128*
X1167Y1131*
X1167Y1133*
X1167Y1134*
X1168Y1135*
X1491Y1160D02*
Y1121D01*
X1843*
Y1160*
X1491*
X1493Y1158D02*
X1841D01*
Y1124*
X1493*
Y1158*
X1647Y747D02*
X1686D01*
Y1099*
X1647*
Y747*
X1649Y749D02*
Y1097D01*
X1683*
Y749*
X1649*
X1725Y747D02*
X1765D01*
Y1099*
X1725*
Y747*
X1728Y749D02*
Y1097D01*
X1762*
Y749*
X1728*
X1806Y1099D02*
Y747D01*
X2158*
Y1099*
X1806*
X1808Y1097D02*
X2156D01*
Y749*
X1808*
Y1097*
X1843Y1063D02*
Y783D01*
X2122*
Y1063*
X1843*
X1845Y1060D02*
X2119D01*
Y786*
X1845*
Y1060*
X5491Y799D02*
Y787D01*
X5480Y798*
X5477Y799*
X5474Y798*
X5473Y795*
Y790*
X5474Y787*
X5490Y2665D02*
X5491Y2668D01*
Y2673*
X5490Y2676*
X5487Y2677*
X5485*
X5482Y2676*
X5480Y2673*
Y2665*
X5473*
Y2677*
X5490Y2691D02*
X5491Y2694D01*
Y2698*
X5490Y2701*
X5487Y2702*
X5477*
X5474Y2701*
X5473Y2698*
Y2694*
X5474Y2691*
X5477Y2690*
X5487*
X5490Y2691*
X5474Y2701*
X5783Y794D02*
Y800D01*
Y797D02*
X5764D01*
X5767Y794*
X5783Y2673D02*
X5764D01*
X5776Y2665*
Y2677*
X5783Y2694D02*
X5781Y2698D01*
X5778Y2701*
X5773Y2702*
X5769*
X5765Y2701*
X5764Y2698*
Y2694*
X5765Y2691*
X5769Y2690*
X5772Y2691*
X5773Y2694*
Y2698*
X5772Y2701*
X5769Y2702*
D02*
D24*
X61Y3538D02*
X35D01*
Y3553*
X37Y3557*
X41Y3559*
X46Y3557*
X48Y3553*
Y3538*
Y3553D02*
X61Y3559D01*
Y3577D02*
Y3586D01*
Y3581D02*
X35D01*
X39Y3577*
X61Y3643D02*
X35D01*
Y3656*
X37Y3660*
X39Y3662*
X43Y3664*
X52*
X57Y3662*
X59Y3660*
X61Y3656*
Y3643*
Y3682D02*
Y3691D01*
Y3686D02*
X35D01*
X39Y3682*
X115Y3863D02*
X117Y3866D01*
Y3872*
X115Y3876*
X111Y3878*
X109*
X106Y3876*
X104Y3872*
Y3863*
X94*
Y3878*
Y3893D02*
X117Y3902D01*
X94Y3911*
X171Y3533D02*
X145D01*
Y3548*
X147Y3552*
X151Y3554*
X156Y3552*
X158Y3548*
Y3533*
Y3548D02*
X171Y3554D01*
Y3585D02*
Y3568D01*
X156Y3583*
X151Y3585*
X147Y3583*
X145Y3578*
Y3572*
X147Y3568*
X171Y3643D02*
X145D01*
Y3656*
X147Y3660*
X149Y3662*
X153Y3664*
X162*
X167Y3662*
X169Y3660*
X171Y3656*
Y3643*
Y3695D02*
Y3678D01*
X156Y3693*
X151Y3695*
X147Y3693*
X145Y3688*
Y3682*
X147Y3678*
X216Y1328D02*
X203D01*
X190Y1318*
X203Y1328D02*
X190Y1339D01*
X216Y1357D02*
Y1366D01*
Y1361D02*
X190D01*
X194Y1357*
X220Y3804D02*
X222Y3808D01*
Y3812*
X220Y3816*
X216Y3818*
X213Y3816*
X211Y3812*
Y3808*
Y3812D02*
X209Y3816D01*
X205Y3818*
X201Y3816*
X199Y3812*
Y3808*
X201Y3804*
X222Y3834D02*
X220Y3836D01*
X218Y3834*
X220Y3833*
X222Y3834*
X220Y3864D02*
X222Y3868D01*
Y3872*
X220Y3876*
X216Y3878*
X213Y3876*
X211Y3872*
Y3868*
Y3872D02*
X209Y3876D01*
X205Y3878*
X201Y3876*
X199Y3872*
Y3868*
X201Y3864*
X199Y3893D02*
X222Y3902D01*
X199Y3911*
X276Y3533D02*
X250D01*
Y3548*
X252Y3552*
X256Y3554*
X261Y3552*
X263Y3548*
Y3533*
Y3548D02*
X276Y3554D01*
Y3578D02*
X250D01*
X267Y3568*
Y3585*
X276Y3643D02*
X250D01*
Y3656*
X252Y3660*
X254Y3662*
X258Y3664*
X267*
X272Y3662*
X274Y3660*
X276Y3656*
Y3643*
X274Y3680D02*
X276Y3684D01*
Y3688*
X274Y3693*
X269Y3695*
X265Y3693*
X263Y3688*
Y3684*
Y3688D02*
X261Y3693D01*
X256Y3695*
X252Y3693*
X250Y3688*
Y3684*
X252Y3680*
X271Y997D02*
X273Y999D01*
X277Y1001*
X284*
X288Y999*
X290Y997*
X293Y992*
Y983*
X290Y979*
X288Y977*
X284Y975*
X277*
X273Y977*
X271Y979*
X253Y1001D02*
X244D01*
X249D02*
Y975D01*
X253Y979*
X293Y1086D02*
Y1060D01*
X277*
X273Y1062*
X271Y1066*
X273Y1071*
X277Y1073*
X293*
X277D02*
X271Y1086D01*
X258Y1079D02*
X255Y1075D01*
X251Y1073*
X247*
X242Y1075*
X240Y1079*
X242Y1084*
X247Y1086*
X251*
X255Y1084*
X258Y1079*
Y1073*
X255Y1066*
X251Y1062*
X247Y1060*
X306Y1758D02*
X280D01*
Y1773*
X282Y1777*
X286Y1779*
X291Y1777*
X293Y1773*
Y1758*
Y1773D02*
X306Y1779D01*
X304Y1795D02*
X306Y1799D01*
Y1803*
X304Y1808*
X299Y1810*
X295Y1808*
X293Y1803*
Y1799*
Y1803D02*
X291Y1808D01*
X286Y1810*
X282Y1808*
X280Y1803*
Y1799*
X282Y1795*
X325Y3774D02*
X327Y3778D01*
Y3782*
X325Y3786*
X321Y3788*
X318Y3786*
X316Y3782*
Y3778*
Y3782D02*
X314Y3786D01*
X310Y3788*
X306Y3786*
X304Y3782*
Y3778*
X306Y3774*
X327Y3804D02*
X325Y3806D01*
X323Y3804*
X325Y3803*
X327Y3804*
X325Y3834D02*
X327Y3838D01*
Y3842*
X325Y3846*
X321Y3848*
X318Y3846*
X316Y3842*
Y3838*
Y3842D02*
X314Y3846D01*
X310Y3848*
X306Y3846*
X304Y3842*
Y3838*
X306Y3834*
X304Y3863D02*
X327Y3872D01*
X304Y3881*
X327Y3893D02*
X304Y3902D01*
X327Y3911*
X318Y3896D02*
Y3908D01*
X376Y3533D02*
X350D01*
Y3548*
X352Y3552*
X356Y3554*
X361Y3552*
X363Y3548*
Y3533*
Y3548D02*
X376Y3554D01*
Y3568D02*
X350Y3585D01*
Y3568*
X376Y3648D02*
X350D01*
Y3661*
X352Y3665*
X354Y3667*
X358Y3669*
X367*
X372Y3667*
X374Y3665*
X376Y3661*
Y3648*
Y3693D02*
X350D01*
X367Y3683*
Y3700*
X396Y1758D02*
X370D01*
Y1773*
X372Y1777*
X376Y1779*
X381Y1777*
X383Y1773*
Y1758*
Y1773D02*
X396Y1779D01*
X394Y1793D02*
X396Y1797D01*
Y1803*
X394Y1808*
X389Y1810*
X387*
X383Y1808*
X381Y1803*
Y1793*
X370*
Y1810*
X416Y3800D02*
Y3815D01*
X423Y3833D02*
Y3841D01*
Y3837D02*
X401D01*
X404Y3833*
X423Y3875D02*
Y3860D01*
X410Y3873*
X406Y3875*
X402Y3873*
X401Y3869*
Y3863*
X402Y3860*
X401Y3890D02*
X423Y3899D01*
X401Y3908*
X480Y3645D02*
X453D01*
Y3658*
X456Y3663*
X458Y3665*
X462Y3667*
X471*
X475Y3665*
X478Y3663*
X480Y3658*
Y3645*
X478Y3680D02*
X480Y3685D01*
Y3691*
X478Y3696*
X473Y3698*
X471*
X467Y3696*
X464Y3691*
Y3680*
X453*
Y3698*
X488Y1790D02*
Y1809D01*
X485Y1814*
X481Y1816*
X472*
X468Y1814*
X466Y1809*
Y1790*
X448Y1816D02*
X439D01*
X444D02*
Y1790D01*
X448Y1794*
X481Y3533D02*
X455D01*
Y3548*
X457Y3552*
X461Y3554*
X466Y3552*
X468Y3548*
Y3533*
Y3548D02*
X481Y3554D01*
X468Y3574D02*
Y3578D01*
X466Y3583*
X461Y3585*
X457Y3583*
X455Y3578*
Y3574*
X457Y3570*
X461Y3568*
X466Y3570*
X468Y3574*
X470Y3570*
X474Y3568*
X479Y3570*
X481Y3574*
Y3578*
X479Y3583*
X474Y3585*
X470Y3583*
X468Y3578*
X502Y2479D02*
X504Y2477D01*
X506Y2473*
Y2466*
X504Y2462*
X502Y2460*
X497Y2458*
X488*
X484Y2460*
X482Y2462*
X480Y2466*
Y2473*
X482Y2477*
X484Y2479*
X506Y2503D02*
X480D01*
X497Y2493*
Y2510*
X502Y2649D02*
X504Y2647D01*
X506Y2643*
Y2636*
X504Y2632*
X502Y2630*
X497Y2628*
X488*
X484Y2630*
X482Y2632*
X480Y2636*
Y2643*
X482Y2647*
X484Y2649*
X504Y2665D02*
X506Y2669D01*
Y2673*
X504Y2678*
X499Y2680*
X495Y2678*
X493Y2673*
Y2669*
Y2673D02*
X491Y2678D01*
X486Y2680*
X482Y2678*
X480Y2673*
Y2669*
X482Y2665*
X502Y2824D02*
X504Y2822D01*
X506Y2818*
Y2811*
X504Y2807*
X502Y2805*
X497Y2803*
X488*
X484Y2805*
X482Y2807*
X480Y2811*
Y2818*
X482Y2822*
X484Y2824*
X506Y2855D02*
Y2838D01*
X491Y2853*
X486Y2855*
X482Y2853*
X480Y2848*
Y2842*
X482Y2838*
X511Y3062D02*
X513Y3064D01*
X517Y3066*
X524*
X528Y3064*
X530Y3062*
X532Y3057*
Y3048*
X530Y3044*
X528Y3042*
X524Y3040*
X517*
X513Y3042*
X511Y3044*
X498Y3066D02*
X480Y3040D01*
X498*
X521Y3800D02*
Y3815D01*
X528Y3807D02*
X513D01*
X528Y3833D02*
Y3841D01*
Y3837D02*
X506D01*
X509Y3833*
X528Y3875D02*
Y3860D01*
X515Y3873*
X511Y3875*
X507Y3873*
X506Y3869*
Y3863*
X507Y3860*
X506Y3890D02*
X528Y3899D01*
X506Y3908*
X515Y2458D02*
X541D01*
Y2479*
X539Y2495D02*
X541Y2499D01*
Y2503*
X539Y2508*
X534Y2510*
X530Y2508*
X528Y2503*
Y2499*
Y2503D02*
X526Y2508D01*
X521Y2510*
X517Y2508*
X515Y2503*
Y2499*
X517Y2495*
X515Y2803D02*
X541D01*
Y2824*
Y2842D02*
Y2851D01*
Y2846D02*
X515D01*
X519Y2842*
X515Y2630D02*
X541D01*
Y2652*
Y2682D02*
Y2665D01*
X526Y2680*
X521Y2682*
X517Y2680*
X515Y2676*
Y2669*
X517Y2665*
X563Y3275D02*
Y3294D01*
X560Y3299*
X556Y3301*
X547*
X543Y3299*
X541Y3294*
Y3275*
X510Y3301D02*
X527D01*
X512Y3286*
X510Y3281*
X512Y3277*
X517Y3275*
X523*
X527Y3277*
X561Y3163D02*
X535D01*
Y3178*
X537Y3182*
X541Y3184*
X546Y3182*
X548Y3178*
Y3163*
Y3178D02*
X561Y3184D01*
Y3204D02*
X559Y3208D01*
X554Y3213*
X548Y3215*
X541*
X537Y3213*
X535Y3208*
Y3204*
X537Y3200*
X541Y3198*
X546Y3200*
X548Y3204*
Y3208*
X546Y3213*
X541Y3215*
X557Y3384D02*
X559Y3382D01*
X561Y3378*
Y3371*
X559Y3367*
X557Y3365*
X552Y3363*
X543*
X539Y3365*
X537Y3367*
X535Y3371*
Y3378*
X537Y3382*
X539Y3384*
X554Y3398D02*
X550Y3400D01*
X548Y3404*
Y3408*
X550Y3413*
X554Y3415*
X559Y3413*
X561Y3408*
Y3404*
X559Y3400*
X554Y3398*
X548*
X541Y3400*
X537Y3404*
X535Y3408*
X592Y159D02*
X594Y157D01*
X596Y153*
Y146*
X594Y142*
X592Y140*
X587Y138*
X578*
X574Y140*
X572Y142*
X570Y146*
Y153*
X572Y157*
X574Y159*
X594Y173D02*
X596Y177D01*
Y183*
X594Y188*
X589Y190*
X587*
X583Y188*
X581Y183*
Y173*
X570*
Y190*
X626Y1892D02*
X628Y1894D01*
X632Y1896*
X639*
X643Y1894*
X645Y1892*
X648Y1887*
Y1878*
X645Y1874*
X643Y1872*
X639Y1870*
X632*
X628Y1872*
X626Y1874*
X606Y1883D02*
X602D01*
X597Y1881*
X595Y1876*
X597Y1872*
X602Y1870*
X606*
X610Y1872*
X613Y1876*
X610Y1881*
X606Y1883*
X610Y1885*
X613Y1889*
X610Y1894*
X606Y1896*
X602*
X597Y1894*
X595Y1889*
X597Y1885*
X602Y1883*
X667Y3499D02*
X669Y3497D01*
X671Y3493*
Y3486*
X669Y3482*
X667Y3480*
X662Y3478*
X653*
X649Y3480*
X647Y3482*
X645Y3486*
Y3493*
X647Y3497*
X649Y3499*
X671Y3517D02*
Y3526D01*
Y3521D02*
X645D01*
X649Y3517*
X669Y3550D02*
X671Y3554D01*
Y3558*
X669Y3563*
X664Y3565*
X651*
X647Y3563*
X645Y3558*
Y3554*
X647Y3550*
X651Y3548*
X664*
X669Y3550*
X647Y3563*
X687Y159D02*
X689Y157D01*
X691Y153*
Y146*
X689Y142*
X687Y140*
X682Y138*
X673*
X669Y140*
X667Y142*
X665Y146*
Y153*
X667Y157*
X669Y159*
X691Y179D02*
X689Y183D01*
X684Y188*
X678Y190*
X671*
X667Y188*
X665Y183*
Y179*
X667Y175*
X671Y173*
X676Y175*
X678Y179*
Y183*
X676Y188*
X671Y190*
X738Y1958D02*
X712D01*
Y1973*
X714Y1977*
X719Y1979*
X723Y1977*
X725Y1973*
Y1958*
Y1973D02*
X738Y1979D01*
Y1997D02*
Y2006D01*
Y2001D02*
X712D01*
X717Y1997*
X738Y2045D02*
Y2028D01*
X723Y2043*
X719Y2045*
X714Y2043*
X712Y2038*
Y2032*
X714Y2028*
X739Y2144D02*
X741Y2142D01*
X743Y2138*
Y2131*
X741Y2127*
X739Y2125*
X735Y2123*
X726*
X722Y2125*
X719Y2127*
X717Y2131*
Y2138*
X719Y2142*
X722Y2144*
X743Y2162D02*
Y2171D01*
Y2166D02*
X717D01*
X722Y2162*
X741Y2192D02*
X743Y2197D01*
Y2203*
X741Y2208*
X737Y2210*
X735*
X730Y2208*
X728Y2203*
Y2192*
X717*
Y2210*
X746Y1853D02*
X720D01*
Y1868*
X722Y1872*
X726Y1874*
X731Y1872*
X733Y1868*
Y1853*
Y1868D02*
X746Y1874D01*
Y1892D02*
Y1901D01*
Y1896D02*
X720D01*
X724Y1892*
X744Y1925D02*
X746Y1929D01*
Y1933*
X744Y1938*
X739Y1940*
X735Y1938*
X733Y1933*
Y1929*
Y1933D02*
X731Y1938D01*
X726Y1940*
X722Y1938*
X720Y1933*
Y1929*
X722Y1925*
X761Y1318D02*
X735D01*
Y1333*
X737Y1337*
X741Y1339*
X746Y1337*
X748Y1333*
Y1318*
Y1333D02*
X761Y1339D01*
Y1357D02*
Y1366D01*
Y1361D02*
X735D01*
X739Y1357*
X759Y1390D02*
X761Y1394D01*
Y1398*
X759Y1403*
X754Y1405*
X741*
X737Y1403*
X735Y1398*
Y1394*
X737Y1390*
X741Y1388*
X754*
X759Y1390*
X737Y1403*
X812Y2539D02*
X814Y2541D01*
X818Y2544*
X825*
X829Y2541*
X831Y2539*
X833Y2535*
Y2526*
X831Y2522*
X829Y2519*
X825Y2517*
X818*
X814Y2519*
X812Y2522*
X794Y2544D02*
X785D01*
X790D02*
Y2517D01*
X794Y2522*
X761Y2541D02*
X757Y2544D01*
X752*
X748Y2541*
X746Y2537*
X748Y2533*
X752Y2530*
X757*
X752D02*
X748Y2528D01*
X746Y2524*
X748Y2519*
X752Y2517*
X757*
X761Y2519*
X816Y2687D02*
X818Y2689D01*
X822Y2691*
X829*
X833Y2689*
X835Y2687*
X838Y2682*
Y2673*
X835Y2669*
X833Y2667*
X829Y2665*
X822*
X818Y2667*
X816Y2669*
X798Y2691D02*
X789D01*
X794D02*
Y2665D01*
X798Y2669*
X750Y2691D02*
X768D01*
X752Y2676*
X750Y2671*
X752Y2667*
X757Y2665*
X763*
X768Y2667*
X816Y2832D02*
X818Y2834D01*
X822Y2836*
X829*
X833Y2834*
X835Y2832*
X838Y2827*
Y2818*
X835Y2814*
X833Y2812*
X829Y2810*
X822*
X818Y2812*
X816Y2814*
X798Y2836D02*
X789D01*
X794D02*
Y2810D01*
X798Y2814*
X763Y2836D02*
X754D01*
X759D02*
Y2810D01*
X763Y2814*
X819Y2391D02*
X821Y2393D01*
X826Y2395*
X832*
X837Y2393*
X839Y2391*
X841Y2386*
Y2377*
X839Y2373*
X837Y2371*
X832Y2369*
X826*
X821Y2371*
X819Y2373*
X802Y2395D02*
X793D01*
X797D02*
Y2369D01*
X802Y2373*
X760Y2395D02*
Y2369D01*
X771Y2386*
X753*
X841Y1548D02*
X815D01*
Y1563*
X817Y1567*
X821Y1569*
X826Y1567*
X828Y1563*
Y1548*
Y1563D02*
X841Y1569D01*
Y1587D02*
Y1596D01*
Y1591D02*
X815D01*
X819Y1587*
X841Y1628D02*
X815D01*
X832Y1618*
Y1635*
X877Y3499D02*
X879Y3497D01*
X881Y3493*
Y3486*
X879Y3482*
X877Y3480*
X872Y3478*
X863*
X859Y3480*
X857Y3482*
X855Y3486*
Y3493*
X857Y3497*
X859Y3499*
X868Y3519D02*
Y3523D01*
X866Y3528*
X861Y3530*
X857Y3528*
X855Y3523*
Y3519*
X857Y3515*
X861Y3513*
X866Y3515*
X868Y3519*
X870Y3515*
X874Y3513*
X879Y3515*
X881Y3519*
Y3523*
X879Y3528*
X874Y3530*
X870Y3528*
X868Y3523*
X879Y3550D02*
X881Y3554D01*
Y3558*
X879Y3563*
X874Y3565*
X870Y3563*
X868Y3558*
Y3554*
Y3558D02*
X866Y3563D01*
X861Y3565*
X857Y3563*
X855Y3558*
Y3554*
X857Y3550*
X912Y1269D02*
X914Y1267D01*
X916Y1263*
Y1256*
X914Y1252*
X912Y1250*
X907Y1248*
X898*
X894Y1250*
X892Y1252*
X890Y1256*
Y1263*
X892Y1267*
X894Y1269*
X916Y1300D02*
Y1283D01*
X901Y1298*
X896Y1300*
X892Y1298*
X890Y1293*
Y1287*
X892Y1283*
X914Y1320D02*
X916Y1324D01*
Y1328*
X914Y1333*
X909Y1335*
X905Y1333*
X903Y1328*
Y1324*
Y1328D02*
X901Y1333D01*
X896Y1335*
X892Y1333*
X890Y1328*
Y1324*
X892Y1320*
X916Y1672D02*
X918Y1674D01*
X922Y1676*
X929*
X933Y1674*
X935Y1672*
X938Y1667*
Y1658*
X935Y1654*
X933Y1652*
X929Y1650*
X922*
X918Y1652*
X916Y1654*
X898Y1676D02*
X889D01*
X894D02*
Y1650D01*
X898Y1654*
X861Y1663D02*
X857D01*
X852Y1661*
X850Y1656*
X852Y1652*
X857Y1650*
X861*
X865Y1652*
X868Y1656*
X865Y1661*
X861Y1663*
X865Y1665*
X868Y1669*
X865Y1674*
X861Y1676*
X857*
X852Y1674*
X850Y1669*
X852Y1665*
X857Y1663*
X916Y1712D02*
X918Y1714D01*
X922Y1716*
X929*
X933Y1714*
X935Y1712*
X938Y1707*
Y1698*
X935Y1694*
X933Y1692*
X929Y1690*
X922*
X918Y1692*
X916Y1694*
X898Y1716D02*
X889D01*
X894D02*
Y1690D01*
X898Y1694*
X868Y1716D02*
X850Y1690D01*
X868*
X976Y3168D02*
X950D01*
Y3183*
X952Y3187*
X956Y3189*
X961Y3187*
X963Y3183*
Y3168*
Y3183D02*
X976Y3189D01*
Y3207D02*
Y3216D01*
Y3211D02*
X950D01*
X954Y3207*
X976Y3238D02*
X950Y3255D01*
Y3238*
X976Y3313D02*
X950D01*
Y3328*
X952Y3332*
X956Y3334*
X961Y3332*
X963Y3328*
Y3313*
Y3328D02*
X976Y3334D01*
Y3352D02*
Y3361D01*
Y3356D02*
X950D01*
X954Y3352*
X969Y3382D02*
X965Y3385D01*
X963Y3389*
Y3393*
X965Y3398*
X969Y3400*
X974Y3398*
X976Y3393*
Y3389*
X974Y3385*
X969Y3382*
X963*
X956Y3385*
X952Y3389*
X950Y3393*
X977Y1624D02*
X979Y1622D01*
X981Y1618*
Y1611*
X979Y1607*
X977Y1605*
X972Y1603*
X963*
X959Y1605*
X957Y1607*
X955Y1611*
Y1618*
X957Y1622*
X959Y1624*
X981Y1655D02*
Y1638D01*
X966Y1653*
X961Y1655*
X957Y1653*
X955Y1648*
Y1642*
X957Y1638*
X981Y1690D02*
Y1673D01*
X966Y1688*
X961Y1690*
X957Y1688*
X955Y1683*
Y1677*
X957Y1673*
X987Y3773D02*
X989Y3775D01*
X991Y3779*
X989Y3783*
X987Y3786*
X965*
Y3790*
Y3786D02*
Y3777D01*
X991Y3812D02*
Y3821D01*
Y3816D02*
X965D01*
X969Y3812*
X1024Y3773D02*
X1015D01*
X1011Y3775*
X1009Y3777*
X1007Y3781*
Y3786*
X1009Y3790*
X1011Y3792*
X1015Y3794*
X1024*
X1029Y3792*
X1031Y3790*
X1033Y3786*
Y3781*
X1031Y3777*
X1029Y3775*
X1024Y3773*
X1007Y3808D02*
X1026D01*
X1031Y3810*
X1033Y3814*
Y3823*
X1031Y3827*
X1026Y3829*
X1007*
X1033Y3853D02*
X1007D01*
Y3843D02*
Y3864D01*
X1033Y3895D02*
Y3878D01*
X1018Y3893*
X1013Y3895*
X1009Y3893*
X1007Y3888*
Y3882*
X1009Y3878*
X996Y2913D02*
X970D01*
Y2928*
X972Y2932*
X976Y2934*
X981Y2932*
X983Y2928*
Y2913*
Y2928D02*
X996Y2934D01*
Y2952D02*
Y2961D01*
Y2956D02*
X970D01*
X974Y2952*
X996Y2987D02*
Y2996D01*
Y2991D02*
X970D01*
X974Y2987*
X1001Y2172D02*
X1003Y2174D01*
X1007Y2176*
X1014*
X1018Y2174*
X1020Y2172*
X1023Y2167*
Y2158*
X1020Y2154*
X1018Y2152*
X1014Y2150*
X1007*
X1003Y2152*
X1001Y2154*
X970Y2176D02*
X988D01*
X972Y2161*
X970Y2156*
X972Y2152*
X977Y2150*
X983*
X988Y2152*
X950Y2174D02*
X946Y2176D01*
X942*
X937Y2174*
X935Y2169*
Y2156*
X937Y2152*
X942Y2150*
X946*
X950Y2152*
X953Y2156*
Y2169*
X950Y2174*
X937Y2152*
X1027Y2934D02*
X1029Y2932D01*
X1031Y2928*
Y2921*
X1029Y2917*
X1027Y2915*
X1022Y2913*
X1013*
X1009Y2915*
X1007Y2917*
X1005Y2921*
Y2928*
X1007Y2932*
X1009Y2934*
X1031Y2952D02*
Y2961D01*
Y2956D02*
X1005D01*
X1009Y2952*
X1024Y2983D02*
X1020Y2985D01*
X1018Y2989*
Y2993*
X1020Y2998*
X1024Y3000*
X1029Y2998*
X1031Y2993*
Y2989*
X1029Y2985*
X1024Y2983*
X1018*
X1011Y2985*
X1007Y2989*
X1005Y2993*
X1052Y2469D02*
X1054Y2467D01*
X1056Y2463*
Y2456*
X1054Y2452*
X1052Y2450*
X1047Y2447*
X1038*
X1034Y2450*
X1032Y2452*
X1030Y2456*
Y2463*
X1032Y2467*
X1034Y2469*
X1056Y2500D02*
Y2483D01*
X1041Y2498*
X1036Y2500*
X1032Y2498*
X1030Y2493*
Y2487*
X1032Y2483*
X1043Y2524D02*
Y2528D01*
X1041Y2533*
X1036Y2535*
X1032Y2533*
X1030Y2528*
Y2524*
X1032Y2520*
X1036Y2518*
X1041Y2520*
X1043Y2524*
X1045Y2520*
X1049Y2518*
X1054Y2520*
X1056Y2524*
Y2528*
X1054Y2533*
X1049Y2535*
X1045Y2533*
X1043Y2528*
X1052Y2644D02*
X1054Y2642D01*
X1056Y2638*
Y2631*
X1054Y2627*
X1052Y2625*
X1047Y2623*
X1038*
X1034Y2625*
X1032Y2627*
X1030Y2631*
Y2638*
X1032Y2642*
X1034Y2644*
X1056Y2675D02*
Y2658D01*
X1041Y2673*
X1036Y2675*
X1032Y2673*
X1030Y2668*
Y2662*
X1032Y2658*
X1056Y2693D02*
X1030Y2710D01*
Y2693*
X1052Y2809D02*
X1054Y2807D01*
X1056Y2803*
Y2796*
X1054Y2792*
X1052Y2790*
X1047Y2788*
X1038*
X1034Y2790*
X1032Y2792*
X1030Y2796*
Y2803*
X1032Y2807*
X1034Y2809*
X1056Y2840D02*
Y2823D01*
X1041Y2838*
X1036Y2840*
X1032Y2838*
X1030Y2833*
Y2827*
X1032Y2823*
X1049Y2858D02*
X1045Y2860D01*
X1043Y2864*
Y2868*
X1045Y2873*
X1049Y2875*
X1054Y2873*
X1056Y2868*
Y2864*
X1054Y2860*
X1049Y2858*
X1043*
X1036Y2860*
X1032Y2864*
X1030Y2868*
X1062Y2934D02*
X1064Y2932D01*
X1066Y2928*
Y2921*
X1064Y2917*
X1062Y2915*
X1057Y2913*
X1048*
X1044Y2915*
X1042Y2917*
X1040Y2921*
Y2928*
X1042Y2932*
X1044Y2934*
X1066Y2952D02*
Y2961D01*
Y2956D02*
X1040D01*
X1044Y2952*
X1066Y2989D02*
X1064Y2993D01*
X1059Y2998*
X1053Y3000*
X1046*
X1042Y2998*
X1040Y2993*
Y2989*
X1042Y2985*
X1046Y2983*
X1051Y2985*
X1053Y2989*
Y2993*
X1051Y2998*
X1046Y3000*
X1077Y565D02*
Y584D01*
X1075Y589*
X1071Y591*
X1062*
X1058Y589*
X1056Y584*
Y565*
X1040Y589D02*
X1036Y591D01*
X1032*
X1027Y589*
X1025Y584*
X1027Y580*
X1032Y578*
X1036*
X1032D02*
X1027Y576D01*
X1025Y571*
X1027Y567*
X1032Y565*
X1036*
X1040Y567*
X1093Y1305D02*
Y1324D01*
X1090Y1329*
X1086Y1331*
X1077*
X1073Y1329*
X1071Y1324*
Y1305*
X1058Y1329D02*
X1053Y1331D01*
X1047*
X1042Y1329*
X1040Y1324*
Y1322*
X1042Y1318*
X1047Y1316*
X1058*
Y1305*
X1040*
X1076Y1987D02*
X1078Y1989D01*
X1082Y1991*
X1089*
X1093Y1989*
X1095Y1987*
X1098Y1982*
Y1973*
X1095Y1969*
X1093Y1967*
X1089Y1965*
X1082*
X1078Y1967*
X1076Y1969*
X1045Y1991D02*
X1063D01*
X1047Y1976*
X1045Y1971*
X1047Y1967*
X1052Y1965*
X1058*
X1063Y1967*
X1023Y1991D02*
X1014D01*
X1019D02*
Y1965D01*
X1023Y1969*
X1098Y2036D02*
Y2010D01*
X1082*
X1078Y2012*
X1076Y2016*
X1078Y2021*
X1082Y2023*
X1098*
X1082D02*
X1076Y2036D01*
X1058D02*
X1049D01*
X1054D02*
Y2010D01*
X1058Y2014*
X1021Y2023D02*
X1017D01*
X1012Y2021*
X1010Y2016*
X1012Y2012*
X1017Y2010*
X1021*
X1025Y2012*
X1028Y2016*
X1025Y2021*
X1021Y2023*
X1025Y2025*
X1028Y2029*
X1025Y2034*
X1021Y2036*
X1017*
X1012Y2034*
X1010Y2029*
X1012Y2025*
X1017Y2023*
X1065Y2467D02*
X1091D01*
Y2489*
X1084Y2503D02*
X1080Y2505D01*
X1078Y2509*
Y2513*
X1080Y2518*
X1084Y2520*
X1089Y2518*
X1091Y2513*
Y2509*
X1089Y2505*
X1084Y2503*
X1078*
X1071Y2505*
X1067Y2509*
X1065Y2513*
Y2633D02*
X1091D01*
Y2654*
X1089Y2668D02*
X1091Y2672D01*
Y2678*
X1089Y2683*
X1084Y2685*
X1082*
X1078Y2683*
X1076Y2678*
Y2668*
X1065*
Y2685*
Y2808D02*
X1091D01*
Y2829*
Y2853D02*
X1065D01*
X1082Y2843*
Y2860*
X1087Y3034D02*
X1089Y3032D01*
X1091Y3028*
Y3021*
X1089Y3017*
X1087Y3015*
X1082Y3013*
X1073*
X1069Y3015*
X1067Y3017*
X1065Y3021*
Y3028*
X1067Y3032*
X1069Y3034*
X1091Y3065D02*
Y3048D01*
X1076Y3063*
X1071Y3065*
X1067Y3063*
X1065Y3058*
Y3052*
X1067Y3048*
X1089Y3083D02*
X1091Y3087D01*
Y3093*
X1089Y3098*
X1084Y3100*
X1082*
X1078Y3098*
X1076Y3093*
Y3083*
X1065*
Y3100*
X1112Y129D02*
X1114Y127D01*
X1116Y123*
Y116*
X1114Y112*
X1112Y110*
X1107Y108*
X1098*
X1094Y110*
X1092Y112*
X1090Y116*
Y123*
X1092Y127*
X1094Y129*
X1116Y160D02*
Y142D01*
X1101Y158*
X1096Y160*
X1092Y158*
X1090Y153*
Y147*
X1092Y142*
X1116Y184D02*
X1114Y188D01*
X1109Y193*
X1103Y195*
X1096*
X1092Y193*
X1090Y188*
Y184*
X1092Y180*
X1096Y178*
X1101Y180*
X1103Y184*
Y188*
X1101Y193*
X1096Y195*
X1116Y3148D02*
X1090D01*
Y3163*
X1092Y3167*
X1096Y3169*
X1101Y3167*
X1103Y3163*
Y3148*
Y3163D02*
X1116Y3169D01*
Y3187D02*
Y3196D01*
Y3191D02*
X1090D01*
X1094Y3187*
X1116Y3224D02*
X1114Y3228D01*
X1109Y3233*
X1103Y3235*
X1096*
X1092Y3233*
X1090Y3228*
Y3224*
X1092Y3220*
X1096Y3218*
X1101Y3220*
X1103Y3224*
Y3228*
X1101Y3233*
X1096Y3235*
X1112Y3374D02*
X1114Y3372D01*
X1116Y3368*
Y3361*
X1114Y3357*
X1112Y3355*
X1107Y3353*
X1098*
X1094Y3355*
X1092Y3357*
X1090Y3361*
Y3368*
X1092Y3372*
X1094Y3374*
X1116Y3405D02*
Y3388D01*
X1101Y3403*
X1096Y3405*
X1092Y3403*
X1090Y3398*
Y3392*
X1092Y3388*
X1116Y3433D02*
X1090D01*
X1107Y3423*
Y3440*
X1133Y3275D02*
Y3294D01*
X1130Y3299*
X1126Y3301*
X1117*
X1113Y3299*
X1111Y3294*
Y3275*
X1087Y3301D02*
Y3275D01*
X1098Y3292*
X1080*
X1202Y129D02*
X1204Y127D01*
X1206Y123*
Y116*
X1204Y112*
X1202Y110*
X1197Y108*
X1188*
X1184Y110*
X1182Y112*
X1180Y116*
Y123*
X1182Y127*
X1184Y129*
X1204Y145D02*
X1206Y149D01*
Y153*
X1204Y158*
X1199Y160*
X1195Y158*
X1193Y153*
Y149*
Y153D02*
X1191Y158D01*
X1186Y160*
X1182Y158*
X1180Y153*
Y149*
X1182Y145*
X1204Y180D02*
X1206Y184D01*
Y188*
X1204Y193*
X1199Y195*
X1186*
X1182Y193*
X1180Y188*
Y184*
X1182Y180*
X1186Y178*
X1199*
X1204Y180*
X1182Y193*
X1217Y3519D02*
X1219Y3517D01*
X1221Y3513*
Y3506*
X1219Y3502*
X1217Y3500*
X1212Y3498*
X1203*
X1199Y3500*
X1197Y3502*
X1195Y3506*
Y3513*
X1197Y3517*
X1199Y3519*
X1219Y3535D02*
X1221Y3539D01*
Y3543*
X1219Y3548*
X1214Y3550*
X1210Y3548*
X1208Y3543*
Y3539*
Y3543D02*
X1206Y3548D01*
X1201Y3550*
X1197Y3548*
X1195Y3543*
Y3539*
X1197Y3535*
X1221Y3572D02*
Y3581D01*
Y3576D02*
X1195D01*
X1199Y3572*
X1252Y2176D02*
Y2150D01*
X1237*
X1233Y2152*
X1231Y2156*
X1233Y2161*
X1237Y2163*
X1252*
X1237D02*
X1231Y2176D01*
X1200D02*
X1218D01*
X1202Y2161*
X1200Y2156*
X1202Y2152*
X1207Y2150*
X1213*
X1218Y2152*
X1180Y2174D02*
X1176Y2176D01*
X1172*
X1167Y2174*
X1165Y2169*
Y2156*
X1167Y2152*
X1172Y2150*
X1176*
X1180Y2152*
X1183Y2156*
Y2169*
X1180Y2174*
X1167Y2152*
X1326Y2283D02*
X1300D01*
Y2298*
X1302Y2302*
X1306Y2304*
X1311Y2302*
X1313Y2298*
Y2283*
Y2298D02*
X1326Y2304D01*
Y2335D02*
Y2317D01*
X1311Y2333*
X1306Y2335*
X1302Y2333*
X1300Y2328*
Y2322*
X1302Y2317*
X1324Y2355D02*
X1326Y2359D01*
Y2363*
X1324Y2368*
X1319Y2370*
X1315Y2368*
X1313Y2363*
Y2359*
Y2363D02*
X1311Y2368D01*
X1306Y2370*
X1302Y2368*
X1300Y2363*
Y2359*
X1302Y2355*
X1326Y1167D02*
X1328Y1169D01*
X1332Y1171*
X1339*
X1343Y1169*
X1345Y1167*
X1348Y1162*
Y1153*
X1345Y1149*
X1343Y1147*
X1339Y1145*
X1332*
X1328Y1147*
X1326Y1149*
X1310Y1169D02*
X1306Y1171D01*
X1302*
X1297Y1169*
X1295Y1164*
X1297Y1160*
X1302Y1158*
X1306*
X1302D02*
X1297Y1156D01*
X1295Y1151*
X1297Y1147*
X1302Y1145*
X1306*
X1310Y1147*
X1271Y1158D02*
X1267D01*
X1262Y1156*
X1260Y1151*
X1262Y1147*
X1267Y1145*
X1271*
X1275Y1147*
X1278Y1151*
X1275Y1156*
X1271Y1158*
X1275Y1160*
X1278Y1164*
X1275Y1169*
X1271Y1171*
X1267*
X1262Y1169*
X1260Y1164*
X1262Y1160*
X1267Y1158*
X1372Y2827D02*
X1374Y2829D01*
X1378Y2832*
X1385*
X1389Y2829*
X1391Y2827*
X1394Y2823*
Y2814*
X1391Y2810*
X1389Y2808*
X1385Y2805*
X1378*
X1374Y2808*
X1372Y2810*
X1356Y2829D02*
X1352Y2832D01*
X1348*
X1343Y2829*
X1341Y2825*
X1343Y2821*
X1348Y2818*
X1352*
X1348D02*
X1343Y2816D01*
X1341Y2812*
X1343Y2808*
X1348Y2805*
X1352*
X1356Y2808*
X1321Y2829D02*
X1317Y2832D01*
X1313*
X1308Y2829*
X1306Y2825*
X1308Y2821*
X1313Y2818*
X1317*
X1313D02*
X1308Y2816D01*
X1306Y2812*
X1308Y2808*
X1313Y2805*
X1317*
X1321Y2808*
X1375Y2539D02*
X1378Y2541D01*
X1382Y2543*
X1389*
X1393Y2541*
X1395Y2539*
X1397Y2535*
Y2526*
X1395Y2521*
X1393Y2519*
X1389Y2517*
X1382*
X1378Y2519*
X1375Y2521*
X1360Y2541D02*
X1356Y2543D01*
X1351*
X1347Y2541*
X1345Y2537*
X1347Y2532*
X1351Y2530*
X1356*
X1351D02*
X1347Y2528D01*
X1345Y2524*
X1347Y2519*
X1351Y2517*
X1356*
X1360Y2519*
X1327Y2541D02*
X1323Y2543D01*
X1316*
X1312Y2541*
X1310Y2537*
Y2535*
X1312Y2530*
X1316Y2528*
X1327*
Y2517*
X1310*
X1375Y2685D02*
X1378Y2687D01*
X1382Y2689*
X1389*
X1393Y2687*
X1395Y2685*
X1397Y2681*
Y2672*
X1395Y2667*
X1393Y2665*
X1389Y2663*
X1382*
X1378Y2665*
X1375Y2667*
X1360Y2687D02*
X1356Y2689D01*
X1351*
X1347Y2687*
X1345Y2683*
X1347Y2678*
X1351Y2676*
X1356*
X1351D02*
X1347Y2674D01*
X1345Y2670*
X1347Y2665*
X1351Y2663*
X1356*
X1360Y2665*
X1316Y2689D02*
Y2663D01*
X1327Y2681*
X1310*
X1402Y2304D02*
X1404Y2302D01*
X1406Y2298*
Y2291*
X1404Y2287*
X1402Y2285*
X1397Y2283*
X1388*
X1384Y2285*
X1382Y2287*
X1380Y2291*
Y2298*
X1382Y2302*
X1384Y2304*
X1404Y2320D02*
X1406Y2324D01*
Y2328*
X1404Y2333*
X1399Y2335*
X1395Y2333*
X1393Y2328*
Y2324*
Y2328D02*
X1391Y2333D01*
X1386Y2335*
X1382Y2333*
X1380Y2328*
Y2324*
X1382Y2320*
X1406Y2353D02*
X1380Y2370D01*
Y2353*
X1427Y3509D02*
X1429Y3507D01*
X1431Y3503*
Y3496*
X1429Y3492*
X1427Y3490*
X1422Y3488*
X1413*
X1409Y3490*
X1407Y3492*
X1405Y3496*
Y3503*
X1407Y3507*
X1409Y3509*
X1418Y3529D02*
Y3533D01*
X1416Y3538*
X1411Y3540*
X1407Y3538*
X1405Y3533*
Y3529*
X1407Y3525*
X1411Y3523*
X1416Y3525*
X1418Y3529*
X1420Y3525*
X1424Y3523*
X1429Y3525*
X1431Y3529*
Y3533*
X1429Y3538*
X1424Y3540*
X1420Y3538*
X1418Y3533*
X1431Y3575D02*
Y3558D01*
X1416Y3573*
X1411Y3575*
X1407Y3573*
X1405Y3568*
Y3562*
X1407Y3558*
X1486Y2283D02*
X1460D01*
Y2298*
X1462Y2302*
X1466Y2304*
X1471Y2302*
X1473Y2298*
Y2283*
Y2298D02*
X1486Y2304D01*
Y2335D02*
Y2317D01*
X1471Y2333*
X1466Y2335*
X1462Y2333*
X1460Y2328*
Y2322*
X1462Y2317*
X1479Y2353D02*
X1475Y2355D01*
X1473Y2359*
Y2363*
X1475Y2368*
X1479Y2370*
X1484Y2368*
X1486Y2363*
Y2359*
X1484Y2355*
X1479Y2353*
X1473*
X1466Y2355*
X1462Y2359*
X1460Y2363*
X1531Y3173D02*
X1505D01*
Y3188*
X1507Y3192*
X1511Y3194*
X1516Y3192*
X1518Y3188*
Y3173*
Y3188D02*
X1531Y3194D01*
Y3225D02*
Y3208D01*
X1516Y3223*
X1511Y3225*
X1507Y3223*
X1505Y3218*
Y3212*
X1507Y3208*
X1529Y3243D02*
X1531Y3247D01*
Y3253*
X1529Y3258*
X1524Y3260*
X1522*
X1518Y3258*
X1516Y3253*
Y3243*
X1505*
Y3260*
X1531Y3313D02*
X1505D01*
Y3328*
X1507Y3332*
X1511Y3334*
X1516Y3332*
X1518Y3328*
Y3313*
Y3328D02*
X1531Y3334D01*
Y3365D02*
Y3348D01*
X1516Y3363*
X1511Y3365*
X1507Y3363*
X1505Y3358*
Y3352*
X1507Y3348*
X1531Y3393D02*
X1505D01*
X1522Y3382*
Y3400*
X1542Y3778D02*
X1544Y3780D01*
X1546Y3784*
X1544Y3788*
X1542Y3791*
X1520*
Y3795*
Y3791D02*
Y3782D01*
X1544Y3815D02*
X1546Y3819D01*
Y3823*
X1544Y3828*
X1539Y3830*
X1535Y3828*
X1533Y3823*
Y3819*
Y3823D02*
X1531Y3828D01*
X1526Y3830*
X1522Y3828*
X1520Y3823*
Y3819*
X1522Y3815*
X1579Y3778D02*
X1570D01*
X1566Y3780*
X1564Y3782*
X1562Y3786*
Y3791*
X1564Y3795*
X1566Y3797*
X1570Y3799*
X1579*
X1584Y3797*
X1586Y3795*
X1588Y3791*
Y3786*
X1586Y3782*
X1584Y3780*
X1579Y3778*
X1562Y3813D02*
X1581D01*
X1586Y3815*
X1588Y3819*
Y3828*
X1586Y3832*
X1581Y3834*
X1562*
X1588Y3858D02*
X1562D01*
Y3848D02*
Y3869D01*
X1588Y3887D02*
Y3896D01*
Y3891D02*
X1562D01*
X1566Y3887*
X1551Y2933D02*
X1525D01*
Y2948*
X1527Y2952*
X1531Y2954*
X1536Y2952*
X1538Y2948*
Y2933*
Y2948D02*
X1551Y2954D01*
Y2985D02*
Y2968D01*
X1536Y2983*
X1531Y2985*
X1527Y2983*
X1525Y2978*
Y2972*
X1527Y2968*
X1551Y3020D02*
Y3003D01*
X1536Y3018*
X1531Y3020*
X1527Y3018*
X1525Y3013*
Y3007*
X1527Y3003*
X1551Y2447D02*
X1553Y2449D01*
X1557Y2451*
X1564*
X1568Y2449*
X1570Y2447*
X1573Y2442*
Y2433*
X1570Y2429*
X1568Y2427*
X1564Y2425*
X1557*
X1553Y2427*
X1551Y2429*
X1535Y2449D02*
X1531Y2451D01*
X1527*
X1522Y2449*
X1520Y2444*
X1522Y2440*
X1527Y2438*
X1531*
X1527D02*
X1522Y2436D01*
X1520Y2431*
X1522Y2427*
X1527Y2425*
X1531*
X1535Y2427*
X1503Y2444D02*
X1500Y2440D01*
X1496Y2438*
X1492*
X1487Y2440*
X1485Y2444*
X1487Y2449*
X1492Y2451*
X1496*
X1500Y2449*
X1503Y2444*
Y2438*
X1500Y2431*
X1496Y2427*
X1492Y2425*
X1582Y2954D02*
X1584Y2952D01*
X1586Y2948*
Y2941*
X1584Y2937*
X1582Y2935*
X1577Y2933*
X1568*
X1564Y2935*
X1562Y2937*
X1560Y2941*
Y2948*
X1562Y2952*
X1564Y2954*
X1584Y2970D02*
X1586Y2974D01*
Y2978*
X1584Y2983*
X1579Y2985*
X1575Y2983*
X1573Y2978*
Y2974*
Y2978D02*
X1571Y2983D01*
X1566Y2985*
X1562Y2983*
X1560Y2978*
Y2974*
X1562Y2970*
X1586Y3020D02*
Y3003D01*
X1571Y3018*
X1566Y3020*
X1562Y3018*
X1560Y3013*
Y3007*
X1562Y3003*
X1592Y134D02*
X1594Y132D01*
X1596Y128*
Y121*
X1594Y117*
X1592Y115*
X1587Y113*
X1578*
X1574Y115*
X1572Y117*
X1570Y121*
Y128*
X1572Y132*
X1574Y134*
X1596Y158D02*
X1570D01*
X1587Y147*
Y165*
X1594Y185D02*
X1596Y189D01*
Y193*
X1594Y198*
X1589Y200*
X1576*
X1572Y198*
X1570Y193*
Y189*
X1572Y185*
X1576Y183*
X1589*
X1594Y185*
X1572Y198*
X1613Y2176D02*
Y2150D01*
X1597*
X1593Y2152*
X1591Y2156*
X1593Y2161*
X1597Y2163*
X1613*
X1597D02*
X1591Y2176D01*
X1560D02*
X1578D01*
X1562Y2161*
X1560Y2156*
X1562Y2152*
X1567Y2150*
X1573*
X1578Y2152*
X1543Y2176D02*
X1525Y2150D01*
X1543*
X1617Y2954D02*
X1619Y2952D01*
X1621Y2948*
Y2941*
X1619Y2937*
X1617Y2935*
X1612Y2933*
X1603*
X1599Y2935*
X1597Y2937*
X1595Y2941*
Y2948*
X1597Y2952*
X1599Y2954*
X1619Y2970D02*
X1621Y2974D01*
Y2978*
X1619Y2983*
X1614Y2985*
X1610Y2983*
X1608Y2978*
Y2974*
Y2978D02*
X1606Y2983D01*
X1601Y2985*
X1597Y2983*
X1595Y2978*
Y2974*
X1597Y2970*
X1621Y3009D02*
X1619Y3013D01*
X1614Y3018*
X1608Y3020*
X1601*
X1597Y3018*
X1595Y3013*
Y3009*
X1597Y3005*
X1601Y3003*
X1606Y3005*
X1608Y3009*
Y3013*
X1606Y3018*
X1601Y3020*
X1682Y139D02*
X1684Y137D01*
X1686Y133*
Y126*
X1684Y122*
X1682Y120*
X1677Y117*
X1668*
X1664Y120*
X1662Y122*
X1660Y126*
Y133*
X1662Y137*
X1664Y139*
X1686Y163D02*
X1660D01*
X1677Y153*
Y170*
X1686Y192D02*
Y201D01*
Y196D02*
X1660D01*
X1664Y192*
X1737Y2264D02*
X1739Y2262D01*
X1741Y2258*
Y2251*
X1739Y2247*
X1737Y2245*
X1732Y2243*
X1723*
X1719Y2245*
X1717Y2247*
X1715Y2251*
Y2258*
X1717Y2262*
X1719Y2264*
X1741Y2288D02*
X1715D01*
X1732Y2278*
Y2295*
X1741Y2330D02*
Y2313D01*
X1726Y2328*
X1721Y2330*
X1717Y2328*
X1715Y2323*
Y2317*
X1717Y2313*
X1753Y3541D02*
Y3515D01*
X1737*
X1733Y3517*
X1731Y3521*
X1733Y3526*
X1737Y3528*
X1753*
X1737D02*
X1731Y3541D01*
X1700D02*
X1718D01*
X1702Y3526*
X1700Y3521*
X1702Y3517*
X1707Y3515*
X1713*
X1718Y3517*
X1676Y3528D02*
X1672D01*
X1667Y3526*
X1665Y3521*
X1667Y3517*
X1672Y3515*
X1676*
X1680Y3517*
X1683Y3521*
X1680Y3526*
X1676Y3528*
X1680Y3530*
X1683Y3534*
X1680Y3539*
X1676Y3541*
X1672*
X1667Y3539*
X1665Y3534*
X1667Y3530*
X1672Y3528*
X2006Y1472D02*
X2008Y1474D01*
X2012Y1476*
X2019*
X2023Y1474*
X2025Y1472*
X2028Y1467*
Y1458*
X2025Y1454*
X2023Y1452*
X2019Y1450*
X2012*
X2008Y1452*
X2006Y1454*
X1982Y1476D02*
Y1450D01*
X1993Y1467*
X1975*
X1958Y1474D02*
X1953Y1476D01*
X1947*
X1942Y1474*
X1940Y1469*
Y1467*
X1942Y1463*
X1947Y1461*
X1958*
Y1450*
X1940*
X2041Y1662D02*
X2043Y1664D01*
X2047Y1666*
X2054*
X2058Y1664*
X2060Y1662*
X2063Y1657*
Y1648*
X2060Y1644*
X2058Y1642*
X2054Y1640*
X2047*
X2043Y1642*
X2041Y1644*
X2017Y1666D02*
Y1640D01*
X2028Y1657*
X2010*
X1982Y1666D02*
Y1640D01*
X1993Y1657*
X1975*
X2041Y1812D02*
X2043Y1814D01*
X2047Y1816*
X2054*
X2058Y1814*
X2060Y1812*
X2063Y1807*
Y1798*
X2060Y1794*
X2058Y1792*
X2054Y1790*
X2047*
X2043Y1792*
X2041Y1794*
X2017Y1816D02*
Y1790D01*
X2028Y1807*
X2010*
X1990Y1814D02*
X1986Y1816D01*
X1982*
X1977Y1814*
X1975Y1809*
X1977Y1805*
X1982Y1803*
X1986*
X1982D02*
X1977Y1801D01*
X1975Y1796*
X1977Y1792*
X1982Y1790*
X1986*
X1990Y1792*
X2078Y575D02*
Y594D01*
X2075Y599*
X2071Y601*
X2062*
X2058Y599*
X2056Y594*
Y575*
X2043Y594D02*
X2040Y590D01*
X2036Y588*
X2032*
X2027Y590*
X2025Y594*
X2027Y599*
X2032Y601*
X2036*
X2040Y599*
X2043Y594*
Y588*
X2040Y581*
X2036Y577*
X2032Y575*
X2087Y3768D02*
X2089Y3770D01*
X2091Y3774*
X2089Y3778*
X2087Y3781*
X2065*
Y3785*
Y3781D02*
Y3772D01*
X2091Y3813D02*
X2065D01*
X2082Y3803*
Y3820*
X2107Y3768D02*
X2133Y3778D01*
X2107Y3789*
X2133Y3809D02*
Y3818D01*
Y3813D02*
X2107D01*
Y3809D02*
Y3818D01*
X2133Y3838D02*
X2107D01*
X2133Y3859*
X2107*
X2133Y3873D02*
X2107D01*
X2133Y3894*
X2107*
X2112Y134D02*
X2114Y132D01*
X2116Y128*
Y121*
X2114Y117*
X2112Y115*
X2107Y113*
X2098*
X2094Y115*
X2092Y117*
X2090Y121*
Y128*
X2092Y132*
X2094Y134*
X2116Y158D02*
X2090D01*
X2107Y147*
Y165*
X2116Y183D02*
X2090Y200D01*
Y183*
X2172Y2924D02*
X2174Y2922D01*
X2176Y2918*
Y2911*
X2174Y2907*
X2172Y2905*
X2167Y2903*
X2158*
X2154Y2905*
X2152Y2907*
X2150Y2911*
Y2918*
X2152Y2922*
X2154Y2924*
X2176Y2948D02*
X2150D01*
X2167Y2938*
Y2955*
X2169Y2973D02*
X2165Y2975D01*
X2163Y2979*
Y2983*
X2165Y2988*
X2169Y2990*
X2174Y2988*
X2176Y2983*
Y2979*
X2174Y2975*
X2169Y2973*
X2163*
X2156Y2975*
X2152Y2979*
X2150Y2983*
X2203Y3541D02*
Y3515D01*
X2187*
X2183Y3517*
X2181Y3521*
X2183Y3526*
X2187Y3528*
X2203*
X2187D02*
X2181Y3541D01*
X2150D02*
X2168D01*
X2152Y3526*
X2150Y3521*
X2152Y3517*
X2157Y3515*
X2163*
X2168Y3517*
X2126Y3541D02*
X2122Y3539D01*
X2117Y3534*
X2115Y3528*
Y3521*
X2117Y3517*
X2122Y3515*
X2126*
X2130Y3517*
X2133Y3521*
X2130Y3526*
X2126Y3528*
X2122*
X2117Y3526*
X2115Y3521*
X2197Y134D02*
X2199Y132D01*
X2201Y128*
Y121*
X2199Y117*
X2197Y115*
X2192Y113*
X2183*
X2179Y115*
X2177Y117*
X2175Y121*
Y128*
X2177Y132*
X2179Y134*
X2201Y158D02*
X2175D01*
X2192Y147*
Y165*
X2188Y189D02*
Y193D01*
X2186Y198*
X2181Y200*
X2177Y198*
X2175Y193*
Y189*
X2177Y185*
X2181Y183*
X2186Y185*
X2188Y189*
X2190Y185*
X2194Y183*
X2199Y185*
X2201Y189*
Y193*
X2199Y198*
X2194Y200*
X2190Y198*
X2188Y193*
X2282Y2924D02*
X2284Y2922D01*
X2286Y2918*
Y2911*
X2284Y2907*
X2282Y2905*
X2277Y2903*
X2268*
X2264Y2905*
X2262Y2907*
X2260Y2911*
Y2918*
X2262Y2922*
X2264Y2924*
X2286Y2948D02*
X2260D01*
X2277Y2938*
Y2955*
X2286Y2979D02*
X2284Y2983D01*
X2279Y2988*
X2273Y2990*
X2266*
X2262Y2988*
X2260Y2983*
Y2979*
X2262Y2975*
X2266Y2973*
X2271Y2975*
X2273Y2979*
Y2983*
X2271Y2988*
X2266Y2990*
X2467Y1114D02*
X2469Y1112D01*
X2471Y1108*
Y1101*
X2469Y1097*
X2467Y1095*
X2462Y1093*
X2453*
X2449Y1095*
X2447Y1097*
X2445Y1101*
Y1108*
X2447Y1112*
X2449Y1114*
X2469Y1127D02*
X2471Y1132D01*
Y1138*
X2469Y1143*
X2464Y1145*
X2462*
X2458Y1143*
X2456Y1138*
Y1127*
X2445*
Y1145*
X2469Y1165D02*
X2471Y1169D01*
Y1173*
X2469Y1178*
X2464Y1180*
X2451*
X2447Y1178*
X2445Y1173*
Y1169*
X2447Y1165*
X2451Y1163*
X2464*
X2469Y1165*
X2447Y1178*
X2537Y3768D02*
X2539Y3770D01*
X2541Y3774*
X2539Y3778*
X2537Y3781*
X2515*
Y3785*
Y3781D02*
Y3772D01*
X2539Y3803D02*
X2541Y3807D01*
Y3813*
X2539Y3818*
X2534Y3820*
X2532*
X2528Y3818*
X2526Y3813*
Y3803*
X2515*
Y3820*
X2557Y3768D02*
X2583Y3778D01*
X2557Y3789*
X2583Y3809D02*
Y3818D01*
Y3813D02*
X2557D01*
Y3809D02*
Y3818D01*
X2583Y3838D02*
X2557D01*
X2583Y3859*
X2557*
X2583Y3873D02*
X2557D01*
Y3888*
X2559Y3892*
X2563Y3894*
X2568Y3892*
X2570Y3888*
Y3873*
X2552Y1114D02*
X2554Y1112D01*
X2556Y1108*
Y1101*
X2554Y1097*
X2552Y1095*
X2547Y1093*
X2538*
X2534Y1095*
X2532Y1097*
X2530Y1101*
Y1108*
X2532Y1112*
X2534Y1114*
X2554Y1127D02*
X2556Y1132D01*
Y1138*
X2554Y1143*
X2549Y1145*
X2547*
X2543Y1143*
X2541Y1138*
Y1127*
X2530*
Y1145*
X2556Y1167D02*
Y1176D01*
Y1171D02*
X2530D01*
X2534Y1167*
X2568Y3206D02*
Y3180D01*
X2552*
X2548Y3182*
X2546Y3186*
X2548Y3191*
X2552Y3193*
X2568*
X2552D02*
X2546Y3206D01*
X2530Y3204D02*
X2526Y3206D01*
X2522*
X2517Y3204*
X2515Y3199*
X2517Y3195*
X2522Y3193*
X2526*
X2522D02*
X2517Y3191D01*
X2515Y3186*
X2517Y3182*
X2522Y3180*
X2526*
X2530Y3182*
X2495Y3204D02*
X2491Y3206D01*
X2487*
X2482Y3204*
X2480Y3199*
Y3186*
X2482Y3182*
X2487Y3180*
X2491*
X2495Y3182*
X2498Y3186*
Y3199*
X2495Y3204*
X2482Y3182*
X2648Y3541D02*
Y3515D01*
X2632*
X2628Y3517*
X2626Y3521*
X2628Y3526*
X2632Y3528*
X2648*
X2632D02*
X2626Y3541D01*
X2610Y3539D02*
X2606Y3541D01*
X2602*
X2597Y3539*
X2595Y3534*
X2597Y3530*
X2602Y3528*
X2606*
X2602D02*
X2597Y3526D01*
X2595Y3521*
X2597Y3517*
X2602Y3515*
X2606*
X2610Y3517*
X2573Y3541D02*
X2564D01*
X2569D02*
Y3515D01*
X2573Y3519*
X2743Y3206D02*
Y3180D01*
X2727*
X2723Y3182*
X2721Y3186*
X2723Y3191*
X2727Y3193*
X2743*
X2727D02*
X2721Y3206D01*
X2705Y3204D02*
X2701Y3206D01*
X2697*
X2692Y3204*
X2690Y3199*
X2692Y3195*
X2697Y3193*
X2701*
X2697D02*
X2692Y3191D01*
X2690Y3186*
X2692Y3182*
X2697Y3180*
X2701*
X2705Y3182*
X2655Y3206D02*
X2673D01*
X2657Y3191*
X2655Y3186*
X2657Y3182*
X2662Y3180*
X2668*
X2673Y3182*
X2827Y3304D02*
X2829Y3302D01*
X2831Y3298*
Y3291*
X2829Y3287*
X2827Y3285*
X2822Y3283*
X2813*
X2809Y3285*
X2807Y3287*
X2805Y3291*
Y3298*
X2807Y3302*
X2809Y3304*
X2829Y3318D02*
X2831Y3322D01*
Y3328*
X2829Y3333*
X2824Y3335*
X2822*
X2818Y3333*
X2816Y3328*
Y3318*
X2805*
Y3335*
X2831Y3370D02*
Y3353D01*
X2816Y3368*
X2811Y3370*
X2807Y3368*
X2805Y3363*
Y3357*
X2807Y3353*
X2903Y800D02*
Y819D01*
X2900Y824*
X2896Y826*
X2887*
X2883Y824*
X2881Y819*
Y800*
X2863Y826D02*
X2854D01*
X2859D02*
Y800D01*
X2863Y804*
X2830Y824D02*
X2826Y826D01*
X2822*
X2817Y824*
X2815Y819*
Y806*
X2817Y802*
X2822Y800*
X2826*
X2830Y802*
X2833Y806*
Y819*
X2830Y824*
X2817Y802*
X2992Y3768D02*
X2994Y3770D01*
X2996Y3774*
X2994Y3778*
X2992Y3781*
X2970*
Y3785*
Y3781D02*
Y3772D01*
X2989Y3803D02*
X2985Y3805D01*
X2983Y3809*
Y3813*
X2985Y3818*
X2989Y3820*
X2994Y3818*
X2996Y3813*
Y3809*
X2994Y3805*
X2989Y3803*
X2983*
X2976Y3805*
X2972Y3809*
X2970Y3813*
X3012Y3768D02*
X3038Y3778D01*
X3012Y3789*
X3029Y3803D02*
X3020D01*
X3016Y3805*
X3014Y3807*
X3012Y3811*
Y3816*
X3014Y3820*
X3016Y3822*
X3020Y3824*
X3029*
X3034Y3822*
X3036Y3820*
X3038Y3816*
Y3811*
X3036Y3807*
X3034Y3805*
X3029Y3803*
X3012Y3838D02*
X3031D01*
X3036Y3840*
X3038Y3844*
Y3853*
X3036Y3857*
X3031Y3859*
X3012*
X3038Y3883D02*
X3012D01*
Y3873D02*
Y3894D01*
X3037Y3264D02*
X3039Y3262D01*
X3041Y3258*
Y3251*
X3039Y3247*
X3037Y3245*
X3032Y3243*
X3023*
X3019Y3245*
X3017Y3247*
X3015Y3251*
Y3258*
X3017Y3262*
X3019Y3264*
X3039Y3278D02*
X3041Y3282D01*
Y3288*
X3039Y3293*
X3034Y3295*
X3032*
X3028Y3293*
X3026Y3288*
Y3278*
X3015*
Y3295*
X3039Y3315D02*
X3041Y3319D01*
Y3323*
X3039Y3328*
X3034Y3330*
X3030Y3328*
X3028Y3323*
Y3319*
Y3323D02*
X3026Y3328D01*
X3021Y3330*
X3017Y3328*
X3015Y3323*
Y3319*
X3017Y3315*
X3103Y1425D02*
Y1444D01*
X3100Y1449*
X3096Y1451*
X3087*
X3083Y1449*
X3081Y1444*
Y1425*
X3068Y1451D02*
X3050Y1425D01*
X3068*
X3296Y2157D02*
X3298Y2159D01*
X3302Y2161*
X3309*
X3313Y2159*
X3315Y2157*
X3318Y2152*
Y2143*
X3315Y2139*
X3313Y2137*
X3309Y2135*
X3302*
X3298Y2137*
X3296Y2139*
X3283Y2154D02*
X3280Y2150D01*
X3276Y2148*
X3272*
X3267Y2150*
X3265Y2154*
X3267Y2159*
X3272Y2161*
X3276*
X3280Y2159*
X3283Y2154*
Y2148*
X3280Y2141*
X3276Y2137*
X3272Y2135*
X3245Y2159D02*
X3241Y2161D01*
X3237*
X3232Y2159*
X3230Y2154*
Y2141*
X3232Y2137*
X3237Y2135*
X3241*
X3245Y2137*
X3248Y2141*
Y2154*
X3245Y2159*
X3232Y2137*
X3296Y2232D02*
X3298Y2234D01*
X3302Y2236*
X3309*
X3313Y2234*
X3315Y2232*
X3318Y2227*
Y2218*
X3315Y2214*
X3313Y2212*
X3309Y2210*
X3302*
X3298Y2212*
X3296Y2214*
X3283Y2234D02*
X3278Y2236D01*
X3272*
X3267Y2234*
X3265Y2229*
Y2227*
X3267Y2223*
X3272Y2221*
X3283*
Y2210*
X3265*
X3241Y2236D02*
X3237Y2234D01*
X3232Y2229*
X3230Y2223*
Y2216*
X3232Y2212*
X3237Y2210*
X3241*
X3245Y2212*
X3248Y2216*
X3245Y2221*
X3241Y2223*
X3237*
X3232Y2221*
X3230Y2216*
X3296Y2332D02*
X3298Y2334D01*
X3302Y2336*
X3309*
X3313Y2334*
X3315Y2332*
X3318Y2327*
Y2318*
X3315Y2314*
X3313Y2312*
X3309Y2310*
X3302*
X3298Y2312*
X3296Y2314*
X3283Y2334D02*
X3278Y2336D01*
X3272*
X3267Y2334*
X3265Y2329*
Y2327*
X3267Y2323*
X3272Y2321*
X3283*
Y2310*
X3265*
X3241Y2323D02*
X3237D01*
X3232Y2321*
X3230Y2316*
X3232Y2312*
X3237Y2310*
X3241*
X3245Y2312*
X3248Y2316*
X3245Y2321*
X3241Y2323*
X3245Y2325*
X3248Y2329*
X3245Y2334*
X3241Y2336*
X3237*
X3232Y2334*
X3230Y2329*
X3232Y2325*
X3237Y2323*
X3296Y2432D02*
X3298Y2434D01*
X3302Y2436*
X3309*
X3313Y2434*
X3315Y2432*
X3318Y2427*
Y2418*
X3315Y2414*
X3313Y2412*
X3309Y2410*
X3302*
X3298Y2412*
X3296Y2414*
X3283Y2434D02*
X3278Y2436D01*
X3272*
X3267Y2434*
X3265Y2429*
Y2427*
X3267Y2423*
X3272Y2421*
X3283*
Y2410*
X3265*
X3248Y2436D02*
X3230Y2410D01*
X3248*
X3296Y2517D02*
X3298Y2519D01*
X3302Y2521*
X3309*
X3313Y2519*
X3315Y2517*
X3318Y2512*
Y2503*
X3315Y2499*
X3313Y2497*
X3309Y2495*
X3302*
X3298Y2497*
X3296Y2499*
X3283Y2519D02*
X3278Y2521D01*
X3272*
X3267Y2519*
X3265Y2514*
Y2512*
X3267Y2508*
X3272Y2506*
X3283*
Y2495*
X3265*
X3248Y2514D02*
X3245Y2510D01*
X3241Y2508*
X3237*
X3232Y2510*
X3230Y2514*
X3232Y2519*
X3237Y2521*
X3241*
X3245Y2519*
X3248Y2514*
Y2508*
X3245Y2501*
X3241Y2497*
X3237Y2495*
X3296Y2597D02*
X3298Y2599D01*
X3302Y2601*
X3309*
X3313Y2599*
X3315Y2597*
X3318Y2592*
Y2583*
X3315Y2579*
X3313Y2577*
X3309Y2575*
X3302*
X3298Y2577*
X3296Y2579*
X3283Y2599D02*
X3278Y2601D01*
X3272*
X3267Y2599*
X3265Y2594*
Y2592*
X3267Y2588*
X3272Y2586*
X3283*
Y2575*
X3265*
X3248Y2599D02*
X3243Y2601D01*
X3237*
X3232Y2599*
X3230Y2594*
Y2592*
X3232Y2588*
X3237Y2586*
X3248*
Y2575*
X3230*
X3321Y1688D02*
X3295Y1709D01*
Y1688D02*
X3321Y1709D01*
Y1733D02*
X3295D01*
Y1722D02*
Y1744D01*
X3321Y1758D02*
X3295Y1768D01*
X3321Y1779*
X3310Y1762D02*
Y1775D01*
X3295Y1793D02*
X3321D01*
Y1814*
Y1832D02*
Y1841D01*
Y1836D02*
X3295D01*
X3299Y1832*
X3506Y2843D02*
X3480D01*
Y2858*
X3482Y2862*
X3486Y2864*
X3491Y2862*
X3493Y2858*
Y2843*
Y2858D02*
X3506Y2864D01*
X3504Y2880D02*
X3506Y2884D01*
Y2888*
X3504Y2893*
X3499Y2895*
X3495Y2893*
X3493Y2888*
Y2884*
Y2888D02*
X3491Y2893D01*
X3486Y2895*
X3482Y2893*
X3480Y2888*
Y2884*
X3482Y2880*
X3504Y2915D02*
X3506Y2919D01*
Y2923*
X3504Y2928*
X3499Y2930*
X3495Y2928*
X3493Y2923*
Y2919*
Y2923D02*
X3491Y2928D01*
X3486Y2930*
X3482Y2928*
X3480Y2923*
Y2919*
X3482Y2915*
X3526Y3268D02*
X3500D01*
Y3283*
X3502Y3287*
X3506Y3289*
X3511Y3287*
X3513Y3283*
Y3268*
X3500Y3303D02*
X3526D01*
Y3324*
Y3342D02*
Y3351D01*
Y3346D02*
X3500D01*
X3504Y3342*
X3547Y3094D02*
X3549Y3092D01*
X3551Y3088*
Y3081*
X3549Y3077*
X3547Y3075*
X3542Y3073*
X3533*
X3529Y3075*
X3527Y3077*
X3525Y3081*
Y3088*
X3527Y3092*
X3529Y3094*
X3549Y3108D02*
X3551Y3112D01*
Y3118*
X3549Y3123*
X3544Y3125*
X3542*
X3538Y3123*
X3536Y3118*
Y3108*
X3525*
Y3125*
X3551Y3153D02*
X3525D01*
X3542Y3143*
Y3160*
X3597Y1294D02*
X3599Y1292D01*
X3601Y1288*
Y1281*
X3599Y1277*
X3597Y1275*
X3592Y1273*
X3583*
X3579Y1275*
X3577Y1277*
X3575Y1281*
Y1288*
X3577Y1292*
X3579Y1294*
X3594Y1308D02*
X3590Y1310D01*
X3588Y1314*
Y1318*
X3590Y1323*
X3594Y1325*
X3599Y1323*
X3601Y1318*
Y1314*
X3599Y1310*
X3594Y1308*
X3588*
X3581Y1310*
X3577Y1314*
X3575Y1318*
X3601Y1347D02*
Y1356D01*
Y1351D02*
X3575D01*
X3579Y1347*
X3673Y1945D02*
Y1964D01*
X3670Y1969*
X3666Y1971*
X3657*
X3653Y1969*
X3651Y1964*
Y1945*
X3631Y1971D02*
X3627Y1969D01*
X3622Y1964*
X3620Y1958*
Y1951*
X3622Y1947*
X3627Y1945*
X3631*
X3635Y1947*
X3638Y1951*
X3635Y1956*
X3631Y1958*
X3627*
X3622Y1956*
X3620Y1951*
X3682Y1294D02*
X3684Y1292D01*
X3686Y1288*
Y1281*
X3684Y1277*
X3682Y1275*
X3677Y1273*
X3668*
X3664Y1275*
X3662Y1277*
X3660Y1281*
Y1288*
X3662Y1292*
X3664Y1294*
X3679Y1308D02*
X3675Y1310D01*
X3673Y1314*
Y1318*
X3675Y1323*
X3679Y1325*
X3684Y1323*
X3686Y1318*
Y1314*
X3684Y1310*
X3679Y1308*
X3673*
X3666Y1310*
X3662Y1314*
X3660Y1318*
X3686Y1360D02*
Y1343D01*
X3671Y1358*
X3666Y1360*
X3662Y1358*
X3660Y1353*
Y1347*
X3662Y1343*
X3736Y2843D02*
X3710D01*
Y2858*
X3712Y2862*
X3716Y2864*
X3721Y2862*
X3723Y2858*
Y2843*
Y2858D02*
X3736Y2864D01*
X3734Y2880D02*
X3736Y2884D01*
Y2888*
X3734Y2893*
X3729Y2895*
X3725Y2893*
X3723Y2888*
Y2884*
Y2888D02*
X3721Y2893D01*
X3716Y2895*
X3712Y2893*
X3710Y2888*
Y2884*
X3712Y2880*
X3736Y2923D02*
X3710D01*
X3727Y2913*
Y2930*
X3761Y3268D02*
X3735D01*
Y3283*
X3737Y3287*
X3741Y3289*
X3746Y3287*
X3748Y3283*
Y3268*
X3735Y3303D02*
X3761D01*
Y3324*
Y3355D02*
Y3338D01*
X3746Y3353*
X3741Y3355*
X3737Y3353*
X3735Y3348*
Y3342*
X3737Y3338*
X3772Y3094D02*
X3774Y3092D01*
X3776Y3088*
Y3081*
X3774Y3077*
X3772Y3075*
X3767Y3073*
X3758*
X3754Y3075*
X3752Y3077*
X3750Y3081*
Y3088*
X3752Y3092*
X3754Y3094*
X3769Y3108D02*
X3765Y3110D01*
X3763Y3114*
Y3118*
X3765Y3123*
X3769Y3125*
X3774Y3123*
X3776Y3118*
Y3114*
X3774Y3110*
X3769Y3108*
X3763*
X3756Y3110*
X3752Y3114*
X3750Y3118*
X3774Y3145D02*
X3776Y3149D01*
Y3153*
X3774Y3158*
X3769Y3160*
X3765Y3158*
X3763Y3153*
Y3149*
Y3153D02*
X3761Y3158D01*
X3756Y3160*
X3752Y3158*
X3750Y3153*
Y3149*
X3752Y3145*
X3943Y2405D02*
Y2424D01*
X3940Y2429*
X3936Y2431*
X3927*
X3923Y2429*
X3921Y2424*
Y2405*
X3901Y2418D02*
X3897D01*
X3892Y2416*
X3890Y2411*
X3892Y2407*
X3897Y2405*
X3901*
X3905Y2407*
X3908Y2411*
X3905Y2416*
X3901Y2418*
X3905Y2420*
X3908Y2424*
X3905Y2429*
X3901Y2431*
X3897*
X3892Y2429*
X3890Y2424*
X3892Y2420*
X3897Y2418*
X3952Y1584D02*
X3954Y1582D01*
X3956Y1578*
Y1571*
X3954Y1567*
X3952Y1565*
X3947Y1563*
X3938*
X3934Y1565*
X3932Y1567*
X3930Y1571*
Y1578*
X3932Y1582*
X3934Y1584*
X3949Y1598D02*
X3945Y1600D01*
X3943Y1604*
Y1608*
X3945Y1613*
X3949Y1615*
X3954Y1613*
X3956Y1608*
Y1604*
X3954Y1600*
X3949Y1598*
X3943*
X3936Y1600*
X3932Y1604*
X3930Y1608*
X3954Y1633D02*
X3956Y1637D01*
Y1643*
X3954Y1648*
X3949Y1650*
X3947*
X3943Y1648*
X3941Y1643*
Y1633*
X3930*
Y1650*
X3952Y2044D02*
X3954Y2042D01*
X3956Y2038*
Y2031*
X3954Y2027*
X3952Y2025*
X3947Y2023*
X3938*
X3934Y2025*
X3932Y2027*
X3930Y2031*
Y2038*
X3932Y2042*
X3934Y2044*
X3949Y2058D02*
X3945Y2060D01*
X3943Y2064*
Y2068*
X3945Y2073*
X3949Y2075*
X3954Y2073*
X3956Y2068*
Y2064*
X3954Y2060*
X3949Y2058*
X3943*
X3936Y2060*
X3932Y2064*
X3930Y2068*
X3956Y2103D02*
X3930D01*
X3947Y2092*
Y2110*
X3997Y2044D02*
X3999Y2042D01*
X4001Y2038*
Y2031*
X3999Y2027*
X3997Y2025*
X3992Y2023*
X3983*
X3979Y2025*
X3977Y2027*
X3975Y2031*
Y2038*
X3977Y2042*
X3979Y2044*
X3994Y2058D02*
X3990Y2060D01*
X3988Y2064*
Y2068*
X3990Y2073*
X3994Y2075*
X3999Y2073*
X4001Y2068*
Y2064*
X3999Y2060*
X3994Y2058*
X3988*
X3981Y2060*
X3977Y2064*
X3975Y2068*
X3994Y2092D02*
X3990Y2095D01*
X3988Y2099*
Y2103*
X3990Y2108*
X3994Y2110*
X3999Y2108*
X4001Y2103*
Y2099*
X3999Y2095*
X3994Y2092*
X3988*
X3981Y2095*
X3977Y2099*
X3975Y2103*
X4114Y1691D02*
X4087Y1712D01*
Y1691D02*
X4114Y1712D01*
Y1736D02*
X4087D01*
Y1726D02*
Y1747D01*
X4114Y1761D02*
X4087Y1771D01*
X4114Y1782*
X4103Y1765D02*
Y1778D01*
X4087Y1796D02*
X4114D01*
Y1817*
Y1848D02*
Y1831D01*
X4098Y1846*
X4094Y1848*
X4090Y1846*
X4087Y1841*
Y1835*
X4090Y1831*
X4118Y2155D02*
X4120Y2157D01*
X4125Y2159*
X4131*
X4136Y2157*
X4138Y2155*
X4140Y2150*
Y2141*
X4138Y2137*
X4136Y2135*
X4131Y2133*
X4125*
X4120Y2135*
X4118Y2137*
X4105Y2159D02*
X4088Y2133D01*
X4105*
X4053Y2159D02*
X4070D01*
X4055Y2144*
X4053Y2139*
X4055Y2135*
X4059Y2133*
X4066*
X4070Y2135*
X4118Y2245D02*
X4120Y2247D01*
X4125Y2249*
X4131*
X4136Y2247*
X4138Y2245*
X4140Y2240*
Y2231*
X4138Y2227*
X4136Y2225*
X4131Y2223*
X4125*
X4120Y2225*
X4118Y2227*
X4105Y2249D02*
X4088Y2223D01*
X4105*
X4066Y2249D02*
X4057D01*
X4061D02*
Y2223D01*
X4066Y2227*
X4118Y2340D02*
X4120Y2342D01*
X4125Y2344*
X4131*
X4136Y2342*
X4138Y2340*
X4140Y2335*
Y2326*
X4138Y2322*
X4136Y2320*
X4131Y2318*
X4125*
X4120Y2320*
X4118Y2322*
X4105Y2344D02*
X4088Y2318D01*
X4105*
X4068Y2342D02*
X4064Y2344D01*
X4059*
X4055Y2342*
X4053Y2337*
Y2324*
X4055Y2320*
X4059Y2318*
X4064*
X4068Y2320*
X4070Y2324*
Y2337*
X4068Y2342*
X4055Y2320*
X4118Y2450D02*
X4120Y2452D01*
X4125Y2454*
X4131*
X4136Y2452*
X4138Y2450*
X4140Y2445*
Y2436*
X4138Y2432*
X4136Y2430*
X4131Y2428*
X4125*
X4120Y2430*
X4118Y2432*
X4105Y2447D02*
X4103Y2443D01*
X4099Y2441*
X4094*
X4090Y2443*
X4088Y2447*
X4090Y2452*
X4094Y2454*
X4099*
X4103Y2452*
X4105Y2447*
Y2441*
X4103Y2434*
X4099Y2430*
X4094Y2428*
X4064Y2454D02*
X4059Y2452D01*
X4055Y2447*
X4053Y2441*
Y2434*
X4055Y2430*
X4059Y2428*
X4064*
X4068Y2430*
X4070Y2434*
X4068Y2439*
X4064Y2441*
X4059*
X4055Y2439*
X4053Y2434*
X4118Y2525D02*
X4120Y2527D01*
X4125Y2529*
X4131*
X4136Y2527*
X4138Y2525*
X4140Y2520*
Y2511*
X4138Y2507*
X4136Y2505*
X4131Y2503*
X4125*
X4120Y2505*
X4118Y2507*
X4105Y2522D02*
X4103Y2518D01*
X4099Y2516*
X4094*
X4090Y2518*
X4088Y2522*
X4090Y2527*
X4094Y2529*
X4099*
X4103Y2527*
X4105Y2522*
Y2516*
X4103Y2509*
X4099Y2505*
X4094Y2503*
X4064Y2516D02*
X4059D01*
X4055Y2514*
X4053Y2509*
X4055Y2505*
X4059Y2503*
X4064*
X4068Y2505*
X4070Y2509*
X4068Y2514*
X4064Y2516*
X4068Y2518*
X4070Y2522*
X4068Y2527*
X4064Y2529*
X4059*
X4055Y2527*
X4053Y2522*
X4055Y2518*
X4059Y2516*
X4118Y2610D02*
X4120Y2612D01*
X4125Y2614*
X4131*
X4136Y2612*
X4138Y2610*
X4140Y2605*
Y2596*
X4138Y2592*
X4136Y2590*
X4131Y2588*
X4125*
X4120Y2590*
X4118Y2592*
X4105Y2607D02*
X4103Y2603D01*
X4099Y2601*
X4094*
X4090Y2603*
X4088Y2607*
X4090Y2612*
X4094Y2614*
X4099*
X4103Y2612*
X4105Y2607*
Y2601*
X4103Y2594*
X4099Y2590*
X4094Y2588*
X4070Y2614D02*
X4053Y2588D01*
X4070*
X4384Y1292D02*
X4386Y1290D01*
X4389Y1286*
Y1279*
X4386Y1275*
X4384Y1273*
X4380Y1271*
X4371*
X4367Y1273*
X4365Y1275*
X4362Y1279*
Y1286*
X4365Y1290*
X4367Y1292*
X4389Y1306D02*
X4362Y1323D01*
Y1306*
X4386Y1343D02*
X4389Y1347D01*
Y1351*
X4386Y1356*
X4382Y1358*
X4378Y1356*
X4375Y1351*
Y1347*
Y1351D02*
X4373Y1356D01*
X4369Y1358*
X4365Y1356*
X4362Y1351*
Y1347*
X4365Y1343*
X4412Y3759D02*
X4414Y3757D01*
X4416Y3753*
Y3746*
X4414Y3742*
X4412Y3740*
X4407Y3738*
X4398*
X4394Y3740*
X4392Y3742*
X4390Y3746*
Y3753*
X4392Y3757*
X4394Y3759*
X4407Y3773D02*
X4398D01*
X4394Y3775*
X4392Y3777*
X4390Y3781*
Y3786*
X4392Y3790*
X4394Y3792*
X4398Y3794*
X4407*
X4412Y3792*
X4414Y3790*
X4416Y3786*
Y3781*
X4414Y3777*
X4412Y3775*
X4407Y3773*
X4416Y3808D02*
X4390D01*
X4416Y3829*
X4390*
X4416Y3843D02*
X4390D01*
X4416Y3864*
X4390*
X4416Y3882D02*
Y3891D01*
Y3886D02*
X4390D01*
X4394Y3882*
X4454Y3759D02*
X4456Y3757D01*
X4458Y3753*
Y3746*
X4456Y3742*
X4454Y3740*
X4449Y3738*
X4440*
X4436Y3740*
X4434Y3742*
X4432Y3746*
Y3753*
X4434Y3757*
X4436Y3759*
X4449Y3773D02*
X4440D01*
X4436Y3775*
X4434Y3777*
X4432Y3781*
Y3786*
X4434Y3790*
X4436Y3792*
X4440Y3794*
X4449*
X4454Y3792*
X4456Y3790*
X4458Y3786*
Y3781*
X4456Y3777*
X4454Y3775*
X4449Y3773*
X4458Y3808D02*
X4432D01*
X4445Y3818*
X4432Y3829*
X4458*
Y3860D02*
Y3843D01*
X4443Y3858*
X4438Y3860*
X4434Y3858*
X4432Y3853*
Y3847*
X4434Y3843*
X4470Y1943D02*
Y1962D01*
X4468Y1967*
X4464Y1969*
X4455*
X4450Y1967*
X4448Y1962*
Y1943*
X4431Y1969D02*
X4422D01*
X4426D02*
Y1943D01*
X4431Y1947*
X4383Y1969D02*
X4400D01*
X4385Y1954*
X4383Y1949*
X4385Y1945*
X4389Y1943*
X4396*
X4400Y1945*
X4464Y1292D02*
X4466Y1290D01*
X4469Y1286*
Y1279*
X4466Y1275*
X4464Y1273*
X4460Y1271*
X4451*
X4447Y1273*
X4445Y1275*
X4442Y1279*
Y1286*
X4445Y1290*
X4447Y1292*
X4469Y1306D02*
X4442Y1323D01*
Y1306*
X4469Y1351D02*
X4442D01*
X4460Y1341*
Y1358*
X4537Y3759D02*
X4539Y3757D01*
X4541Y3753*
Y3746*
X4539Y3742*
X4537Y3740*
X4532Y3738*
X4523*
X4519Y3740*
X4517Y3742*
X4515Y3746*
Y3753*
X4517Y3757*
X4519Y3759*
X4532Y3773D02*
X4523D01*
X4519Y3775*
X4517Y3777*
X4515Y3781*
Y3786*
X4517Y3790*
X4519Y3792*
X4523Y3794*
X4532*
X4537Y3792*
X4539Y3790*
X4541Y3786*
Y3781*
X4539Y3777*
X4537Y3775*
X4532Y3773*
X4541Y3808D02*
X4515D01*
X4541Y3829*
X4515*
X4541Y3843D02*
X4515D01*
X4541Y3864*
X4515*
X4541Y3895D02*
Y3878D01*
X4526Y3893*
X4521Y3895*
X4517Y3893*
X4515Y3888*
Y3882*
X4517Y3878*
X4579Y3759D02*
X4581Y3757D01*
X4583Y3753*
Y3746*
X4581Y3742*
X4579Y3740*
X4574Y3738*
X4565*
X4561Y3740*
X4559Y3742*
X4557Y3746*
Y3753*
X4559Y3757*
X4561Y3759*
X4574Y3773D02*
X4565D01*
X4561Y3775*
X4559Y3777*
X4557Y3781*
Y3786*
X4559Y3790*
X4561Y3792*
X4565Y3794*
X4574*
X4579Y3792*
X4581Y3790*
X4583Y3786*
Y3781*
X4581Y3777*
X4579Y3775*
X4574Y3773*
X4583Y3808D02*
X4557D01*
X4570Y3818*
X4557Y3829*
X4583*
Y3847D02*
Y3856D01*
Y3851D02*
X4557D01*
X4561Y3847*
X4744Y1587D02*
X4746Y1585D01*
X4749Y1581*
Y1574*
X4746Y1570*
X4744Y1568*
X4740Y1566*
X4731*
X4727Y1568*
X4725Y1570*
X4722Y1574*
Y1581*
X4725Y1585*
X4727Y1587*
X4749Y1601D02*
X4722Y1618D01*
Y1601*
X4742Y1636D02*
X4738Y1638D01*
X4735Y1642*
Y1646*
X4738Y1651*
X4742Y1653*
X4746Y1651*
X4749Y1646*
Y1642*
X4746Y1638*
X4742Y1636*
X4735*
X4729Y1638*
X4725Y1642*
X4722Y1646*
X4744Y2042D02*
X4746Y2040D01*
X4749Y2036*
Y2029*
X4746Y2025*
X4744Y2023*
X4740Y2021*
X4731*
X4727Y2023*
X4725Y2025*
X4722Y2029*
Y2036*
X4725Y2040*
X4727Y2042*
X4749Y2056D02*
X4722Y2073D01*
Y2056*
X4746Y2091D02*
X4749Y2095D01*
Y2101*
X4746Y2106*
X4742Y2108*
X4740*
X4735Y2106*
X4733Y2101*
Y2091*
X4722*
Y2108*
X4755Y2398D02*
Y2417D01*
X4753Y2422*
X4749Y2424*
X4740*
X4735Y2422*
X4733Y2417*
Y2398*
X4716Y2424D02*
X4707D01*
X4711D02*
Y2398D01*
X4716Y2402*
X4681Y2424D02*
X4672D01*
X4676D02*
Y2398D01*
X4681Y2402*
X4829Y2077D02*
X4831Y2075D01*
X4834Y2071*
Y2064*
X4831Y2060*
X4829Y2058*
X4825Y2056*
X4816*
X4812Y2058*
X4810Y2060*
X4807Y2064*
Y2071*
X4810Y2075*
X4812Y2077*
X4834Y2091D02*
X4807Y2108D01*
Y2091*
X4834Y2126D02*
X4807Y2143D01*
Y2126*
X4926Y2853D02*
X4900D01*
Y2868*
X4902Y2872*
X4906Y2874*
X4911Y2872*
X4913Y2868*
Y2853*
Y2868D02*
X4926Y2874D01*
X4924Y2890D02*
X4926Y2894D01*
Y2898*
X4924Y2903*
X4919Y2905*
X4915Y2903*
X4913Y2898*
Y2894*
Y2898D02*
X4911Y2903D01*
X4906Y2905*
X4902Y2903*
X4900Y2898*
Y2894*
X4902Y2890*
X4924Y2923D02*
X4926Y2927D01*
Y2933*
X4924Y2938*
X4919Y2940*
X4917*
X4913Y2938*
X4911Y2933*
Y2923*
X4900*
Y2940*
X4951Y3268D02*
X4925D01*
Y3283*
X4927Y3287*
X4931Y3289*
X4936Y3287*
X4938Y3283*
Y3268*
X4925Y3303D02*
X4951D01*
Y3324*
X4949Y3340D02*
X4951Y3344D01*
Y3348*
X4949Y3353*
X4944Y3355*
X4940Y3353*
X4938Y3348*
Y3344*
Y3348D02*
X4936Y3353D01*
X4931Y3355*
X4927Y3353*
X4925Y3348*
Y3344*
X4927Y3340*
X4967Y3084D02*
X4969Y3082D01*
X4971Y3078*
Y3071*
X4969Y3067*
X4967Y3065*
X4962Y3063*
X4953*
X4949Y3065*
X4947Y3067*
X4945Y3071*
Y3078*
X4947Y3082*
X4949Y3084*
X4971Y3098D02*
X4945Y3115D01*
Y3098*
X4958Y3139D02*
Y3143D01*
X4956Y3148*
X4951Y3150*
X4947Y3148*
X4945Y3143*
Y3139*
X4947Y3135*
X4951Y3133*
X4956Y3135*
X4958Y3139*
X4960Y3135*
X4964Y3133*
X4969Y3135*
X4971Y3139*
Y3143*
X4969Y3148*
X4964Y3150*
X4960Y3148*
X4958Y3143*
X5166Y2853D02*
X5140D01*
Y2868*
X5142Y2872*
X5146Y2874*
X5151Y2872*
X5153Y2868*
Y2853*
Y2868D02*
X5166Y2874D01*
X5164Y2890D02*
X5166Y2894D01*
Y2898*
X5164Y2903*
X5159Y2905*
X5155Y2903*
X5153Y2898*
Y2894*
Y2898D02*
X5151Y2903D01*
X5146Y2905*
X5142Y2903*
X5140Y2898*
Y2894*
X5142Y2890*
X5159Y2923D02*
X5155Y2925D01*
X5153Y2929*
Y2933*
X5155Y2938*
X5159Y2940*
X5164Y2938*
X5166Y2933*
Y2929*
X5164Y2925*
X5159Y2923*
X5153*
X5146Y2925*
X5142Y2929*
X5140Y2933*
X5186Y3268D02*
X5160D01*
Y3283*
X5162Y3287*
X5166Y3289*
X5171Y3287*
X5173Y3283*
Y3268*
X5160Y3303D02*
X5186D01*
Y3324*
Y3348D02*
X5160D01*
X5177Y3338*
Y3355*
X5202Y3089D02*
X5204Y3087D01*
X5206Y3083*
Y3076*
X5204Y3072*
X5202Y3070*
X5197Y3068*
X5188*
X5184Y3070*
X5182Y3072*
X5180Y3076*
Y3083*
X5182Y3087*
X5184Y3089*
X5206Y3103D02*
X5180Y3120D01*
Y3103*
X5206Y3144D02*
X5204Y3148D01*
X5199Y3153*
X5193Y3155*
X5186*
X5182Y3153*
X5180Y3148*
Y3144*
X5182Y3140*
X5186Y3138*
X5191Y3140*
X5193Y3144*
Y3148*
X5191Y3153*
X5186Y3155*
X5292Y334D02*
X5294Y332D01*
X5296Y328*
Y321*
X5294Y317*
X5292Y315*
X5287Y313*
X5278*
X5274Y315*
X5272Y317*
X5270Y321*
Y328*
X5272Y332*
X5274Y334*
X5283Y354D02*
Y358D01*
X5281Y363*
X5276Y365*
X5272Y363*
X5270Y358*
Y354*
X5272Y350*
X5276Y348*
X5281Y350*
X5283Y354*
X5285Y350*
X5289Y348*
X5294Y350*
X5296Y354*
Y358*
X5294Y363*
X5289Y365*
X5285Y363*
X5283Y358*
X5294Y385D02*
X5296Y389D01*
Y393*
X5294Y398*
X5289Y400*
X5276*
X5272Y398*
X5270Y393*
Y389*
X5272Y385*
X5276Y383*
X5289*
X5294Y385*
X5272Y398*
X5306Y648D02*
X5280D01*
Y669*
X5293Y665D02*
Y648D01*
X5299Y683D02*
X5304Y685D01*
X5306Y689*
Y698*
X5304Y702*
X5299Y704*
X5295Y702*
X5293Y698*
Y689*
X5291Y685*
X5286Y683*
X5282Y685*
X5280Y689*
Y698*
X5282Y702*
X5286Y704*
X5306Y722D02*
Y731D01*
Y726D02*
X5280D01*
X5284Y722*
X5382Y334D02*
X5384Y332D01*
X5386Y328*
Y321*
X5384Y317*
X5382Y315*
X5377Y313*
X5368*
X5364Y315*
X5362Y317*
X5360Y321*
Y328*
X5362Y332*
X5364Y334*
X5373Y354D02*
Y358D01*
X5371Y363*
X5366Y365*
X5362Y363*
X5360Y358*
Y354*
X5362Y350*
X5366Y348*
X5371Y350*
X5373Y354*
X5375Y350*
X5379Y348*
X5384Y350*
X5386Y354*
Y358*
X5384Y363*
X5379Y365*
X5375Y363*
X5373Y358*
X5386Y387D02*
Y396D01*
Y391D02*
X5360D01*
X5364Y387*
X5386Y1853D02*
X5360D01*
Y1868*
X5362Y1872*
X5366Y1874*
X5371Y1872*
X5373Y1868*
Y1853*
Y1868D02*
X5386Y1874D01*
X5384Y1890D02*
X5386Y1894D01*
Y1898*
X5384Y1903*
X5379Y1905*
X5375Y1903*
X5373Y1898*
Y1894*
Y1898D02*
X5371Y1903D01*
X5366Y1905*
X5362Y1903*
X5360Y1898*
Y1894*
X5362Y1890*
X5386Y1923D02*
X5360Y1940D01*
Y1923*
X5663Y712D02*
X5660Y714D01*
X5656Y716*
X5652Y714*
X5649Y712*
Y690*
X5645*
X5649D02*
X5658D01*
X5628Y716D02*
X5610Y690D01*
X5628*
D02*
D77*
X3238Y1203D02*
Y1221D01*
X3242Y1229*
X3246Y1234*
X3255Y1238*
X3264*
X3273Y1234*
X3277Y1229*
X3281Y1221*
Y1203*
X3277Y1194*
X3273Y1190*
X3264Y1186*
X3255*
X3246Y1190*
X3242Y1194*
X3238Y1203*
X3308Y1221D02*
Y1173D01*
Y1199D02*
X3312Y1190D01*
X3321Y1186*
X3329*
X3338Y1190*
X3343Y1199*
Y1208*
X3338Y1216*
X3329Y1221*
X3321*
X3312Y1216*
X3308Y1208*
Y1199*
X3413Y1190D02*
X3408Y1186D01*
X3399*
X3391*
X3382Y1190*
X3378Y1199*
Y1212*
X3382Y1216*
X3391Y1221*
X3399*
X3408Y1216*
X3413Y1212*
Y1208*
X3408Y1203*
X3399Y1199*
X3391*
X3382Y1203*
X3378Y1208*
X3447Y1186D02*
Y1221D01*
Y1208D02*
X3452Y1216D01*
X3461Y1221*
X3469*
X3478Y1216*
X3483Y1208*
Y1186*
X3526Y1221D02*
X3544D01*
X3535Y1229D02*
Y1190D01*
X3539Y1186*
X3544*
X3548Y1190*
X3623D02*
X3618Y1186D01*
X3609*
X3601*
X3592Y1190*
X3588Y1199*
Y1212*
X3592Y1216*
X3601Y1221*
X3609*
X3618Y1216*
X3623Y1212*
Y1208*
X3618Y1203*
X3609Y1199*
X3601*
X3592Y1203*
X3588Y1208*
X3658Y1186D02*
Y1238D01*
Y1203D02*
X3671D01*
X3693Y1221*
X3671Y1203D02*
X3693Y1186D01*
X3728D02*
Y1238D01*
Y1208D02*
X3732Y1216D01*
X3741Y1221*
X3749*
X3758Y1216*
X3763Y1208*
Y1186*
X3798D02*
Y1221D01*
Y1208D02*
X3802Y1216D01*
X3811Y1221*
X3819*
X3828Y1216*
X3833Y1208*
Y1186*
X3885D02*
Y1221D01*
Y1234D02*
X3938Y1216*
X3946Y1221D01*
X3959*
X3968Y1216*
X3973Y1208*
Y1194*
X3968Y1190*
X3959Y1186*
X3951*
X3942Y1190*
X3938Y1194*
Y1199*
X3942Y1203*
X3951Y1208*
X3959*
X3968Y1203*
X3973Y1199*
Y1194D02*
Y1186D01*
X3259Y1018D02*
Y1070D01*
X3238D02*
X3281D01*
X3325Y1018D02*
Y1053D01*
Y1066D02*
X3378Y1031*
X3382Y1022D01*
X3391Y1018*
X3399*
X3408Y1022*
X3413Y1031*
Y1040*
X3408Y1048*
X3399Y1053*
X3391*
X3382Y1048*
X3378Y1040*
Y1031*
X3518Y1035D02*
X3553D01*
X3658Y1018D02*
Y1070D01*
X3701*
X3693Y1044D02*
X3658D01*
X3728Y1031D02*
X3732Y1022D01*
X3741Y1018*
X3758*
X3767Y1022*
X3771Y1031*
X3767Y1040*
X3758Y1044*
X3741*
X3732Y1048*
X3728Y1057*
X3732Y1066*
X3741Y1070*
X3758*
X3767Y1066*
X3771Y1057*
X3798Y1018D02*
Y1070D01*
Y1044D02*
X3811D01*
X3841Y1070*
X3811Y1044D02*
X3841Y1018D01*
X3868Y1035D02*
X3903D01*
X3981Y1026D02*
X3977Y1022D01*
X3968Y1018*
X3955*
X3946Y1022*
X3942Y1026*
X3938Y1035*
Y1053*
X3942Y1061*
X3946Y1066*
X3955Y1070*
X3968*
X3977Y1066*
X3981Y1061*
X4008Y1035D02*
Y1053D01*
X4012Y1061*
X4016Y1066*
X4025Y1070*
X4034*
X4043Y1066*
X4047Y1061*
X4051Y1053*
Y1035*
X4047Y1026*
X4043Y1022*
X4034Y1018*
X4025*
X4016Y1022*
X4012Y1026*
X4008Y1035*
X4078Y1018D02*
Y1070D01*
X4099Y1044*
X4121Y1070*
Y1018*
X4248Y1044D02*
X4257Y1040D01*
X4261Y1031*
X4257Y1022*
X4248Y1018*
X4218*
Y1070*
X4248*
X4257Y1066*
X4261Y1057*
X4257Y1048*
X4248Y1044*
X4218*
X4288Y1031D02*
X4292Y1022D01*
X4301Y1018*
X4309*
X4318Y1022*
X4322Y1031*
Y1040*
X4318Y1048*
X4309Y1053*
X4301*
X4292Y1048*
X4288Y1040*
Y1031*
X4358Y1048D02*
X4366Y1053D01*
X4379*
X4388Y1048*
X4393Y1040*
Y1026*
X4388Y1022*
X4379Y1018*
X4371*
X4362Y1022*
X4358Y1026*
Y1031*
X4362Y1035*
X4371Y1040*
X4379*
X4388Y1035*
X4393Y1031*
Y1026D02*
Y1018D01*
X4428D02*
Y1053D01*
Y1040D02*
X4432Y1048D01*
X4441Y1053*
X4449*
X4458Y1048*
X4532Y1040D02*
X4528Y1048D01*
X4519Y1053*
X4511*
X4502Y1048*
X4497Y1040*
Y1031*
X4502Y1022*
X4511Y1018*
X4519*
X4528Y1022*
X4532Y1031*
Y1018D02*
Y1070D01*
X4638D02*
X4659Y1018D01*
X4681Y1070*
X4716Y1018D02*
X4734D01*
X4725D02*
Y1070D01*
X4716Y1061*
X4782Y1018D02*
X4786Y1022D01*
X4782Y1026*
X4778Y1022*
X4782Y1018*
X4856D02*
X4874D01*
X4865D02*
Y1070D01*
X4856Y1061*
X0Y0D02*
M02*
