%FSLAX23Y23*%
%MOIN*%
G04 EasyPC Gerber Version 17.0 Build 3379 *
%ADD154R,0.00723X0.05337*%
%ADD150R,0.01054X0.05778*%
%ADD153R,0.05337X0.00723*%
%ADD111R,0.01959X0.04912*%
%ADD115R,0.04912X0.01959*%
%ADD151R,0.12400X0.02900*%
%ADD117R,0.03337X0.03691*%
%ADD112R,0.03888X0.05896*%
%ADD156R,0.04124X0.11998*%
%ADD110R,0.04900X0.05400*%
%ADD152R,0.07274X0.21054*%
%ADD75R,0.04912X0.02904*%
%ADD155R,0.07668X0.04518*%
%ADD116R,0.05700X0.05700*%
%ADD114R,0.05400X0.04900*%
%ADD113R,0.11211X0.05896*%
X0Y0D02*
D02*
D75*
X5539Y795D03*
Y873D03*
Y952D03*
Y1031D03*
Y1110D03*
Y1188D03*
Y1267D03*
Y1346D03*
Y1425D03*
Y1503D03*
Y1582D03*
Y1661D03*
Y1740D03*
Y1818D03*
Y1897D03*
Y1976D03*
Y2054D03*
Y2133D03*
Y2212D03*
Y2291D03*
Y2369D03*
Y2448D03*
Y2527D03*
Y2606D03*
Y2684D03*
X5716Y795D03*
Y873D03*
Y952D03*
Y1031D03*
Y1110D03*
Y1188D03*
Y1267D03*
Y1346D03*
Y1425D03*
Y1503D03*
Y1582D03*
Y1661D03*
Y1740D03*
Y1818D03*
Y1897D03*
Y1976D03*
Y2054D03*
Y2133D03*
Y2212D03*
Y2291D03*
Y2369D03*
Y2448D03*
Y2527D03*
Y2606D03*
Y2684D03*
D02*
D110*
X293Y1608D03*
Y1698D03*
X378Y1608D03*
Y1698D03*
X585Y2441D03*
Y2531D03*
Y2615D03*
Y2705D03*
Y2787D03*
Y2877D03*
X588Y243D03*
Y333D03*
X608Y3137D03*
Y3227D03*
Y3343D03*
Y3433D03*
X667Y2441D03*
Y2531D03*
Y2615D03*
Y2705D03*
Y2788D03*
Y2878D03*
X678Y243D03*
Y333D03*
X688Y1313D03*
Y1403D03*
X718Y3433D03*
Y3523D03*
X757Y2959D03*
Y3049D03*
X768Y1548D03*
Y1638D03*
Y1718D03*
Y1808D03*
X790Y1948D03*
Y2038D03*
Y2118D03*
Y2208D03*
X803Y3433D03*
Y3523D03*
X840Y2959D03*
Y3049D03*
X902Y3134D03*
Y3224D03*
Y3308D03*
Y3398D03*
X922Y2959D03*
Y3049D03*
X968Y1283D03*
Y1373D03*
Y1458D03*
Y1548D03*
X1103Y243D03*
Y333D03*
X1140Y2441D03*
Y2531D03*
Y2613D03*
Y2703D03*
Y2787D03*
Y2877D03*
X1164Y3138D03*
Y3228D03*
Y3347D03*
Y3437D03*
X1192Y243D03*
Y333D03*
X1224Y2441D03*
Y2531D03*
Y2615D03*
Y2705D03*
Y2788D03*
Y2878D03*
X1269Y3433D03*
Y3523D03*
X1310Y2103D03*
Y2192D03*
X1313Y2962D03*
Y3052D03*
X1353Y3433D03*
Y3523D03*
X1390Y2103D03*
Y2192D03*
X1395Y2962D03*
Y3052D03*
X1457Y3138D03*
Y3228D03*
Y3312D03*
Y3402D03*
X1470Y2103D03*
Y2192D03*
X1477Y2962D03*
Y3052D03*
X1583Y246D03*
Y336D03*
X1677Y246D03*
Y336D03*
X1722Y2103D03*
Y2192D03*
X2103Y248D03*
Y338D03*
X2183Y3038D03*
Y3128D03*
X2192Y248D03*
Y338D03*
X2268Y3038D03*
Y3128D03*
X2458Y1238D03*
Y1328D03*
X2547Y1238D03*
Y1328D03*
X2883Y3243D03*
Y3333D03*
X2968Y3243D03*
Y3333D03*
X3593Y1413D03*
Y1503D03*
X3599Y3062D03*
Y3152D03*
X3673Y1413D03*
Y1503D03*
X3826Y3060D03*
Y3150D03*
X3943Y1703D03*
Y1793D03*
Y1878D03*
Y1968D03*
X4028Y1878D03*
Y1968D03*
X4380Y1411D03*
Y1501D03*
X4460Y1411D03*
Y1501D03*
X4735Y1701D03*
Y1791D03*
Y1876D03*
Y1966D03*
X4820Y1876D03*
Y1966D03*
X5023Y3058D03*
Y3148D03*
X5258Y3058D03*
Y3148D03*
X5283Y168D03*
Y258D03*
X5373Y168D03*
Y258D03*
X5378Y1708D03*
Y1798D03*
D02*
D111*
X681Y3136D03*
Y3345D03*
X731Y3136D03*
Y3345D03*
X781Y3136D03*
Y3345D03*
X831Y3136D03*
Y3345D03*
X1238Y3138D03*
Y3347D03*
X1288Y3138D03*
Y3347D03*
X1338Y3138D03*
Y3347D03*
X1388Y3138D03*
Y3347D03*
D02*
D112*
X803Y333D03*
X893D03*
X984D03*
X1802Y337D03*
X1892D03*
X1983D03*
D02*
D113*
X893Y583D03*
X1892Y587D03*
D02*
D114*
X338Y988D03*
Y1073D03*
X428Y988D03*
Y1073D03*
X585Y3049D03*
X588Y1823D03*
X675Y3049D03*
X678Y1823D03*
X750Y2440D03*
Y2590D03*
Y2736D03*
Y2878D03*
X840Y2440D03*
Y2590D03*
Y2736D03*
Y2878D03*
X848Y1763D03*
Y1843D03*
X877Y1942D03*
Y2023D03*
X928Y2103D03*
X938Y1763D03*
Y1843D03*
X968Y1942D03*
Y2023D03*
X1018Y2103D03*
X1140D03*
X1140Y3052D03*
X1230Y2103D03*
X1230Y3052D03*
X1258Y1218D03*
X1307Y2440D03*
Y2589D03*
Y2737D03*
Y2879D03*
X1348Y1218D03*
X1397Y2440D03*
Y2589D03*
Y2737D03*
Y2879D03*
X1550Y2103D03*
X1640D03*
X1798Y1463D03*
Y1653D03*
Y1803D03*
X1808Y3523D03*
X1888Y1463D03*
Y1653D03*
Y1803D03*
X1898Y3523D03*
X2258D03*
X2348D03*
X2478Y3128D03*
X2568D03*
X2658D03*
X2708Y3525D03*
X2748Y3128D03*
X2798Y3525D03*
X3408Y2138D03*
Y2217D03*
Y2317D03*
Y2418D03*
Y2503D03*
Y2583D03*
X3498Y2138D03*
Y2217D03*
Y2317D03*
Y2418D03*
Y2503D03*
Y2583D03*
X4205Y2141D03*
Y2221D03*
Y2321D03*
Y2426D03*
Y2506D03*
Y2586D03*
X4295Y2141D03*
Y2221D03*
Y2321D03*
Y2426D03*
Y2506D03*
Y2586D03*
D02*
D115*
X468Y1603D03*
Y1653D03*
Y1703D03*
Y1753D03*
X677Y1603D03*
Y1653D03*
Y1703D03*
Y1753D03*
D02*
D116*
X5363Y621D03*
Y755D03*
D02*
D117*
X96Y3519D03*
Y3589D03*
X97Y3658D03*
Y3728D03*
X206Y3520D03*
Y3590D03*
X207Y3658D03*
Y3728D03*
X312Y3658D03*
Y3728D03*
X313Y3518D03*
Y3588D03*
X413Y3518D03*
Y3588D03*
X413Y3658D03*
Y3728D03*
X516Y3658D03*
Y3728D03*
X518Y3518D03*
Y3588D03*
D02*
D150*
X3594Y1620D03*
Y1889D03*
X3619Y1620D03*
Y1889D03*
X3623Y2143D03*
Y2412D03*
X3645Y1620D03*
Y1889D03*
X3648Y2143D03*
Y2412D03*
X3671Y1620D03*
Y1889D03*
X3674Y2143D03*
Y2412D03*
X3696Y1620D03*
Y1889D03*
X3699Y2143D03*
Y2412D03*
X3722Y1620D03*
Y1889D03*
X3725Y2143D03*
Y2412D03*
X3747Y1620D03*
Y1889D03*
X3750Y2143D03*
Y2412D03*
X3773Y1620D03*
Y1889D03*
X3776Y2143D03*
Y2412D03*
X3798Y1620D03*
Y1889D03*
X3802Y2143D03*
Y2412D03*
X3824Y1620D03*
Y1889D03*
X3827Y2143D03*
Y2412D03*
X3850Y1620D03*
Y1889D03*
X3853Y2143D03*
Y2412D03*
X3875Y1620D03*
Y1889D03*
X4385Y1618D03*
Y1888D03*
X4410Y2136D03*
Y2405D03*
X4411Y1618D03*
Y1888D03*
X4436Y2136D03*
Y2405D03*
X4436Y1618D03*
Y1888D03*
X4461Y2136D03*
Y2405D03*
X4462Y1618D03*
Y1888D03*
X4487Y2136D03*
Y2405D03*
X4488Y1618D03*
Y1888D03*
X4513Y2136D03*
Y2405D03*
X4513Y1618D03*
Y1888D03*
X4538Y2136D03*
Y2405D03*
X4539Y1618D03*
Y1888D03*
X4564Y2136D03*
Y2405D03*
X4564Y1618D03*
Y1888D03*
X4589Y2136D03*
Y2405D03*
X4590Y1618D03*
Y1888D03*
X4615Y2136D03*
Y2405D03*
X4615Y1618D03*
Y1888D03*
X4640Y2136D03*
Y2405D03*
X4641Y1618D03*
Y1888D03*
X4667Y1618D03*
Y1888D03*
D02*
D151*
X3598Y2758D03*
Y2983D03*
X3828Y2758D03*
Y2983D03*
X5023Y2757D03*
Y2982D03*
X5258Y2758D03*
Y2983D03*
D02*
D152*
X3438Y1568D03*
Y1942D03*
X4230Y1566D03*
Y1940D03*
D02*
D153*
X1057Y1382D03*
Y1408D03*
Y1434D03*
Y1459D03*
Y1485D03*
Y1510D03*
Y1536D03*
Y1562D03*
Y1587D03*
Y1613D03*
Y1638D03*
Y1664D03*
Y1690D03*
Y1715D03*
Y1741D03*
Y1766D03*
Y1792D03*
Y1818D03*
Y1843D03*
Y1869D03*
X1698Y1382D03*
Y1408D03*
Y1434D03*
Y1459D03*
Y1485D03*
Y1510D03*
Y1536D03*
Y1562D03*
Y1587D03*
Y1613D03*
Y1638D03*
Y1664D03*
Y1690D03*
Y1715D03*
Y1741D03*
Y1766D03*
Y1792D03*
Y1818D03*
Y1843D03*
Y1869D03*
D02*
D154*
X1134Y1305D03*
Y1946D03*
X1160Y1305D03*
Y1946D03*
X1186Y1305D03*
Y1946D03*
X1211Y1305D03*
Y1946D03*
X1237Y1305D03*
Y1946D03*
X1262Y1305D03*
Y1946D03*
X1288Y1305D03*
Y1946D03*
X1313Y1305D03*
Y1946D03*
X1339Y1305D03*
Y1946D03*
X1365Y1305D03*
Y1946D03*
X1390Y1305D03*
Y1946D03*
X1416Y1305D03*
Y1946D03*
X1441Y1305D03*
Y1946D03*
X1467Y1305D03*
Y1946D03*
X1493Y1305D03*
Y1946D03*
X1518Y1305D03*
Y1946D03*
X1544Y1305D03*
Y1946D03*
X1569Y1305D03*
Y1946D03*
X1595Y1305D03*
Y1946D03*
X1621Y1305D03*
Y1946D03*
D02*
D155*
X291Y1248D03*
Y1448D03*
X473Y1248D03*
Y1448D03*
D02*
D156*
X2368Y1438D03*
Y2926D03*
X2568D03*
X2768Y1438D03*
Y2926D03*
X2968Y1438D03*
Y2926D03*
X0Y0D02*
M02*
