%FSLAX23Y23*%
%MOIN*%
G04 EasyPC Gerber Version 17.0 Build 3379 *
%ADD14R,0.06000X0.06000*%
%ADD10C,0.00500*%
%ADD11C,0.01000*%
%ADD70C,0.03200*%
%ADD19C,0.05600*%
%ADD13C,0.06000*%
%ADD17C,0.07000*%
%ADD15C,0.09000*%
%ADD16C,0.11000*%
%ADD18C,0.17500*%
%ADD12C,0.27500*%
X0Y0D02*
D02*
D10*
X3063Y58D02*
Y153D01*
X3498*
Y58*
X5848*
Y3898*
X2960*
G75*
G02X2903Y3795I-58J-35*
G01*
G75*
G02X2845Y3898J68*
G01*
X2760*
G75*
G02X2703Y3795I-58J-35*
G01*
G75*
G02X2645Y3898J68*
G01*
X2510*
G75*
G02X2453Y3795I-58J-35*
G01*
G75*
G02X2395Y3898J68*
G01*
X2310*
G75*
G02X2253Y3795I-58J-35*
G01*
G75*
G02X2195Y3898J68*
G01*
X2060*
G75*
G02X2003Y3795I-58J-35*
G01*
G75*
G02X1945Y3898J68*
G01*
X1860*
G75*
G02X1803Y3795I-58J-35*
G01*
G75*
G02X1745Y3898J68*
G01*
X1510*
G75*
G02X1453Y3795I-58J-35*
G01*
G75*
G02X1395Y3898J68*
G01*
X1310*
G75*
G02X1252Y3795I-58J-35*
G01*
G75*
G02X1195Y3898J68*
G01*
X960*
G75*
G02X903Y3795I-58J-35*
G01*
G75*
G02X845Y3898J68*
G01*
X760*
G75*
G02X703Y3795I-58J-35*
G01*
G75*
G02X645Y3898J68*
G01*
X58*
Y58*
X3063*
X70Y3468D02*
G75*
G02X125I28D01*
G01*
G75*
G02X70I-28*
G01*
X129Y278D02*
G75*
G02X427I149D01*
G01*
G75*
G02X129I-149*
G01*
Y3203D02*
G75*
G02X427I149D01*
G01*
G75*
G02X129I-149*
G01*
X229Y3728D02*
G75*
G02X286I29D01*
G01*
G75*
G02X229I-29*
G01*
X310Y928D02*
G75*
G02X365I28D01*
G01*
G75*
G02X310I-28*
G01*
X399D02*
G75*
G02X456I29D01*
G01*
G75*
G02X399I-29*
G01*
X465Y1888D02*
G75*
G02X520I28D01*
G01*
G75*
G02X465I-28*
G01*
Y2192D02*
G75*
G02X520I28D01*
G01*
G75*
G02X465I-28*
G01*
X495Y3453D02*
G75*
G02X550I28D01*
G01*
G75*
G02X495I-28*
G01*
X499Y1823D02*
G75*
G02X556I29D01*
G01*
G75*
G02X499I-29*
G01*
X519Y1448D02*
G75*
G02X576I29D01*
G01*
G75*
G02X519I-29*
G01*
X558Y1983D02*
G75*
G02X637I40D01*
G01*
G75*
G02X558I-40*
G01*
X569Y3283D02*
G75*
G02X626I29D01*
G01*
G75*
G02X569I-29*
G01*
X580Y3498D02*
G75*
G02X635I28D01*
G01*
G75*
G02X580I-28*
G01*
X660Y1883D02*
G75*
G02X715I28D01*
G01*
G75*
G02X660I-28*
G01*
X664Y1558D02*
G75*
G02X721I29D01*
G01*
G75*
G02X664I-29*
G01*
Y2963D02*
G75*
G02X721I29D01*
G01*
G75*
G02X664I-29*
G01*
X703Y3595D02*
G75*
G02Y3730J68D01*
G01*
G75*
G02Y3595J-68*
G01*
X720Y2283D02*
G75*
G02X775I28D01*
G01*
G75*
G02X720I-28*
G01*
X727Y248D02*
G75*
G02X808I41D01*
G01*
G75*
G02X727I-41*
G01*
X759Y1868D02*
G75*
G02X816I29D01*
G01*
G75*
G02X759I-29*
G01*
X780Y583D02*
G75*
G02X835I28D01*
G01*
G75*
G02X780I-28*
G01*
X803Y3706D02*
G75*
G02Y3819J57D01*
G01*
G75*
G02Y3706J-57*
G01*
X831Y2083D02*
G75*
G02X889I29D01*
G01*
G75*
G02X831I-29*
G01*
X858Y2208D02*
G75*
G02X913I28D01*
G01*
G75*
G02X858I-28*
G01*
X865Y643D02*
G75*
G02X920I28D01*
G01*
G75*
G02X865I-28*
G01*
X869Y2438D02*
G75*
G02X926I29D01*
G01*
G75*
G02X869I-29*
G01*
Y2588D02*
G75*
G02X926I29D01*
G01*
G75*
G02X869I-29*
G01*
Y2733D02*
G75*
G02X926I29D01*
G01*
G75*
G02X869I-29*
G01*
X874Y2893D02*
G75*
G02X931I29D01*
G01*
G75*
G02X874I-29*
G01*
X880Y1373D02*
G75*
G02X935I28D01*
G01*
G75*
G02X880I-28*
G01*
Y1548D02*
G75*
G02X935I28D01*
G01*
G75*
G02X880I-28*
G01*
X903Y3595D02*
G75*
G02Y3730J68D01*
G01*
G75*
G02Y3595J-68*
G01*
X934Y3133D02*
G75*
G02X991I29D01*
G01*
G75*
G02X934I-29*
G01*
X939Y1223D02*
G75*
G02X996I29D01*
G01*
G75*
G02X939I-29*
G01*
X950Y583D02*
G75*
G02X1005I28D01*
G01*
G75*
G02X950I-28*
G01*
X955Y3048D02*
G75*
G02X1010I28D01*
G01*
G75*
G02X955I-28*
G01*
X970Y1763D02*
G75*
G02X1025I28D01*
G01*
G75*
G02X970I-28*
G01*
Y1843D02*
G75*
G02X1025I28D01*
G01*
G75*
G02X970I-28*
G01*
X987Y243D02*
G75*
G02X1068I41D01*
G01*
G75*
G02X987I-41*
G01*
X1030Y1942D02*
G75*
G02X1085I28D01*
G01*
G75*
G02X1030I-28*
G01*
X1109Y2168D02*
G75*
G02X1166I29D01*
G01*
G75*
G02X1109I-29*
G01*
X1134Y3288D02*
G75*
G02X1191I29D01*
G01*
G75*
G02X1134I-29*
G01*
X1135Y3498D02*
G75*
G02X1190I28D01*
G01*
G75*
G02X1135I-28*
G01*
X1177Y1460D02*
G75*
G02X1234I29D01*
G01*
G75*
G02X1177I-29*
G01*
Y1548D02*
G75*
G02X1234I29D01*
G01*
G75*
G02X1177I-29*
G01*
Y1635D02*
G75*
G02X1234I29D01*
G01*
G75*
G02X1177I-29*
G01*
Y1722D02*
G75*
G02X1234I29D01*
G01*
G75*
G02X1177I-29*
G01*
Y1810D02*
G75*
G02X1234I29D01*
G01*
G75*
G02X1177I-29*
G01*
X1219Y2963D02*
G75*
G02X1276I29D01*
G01*
G75*
G02X1219I-29*
G01*
X1233Y333D02*
G75*
G02X1312I40D01*
G01*
G75*
G02X1233I-40*
G01*
X1252Y3595D02*
G75*
G02Y3730J68D01*
G01*
G75*
G02Y3595J-68*
G01*
X1264Y1460D02*
G75*
G02X1321I29D01*
G01*
G75*
G02X1264I-29*
G01*
Y1548D02*
G75*
G02X1321I29D01*
G01*
G75*
G02X1264I-29*
G01*
Y1635D02*
G75*
G02X1321I29D01*
G01*
G75*
G02X1264I-29*
G01*
Y1722D02*
G75*
G02X1321I29D01*
G01*
G75*
G02X1264I-29*
G01*
Y1810D02*
G75*
G02X1321I29D01*
G01*
G75*
G02X1264I-29*
G01*
X1265Y1998D02*
G75*
G02X1320I28D01*
G01*
G75*
G02X1265I-28*
G01*
X1282Y2258D02*
G75*
G02X1339I29D01*
G01*
G75*
G02X1282I-29*
G01*
X1351Y1460D02*
G75*
G02X1409I29D01*
G01*
G75*
G02X1351I-29*
G01*
Y1548D02*
G75*
G02X1409I29D01*
G01*
G75*
G02X1351I-29*
G01*
Y1635D02*
G75*
G02X1409I29D01*
G01*
G75*
G02X1351I-29*
G01*
Y1722D02*
G75*
G02X1409I29D01*
G01*
G75*
G02X1351I-29*
G01*
Y1810D02*
G75*
G02X1409I29D01*
G01*
G75*
G02X1351I-29*
G01*
X1353Y3706D02*
G75*
G02Y3819J57D01*
G01*
G75*
G02Y3706J-57*
G01*
X1361Y2258D02*
G75*
G02X1419I29D01*
G01*
G75*
G02X1361I-29*
G01*
X1363Y2043D02*
G75*
G02X1418I28D01*
G01*
G75*
G02X1363I-28*
G01*
X1380Y1218D02*
G75*
G02X1435I28D01*
G01*
G75*
G02X1380I-28*
G01*
X1429Y2438D02*
G75*
G02X1486I29D01*
G01*
G75*
G02X1429I-29*
G01*
Y2588D02*
G75*
G02X1486I29D01*
G01*
G75*
G02X1429I-29*
G01*
Y2733D02*
G75*
G02X1486I29D01*
G01*
G75*
G02X1429I-29*
G01*
X1434Y2898D02*
G75*
G02X1491I29D01*
G01*
G75*
G02X1434I-29*
G01*
X1439Y1460D02*
G75*
G02X1496I29D01*
G01*
G75*
G02X1439I-29*
G01*
Y1548D02*
G75*
G02X1496I29D01*
G01*
G75*
G02X1439I-29*
G01*
Y1635D02*
G75*
G02X1496I29D01*
G01*
G75*
G02X1439I-29*
G01*
Y1722D02*
G75*
G02X1496I29D01*
G01*
G75*
G02X1439I-29*
G01*
Y1810D02*
G75*
G02X1496I29D01*
G01*
G75*
G02X1439I-29*
G01*
X1441Y2258D02*
G75*
G02X1499I29D01*
G01*
G75*
G02X1441I-29*
G01*
X1453Y3595D02*
G75*
G02Y3730J68D01*
G01*
G75*
G02Y3595J-68*
G01*
X1489Y3138D02*
G75*
G02X1546I29D01*
G01*
G75*
G02X1489I-29*
G01*
X1510Y3048D02*
G75*
G02X1565I28D01*
G01*
G75*
G02X1510I-28*
G01*
X1524Y1548D02*
G75*
G02X1581I29D01*
G01*
G75*
G02X1524I-29*
G01*
X1527Y1460D02*
G75*
G02X1584I29D01*
G01*
G75*
G02X1527I-29*
G01*
Y1635D02*
G75*
G02X1584I29D01*
G01*
G75*
G02X1527I-29*
G01*
Y1722D02*
G75*
G02X1584I29D01*
G01*
G75*
G02X1527I-29*
G01*
Y1810D02*
G75*
G02X1584I29D01*
G01*
G75*
G02X1527I-29*
G01*
X1611Y2168D02*
G75*
G02X1669I29D01*
G01*
G75*
G02X1611I-29*
G01*
X1727Y248D02*
G75*
G02X1808I41D01*
G01*
G75*
G02X1727I-41*
G01*
X1755Y2103D02*
G75*
G02X1810I28D01*
G01*
G75*
G02X1755I-28*
G01*
X1770Y1523D02*
G75*
G02X1825I28D01*
G01*
G75*
G02X1770I-28*
G01*
Y1713D02*
G75*
G02X1825I28D01*
G01*
G75*
G02X1770I-28*
G01*
Y1863D02*
G75*
G02X1825I28D01*
G01*
G75*
G02X1770I-28*
G01*
X1775Y588D02*
G75*
G02X1830I28D01*
G01*
G75*
G02X1775I-28*
G01*
X1803Y3595D02*
G75*
G02Y3730J68D01*
G01*
G75*
G02Y3595J-68*
G01*
X1859Y1523D02*
G75*
G02X1916I29D01*
G01*
G75*
G02X1859I-29*
G01*
X1865Y648D02*
G75*
G02X1920I28D01*
G01*
G75*
G02X1865I-28*
G01*
X1903Y3706D02*
G75*
G02Y3819J57D01*
G01*
G75*
G02Y3706J-57*
G01*
X1919Y1653D02*
G75*
G02X1976I29D01*
G01*
G75*
G02X1919I-29*
G01*
Y1803D02*
G75*
G02X1976I29D01*
G01*
G75*
G02X1919I-29*
G01*
X1950Y588D02*
G75*
G02X2005I28D01*
G01*
G75*
G02X1950I-28*
G01*
X1977Y248D02*
G75*
G02X2058I41D01*
G01*
G75*
G02X1977I-41*
G01*
X2003Y3595D02*
G75*
G02Y3730J68D01*
G01*
G75*
G02Y3595J-68*
G01*
X2103Y3088D02*
G75*
G02Y3167J40D01*
G01*
G75*
G02Y3088J-40*
G01*
X2223Y2917D02*
G75*
G02Y2998J41D01*
G01*
G75*
G02Y2917J-41*
G01*
X2233Y338D02*
G75*
G02X2312I40D01*
G01*
G75*
G02X2233I-40*
G01*
X2253Y3595D02*
G75*
G02Y3730J68D01*
G01*
G75*
G02Y3595J-68*
G01*
X2342Y1238D02*
G75*
G02X2423I41D01*
G01*
G75*
G02X2342I-41*
G01*
X2353Y3706D02*
G75*
G02Y3819J57D01*
G01*
G75*
G02Y3706J-57*
G01*
X2453Y3595D02*
G75*
G02Y3730J68D01*
G01*
G75*
G02Y3595J-68*
G01*
X2603Y1328D02*
G75*
G02X2682I40D01*
G01*
G75*
G02X2603I-40*
G01*
X2703Y3595D02*
G75*
G02Y3730J68D01*
G01*
G75*
G02Y3595J-68*
G01*
X2768Y1373D02*
G75*
G02Y1292J-41D01*
G01*
G75*
G02Y1373J41*
G01*
Y3073D02*
G75*
G02Y2992J-41D01*
G01*
G75*
G02Y3073J41*
G01*
X2803Y3203D02*
G75*
G02Y3282J40D01*
G01*
G75*
G02Y3203J-40*
G01*
Y3706D02*
G75*
G02Y3819J57D01*
G01*
G75*
G02Y3706J-57*
G01*
X2831Y258D02*
G75*
G02X2914I42D01*
G01*
G75*
G02X2831I-42*
G01*
Y858D02*
G75*
G02X2914I42D01*
G01*
G75*
G02X2831I-42*
G01*
X2903Y3595D02*
G75*
G02Y3730J68D01*
G01*
G75*
G02Y3595J-68*
G01*
X2928Y3372D02*
G75*
G02Y3453J41D01*
G01*
G75*
G02Y3372J-41*
G01*
X2931Y258D02*
G75*
G02X3014I42D01*
G01*
G75*
G02X2931I-42*
G01*
Y858D02*
G75*
G02X3014I42D01*
G01*
G75*
G02X2931I-42*
G01*
X2968Y1373D02*
G75*
G02Y1292J-41D01*
G01*
G75*
G02Y1373J41*
G01*
X3031Y258D02*
G75*
G02X3114I42D01*
G01*
G75*
G02X3031I-42*
G01*
Y858D02*
G75*
G02X3114I42D01*
G01*
G75*
G02X3031I-42*
G01*
X3131Y258D02*
G75*
G02X3214I42D01*
G01*
G75*
G02X3131I-42*
G01*
Y858D02*
G75*
G02X3214I42D01*
G01*
G75*
G02X3131I-42*
G01*
X3179Y3581D02*
G75*
G02X3379I100D01*
G01*
G75*
G02X3179I-100*
G01*
X3231Y258D02*
G75*
G02X3314I42D01*
G01*
G75*
G02X3231I-42*
G01*
Y858D02*
G75*
G02X3314I42D01*
G01*
G75*
G02X3231I-42*
G01*
X3314Y2178D02*
G75*
G02X3371I29D01*
G01*
G75*
G02X3314I-29*
G01*
Y2543D02*
G75*
G02X3371I29D01*
G01*
G75*
G02X3314I-29*
G01*
X3331Y258D02*
G75*
G02X3414I42D01*
G01*
G75*
G02X3331I-42*
G01*
Y858D02*
G75*
G02X3414I42D01*
G01*
G75*
G02X3331I-42*
G01*
X3410Y1423D02*
G75*
G02X3465I28D01*
G01*
G75*
G02X3410I-28*
G01*
X3431Y258D02*
G75*
G02X3514I42D01*
G01*
G75*
G02X3431I-42*
G01*
Y858D02*
G75*
G02X3514I42D01*
G01*
G75*
G02X3431I-42*
G01*
X3499Y1413D02*
G75*
G02X3556I29D01*
G01*
G75*
G02X3499I-29*
G01*
X3507Y3531D02*
G75*
G02X3602I48D01*
G01*
G75*
G02X3507I-48*
G01*
X3530Y2217D02*
G75*
G02X3585I28D01*
G01*
G75*
G02X3530I-28*
G01*
X3531Y258D02*
G75*
G02X3614I42D01*
G01*
G75*
G02X3531I-42*
G01*
Y858D02*
G75*
G02X3614I42D01*
G01*
G75*
G02X3531I-42*
G01*
X3562Y3631D02*
G75*
G02X3655I46D01*
G01*
G75*
G02X3562I-46*
G01*
X3565Y1558D02*
G75*
G02X3620I28D01*
G01*
G75*
G02X3565I-28*
G01*
X3570Y2698D02*
G75*
G02X3625I28D01*
G01*
G75*
G02X3570I-28*
G01*
X3594Y1683D02*
G75*
G02X3651I29D01*
G01*
G75*
G02X3594I-29*
G01*
X3616Y3531D02*
G75*
G02X3709I46D01*
G01*
G75*
G02X3616I-46*
G01*
X3631Y258D02*
G75*
G02X3714I42D01*
G01*
G75*
G02X3631I-42*
G01*
Y858D02*
G75*
G02X3714I42D01*
G01*
G75*
G02X3631I-42*
G01*
X3640Y3218D02*
X3557D01*
Y3301*
X3640*
Y3218*
Y3318D02*
X3557D01*
Y3401*
X3640*
Y3318*
X3642Y2285D02*
G75*
G02X3630Y2308I16J23D01*
G01*
G75*
G02X3685I28*
G01*
G75*
G02X3673Y2285I-28*
G01*
G75*
G02X3684Y2255I-16J-23*
G01*
G75*
G02X3721Y2228I9J-27*
G01*
G75*
G02X3664I-29*
G01*
G75*
G02X3665Y2236I29J0*
G01*
G75*
G02X3642Y2285I-8J26*
G01*
X3660Y1797D02*
G75*
G02X3610Y1813I-23J16D01*
G01*
G75*
G02X3660Y1828I28*
G01*
G75*
G02X3708Y1824I23J-16*
G01*
G75*
G02X3760Y1813I25J-11*
G01*
G75*
G02X3708Y1801I-28*
G01*
G75*
G02X3660Y1797I-25J11*
G01*
X3670Y3631D02*
G75*
G02X3763I46D01*
G01*
G75*
G02X3670I-46*
G01*
X3724Y3531D02*
G75*
G02X3817I46D01*
G01*
G75*
G02X3724I-46*
G01*
X3731Y258D02*
G75*
G02X3814I42D01*
G01*
G75*
G02X3731I-42*
G01*
Y858D02*
G75*
G02X3814I42D01*
G01*
G75*
G02X3731I-42*
G01*
X3750Y2327D02*
G75*
G02X3700Y2342I-23J16D01*
G01*
G75*
G02X3750Y2358I28*
G01*
G75*
G02X3800Y2342I23J-16*
G01*
G75*
G02X3750Y2327I-28*
G01*
X3765Y2217D02*
G75*
G02X3820I28D01*
G01*
G75*
G02X3765I-28*
G01*
X3778Y3631D02*
G75*
G02X3871I46D01*
G01*
G75*
G02X3778I-46*
G01*
X3819Y1828D02*
G75*
G02X3876I29D01*
G01*
G75*
G02X3819I-29*
G01*
X3831Y258D02*
G75*
G02X3914I42D01*
G01*
G75*
G02X3831I-42*
G01*
Y858D02*
G75*
G02X3914I42D01*
G01*
G75*
G02X3831I-42*
G01*
X3832Y3531D02*
G75*
G02X3925I46D01*
G01*
G75*
G02X3832I-46*
G01*
X3869Y3216D02*
X3786D01*
Y3299*
X3869*
Y3216*
Y3316D02*
X3786D01*
Y3399*
X3869*
Y3316*
X3886Y3631D02*
G75*
G02X3979I46D01*
G01*
G75*
G02X3886I-46*
G01*
X3931Y258D02*
G75*
G02X4014I42D01*
G01*
G75*
G02X3931I-42*
G01*
Y858D02*
G75*
G02X4014I42D01*
G01*
G75*
G02X3931I-42*
G01*
X3940Y3531D02*
G75*
G02X4033I46D01*
G01*
G75*
G02X3940I-46*
G01*
X3979Y1813D02*
G75*
G02X4036I29D01*
G01*
G75*
G02X3979I-29*
G01*
X4000Y2033D02*
G75*
G02X4055I28D01*
G01*
G75*
G02X4000I-28*
G01*
X4031Y258D02*
G75*
G02X4114I42D01*
G01*
G75*
G02X4031I-42*
G01*
Y858D02*
G75*
G02X4114I42D01*
G01*
G75*
G02X4031I-42*
G01*
X4112Y2181D02*
G75*
G02X4169I29D01*
G01*
G75*
G02X4112I-29*
G01*
Y2546D02*
G75*
G02X4169I29D01*
G01*
G75*
G02X4112I-29*
G01*
X4131Y258D02*
G75*
G02X4214I42D01*
G01*
G75*
G02X4131I-42*
G01*
Y858D02*
G75*
G02X4214I42D01*
G01*
G75*
G02X4131I-42*
G01*
X4163Y3581D02*
G75*
G02X4363I100D01*
G01*
G75*
G02X4163I-100*
G01*
X4200Y1418D02*
G75*
G02X4255I28D01*
G01*
G75*
G02X4200I-28*
G01*
X4231Y258D02*
G75*
G02X4314I42D01*
G01*
G75*
G02X4231I-42*
G01*
Y858D02*
G75*
G02X4314I42D01*
G01*
G75*
G02X4231I-42*
G01*
X4292Y1411D02*
G75*
G02X4349I29D01*
G01*
G75*
G02X4292I-29*
G01*
X4328Y2221D02*
G75*
G02X4383I28D01*
G01*
G75*
G02X4328I-28*
G01*
X4331Y258D02*
G75*
G02X4414I42D01*
G01*
G75*
G02X4331I-42*
G01*
Y858D02*
G75*
G02X4414I42D01*
G01*
G75*
G02X4331I-42*
G01*
X4353Y1556D02*
G75*
G02X4408I28D01*
G01*
G75*
G02X4353I-28*
G01*
X4387Y1686D02*
G75*
G02X4444I29D01*
G01*
G75*
G02X4387I-29*
G01*
X4431Y258D02*
G75*
G02X4514I42D01*
G01*
G75*
G02X4431I-42*
G01*
Y858D02*
G75*
G02X4514I42D01*
G01*
G75*
G02X4431I-42*
G01*
X4437Y2241D02*
G75*
G02X4494I29D01*
G01*
G75*
G02X4437I-29*
G01*
X4455Y1804D02*
G75*
G02X4403Y1816I-25J11D01*
G01*
G75*
G02X4455Y1827I28*
G01*
G75*
G02X4503Y1831I25J-11*
G01*
G75*
G02X4553Y1816I23J-16*
G01*
G75*
G02X4503Y1800I-28*
G01*
G75*
G02X4455Y1804I-23J16*
G01*
X4523Y2320D02*
G75*
G02X4473Y2336I-23J16D01*
G01*
G75*
G02X4523Y2351I28*
G01*
G75*
G02X4573Y2336I23J-16*
G01*
G75*
G02X4523Y2320I-28*
G01*
X4531Y258D02*
G75*
G02X4614I42D01*
G01*
G75*
G02X4531I-42*
G01*
Y858D02*
G75*
G02X4614I42D01*
G01*
G75*
G02X4531I-42*
G01*
X4553Y2216D02*
G75*
G02X4608I28D01*
G01*
G75*
G02X4553I-28*
G01*
X4608Y2260D02*
G75*
G02X4558Y2276I-23J16D01*
G01*
G75*
G02X4608Y2291I28*
G01*
G75*
G02X4658Y2276I23J-16*
G01*
G75*
G02X4608Y2260I-28*
G01*
X4612Y1816D02*
G75*
G02X4669I29D01*
G01*
G75*
G02X4612I-29*
G01*
X4613Y3581D02*
G75*
G02X4813I100D01*
G01*
G75*
G02X4613I-100*
G01*
X4631Y258D02*
G75*
G02X4714I42D01*
G01*
G75*
G02X4631I-42*
G01*
Y858D02*
G75*
G02X4714I42D01*
G01*
G75*
G02X4631I-42*
G01*
X4731Y258D02*
G75*
G02X4814I42D01*
G01*
G75*
G02X4731I-42*
G01*
Y858D02*
G75*
G02X4814I42D01*
G01*
G75*
G02X4731I-42*
G01*
X4772Y1811D02*
G75*
G02X4829I29D01*
G01*
G75*
G02X4772I-29*
G01*
X4793Y2026D02*
G75*
G02X4848I28D01*
G01*
G75*
G02X4793I-28*
G01*
X4831Y258D02*
G75*
G02X4914I42D01*
G01*
G75*
G02X4831I-42*
G01*
Y858D02*
G75*
G02X4914I42D01*
G01*
G75*
G02X4831I-42*
G01*
X4931Y258D02*
G75*
G02X5014I42D01*
G01*
G75*
G02X4931I-42*
G01*
Y858D02*
G75*
G02X5014I42D01*
G01*
G75*
G02X4931I-42*
G01*
X4941Y3531D02*
G75*
G02X5036I48D01*
G01*
G75*
G02X4941I-48*
G01*
X4995Y2703D02*
G75*
G02X5050I28D01*
G01*
G75*
G02X4995I-28*
G01*
X4996Y3631D02*
G75*
G02X5089I46D01*
G01*
G75*
G02X4996I-46*
G01*
X5031Y258D02*
G75*
G02X5114I42D01*
G01*
G75*
G02X5031I-42*
G01*
Y858D02*
G75*
G02X5114I42D01*
G01*
G75*
G02X5031I-42*
G01*
X5050Y3531D02*
G75*
G02X5143I46D01*
G01*
G75*
G02X5050I-46*
G01*
X5063Y3216D02*
X4980D01*
Y3299*
X5063*
Y3216*
Y3316D02*
X4980D01*
Y3399*
X5063*
Y3316*
X5104Y3631D02*
G75*
G02X5197I46D01*
G01*
G75*
G02X5104I-46*
G01*
X5130Y858D02*
G75*
G02X5215I43D01*
G01*
G75*
G02X5130I-43*
G01*
X5131Y258D02*
G75*
G02X5214I42D01*
G01*
G75*
G02X5131I-42*
G01*
X5158Y3531D02*
G75*
G02X5251I46D01*
G01*
G75*
G02X5158I-46*
G01*
X5212Y3631D02*
G75*
G02X5305I46D01*
G01*
G75*
G02X5212I-46*
G01*
X5266Y3531D02*
G75*
G02X5359I46D01*
G01*
G75*
G02X5266I-46*
G01*
X5299Y3216D02*
X5216D01*
Y3299*
X5299*
Y3216*
Y3316D02*
X5216D01*
Y3399*
X5299*
Y3316*
X5320Y3631D02*
G75*
G02X5413I46D01*
G01*
G75*
G02X5320I-46*
G01*
X5363Y473D02*
G75*
G02Y552J40D01*
G01*
G75*
G02Y473J-40*
G01*
X5374Y3531D02*
G75*
G02X5467I46D01*
G01*
G75*
G02X5374I-46*
G01*
X5426Y1740D02*
G75*
G02X5481I28D01*
G01*
G75*
G02X5426I-28*
G01*
X5428Y953D02*
G75*
G02X5507I40D01*
G01*
G75*
G02X5428I-40*
G01*
X5432Y1033D02*
G75*
G02X5513I41D01*
G01*
G75*
G02X5432I-41*
G01*
Y2528D02*
G75*
G02X5513I41D01*
G01*
G75*
G02X5432I-41*
G01*
Y2683D02*
G75*
G02X5513I41D01*
G01*
G75*
G02X5432I-41*
G01*
X5438Y196D02*
G75*
G02Y139J-29D01*
G01*
G75*
G02Y196J29*
G01*
Y285D02*
G75*
G02Y230J-28D01*
G01*
G75*
G02Y285J28*
G01*
X5444Y1268D02*
G75*
G02X5501I29D01*
G01*
G75*
G02X5444I-29*
G01*
Y1423D02*
G75*
G02X5501I29D01*
G01*
G75*
G02X5444I-29*
G01*
X5458Y1816D02*
G75*
G02X5513I28D01*
G01*
G75*
G02X5458I-28*
G01*
X5463Y578D02*
G75*
G02Y657J40D01*
G01*
G75*
G02Y578J-40*
G01*
X5473Y832D02*
G75*
G02X5432Y873J41D01*
G01*
G75*
G02X5513I41*
G01*
G75*
G02X5473Y832I-41*
G01*
G75*
G02X5512Y793J-40*
G01*
G75*
G02X5433I-40*
G01*
G75*
G02X5473Y832I40*
G01*
X5479Y278D02*
G75*
G02X5777I149D01*
G01*
G75*
G02X5479I-149*
G01*
Y3203D02*
G75*
G02X5777I149D01*
G01*
G75*
G02X5479I-149*
G01*
X5563Y2369D02*
G75*
G02X5618I28D01*
G01*
G75*
G02X5563I-28*
G01*
X5564Y2213D02*
G75*
G02X5619I28D01*
G01*
G75*
G02X5564I-28*
G01*
Y2449D02*
G75*
G02X5619I28D01*
G01*
G75*
G02X5564I-28*
G01*
X5565Y1188D02*
G75*
G02X5620I28D01*
G01*
G75*
G02X5565I-28*
G01*
Y1345D02*
G75*
G02X5620I28D01*
G01*
G75*
G02X5565I-28*
G01*
Y1976D02*
G75*
G02X5620I28D01*
G01*
G75*
G02X5565I-28*
G01*
Y2054D02*
G75*
G02X5620I28D01*
G01*
G75*
G02X5565I-28*
G01*
Y2133D02*
G75*
G02X5620I28D01*
G01*
G75*
G02X5565I-28*
G01*
Y2291D02*
G75*
G02X5620I28D01*
G01*
G75*
G02X5565I-28*
G01*
Y2606D02*
G75*
G02X5620I28D01*
G01*
G75*
G02X5565I-28*
G01*
X5567Y1109D02*
G75*
G02X5622I28D01*
G01*
G75*
G02X5567I-28*
G01*
Y1897D02*
G75*
G02X5622I28D01*
G01*
G75*
G02X5567I-28*
G01*
X5568Y1503D02*
G75*
G02X5623I28D01*
G01*
G75*
G02X5568I-28*
G01*
X5597Y3581D02*
G75*
G02X5797I100D01*
G01*
G75*
G02X5597I-100*
G01*
X5600Y1582D02*
G75*
G02X5655I28D01*
G01*
G75*
G02X5600I-28*
G01*
X5602Y1661D02*
G75*
G02X5657I28D01*
G01*
G75*
G02X5602I-28*
G01*
X5635Y1110D02*
G75*
G02X5690I28D01*
G01*
G75*
G02X5635I-28*
G01*
Y1188D02*
G75*
G02X5690I28D01*
G01*
G75*
G02X5635I-28*
G01*
Y1425D02*
G75*
G02X5690I28D01*
G01*
G75*
G02X5635I-28*
G01*
Y1503D02*
G75*
G02X5690I28D01*
G01*
G75*
G02X5635I-28*
G01*
Y1897D02*
G75*
G02X5690I28D01*
G01*
G75*
G02X5635I-28*
G01*
Y1976D02*
G75*
G02X5690I28D01*
G01*
G75*
G02X5635I-28*
G01*
Y2054D02*
G75*
G02X5690I28D01*
G01*
G75*
G02X5635I-28*
G01*
Y2133D02*
G75*
G02X5690I28D01*
G01*
G75*
G02X5635I-28*
G01*
Y2212D02*
G75*
G02X5690I28D01*
G01*
G75*
G02X5635I-28*
G01*
Y2291D02*
G75*
G02X5690I28D01*
G01*
G75*
G02X5635I-28*
G01*
Y2369D02*
G75*
G02X5690I28D01*
G01*
G75*
G02X5635I-28*
G01*
Y2448D02*
G75*
G02X5690I28D01*
G01*
G75*
G02X5635I-28*
G01*
Y2606D02*
G75*
G02X5690I28D01*
G01*
G75*
G02X5635I-28*
G01*
X5742Y2528D02*
G75*
G02X5823I41D01*
G01*
G75*
G02X5742I-41*
G01*
Y2683D02*
G75*
G02X5823I41D01*
G01*
G75*
G02X5742I-41*
G01*
X5747Y1542D02*
G75*
G02X5802I28D01*
G01*
G75*
G02X5747I-28*
G01*
Y1621D02*
G75*
G02X5802I28D01*
G01*
G75*
G02X5747I-28*
G01*
Y1700D02*
G75*
G02X5802I28D01*
G01*
G75*
G02X5747I-28*
G01*
Y1780D02*
G75*
G02X5802I28D01*
G01*
G75*
G02X5747I-28*
G01*
X5776Y1308D02*
G75*
G02X5742Y1348I6J40D01*
G01*
G75*
G02X5823I41*
G01*
G75*
G02X5789Y1308I-41*
G01*
G75*
G02X5823Y1268I-6J-40*
G01*
G75*
G02X5742I-41*
G01*
G75*
G02X5776Y1308I41*
G01*
X5783Y832D02*
G75*
G02X5742Y873J41D01*
G01*
G75*
G02X5783Y913I41*
G01*
G75*
G02X5823Y873J-41*
G01*
G75*
G02X5783Y832I-41*
G01*
G75*
G02X5822Y793J-40*
G01*
G75*
G02X5743I-40*
G01*
G75*
G02X5783Y832I40*
G01*
Y913D02*
G75*
G02X5743Y953J40D01*
G01*
G75*
G02X5783Y992I40*
G01*
G75*
G02X5822Y953J-40*
G01*
G75*
G02X5783Y913I-40*
G01*
Y992D02*
G75*
G02X5742Y1033J41D01*
G01*
G75*
G02X5823I41*
G01*
G75*
G02X5783Y992I-41*
G01*
X58Y3468D02*
G36*
Y3413D01*
X2887*
G75*
G02X2928Y3453I41*
G01*
G75*
G02X2968Y3413J-41*
G01*
X5848*
Y3468*
X546*
G75*
G02X550Y3453I-23J-15*
G01*
G75*
G02X495I-28*
G01*
G75*
G02X499Y3468I28J0*
G01*
X125*
G75*
G02X70I-28*
G01*
X58*
G37*
X70D02*
G36*
G75*
G02X125I28D01*
G01*
X499*
G75*
G02X546I23J-15*
G01*
X5848*
Y3498*
X5752*
G75*
G02X5641I-56J83*
G01*
X5453*
G75*
G02X5388I-33J33*
G01*
X5345*
G75*
G02X5280I-33J33*
G01*
X5237*
G75*
G02X5172I-33J33*
G01*
X5129*
G75*
G02X5064I-33J33*
G01*
X5023*
G75*
G02X4954I-34J33*
G01*
X4768*
G75*
G02X4657I-56J83*
G01*
X4318*
G75*
G02X4207I-56J83*
G01*
X4019*
G75*
G02X3954I-33J33*
G01*
X3911*
G75*
G02X3846I-33J33*
G01*
X3803*
G75*
G02X3738I-33J33*
G01*
X3695*
G75*
G02X3630I-33J33*
G01*
X3589*
G75*
G02X3520I-34J33*
G01*
X3334*
G75*
G02X3223I-56J83*
G01*
X1190*
G75*
G02X1135I-28*
G01*
X635*
G75*
G02X580I-28*
G01*
X58*
Y3468*
X70*
G37*
X58Y278D02*
G36*
Y168D01*
X177*
G75*
G02X129Y278I101J110*
G01*
X58*
G37*
X129D02*
G36*
G75*
G02X139Y333I149J0D01*
G01*
X58*
Y278*
X129*
G37*
X427D02*
G36*
G75*
G02X378Y168I-149D01*
G01*
X5409*
G75*
G02X5438Y196I29*
G01*
G75*
G02X5466Y168J-29*
G01*
X5527*
G75*
G02X5479Y278I101J110*
G01*
X5456*
G75*
G02X5438Y230I-19J-20*
G01*
G75*
G02X5419Y278J28*
G01*
X5209*
G75*
G02X5214Y258I-36J-20*
G01*
G75*
G02X5131I-42*
G01*
G75*
G02X5136Y278I42*
G01*
X5109*
G75*
G02X5114Y258I-36J-20*
G01*
G75*
G02X5031I-42*
G01*
G75*
G02X5036Y278I42*
G01*
X5009*
G75*
G02X5014Y258I-36J-20*
G01*
G75*
G02X4931I-42*
G01*
G75*
G02X4936Y278I42*
G01*
X4909*
G75*
G02X4914Y258I-36J-20*
G01*
G75*
G02X4831I-42*
G01*
G75*
G02X4836Y278I42*
G01*
X4809*
G75*
G02X4814Y258I-36J-20*
G01*
G75*
G02X4731I-42*
G01*
G75*
G02X4736Y278I42*
G01*
X4709*
G75*
G02X4714Y258I-36J-20*
G01*
G75*
G02X4631I-42*
G01*
G75*
G02X4636Y278I42*
G01*
X4609*
G75*
G02X4614Y258I-36J-20*
G01*
G75*
G02X4531I-42*
G01*
G75*
G02X4536Y278I42*
G01*
X4509*
G75*
G02X4514Y258I-36J-20*
G01*
G75*
G02X4431I-42*
G01*
G75*
G02X4436Y278I42*
G01*
X4409*
G75*
G02X4414Y258I-36J-20*
G01*
G75*
G02X4331I-42*
G01*
G75*
G02X4336Y278I42*
G01*
X4309*
G75*
G02X4314Y258I-36J-20*
G01*
G75*
G02X4231I-42*
G01*
G75*
G02X4236Y278I42*
G01*
X4209*
G75*
G02X4214Y258I-36J-20*
G01*
G75*
G02X4131I-42*
G01*
G75*
G02X4136Y278I42*
G01*
X4109*
G75*
G02X4114Y258I-36J-20*
G01*
G75*
G02X4031I-42*
G01*
G75*
G02X4036Y278I42*
G01*
X4009*
G75*
G02X4014Y258I-36J-20*
G01*
G75*
G02X3931I-42*
G01*
G75*
G02X3936Y278I42*
G01*
X3909*
G75*
G02X3914Y258I-36J-20*
G01*
G75*
G02X3831I-42*
G01*
G75*
G02X3836Y278I42*
G01*
X3809*
G75*
G02X3814Y258I-36J-20*
G01*
G75*
G02X3731I-42*
G01*
G75*
G02X3736Y278I42*
G01*
X3709*
G75*
G02X3714Y258I-36J-20*
G01*
G75*
G02X3631I-42*
G01*
G75*
G02X3636Y278I42*
G01*
X3609*
G75*
G02X3614Y258I-36J-20*
G01*
G75*
G02X3531I-42*
G01*
G75*
G02X3536Y278I42*
G01*
X3509*
G75*
G02X3514Y258I-36J-20*
G01*
G75*
G02X3431I-42*
G01*
G75*
G02X3436Y278I42*
G01*
X3409*
G75*
G02X3414Y258I-36J-20*
G01*
G75*
G02X3331I-42*
G01*
G75*
G02X3336Y278I42*
G01*
X3309*
G75*
G02X3314Y258I-36J-20*
G01*
G75*
G02X3231I-42*
G01*
G75*
G02X3236Y278I42*
G01*
X3209*
G75*
G02X3214Y258I-36J-20*
G01*
G75*
G02X3131I-42*
G01*
G75*
G02X3136Y278I42*
G01*
X3109*
G75*
G02X3114Y258I-36J-20*
G01*
G75*
G02X3031I-42*
G01*
G75*
G02X3036Y278I42*
G01*
X3009*
G75*
G02X3014Y258I-36J-20*
G01*
G75*
G02X2931I-42*
G01*
G75*
G02X2936Y278I42*
G01*
X2909*
G75*
G02X2914Y258I-36J-20*
G01*
G75*
G02X2831I-42*
G01*
G75*
G02X2836Y278I42*
G01*
X2045*
G75*
G02X2058Y248I-27J-30*
G01*
G75*
G02X1977I-41*
G01*
G75*
G02X1990Y278I41*
G01*
X1795*
G75*
G02X1808Y248I-27J-30*
G01*
G75*
G02X1727I-41*
G01*
G75*
G02X1740Y278I41*
G01*
X1048*
G75*
G02X1068Y243I-20J-35*
G01*
G75*
G02X987I-41*
G01*
G75*
G02X1007Y278I41*
G01*
X795*
G75*
G02X808Y248I-27J-30*
G01*
G75*
G02X727I-41*
G01*
G75*
G02X740Y278I41*
G01*
X427*
G37*
X740D02*
G36*
G75*
G02X795I27J-30D01*
G01*
X1007*
G75*
G02X1048I20J-35*
G01*
X1740*
G75*
G02X1795I27J-30*
G01*
X1990*
G75*
G02X2045I27J-30*
G01*
X2836*
G75*
G02X2909I36J-20*
G01*
X2936*
G75*
G02X3009I36J-20*
G01*
X3036*
G75*
G02X3109I36J-20*
G01*
X3136*
G75*
G02X3209I36J-20*
G01*
X3236*
G75*
G02X3309I36J-20*
G01*
X3336*
G75*
G02X3409I36J-20*
G01*
X3436*
G75*
G02X3509I36J-20*
G01*
X3536*
G75*
G02X3609I36J-20*
G01*
X3636*
G75*
G02X3709I36J-20*
G01*
X3736*
G75*
G02X3809I36J-20*
G01*
X3836*
G75*
G02X3909I36J-20*
G01*
X3936*
G75*
G02X4009I36J-20*
G01*
X4036*
G75*
G02X4109I36J-20*
G01*
X4136*
G75*
G02X4209I36J-20*
G01*
X4236*
G75*
G02X4309I36J-20*
G01*
X4336*
G75*
G02X4409I36J-20*
G01*
X4436*
G75*
G02X4509I36J-20*
G01*
X4536*
G75*
G02X4609I36J-20*
G01*
X4636*
G75*
G02X4709I36J-20*
G01*
X4736*
G75*
G02X4809I36J-20*
G01*
X4836*
G75*
G02X4909I36J-20*
G01*
X4936*
G75*
G02X5009I36J-20*
G01*
X5036*
G75*
G02X5109I36J-20*
G01*
X5136*
G75*
G02X5209I36J-20*
G01*
X5419*
G75*
G02X5438Y285I19J-20*
G01*
G75*
G02X5456Y278J-28*
G01*
X5479*
G75*
G02X5489Y333I149J0*
G01*
X2312*
G75*
G02X2233I-39J5*
G01*
X1312*
G75*
G02X1233I-40*
G01*
X416*
G75*
G02X427Y278I-138J-55*
G01*
X740*
G37*
X5777D02*
G36*
G75*
G02X5728Y168I-149D01*
G01*
X5848*
Y278*
X5777*
G37*
X5848D02*
G36*
Y333D01*
X5766*
G75*
G02X5777Y278I-138J-55*
G01*
X5848*
G37*
X58Y3203D02*
G36*
Y3133D01*
X146*
G75*
G02X129Y3203I132J70*
G01*
X58*
G37*
X129D02*
G36*
G75*
G02X134Y3243I149J0D01*
G01*
X58*
Y3203*
X129*
G37*
X427D02*
G36*
G75*
G02X409Y3133I-149J0D01*
G01*
X934*
G75*
G02X991I29*
G01*
X1489*
G75*
G02X1489Y3138I28J5*
G01*
G75*
G02X1546I29*
G01*
G75*
G02X1546Y3133I-29J0*
G01*
X2063*
G75*
G02X2103Y3167I39J-5*
G01*
G75*
G02X2142Y3133J-40*
G01*
X5496*
G75*
G02X5479Y3203I132J70*
G01*
X427*
G37*
X5479D02*
G36*
G75*
G02X5484Y3243I149J0D01*
G01*
X5299*
Y3216*
X5216*
Y3243*
X5063*
Y3216*
X4980*
Y3243*
X3869*
Y3216*
X3786*
Y3243*
X3640*
Y3218*
X3557*
Y3243*
X2842*
G75*
G02X2803Y3203I-40*
G01*
G75*
G02X2763Y3243J40*
G01*
X421*
G75*
G02X427Y3203I-144J-40*
G01*
X5479*
G37*
X5777D02*
G36*
G75*
G02X5759Y3133I-149J0D01*
G01*
X5848*
Y3203*
X5777*
G37*
X5848D02*
G36*
Y3243D01*
X5771*
G75*
G02X5777Y3203I-144J-40*
G01*
X5848*
G37*
X58Y3728D02*
G36*
Y3631D01*
X643*
G75*
G02X684Y3728I59J32*
G01*
X286*
G75*
G02X229I-29*
G01*
X58*
G37*
X229D02*
G36*
G75*
G02X286I29D01*
G01*
X684*
G75*
G02X703Y3730I18J-65*
G01*
G75*
G02X721Y3728J-68*
G01*
X758*
G75*
G02X803Y3819I44J35*
G01*
G75*
G02X847Y3728J-57*
G01*
X884*
G75*
G02X903Y3730I18J-65*
G01*
G75*
G02X921Y3728J-68*
G01*
X1234*
G75*
G02X1252Y3730I18J-65*
G01*
G75*
G02X1271Y3728J-68*
G01*
X1308*
G75*
G02X1353Y3819I44J35*
G01*
G75*
G02X1397Y3728J-57*
G01*
X1434*
G75*
G02X1453Y3730I18J-65*
G01*
G75*
G02X1471Y3728J-68*
G01*
X1784*
G75*
G02X1803Y3730I18J-65*
G01*
G75*
G02X1821Y3728J-68*
G01*
X1858*
G75*
G02X1903Y3819I44J35*
G01*
G75*
G02X1947Y3728J-57*
G01*
X1984*
G75*
G02X2003Y3730I18J-65*
G01*
G75*
G02X2021Y3728J-68*
G01*
X2234*
G75*
G02X2253Y3730I18J-65*
G01*
G75*
G02X2271Y3728J-68*
G01*
X2308*
G75*
G02X2353Y3819I44J35*
G01*
G75*
G02X2397Y3728J-57*
G01*
X2434*
G75*
G02X2453Y3730I18J-65*
G01*
G75*
G02X2471Y3728J-68*
G01*
X2684*
G75*
G02X2703Y3730I18J-65*
G01*
G75*
G02X2721Y3728J-68*
G01*
X2758*
G75*
G02X2803Y3819I44J35*
G01*
G75*
G02X2847Y3728J-57*
G01*
X2884*
G75*
G02X2903Y3730I18J-65*
G01*
G75*
G02X2921Y3728J-68*
G01*
X5848*
Y3898*
X2960*
G75*
G02X2903Y3795I-58J-35*
G01*
G75*
G02X2845Y3898J68*
G01*
X2760*
G75*
G02X2703Y3795I-58J-35*
G01*
G75*
G02X2645Y3898J68*
G01*
X2510*
G75*
G02X2453Y3795I-58J-35*
G01*
G75*
G02X2395Y3898J68*
G01*
X2310*
G75*
G02X2253Y3795I-58J-35*
G01*
G75*
G02X2195Y3898J68*
G01*
X2060*
G75*
G02X2003Y3795I-58J-35*
G01*
G75*
G02X1945Y3898J68*
G01*
X1860*
G75*
G02X1803Y3795I-58J-35*
G01*
G75*
G02X1745Y3898J68*
G01*
X1510*
G75*
G02X1453Y3795I-58J-35*
G01*
G75*
G02X1395Y3898J68*
G01*
X1310*
G75*
G02X1252Y3795I-58J-35*
G01*
G75*
G02X1195Y3898J68*
G01*
X960*
G75*
G02X903Y3795I-58J-35*
G01*
G75*
G02X845Y3898J68*
G01*
X760*
G75*
G02X703Y3795I-58J-35*
G01*
G75*
G02X645Y3898J68*
G01*
X58*
Y3728*
X229*
G37*
X721D02*
G36*
G75*
G02X762Y3631I-18J-65D01*
G01*
X843*
G75*
G02X884Y3728I59J32*
G01*
X847*
G75*
G02X803Y3706I-44J35*
G01*
G75*
G02X758Y3728J57*
G01*
X721*
G37*
X921D02*
G36*
G75*
G02X962Y3631I-18J-65D01*
G01*
X1193*
G75*
G02X1234Y3728I59J32*
G01*
X921*
G37*
X1271D02*
G36*
G75*
G02X1312Y3631I-18J-65D01*
G01*
X1393*
G75*
G02X1434Y3728I59J32*
G01*
X1397*
G75*
G02X1353Y3706I-44J35*
G01*
G75*
G02X1308Y3728J57*
G01*
X1271*
G37*
X1471D02*
G36*
G75*
G02X1512Y3631I-18J-65D01*
G01*
X1743*
G75*
G02X1784Y3728I59J32*
G01*
X1471*
G37*
X1821D02*
G36*
G75*
G02X1862Y3631I-18J-65D01*
G01*
X1943*
G75*
G02X1984Y3728I59J32*
G01*
X1947*
G75*
G02X1903Y3706I-44J35*
G01*
G75*
G02X1858Y3728J57*
G01*
X1821*
G37*
X2021D02*
G36*
G75*
G02X2062Y3631I-18J-65D01*
G01*
X2193*
G75*
G02X2234Y3728I59J32*
G01*
X2021*
G37*
X2271D02*
G36*
G75*
G02X2312Y3631I-18J-65D01*
G01*
X2393*
G75*
G02X2434Y3728I59J32*
G01*
X2397*
G75*
G02X2353Y3706I-44J35*
G01*
G75*
G02X2308Y3728J57*
G01*
X2271*
G37*
X2471D02*
G36*
G75*
G02X2512Y3631I-18J-65D01*
G01*
X2643*
G75*
G02X2684Y3728I59J32*
G01*
X2471*
G37*
X2721D02*
G36*
G75*
G02X2762Y3631I-18J-65D01*
G01*
X2843*
G75*
G02X2884Y3728I59J32*
G01*
X2847*
G75*
G02X2803Y3706I-44J35*
G01*
G75*
G02X2758Y3728J57*
G01*
X2721*
G37*
X2921D02*
G36*
G75*
G02X2962Y3631I-18J-65D01*
G01*
X3192*
G75*
G02X3365I87J-50*
G01*
X3562*
G75*
G02X3655I46*
G01*
X3670*
G75*
G02X3763I46*
G01*
X3778*
G75*
G02X3871I46*
G01*
X3886*
G75*
G02X3979I46*
G01*
X4176*
G75*
G02X4349I87J-50*
G01*
X4626*
G75*
G02X4799I87J-50*
G01*
X4996*
G75*
G02X5089I46*
G01*
X5104*
G75*
G02X5197I46*
G01*
X5212*
G75*
G02X5305I46*
G01*
X5320*
G75*
G02X5413I46*
G01*
X5610*
G75*
G02X5783I87J-50*
G01*
X5848*
Y3728*
X2921*
G37*
X58Y928D02*
G36*
Y858D01*
X2831*
G75*
G02X2914I42*
G01*
X2931*
G75*
G02X3014I42*
G01*
X3031*
G75*
G02X3114I42*
G01*
X3131*
G75*
G02X3214I42*
G01*
X3231*
G75*
G02X3314I42*
G01*
X3331*
G75*
G02X3414I42*
G01*
X3431*
G75*
G02X3514I42*
G01*
X3531*
G75*
G02X3614I42*
G01*
X3631*
G75*
G02X3714I42*
G01*
X3731*
G75*
G02X3814I42*
G01*
X3831*
G75*
G02X3914I42*
G01*
X3931*
G75*
G02X4014I42*
G01*
X4031*
G75*
G02X4114I42*
G01*
X4131*
G75*
G02X4214I42*
G01*
X4231*
G75*
G02X4314I42*
G01*
X4331*
G75*
G02X4414I42*
G01*
X4431*
G75*
G02X4514I42*
G01*
X4531*
G75*
G02X4614I42*
G01*
X4631*
G75*
G02X4714I42*
G01*
X4731*
G75*
G02X4814I42*
G01*
X4831*
G75*
G02X4914I42*
G01*
X4931*
G75*
G02X5014I42*
G01*
X5031*
G75*
G02X5114I42*
G01*
X5130*
G75*
G02X5215I43*
G01*
X5435*
G75*
G02X5432Y873I38J15*
G01*
G75*
G02X5513I41*
G01*
G75*
G02X5510Y858I-41J0*
G01*
X5745*
G75*
G02X5742Y873I38J15*
G01*
G75*
G02X5783Y913I41*
G01*
G75*
G02X5823Y873J-41*
G01*
G75*
G02X5820Y858I-41J0*
G01*
X5848*
Y928*
X5813*
G75*
G02X5783Y913I-31J25*
G01*
G75*
G02X5752Y928J40*
G01*
X5498*
G75*
G02X5437I-31J25*
G01*
X456*
G75*
G02X399I-29*
G01*
X365*
G75*
G02X310I-28*
G01*
X58*
G37*
X310D02*
G36*
G75*
G02X365I28D01*
G01*
X399*
G75*
G02X456I29*
G01*
X5437*
G75*
G02X5428Y953I31J25*
G01*
G75*
G02X5507I40*
G01*
G75*
G02X5498Y928I-40*
G01*
X5752*
G75*
G02X5743Y953I31J25*
G01*
G75*
G02X5783Y992I40*
G01*
G75*
G02X5822Y953J-40*
G01*
G75*
G02X5813Y928I-40*
G01*
X5848*
Y1033*
X5823*
G75*
G02X5783Y992I-41*
G01*
G75*
G02X5742Y1033J41*
G01*
X5513*
G75*
G02X5432I-41*
G01*
X58*
Y928*
X310*
G37*
X58Y1888D02*
G36*
Y1823D01*
X499*
G75*
G02X556I29*
G01*
X979*
G75*
G02X970Y1843I19J20*
G01*
G75*
G02X1025I28*
G01*
G75*
G02X1016Y1823I-28*
G01*
X1179*
G75*
G02X1231I26J-13*
G01*
X1267*
G75*
G02X1318I26J-13*
G01*
X1354*
G75*
G02X1406I26J-13*
G01*
X1442*
G75*
G02X1493I26J-13*
G01*
X1529*
G75*
G02X1581I26J-13*
G01*
X1927*
G75*
G02X1968I20J-20*
G01*
X3612*
G75*
G02X3660Y1828I26J-10*
G01*
G75*
G02X3708Y1824I23J-16*
G01*
G75*
G02X3758Y1823I25J-11*
G01*
X3819*
G75*
G02X3819Y1828I28J5*
G01*
G75*
G02X3876I29*
G01*
G75*
G02X3876Y1823I-29J0*
G01*
X3981*
G75*
G02X4034I27J-10*
G01*
X4404*
G75*
G02X4455Y1827I27J-7*
G01*
G75*
G02X4503Y1831I25J-11*
G01*
G75*
G02X4552Y1823I23J-16*
G01*
X4613*
G75*
G02X4668I28J-7*
G01*
X4774*
G75*
G02X4826I26J-12*
G01*
X5459*
G75*
G02X5512I27J-7*
G01*
X5848*
Y1888*
X5688*
G75*
G02X5637I-26J9*
G01*
X5620*
G75*
G02X5568I-26J9*
G01*
X1809*
G75*
G02X1825Y1863I-11J-25*
G01*
G75*
G02X1770I-28*
G01*
G75*
G02X1786Y1888I28*
G01*
X808*
G75*
G02X816Y1868I-20J-20*
G01*
G75*
G02X759I-29*
G01*
G75*
G02X767Y1888I29*
G01*
X715*
G75*
G02X715Y1883I-27J-5*
G01*
G75*
G02X660I-28*
G01*
G75*
G02X660Y1888I28J0*
G01*
X520*
G75*
G02X465I-28*
G01*
X58*
G37*
X465D02*
G36*
G75*
G02X520I28D01*
G01*
X660*
G75*
G02X715I27J-5*
G01*
X767*
G75*
G02X808I20J-20*
G01*
X1786*
G75*
G02X1809I11J-25*
G01*
X5568*
G75*
G02X5567Y1897I26J9*
G01*
G75*
G02X5622I28*
G01*
G75*
G02X5620Y1888I-28*
G01*
X5637*
G75*
G02X5635Y1897I26J9*
G01*
G75*
G02X5690I28*
G01*
G75*
G02X5688Y1888I-28*
G01*
X5848*
Y1942*
X1085*
G75*
G02X1030I-28*
G01*
X58*
Y1888*
X465*
G37*
X58Y2192D02*
G36*
Y2133D01*
X5565*
G75*
G02X5620I28*
G01*
X5635*
Y2133*
G75*
G02X5690I28*
G01*
Y2133*
X5848*
Y2192*
X5682*
G75*
G02X5643I-19J19*
G01*
X5610*
G75*
G02X5573I-19J20*
G01*
X4595*
G75*
G02X4565I-15J23*
G01*
X4166*
G75*
G02X4169Y2181I-26J-12*
G01*
G75*
G02X4112I-29*
G01*
G75*
G02X4114Y2192I29*
G01*
X3804*
G75*
G02X3781I-11J25*
G01*
X3569*
G75*
G02X3546I-11J25*
G01*
X3367*
G75*
G02X3371Y2178I-24J-15*
G01*
G75*
G02X3314I-29*
G01*
G75*
G02X3318Y2192I29*
G01*
X1654*
G75*
G02X1669Y2168I-14J-25*
G01*
G75*
G02X1611I-29*
G01*
G75*
G02X1626Y2192I29*
G01*
X1151*
G75*
G02X1166Y2168I-14J-25*
G01*
G75*
G02X1109I-29*
G01*
G75*
G02X1124Y2192I29*
G01*
X908*
G75*
G02X862I-23J15*
G01*
X520*
G75*
G02X465I-28*
G01*
X58*
G37*
X465D02*
G36*
G75*
G02X520I28D01*
G01*
X862*
G75*
G02X858Y2208I23J15*
G01*
G75*
G02X861Y2221I28*
G01*
X58*
Y2192*
X465*
G37*
X1124D02*
G36*
G75*
G02X1151I14J-25D01*
G01*
X1626*
G75*
G02X1654I14J-25*
G01*
X3318*
G75*
G02X3367I24J-15*
G01*
X3546*
G75*
G02X3530Y2217I11J25*
G01*
G75*
G02X3530Y2221I28J0*
G01*
X909*
G75*
G02X913Y2208I-24J-13*
G01*
G75*
G02X908Y2192I-28J0*
G01*
X1124*
G37*
X3781D02*
G36*
G75*
G02X3765Y2217I11J25D01*
G01*
G75*
G02X3765Y2221I28J0*
G01*
X3720*
G75*
G02X3665I-28J7*
G01*
X3585*
G75*
G02X3585Y2217I-27J-3*
G01*
G75*
G02X3569Y2192I-28*
G01*
X3781*
G37*
X4114D02*
G36*
G75*
G02X4166I26J-12D01*
G01*
X4565*
G75*
G02X4553Y2216I15J23*
G01*
G75*
G02X4553Y2221I28J0*
G01*
X4485*
G75*
G02X4445I-20J20*
G01*
X4383*
G75*
G02X4328I-28*
G01*
X3820*
G75*
G02X3820Y2217I-27J-3*
G01*
G75*
G02X3804Y2192I-28*
G01*
X4114*
G37*
X5573D02*
G36*
G75*
G02X5564Y2213I19J20D01*
G01*
G75*
G02X5565Y2221I28J0*
G01*
X4607*
G75*
G02X4608Y2216I-27J-5*
G01*
G75*
G02X4595Y2192I-28*
G01*
X5573*
G37*
X5643D02*
G36*
G75*
G02X5635Y2212I19J19D01*
G01*
G75*
G02X5636Y2221I28J0*
G01*
X5618*
G75*
G02X5619Y2213I-26J-8*
G01*
G75*
G02X5610Y2192I-28*
G01*
X5643*
G37*
X5848D02*
G36*
Y2221D01*
X5689*
G75*
G02X5690Y2212I-26J-9*
G01*
G75*
G02X5682Y2192I-28*
G01*
X5848*
G37*
X58Y1823D02*
G36*
Y1763D01*
X970*
G75*
G02X1025I28*
G01*
X5438*
G75*
G02X5469I15J-23*
G01*
X5753*
G75*
G02X5747Y1780I22J17*
G01*
G75*
G02X5802I28*
G01*
G75*
G02X5796Y1763I-28*
G01*
X5848*
Y1823*
X5512*
G75*
G02X5513Y1816I-27J-7*
G01*
G75*
G02X5458I-28*
G01*
G75*
G02X5459Y1823I28J0*
G01*
X4826*
G75*
G02X4829Y1811I-26J-12*
G01*
G75*
G02X4772I-29*
G01*
G75*
G02X4774Y1823I29*
G01*
X4668*
G75*
G02X4669Y1816I-28J-7*
G01*
G75*
G02X4612I-29*
G01*
G75*
G02X4613Y1823I29J0*
G01*
X4552*
G75*
G02X4553Y1816I-27J-7*
G01*
G75*
G02X4503Y1800I-28*
G01*
G75*
G02X4455Y1804I-23J16*
G01*
G75*
G02X4403Y1816I-25J11*
G01*
G75*
G02X4404Y1823I28*
G01*
X4034*
G75*
G02X4036Y1813I-27J-10*
G01*
G75*
G02X3979I-29*
G01*
G75*
G02X3981Y1823I29J0*
G01*
X3876*
G75*
G02X3819I-28J5*
G01*
X3758*
G75*
G02X3760Y1813I-26J-10*
G01*
G75*
G02X3708Y1801I-28*
G01*
G75*
G02X3660Y1797I-25J11*
G01*
G75*
G02X3610Y1813I-23J16*
G01*
G75*
G02X3612Y1823I28J0*
G01*
X1968*
G75*
G02X1976Y1803I-20J-20*
G01*
G75*
G02X1919I-29*
G01*
G75*
G02X1927Y1823I29*
G01*
X1581*
G75*
G02X1584Y1810I-26J-12*
G01*
G75*
G02X1527I-29*
G01*
G75*
G02X1529Y1823I29J0*
G01*
X1493*
G75*
G02X1496Y1810I-26J-12*
G01*
G75*
G02X1439I-29*
G01*
G75*
G02X1442Y1823I29J0*
G01*
X1406*
G75*
G02X1409Y1810I-26J-12*
G01*
G75*
G02X1351I-29*
G01*
G75*
G02X1354Y1823I29J0*
G01*
X1318*
G75*
G02X1321Y1810I-26J-12*
G01*
G75*
G02X1264I-29*
G01*
G75*
G02X1267Y1823I29J0*
G01*
X1231*
G75*
G02X1234Y1810I-26J-12*
G01*
G75*
G02X1177I-29*
G01*
G75*
G02X1179Y1823I29J0*
G01*
X1016*
G75*
G02X979I-19J20*
G01*
X556*
G75*
G02X499I-29*
G01*
X58*
G37*
Y1448D02*
G36*
Y1413D01*
X3412*
G75*
G02X3410Y1423I26J10*
G01*
G75*
G02X3426Y1448I28*
G01*
X1581*
G75*
G02X1529I-26J13*
G01*
X1493*
G75*
G02X1442I-26J13*
G01*
X1406*
G75*
G02X1354I-26J13*
G01*
X1318*
G75*
G02X1267I-26J13*
G01*
X1231*
G75*
G02X1179I-26J13*
G01*
X576*
G75*
G02X519I-29*
G01*
X58*
G37*
X519D02*
G36*
G75*
G02X576I29D01*
G01*
X1179*
G75*
G02X1177Y1460I26J12*
G01*
G75*
G02X1234I29*
G01*
G75*
G02X1231Y1448I-29J0*
G01*
X1267*
G75*
G02X1264Y1460I26J12*
G01*
G75*
G02X1321I29*
G01*
G75*
G02X1318Y1448I-29J0*
G01*
X1354*
G75*
G02X1351Y1460I26J12*
G01*
G75*
G02X1409I29*
G01*
G75*
G02X1406Y1448I-29J0*
G01*
X1442*
G75*
G02X1439Y1460I26J12*
G01*
G75*
G02X1496I29*
G01*
G75*
G02X1493Y1448I-29J0*
G01*
X1529*
G75*
G02X1527Y1460I26J12*
G01*
G75*
G02X1584I29*
G01*
G75*
G02X1581Y1448I-29J0*
G01*
X3426*
G75*
G02X3449I11J-25*
G01*
X5459*
G75*
G02X5486I14J-25*
G01*
X5647*
G75*
G02X5678I15J-23*
G01*
X5848*
Y1523*
X5794*
G75*
G02X5756I-19J20*
G01*
X5682*
G75*
G02X5690Y1503I-20J-19*
G01*
G75*
G02X5635I-28*
G01*
G75*
G02X5643Y1523I28*
G01*
X5614*
G75*
G02X5623Y1503I-19J-20*
G01*
G75*
G02X5568I-28*
G01*
G75*
G02X5577Y1523I28*
G01*
X1916*
G75*
G02X1859I-29*
G01*
X1825*
G75*
G02X1770I-28*
G01*
X1566*
G75*
G02X1539I-14J25*
G01*
X1481*
G75*
G02X1454I-14J25*
G01*
X1394*
G75*
G02X1366I-14J25*
G01*
X1306*
G75*
G02X1279I-14J25*
G01*
X1219*
G75*
G02X1191I-14J25*
G01*
X919*
G75*
G02X896I-11J25*
G01*
X58*
Y1448*
X519*
G37*
X3449D02*
G36*
G75*
G02X3465Y1423I-11J-25D01*
G01*
G75*
G02X3463Y1413I-28*
G01*
X3499*
G75*
G02X3556I29*
G01*
X4200*
G75*
G02X4200Y1418I27J5*
G01*
G75*
G02X4255I28*
G01*
G75*
G02X4255Y1413I-28J0*
G01*
X4292*
G75*
G02X4349I28J-2*
G01*
X5446*
G75*
G02X5444Y1423I27J10*
G01*
G75*
G02X5459Y1448I29*
G01*
X3449*
G37*
X5486D02*
G36*
G75*
G02X5501Y1423I-14J-25D01*
G01*
G75*
G02X5499Y1413I-29J0*
G01*
X5638*
G75*
G02X5635Y1425I25J12*
G01*
G75*
G02X5647Y1448I28*
G01*
X5486*
G37*
X5678D02*
G36*
G75*
G02X5690Y1425I-15J-23D01*
G01*
G75*
G02X5687Y1413I-28*
G01*
X5848*
Y1448*
X5678*
G37*
X58Y1983D02*
G36*
Y1942D01*
X1030*
G75*
G02X1085I28*
G01*
X5848*
Y1983*
X5689*
G75*
G02X5690Y1976I-27J-7*
G01*
G75*
G02X5635I-28*
G01*
G75*
G02X5636Y1983I27J0*
G01*
X5620*
G75*
G02X5620Y1976I-27J-7*
G01*
G75*
G02X5565I-28*
G01*
G75*
G02X5566Y1983I28J0*
G01*
X1316*
G75*
G02X1269I-23J15*
G01*
X637*
G75*
G02X558I-40*
G01*
X58*
G37*
X558D02*
G36*
G75*
G02X637I40D01*
G01*
X1269*
G75*
G02X1265Y1998I23J15*
G01*
G75*
G02X1320I28*
G01*
G75*
G02X1316Y1983I-28J0*
G01*
X5566*
G75*
G02X5620I27J-7*
G01*
X5636*
G75*
G02X5689I27J-7*
G01*
X5848*
Y2043*
X5687*
G75*
G02X5638I-25J12*
G01*
X5618*
G75*
G02X5568I-25J12*
G01*
X4842*
G75*
G02X4848Y2026I-22J-17*
G01*
G75*
G02X4793I-28*
G01*
G75*
G02X4799Y2043I28*
G01*
X4053*
G75*
G02X4055Y2033I-26J-10*
G01*
G75*
G02X4000I-28*
G01*
G75*
G02X4002Y2043I28J0*
G01*
X1418*
G75*
G02X1363I-28*
G01*
X58*
Y1983*
X558*
G37*
X58Y3283D02*
G36*
Y3243D01*
X134*
G75*
G02X152Y3283I144J-40*
G01*
X58*
G37*
X152D02*
G36*
G75*
G02X403I126J-80D01*
G01*
X569*
G75*
G02X626I29*
G01*
X1134*
G75*
G02X1134Y3288I28J5*
G01*
G75*
G02X1191I29*
G01*
G75*
G02X1191Y3283I-29J0*
G01*
X3557*
Y3301*
X3640*
Y3283*
X3786*
Y3299*
X3869*
Y3283*
X4980*
Y3299*
X5063*
Y3283*
X5216*
Y3299*
X5299*
Y3283*
X5502*
G75*
G02X5753I126J-80*
G01*
X5848*
Y3359*
X5299*
Y3316*
X5216*
Y3359*
X5063*
Y3316*
X4980*
Y3359*
X3869*
Y3316*
X3786*
Y3359*
X3640*
Y3318*
X3557*
Y3359*
X58*
Y3283*
X152*
G37*
X403D02*
G36*
G75*
G02X421Y3243I-126J-80D01*
G01*
X2763*
G75*
G02X2803Y3282I40*
G01*
G75*
G02X2842Y3243J-40*
G01*
X3557*
Y3283*
X1191*
G75*
G02X1134I-28J5*
G01*
X626*
G75*
G02X569I-29*
G01*
X403*
G37*
X3640D02*
G36*
Y3243D01*
X3786*
Y3283*
X3640*
G37*
X3869D02*
G36*
Y3243D01*
X4980*
Y3283*
X3869*
G37*
X5063D02*
G36*
Y3243D01*
X5216*
Y3283*
X5063*
G37*
X5299D02*
G36*
Y3243D01*
X5484*
G75*
G02X5502Y3283I144J-40*
G01*
X5299*
G37*
X5753D02*
G36*
G75*
G02X5771Y3243I-126J-80D01*
G01*
X5848*
Y3283*
X5753*
G37*
X580Y3498D02*
G36*
G75*
G02X635I28D01*
G01*
X1135*
G75*
G02X1190I28*
G01*
X3223*
G75*
G02X3179Y3581I56J83*
G01*
G75*
G02X3192Y3631I100*
G01*
X2962*
G75*
G02X2903Y3595I-59J32*
G01*
G75*
G02X2843Y3631J68*
G01*
X2762*
G75*
G02X2703Y3595I-59J32*
G01*
G75*
G02X2643Y3631J68*
G01*
X2512*
G75*
G02X2453Y3595I-59J32*
G01*
G75*
G02X2393Y3631J68*
G01*
X2312*
G75*
G02X2253Y3595I-59J32*
G01*
G75*
G02X2193Y3631J68*
G01*
X2062*
G75*
G02X2003Y3595I-59J32*
G01*
G75*
G02X1943Y3631J68*
G01*
X1862*
G75*
G02X1803Y3595I-59J32*
G01*
G75*
G02X1743Y3631J68*
G01*
X1512*
G75*
G02X1453Y3595I-59J32*
G01*
G75*
G02X1393Y3631J68*
G01*
X1312*
G75*
G02X1252Y3595I-59J32*
G01*
G75*
G02X1193Y3631J68*
G01*
X962*
G75*
G02X903Y3595I-59J32*
G01*
G75*
G02X843Y3631J68*
G01*
X762*
G75*
G02X703Y3595I-59J32*
G01*
G75*
G02X643Y3631J68*
G01*
X58*
Y3498*
X580*
G37*
X3520D02*
G36*
G75*
G02X3507Y3531I34J33D01*
G01*
G75*
G02X3602I48*
G01*
G75*
G02X3589Y3498I-48*
G01*
X3630*
G75*
G02X3616Y3531I33J33*
G01*
G75*
G02X3709I46*
G01*
G75*
G02X3695Y3498I-46*
G01*
X3738*
G75*
G02X3724Y3531I33J33*
G01*
G75*
G02X3817I46*
G01*
G75*
G02X3803Y3498I-46*
G01*
X3846*
G75*
G02X3832Y3531I33J33*
G01*
G75*
G02X3925I46*
G01*
G75*
G02X3911Y3498I-46*
G01*
X3954*
G75*
G02X3940Y3531I33J33*
G01*
G75*
G02X4033I46*
G01*
G75*
G02X4019Y3498I-46*
G01*
X4207*
G75*
G02X4163Y3581I56J83*
G01*
G75*
G02X4176Y3631I100*
G01*
X3979*
G75*
G02X3886I-46*
G01*
X3871*
G75*
G02X3778I-46*
G01*
X3763*
G75*
G02X3670I-46*
G01*
X3655*
G75*
G02X3562I-46*
G01*
X3365*
G75*
G02X3379Y3581I-87J-50*
G01*
G75*
G02X3334Y3498I-100*
G01*
X3520*
G37*
X4657D02*
G36*
G75*
G02X4613Y3581I56J83D01*
G01*
G75*
G02X4626Y3631I100*
G01*
X4349*
G75*
G02X4363Y3581I-87J-50*
G01*
G75*
G02X4318Y3498I-100*
G01*
X4657*
G37*
X4954D02*
G36*
G75*
G02X4941Y3531I34J33D01*
G01*
G75*
G02X5036I48*
G01*
G75*
G02X5023Y3498I-48*
G01*
X5064*
G75*
G02X5050Y3531I33J33*
G01*
G75*
G02X5143I46*
G01*
G75*
G02X5129Y3498I-46*
G01*
X5172*
G75*
G02X5158Y3531I33J33*
G01*
G75*
G02X5251I46*
G01*
G75*
G02X5237Y3498I-46*
G01*
X5280*
G75*
G02X5266Y3531I33J33*
G01*
G75*
G02X5359I46*
G01*
G75*
G02X5345Y3498I-46*
G01*
X5388*
G75*
G02X5374Y3531I33J33*
G01*
G75*
G02X5467I46*
G01*
G75*
G02X5453Y3498I-46*
G01*
X5641*
G75*
G02X5597Y3581I56J83*
G01*
G75*
G02X5610Y3631I100*
G01*
X5413*
G75*
G02X5320I-46*
G01*
X5305*
G75*
G02X5212I-46*
G01*
X5197*
G75*
G02X5104I-46*
G01*
X5089*
G75*
G02X4996I-46*
G01*
X4799*
G75*
G02X4813Y3581I-87J-50*
G01*
G75*
G02X4768Y3498I-100*
G01*
X4954*
G37*
X5848D02*
G36*
Y3631D01*
X5783*
G75*
G02X5797Y3581I-87J-50*
G01*
G75*
G02X5752Y3498I-100*
G01*
X5848*
G37*
X58Y1558D02*
G36*
Y1523D01*
X896*
G75*
G02X880Y1548I11J25*
G01*
G75*
G02X882Y1558I28J0*
G01*
X721*
G75*
G02X664I-29*
G01*
X58*
G37*
X664D02*
G36*
G75*
G02X721I29D01*
G01*
X882*
G75*
G02X933I26J-10*
G01*
X1178*
G75*
G02X1232I27J-10*
G01*
X1266*
G75*
G02X1319I27J-10*
G01*
X1353*
G75*
G02X1407I27J-10*
G01*
X1441*
G75*
G02X1494I27J-10*
G01*
X1526*
G75*
G02X1579I27J-10*
G01*
X3565*
G75*
G02X3620I28*
G01*
X4353*
G75*
G02X4408I27J-2*
G01*
X5616*
G75*
G02X5600Y1582I12J25*
G01*
G75*
G02X5655I28*
G01*
G75*
G02X5640Y1558I-28*
G01*
X5752*
G75*
G02X5798I23J-15*
G01*
X5848*
Y1635*
X5799*
G75*
G02X5802Y1621I-24J-14*
G01*
G75*
G02X5747I-28*
G01*
G75*
G02X5751Y1635I28*
G01*
X5638*
G75*
G02X5620I-9J26*
G01*
X1970*
G75*
G02X1925I-22J18*
G01*
X1584*
G75*
G02X1527I-29*
G01*
X1496*
G75*
G02X1439I-29*
G01*
X1409*
G75*
G02X1351I-29*
G01*
X1321*
G75*
G02X1264I-29*
G01*
X1234*
G75*
G02X1177I-29*
G01*
X58*
Y1558*
X664*
G37*
X933D02*
G36*
G75*
G02X935Y1548I-26J-10D01*
G01*
G75*
G02X919Y1523I-28*
G01*
X1191*
G75*
G02X1177Y1548I14J25*
G01*
G75*
G02X1178Y1558I29J0*
G01*
X933*
G37*
X1232D02*
G36*
G75*
G02X1234Y1548I-27J-10D01*
G01*
G75*
G02X1219Y1523I-29*
G01*
X1279*
G75*
G02X1264Y1548I14J25*
G01*
G75*
G02X1266Y1558I29J0*
G01*
X1232*
G37*
X1319D02*
G36*
G75*
G02X1321Y1548I-27J-10D01*
G01*
G75*
G02X1306Y1523I-29*
G01*
X1366*
G75*
G02X1351Y1548I14J25*
G01*
G75*
G02X1353Y1558I29J0*
G01*
X1319*
G37*
X1407D02*
G36*
G75*
G02X1409Y1548I-27J-10D01*
G01*
G75*
G02X1394Y1523I-29*
G01*
X1454*
G75*
G02X1439Y1548I14J25*
G01*
G75*
G02X1441Y1558I29J0*
G01*
X1407*
G37*
X1494D02*
G36*
G75*
G02X1496Y1548I-27J-10D01*
G01*
G75*
G02X1481Y1523I-29*
G01*
X1539*
G75*
G02X1524Y1548I14J25*
G01*
G75*
G02X1526Y1558I29J0*
G01*
X1494*
G37*
X1579D02*
G36*
G75*
G02X1581Y1548I-27J-10D01*
G01*
G75*
G02X1566Y1523I-29*
G01*
X1770*
G75*
G02X1825I28*
G01*
X1859*
G75*
G02X1916I29*
G01*
X5577*
G75*
G02X5614I19J-20*
G01*
X5643*
G75*
G02X5682I20J-19*
G01*
X5756*
G75*
G02X5747Y1542I19J20*
G01*
G75*
G02X5752Y1558I28J0*
G01*
X5640*
G75*
G02X5616I-12J25*
G01*
X4408*
G75*
G02X4408Y1556I-27J-2*
G01*
G75*
G02X4353I-28*
G01*
G75*
G02X4353Y1558I27J0*
G01*
X3620*
G75*
G02X3565I-28*
G01*
X1579*
G37*
X5798D02*
G36*
G75*
G02X5802Y1542I-23J-15D01*
G01*
G75*
G02X5794Y1523I-28*
G01*
X5848*
Y1558*
X5798*
G37*
X58Y2963D02*
G36*
Y2893D01*
X874*
G75*
G02X931I29*
G01*
X1434*
G75*
G02X1434Y2898I28J5*
G01*
G75*
G02X1491I29*
G01*
G75*
G02X1491Y2893I-29J0*
G01*
X5848*
Y2963*
X2263*
G75*
G02X2223Y2917I-40J-5*
G01*
G75*
G02X2182Y2963J41*
G01*
X1276*
G75*
G02X1219I-29*
G01*
X721*
G75*
G02X664I-29*
G01*
X58*
G37*
X664D02*
G36*
G75*
G02X721I29D01*
G01*
X1219*
G75*
G02X1276I29*
G01*
X2182*
G75*
G02X2223Y2998I40J-5*
G01*
G75*
G02X2263Y2963J-41*
G01*
X5848*
Y3048*
X2805*
G75*
G02X2768Y2992I-38J-15*
G01*
G75*
G02X2730Y3048J41*
G01*
X1565*
G75*
G02X1510I-28*
G01*
X1010*
G75*
G02X955I-28*
G01*
X58*
Y2963*
X664*
G37*
X58Y2283D02*
G36*
Y2221D01*
X861*
G75*
G02X909I24J-13*
G01*
X3530*
G75*
G02X3585I27J-3*
G01*
X3665*
G75*
G02X3664Y2228I28J7*
G01*
G75*
G02X3665Y2236I29J0*
G01*
G75*
G02X3639Y2283I-8J26*
G01*
X1484*
G75*
G02X1499Y2258I-14J-25*
G01*
G75*
G02X1441I-29*
G01*
G75*
G02X1456Y2283I29*
G01*
X1404*
G75*
G02X1419Y2258I-14J-25*
G01*
G75*
G02X1361I-29*
G01*
G75*
G02X1376Y2283I29*
G01*
X1324*
G75*
G02X1339Y2258I-14J-25*
G01*
G75*
G02X1282I-29*
G01*
G75*
G02X1296Y2283I29*
G01*
X775*
G75*
G02X720I-28*
G01*
X58*
G37*
X720D02*
G36*
G75*
G02X775I28D01*
G01*
X1296*
G75*
G02X1324I14J-25*
G01*
X1376*
G75*
G02X1404I14J-25*
G01*
X1456*
G75*
G02X1484I14J-25*
G01*
X3639*
G75*
G02X3642Y2285I19J-20*
G01*
G75*
G02X3630Y2308I16J23*
G01*
G75*
G02X3685I28*
G01*
G75*
G02X3673Y2285I-28*
G01*
G75*
G02X3676Y2283I-16J-23*
G01*
X4559*
G75*
G02X4608Y2291I27J-7*
G01*
G75*
G02X4657Y2283I23J-16*
G01*
X5567*
G75*
G02X5565Y2291I26J9*
G01*
G75*
G02X5620I28*
G01*
G75*
G02X5619Y2283I-28*
G01*
X5636*
G75*
G02X5635Y2291I26J8*
G01*
G75*
G02X5690I28*
G01*
G75*
G02X5689Y2283I-28J0*
G01*
X5848*
Y2342*
X5668*
G75*
G02X5657I-6J27*
G01*
X5599*
G75*
G02X5582I-9J26*
G01*
X4572*
G75*
G02X4573Y2336I-27J-7*
G01*
G75*
G02X4523Y2320I-28*
G01*
G75*
G02X4473Y2336I-23J16*
G01*
G75*
G02X4474Y2342I28*
G01*
X3800*
G75*
G02X3750Y2327I-28*
G01*
G75*
G02X3700Y2342I-23J16*
G01*
X58*
Y2283*
X720*
G37*
X3676D02*
G36*
G75*
G02X3684Y2255I-19J-20D01*
G01*
G75*
G02X3721Y2228I9J-27*
G01*
G75*
G02X3720Y2221I-29J0*
G01*
X3765*
G75*
G02X3820I27J-3*
G01*
X4328*
G75*
G02X4383I28*
G01*
X4445*
G75*
G02X4437Y2241I20J20*
G01*
G75*
G02X4494I29*
G01*
G75*
G02X4485Y2221I-29*
G01*
X4553*
G75*
G02X4607I27J-5*
G01*
X5565*
G75*
G02X5618I26J-8*
G01*
X5636*
G75*
G02X5689I26J-9*
G01*
X5848*
Y2283*
X5689*
G75*
G02X5636I-26J8*
G01*
X5619*
G75*
G02X5567I-26J9*
G01*
X4657*
G75*
G02X4658Y2276I-27J-7*
G01*
G75*
G02X4608Y2260I-28*
G01*
G75*
G02X4558Y2276I-23J16*
G01*
G75*
G02X4559Y2283I28*
G01*
X3676*
G37*
X58Y583D02*
G36*
Y513D01*
X5323*
G75*
G02X5363Y552I40*
G01*
G75*
G02X5402Y513J-40*
G01*
X5848*
Y583*
X5481*
G75*
G02X5463Y578I-18J35*
G01*
G75*
G02X5444Y583J40*
G01*
X2005*
G75*
G02X1950I-27J5*
G01*
X1830*
G75*
G02X1775I-27J5*
G01*
X1005*
G75*
G02X950I-28*
G01*
X835*
G75*
G02X780I-28*
G01*
X58*
G37*
X780D02*
G36*
G75*
G02X835I28D01*
G01*
X950*
G75*
G02X1005I28*
G01*
X1775*
G75*
G02X1775Y588I27J5*
G01*
G75*
G02X1830I28*
G01*
G75*
G02X1830Y583I-28J0*
G01*
X1950*
G75*
G02X1950Y588I27J5*
G01*
G75*
G02X2005I28*
G01*
G75*
G02X2005Y583I-28J0*
G01*
X5444*
G75*
G02X5432Y643I18J35*
G01*
X1920*
G75*
G02X1865I-27J5*
G01*
X920*
G75*
G02X865I-28*
G01*
X58*
Y583*
X780*
G37*
X5848D02*
G36*
Y643D01*
X5493*
G75*
G02X5481Y583I-31J-25*
G01*
X5848*
G37*
X58Y2083D02*
G36*
Y2043D01*
X1363*
G75*
G02X1418I28*
G01*
X4002*
G75*
G02X4053I26J-10*
G01*
X4799*
G75*
G02X4842I22J-17*
G01*
X5568*
G75*
G02X5565Y2054I25J12*
G01*
G75*
G02X5620I28*
G01*
G75*
G02X5618Y2043I-28*
G01*
X5638*
G75*
G02X5635Y2054I25J12*
G01*
G75*
G02X5690I28*
G01*
G75*
G02X5687Y2043I-28J0*
G01*
X5848*
Y2083*
X1801*
G75*
G02X1764I-19J20*
G01*
X889*
G75*
G02X831I-29*
G01*
X58*
G37*
X831D02*
G36*
G75*
G02X889I29D01*
G01*
X1764*
G75*
G02X1755Y2103I19J20*
G01*
G75*
G02X1810I28*
G01*
G75*
G02X1801Y2083I-28*
G01*
X5848*
Y2133*
X5690*
G75*
G02X5635I-28J0*
G01*
X5620*
G75*
G02X5565I-28*
G01*
X58*
Y2083*
X831*
G37*
X865Y643D02*
G36*
G75*
G02X920I28D01*
G01*
X1865*
G75*
G02X1865Y648I27J5*
G01*
G75*
G02X1920I28*
G01*
G75*
G02X1920Y643I-28J0*
G01*
X5432*
G75*
G02X5463Y657I31J-25*
G01*
G75*
G02X5493Y643J-40*
G01*
X5848*
Y793*
X5822*
G75*
G02X5743I-40*
G01*
X5512*
G75*
G02X5433I-40*
G01*
X58*
Y643*
X865*
G37*
X58Y2438D02*
G36*
Y2342D01*
X3700*
G75*
G02X3750Y2358I28*
G01*
G75*
G02X3800Y2342I23J-16*
G01*
X4474*
G75*
G02X4523Y2351I27J-7*
G01*
G75*
G02X4572Y2342I23J-16*
G01*
X5582*
G75*
G02X5563Y2369I9J26*
G01*
G75*
G02X5618I28*
G01*
G75*
G02X5599Y2342I-28*
G01*
X5657*
G75*
G02X5635Y2369I6J27*
G01*
G75*
G02X5690I28*
G01*
G75*
G02X5668Y2342I-28*
G01*
X5848*
Y2438*
X5688*
G75*
G02X5637I-25J11*
G01*
X5617*
G75*
G02X5567I-25J11*
G01*
X1486*
G75*
G02X1429I-29*
G01*
X926*
G75*
G02X869I-29*
G01*
X58*
G37*
X869D02*
G36*
G75*
G02X926I29D01*
G01*
X1429*
G75*
G02X1486I29*
G01*
X5567*
G75*
G02X5564Y2449I25J11*
G01*
G75*
G02X5619I28*
G01*
G75*
G02X5617Y2438I-28J0*
G01*
X5637*
G75*
G02X5635Y2448I25J11*
G01*
G75*
G02X5690I28*
G01*
G75*
G02X5688Y2438I-28J0*
G01*
X5848*
Y2543*
X5820*
G75*
G02X5823Y2528I-38J-15*
G01*
G75*
G02X5742I-41*
G01*
G75*
G02X5745Y2543I40J0*
G01*
X5510*
G75*
G02X5513Y2528I-38J-15*
G01*
G75*
G02X5432I-41*
G01*
G75*
G02X5435Y2543I40J0*
G01*
X4168*
G75*
G02X4112I-28J3*
G01*
X3371*
G75*
G02X3314I-29*
G01*
X58*
Y2438*
X869*
G37*
X58Y2588D02*
G36*
Y2543D01*
X3314*
G75*
G02X3371I29*
G01*
X4112*
G75*
G02X4112Y2546I28J3*
G01*
G75*
G02X4169I29*
G01*
G75*
G02X4168Y2543I-29J0*
G01*
X5435*
G75*
G02X5510I38J-15*
G01*
X5745*
G75*
G02X5820I38J-15*
G01*
X5848*
Y2588*
X5683*
G75*
G02X5642I-21J18*
G01*
X5614*
G75*
G02X5572I-21J18*
G01*
X1486*
G75*
G02X1429I-29*
G01*
X926*
G75*
G02X869I-29*
G01*
X58*
G37*
X869D02*
G36*
G75*
G02X926I29D01*
G01*
X1429*
G75*
G02X1486I29*
G01*
X5572*
G75*
G02X5565Y2606I21J18*
G01*
G75*
G02X5620I28*
G01*
G75*
G02X5614Y2588I-28*
G01*
X5642*
G75*
G02X5635Y2606I21J18*
G01*
G75*
G02X5690I28*
G01*
G75*
G02X5683Y2588I-28*
G01*
X5848*
Y2698*
X5820*
G75*
G02X5823Y2683I-38J-15*
G01*
G75*
G02X5742I-41*
G01*
G75*
G02X5745Y2698I40J0*
G01*
X5510*
G75*
G02X5513Y2683I-38J-15*
G01*
G75*
G02X5432I-41*
G01*
G75*
G02X5435Y2698I40J0*
G01*
X5050*
G75*
G02X4995I-27J5*
G01*
X3625*
G75*
G02X3570I-28*
G01*
X58*
Y2588*
X869*
G37*
X58Y2733D02*
G36*
Y2698D01*
X3570*
G75*
G02X3625I28*
G01*
X4995*
G75*
G02X4995Y2703I27J5*
G01*
G75*
G02X5050I28*
G01*
G75*
G02X5050Y2698I-28J0*
G01*
X5435*
G75*
G02X5510I38J-15*
G01*
X5745*
G75*
G02X5820I38J-15*
G01*
X5848*
Y2733*
X1486*
G75*
G02X1429I-29*
G01*
X926*
G75*
G02X869I-29*
G01*
X58*
G37*
X869D02*
G36*
G75*
G02X926I29D01*
G01*
X1429*
G75*
G02X1486I29*
G01*
X5848*
Y2893*
X1491*
G75*
G02X1434I-28J5*
G01*
X931*
G75*
G02X874I-29*
G01*
X58*
Y2733*
X869*
G37*
X58Y1373D02*
G36*
Y1328D01*
X2603*
G75*
G02X2682I40*
G01*
X2727*
G75*
G02X2761Y1373I40J5*
G01*
X935*
G75*
G02X880I-28*
G01*
X58*
G37*
X880D02*
G36*
G75*
G02X935I28D01*
G01*
X2761*
G75*
G02X2768Y1373I6J-40*
G01*
G75*
G02X2774Y1373J-41*
G01*
X2961*
G75*
G02X2968Y1373I6J-40*
G01*
G75*
G02X2974Y1373J-41*
G01*
X5589*
G75*
G02X5597I4J-27*
G01*
X5751*
G75*
G02X5814I32J-25*
G01*
X5848*
Y1413*
X5687*
G75*
G02X5638I-25J12*
G01*
X5499*
G75*
G02X5446I-27J10*
G01*
X4349*
G75*
G02X4349Y1411I-28J-2*
G01*
G75*
G02X4292I-29*
G01*
G75*
G02X4292Y1413I28J0*
G01*
X4255*
G75*
G02X4200I-27J5*
G01*
X3556*
G75*
G02X3499I-29*
G01*
X3463*
G75*
G02X3412I-26J10*
G01*
X58*
Y1373*
X880*
G37*
X2774D02*
G36*
G75*
G02X2808Y1328I-6J-40D01*
G01*
X2927*
G75*
G02X2961Y1373I40J5*
G01*
X2774*
G37*
X2974D02*
G36*
G75*
G02X3008Y1328I-6J-40D01*
G01*
X5572*
G75*
G02X5565Y1345I21J18*
G01*
G75*
G02X5589Y1373I28*
G01*
X2974*
G37*
X5597D02*
G36*
G75*
G02X5620Y1345I-4J-27D01*
G01*
G75*
G02X5614Y1328I-28*
G01*
X5747*
G75*
G02X5742Y1348I35J20*
G01*
G75*
G02X5751Y1373I41*
G01*
X5597*
G37*
X5814D02*
G36*
G75*
G02X5823Y1348I-32J-25D01*
G01*
G75*
G02X5818Y1328I-41*
G01*
X5848*
Y1373*
X5814*
G37*
X58Y3133D02*
G36*
Y3048D01*
X955*
G75*
G02X1010I28*
G01*
X1510*
G75*
G02X1565I28*
G01*
X2730*
G75*
G02X2768Y3073I38J-15*
G01*
G75*
G02X2805Y3048J-41*
G01*
X5848*
Y3133*
X5759*
G75*
G02X5496I-132J70*
G01*
X2142*
G75*
G02X2103Y3088I-39J-5*
G01*
G75*
G02X2063Y3133J40*
G01*
X1546*
G75*
G02X1489I-28J5*
G01*
X991*
G75*
G02X934I-29*
G01*
X409*
G75*
G02X146I-132J70*
G01*
X58*
G37*
Y1223D02*
G36*
Y1188D01*
X5565*
G75*
G02X5620I28*
G01*
X5635*
Y1188*
G75*
G02X5690I28*
G01*
Y1188*
X5848*
Y1223*
X2420*
G75*
G02X2345I-38J15*
G01*
X1435*
G75*
G02X1435Y1218I-27J-5*
G01*
G75*
G02X1380I-28*
G01*
G75*
G02X1380Y1223I28J0*
G01*
X996*
G75*
G02X939I-29*
G01*
X58*
G37*
X939D02*
G36*
G75*
G02X996I29D01*
G01*
X1380*
G75*
G02X1435I27J-5*
G01*
X2345*
G75*
G02X2342Y1238I38J15*
G01*
G75*
G02X2355Y1268I41*
G01*
X58*
Y1223*
X939*
G37*
X5848D02*
G36*
Y1268D01*
X5823*
G75*
G02X5742I-41*
G01*
X5501*
G75*
G02X5444I-29*
G01*
X2410*
G75*
G02X2423Y1238I-27J-30*
G01*
G75*
G02X2420Y1223I-41J0*
G01*
X5848*
G37*
X58Y1763D02*
G36*
Y1722D01*
X1177*
G75*
G02X1234I29*
G01*
X1264*
G75*
G02X1321I29*
G01*
X1351*
G75*
G02X1409I29*
G01*
X1439*
G75*
G02X1496I29*
G01*
X1527*
G75*
G02X1584I29*
G01*
X1772*
G75*
G02X1823I26J-10*
G01*
X5432*
G75*
G02X5426Y1740I22J17*
G01*
G75*
G02X5438Y1763I28*
G01*
X1025*
G75*
G02X970I-28*
G01*
X58*
G37*
X5469D02*
G36*
G75*
G02X5481Y1740I-15J-23D01*
G01*
G75*
G02X5475Y1722I-28*
G01*
X5759*
G75*
G02X5790I15J-23*
G01*
X5848*
Y1763*
X5796*
G75*
G02X5753I-22J17*
G01*
X5469*
G37*
X1177Y1635D02*
G36*
G75*
G02X1234I29D01*
G01*
X1264*
G75*
G02X1321I29*
G01*
X1351*
G75*
G02X1409I29*
G01*
X1439*
G75*
G02X1496I29*
G01*
X1527*
G75*
G02X1584I29*
G01*
X1925*
G75*
G02X1919Y1653I22J18*
G01*
G75*
G02X1976I29*
G01*
G75*
G02X1970Y1635I-29*
G01*
X5620*
G75*
G02X5602Y1661I9J26*
G01*
G75*
G02X5612Y1683I28*
G01*
X4443*
G75*
G02X4387I-28J3*
G01*
X3651*
G75*
G02X3594I-29*
G01*
X58*
Y1635*
X1177*
G37*
X5751D02*
G36*
G75*
G02X5799I24J-14D01*
G01*
X5848*
Y1683*
X5796*
G75*
G02X5753I-21J17*
G01*
X5646*
G75*
G02X5657Y1661I-17J-21*
G01*
G75*
G02X5638Y1635I-28*
G01*
X5751*
G37*
X58Y1722D02*
G36*
Y1683D01*
X3594*
G75*
G02X3651I29*
G01*
X4387*
G75*
G02X4387Y1686I28J3*
G01*
G75*
G02X4444I29*
G01*
G75*
G02X4443Y1683I-29J0*
G01*
X5612*
G75*
G02X5646I17J-21*
G01*
X5753*
G75*
G02X5747Y1700I21J17*
G01*
G75*
G02X5759Y1722I28*
G01*
X5475*
G75*
G02X5432I-22J17*
G01*
X1823*
G75*
G02X1825Y1713I-26J-10*
G01*
G75*
G02X1770I-28*
G01*
G75*
G02X1772Y1722I28J0*
G01*
X1584*
G75*
G02X1527I-29*
G01*
X1496*
G75*
G02X1439I-29*
G01*
X1409*
G75*
G02X1351I-29*
G01*
X1321*
G75*
G02X1264I-29*
G01*
X1234*
G75*
G02X1177I-29*
G01*
X58*
G37*
X5790D02*
G36*
G75*
G02X5802Y1700I-15J-23D01*
G01*
G75*
G02X5796Y1683I-28*
G01*
X5848*
Y1722*
X5790*
G37*
X139Y333D02*
G36*
G75*
G02X416I138J-55D01*
G01*
X1233*
G75*
G02X1312I40*
G01*
X2233*
G75*
G02X2233Y338I39J5*
G01*
G75*
G02X2312I40*
G01*
G75*
G02X2312Y333I-40J0*
G01*
X5489*
G75*
G02X5766I138J-55*
G01*
X5848*
Y513*
X5402*
G75*
G02X5363Y473I-40*
G01*
G75*
G02X5323Y513J40*
G01*
X58*
Y333*
X139*
G37*
X58Y1328D02*
G36*
Y1268D01*
X2355*
G75*
G02X2410I27J-30*
G01*
X5444*
G75*
G02X5501I29*
G01*
X5742*
G75*
G02X5776Y1308I41*
G01*
G75*
G02X5747Y1328I6J40*
G01*
X5614*
G75*
G02X5572I-21J18*
G01*
X3008*
G75*
G02X2968Y1292I-40J5*
G01*
G75*
G02X2927Y1328J41*
G01*
X2808*
G75*
G02X2768Y1292I-40J5*
G01*
G75*
G02X2727Y1328J41*
G01*
X2682*
G75*
G02X2603I-40*
G01*
X58*
G37*
X5818D02*
G36*
G75*
G02X5789Y1308I-35J20D01*
G01*
G75*
G02X5823Y1268I-6J-40*
G01*
X5848*
Y1328*
X5818*
G37*
X58Y858D02*
G36*
Y793D01*
X5433*
G75*
G02X5473Y832I40*
G01*
G75*
G02X5512Y793J-40*
G01*
X5743*
G75*
G02X5783Y832I40*
G01*
G75*
G02X5822Y793J-40*
G01*
X5848*
Y858*
X5820*
G75*
G02X5783Y832I-38J15*
G01*
G75*
G02X5745Y858J41*
G01*
X5510*
G75*
G02X5473Y832I-38J15*
G01*
G75*
G02X5435Y858J41*
G01*
X5215*
G75*
G02X5130I-43*
G01*
X5114*
G75*
G02X5031I-42*
G01*
X5014*
G75*
G02X4931I-42*
G01*
X4914*
G75*
G02X4831I-42*
G01*
X4814*
G75*
G02X4731I-42*
G01*
X4714*
G75*
G02X4631I-42*
G01*
X4614*
G75*
G02X4531I-42*
G01*
X4514*
G75*
G02X4431I-42*
G01*
X4414*
G75*
G02X4331I-42*
G01*
X4314*
G75*
G02X4231I-42*
G01*
X4214*
G75*
G02X4131I-42*
G01*
X4114*
G75*
G02X4031I-42*
G01*
X4014*
G75*
G02X3931I-42*
G01*
X3914*
G75*
G02X3831I-42*
G01*
X3814*
G75*
G02X3731I-42*
G01*
X3714*
G75*
G02X3631I-42*
G01*
X3614*
G75*
G02X3531I-42*
G01*
X3514*
G75*
G02X3431I-42*
G01*
X3414*
G75*
G02X3331I-42*
G01*
X3314*
G75*
G02X3231I-42*
G01*
X3214*
G75*
G02X3131I-42*
G01*
X3114*
G75*
G02X3031I-42*
G01*
X3014*
G75*
G02X2931I-42*
G01*
X2914*
G75*
G02X2831I-42*
G01*
X58*
G37*
Y3413D02*
G36*
Y3359D01*
X3557*
Y3401*
X3640*
Y3359*
X3786*
Y3399*
X3869*
Y3359*
X4980*
Y3399*
X5063*
Y3359*
X5216*
Y3399*
X5299*
Y3359*
X5848*
Y3413*
X2968*
G75*
G02X2928Y3372I-41*
G01*
G75*
G02X2887Y3413J41*
G01*
X58*
G37*
X5432Y1033D02*
G36*
G75*
G02X5513I41D01*
G01*
X5742*
G75*
G02X5823I41*
G01*
X5848*
Y1109*
X5690*
G75*
G02X5635I-28J0*
G01*
X5622*
G75*
G02X5567I-28*
G01*
X58*
Y1033*
X5432*
G37*
X58Y168D02*
G36*
Y58D01*
X3063*
Y153*
X3498*
Y58*
X5848*
Y168*
X5728*
G75*
G02X5527I-101J110*
G01*
X5466*
G75*
G02X5438Y139I-29*
G01*
G75*
G02X5409Y168J29*
G01*
X378*
G75*
G02X177I-101J110*
G01*
X58*
G37*
Y1188D02*
G36*
Y1109D01*
X5567*
G75*
G02X5622I28*
G01*
X5635*
Y1110*
G75*
G02X5690I28*
G01*
Y1109*
X5848*
Y1188*
X5690*
G75*
G02X5635I-28J0*
G01*
X5620*
G75*
G02X5565I-28*
G01*
X58*
G37*
X3316Y75D02*
X3322Y72D01*
X3328*
X3334Y75*
X3338Y81*
X3334Y88*
X3328Y91*
X3322*
X3328D02*
X3334Y94D01*
X3338Y100*
X3334Y106*
X3328Y109*
X3322*
X3316Y106*
D02*
D11*
X247Y3728D02*
X227D01*
X258Y3717D02*
Y3697D01*
Y3739D02*
Y3759D01*
X269Y3728D02*
X289D01*
X417Y928D02*
X397D01*
X428Y916D02*
Y897D01*
Y939D02*
Y959D01*
X438Y928D02*
X459D01*
X516Y1823D02*
X497D01*
X527Y1812D02*
Y1791D01*
Y1834D02*
Y1854D01*
X537Y1448D02*
X516D01*
X539Y1823D02*
X559D01*
X548Y1437D02*
Y1417D01*
Y1459D02*
Y1479D01*
X559Y1448D02*
X579D01*
X587Y3283D02*
X567D01*
X598Y3272D02*
Y3252D01*
Y3294D02*
Y3313D01*
X609Y3283D02*
X629D01*
X653Y3663D02*
X632D01*
X653Y3863D02*
X632D01*
X681Y1558D02*
X662D01*
X681Y2963D02*
X662D01*
X693Y1547D02*
Y1527D01*
Y1569D02*
Y1589D01*
Y2952D02*
Y2932D01*
Y2974D02*
Y2994D01*
X703Y3613D02*
Y3593D01*
Y3713D02*
Y3733D01*
Y3813D02*
Y3793D01*
X704Y1558D02*
X724D01*
X704Y2963D02*
X724D01*
X745Y248D02*
X725D01*
X753Y3663D02*
X773D01*
X753Y3863D02*
X773D01*
X768Y225D02*
Y205D01*
Y271D02*
Y291D01*
X776Y1868D02*
X756D01*
X788Y1857D02*
Y1837D01*
Y1879D02*
Y1899D01*
X791Y248D02*
X811D01*
X799Y1868D02*
X819D01*
X849Y2083D02*
X829D01*
X853Y3663D02*
X833D01*
X853Y3863D02*
X833D01*
X860Y2072D02*
Y2052D01*
Y2094D02*
Y2114D01*
X871Y2083D02*
X891D01*
X887Y2438D02*
X867D01*
X887Y2588D02*
X867D01*
X887Y2733D02*
X867D01*
X891Y2893D02*
X872D01*
X898Y2427D02*
Y2407D01*
Y2449D02*
Y2469D01*
Y2577D02*
Y2557D01*
Y2599D02*
Y2619D01*
Y2722D02*
Y2702D01*
Y2744D02*
Y2764D01*
X903Y2882D02*
Y2862D01*
Y2904D02*
Y2924D01*
Y3613D02*
Y3593D01*
Y3713D02*
Y3733D01*
Y3813D02*
Y3793D01*
X909Y2438D02*
X929D01*
X909Y2588D02*
X929D01*
X909Y2733D02*
X929D01*
X914Y2893D02*
X934D01*
X952Y3133D02*
X931D01*
X953Y3663D02*
X973D01*
X953Y3863D02*
X973D01*
X956Y1223D02*
X937D01*
X963Y3122D02*
Y3102D01*
Y3143D02*
Y3163D01*
X968Y1212D02*
Y1192D01*
Y1234D02*
Y1254D01*
X974Y3133D02*
X994D01*
X979Y1223D02*
X999D01*
X1005Y243D02*
X985D01*
X1028Y220D02*
Y200D01*
Y266D02*
Y286D01*
X1050Y243D02*
X1071D01*
X1127Y2168D02*
X1107D01*
X1138Y2157D02*
Y2137D01*
Y2179D02*
Y2199D01*
X1149Y2168D02*
X1169D01*
X1152Y3288D02*
X1132D01*
X1163Y3277D02*
Y3257D01*
Y3299D02*
Y3318D01*
X1174Y3288D02*
X1194D01*
X1194Y1460D02*
X1174D01*
X1194Y1548D02*
X1174D01*
X1194Y1635D02*
X1174D01*
X1194Y1722D02*
X1174D01*
X1194Y1810D02*
X1174D01*
X1202Y3663D02*
X1183D01*
X1202Y3863D02*
X1183D01*
X1205Y1449D02*
Y1429D01*
Y1471D02*
Y1491D01*
Y1537D02*
Y1516D01*
Y1559D02*
Y1579D01*
Y1624D02*
Y1604D01*
Y1646D02*
Y1666D01*
Y1712D02*
Y1691D01*
Y1734D02*
Y1754D01*
Y1799D02*
Y1779D01*
Y1821D02*
Y1841D01*
X1216Y1460D02*
X1236D01*
X1216Y1548D02*
X1236D01*
X1216Y1635D02*
X1236D01*
X1216Y1722D02*
X1236D01*
X1216Y1810D02*
X1236D01*
X1236Y2963D02*
X1217D01*
X1248Y2952D02*
Y2932D01*
Y2974D02*
Y2994D01*
X1252Y3613D02*
Y3593D01*
Y3713D02*
Y3733D01*
Y3813D02*
Y3793D01*
X1259Y2963D02*
X1279D01*
X1282Y1460D02*
X1262D01*
X1282Y1548D02*
X1262D01*
X1282Y1635D02*
X1262D01*
X1282Y1722D02*
X1262D01*
X1282Y1810D02*
X1262D01*
X1293Y1449D02*
Y1429D01*
Y1471D02*
Y1491D01*
Y1537D02*
Y1516D01*
Y1559D02*
Y1579D01*
Y1624D02*
Y1604D01*
Y1646D02*
Y1666D01*
Y1712D02*
Y1691D01*
Y1734D02*
Y1754D01*
Y1799D02*
Y1779D01*
Y1821D02*
Y1841D01*
X1299Y2258D02*
X1279D01*
X1303Y3663D02*
X1323D01*
X1303Y3863D02*
X1323D01*
X1304Y1460D02*
X1324D01*
X1304Y1548D02*
X1324D01*
X1304Y1635D02*
X1324D01*
X1304Y1722D02*
X1324D01*
X1304Y1810D02*
X1324D01*
X1310Y2247D02*
Y2227D01*
Y2269D02*
Y2288D01*
X1321Y2258D02*
X1341D01*
X1369Y1460D02*
X1349D01*
X1369Y1548D02*
X1349D01*
X1369Y1635D02*
X1349D01*
X1369Y1722D02*
X1349D01*
X1369Y1810D02*
X1349D01*
X1379Y2258D02*
X1359D01*
X1380Y1449D02*
Y1429D01*
Y1471D02*
Y1491D01*
Y1537D02*
Y1516D01*
Y1559D02*
Y1579D01*
Y1624D02*
Y1604D01*
Y1646D02*
Y1666D01*
Y1712D02*
Y1691D01*
Y1734D02*
Y1754D01*
Y1799D02*
Y1779D01*
Y1821D02*
Y1841D01*
X1390Y2247D02*
Y2227D01*
Y2269D02*
Y2288D01*
X1391Y1460D02*
X1411D01*
X1391Y1548D02*
X1411D01*
X1391Y1635D02*
X1411D01*
X1391Y1722D02*
X1411D01*
X1391Y1810D02*
X1411D01*
X1401Y2258D02*
X1421D01*
X1403Y3663D02*
X1383D01*
X1403Y3863D02*
X1383D01*
X1447Y2438D02*
X1427D01*
X1447Y2588D02*
X1427D01*
X1447Y2733D02*
X1427D01*
X1452Y2898D02*
X1432D01*
X1453Y3613D02*
Y3593D01*
Y3713D02*
Y3733D01*
Y3813D02*
Y3793D01*
X1457Y1460D02*
X1437D01*
X1457Y1548D02*
X1437D01*
X1457Y1635D02*
X1437D01*
X1457Y1722D02*
X1437D01*
X1457Y1810D02*
X1437D01*
X1458Y2427D02*
Y2407D01*
Y2449D02*
Y2469D01*
Y2577D02*
Y2557D01*
Y2599D02*
Y2619D01*
Y2722D02*
Y2702D01*
Y2744D02*
Y2764D01*
X1459Y2258D02*
X1439D01*
X1463Y2887D02*
Y2867D01*
Y2909D02*
Y2929D01*
X1468Y1449D02*
Y1429D01*
Y1471D02*
Y1491D01*
Y1537D02*
Y1516D01*
Y1559D02*
Y1579D01*
Y1624D02*
Y1604D01*
Y1646D02*
Y1666D01*
Y1712D02*
Y1691D01*
Y1734D02*
Y1754D01*
Y1799D02*
Y1779D01*
Y1821D02*
Y1841D01*
X1469Y2438D02*
X1489D01*
X1469Y2588D02*
X1489D01*
X1469Y2733D02*
X1489D01*
X1470Y2247D02*
Y2227D01*
Y2269D02*
Y2288D01*
X1474Y2898D02*
X1494D01*
X1479Y1460D02*
X1499D01*
X1479Y1548D02*
X1499D01*
X1479Y1635D02*
X1499D01*
X1479Y1722D02*
X1499D01*
X1479Y1810D02*
X1499D01*
X1481Y2258D02*
X1501D01*
X1503Y3663D02*
X1523D01*
X1503Y3863D02*
X1523D01*
X1507Y3138D02*
X1486D01*
X1518Y3127D02*
Y3107D01*
Y3149D02*
Y3168D01*
X1529Y3138D02*
X1549D01*
X1542Y1548D02*
X1522D01*
X1544Y1460D02*
X1524D01*
X1544Y1635D02*
X1524D01*
X1544Y1722D02*
X1524D01*
X1544Y1810D02*
X1524D01*
X1553Y1537D02*
Y1516D01*
Y1559D02*
Y1579D01*
X1555Y1449D02*
Y1429D01*
Y1471D02*
Y1491D01*
Y1624D02*
Y1604D01*
Y1646D02*
Y1666D01*
Y1712D02*
Y1691D01*
Y1734D02*
Y1754D01*
Y1799D02*
Y1779D01*
Y1821D02*
Y1841D01*
X1563Y1548D02*
X1584D01*
X1566Y1460D02*
X1586D01*
X1566Y1635D02*
X1586D01*
X1566Y1722D02*
X1586D01*
X1566Y1810D02*
X1586D01*
X1629Y2168D02*
X1609D01*
X1640Y2157D02*
Y2137D01*
Y2179D02*
Y2199D01*
X1651Y2168D02*
X1671D01*
X1745Y248D02*
X1725D01*
X1753Y3663D02*
X1733D01*
X1753Y3863D02*
X1733D01*
X1768Y225D02*
Y205D01*
Y271D02*
Y291D01*
X1791Y248D02*
X1811D01*
X1803Y3613D02*
Y3593D01*
Y3713D02*
Y3733D01*
Y3813D02*
Y3793D01*
X1853Y3663D02*
X1873D01*
X1853Y3863D02*
X1873D01*
X1877Y1523D02*
X1857D01*
X1888Y1512D02*
Y1492D01*
Y1534D02*
Y1554D01*
X1899Y1523D02*
X1919D01*
X1937Y1653D02*
X1916D01*
X1937Y1803D02*
X1916D01*
X1948Y1641D02*
Y1622D01*
Y1663D02*
Y1684D01*
Y1791D02*
Y1772D01*
Y1813D02*
Y1834D01*
X1953Y3663D02*
X1933D01*
X1953Y3863D02*
X1933D01*
X1959Y1653D02*
X1979D01*
X1959Y1803D02*
X1979D01*
X1995Y248D02*
X1975D01*
X2003Y3613D02*
Y3593D01*
Y3713D02*
Y3733D01*
Y3813D02*
Y3793D01*
X2018Y225D02*
Y205D01*
Y271D02*
Y291D01*
X2041Y248D02*
X2061D01*
X2053Y3663D02*
X2072D01*
X2053Y3863D02*
X2072D01*
X2200Y2958D02*
X2180D01*
X2203Y3663D02*
X2183D01*
X2203Y3863D02*
X2183D01*
X2223Y2935D02*
Y2915D01*
Y2981D02*
Y3001D01*
X2246Y2958D02*
X2266D01*
X2253Y3613D02*
Y3593D01*
Y3713D02*
Y3733D01*
Y3813D02*
Y3793D01*
X2303Y3663D02*
X2322D01*
X2303Y3863D02*
X2322D01*
X2360Y1238D02*
X2340D01*
X2383Y1215D02*
Y1195D01*
Y1261D02*
Y1281D01*
X2403Y3663D02*
X2383D01*
X2403Y3863D02*
X2383D01*
X2406Y1238D02*
X2426D01*
X2453Y3613D02*
Y3593D01*
Y3713D02*
Y3733D01*
Y3813D02*
Y3793D01*
X2503Y3663D02*
X2523D01*
X2503Y3863D02*
X2523D01*
X2653Y3663D02*
X2633D01*
X2653Y3863D02*
X2633D01*
X2703Y3613D02*
Y3593D01*
Y3713D02*
Y3733D01*
Y3813D02*
Y3793D01*
X2745Y1333D02*
X2725D01*
X2745Y3033D02*
X2725D01*
X2753Y3663D02*
X2773D01*
X2753Y3863D02*
X2773D01*
X2768Y1310D02*
Y1290D01*
Y1356D02*
Y1375D01*
Y3010D02*
Y2990D01*
Y3056D02*
Y3076D01*
X2791Y1333D02*
X2811D01*
X2791Y3033D02*
X2811D01*
X2853Y3663D02*
X2833D01*
X2853Y3863D02*
X2833D01*
X2903Y3613D02*
Y3593D01*
Y3713D02*
Y3733D01*
Y3813D02*
Y3793D01*
X2905Y3413D02*
X2885D01*
X2928Y3389D02*
Y3370D01*
Y3436D02*
Y3456D01*
X2945Y1333D02*
X2925D01*
X2951Y3413D02*
X2970D01*
X2953Y3663D02*
X2973D01*
X2953Y3863D02*
X2973D01*
X2968Y1310D02*
Y1290D01*
Y1356D02*
Y1375D01*
X2991Y1333D02*
X3011D01*
X3196Y3581D02*
X3176D01*
X3279Y3498D02*
Y3478D01*
Y3663D02*
Y3683D01*
X3332Y2178D02*
X3312D01*
X3332Y2543D02*
X3312D01*
X3343Y2167D02*
Y2147D01*
Y2188D02*
Y2209D01*
Y2532D02*
Y2512D01*
Y2554D02*
Y2574D01*
X3353Y2178D02*
X3374D01*
X3353Y2543D02*
X3374D01*
X3361Y3581D02*
X3381D01*
X3517Y1413D02*
X3497D01*
X3525Y3531D02*
X3505D01*
X3528Y1402D02*
Y1382D01*
Y1424D02*
Y1444D01*
X3538Y1413D02*
X3559D01*
X3555Y3501D02*
Y3481D01*
Y3561D02*
Y3581D01*
X3585Y3531D02*
X3605D01*
X3612Y1683D02*
X3592D01*
X3623Y1672D02*
Y1652D01*
Y1694D02*
Y1714D01*
X3634Y1683D02*
X3654D01*
X3682Y2228D02*
X3662D01*
X3693Y2217D02*
Y2197D01*
Y2239D02*
Y2259D01*
X3703Y2228D02*
X3724D01*
X3837Y1828D02*
X3817D01*
X3848Y1816D02*
Y1797D01*
Y1839D02*
Y1859D01*
X3859Y1828D02*
X3878D01*
X3997Y1813D02*
X3977D01*
X4008Y1802D02*
Y1782D01*
Y1824D02*
Y1844D01*
X4019Y1813D02*
X4038D01*
X4129Y2181D02*
X4109D01*
X4129Y2546D02*
X4109D01*
X4140Y2170D02*
Y2150D01*
Y2192D02*
Y2212D01*
Y2535D02*
Y2515D01*
Y2557D02*
Y2577D01*
X4151Y2181D02*
X4171D01*
X4151Y2546D02*
X4171D01*
X4180Y3581D02*
X4160D01*
X4263Y3498D02*
Y3478D01*
Y3663D02*
Y3683D01*
X4309Y1411D02*
X4289D01*
X4320Y1400D02*
Y1380D01*
Y1422D02*
Y1442D01*
X4331Y1411D02*
X4351D01*
X4345Y3581D02*
X4365D01*
X4404Y1686D02*
X4384D01*
X4415Y1675D02*
Y1655D01*
Y1697D02*
Y1717D01*
X4426Y1686D02*
X4446D01*
X4454Y2241D02*
X4434D01*
X4465Y2230D02*
Y2210D01*
Y2252D02*
Y2272D01*
X4476Y2241D02*
X4496D01*
X4629Y1816D02*
X4609D01*
X4630Y3581D02*
X4610D01*
X4640Y1805D02*
Y1785D01*
Y1827D02*
Y1847D01*
X4651Y1816D02*
X4671D01*
X4713Y3498D02*
Y3478D01*
Y3663D02*
Y3683D01*
X4789Y1811D02*
X4769D01*
X4795Y3581D02*
X4815D01*
X4800Y1800D02*
Y1780D01*
Y1822D02*
Y1842D01*
X4811Y1811D02*
X4831D01*
X4959Y3531D02*
X4939D01*
X4989Y3501D02*
Y3481D01*
Y3561D02*
Y3581D01*
X5019Y3531D02*
X5039D01*
X5148Y858D02*
X5128D01*
X5173Y833D02*
Y813D01*
Y883D02*
Y903D01*
X5198Y858D02*
X5218D01*
X5427Y168D02*
X5407D01*
X5438Y157D02*
Y137D01*
Y178D02*
Y199D01*
X5449Y168D02*
X5468D01*
X5449Y2528D02*
X5430D01*
X5449Y2683D02*
X5430D01*
X5456Y856D02*
X5442Y842D01*
X5456Y889D02*
X5442Y903D01*
X5456Y1016D02*
X5442Y1002D01*
X5456Y1049D02*
X5442Y1063D01*
X5462Y1268D02*
X5441D01*
X5462Y1423D02*
X5441D01*
X5473Y1257D02*
Y1236D01*
Y1279D02*
Y1299D01*
Y1412D02*
Y1391D01*
Y1434D02*
Y1454D01*
Y2505D02*
Y2485D01*
Y2551D02*
Y2570D01*
Y2660D02*
Y2640D01*
Y2706D02*
Y2726D01*
X5484Y1268D02*
X5503D01*
X5484Y1423D02*
X5503D01*
X5489Y856D02*
X5503Y842D01*
X5489Y889D02*
X5503Y903D01*
X5489Y1016D02*
X5503Y1002D01*
X5489Y1049D02*
X5503Y1063D01*
X5496Y2528D02*
X5516D01*
X5496Y2683D02*
X5516D01*
X5614Y3581D02*
X5594D01*
X5697Y3498D02*
Y3478D01*
Y3663D02*
Y3683D01*
X5760Y2528D02*
X5739D01*
X5760Y2683D02*
X5739D01*
X5766Y856D02*
X5752Y842D01*
X5766Y889D02*
X5752Y903D01*
X5766Y1016D02*
X5752Y1002D01*
X5766Y1049D02*
X5752Y1063D01*
X5766Y1251D02*
X5752Y1237D01*
X5766Y1284D02*
X5752Y1298D01*
X5766Y1331D02*
X5752Y1317D01*
X5766Y1364D02*
X5752Y1378D01*
X5779Y3581D02*
X5799D01*
X5783Y2505D02*
Y2485D01*
Y2551D02*
Y2570D01*
Y2660D02*
Y2640D01*
Y2706D02*
Y2726D01*
X5799Y856D02*
X5813Y842D01*
X5799Y889D02*
X5813Y903D01*
X5799Y1016D02*
X5813Y1002D01*
X5799Y1049D02*
X5813Y1063D01*
X5799Y1251D02*
X5813Y1237D01*
X5799Y1284D02*
X5813Y1298D01*
X5799Y1331D02*
X5813Y1317D01*
X5799Y1364D02*
X5813Y1378D01*
X5806Y2528D02*
X5826D01*
X5806Y2683D02*
X5826D01*
D02*
D12*
X278Y278D03*
Y3203D03*
X5628Y278D03*
Y3203D03*
D02*
D13*
X2873Y258D03*
Y858D03*
X2973Y258D03*
Y858D03*
X3073Y258D03*
Y858D03*
X3173Y258D03*
Y858D03*
X3273Y258D03*
Y858D03*
X3373Y258D03*
Y858D03*
X3473Y258D03*
Y858D03*
X3572Y258D03*
Y858D03*
X3673Y258D03*
Y858D03*
X3773Y258D03*
Y858D03*
X3873Y258D03*
Y858D03*
X3973Y258D03*
Y858D03*
X4072Y258D03*
Y858D03*
X4173Y258D03*
Y858D03*
X4273Y258D03*
Y858D03*
X4372Y258D03*
Y858D03*
X4473Y258D03*
Y858D03*
X4572Y258D03*
Y858D03*
X4673Y258D03*
Y858D03*
X4773Y258D03*
Y858D03*
X4872Y258D03*
Y858D03*
X4973Y258D03*
Y858D03*
X5072Y258D03*
Y858D03*
X5173Y258D03*
Y858D03*
D02*
D14*
X3599Y3259D03*
Y3359D03*
X3828Y3257D03*
Y3358D03*
X5021Y3258D03*
Y3358D03*
X5258Y3257D03*
Y3358D03*
D02*
D15*
X803Y3763D03*
X1353D03*
X1903D03*
X2353D03*
X2803D03*
D02*
D16*
X703Y3663D03*
Y3863D03*
X903Y3663D03*
Y3863D03*
X1252Y3663D03*
Y3863D03*
X1453Y3663D03*
Y3863D03*
X1803Y3663D03*
Y3863D03*
X2003Y3663D03*
Y3863D03*
X2253Y3663D03*
Y3863D03*
X2453Y3663D03*
Y3863D03*
X2703Y3663D03*
Y3863D03*
X2903Y3663D03*
Y3863D03*
D02*
D17*
X3555Y3531D03*
X3609Y3631D03*
X3663Y3531D03*
X3717Y3631D03*
X3771Y3531D03*
X3825Y3631D03*
X3879Y3531D03*
X3933Y3631D03*
X3987Y3531D03*
X4989D03*
X5043Y3631D03*
X5097Y3531D03*
X5151Y3631D03*
X5205Y3531D03*
X5259Y3631D03*
X5313Y3531D03*
X5367Y3631D03*
X5421Y3531D03*
D02*
D18*
X3279Y3581D03*
X4263D03*
X4713D03*
X5697D03*
D02*
D19*
X598Y1983D03*
X768Y248D03*
X1028Y243D03*
X1273Y333D03*
X1768Y248D03*
X2018D03*
X2103Y3128D03*
X2223Y2958D03*
X2273Y338D03*
X2383Y1238D03*
X2643Y1328D03*
X2768Y1333D03*
Y3033D03*
X2803Y3243D03*
X2928Y3413D03*
X2968Y1333D03*
X5363Y513D03*
X5463Y618D03*
X5468Y953D03*
X5473Y793D03*
Y873D03*
Y1033D03*
Y2528D03*
Y2683D03*
X5783Y793D03*
Y873D03*
Y953D03*
Y1033D03*
Y1268D03*
Y1348D03*
Y2528D03*
Y2683D03*
D02*
D70*
X98Y3468D03*
X258Y3728D03*
X338Y928D03*
X428D03*
X493Y1888D03*
Y2192D03*
X523Y3453D03*
X527Y1823D03*
X548Y1448D03*
X598Y3283D03*
X608Y3498D03*
X688Y1883D03*
X693Y1558D03*
Y2963D03*
X748Y2283D03*
X788Y1868D03*
X808Y583D03*
X860Y2083D03*
X885Y2208D03*
X892Y643D03*
X898Y2438D03*
Y2588D03*
Y2733D03*
X903Y2893D03*
X908Y1373D03*
Y1548D03*
X963Y3133D03*
X968Y1223D03*
X978Y583D03*
X983Y3048D03*
X998Y1763D03*
Y1843D03*
X1058Y1942D03*
X1138Y2168D03*
X1163Y3288D03*
Y3498D03*
X1205Y1460D03*
Y1548D03*
Y1635D03*
Y1722D03*
Y1810D03*
X1248Y2963D03*
X1293Y1460D03*
Y1548D03*
Y1635D03*
Y1722D03*
Y1810D03*
Y1998D03*
X1310Y2258D03*
X1380Y1460D03*
Y1548D03*
Y1635D03*
Y1722D03*
Y1810D03*
X1390Y2043D03*
Y2258D03*
X1408Y1218D03*
X1458Y2438D03*
Y2588D03*
Y2733D03*
X1463Y2898D03*
X1468Y1460D03*
Y1548D03*
Y1635D03*
Y1722D03*
Y1810D03*
X1470Y2258D03*
X1518Y3138D03*
X1538Y3048D03*
X1553Y1548D03*
X1555Y1460D03*
Y1635D03*
Y1722D03*
Y1810D03*
X1640Y2168D03*
X1783Y2103D03*
X1798Y1523D03*
Y1713D03*
Y1863D03*
X1803Y588D03*
X1888Y1523D03*
X1893Y648D03*
X1948Y1653D03*
Y1803D03*
X1978Y588D03*
X3343Y2178D03*
Y2543D03*
X3438Y1423D03*
X3528Y1413D03*
X3558Y2217D03*
X3593Y1558D03*
X3598Y2698D03*
X3623Y1683D03*
X3638Y1813D03*
X3658Y2263D03*
Y2308D03*
X3683Y1813D03*
X3693Y2228D03*
X3728Y2342D03*
X3733Y1813D03*
X3773Y2342D03*
X3793Y2217D03*
X3848Y1828D03*
X4008Y1813D03*
X4028Y2033D03*
X4140Y2181D03*
Y2546D03*
X4228Y1418D03*
X4320Y1411D03*
X4355Y2221D03*
X4380Y1556D03*
X4415Y1686D03*
X4430Y1816D03*
X4465Y2241D03*
X4480Y1816D03*
X4500Y2336D03*
X4525Y1816D03*
X4545Y2336D03*
X4580Y2216D03*
X4585Y2276D03*
X4630D03*
X4640Y1816D03*
X4800Y1811D03*
X4820Y2026D03*
X5023Y2703D03*
X5438Y168D03*
Y258D03*
X5453Y1740D03*
X5473Y1268D03*
Y1423D03*
X5486Y1816D03*
X5591Y2369D03*
X5592Y2213D03*
Y2449D03*
X5593Y1188D03*
Y1345D03*
Y1976D03*
Y2054D03*
Y2133D03*
Y2291D03*
Y2606D03*
X5594Y1109D03*
Y1897D03*
X5595Y1503D03*
X5628Y1582D03*
X5629Y1661D03*
X5663Y1110D03*
Y1188D03*
Y1425D03*
Y1503D03*
Y1897D03*
Y1976D03*
Y2054D03*
Y2133D03*
Y2212D03*
Y2291D03*
Y2369D03*
Y2448D03*
Y2606D03*
X5775Y1542D03*
Y1621D03*
Y1700D03*
Y1780D03*
X0Y0D02*
M02*
