  0
SECTION
  2
HEADER
  9
$ACADVER
  1
AC1009
  9
$EXTMIN
 10
0.0
 20
0.0
 30
0.0
  9
$EXTMAX
 10
1000.0
 20
1000.0
 30
0.0
  9
$FILLMODE
 70
 0
  9
$SPLFRAME
 70
 1
  0
ENDSEC
  0
SECTION
  2
TABLES
  0
TABLE
  2
LAYER
 70
1
  0
LAYER
  2
0
 70
     0
 62
     7
  6
CONTINUOUS
  0
ENDTAB
  0
ENDSEC
  0
SECTION
  2
ENTITIES
  0
POLYLINE
  8
0
 62
     92
 66
     1
 10
0
 20
0
 30
0.0
 70
     1
 40
0
 41
0
  0
VERTEX
  8
0
 10
0.751953
 20
0.616482
 30
0.0
 40
0
 41
0
  0
VERTEX
  8
0
 10
0.718804
 20
0.666775
 30
0.0
 40
0
 41
0
  0
VERTEX
  8
0
 10
0.693685
 20
0.702094
 30
0.0
 40
0
 41
0
  0
VERTEX
  8
0
 10
0.670356
 20
0.730524
 30
0.0
 40
0
 41
0
  0
VERTEX
  8
0
 10
0.64274
 20
0.760308
 30
0.0
 40
0
 41
0
  0
VERTEX
  8
0
 10
0.62679
 20
0.776204
 30
0.0
 40
0
 41
0
  0
VERTEX
  8
0
 10
0.605089
 20
0.796875
 30
0.0
 40
0
 41
0
  0
VERTEX
  8
0
 10
0.580513
 20
0.819661
 30
0.0
 40
0
 41
0
  0
VERTEX
  8
0
 10
0.555881
 20
0.841851
 30
0.0
 40
0
 41
0
  0
VERTEX
  8
0
 10
0.514322
 20
0.878961
 30
0.0
 40
0
 41
0
  0
VERTEX
  8
0
 10
0.48839
 20
0.902615
 30
0.0
 40
0
 41
0
  0
VERTEX
  8
0
 10
0.474989
 20
0.915799
 30
0.0
 40
0
 41
0
  0
VERTEX
  8
0
 10
0.471246
 20
0.921169
 30
0.0
 40
0
 41
0
  0
VERTEX
  8
0
 10
0.478678
 20
0.931044
 30
0.0
 40
0
 41
0
  0
VERTEX
  8
0
 10
0.500108
 20
0.95101
 30
0.0
 40
0
 41
0
  0
VERTEX
  8
0
 10
0.533908
 20
0.97971
 30
0.0
 40
0
 41
0
  0
VERTEX
  8
0
 10
0.578668
 20
1.01579
 30
0.0
 40
0
 41
0
  0
VERTEX
  8
0
 10
0.610243
 20
1.04047
 30
0.0
 40
0
 41
0
  0
VERTEX
  8
0
 10
0.630479
 20
1.05496
 30
0.0
 40
0
 41
0
  0
VERTEX
  8
0
 10
0.643175
 20
1.06179
 30
0.0
 40
0
 41
0
  0
VERTEX
  8
0
 10
0.652399
 20
1.06348
 30
0.0
 40
0
 41
0
  0
VERTEX
  8
0
 10
0.661729
 20
1.06348
 30
0.0
 40
0
 41
0
  0
VERTEX
  8
0
 10
0.673122
 20
1.03689
 30
0.0
 40
0
 41
0
  0
VERTEX
  8
0
 10
0.693847
 20
0.98915
 30
0.0
 40
0
 41
0
  0
VERTEX
  8
0
 10
0.714899
 20
0.941949
 30
0.0
 40
0
 41
0
  0
VERTEX
  8
0
 10
0.732206
 20
0.904189
 30
0.0
 40
0
 41
0
  0
VERTEX
  8
0
 10
0.741808
 20
0.884603
 30
0.0
 40
0
 41
0
  0
VERTEX
  8
0
 10
0.753256
 20
0.872287
 30
0.0
 40
0
 41
0
  0
VERTEX
  8
0
 10
0.765028
 20
0.87321
 30
0.0
 40
0
 41
0
  0
VERTEX
  8
0
 10
0.773167
 20
0.884494
 30
0.0
 40
0
 41
0
  0
VERTEX
  8
0
 10
0.786838
 20
0.909668
 30
0.0
 40
0
 41
0
  0
VERTEX
  8
0
 10
0.804308
 20
0.945475
 30
0.0
 40
0
 41
0
  0
VERTEX
  8
0
 10
0.823893
 20
0.988607
 30
0.0
 40
0
 41
0
  0
VERTEX
  8
0
 10
0.845594
 20
1.03575
 30
0.0
 40
0
 41
0
  0
VERTEX
  8
0
 10
0.872885
 20
1.09169
 30
0.0
 40
0
 41
0
  0
VERTEX
  8
0
 10
0.901531
 20
1.14789
 30
0.0
 40
0
 41
0
  0
VERTEX
  8
0
 10
0.927246
 20
1.19586
 30
0.0
 40
0
 41
0
  0
VERTEX
  8
0
 10
0.957574
 20
1.24832
 30
0.0
 40
0
 41
0
  0
VERTEX
  8
0
 10
0.989529
 20
1.2998
 30
0.0
 40
0
 41
0
  0
VERTEX
  8
0
 10
1.01942
 20
1.34489
 30
0.0
 40
0
 41
0
  0
VERTEX
  8
0
 10
1.04389
 20
1.37798
 30
0.0
 40
0
 41
0
  0
VERTEX
  8
0
 10
1.05968
 20
1.39638
 30
0.0
 40
0
 41
0
  0
VERTEX
  8
0
 10
1.07818
 20
1.41607
 30
0.0
 40
0
 41
0
  0
VERTEX
  8
0
 10
1.09798
 20
1.43588
 30
0.0
 40
0
 41
0
  0
VERTEX
  8
0
 10
1.11768
 20
1.45454
 30
0.0
 40
0
 41
0
  0
VERTEX
  8
0
 10
1.13591
 20
1.47076
 30
0.0
 40
0
 41
0
  0
VERTEX
  8
0
 10
1.15126
 20
1.48335
 30
0.0
 40
0
 41
0
  0
VERTEX
  8
0
 10
1.16238
 20
1.49094
 30
0.0
 40
0
 41
0
  0
VERTEX
  8
0
 10
1.16781
 20
1.49235
 30
0.0
 40
0
 41
0
  0
VERTEX
  8
0
 10
1.16526
 20
1.49013
 30
0.0
 40
0
 41
0
  0
VERTEX
  8
0
 10
1.15918
 20
1.48628
 30
0.0
 40
0
 41
0
  0
VERTEX
  8
0
 10
1.1537
 20
1.48324
 30
0.0
 40
0
 41
0
  0
VERTEX
  8
0
 10
1.15305
 20
1.48356
 30
0.0
 40
0
 41
0
  0
VERTEX
  8
0
 10
1.16905
 20
1.49349
 30
0.0
 40
0
 41
0
  0
VERTEX
  8
0
 10
1.17703
 20
1.48633
 30
0.0
 40
0
 41
0
  0
VERTEX
  8
0
 10
1.17909
 20
1.46436
 30
0.0
 40
0
 41
0
  0
VERTEX
  8
0
 10
1.17746
 20
1.42979
 30
0.0
 40
0
 41
0
  0
VERTEX
  8
0
 10
1.17426
 20
1.38487
 30
0.0
 40
0
 41
0
  0
VERTEX
  8
0
 10
1.1716
 20
1.33176
 30
0.0
 40
0
 41
0
  0
VERTEX
  8
0
 10
1.1716
 20
1.27273
 30
0.0
 40
0
 41
0
  0
VERTEX
  8
0
 10
1.17649
 20
1.20996
 30
0.0
 40
0
 41
0
  0
VERTEX
  8
0
 10
1.17887
 20
1.17806
 30
0.0
 40
0
 41
0
  0
VERTEX
  8
0
 10
1.17594
 20
1.15902
 30
0.0
 40
0
 41
0
  0
VERTEX
  8
0
 10
1.16786
 20
1.14681
 30
0.0
 40
0
 41
0
  0
VERTEX
  8
0
 10
1.15462
 20
1.13509
 30
0.0
 40
0
 41
0
  0
VERTEX
  8
0
 10
1.10807
 20
1.09418
 30
0.0
 40
0
 41
0
  0
VERTEX
  8
0
 10
1.07107
 20
1.05778
 30
0.0
 40
0
 41
0
  0
VERTEX
  8
0
 10
1.03771
 20
1.01964
 30
0.0
 40
0
 41
0
  0
VERTEX
  8
0
 10
1.00206
 20
0.973579
 30
0.0
 40
0
 41
0
  0
VERTEX
  8
0
 10
0.886501
 20
0.806099
 30
0.0
 40
0
 41
0
  0
VERTEX
  8
0
 10
0.800618
 20
0.649306
 30
0.0
 40
0
 41
0
  0
VERTEX
  8
0
 10
0.785644
 20
0.619086
 30
0.0
 40
0
 41
0
  0
VERTEX
  8
0
 10
0.77691
 20
0.602919
 30
0.0
 40
0
 41
0
  0
VERTEX
  8
0
 10
0.766928
 20
0.597928
 30
0.0
 40
0
 41
0
  0
VERTEX
  8
0
 10
0.751953
 20
0.616482
 30
0.0
 40
0
 41
0
  0
SEQEND
 8
0
  0
POLYLINE
  8
0
 62
     92
 66
     1
 10
0
 20
0
 30
0.0
 70
     1
 40
0
 41
0
  0
VERTEX
  8
0
 10
0.795301
 20
0.00108507
 30
0.0
 40
0
 41
0
  0
VERTEX
  8
0
 10
0.736382
 20
0.007704
 30
0.0
 40
0
 41
0
  0
VERTEX
  8
0
 10
0.685601
 20
0.0160047
 30
0.0
 40
0
 41
0
  0
VERTEX
  8
0
 10
0.638346
 20
0.0268554
 30
0.0
 40
0
 41
0
  0
VERTEX
  8
0
 10
0.590007
 20
0.0411242
 30
0.0
 40
0
 41
0
  0
VERTEX
  8
0
 10
0.459472
 20
0.0957574
 30
0.0
 40
0
 41
0
  0
VERTEX
  8
0
 10
0.34044
 20
0.170736
 30
0.0
 40
0
 41
0
  0
VERTEX
  8
0
 10
0.235189
 20
0.264432
 30
0.0
 40
0
 41
0
  0
VERTEX
  8
0
 10
0.145942
 20
0.375108
 30
0.0
 40
0
 41
0
  0
VERTEX
  8
0
 10
0.0543619
 20
0.549968
 30
0.0
 40
0
 41
0
  0
VERTEX
  8
0
 10
0.00493707
 20
0.745606
 30
0.0
 40
0
 41
0
  0
VERTEX
  8
0
 10
0.00238715
 20
0.766004
 30
0.0
 40
0
 41
0
  0
VERTEX
  8
0
 10
0.000868056
 20
0.786512
 30
0.0
 40
0
 41
0
  0
VERTEX
  8
0
 10
0.000162761
 20
0.813314
 30
0.0
 40
0
 41
0
  0
VERTEX
  8
0
 10
0
 20
0.852539
 30
0.0
 40
0
 41
0
  0
VERTEX
  8
0
 10
0.000271267
 20
0.898708
 30
0.0
 40
0
 41
0
  0
VERTEX
  8
0
 10
0.00157335
 20
0.932075
 30
0.0
 40
0
 41
0
  0
VERTEX
  8
0
 10
0.00461154
 20
0.961643
 30
0.0
 40
0
 41
0
  0
VERTEX
  8
0
 10
0.00998264
 20
0.996528
 30
0.0
 40
0
 41
0
  0
VERTEX
  8
0
 10
0.0717774
 20
1.20242
 30
0.0
 40
0
 41
0
  0
VERTEX
  8
0
 10
0.181694
 20
1.38428
 30
0.0
 40
0
 41
0
  0
VERTEX
  8
0
 10
0.333279
 20
1.53396
 30
0.0
 40
0
 41
0
  0
VERTEX
  8
0
 10
0.519911
 20
1.64313
 30
0.0
 40
0
 41
0
  0
VERTEX
  8
0
 10
0.766656
 20
1.70665
 30
0.0
 40
0
 41
0
  0
VERTEX
  8
0
 10
1.02317
 20
1.69417
 30
0.0
 40
0
 41
0
  0
VERTEX
  8
0
 10
1.13992
 20
1.66206
 30
0.0
 40
0
 41
0
  0
VERTEX
  8
0
 10
1.24962
 20
1.61421
 30
0.0
 40
0
 41
0
  0
VERTEX
  8
0
 10
1.3508
 20
1.55197
 30
0.0
 40
0
 41
0
  0
VERTEX
  8
0
 10
1.44222
 20
1.47661
 30
0.0
 40
0
 41
0
  0
VERTEX
  8
0
 10
1.52246
 20
1.38943
 30
0.0
 40
0
 41
0
  0
VERTEX
  8
0
 10
1.59017
 20
1.29167
 30
0.0
 40
0
 41
0
  0
VERTEX
  8
0
 10
1.64404
 20
1.18462
 30
0.0
 40
0
 41
0
  0
VERTEX
  8
0
 10
1.68267
 20
1.06955
 30
0.0
 40
0
 41
0
  0
VERTEX
  8
0
 10
1.70822
 20
0.803222
 30
0.0
 40
0
 41
0
  0
VERTEX
  8
0
 10
1.65087
 20
0.54221
 30
0.0
 40
0
 41
0
  0
VERTEX
  8
0
 10
1.54818
 20
0.354492
 30
0.0
 40
0
 41
0
  0
VERTEX
  8
0
 10
1.40375
 20
0.199544
 30
0.0
 40
0
 41
0
  0
VERTEX
  8
0
 10
1.22597
 20
0.0844183
 30
0.0
 40
0
 41
0
  0
VERTEX
  8
0
 10
1.02317
 20
0.016059
 30
0.0
 40
0
 41
0
  0
VERTEX
  8
0
 10
0.938476
 20
0.00341797
 30
0.0
 40
0
 41
0
  0
VERTEX
  8
0
 10
0.85064
 20
-0
 30
0.0
 40
0
 41
0
  0
VERTEX
  8
0
 10
0.814669
 20
0.000488281
 30
0.0
 40
0
 41
0
  0
VERTEX
  8
0
 10
0.795301
 20
0.00108507
 30
0.0
 40
0
 41
0
  0
SEQEND
 8
0
  0
POLYLINE
  8
0
 62
     92
 66
     1
 10
0
 20
0
 30
0.0
 70
     1
 40
0
 41
0
  0
VERTEX
  8
0
 10
0.935275
 20
0.0605469
 30
0.0
 40
0
 41
0
  0
VERTEX
  8
0
 10
1.10699
 20
0.0974935
 30
0.0
 40
0
 41
0
  0
VERTEX
  8
0
 10
1.26497
 20
0.170844
 30
0.0
 40
0
 41
0
  0
VERTEX
  8
0
 10
1.4036
 20
0.277126
 30
0.0
 40
0
 41
0
  0
VERTEX
  8
0
 10
1.51731
 20
0.413086
 30
0.0
 40
0
 41
0
  0
VERTEX
  8
0
 10
1.59972
 20
0.57666
 30
0.0
 40
0
 41
0
  0
VERTEX
  8
0
 10
1.64187
 20
0.753797
 30
0.0
 40
0
 41
0
  0
VERTEX
  8
0
 10
1.64274
 20
0.936253
 30
0.0
 40
0
 41
0
  0
VERTEX
  8
0
 10
1.60135
 20
1.11561
 30
0.0
 40
0
 41
0
  0
VERTEX
  8
0
 10
1.54699
 20
1.23508
 30
0.0
 40
0
 41
0
  0
VERTEX
  8
0
 10
1.47439
 20
1.34283
 30
0.0
 40
0
 41
0
  0
VERTEX
  8
0
 10
1.38466
 20
1.43756
 30
0.0
 40
0
 41
0
  0
VERTEX
  8
0
 10
1.27881
 20
1.5179
 30
0.0
 40
0
 41
0
  0
VERTEX
  8
0
 10
1.2468
 20
1.53668
 30
0.0
 40
0
 41
0
  0
VERTEX
  8
0
 10
1.20784
 20
1.55701
 30
0.0
 40
0
 41
0
  0
VERTEX
  8
0
 10
1.16819
 20
1.57585
 30
0.0
 40
0
 41
0
  0
VERTEX
  8
0
 10
1.13384
 20
1.59006
 30
0.0
 40
0
 41
0
  0
VERTEX
  8
0
 10
0.910428
 20
1.63829
 30
0.0
 40
0
 41
0
  0
VERTEX
  8
0
 10
0.687663
 20
1.62213
 30
0.0
 40
0
 41
0
  0
VERTEX
  8
0
 10
0.478569
 20
1.54443
 30
0.0
 40
0
 41
0
  0
VERTEX
  8
0
 10
0.296169
 20
1.40804
 30
0.0
 40
0
 41
0
  0
VERTEX
  8
0
 10
0.177626
 20
1.25673
 30
0.0
 40
0
 41
0
  0
VERTEX
  8
0
 10
0.100043
 20
1.0842
 30
0.0
 40
0
 41
0
  0
VERTEX
  8
0
 10
0.0658094
 20
0.89784
 30
0.0
 40
0
 41
0
  0
VERTEX
  8
0
 10
0.0771485
 20
0.704969
 30
0.0
 40
0
 41
0
  0
VERTEX
  8
0
 10
0.130208
 20
0.531956
 30
0.0
 40
0
 41
0
  0
VERTEX
  8
0
 10
0.222385
 20
0.374024
 30
0.0
 40
0
 41
0
  0
VERTEX
  8
0
 10
0.239583
 20
0.351508
 30
0.0
 40
0
 41
0
  0
VERTEX
  8
0
 10
0.254557
 20
0.333333
 30
0.0
 40
0
 41
0
  0
VERTEX
  8
0
 10
0.270725
 20
0.315539
 30
0.0
 40
0
 41
0
  0
VERTEX
  8
0
 10
0.29145
 20
0.294
 30
0.0
 40
0
 41
0
  0
VERTEX
  8
0
 10
0.400608
 20
0.2009
 30
0.0
 40
0
 41
0
  0
VERTEX
  8
0
 10
0.522786
 20
0.1301
 30
0.0
 40
0
 41
0
  0
VERTEX
  8
0
 10
0.656304
 20
0.0823568
 30
0.0
 40
0
 41
0
  0
VERTEX
  8
0
 10
0.799642
 20
0.0583767
 30
0.0
 40
0
 41
0
  0
VERTEX
  8
0
 10
0.82845
 20
0.0572374
 30
0.0
 40
0
 41
0
  0
VERTEX
  8
0
 10
0.865776
 20
0.057346
 30
0.0
 40
0
 41
0
  0
VERTEX
  8
0
 10
0.903917
 20
0.0584853
 30
0.0
 40
0
 41
0
  0
VERTEX
  8
0
 10
0.935275
 20
0.0605469
 30
0.0
 40
0
 41
0
  0
SEQEND
 8
0
  0
POLYLINE
  8
0
 62
     92
 66
     1
 10
0
 20
0
 30
0.0
 70
     1
 40
0
 41
0
  0
VERTEX
  8
0
 10
0.363444
 20
0.445856
 30
0.0
 40
0
 41
0
  0
VERTEX
  8
0
 10
0.363444
 20
0.607747
 30
0.0
 40
0
 41
0
  0
VERTEX
  8
0
 10
0.423665
 20
0.606717
 30
0.0
 40
0
 41
0
  0
VERTEX
  8
0
 10
0.461806
 20
0.605794
 30
0.0
 40
0
 41
0
  0
VERTEX
  8
0
 10
0.485732
 20
0.60395
 30
0.0
 40
0
 41
0
  0
VERTEX
  8
0
 10
0.50179
 20
0.600478
 30
0.0
 40
0
 41
0
  0
VERTEX
  8
0
 10
0.516222
 20
0.594401
 30
0.0
 40
0
 41
0
  0
VERTEX
  8
0
 10
0.546224
 20
0.568685
 30
0.0
 40
0
 41
0
  0
VERTEX
  8
0
 10
0.560926
 20
0.529568
 30
0.0
 40
0
 41
0
  0
VERTEX
  8
0
 10
0.56071
 20
0.497775
 30
0.0
 40
0
 41
0
  0
VERTEX
  8
0
 10
0.551053
 20
0.471571
 30
0.0
 40
0
 41
0
  0
VERTEX
  8
0
 10
0.532497
 20
0.451986
 30
0.0
 40
0
 41
0
  0
VERTEX
  8
0
 10
0.50586
 20
0.44005
 30
0.0
 40
0
 41
0
  0
VERTEX
  8
0
 10
0.495335
 20
0.437392
 30
0.0
 40
0
 41
0
  0
VERTEX
  8
0
 10
0.506347
 20
0.432183
 30
0.0
 40
0
 41
0
  0
VERTEX
  8
0
 10
0.520182
 20
0.423611
 30
0.0
 40
0
 41
0
  0
VERTEX
  8
0
 10
0.533149
 20
0.408257
 30
0.0
 40
0
 41
0
  0
VERTEX
  8
0
 10
0.550076
 20
0.378797
 30
0.0
 40
0
 41
0
  0
VERTEX
  8
0
 10
0.5759
 20
0.327908
 30
0.0
 40
0
 41
0
  0
VERTEX
  8
0
 10
0.597711
 20
0.283962
 30
0.0
 40
0
 41
0
  0
VERTEX
  8
0
 10
0.553222
 20
0.283962
 30
0.0
 40
0
 41
0
  0
VERTEX
  8
0
 10
0.529676
 20
0.333876
 30
0.0
 40
0
 41
0
  0
VERTEX
  8
0
 10
0.510688
 20
0.372504
 30
0.0
 40
0
 41
0
  0
VERTEX
  8
0
 10
0.49821
 20
0.395128
 30
0.0
 40
0
 41
0
  0
VERTEX
  8
0
 10
0.486382
 20
0.408746
 30
0.0
 40
0
 41
0
  0
VERTEX
  8
0
 10
0.472114
 20
0.41721
 30
0.0
 40
0
 41
0
  0
VERTEX
  8
0
 10
0.452854
 20
0.42155
 30
0.0
 40
0
 41
0
  0
VERTEX
  8
0
 10
0.425836
 20
0.422797
 30
0.0
 40
0
 41
0
  0
VERTEX
  8
0
 10
0.406847
 20
0.422851
 30
0.0
 40
0
 41
0
  0
VERTEX
  8
0
 10
0.406847
 20
0.283962
 30
0.0
 40
0
 41
0
  0
VERTEX
  8
0
 10
0.363444
 20
0.283962
 30
0.0
 40
0
 41
0
  0
VERTEX
  8
0
 10
0.363444
 20
0.445856
 30
0.0
 40
0
 41
0
  0
SEQEND
 8
0
  0
POLYLINE
  8
0
 62
     92
 66
     1
 10
0
 20
0
 30
0.0
 70
     1
 40
0
 41
0
  0
VERTEX
  8
0
 10
0.473144
 20
0.457736
 30
0.0
 40
0
 41
0
  0
VERTEX
  8
0
 10
0.49566
 20
0.465929
 30
0.0
 40
0
 41
0
  0
VERTEX
  8
0
 10
0.510417
 20
0.480957
 30
0.0
 40
0
 41
0
  0
VERTEX
  8
0
 10
0.515463
 20
0.493056
 30
0.0
 40
0
 41
0
  0
VERTEX
  8
0
 10
0.516439
 20
0.512912
 30
0.0
 40
0
 41
0
  0
VERTEX
  8
0
 10
0.515517
 20
0.532607
 30
0.0
 40
0
 41
0
  0
VERTEX
  8
0
 10
0.511014
 20
0.544271
 30
0.0
 40
0
 41
0
  0
VERTEX
  8
0
 10
0.496149
 20
0.560926
 30
0.0
 40
0
 41
0
  0
VERTEX
  8
0
 10
0.476238
 20
0.570204
 30
0.0
 40
0
 41
0
  0
VERTEX
  8
0
 10
0.459853
 20
0.571886
 30
0.0
 40
0
 41
0
  0
VERTEX
  8
0
 10
0.436035
 20
0.572592
 30
0.0
 40
0
 41
0
  0
VERTEX
  8
0
 10
0.406847
 20
0.572592
 30
0.0
 40
0
 41
0
  0
VERTEX
  8
0
 10
0.406847
 20
0.455404
 30
0.0
 40
0
 41
0
  0
VERTEX
  8
0
 10
0.433539
 20
0.455404
 30
0.0
 40
0
 41
0
  0
VERTEX
  8
0
 10
0.456164
 20
0.456108
 30
0.0
 40
0
 41
0
  0
VERTEX
  8
0
 10
0.473144
 20
0.457736
 30
0.0
 40
0
 41
0
  0
SEQEND
 8
0
  0
POLYLINE
  8
0
 62
     92
 66
     1
 10
0
 20
0
 30
0.0
 70
     1
 40
0
 41
0
  0
VERTEX
  8
0
 10
0.697265
 20
0.283692
 30
0.0
 40
0
 41
0
  0
VERTEX
  8
0
 10
0.677083
 20
0.29286
 30
0.0
 40
0
 41
0
  0
VERTEX
  8
0
 10
0.660156
 20
0.307508
 30
0.0
 40
0
 41
0
  0
VERTEX
  8
0
 10
0.638943
 20
0.342936
 30
0.0
 40
0
 41
0
  0
VERTEX
  8
0
 10
0.630914
 20
0.394043
 30
0.0
 40
0
 41
0
  0
VERTEX
  8
0
 10
0.639051
 20
0.466906
 30
0.0
 40
0
 41
0
  0
VERTEX
  8
0
 10
0.671007
 20
0.513183
 30
0.0
 40
0
 41
0
  0
VERTEX
  8
0
 10
0.696289
 20
0.525771
 30
0.0
 40
0
 41
0
  0
VERTEX
  8
0
 10
0.727051
 20
0.531142
 30
0.0
 40
0
 41
0
  0
VERTEX
  8
0
 10
0.75841
 20
0.529135
 30
0.0
 40
0
 41
0
  0
VERTEX
  8
0
 10
0.78559
 20
0.519422
 30
0.0
 40
0
 41
0
  0
VERTEX
  8
0
 10
0.804688
 20
0.503093
 30
0.0
 40
0
 41
0
  0
VERTEX
  8
0
 10
0.820204
 20
0.4815
 30
0.0
 40
0
 41
0
  0
VERTEX
  8
0
 10
0.833604
 20
0.435275
 30
0.0
 40
0
 41
0
  0
VERTEX
  8
0
 10
0.834472
 20
0.380697
 30
0.0
 40
0
 41
0
  0
VERTEX
  8
0
 10
0.815213
 20
0.319769
 30
0.0
 40
0
 41
0
  0
VERTEX
  8
0
 10
0.774143
 20
0.285915
 30
0.0
 40
0
 41
0
  0
VERTEX
  8
0
 10
0.735786
 20
0.280003
 30
0.0
 40
0
 41
0
  0
VERTEX
  8
0
 10
0.697265
 20
0.283692
 30
0.0
 40
0
 41
0
  0
SEQEND
 8
0
  0
POLYLINE
  8
0
 62
     92
 66
     1
 10
0
 20
0
 30
0.0
 70
     1
 40
0
 41
0
  0
VERTEX
  8
0
 10
0.760525
 20
0.317165
 30
0.0
 40
0
 41
0
  0
VERTEX
  8
0
 10
0.777507
 20
0.332086
 30
0.0
 40
0
 41
0
  0
VERTEX
  8
0
 10
0.789279
 20
0.356228
 30
0.0
 40
0
 41
0
  0
VERTEX
  8
0
 10
0.793078
 20
0.377225
 30
0.0
 40
0
 41
0
  0
VERTEX
  8
0
 10
0.794542
 20
0.40446
 30
0.0
 40
0
 41
0
  0
VERTEX
  8
0
 10
0.793619
 20
0.431532
 30
0.0
 40
0
 41
0
  0
VERTEX
  8
0
 10
0.790256
 20
0.452149
 30
0.0
 40
0
 41
0
  0
VERTEX
  8
0
 10
0.768826
 20
0.487576
 30
0.0
 40
0
 41
0
  0
VERTEX
  8
0
 10
0.732856
 20
0.499186
 30
0.0
 40
0
 41
0
  0
VERTEX
  8
0
 10
0.703614
 20
0.492731
 30
0.0
 40
0
 41
0
  0
VERTEX
  8
0
 10
0.683431
 20
0.471625
 30
0.0
 40
0
 41
0
  0
VERTEX
  8
0
 10
0.674154
 20
0.444119
 30
0.0
 40
0
 41
0
  0
VERTEX
  8
0
 10
0.670682
 20
0.407932
 30
0.0
 40
0
 41
0
  0
VERTEX
  8
0
 10
0.673122
 20
0.371149
 30
0.0
 40
0
 41
0
  0
VERTEX
  8
0
 10
0.681586
 20
0.341906
 30
0.0
 40
0
 41
0
  0
VERTEX
  8
0
 10
0.69694
 20
0.323025
 30
0.0
 40
0
 41
0
  0
VERTEX
  8
0
 10
0.718261
 20
0.311903
 30
0.0
 40
0
 41
0
  0
VERTEX
  8
0
 10
0.739367
 20
0.311469
 30
0.0
 40
0
 41
0
  0
VERTEX
  8
0
 10
0.760525
 20
0.317165
 30
0.0
 40
0
 41
0
  0
SEQEND
 8
0
  0
POLYLINE
  8
0
 62
     92
 66
     1
 10
0
 20
0
 30
0.0
 70
     1
 40
0
 41
0
  0
VERTEX
  8
0
 10
0.897299
 20
0.445637
 30
0.0
 40
0
 41
0
  0
VERTEX
  8
0
 10
0.897299
 20
0.607314
 30
0.0
 40
0
 41
0
  0
VERTEX
  8
0
 10
0.938531
 20
0.607314
 30
0.0
 40
0
 41
0
  0
VERTEX
  8
0
 10
0.938531
 20
0.474935
 30
0.0
 40
0
 41
0
  0
VERTEX
  8
0
 10
1.06223
 20
0.474935
 30
0.0
 40
0
 41
0
  0
VERTEX
  8
0
 10
1.06223
 20
0.607314
 30
0.0
 40
0
 41
0
  0
VERTEX
  8
0
 10
1.10346
 20
0.607314
 30
0.0
 40
0
 41
0
  0
VERTEX
  8
0
 10
1.10346
 20
0.283962
 30
0.0
 40
0
 41
0
  0
VERTEX
  8
0
 10
1.06228
 20
0.283962
 30
0.0
 40
0
 41
0
  0
VERTEX
  8
0
 10
1.06169
 20
0.361544
 30
0.0
 40
0
 41
0
  0
VERTEX
  8
0
 10
1.06114
 20
0.439128
 30
0.0
 40
0
 41
0
  0
VERTEX
  8
0
 10
0.939615
 20
0.439128
 30
0.0
 40
0
 41
0
  0
VERTEX
  8
0
 10
0.939019
 20
0.361544
 30
0.0
 40
0
 41
0
  0
VERTEX
  8
0
 10
0.938476
 20
0.283962
 30
0.0
 40
0
 41
0
  0
VERTEX
  8
0
 10
0.897299
 20
0.283962
 30
0.0
 40
0
 41
0
  0
VERTEX
  8
0
 10
0.897299
 20
0.445637
 30
0.0
 40
0
 41
0
  0
SEQEND
 8
0
  0
POLYLINE
  8
0
 62
     92
 66
     1
 10
0
 20
0
 30
0.0
 70
     1
 40
0
 41
0
  0
VERTEX
  8
0
 10
1.21848
 20
0.282824
 30
0.0
 40
0
 41
0
  0
VERTEX
  8
0
 10
1.18647
 20
0.291612
 30
0.0
 40
0
 41
0
  0
VERTEX
  8
0
 10
1.16857
 20
0.297526
 30
0.0
 40
0
 41
0
  0
VERTEX
  8
0
 10
1.16857
 20
0.341525
 30
0.0
 40
0
 41
0
  0
VERTEX
  8
0
 10
1.19189
 20
0.330186
 30
0.0
 40
0
 41
0
  0
VERTEX
  8
0
 10
1.23443
 20
0.315429
 30
0.0
 40
0
 41
0
  0
VERTEX
  8
0
 10
1.27327
 20
0.312879
 30
0.0
 40
0
 41
0
  0
VERTEX
  8
0
 10
1.30469
 20
0.322211
 30
0.0
 40
0
 41
0
  0
VERTEX
  8
0
 10
1.32503
 20
0.343044
 30
0.0
 40
0
 41
0
  0
VERTEX
  8
0
 10
1.33062
 20
0.375706
 30
0.0
 40
0
 41
0
  0
VERTEX
  8
0
 10
1.31982
 20
0.404785
 30
0.0
 40
0
 41
0
  0
VERTEX
  8
0
 10
1.30002
 20
0.418511
 30
0.0
 40
0
 41
0
  0
VERTEX
  8
0
 10
1.26052
 20
0.430556
 30
0.0
 40
0
 41
0
  0
VERTEX
  8
0
 10
1.21587
 20
0.444444
 30
0.0
 40
0
 41
0
  0
VERTEX
  8
0
 10
1.1888
 20
0.460394
 30
0.0
 40
0
 41
0
  0
VERTEX
  8
0
 10
1.17046
 20
0.487685
 30
0.0
 40
0
 41
0
  0
VERTEX
  8
0
 10
1.16504
 20
0.52105
 30
0.0
 40
0
 41
0
  0
VERTEX
  8
0
 10
1.17231
 20
0.555012
 30
0.0
 40
0
 41
0
  0
VERTEX
  8
0
 10
1.19222
 20
0.584147
 30
0.0
 40
0
 41
0
  0
VERTEX
  8
0
 10
1.22569
 20
0.605686
 30
0.0
 40
0
 41
0
  0
VERTEX
  8
0
 10
1.27056
 20
0.611871
 30
0.0
 40
0
 41
0
  0
VERTEX
  8
0
 10
1.33946
 20
0.600586
 30
0.0
 40
0
 41
0
  0
VERTEX
  8
0
 10
1.35303
 20
0.596083
 30
0.0
 40
0
 41
0
  0
VERTEX
  8
0
 10
1.35303
 20
0.575467
 30
0.0
 40
0
 41
0
  0
VERTEX
  8
0
 10
1.35254
 20
0.561143
 30
0.0
 40
0
 41
0
  0
VERTEX
  8
0
 10
1.3514
 20
0.555556
 30
0.0
 40
0
 41
0
  0
VERTEX
  8
0
 10
1.34592
 20
0.558214
 30
0.0
 40
0
 41
0
  0
VERTEX
  8
0
 10
1.33523
 20
0.563422
 30
0.0
 40
0
 41
0
  0
VERTEX
  8
0
 10
1.29319
 20
0.57704
 30
0.0
 40
0
 41
0
  0
VERTEX
  8
0
 10
1.25456
 20
0.577311
 30
0.0
 40
0
 41
0
  0
VERTEX
  8
0
 10
1.22434
 20
0.565213
 30
0.0
 40
0
 41
0
  0
VERTEX
  8
0
 10
1.20774
 20
0.541504
 30
0.0
 40
0
 41
0
  0
VERTEX
  8
0
 10
1.20605
 20
0.518229
 30
0.0
 40
0
 41
0
  0
VERTEX
  8
0
 10
1.21191
 20
0.497775
 30
0.0
 40
0
 41
0
  0
VERTEX
  8
0
 10
1.23258
 20
0.482639
 30
0.0
 40
0
 41
0
  0
VERTEX
  8
0
 10
1.27197
 20
0.469781
 30
0.0
 40
0
 41
0
  0
VERTEX
  8
0
 10
1.30713
 20
0.459853
 30
0.0
 40
0
 41
0
  0
VERTEX
  8
0
 10
1.33268
 20
0.447971
 30
0.0
 40
0
 41
0
  0
VERTEX
  8
0
 10
1.35069
 20
0.432835
 30
0.0
 40
0
 41
0
  0
VERTEX
  8
0
 10
1.36323
 20
0.413086
 30
0.0
 40
0
 41
0
  0
VERTEX
  8
0
 10
1.36838
 20
0.39784
 30
0.0
 40
0
 41
0
  0
VERTEX
  8
0
 10
1.3693
 20
0.371853
 30
0.0
 40
0
 41
0
  0
VERTEX
  8
0
 10
1.36833
 20
0.34554
 30
0.0
 40
0
 41
0
  0
VERTEX
  8
0
 10
1.36225
 20
0.329318
 30
0.0
 40
0
 41
0
  0
VERTEX
  8
0
 10
1.33724
 20
0.299317
 30
0.0
 40
0
 41
0
  0
VERTEX
  8
0
 10
1.29904
 20
0.282715
 30
0.0
 40
0
 41
0
  0
VERTEX
  8
0
 10
1.25922
 20
0.279947
 30
0.0
 40
0
 41
0
  0
VERTEX
  8
0
 10
1.21848
 20
0.282824
 30
0.0
 40
0
 41
0
  0
SEQEND
 8
0
  0
ENDSEC
  0
EOF
