%FSLAX23Y23*%
%MOIN*%
G04 EasyPC Gerber Version 17.0 Build 3379 *
%ADD26R,0.06112X0.04104*%
%ADD10C,0.00500*%
%ADD27C,0.06600*%
%ADD126C,0.10600*%
%ADD25C,0.28100*%
X0Y0D02*
D02*
D10*
X3Y3D02*
X5903D01*
Y3953*
X3*
Y3*
D02*
D25*
X278Y278D03*
Y3203D03*
X5628Y278D03*
Y3203D03*
D02*
D26*
X5539Y795D03*
Y873D03*
Y952D03*
Y1031D03*
Y1110D03*
Y1188D03*
Y1267D03*
Y1346D03*
Y1425D03*
Y1503D03*
Y1582D03*
Y1661D03*
Y1740D03*
Y1818D03*
Y1897D03*
Y1976D03*
Y2055D03*
Y2133D03*
Y2212D03*
Y2291D03*
Y2370D03*
Y2448D03*
Y2527D03*
Y2606D03*
Y2685D03*
X5716Y795D03*
Y873D03*
Y952D03*
Y1031D03*
Y1110D03*
Y1188D03*
Y1267D03*
Y1346D03*
Y1425D03*
Y1503D03*
Y1582D03*
Y1661D03*
Y1740D03*
Y1818D03*
Y1897D03*
Y1976D03*
Y2055D03*
Y2133D03*
Y2212D03*
Y2291D03*
Y2370D03*
Y2448D03*
Y2527D03*
Y2606D03*
Y2685D03*
D02*
D27*
X1508Y1428D03*
Y2028D03*
X1608Y1428D03*
Y2028D03*
X1708Y1428D03*
Y2028D03*
X1808Y1428D03*
Y2028D03*
X1908Y1428D03*
Y2028D03*
X2008Y1428D03*
Y2028D03*
X2108Y1428D03*
Y2028D03*
X2208Y1428D03*
Y2028D03*
X2308Y1428D03*
Y2028D03*
X2408Y1428D03*
Y2028D03*
X2508Y1428D03*
Y2028D03*
X2608Y1428D03*
Y2028D03*
X2708Y1428D03*
Y2028D03*
X2808Y1428D03*
Y2028D03*
X2908Y1428D03*
Y2028D03*
X3008Y1428D03*
Y2028D03*
X3108Y1428D03*
Y2028D03*
X3208Y1428D03*
Y2028D03*
X3308Y1428D03*
Y2028D03*
X3408Y1428D03*
Y2028D03*
X3507Y1428D03*
Y2028D03*
X3608Y1428D03*
Y2028D03*
X3708Y1428D03*
Y2028D03*
X3808Y1428D03*
Y2028D03*
D02*
D126*
X728Y3753D03*
X877D03*
X1153D03*
X1303D03*
X1578D03*
X1728D03*
X2003D03*
X2153D03*
X2528D03*
X2678D03*
X2953D03*
X3103D03*
X3378D03*
X3528D03*
X3803D03*
X3953D03*
X4228D03*
X4378D03*
X4653D03*
X4803D03*
X5078D03*
X5228D03*
X5503D03*
X5653D03*
X0Y0D02*
M02*
