%FSLAX23Y23*%
%MOIN*%
G04 EasyPC Gerber Version 17.0 Build 3379 *
%ADD131R,0.00660X0.02550*%
%ADD134R,0.00998X0.05306*%
%ADD132R,0.02550X0.00660*%
%ADD111R,0.01959X0.04912*%
%ADD133R,0.05306X0.00998*%
%ADD117R,0.03337X0.03691*%
%ADD112R,0.03888X0.05896*%
%ADD110R,0.04900X0.05400*%
%ADD75R,0.04912X0.02904*%
%ADD135R,0.11998X0.04124*%
%ADD116R,0.05700X0.05700*%
%ADD114R,0.05400X0.04900*%
%ADD113R,0.11211X0.05896*%
%ADD136R,0.23416X0.11447*%
X0Y0D02*
D02*
D75*
X5539Y795D03*
Y873D03*
Y952D03*
Y1031D03*
Y1110D03*
Y1188D03*
Y1267D03*
Y1346D03*
Y1425D03*
Y1503D03*
Y1582D03*
Y1661D03*
Y1740D03*
Y1818D03*
Y1897D03*
Y1976D03*
Y2055D03*
Y2133D03*
Y2212D03*
Y2291D03*
Y2370D03*
Y2448D03*
Y2527D03*
Y2606D03*
Y2685D03*
X5716Y795D03*
Y873D03*
Y952D03*
Y1031D03*
Y1110D03*
Y1188D03*
Y1267D03*
Y1346D03*
Y1425D03*
Y1503D03*
Y1582D03*
Y1661D03*
Y1740D03*
Y1818D03*
Y1897D03*
Y1976D03*
Y2055D03*
Y2133D03*
Y2212D03*
Y2291D03*
Y2370D03*
Y2448D03*
Y2527D03*
Y2606D03*
Y2685D03*
D02*
D110*
X693Y3193D03*
Y3283D03*
Y3363D03*
Y3453D03*
X858Y398D03*
Y488D03*
Y908D03*
Y998D03*
X948Y398D03*
Y488D03*
Y908D03*
Y998D03*
X993Y3193D03*
Y3283D03*
Y3363D03*
Y3453D03*
X1059Y508D03*
Y598D03*
Y683D03*
Y773D03*
X1108Y3193D03*
Y3283D03*
Y3363D03*
Y3453D03*
X1408Y3193D03*
Y3283D03*
Y3363D03*
Y3453D03*
X1523Y3193D03*
Y3283D03*
Y3363D03*
Y3453D03*
X1823Y3193D03*
Y3283D03*
Y3363D03*
Y3453D03*
X1938Y3193D03*
Y3283D03*
Y3363D03*
Y3453D03*
X2238Y3193D03*
Y3283D03*
Y3363D03*
Y3453D03*
X2921Y398D03*
Y488D03*
X3007Y398D03*
Y488D03*
X3868Y2343D03*
Y2433D03*
X3875Y523D03*
Y613D03*
X3927Y1579D03*
Y1669D03*
X3953Y2343D03*
Y2433D03*
X4027Y1579D03*
Y1669D03*
X5378Y1708D03*
Y1798D03*
D02*
D111*
X768Y3219D03*
Y3428D03*
X818Y3219D03*
Y3428D03*
X868Y3219D03*
Y3428D03*
X918Y3219D03*
Y3428D03*
X1183Y3219D03*
Y3428D03*
X1233Y3219D03*
Y3428D03*
X1283Y3219D03*
Y3428D03*
X1333Y3219D03*
Y3428D03*
X1598Y3219D03*
Y3428D03*
X1648Y3219D03*
Y3428D03*
X1698Y3219D03*
Y3428D03*
X1748Y3219D03*
Y3428D03*
X2013Y3219D03*
Y3428D03*
X2063Y3219D03*
Y3428D03*
X2113Y3219D03*
Y3428D03*
X2163Y3219D03*
Y3428D03*
D02*
D112*
X3995Y614D03*
X4086D03*
X4176D03*
D02*
D113*
X4086Y864D03*
D02*
D114*
X1023Y2418D03*
Y2498D03*
Y2638D03*
Y2718D03*
Y2798D03*
Y2878D03*
Y2958D03*
X1113Y2418D03*
Y2498D03*
Y2638D03*
Y2718D03*
Y2798D03*
Y2878D03*
Y2958D03*
X1817Y2343D03*
Y2423D03*
Y2503D03*
Y2638D03*
Y2718D03*
Y2798D03*
Y2878D03*
Y2958D03*
X1908Y2343D03*
Y2423D03*
Y2503D03*
Y2638D03*
Y2718D03*
Y2798D03*
Y2878D03*
Y2958D03*
X3193Y2574D03*
Y2659D03*
Y2744D03*
Y2829D03*
X3280Y2938D03*
Y3018D03*
X3283Y2574D03*
Y2659D03*
Y2744D03*
Y2829D03*
X3370Y2938D03*
Y3018D03*
X4041Y508D03*
X4122Y2433D03*
X4131Y508D03*
X4213Y2433D03*
X4443Y2458D03*
Y2538D03*
Y2618D03*
Y2698D03*
Y2778D03*
Y2858D03*
Y2938D03*
Y3018D03*
X4532Y2458D03*
Y2538D03*
Y2618D03*
Y2698D03*
Y2778D03*
Y2858D03*
Y2938D03*
Y3018D03*
X4911Y2942D03*
Y3026D03*
X4912Y2355D03*
Y2446D03*
X5001Y2942D03*
Y3026D03*
X5002Y2355D03*
Y2446D03*
D02*
D116*
X5186Y952D03*
X5320D03*
D02*
D117*
X102Y3565D03*
Y3635D03*
X102Y3705D03*
Y3775D03*
X201Y3705D03*
Y3775D03*
X202Y3565D03*
Y3635D03*
X301Y3705D03*
Y3775D03*
X302Y3565D03*
Y3635D03*
X401Y3705D03*
Y3775D03*
X402Y3565D03*
Y3635D03*
X501Y3705D03*
Y3775D03*
X502Y3565D03*
Y3635D03*
X3418Y3323D03*
Y3393D03*
X3493Y3323D03*
Y3393D03*
X3568Y3323D03*
Y3393D03*
X3643Y3323D03*
Y3393D03*
X3718Y3323D03*
Y3393D03*
X3793Y3323D03*
Y3393D03*
X3868Y3323D03*
Y3393D03*
X3943Y3323D03*
Y3393D03*
X4018Y3323D03*
Y3393D03*
X4093Y3323D03*
Y3393D03*
X4168Y3323D03*
Y3393D03*
X4243Y3323D03*
Y3393D03*
X4318Y3323D03*
Y3393D03*
X4393Y3323D03*
Y3393D03*
X4468Y3323D03*
Y3393D03*
X4543Y3323D03*
Y3393D03*
D02*
D131*
X3831Y2564D03*
Y3016D03*
X3851Y2564D03*
Y3016D03*
X3871Y2564D03*
Y3016D03*
X3890Y2564D03*
Y3016D03*
X3910Y2564D03*
Y3016D03*
X3930Y2564D03*
Y3016D03*
X3949Y2564D03*
Y3016D03*
X3969Y2564D03*
Y3016D03*
X3989Y2564D03*
Y3016D03*
X4008Y2564D03*
Y3016D03*
X4028Y2564D03*
Y3016D03*
X4048Y2564D03*
Y3016D03*
X4067Y2564D03*
Y3016D03*
X4087Y2564D03*
Y3016D03*
X4107Y2564D03*
Y3016D03*
X4127Y2564D03*
Y3016D03*
D02*
D132*
X3753Y2642D03*
Y2662D03*
Y2682D03*
Y2701D03*
Y2721D03*
Y2741D03*
Y2760D03*
Y2780D03*
Y2800D03*
Y2820D03*
Y2839D03*
Y2859D03*
Y2879D03*
Y2898D03*
Y2918D03*
Y2938D03*
X4205Y2642D03*
Y2662D03*
Y2682D03*
Y2701D03*
Y2721D03*
Y2741D03*
Y2760D03*
Y2780D03*
Y2800D03*
Y2820D03*
Y2839D03*
Y2859D03*
Y2879D03*
Y2898D03*
Y2918D03*
Y2938D03*
D02*
D133*
X1310Y2600D03*
Y2631D03*
Y2663D03*
Y2694D03*
Y2726D03*
Y2757D03*
Y2789D03*
Y2820D03*
X1645Y2600D03*
Y2631D03*
Y2663D03*
Y2694D03*
Y2726D03*
Y2757D03*
Y2789D03*
Y2820D03*
D02*
D134*
X1368Y2543D03*
Y2877D03*
X1399Y2543D03*
Y2877D03*
X1430Y2543D03*
Y2877D03*
X1462Y2543D03*
Y2877D03*
X1493Y2543D03*
Y2877D03*
X1525Y2543D03*
Y2877D03*
X1556Y2543D03*
Y2877D03*
X1588Y2543D03*
Y2877D03*
D02*
D135*
X1279Y398D03*
Y598D03*
Y798D03*
Y998D03*
X2767Y398D03*
Y798D03*
Y998D03*
D02*
D136*
X5006Y2567D03*
Y2809D03*
X0Y0D02*
M02*
